%TF.GenerationSoftware,KiCad,Pcbnew,(5.1.5)-3*%
%TF.CreationDate,2020-03-25T19:20:18+01:00*%
%TF.ProjectId,Larson SC64anner,4c617273-6f6e-4205-9343-3634616e6e65,rev?*%
%TF.SameCoordinates,PX1ba8140PY2625a00*%
%TF.FileFunction,Legend,Top*%
%TF.FilePolarity,Positive*%
%FSLAX46Y46*%
G04 Gerber Fmt 4.6, Leading zero omitted, Abs format (unit mm)*
G04 Created by KiCad (PCBNEW (5.1.5)-3) date 2020-03-25 19:20:18*
%MOMM*%
%LPD*%
G04 APERTURE LIST*
%ADD10C,0.120000*%
%ADD11C,0.100000*%
%ADD12C,0.300000*%
%ADD13C,0.150000*%
G04 APERTURE END LIST*
D10*
X317000000Y10300000D02*
X317200000Y9600000D01*
X318800000Y9100000D02*
X317000000Y10300000D01*
X317000000Y10300000D02*
X317800000Y10300000D01*
X323000000Y11700000D02*
G75*
G02X317400002Y11700000I-2799999J-2899999D01*
G01*
X320700000Y13600000D02*
X320500000Y13600000D01*
X320700000Y13600000D02*
X320700000Y13800000D01*
X320200000Y14000000D02*
X320700000Y13600000D01*
X320200000Y14900000D02*
X320400000Y14700000D01*
X320200000Y14900000D02*
X320000000Y14700000D01*
X320200000Y14000000D02*
X320200000Y14900000D01*
X321204988Y14000000D02*
G75*
G03X321204988Y14000000I-1004988J0D01*
G01*
D11*
G36*
X320200000Y10800000D02*
G01*
X318800000Y13000000D01*
X320200000Y12600000D01*
X321600000Y13000000D01*
X320200000Y10800000D01*
G37*
X320200000Y10800000D02*
X318800000Y13000000D01*
X320200000Y12600000D01*
X321600000Y13000000D01*
X320200000Y10800000D01*
D10*
X316500000Y9300000D02*
X317300000Y9300000D01*
X318300000Y8100000D02*
X316500000Y9300000D01*
X316500000Y9300000D02*
X316700000Y8600000D01*
X320200000Y10700000D02*
X323000000Y15200000D01*
X320200000Y10700000D02*
X317398215Y15200000D01*
X322998215Y15200000D02*
X317398215Y15200000D01*
X317400000Y10700000D02*
X323000000Y10700000D01*
X320300000Y10700000D02*
X323000000Y6200000D01*
X320100000Y10700000D02*
X317398215Y6200000D01*
D12*
X320200000Y5400000D02*
X320200000Y11100000D01*
D10*
X317400000Y6200000D02*
X323000000Y6200000D01*
D12*
X355650000Y16807143D02*
X355721428Y16950000D01*
X355721428Y17164286D01*
X355650000Y17378572D01*
X355507142Y17521429D01*
X355364285Y17592858D01*
X355078571Y17664286D01*
X354864285Y17664286D01*
X354578571Y17592858D01*
X354435714Y17521429D01*
X354292857Y17378572D01*
X354221428Y17164286D01*
X354221428Y17021429D01*
X354292857Y16807143D01*
X354364285Y16735715D01*
X354864285Y16735715D01*
X354864285Y17021429D01*
X354221428Y16092858D02*
X355221428Y16092858D01*
X354935714Y16092858D02*
X355078571Y16021429D01*
X355150000Y15950000D01*
X355221428Y15807143D01*
X355221428Y15664286D01*
X354221428Y15164286D02*
X355221428Y15164286D01*
X355721428Y15164286D02*
X355650000Y15235715D01*
X355578571Y15164286D01*
X355650000Y15092858D01*
X355721428Y15164286D01*
X355578571Y15164286D01*
X354292857Y13878572D02*
X354221428Y14021429D01*
X354221428Y14307143D01*
X354292857Y14450000D01*
X354435714Y14521429D01*
X355007142Y14521429D01*
X355150000Y14450000D01*
X355221428Y14307143D01*
X355221428Y14021429D01*
X355150000Y13878572D01*
X355007142Y13807143D01*
X354864285Y13807143D01*
X354721428Y14521429D01*
X355221428Y13378572D02*
X355221428Y12807143D01*
X354221428Y13164286D02*
X355507142Y13164286D01*
X355650000Y13092858D01*
X355721428Y12950000D01*
X355721428Y12807143D01*
X354292857Y11735715D02*
X354221428Y11878572D01*
X354221428Y12164286D01*
X354292857Y12307143D01*
X354435714Y12378572D01*
X355007142Y12378572D01*
X355150000Y12307143D01*
X355221428Y12164286D01*
X355221428Y11878572D01*
X355150000Y11735715D01*
X355007142Y11664286D01*
X354864285Y11664286D01*
X354721428Y12378572D01*
X354221428Y10378572D02*
X355721428Y10378572D01*
X354292857Y10378572D02*
X354221428Y10521429D01*
X354221428Y10807143D01*
X354292857Y10950000D01*
X354364285Y11021429D01*
X354507142Y11092858D01*
X354935714Y11092858D01*
X355078571Y11021429D01*
X355150000Y10950000D01*
X355221428Y10807143D01*
X355221428Y10521429D01*
X355150000Y10378572D01*
X355792857Y8592858D02*
X353864285Y9878572D01*
X354221428Y7378572D02*
X354221428Y8092858D01*
X355721428Y8092858D01*
X354292857Y6950000D02*
X354221428Y6735715D01*
X354221428Y6378572D01*
X354292857Y6235715D01*
X354364285Y6164286D01*
X354507142Y6092858D01*
X354650000Y6092858D01*
X354792857Y6164286D01*
X354864285Y6235715D01*
X354935714Y6378572D01*
X355007142Y6664286D01*
X355078571Y6807143D01*
X355150000Y6878572D01*
X355292857Y6950000D01*
X355435714Y6950000D01*
X355578571Y6878572D01*
X355650000Y6807143D01*
X355721428Y6664286D01*
X355721428Y6307143D01*
X355650000Y6092858D01*
X354364285Y4592858D02*
X354292857Y4664286D01*
X354221428Y4878572D01*
X354221428Y5021429D01*
X354292857Y5235715D01*
X354435714Y5378572D01*
X354578571Y5450000D01*
X354864285Y5521429D01*
X355078571Y5521429D01*
X355364285Y5450000D01*
X355507142Y5378572D01*
X355650000Y5235715D01*
X355721428Y5021429D01*
X355721428Y4878572D01*
X355650000Y4664286D01*
X355578571Y4592858D01*
X355721428Y3307143D02*
X355721428Y3592858D01*
X355650000Y3735715D01*
X355578571Y3807143D01*
X355364285Y3950000D01*
X355078571Y4021429D01*
X354507142Y4021429D01*
X354364285Y3950000D01*
X354292857Y3878572D01*
X354221428Y3735715D01*
X354221428Y3450000D01*
X354292857Y3307143D01*
X354364285Y3235715D01*
X354507142Y3164286D01*
X354864285Y3164286D01*
X355007142Y3235715D01*
X355078571Y3307143D01*
X355150000Y3450000D01*
X355150000Y3735715D01*
X355078571Y3878572D01*
X355007142Y3950000D01*
X354864285Y4021429D01*
X355221428Y1878572D02*
X354221428Y1878572D01*
X355792857Y2235715D02*
X354721428Y2592858D01*
X354721428Y1664286D01*
X357621428Y15664286D02*
X356407142Y15664286D01*
X356264285Y15735715D01*
X356192857Y15807143D01*
X356121428Y15950000D01*
X356121428Y16164286D01*
X356192857Y16307143D01*
X356692857Y15664286D02*
X356621428Y15807143D01*
X356621428Y16092858D01*
X356692857Y16235715D01*
X356764285Y16307143D01*
X356907142Y16378572D01*
X357335714Y16378572D01*
X357478571Y16307143D01*
X357550000Y16235715D01*
X357621428Y16092858D01*
X357621428Y15807143D01*
X357550000Y15664286D01*
X356621428Y14950000D02*
X357621428Y14950000D01*
X358121428Y14950000D02*
X358050000Y15021429D01*
X357978571Y14950000D01*
X358050000Y14878572D01*
X358121428Y14950000D01*
X357978571Y14950000D01*
X357621428Y14450000D02*
X357621428Y13878572D01*
X358121428Y14235715D02*
X356835714Y14235715D01*
X356692857Y14164286D01*
X356621428Y14021429D01*
X356621428Y13878572D01*
X356621428Y13378572D02*
X358121428Y13378572D01*
X356621428Y12735715D02*
X357407142Y12735715D01*
X357550000Y12807143D01*
X357621428Y12950000D01*
X357621428Y13164286D01*
X357550000Y13307143D01*
X357478571Y13378572D01*
X357621428Y11378572D02*
X356621428Y11378572D01*
X357621428Y12021429D02*
X356835714Y12021429D01*
X356692857Y11950000D01*
X356621428Y11807143D01*
X356621428Y11592858D01*
X356692857Y11450000D01*
X356764285Y11378572D01*
X356621428Y10664286D02*
X358121428Y10664286D01*
X357550000Y10664286D02*
X357621428Y10521429D01*
X357621428Y10235715D01*
X357550000Y10092858D01*
X357478571Y10021429D01*
X357335714Y9950000D01*
X356907142Y9950000D01*
X356764285Y10021429D01*
X356692857Y10092858D01*
X356621428Y10235715D01*
X356621428Y10521429D01*
X356692857Y10664286D01*
X356764285Y9307143D02*
X356692857Y9235715D01*
X356621428Y9307143D01*
X356692857Y9378572D01*
X356764285Y9307143D01*
X356621428Y9307143D01*
X356692857Y7950000D02*
X356621428Y8092858D01*
X356621428Y8378572D01*
X356692857Y8521429D01*
X356764285Y8592858D01*
X356907142Y8664286D01*
X357335714Y8664286D01*
X357478571Y8592858D01*
X357550000Y8521429D01*
X357621428Y8378572D01*
X357621428Y8092858D01*
X357550000Y7950000D01*
X356621428Y7092858D02*
X356692857Y7235715D01*
X356764285Y7307143D01*
X356907142Y7378572D01*
X357335714Y7378572D01*
X357478571Y7307143D01*
X357550000Y7235715D01*
X357621428Y7092858D01*
X357621428Y6878572D01*
X357550000Y6735715D01*
X357478571Y6664286D01*
X357335714Y6592858D01*
X356907142Y6592858D01*
X356764285Y6664286D01*
X356692857Y6735715D01*
X356621428Y6878572D01*
X356621428Y7092858D01*
X356621428Y5950000D02*
X357621428Y5950000D01*
X357478571Y5950000D02*
X357550000Y5878572D01*
X357621428Y5735715D01*
X357621428Y5521429D01*
X357550000Y5378572D01*
X357407142Y5307143D01*
X356621428Y5307143D01*
X357407142Y5307143D02*
X357550000Y5235715D01*
X357621428Y5092858D01*
X357621428Y4878572D01*
X357550000Y4735715D01*
X357407142Y4664286D01*
X356621428Y4664286D01*
X358192857Y2878572D02*
X356264285Y4164286D01*
X359021428Y15428572D02*
X360521428Y15428572D01*
X359950000Y15428572D02*
X360021428Y15285715D01*
X360021428Y15000000D01*
X359950000Y14857143D01*
X359878571Y14785715D01*
X359735714Y14714286D01*
X359307142Y14714286D01*
X359164285Y14785715D01*
X359092857Y14857143D01*
X359021428Y15000000D01*
X359021428Y15285715D01*
X359092857Y15428572D01*
X360021428Y14214286D02*
X359021428Y13857143D01*
X360021428Y13500000D02*
X359021428Y13857143D01*
X358664285Y14000000D01*
X358592857Y14071429D01*
X358521428Y14214286D01*
X360450000Y11000000D02*
X360521428Y11142858D01*
X360521428Y11357143D01*
X360450000Y11571429D01*
X360307142Y11714286D01*
X360164285Y11785715D01*
X359878571Y11857143D01*
X359664285Y11857143D01*
X359378571Y11785715D01*
X359235714Y11714286D01*
X359092857Y11571429D01*
X359021428Y11357143D01*
X359021428Y11214286D01*
X359092857Y11000000D01*
X359164285Y10928572D01*
X359664285Y10928572D01*
X359664285Y11214286D01*
X359021428Y10285715D02*
X360021428Y10285715D01*
X359735714Y10285715D02*
X359878571Y10214286D01*
X359950000Y10142858D01*
X360021428Y10000000D01*
X360021428Y9857143D01*
X359021428Y9357143D02*
X360021428Y9357143D01*
X360521428Y9357143D02*
X360450000Y9428572D01*
X360378571Y9357143D01*
X360450000Y9285715D01*
X360521428Y9357143D01*
X360378571Y9357143D01*
X359092857Y8071429D02*
X359021428Y8214286D01*
X359021428Y8500000D01*
X359092857Y8642858D01*
X359235714Y8714286D01*
X359807142Y8714286D01*
X359950000Y8642858D01*
X360021428Y8500000D01*
X360021428Y8214286D01*
X359950000Y8071429D01*
X359807142Y8000000D01*
X359664285Y8000000D01*
X359521428Y8714286D01*
X360021428Y7571429D02*
X360021428Y7000000D01*
X359021428Y7357143D02*
X360307142Y7357143D01*
X360450000Y7285715D01*
X360521428Y7142858D01*
X360521428Y7000000D01*
X359092857Y5928572D02*
X359021428Y6071429D01*
X359021428Y6357143D01*
X359092857Y6500000D01*
X359235714Y6571429D01*
X359807142Y6571429D01*
X359950000Y6500000D01*
X360021428Y6357143D01*
X360021428Y6071429D01*
X359950000Y5928572D01*
X359807142Y5857143D01*
X359664285Y5857143D01*
X359521428Y6571429D01*
X359021428Y4571429D02*
X360521428Y4571429D01*
X359092857Y4571429D02*
X359021428Y4714286D01*
X359021428Y5000000D01*
X359092857Y5142858D01*
X359164285Y5214286D01*
X359307142Y5285715D01*
X359735714Y5285715D01*
X359878571Y5214286D01*
X359950000Y5142858D01*
X360021428Y5000000D01*
X360021428Y4714286D01*
X359950000Y4571429D01*
X360921428Y15842858D02*
X360921428Y16557143D01*
X362421428Y16557143D01*
X360992857Y15414286D02*
X360921428Y15200000D01*
X360921428Y14842858D01*
X360992857Y14700000D01*
X361064285Y14628572D01*
X361207142Y14557143D01*
X361350000Y14557143D01*
X361492857Y14628572D01*
X361564285Y14700000D01*
X361635714Y14842858D01*
X361707142Y15128572D01*
X361778571Y15271429D01*
X361850000Y15342858D01*
X361992857Y15414286D01*
X362135714Y15414286D01*
X362278571Y15342858D01*
X362350000Y15271429D01*
X362421428Y15128572D01*
X362421428Y14771429D01*
X362350000Y14557143D01*
X361064285Y13057143D02*
X360992857Y13128572D01*
X360921428Y13342858D01*
X360921428Y13485715D01*
X360992857Y13700000D01*
X361135714Y13842858D01*
X361278571Y13914286D01*
X361564285Y13985715D01*
X361778571Y13985715D01*
X362064285Y13914286D01*
X362207142Y13842858D01*
X362350000Y13700000D01*
X362421428Y13485715D01*
X362421428Y13342858D01*
X362350000Y13128572D01*
X362278571Y13057143D01*
X362421428Y11771429D02*
X362421428Y12057143D01*
X362350000Y12200000D01*
X362278571Y12271429D01*
X362064285Y12414286D01*
X361778571Y12485715D01*
X361207142Y12485715D01*
X361064285Y12414286D01*
X360992857Y12342858D01*
X360921428Y12200000D01*
X360921428Y11914286D01*
X360992857Y11771429D01*
X361064285Y11700000D01*
X361207142Y11628572D01*
X361564285Y11628572D01*
X361707142Y11700000D01*
X361778571Y11771429D01*
X361850000Y11914286D01*
X361850000Y12200000D01*
X361778571Y12342858D01*
X361707142Y12414286D01*
X361564285Y12485715D01*
X361921428Y10342858D02*
X360921428Y10342858D01*
X362492857Y10700000D02*
X361421428Y11057143D01*
X361421428Y10128572D01*
X362421428Y8628572D02*
X360921428Y8128572D01*
X362421428Y7628572D01*
X362278571Y7200000D02*
X362350000Y7128572D01*
X362421428Y6985715D01*
X362421428Y6628572D01*
X362350000Y6485715D01*
X362278571Y6414286D01*
X362135714Y6342858D01*
X361992857Y6342858D01*
X361778571Y6414286D01*
X360921428Y7271429D01*
X360921428Y6342858D01*
X361064285Y5700000D02*
X360992857Y5628572D01*
X360921428Y5700000D01*
X360992857Y5771429D01*
X361064285Y5700000D01*
X360921428Y5700000D01*
X360921428Y4200000D02*
X360921428Y5057143D01*
X360921428Y4628572D02*
X362421428Y4628572D01*
X362207142Y4771429D01*
X362064285Y4914286D01*
X361992857Y5057143D01*
X361778571Y3342858D02*
X361850000Y3485715D01*
X361921428Y3557143D01*
X362064285Y3628572D01*
X362135714Y3628572D01*
X362278571Y3557143D01*
X362350000Y3485715D01*
X362421428Y3342858D01*
X362421428Y3057143D01*
X362350000Y2914286D01*
X362278571Y2842858D01*
X362135714Y2771429D01*
X362064285Y2771429D01*
X361921428Y2842858D01*
X361850000Y2914286D01*
X361778571Y3057143D01*
X361778571Y3342858D01*
X361707142Y3485715D01*
X361635714Y3557143D01*
X361492857Y3628572D01*
X361207142Y3628572D01*
X361064285Y3557143D01*
X360992857Y3485715D01*
X360921428Y3342858D01*
X360921428Y3057143D01*
X360992857Y2914286D01*
X361064285Y2842858D01*
X361207142Y2771429D01*
X361492857Y2771429D01*
X361635714Y2842858D01*
X361707142Y2914286D01*
X361778571Y3057143D01*
X79250000Y16421429D02*
X79250000Y17921429D01*
X80107142Y16421429D01*
X80107142Y17921429D01*
X80821428Y17207143D02*
X81321428Y17207143D01*
X81535714Y16421429D02*
X80821428Y16421429D01*
X80821428Y17921429D01*
X81535714Y17921429D01*
X82892857Y17921429D02*
X82178571Y17921429D01*
X82107142Y17207143D01*
X82178571Y17278572D01*
X82321428Y17350000D01*
X82678571Y17350000D01*
X82821428Y17278572D01*
X82892857Y17207143D01*
X82964285Y17064286D01*
X82964285Y16707143D01*
X82892857Y16564286D01*
X82821428Y16492858D01*
X82678571Y16421429D01*
X82321428Y16421429D01*
X82178571Y16492858D01*
X82107142Y16564286D01*
X84321428Y17921429D02*
X83607142Y17921429D01*
X83535714Y17207143D01*
X83607142Y17278572D01*
X83750000Y17350000D01*
X84107142Y17350000D01*
X84250000Y17278572D01*
X84321428Y17207143D01*
X84392857Y17064286D01*
X84392857Y16707143D01*
X84321428Y16564286D01*
X84250000Y16492858D01*
X84107142Y16421429D01*
X83750000Y16421429D01*
X83607142Y16492858D01*
X83535714Y16564286D01*
X85750000Y17921429D02*
X85035714Y17921429D01*
X84964285Y17207143D01*
X85035714Y17278572D01*
X85178571Y17350000D01*
X85535714Y17350000D01*
X85678571Y17278572D01*
X85750000Y17207143D01*
X85821428Y17064286D01*
X85821428Y16707143D01*
X85750000Y16564286D01*
X85678571Y16492858D01*
X85535714Y16421429D01*
X85178571Y16421429D01*
X85035714Y16492858D01*
X84964285Y16564286D01*
X100514285Y16664286D02*
X100442857Y16592858D01*
X100228571Y16521429D01*
X100085714Y16521429D01*
X99871428Y16592858D01*
X99728571Y16735715D01*
X99657142Y16878572D01*
X99585714Y17164286D01*
X99585714Y17378572D01*
X99657142Y17664286D01*
X99728571Y17807143D01*
X99871428Y17950000D01*
X100085714Y18021429D01*
X100228571Y18021429D01*
X100442857Y17950000D01*
X100514285Y17878572D01*
X101157142Y16521429D02*
X101157142Y18021429D01*
X101728571Y18021429D01*
X101871428Y17950000D01*
X101942857Y17878572D01*
X102014285Y17735715D01*
X102014285Y17521429D01*
X101942857Y17378572D01*
X101871428Y17307143D01*
X101728571Y17235715D01*
X101157142Y17235715D01*
X102657142Y18021429D02*
X102657142Y16807143D01*
X102728571Y16664286D01*
X102800000Y16592858D01*
X102942857Y16521429D01*
X103228571Y16521429D01*
X103371428Y16592858D01*
X103442857Y16664286D01*
X103514285Y16807143D01*
X103514285Y18021429D01*
X105871428Y17307143D02*
X106085714Y17235715D01*
X106157142Y17164286D01*
X106228571Y17021429D01*
X106228571Y16807143D01*
X106157142Y16664286D01*
X106085714Y16592858D01*
X105942857Y16521429D01*
X105371428Y16521429D01*
X105371428Y18021429D01*
X105871428Y18021429D01*
X106014285Y17950000D01*
X106085714Y17878572D01*
X106157142Y17735715D01*
X106157142Y17592858D01*
X106085714Y17450000D01*
X106014285Y17378572D01*
X105871428Y17307143D01*
X105371428Y17307143D01*
X106871428Y16521429D02*
X106871428Y17521429D01*
X106871428Y17235715D02*
X106942857Y17378572D01*
X107014285Y17450000D01*
X107157142Y17521429D01*
X107300000Y17521429D01*
X108442857Y16521429D02*
X108442857Y17307143D01*
X108371428Y17450000D01*
X108228571Y17521429D01*
X107942857Y17521429D01*
X107800000Y17450000D01*
X108442857Y16592858D02*
X108300000Y16521429D01*
X107942857Y16521429D01*
X107800000Y16592858D01*
X107728571Y16735715D01*
X107728571Y16878572D01*
X107800000Y17021429D01*
X107942857Y17092858D01*
X108300000Y17092858D01*
X108442857Y17164286D01*
X109157142Y16521429D02*
X109157142Y18021429D01*
X109300000Y17092858D02*
X109728571Y16521429D01*
X109728571Y17521429D02*
X109157142Y16950000D01*
X110942857Y16592858D02*
X110800000Y16521429D01*
X110514285Y16521429D01*
X110371428Y16592858D01*
X110300000Y16735715D01*
X110300000Y17307143D01*
X110371428Y17450000D01*
X110514285Y17521429D01*
X110800000Y17521429D01*
X110942857Y17450000D01*
X111014285Y17307143D01*
X111014285Y17164286D01*
X110300000Y17021429D01*
D10*
X109400000Y13700000D02*
X109400001Y9899999D01*
X100900000Y16200000D02*
X106900000Y16200000D01*
X98400000Y13700000D02*
X98400000Y4200000D01*
X87500000Y4200000D02*
X87500000Y13500000D01*
X95900000Y1700000D02*
X90000000Y1700000D01*
X114784688Y6800000D02*
X114784688Y16100000D01*
X114784688Y6800000D02*
G75*
G02X109400001Y9899999I-3584688J0D01*
G01*
X106900000Y16200000D02*
G75*
G02X109400000Y13700000I0J-2500000D01*
G01*
X98400000Y13700000D02*
G75*
G02X100900000Y16200000I2500000J0D01*
G01*
X98400000Y4200000D02*
G75*
G02X95900000Y1700000I-2500000J0D01*
G01*
X90000000Y1700000D02*
G75*
G02X87500000Y4200000I0J2500000D01*
G01*
X85000000Y16000000D02*
X79800000Y16000000D01*
X85000000Y16000000D02*
G75*
G02X87500000Y13500000I0J-2500000D01*
G01*
X77300000Y5200000D02*
X77300000Y13500000D01*
X77300000Y13500000D02*
G75*
G02X79800000Y16000000I2500000J0D01*
G01*
X71200000Y18400000D02*
X112484688Y18400000D01*
X112484688Y18400000D02*
G75*
G02X114784688Y16100000I0J-2300000D01*
G01*
X68900000Y16100000D02*
G75*
G02X71200000Y18400000I2300000J0D01*
G01*
X68900000Y5200000D02*
X68900000Y16100000D01*
X74800000Y2700000D02*
X71400000Y2700000D01*
X77300000Y5200000D02*
G75*
G02X74800000Y2700000I-2500000J0D01*
G01*
X71400000Y2700000D02*
G75*
G02X68900000Y5200000I0J2500000D01*
G01*
D13*
X23809523Y17821429D02*
X24142857Y17821429D01*
X24285714Y17297620D02*
X23809523Y17297620D01*
X23809523Y18297620D01*
X24285714Y18297620D01*
X24619047Y17297620D02*
X25142857Y17964286D01*
X24619047Y17964286D02*
X25142857Y17297620D01*
X25523809Y17964286D02*
X25523809Y16964286D01*
X25523809Y17916667D02*
X25619047Y17964286D01*
X25809523Y17964286D01*
X25904761Y17916667D01*
X25952380Y17869048D01*
X25999999Y17773810D01*
X25999999Y17488096D01*
X25952380Y17392858D01*
X25904761Y17345239D01*
X25809523Y17297620D01*
X25619047Y17297620D01*
X25523809Y17345239D01*
X26857142Y17297620D02*
X26857142Y17821429D01*
X26809523Y17916667D01*
X26714285Y17964286D01*
X26523809Y17964286D01*
X26428571Y17916667D01*
X26857142Y17345239D02*
X26761904Y17297620D01*
X26523809Y17297620D01*
X26428571Y17345239D01*
X26380952Y17440477D01*
X26380952Y17535715D01*
X26428571Y17630953D01*
X26523809Y17678572D01*
X26761904Y17678572D01*
X26857142Y17726191D01*
X27333333Y17964286D02*
X27333333Y17297620D01*
X27333333Y17869048D02*
X27380952Y17916667D01*
X27476190Y17964286D01*
X27619047Y17964286D01*
X27714285Y17916667D01*
X27761904Y17821429D01*
X27761904Y17297620D01*
X28190476Y17345239D02*
X28285714Y17297620D01*
X28476190Y17297620D01*
X28571428Y17345239D01*
X28619047Y17440477D01*
X28619047Y17488096D01*
X28571428Y17583334D01*
X28476190Y17630953D01*
X28333333Y17630953D01*
X28238095Y17678572D01*
X28190476Y17773810D01*
X28190476Y17821429D01*
X28238095Y17916667D01*
X28333333Y17964286D01*
X28476190Y17964286D01*
X28571428Y17916667D01*
X29047619Y17297620D02*
X29047619Y17964286D01*
X29047619Y18297620D02*
X28999999Y18250000D01*
X29047619Y18202381D01*
X29095238Y18250000D01*
X29047619Y18297620D01*
X29047619Y18202381D01*
X29666666Y17297620D02*
X29571428Y17345239D01*
X29523809Y17392858D01*
X29476190Y17488096D01*
X29476190Y17773810D01*
X29523809Y17869048D01*
X29571428Y17916667D01*
X29666666Y17964286D01*
X29809523Y17964286D01*
X29904761Y17916667D01*
X29952380Y17869048D01*
X29999999Y17773810D01*
X29999999Y17488096D01*
X29952380Y17392858D01*
X29904761Y17345239D01*
X29809523Y17297620D01*
X29666666Y17297620D01*
X30428571Y17964286D02*
X30428571Y17297620D01*
X30428571Y17869048D02*
X30476190Y17916667D01*
X30571428Y17964286D01*
X30714285Y17964286D01*
X30809523Y17916667D01*
X30857142Y17821429D01*
X30857142Y17297620D01*
X31285714Y17345239D02*
X31380952Y17297620D01*
X31571428Y17297620D01*
X31666666Y17345239D01*
X31714285Y17440477D01*
X31714285Y17488096D01*
X31666666Y17583334D01*
X31571428Y17630953D01*
X31428571Y17630953D01*
X31333333Y17678572D01*
X31285714Y17773810D01*
X31285714Y17821429D01*
X31333333Y17916667D01*
X31428571Y17964286D01*
X31571428Y17964286D01*
X31666666Y17916667D01*
X32142857Y17964286D02*
X32142857Y16964286D01*
X32142857Y17916667D02*
X32238095Y17964286D01*
X32428571Y17964286D01*
X32523809Y17916667D01*
X32571428Y17869048D01*
X32619047Y17773810D01*
X32619047Y17488096D01*
X32571428Y17392858D01*
X32523809Y17345239D01*
X32428571Y17297620D01*
X32238095Y17297620D01*
X32142857Y17345239D01*
X33190476Y17297620D02*
X33095238Y17345239D01*
X33047619Y17392858D01*
X32999999Y17488096D01*
X32999999Y17773810D01*
X33047619Y17869048D01*
X33095238Y17916667D01*
X33190476Y17964286D01*
X33333333Y17964286D01*
X33428571Y17916667D01*
X33476190Y17869048D01*
X33523809Y17773810D01*
X33523809Y17488096D01*
X33476190Y17392858D01*
X33428571Y17345239D01*
X33333333Y17297620D01*
X33190476Y17297620D01*
X33952380Y17297620D02*
X33952380Y17964286D01*
X33952380Y17773810D02*
X33999999Y17869048D01*
X34047619Y17916667D01*
X34142857Y17964286D01*
X34238095Y17964286D01*
X34428571Y17964286D02*
X34809523Y17964286D01*
X34571428Y18297620D02*
X34571428Y17440477D01*
X34619047Y17345239D01*
X34714285Y17297620D01*
X34809523Y17297620D01*
X35142857Y17678572D02*
X35904761Y17678572D01*
X36380952Y17297620D02*
X36380952Y18297620D01*
X36619047Y18297620D01*
X36761904Y18250000D01*
X36857142Y18154762D01*
X36904761Y18059524D01*
X36952380Y17869048D01*
X36952380Y17726191D01*
X36904761Y17535715D01*
X36857142Y17440477D01*
X36761904Y17345239D01*
X36619047Y17297620D01*
X36380952Y17297620D01*
X37761904Y17345239D02*
X37666666Y17297620D01*
X37476190Y17297620D01*
X37380952Y17345239D01*
X37333333Y17440477D01*
X37333333Y17821429D01*
X37380952Y17916667D01*
X37476190Y17964286D01*
X37666666Y17964286D01*
X37761904Y17916667D01*
X37809523Y17821429D01*
X37809523Y17726191D01*
X37333333Y17630953D01*
X38380952Y17297620D02*
X38285714Y17345239D01*
X38238095Y17440477D01*
X38238095Y18297620D01*
X39190476Y17964286D02*
X39190476Y17297620D01*
X38761904Y17964286D02*
X38761904Y17440477D01*
X38809523Y17345239D01*
X38904761Y17297620D01*
X39047619Y17297620D01*
X39142857Y17345239D01*
X39190476Y17392858D01*
X39571428Y17297620D02*
X40095238Y17964286D01*
X39571428Y17964286D02*
X40095238Y17297620D01*
X40857142Y17345239D02*
X40761904Y17297620D01*
X40571428Y17297620D01*
X40476190Y17345239D01*
X40428571Y17440477D01*
X40428571Y17821429D01*
X40476190Y17916667D01*
X40571428Y17964286D01*
X40761904Y17964286D01*
X40857142Y17916667D01*
X40904761Y17821429D01*
X40904761Y17726191D01*
X40428571Y17630953D01*
X41333333Y17678572D02*
X42095238Y17678572D01*
X43142857Y17297620D02*
X42809523Y17773810D01*
X42571428Y17297620D02*
X42571428Y18297620D01*
X42952380Y18297620D01*
X43047619Y18250000D01*
X43095238Y18202381D01*
X43142857Y18107143D01*
X43142857Y17964286D01*
X43095238Y17869048D01*
X43047619Y17821429D01*
X42952380Y17773810D01*
X42571428Y17773810D01*
X43952380Y17345239D02*
X43857142Y17297620D01*
X43666666Y17297620D01*
X43571428Y17345239D01*
X43523809Y17440477D01*
X43523809Y17821429D01*
X43571428Y17916667D01*
X43666666Y17964286D01*
X43857142Y17964286D01*
X43952380Y17916667D01*
X44000000Y17821429D01*
X44000000Y17726191D01*
X43523809Y17630953D01*
X44380952Y17345239D02*
X44476190Y17297620D01*
X44666666Y17297620D01*
X44761904Y17345239D01*
X44809523Y17440477D01*
X44809523Y17488096D01*
X44761904Y17583334D01*
X44666666Y17630953D01*
X44523809Y17630953D01*
X44428571Y17678572D01*
X44380952Y17773810D01*
X44380952Y17821429D01*
X44428571Y17916667D01*
X44523809Y17964286D01*
X44666666Y17964286D01*
X44761904Y17916667D01*
X45619047Y17345239D02*
X45523809Y17297620D01*
X45333333Y17297620D01*
X45238095Y17345239D01*
X45190476Y17440477D01*
X45190476Y17821429D01*
X45238095Y17916667D01*
X45333333Y17964286D01*
X45523809Y17964286D01*
X45619047Y17916667D01*
X45666666Y17821429D01*
X45666666Y17726191D01*
X45190476Y17630953D01*
X45952380Y17964286D02*
X46333333Y17964286D01*
X46095238Y18297620D02*
X46095238Y17440477D01*
X46142857Y17345239D01*
X46238095Y17297620D01*
X46333333Y17297620D01*
D10*
X33250000Y3250000D02*
X37000000Y3250000D01*
X33250000Y3250000D02*
G75*
G02X31250000Y5250000I0J2000000D01*
G01*
X39000000Y5250000D02*
G75*
G02X37000000Y3250000I-2000000J0D01*
G01*
X39000000Y5250000D02*
X39000000Y15250000D01*
X31250000Y15250000D02*
X31250000Y5250000D01*
X29250000Y17000000D02*
X29500000Y17000000D01*
X29250000Y17000000D02*
X21250000Y17000000D01*
X49250000Y17000000D02*
X40750000Y17000000D01*
X39000000Y15250000D02*
G75*
G02X40750000Y17000000I1750000J0D01*
G01*
X49250000Y17000000D02*
G75*
G02X51000000Y15250000I0J-1750000D01*
G01*
X29500000Y17000000D02*
G75*
G02X31250000Y15250000I0J-1750000D01*
G01*
X19500000Y15250000D02*
G75*
G02X21250000Y17000000I1750000J0D01*
G01*
X55000000Y18500000D02*
X15500000Y18500000D01*
X55000000Y18500000D02*
G75*
G02X57500000Y16000000I0J-2500000D01*
G01*
X13000000Y16000000D02*
G75*
G02X15500000Y18500000I2500000J0D01*
G01*
X51000000Y8000000D02*
X51000000Y15250000D01*
X57500000Y8000000D02*
X57500000Y16000000D01*
X19500000Y8000000D02*
X19500000Y15250000D01*
X13000000Y8000000D02*
X13000000Y16000000D01*
X57500000Y8000000D02*
G75*
G02X51000000Y8000000I-3250000J0D01*
G01*
X19500000Y8000000D02*
G75*
G02X13000000Y8000000I-3250000J0D01*
G01*
D12*
X226108214Y1221429D02*
X225393928Y1221429D01*
X225581428Y2721429D01*
X226545714Y1292858D02*
X226751071Y1221429D01*
X227108214Y1221429D01*
X227260000Y1292858D01*
X227340357Y1364286D01*
X227429642Y1507143D01*
X227447500Y1650000D01*
X227393928Y1792858D01*
X227331428Y1864286D01*
X227197500Y1935715D01*
X226920714Y2007143D01*
X226786785Y2078572D01*
X226724285Y2150000D01*
X226670714Y2292858D01*
X226688571Y2435715D01*
X226777857Y2578572D01*
X226858214Y2650000D01*
X227010000Y2721429D01*
X227367142Y2721429D01*
X227572500Y2650000D01*
X228911785Y1364286D02*
X228831428Y1292858D01*
X228608214Y1221429D01*
X228465357Y1221429D01*
X228260000Y1292858D01*
X228135000Y1435715D01*
X228081428Y1578572D01*
X228045714Y1864286D01*
X228072500Y2078572D01*
X228179642Y2364286D01*
X228268928Y2507143D01*
X228429642Y2650000D01*
X228652857Y2721429D01*
X228795714Y2721429D01*
X229001071Y2650000D01*
X229063571Y2578572D01*
X230367142Y2721429D02*
X230081428Y2721429D01*
X229929642Y2650000D01*
X229849285Y2578572D01*
X229679642Y2364286D01*
X229572500Y2078572D01*
X229501071Y1507143D01*
X229554642Y1364286D01*
X229617142Y1292858D01*
X229751071Y1221429D01*
X230036785Y1221429D01*
X230188571Y1292858D01*
X230268928Y1364286D01*
X230358214Y1507143D01*
X230402857Y1864286D01*
X230349285Y2007143D01*
X230286785Y2078572D01*
X230152857Y2150000D01*
X229867142Y2150000D01*
X229715357Y2078572D01*
X229635000Y2007143D01*
X229545714Y1864286D01*
X231733214Y2221429D02*
X231608214Y1221429D01*
X231447500Y2792858D02*
X230956428Y1721429D01*
X231885000Y1721429D01*
X233510000Y2721429D02*
X233822500Y1221429D01*
X234510000Y2721429D01*
X234920714Y2578572D02*
X235001071Y2650000D01*
X235152857Y2721429D01*
X235510000Y2721429D01*
X235643928Y2650000D01*
X235706428Y2578572D01*
X235760000Y2435715D01*
X235742142Y2292858D01*
X235643928Y2078572D01*
X234679642Y1221429D01*
X235608214Y1221429D01*
X236268928Y1364286D02*
X236331428Y1292858D01*
X236251071Y1221429D01*
X236188571Y1292858D01*
X236268928Y1364286D01*
X236251071Y1221429D01*
X237751071Y1221429D02*
X236893928Y1221429D01*
X237322500Y1221429D02*
X237510000Y2721429D01*
X237340357Y2507143D01*
X237179642Y2364286D01*
X237027857Y2292858D01*
X238715357Y2078572D02*
X238581428Y2150000D01*
X238518928Y2221429D01*
X238465357Y2364286D01*
X238474285Y2435715D01*
X238563571Y2578572D01*
X238643928Y2650000D01*
X238795714Y2721429D01*
X239081428Y2721429D01*
X239215357Y2650000D01*
X239277857Y2578572D01*
X239331428Y2435715D01*
X239322500Y2364286D01*
X239233214Y2221429D01*
X239152857Y2150000D01*
X239001071Y2078572D01*
X238715357Y2078572D01*
X238563571Y2007143D01*
X238483214Y1935715D01*
X238393928Y1792858D01*
X238358214Y1507143D01*
X238411785Y1364286D01*
X238474285Y1292858D01*
X238608214Y1221429D01*
X238893928Y1221429D01*
X239045714Y1292858D01*
X239126071Y1364286D01*
X239215357Y1507143D01*
X239251071Y1792858D01*
X239197500Y1935715D01*
X239135000Y2007143D01*
X239001071Y2078572D01*
X241036785Y1792858D02*
X242179642Y1792858D01*
X243965357Y1221429D02*
X244152857Y2721429D01*
X244081428Y2150000D02*
X244233214Y2221429D01*
X244518928Y2221429D01*
X244652857Y2150000D01*
X244715357Y2078572D01*
X244768928Y1935715D01*
X244715357Y1507143D01*
X244626071Y1364286D01*
X244545714Y1292858D01*
X244393928Y1221429D01*
X244108214Y1221429D01*
X243974285Y1292858D01*
X245304642Y2221429D02*
X245536785Y1221429D01*
X246018928Y2221429D02*
X245536785Y1221429D01*
X245349285Y864286D01*
X245268928Y792858D01*
X245117142Y721429D01*
X248572500Y2650000D02*
X248438571Y2721429D01*
X248224285Y2721429D01*
X248001071Y2650000D01*
X247840357Y2507143D01*
X247751071Y2364286D01*
X247643928Y2078572D01*
X247617142Y1864286D01*
X247652857Y1578572D01*
X247706428Y1435715D01*
X247831428Y1292858D01*
X248036785Y1221429D01*
X248179642Y1221429D01*
X248402857Y1292858D01*
X248483214Y1364286D01*
X248545714Y1864286D01*
X248260000Y1864286D01*
X249108214Y1221429D02*
X249233214Y2221429D01*
X249197500Y1935715D02*
X249286785Y2078572D01*
X249367142Y2150000D01*
X249518928Y2221429D01*
X249661785Y2221429D01*
X250036785Y1221429D02*
X250161785Y2221429D01*
X250224285Y2721429D02*
X250143928Y2650000D01*
X250206428Y2578572D01*
X250286785Y2650000D01*
X250224285Y2721429D01*
X250206428Y2578572D01*
X251331428Y1292858D02*
X251179642Y1221429D01*
X250893928Y1221429D01*
X250760000Y1292858D01*
X250706428Y1435715D01*
X250777857Y2007143D01*
X250867142Y2150000D01*
X251018928Y2221429D01*
X251304642Y2221429D01*
X251438571Y2150000D01*
X251492142Y2007143D01*
X251474285Y1864286D01*
X250742142Y1721429D01*
X251947500Y2221429D02*
X252518928Y2221429D01*
X252036785Y1221429D02*
X252197500Y2507143D01*
X252286785Y2650000D01*
X252438571Y2721429D01*
X252581428Y2721429D01*
X253474285Y1292858D02*
X253322500Y1221429D01*
X253036785Y1221429D01*
X252902857Y1292858D01*
X252849285Y1435715D01*
X252920714Y2007143D01*
X253010000Y2150000D01*
X253161785Y2221429D01*
X253447500Y2221429D01*
X253581428Y2150000D01*
X253635000Y2007143D01*
X253617142Y1864286D01*
X252885000Y1721429D01*
X254822500Y1221429D02*
X255010000Y2721429D01*
X254831428Y1292858D02*
X254679642Y1221429D01*
X254393928Y1221429D01*
X254260000Y1292858D01*
X254197500Y1364286D01*
X254143928Y1507143D01*
X254197500Y1935715D01*
X254286785Y2078572D01*
X254367142Y2150000D01*
X254518928Y2221429D01*
X254804642Y2221429D01*
X254938571Y2150000D01*
X256751071Y1792858D02*
X257893928Y1792858D01*
X259679642Y1221429D02*
X259867142Y2721429D01*
X260322500Y1221429D02*
X260420714Y2007143D01*
X260367142Y2150000D01*
X260233214Y2221429D01*
X260018928Y2221429D01*
X259867142Y2150000D01*
X259786785Y2078572D01*
X260947500Y2221429D02*
X261518928Y2221429D01*
X261224285Y2721429D02*
X261063571Y1435715D01*
X261117142Y1292858D01*
X261251071Y1221429D01*
X261393928Y1221429D01*
X261804642Y2221429D02*
X262376071Y2221429D01*
X262081428Y2721429D02*
X261920714Y1435715D01*
X261974285Y1292858D01*
X262108214Y1221429D01*
X262251071Y1221429D01*
X262876071Y2221429D02*
X262688571Y721429D01*
X262867142Y2150000D02*
X263018928Y2221429D01*
X263304642Y2221429D01*
X263438571Y2150000D01*
X263501071Y2078572D01*
X263554642Y1935715D01*
X263501071Y1507143D01*
X263411785Y1364286D01*
X263331428Y1292858D01*
X263179642Y1221429D01*
X262893928Y1221429D01*
X262760000Y1292858D01*
X264045714Y1292858D02*
X264179642Y1221429D01*
X264465357Y1221429D01*
X264617142Y1292858D01*
X264706428Y1435715D01*
X264715357Y1507143D01*
X264661785Y1650000D01*
X264527857Y1721429D01*
X264313571Y1721429D01*
X264179642Y1792858D01*
X264126071Y1935715D01*
X264135000Y2007143D01*
X264224285Y2150000D01*
X264376071Y2221429D01*
X264590357Y2221429D01*
X264724285Y2150000D01*
X265340357Y1364286D02*
X265402857Y1292858D01*
X265322500Y1221429D01*
X265260000Y1292858D01*
X265340357Y1364286D01*
X265322500Y1221429D01*
X265438571Y2150000D02*
X265501071Y2078572D01*
X265420714Y2007143D01*
X265358214Y2078572D01*
X265438571Y2150000D01*
X265420714Y2007143D01*
X267304642Y2792858D02*
X265777857Y864286D01*
X268876071Y2792858D02*
X267349285Y864286D01*
X269947500Y2221429D02*
X269795714Y1007143D01*
X269706428Y864286D01*
X269626071Y792858D01*
X269474285Y721429D01*
X269260000Y721429D01*
X269126071Y792858D01*
X269831428Y1292858D02*
X269679642Y1221429D01*
X269393928Y1221429D01*
X269260000Y1292858D01*
X269197500Y1364286D01*
X269143928Y1507143D01*
X269197500Y1935715D01*
X269286785Y2078572D01*
X269367142Y2150000D01*
X269518928Y2221429D01*
X269804642Y2221429D01*
X269938571Y2150000D01*
X270536785Y1221429D02*
X270661785Y2221429D01*
X270724285Y2721429D02*
X270643928Y2650000D01*
X270706428Y2578572D01*
X270786785Y2650000D01*
X270724285Y2721429D01*
X270706428Y2578572D01*
X271161785Y2221429D02*
X271733214Y2221429D01*
X271438571Y2721429D02*
X271277857Y1435715D01*
X271331428Y1292858D01*
X271465357Y1221429D01*
X271608214Y1221429D01*
X272108214Y1221429D02*
X272295714Y2721429D01*
X272751071Y1221429D02*
X272849285Y2007143D01*
X272795714Y2150000D01*
X272661785Y2221429D01*
X272447500Y2221429D01*
X272295714Y2150000D01*
X272215357Y2078572D01*
X274233214Y2221429D02*
X274108214Y1221429D01*
X273590357Y2221429D02*
X273492142Y1435715D01*
X273545714Y1292858D01*
X273679642Y1221429D01*
X273893928Y1221429D01*
X274045714Y1292858D01*
X274126071Y1364286D01*
X274822500Y1221429D02*
X275010000Y2721429D01*
X274938571Y2150000D02*
X275090357Y2221429D01*
X275376071Y2221429D01*
X275510000Y2150000D01*
X275572500Y2078572D01*
X275626071Y1935715D01*
X275572500Y1507143D01*
X275483214Y1364286D01*
X275402857Y1292858D01*
X275251071Y1221429D01*
X274965357Y1221429D01*
X274831428Y1292858D01*
X276197500Y1364286D02*
X276260000Y1292858D01*
X276179642Y1221429D01*
X276117142Y1292858D01*
X276197500Y1364286D01*
X276179642Y1221429D01*
X277545714Y1292858D02*
X277393928Y1221429D01*
X277108214Y1221429D01*
X276974285Y1292858D01*
X276911785Y1364286D01*
X276858214Y1507143D01*
X276911785Y1935715D01*
X277001071Y2078572D01*
X277081428Y2150000D01*
X277233214Y2221429D01*
X277518928Y2221429D01*
X277652857Y2150000D01*
X278393928Y1221429D02*
X278260000Y1292858D01*
X278197500Y1364286D01*
X278143928Y1507143D01*
X278197500Y1935715D01*
X278286785Y2078572D01*
X278367142Y2150000D01*
X278518928Y2221429D01*
X278733214Y2221429D01*
X278867142Y2150000D01*
X278929642Y2078572D01*
X278983214Y1935715D01*
X278929642Y1507143D01*
X278840357Y1364286D01*
X278760000Y1292858D01*
X278608214Y1221429D01*
X278393928Y1221429D01*
X279536785Y1221429D02*
X279661785Y2221429D01*
X279643928Y2078572D02*
X279724285Y2150000D01*
X279876071Y2221429D01*
X280090357Y2221429D01*
X280224285Y2150000D01*
X280277857Y2007143D01*
X280179642Y1221429D01*
X280277857Y2007143D02*
X280367142Y2150000D01*
X280518928Y2221429D01*
X280733214Y2221429D01*
X280867142Y2150000D01*
X280920714Y2007143D01*
X280822500Y1221429D01*
X282804642Y2792858D02*
X281277857Y864286D01*
X284072500Y2650000D02*
X283938571Y2721429D01*
X283724285Y2721429D01*
X283501071Y2650000D01*
X283340357Y2507143D01*
X283251071Y2364286D01*
X283143928Y2078572D01*
X283117142Y1864286D01*
X283152857Y1578572D01*
X283206428Y1435715D01*
X283331428Y1292858D01*
X283536785Y1221429D01*
X283679642Y1221429D01*
X283902857Y1292858D01*
X283983214Y1364286D01*
X284045714Y1864286D01*
X283760000Y1864286D01*
X284608214Y1221429D02*
X284733214Y2221429D01*
X284697500Y1935715D02*
X284786785Y2078572D01*
X284867142Y2150000D01*
X285018928Y2221429D01*
X285161785Y2221429D01*
X285536785Y1221429D02*
X285661785Y2221429D01*
X285724285Y2721429D02*
X285643928Y2650000D01*
X285706428Y2578572D01*
X285786785Y2650000D01*
X285724285Y2721429D01*
X285706428Y2578572D01*
X286831428Y1292858D02*
X286679642Y1221429D01*
X286393928Y1221429D01*
X286260000Y1292858D01*
X286206428Y1435715D01*
X286277857Y2007143D01*
X286367142Y2150000D01*
X286518928Y2221429D01*
X286804642Y2221429D01*
X286938571Y2150000D01*
X286992142Y2007143D01*
X286974285Y1864286D01*
X286242142Y1721429D01*
X287447500Y2221429D02*
X288018928Y2221429D01*
X287536785Y1221429D02*
X287697500Y2507143D01*
X287786785Y2650000D01*
X287938571Y2721429D01*
X288081428Y2721429D01*
X288974285Y1292858D02*
X288822500Y1221429D01*
X288536785Y1221429D01*
X288402857Y1292858D01*
X288349285Y1435715D01*
X288420714Y2007143D01*
X288510000Y2150000D01*
X288661785Y2221429D01*
X288947500Y2221429D01*
X289081428Y2150000D01*
X289135000Y2007143D01*
X289117142Y1864286D01*
X288385000Y1721429D01*
X290322500Y1221429D02*
X290510000Y2721429D01*
X290331428Y1292858D02*
X290179642Y1221429D01*
X289893928Y1221429D01*
X289760000Y1292858D01*
X289697500Y1364286D01*
X289643928Y1507143D01*
X289697500Y1935715D01*
X289786785Y2078572D01*
X289867142Y2150000D01*
X290018928Y2221429D01*
X290304642Y2221429D01*
X290438571Y2150000D01*
X292304642Y2792858D02*
X290777857Y864286D01*
X293322500Y1221429D02*
X292608214Y1221429D01*
X292795714Y2721429D01*
X293760000Y1292858D02*
X293965357Y1221429D01*
X294322500Y1221429D01*
X294474285Y1292858D01*
X294554642Y1364286D01*
X294643928Y1507143D01*
X294661785Y1650000D01*
X294608214Y1792858D01*
X294545714Y1864286D01*
X294411785Y1935715D01*
X294135000Y2007143D01*
X294001071Y2078572D01*
X293938571Y2150000D01*
X293885000Y2292858D01*
X293902857Y2435715D01*
X293992142Y2578572D01*
X294072500Y2650000D01*
X294224285Y2721429D01*
X294581428Y2721429D01*
X294786785Y2650000D01*
X296126071Y1364286D02*
X296045714Y1292858D01*
X295822500Y1221429D01*
X295679642Y1221429D01*
X295474285Y1292858D01*
X295349285Y1435715D01*
X295295714Y1578572D01*
X295260000Y1864286D01*
X295286785Y2078572D01*
X295393928Y2364286D01*
X295483214Y2507143D01*
X295643928Y2650000D01*
X295867142Y2721429D01*
X296010000Y2721429D01*
X296215357Y2650000D01*
X296277857Y2578572D01*
X297581428Y2721429D02*
X297295714Y2721429D01*
X297143928Y2650000D01*
X297063571Y2578572D01*
X296893928Y2364286D01*
X296786785Y2078572D01*
X296715357Y1507143D01*
X296768928Y1364286D01*
X296831428Y1292858D01*
X296965357Y1221429D01*
X297251071Y1221429D01*
X297402857Y1292858D01*
X297483214Y1364286D01*
X297572500Y1507143D01*
X297617142Y1864286D01*
X297563571Y2007143D01*
X297501071Y2078572D01*
X297367142Y2150000D01*
X297081428Y2150000D01*
X296929642Y2078572D01*
X296849285Y2007143D01*
X296760000Y1864286D01*
X298947500Y2221429D02*
X298822500Y1221429D01*
X298661785Y2792858D02*
X298170714Y1721429D01*
X299099285Y1721429D01*
D10*
%TO.C,C1*%
X51695225Y9725000D02*
X51695225Y9225000D01*
X51445225Y9475000D02*
X51945225Y9475000D01*
X56851000Y8284000D02*
X56851000Y7716000D01*
X56811000Y8518000D02*
X56811000Y7482000D01*
X56771000Y8677000D02*
X56771000Y7323000D01*
X56731000Y8805000D02*
X56731000Y7195000D01*
X56691000Y8915000D02*
X56691000Y7085000D01*
X56651000Y9011000D02*
X56651000Y6989000D01*
X56611000Y9098000D02*
X56611000Y6902000D01*
X56571000Y9178000D02*
X56571000Y6822000D01*
X56531000Y6960000D02*
X56531000Y6749000D01*
X56531000Y9251000D02*
X56531000Y9040000D01*
X56491000Y6960000D02*
X56491000Y6681000D01*
X56491000Y9319000D02*
X56491000Y9040000D01*
X56451000Y6960000D02*
X56451000Y6617000D01*
X56451000Y9383000D02*
X56451000Y9040000D01*
X56411000Y6960000D02*
X56411000Y6557000D01*
X56411000Y9443000D02*
X56411000Y9040000D01*
X56371000Y6960000D02*
X56371000Y6500000D01*
X56371000Y9500000D02*
X56371000Y9040000D01*
X56331000Y6960000D02*
X56331000Y6446000D01*
X56331000Y9554000D02*
X56331000Y9040000D01*
X56291000Y6960000D02*
X56291000Y6395000D01*
X56291000Y9605000D02*
X56291000Y9040000D01*
X56251000Y6960000D02*
X56251000Y6347000D01*
X56251000Y9653000D02*
X56251000Y9040000D01*
X56211000Y6960000D02*
X56211000Y6301000D01*
X56211000Y9699000D02*
X56211000Y9040000D01*
X56171000Y6960000D02*
X56171000Y6257000D01*
X56171000Y9743000D02*
X56171000Y9040000D01*
X56131000Y6960000D02*
X56131000Y6215000D01*
X56131000Y9785000D02*
X56131000Y9040000D01*
X56091000Y6960000D02*
X56091000Y6174000D01*
X56091000Y9826000D02*
X56091000Y9040000D01*
X56051000Y6960000D02*
X56051000Y6136000D01*
X56051000Y9864000D02*
X56051000Y9040000D01*
X56011000Y6960000D02*
X56011000Y6099000D01*
X56011000Y9901000D02*
X56011000Y9040000D01*
X55971000Y6960000D02*
X55971000Y6063000D01*
X55971000Y9937000D02*
X55971000Y9040000D01*
X55931000Y6960000D02*
X55931000Y6029000D01*
X55931000Y9971000D02*
X55931000Y9040000D01*
X55891000Y6960000D02*
X55891000Y5996000D01*
X55891000Y10004000D02*
X55891000Y9040000D01*
X55851000Y6960000D02*
X55851000Y5965000D01*
X55851000Y10035000D02*
X55851000Y9040000D01*
X55811000Y6960000D02*
X55811000Y5935000D01*
X55811000Y10065000D02*
X55811000Y9040000D01*
X55771000Y6960000D02*
X55771000Y5905000D01*
X55771000Y10095000D02*
X55771000Y9040000D01*
X55731000Y6960000D02*
X55731000Y5878000D01*
X55731000Y10122000D02*
X55731000Y9040000D01*
X55691000Y6960000D02*
X55691000Y5851000D01*
X55691000Y10149000D02*
X55691000Y9040000D01*
X55651000Y6960000D02*
X55651000Y5825000D01*
X55651000Y10175000D02*
X55651000Y9040000D01*
X55611000Y6960000D02*
X55611000Y5800000D01*
X55611000Y10200000D02*
X55611000Y9040000D01*
X55571000Y6960000D02*
X55571000Y5776000D01*
X55571000Y10224000D02*
X55571000Y9040000D01*
X55531000Y6960000D02*
X55531000Y5753000D01*
X55531000Y10247000D02*
X55531000Y9040000D01*
X55491000Y6960000D02*
X55491000Y5732000D01*
X55491000Y10268000D02*
X55491000Y9040000D01*
X55451000Y6960000D02*
X55451000Y5710000D01*
X55451000Y10290000D02*
X55451000Y9040000D01*
X55411000Y6960000D02*
X55411000Y5690000D01*
X55411000Y10310000D02*
X55411000Y9040000D01*
X55371000Y6960000D02*
X55371000Y5671000D01*
X55371000Y10329000D02*
X55371000Y9040000D01*
X55331000Y6960000D02*
X55331000Y5652000D01*
X55331000Y10348000D02*
X55331000Y9040000D01*
X55291000Y6960000D02*
X55291000Y5635000D01*
X55291000Y10365000D02*
X55291000Y9040000D01*
X55251000Y6960000D02*
X55251000Y5618000D01*
X55251000Y10382000D02*
X55251000Y9040000D01*
X55211000Y6960000D02*
X55211000Y5602000D01*
X55211000Y10398000D02*
X55211000Y9040000D01*
X55171000Y6960000D02*
X55171000Y5586000D01*
X55171000Y10414000D02*
X55171000Y9040000D01*
X55131000Y6960000D02*
X55131000Y5572000D01*
X55131000Y10428000D02*
X55131000Y9040000D01*
X55091000Y6960000D02*
X55091000Y5558000D01*
X55091000Y10442000D02*
X55091000Y9040000D01*
X55051000Y6960000D02*
X55051000Y5545000D01*
X55051000Y10455000D02*
X55051000Y9040000D01*
X55011000Y6960000D02*
X55011000Y5532000D01*
X55011000Y10468000D02*
X55011000Y9040000D01*
X54971000Y6960000D02*
X54971000Y5520000D01*
X54971000Y10480000D02*
X54971000Y9040000D01*
X54930000Y6960000D02*
X54930000Y5509000D01*
X54930000Y10491000D02*
X54930000Y9040000D01*
X54890000Y6960000D02*
X54890000Y5499000D01*
X54890000Y10501000D02*
X54890000Y9040000D01*
X54850000Y6960000D02*
X54850000Y5489000D01*
X54850000Y10511000D02*
X54850000Y9040000D01*
X54810000Y6960000D02*
X54810000Y5480000D01*
X54810000Y10520000D02*
X54810000Y9040000D01*
X54770000Y6960000D02*
X54770000Y5472000D01*
X54770000Y10528000D02*
X54770000Y9040000D01*
X54730000Y6960000D02*
X54730000Y5464000D01*
X54730000Y10536000D02*
X54730000Y9040000D01*
X54690000Y6960000D02*
X54690000Y5457000D01*
X54690000Y10543000D02*
X54690000Y9040000D01*
X54650000Y6960000D02*
X54650000Y5450000D01*
X54650000Y10550000D02*
X54650000Y9040000D01*
X54610000Y6960000D02*
X54610000Y5444000D01*
X54610000Y10556000D02*
X54610000Y9040000D01*
X54570000Y6960000D02*
X54570000Y5439000D01*
X54570000Y10561000D02*
X54570000Y9040000D01*
X54530000Y6960000D02*
X54530000Y5435000D01*
X54530000Y10565000D02*
X54530000Y9040000D01*
X54490000Y6960000D02*
X54490000Y5431000D01*
X54490000Y10569000D02*
X54490000Y9040000D01*
X54450000Y10573000D02*
X54450000Y5427000D01*
X54410000Y10576000D02*
X54410000Y5424000D01*
X54370000Y10578000D02*
X54370000Y5422000D01*
X54330000Y10579000D02*
X54330000Y5421000D01*
X54290000Y10580000D02*
X54290000Y5420000D01*
X54250000Y10580000D02*
X54250000Y5420000D01*
X56870000Y8000000D02*
G75*
G03X56870000Y8000000I-2620000J0D01*
G01*
%TO.C,R8*%
X231000000Y11870000D02*
X231000000Y11800000D01*
X232370000Y13240000D02*
G75*
G03X232370000Y13240000I-1370000J0D01*
G01*
%TO.C,U1*%
X377050000Y12160000D02*
X377050000Y10510000D01*
X387330000Y12160000D02*
X377050000Y12160000D01*
X387330000Y6860000D02*
X387330000Y12160000D01*
X377050000Y6860000D02*
X387330000Y6860000D01*
X377050000Y8510000D02*
X377050000Y6860000D01*
X377050000Y10510000D02*
G75*
G02X377050000Y8510000I0J-1000000D01*
G01*
%TO.C,R1*%
X364000000Y11870000D02*
X364000000Y11800000D01*
X365370000Y13240000D02*
G75*
G03X365370000Y13240000I-1370000J0D01*
G01*
%TO.C,R25*%
X263630000Y16700000D02*
X263560000Y16700000D01*
X266370000Y16700000D02*
G75*
G03X266370000Y16700000I-1370000J0D01*
G01*
%TO.C,R24*%
X301630000Y16700000D02*
X301560000Y16700000D01*
X304370000Y16700000D02*
G75*
G03X304370000Y16700000I-1370000J0D01*
G01*
%TO.C,R23*%
X339630000Y16700000D02*
X339560000Y16700000D01*
X342370000Y16700000D02*
G75*
G03X342370000Y16700000I-1370000J0D01*
G01*
%TO.C,R22*%
X377830000Y16700000D02*
X377900000Y16700000D01*
X377830000Y16700000D02*
G75*
G03X377830000Y16700000I-1370000J0D01*
G01*
%TO.C,R21*%
X385370000Y2700000D02*
X385440000Y2700000D01*
X385370000Y2700000D02*
G75*
G03X385370000Y2700000I-1370000J0D01*
G01*
%TO.C,LED1*%
X366409202Y14223999D02*
G75*
G02X366409201Y11176001I2539998J-1523999D01*
G01*
%TO.C,J21*%
X387330000Y18030000D02*
X387330000Y16700000D01*
X386000000Y18030000D02*
X387330000Y18030000D01*
X384730000Y18030000D02*
X384730000Y15370000D01*
X384730000Y15370000D02*
X382130000Y15370000D01*
X384730000Y18030000D02*
X382130000Y18030000D01*
X382130000Y18030000D02*
X382130000Y15370000D01*
%TO.C,J1*%
X364670000Y3370000D02*
X364670000Y4700000D01*
X366000000Y3370000D02*
X364670000Y3370000D01*
X364670000Y5970000D02*
X364670000Y8570000D01*
X367270000Y5970000D02*
X364670000Y5970000D01*
X367270000Y3370000D02*
X367270000Y5970000D01*
X364670000Y8570000D02*
X372410000Y8570000D01*
X367270000Y3370000D02*
X372410000Y3370000D01*
X372410000Y3370000D02*
X372410000Y8570000D01*
%TO.C,J2*%
X345670000Y3370000D02*
X345670000Y4700000D01*
X347000000Y3370000D02*
X345670000Y3370000D01*
X345670000Y5970000D02*
X345670000Y8570000D01*
X348270000Y5970000D02*
X345670000Y5970000D01*
X348270000Y3370000D02*
X348270000Y5970000D01*
X345670000Y8570000D02*
X353410000Y8570000D01*
X348270000Y3370000D02*
X353410000Y3370000D01*
X353410000Y3370000D02*
X353410000Y8570000D01*
%TO.C,J3*%
X326670000Y3370000D02*
X326670000Y4700000D01*
X328000000Y3370000D02*
X326670000Y3370000D01*
X326670000Y5970000D02*
X326670000Y8570000D01*
X329270000Y5970000D02*
X326670000Y5970000D01*
X329270000Y3370000D02*
X329270000Y5970000D01*
X326670000Y8570000D02*
X334410000Y8570000D01*
X329270000Y3370000D02*
X334410000Y3370000D01*
X334410000Y3370000D02*
X334410000Y8570000D01*
%TO.C,J4*%
X307590000Y3370000D02*
X307590000Y4700000D01*
X308920000Y3370000D02*
X307590000Y3370000D01*
X307590000Y5970000D02*
X307590000Y8570000D01*
X310190000Y5970000D02*
X307590000Y5970000D01*
X310190000Y3370000D02*
X310190000Y5970000D01*
X307590000Y8570000D02*
X315330000Y8570000D01*
X310190000Y3370000D02*
X315330000Y3370000D01*
X315330000Y3370000D02*
X315330000Y8570000D01*
%TO.C,J5*%
X288670000Y3370000D02*
X288670000Y4700000D01*
X290000000Y3370000D02*
X288670000Y3370000D01*
X288670000Y5970000D02*
X288670000Y8570000D01*
X291270000Y5970000D02*
X288670000Y5970000D01*
X291270000Y3370000D02*
X291270000Y5970000D01*
X288670000Y8570000D02*
X296410000Y8570000D01*
X291270000Y3370000D02*
X296410000Y3370000D01*
X296410000Y3370000D02*
X296410000Y8570000D01*
%TO.C,J6*%
X269670000Y3370000D02*
X269670000Y4700000D01*
X271000000Y3370000D02*
X269670000Y3370000D01*
X269670000Y5970000D02*
X269670000Y8570000D01*
X272270000Y5970000D02*
X269670000Y5970000D01*
X272270000Y3370000D02*
X272270000Y5970000D01*
X269670000Y8570000D02*
X277410000Y8570000D01*
X272270000Y3370000D02*
X277410000Y3370000D01*
X277410000Y3370000D02*
X277410000Y8570000D01*
%TO.C,J7*%
X250670000Y3370000D02*
X250670000Y4700000D01*
X252000000Y3370000D02*
X250670000Y3370000D01*
X250670000Y5970000D02*
X250670000Y8570000D01*
X253270000Y5970000D02*
X250670000Y5970000D01*
X253270000Y3370000D02*
X253270000Y5970000D01*
X250670000Y8570000D02*
X258410000Y8570000D01*
X253270000Y3370000D02*
X258410000Y3370000D01*
X258410000Y3370000D02*
X258410000Y8570000D01*
%TO.C,J8*%
X231590000Y3370000D02*
X231590000Y4700000D01*
X232920000Y3370000D02*
X231590000Y3370000D01*
X231590000Y5970000D02*
X231590000Y8570000D01*
X234190000Y5970000D02*
X231590000Y5970000D01*
X234190000Y3370000D02*
X234190000Y5970000D01*
X231590000Y8570000D02*
X239330000Y8570000D01*
X234190000Y3370000D02*
X239330000Y3370000D01*
X239330000Y3370000D02*
X239330000Y8570000D01*
%TO.C,J9*%
X212670000Y3370000D02*
X212670000Y4700000D01*
X214000000Y3370000D02*
X212670000Y3370000D01*
X212670000Y5970000D02*
X212670000Y8570000D01*
X215270000Y5970000D02*
X212670000Y5970000D01*
X215270000Y3370000D02*
X215270000Y5970000D01*
X212670000Y8570000D02*
X220410000Y8570000D01*
X215270000Y3370000D02*
X220410000Y3370000D01*
X220410000Y3370000D02*
X220410000Y8570000D01*
%TO.C,J10*%
X193590000Y3370000D02*
X193590000Y4700000D01*
X194920000Y3370000D02*
X193590000Y3370000D01*
X193590000Y5970000D02*
X193590000Y8570000D01*
X196190000Y5970000D02*
X193590000Y5970000D01*
X196190000Y3370000D02*
X196190000Y5970000D01*
X193590000Y8570000D02*
X201330000Y8570000D01*
X196190000Y3370000D02*
X201330000Y3370000D01*
X201330000Y3370000D02*
X201330000Y8570000D01*
%TO.C,J11*%
X174590000Y3370000D02*
X174590000Y4700000D01*
X175920000Y3370000D02*
X174590000Y3370000D01*
X174590000Y5970000D02*
X174590000Y8570000D01*
X177190000Y5970000D02*
X174590000Y5970000D01*
X177190000Y3370000D02*
X177190000Y5970000D01*
X174590000Y8570000D02*
X182330000Y8570000D01*
X177190000Y3370000D02*
X182330000Y3370000D01*
X182330000Y3370000D02*
X182330000Y8570000D01*
%TO.C,J12*%
X155590000Y3370000D02*
X155590000Y4700000D01*
X156920000Y3370000D02*
X155590000Y3370000D01*
X155590000Y5970000D02*
X155590000Y8570000D01*
X158190000Y5970000D02*
X155590000Y5970000D01*
X158190000Y3370000D02*
X158190000Y5970000D01*
X155590000Y8570000D02*
X163330000Y8570000D01*
X158190000Y3370000D02*
X163330000Y3370000D01*
X163330000Y3370000D02*
X163330000Y8570000D01*
%TO.C,J13*%
X136590000Y3370000D02*
X136590000Y4700000D01*
X137920000Y3370000D02*
X136590000Y3370000D01*
X136590000Y5970000D02*
X136590000Y8570000D01*
X139190000Y5970000D02*
X136590000Y5970000D01*
X139190000Y3370000D02*
X139190000Y5970000D01*
X136590000Y8570000D02*
X144330000Y8570000D01*
X139190000Y3370000D02*
X144330000Y3370000D01*
X144330000Y3370000D02*
X144330000Y8570000D01*
%TO.C,J14*%
X117590000Y3370000D02*
X117590000Y4700000D01*
X118920000Y3370000D02*
X117590000Y3370000D01*
X117590000Y5970000D02*
X117590000Y8570000D01*
X120190000Y5970000D02*
X117590000Y5970000D01*
X120190000Y3370000D02*
X120190000Y5970000D01*
X117590000Y8570000D02*
X125330000Y8570000D01*
X120190000Y3370000D02*
X125330000Y3370000D01*
X125330000Y3370000D02*
X125330000Y8570000D01*
%TO.C,J15*%
X98590000Y3370000D02*
X98590000Y4700000D01*
X99920000Y3370000D02*
X98590000Y3370000D01*
X98590000Y5970000D02*
X98590000Y8570000D01*
X101190000Y5970000D02*
X98590000Y5970000D01*
X101190000Y3370000D02*
X101190000Y5970000D01*
X98590000Y8570000D02*
X106330000Y8570000D01*
X101190000Y3370000D02*
X106330000Y3370000D01*
X106330000Y3370000D02*
X106330000Y8570000D01*
%TO.C,J16*%
X79590000Y3370000D02*
X79590000Y4700000D01*
X80920000Y3370000D02*
X79590000Y3370000D01*
X79590000Y5970000D02*
X79590000Y8570000D01*
X82190000Y5970000D02*
X79590000Y5970000D01*
X82190000Y3370000D02*
X82190000Y5970000D01*
X79590000Y8570000D02*
X87330000Y8570000D01*
X82190000Y3370000D02*
X87330000Y3370000D01*
X87330000Y3370000D02*
X87330000Y8570000D01*
%TO.C,J17*%
X60590000Y3370000D02*
X60590000Y4700000D01*
X61920000Y3370000D02*
X60590000Y3370000D01*
X60590000Y5970000D02*
X60590000Y8570000D01*
X63190000Y5970000D02*
X60590000Y5970000D01*
X63190000Y3370000D02*
X63190000Y5970000D01*
X60590000Y8570000D02*
X68330000Y8570000D01*
X63190000Y3370000D02*
X68330000Y3370000D01*
X68330000Y3370000D02*
X68330000Y8570000D01*
%TO.C,J18*%
X41590000Y3370000D02*
X41590000Y4700000D01*
X42920000Y3370000D02*
X41590000Y3370000D01*
X41590000Y5970000D02*
X41590000Y8570000D01*
X44190000Y5970000D02*
X41590000Y5970000D01*
X44190000Y3370000D02*
X44190000Y5970000D01*
X41590000Y8570000D02*
X49330000Y8570000D01*
X44190000Y3370000D02*
X49330000Y3370000D01*
X49330000Y3370000D02*
X49330000Y8570000D01*
%TO.C,J19*%
X22590000Y3370000D02*
X22590000Y4700000D01*
X23920000Y3370000D02*
X22590000Y3370000D01*
X22590000Y5970000D02*
X22590000Y8570000D01*
X25190000Y5970000D02*
X22590000Y5970000D01*
X25190000Y3370000D02*
X25190000Y5970000D01*
X22590000Y8570000D02*
X30330000Y8570000D01*
X25190000Y3370000D02*
X30330000Y3370000D01*
X30330000Y3370000D02*
X30330000Y8570000D01*
%TO.C,J20*%
X3590000Y3370000D02*
X3590000Y4700000D01*
X4920000Y3370000D02*
X3590000Y3370000D01*
X3590000Y5970000D02*
X3590000Y8570000D01*
X6190000Y5970000D02*
X3590000Y5970000D01*
X6190000Y3370000D02*
X6190000Y5970000D01*
X3590000Y8570000D02*
X11330000Y8570000D01*
X6190000Y3370000D02*
X11330000Y3370000D01*
X11330000Y3370000D02*
X11330000Y8570000D01*
%TO.C,LED2*%
X347409202Y14223999D02*
G75*
G02X347409201Y11176001I2539998J-1523999D01*
G01*
%TO.C,LED3*%
X328409202Y14223999D02*
G75*
G02X328409201Y11176001I2539998J-1523999D01*
G01*
%TO.C,LED4*%
X309409202Y14223999D02*
G75*
G02X309409201Y11176001I2539998J-1523999D01*
G01*
%TO.C,LED5*%
X290409202Y14223999D02*
G75*
G02X290409201Y11176001I2539998J-1523999D01*
G01*
%TO.C,LED6*%
X271409202Y14223999D02*
G75*
G02X271409201Y11176001I2539998J-1523999D01*
G01*
%TO.C,LED7*%
X252409202Y14223999D02*
G75*
G02X252409201Y11176001I2539998J-1523999D01*
G01*
%TO.C,LED8*%
X233409202Y14223999D02*
G75*
G02X233409201Y11176001I2539998J-1523999D01*
G01*
%TO.C,LED9*%
X214409202Y14223999D02*
G75*
G02X214409201Y11176001I2539998J-1523999D01*
G01*
%TO.C,LED10*%
X195409202Y14223999D02*
G75*
G02X195409201Y11176001I2539998J-1523999D01*
G01*
%TO.C,LED11*%
X176409202Y14223999D02*
G75*
G02X176409201Y11176001I2539998J-1523999D01*
G01*
%TO.C,LED12*%
X157409202Y14223999D02*
G75*
G02X157409201Y11176001I2539998J-1523999D01*
G01*
%TO.C,LED13*%
X138409202Y14223999D02*
G75*
G02X138409201Y11176001I2539998J-1523999D01*
G01*
%TO.C,LED14*%
X119409202Y14223999D02*
G75*
G02X119409201Y11176001I2539998J-1523999D01*
G01*
%TO.C,LED15*%
X100409202Y14223999D02*
G75*
G02X100409201Y11176001I2539998J-1523999D01*
G01*
%TO.C,LED16*%
X81409202Y14223999D02*
G75*
G02X81409201Y11176001I2539998J-1523999D01*
G01*
%TO.C,LED17*%
X62409202Y14223999D02*
G75*
G02X62409201Y11176001I2539998J-1523999D01*
G01*
%TO.C,LED18*%
X43409202Y14223999D02*
G75*
G02X43409201Y11176001I2539998J-1523999D01*
G01*
%TO.C,LED19*%
X24409202Y14223999D02*
G75*
G02X24409201Y11176001I2539998J-1523999D01*
G01*
%TO.C,LED20*%
X5409202Y14223999D02*
G75*
G02X5409201Y11176001I2539998J-1523999D01*
G01*
%TO.C,R2*%
X345000000Y11870000D02*
X345000000Y11800000D01*
X346370000Y13240000D02*
G75*
G03X346370000Y13240000I-1370000J0D01*
G01*
%TO.C,R3*%
X326000000Y11870000D02*
X326000000Y11800000D01*
X327370000Y13240000D02*
G75*
G03X327370000Y13240000I-1370000J0D01*
G01*
%TO.C,R4*%
X307000000Y11870000D02*
X307000000Y11800000D01*
X308370000Y13240000D02*
G75*
G03X308370000Y13240000I-1370000J0D01*
G01*
%TO.C,R5*%
X288000000Y11870000D02*
X288000000Y11800000D01*
X289370000Y13240000D02*
G75*
G03X289370000Y13240000I-1370000J0D01*
G01*
%TO.C,R6*%
X269000000Y11870000D02*
X269000000Y11800000D01*
X270370000Y13240000D02*
G75*
G03X270370000Y13240000I-1370000J0D01*
G01*
%TO.C,R7*%
X250000000Y11870000D02*
X250000000Y11800000D01*
X251370000Y13240000D02*
G75*
G03X251370000Y13240000I-1370000J0D01*
G01*
%TO.C,R9*%
X212000000Y11870000D02*
X212000000Y11800000D01*
X213370000Y13240000D02*
G75*
G03X213370000Y13240000I-1370000J0D01*
G01*
%TO.C,R10*%
X193000000Y11870000D02*
X193000000Y11800000D01*
X194370000Y13240000D02*
G75*
G03X194370000Y13240000I-1370000J0D01*
G01*
%TO.C,R11*%
X174000000Y11870000D02*
X174000000Y11800000D01*
X175370000Y13240000D02*
G75*
G03X175370000Y13240000I-1370000J0D01*
G01*
%TO.C,R12*%
X155000000Y11870000D02*
X155000000Y11800000D01*
X156370000Y13240000D02*
G75*
G03X156370000Y13240000I-1370000J0D01*
G01*
%TO.C,R13*%
X136000000Y11870000D02*
X136000000Y11800000D01*
X137370000Y13240000D02*
G75*
G03X137370000Y13240000I-1370000J0D01*
G01*
%TO.C,R14*%
X117000000Y11870000D02*
X117000000Y11800000D01*
X118370000Y13240000D02*
G75*
G03X118370000Y13240000I-1370000J0D01*
G01*
%TO.C,R15*%
X107750000Y11630000D02*
X107750000Y11560000D01*
X109120000Y13000000D02*
G75*
G03X109120000Y13000000I-1370000J0D01*
G01*
%TO.C,R16*%
X79000000Y11870000D02*
X79000000Y11800000D01*
X80370000Y13240000D02*
G75*
G03X80370000Y13240000I-1370000J0D01*
G01*
%TO.C,R17*%
X60000000Y11870000D02*
X60000000Y11800000D01*
X61370000Y13240000D02*
G75*
G03X61370000Y13240000I-1370000J0D01*
G01*
%TO.C,R18*%
X41000000Y11870000D02*
X41000000Y11800000D01*
X42370000Y13240000D02*
G75*
G03X42370000Y13240000I-1370000J0D01*
G01*
%TO.C,R19*%
X22000000Y11870000D02*
X22000000Y11800000D01*
X23370000Y13240000D02*
G75*
G03X23370000Y13240000I-1370000J0D01*
G01*
%TO.C,R20*%
X3000000Y11870000D02*
X3000000Y11800000D01*
X4370000Y13240000D02*
G75*
G03X4370000Y13240000I-1370000J0D01*
G01*
%TO.C,C2*%
X18870000Y8000000D02*
G75*
G03X18870000Y8000000I-2620000J0D01*
G01*
X16250000Y10580000D02*
X16250000Y5420000D01*
X16290000Y10580000D02*
X16290000Y5420000D01*
X16330000Y10579000D02*
X16330000Y5421000D01*
X16370000Y10578000D02*
X16370000Y5422000D01*
X16410000Y10576000D02*
X16410000Y5424000D01*
X16450000Y10573000D02*
X16450000Y5427000D01*
X16490000Y10569000D02*
X16490000Y9040000D01*
X16490000Y6960000D02*
X16490000Y5431000D01*
X16530000Y10565000D02*
X16530000Y9040000D01*
X16530000Y6960000D02*
X16530000Y5435000D01*
X16570000Y10561000D02*
X16570000Y9040000D01*
X16570000Y6960000D02*
X16570000Y5439000D01*
X16610000Y10556000D02*
X16610000Y9040000D01*
X16610000Y6960000D02*
X16610000Y5444000D01*
X16650000Y10550000D02*
X16650000Y9040000D01*
X16650000Y6960000D02*
X16650000Y5450000D01*
X16690000Y10543000D02*
X16690000Y9040000D01*
X16690000Y6960000D02*
X16690000Y5457000D01*
X16730000Y10536000D02*
X16730000Y9040000D01*
X16730000Y6960000D02*
X16730000Y5464000D01*
X16770000Y10528000D02*
X16770000Y9040000D01*
X16770000Y6960000D02*
X16770000Y5472000D01*
X16810000Y10520000D02*
X16810000Y9040000D01*
X16810000Y6960000D02*
X16810000Y5480000D01*
X16850000Y10511000D02*
X16850000Y9040000D01*
X16850000Y6960000D02*
X16850000Y5489000D01*
X16890000Y10501000D02*
X16890000Y9040000D01*
X16890000Y6960000D02*
X16890000Y5499000D01*
X16930000Y10491000D02*
X16930000Y9040000D01*
X16930000Y6960000D02*
X16930000Y5509000D01*
X16971000Y10480000D02*
X16971000Y9040000D01*
X16971000Y6960000D02*
X16971000Y5520000D01*
X17011000Y10468000D02*
X17011000Y9040000D01*
X17011000Y6960000D02*
X17011000Y5532000D01*
X17051000Y10455000D02*
X17051000Y9040000D01*
X17051000Y6960000D02*
X17051000Y5545000D01*
X17091000Y10442000D02*
X17091000Y9040000D01*
X17091000Y6960000D02*
X17091000Y5558000D01*
X17131000Y10428000D02*
X17131000Y9040000D01*
X17131000Y6960000D02*
X17131000Y5572000D01*
X17171000Y10414000D02*
X17171000Y9040000D01*
X17171000Y6960000D02*
X17171000Y5586000D01*
X17211000Y10398000D02*
X17211000Y9040000D01*
X17211000Y6960000D02*
X17211000Y5602000D01*
X17251000Y10382000D02*
X17251000Y9040000D01*
X17251000Y6960000D02*
X17251000Y5618000D01*
X17291000Y10365000D02*
X17291000Y9040000D01*
X17291000Y6960000D02*
X17291000Y5635000D01*
X17331000Y10348000D02*
X17331000Y9040000D01*
X17331000Y6960000D02*
X17331000Y5652000D01*
X17371000Y10329000D02*
X17371000Y9040000D01*
X17371000Y6960000D02*
X17371000Y5671000D01*
X17411000Y10310000D02*
X17411000Y9040000D01*
X17411000Y6960000D02*
X17411000Y5690000D01*
X17451000Y10290000D02*
X17451000Y9040000D01*
X17451000Y6960000D02*
X17451000Y5710000D01*
X17491000Y10268000D02*
X17491000Y9040000D01*
X17491000Y6960000D02*
X17491000Y5732000D01*
X17531000Y10247000D02*
X17531000Y9040000D01*
X17531000Y6960000D02*
X17531000Y5753000D01*
X17571000Y10224000D02*
X17571000Y9040000D01*
X17571000Y6960000D02*
X17571000Y5776000D01*
X17611000Y10200000D02*
X17611000Y9040000D01*
X17611000Y6960000D02*
X17611000Y5800000D01*
X17651000Y10175000D02*
X17651000Y9040000D01*
X17651000Y6960000D02*
X17651000Y5825000D01*
X17691000Y10149000D02*
X17691000Y9040000D01*
X17691000Y6960000D02*
X17691000Y5851000D01*
X17731000Y10122000D02*
X17731000Y9040000D01*
X17731000Y6960000D02*
X17731000Y5878000D01*
X17771000Y10095000D02*
X17771000Y9040000D01*
X17771000Y6960000D02*
X17771000Y5905000D01*
X17811000Y10065000D02*
X17811000Y9040000D01*
X17811000Y6960000D02*
X17811000Y5935000D01*
X17851000Y10035000D02*
X17851000Y9040000D01*
X17851000Y6960000D02*
X17851000Y5965000D01*
X17891000Y10004000D02*
X17891000Y9040000D01*
X17891000Y6960000D02*
X17891000Y5996000D01*
X17931000Y9971000D02*
X17931000Y9040000D01*
X17931000Y6960000D02*
X17931000Y6029000D01*
X17971000Y9937000D02*
X17971000Y9040000D01*
X17971000Y6960000D02*
X17971000Y6063000D01*
X18011000Y9901000D02*
X18011000Y9040000D01*
X18011000Y6960000D02*
X18011000Y6099000D01*
X18051000Y9864000D02*
X18051000Y9040000D01*
X18051000Y6960000D02*
X18051000Y6136000D01*
X18091000Y9826000D02*
X18091000Y9040000D01*
X18091000Y6960000D02*
X18091000Y6174000D01*
X18131000Y9785000D02*
X18131000Y9040000D01*
X18131000Y6960000D02*
X18131000Y6215000D01*
X18171000Y9743000D02*
X18171000Y9040000D01*
X18171000Y6960000D02*
X18171000Y6257000D01*
X18211000Y9699000D02*
X18211000Y9040000D01*
X18211000Y6960000D02*
X18211000Y6301000D01*
X18251000Y9653000D02*
X18251000Y9040000D01*
X18251000Y6960000D02*
X18251000Y6347000D01*
X18291000Y9605000D02*
X18291000Y9040000D01*
X18291000Y6960000D02*
X18291000Y6395000D01*
X18331000Y9554000D02*
X18331000Y9040000D01*
X18331000Y6960000D02*
X18331000Y6446000D01*
X18371000Y9500000D02*
X18371000Y9040000D01*
X18371000Y6960000D02*
X18371000Y6500000D01*
X18411000Y9443000D02*
X18411000Y9040000D01*
X18411000Y6960000D02*
X18411000Y6557000D01*
X18451000Y9383000D02*
X18451000Y9040000D01*
X18451000Y6960000D02*
X18451000Y6617000D01*
X18491000Y9319000D02*
X18491000Y9040000D01*
X18491000Y6960000D02*
X18491000Y6681000D01*
X18531000Y9251000D02*
X18531000Y9040000D01*
X18531000Y6960000D02*
X18531000Y6749000D01*
X18571000Y9178000D02*
X18571000Y6822000D01*
X18611000Y9098000D02*
X18611000Y6902000D01*
X18651000Y9011000D02*
X18651000Y6989000D01*
X18691000Y8915000D02*
X18691000Y7085000D01*
X18731000Y8805000D02*
X18731000Y7195000D01*
X18771000Y8677000D02*
X18771000Y7323000D01*
X18811000Y8518000D02*
X18811000Y7482000D01*
X18851000Y8284000D02*
X18851000Y7716000D01*
X13445225Y9475000D02*
X13945225Y9475000D01*
X13695225Y9725000D02*
X13695225Y9225000D01*
%TO.C,D1*%
X31980000Y7070000D02*
X34220000Y7070000D01*
X34220000Y7070000D02*
X34220000Y11310000D01*
X34220000Y11310000D02*
X31980000Y11310000D01*
X31980000Y11310000D02*
X31980000Y7070000D01*
X33100000Y6420000D02*
X33100000Y7070000D01*
X33100000Y11960000D02*
X33100000Y11310000D01*
X31980000Y7790000D02*
X34220000Y7790000D01*
X31980000Y7910000D02*
X34220000Y7910000D01*
X31980000Y7670000D02*
X34220000Y7670000D01*
%TO.C,J22*%
X35670000Y9130000D02*
X38330000Y9130000D01*
X35670000Y11730000D02*
X35670000Y9130000D01*
X38330000Y11730000D02*
X38330000Y9130000D01*
X35670000Y11730000D02*
X38330000Y11730000D01*
X35670000Y13000000D02*
X35670000Y14330000D01*
X35670000Y14330000D02*
X37000000Y14330000D01*
%TO.C,J23*%
X35670000Y4060000D02*
X38330000Y4060000D01*
X35670000Y4120000D02*
X35670000Y4060000D01*
X38330000Y4120000D02*
X38330000Y4060000D01*
X35670000Y4120000D02*
X38330000Y4120000D01*
X35670000Y5390000D02*
X35670000Y6720000D01*
X35670000Y6720000D02*
X37000000Y6720000D01*
%TO.C,R26*%
X56910000Y13000000D02*
G75*
G03X56910000Y13000000I-1370000J0D01*
G01*
X54170000Y13000000D02*
X54100000Y13000000D01*
%TO.C,R27*%
X16170000Y13000000D02*
X16100000Y13000000D01*
X18910000Y13000000D02*
G75*
G03X18910000Y13000000I-1370000J0D01*
G01*
%TO.C,C3*%
X113770000Y6925000D02*
G75*
G03X113770000Y6925000I-2620000J0D01*
G01*
X111150000Y9505000D02*
X111150000Y4345000D01*
X111190000Y9505000D02*
X111190000Y4345000D01*
X111230000Y9504000D02*
X111230000Y4346000D01*
X111270000Y9503000D02*
X111270000Y4347000D01*
X111310000Y9501000D02*
X111310000Y4349000D01*
X111350000Y9498000D02*
X111350000Y4352000D01*
X111390000Y9494000D02*
X111390000Y7965000D01*
X111390000Y5885000D02*
X111390000Y4356000D01*
X111430000Y9490000D02*
X111430000Y7965000D01*
X111430000Y5885000D02*
X111430000Y4360000D01*
X111470000Y9486000D02*
X111470000Y7965000D01*
X111470000Y5885000D02*
X111470000Y4364000D01*
X111510000Y9481000D02*
X111510000Y7965000D01*
X111510000Y5885000D02*
X111510000Y4369000D01*
X111550000Y9475000D02*
X111550000Y7965000D01*
X111550000Y5885000D02*
X111550000Y4375000D01*
X111590000Y9468000D02*
X111590000Y7965000D01*
X111590000Y5885000D02*
X111590000Y4382000D01*
X111630000Y9461000D02*
X111630000Y7965000D01*
X111630000Y5885000D02*
X111630000Y4389000D01*
X111670000Y9453000D02*
X111670000Y7965000D01*
X111670000Y5885000D02*
X111670000Y4397000D01*
X111710000Y9445000D02*
X111710000Y7965000D01*
X111710000Y5885000D02*
X111710000Y4405000D01*
X111750000Y9436000D02*
X111750000Y7965000D01*
X111750000Y5885000D02*
X111750000Y4414000D01*
X111790000Y9426000D02*
X111790000Y7965000D01*
X111790000Y5885000D02*
X111790000Y4424000D01*
X111830000Y9416000D02*
X111830000Y7965000D01*
X111830000Y5885000D02*
X111830000Y4434000D01*
X111871000Y9405000D02*
X111871000Y7965000D01*
X111871000Y5885000D02*
X111871000Y4445000D01*
X111911000Y9393000D02*
X111911000Y7965000D01*
X111911000Y5885000D02*
X111911000Y4457000D01*
X111951000Y9380000D02*
X111951000Y7965000D01*
X111951000Y5885000D02*
X111951000Y4470000D01*
X111991000Y9367000D02*
X111991000Y7965000D01*
X111991000Y5885000D02*
X111991000Y4483000D01*
X112031000Y9353000D02*
X112031000Y7965000D01*
X112031000Y5885000D02*
X112031000Y4497000D01*
X112071000Y9339000D02*
X112071000Y7965000D01*
X112071000Y5885000D02*
X112071000Y4511000D01*
X112111000Y9323000D02*
X112111000Y7965000D01*
X112111000Y5885000D02*
X112111000Y4527000D01*
X112151000Y9307000D02*
X112151000Y7965000D01*
X112151000Y5885000D02*
X112151000Y4543000D01*
X112191000Y9290000D02*
X112191000Y7965000D01*
X112191000Y5885000D02*
X112191000Y4560000D01*
X112231000Y9273000D02*
X112231000Y7965000D01*
X112231000Y5885000D02*
X112231000Y4577000D01*
X112271000Y9254000D02*
X112271000Y7965000D01*
X112271000Y5885000D02*
X112271000Y4596000D01*
X112311000Y9235000D02*
X112311000Y7965000D01*
X112311000Y5885000D02*
X112311000Y4615000D01*
X112351000Y9215000D02*
X112351000Y7965000D01*
X112351000Y5885000D02*
X112351000Y4635000D01*
X112391000Y9193000D02*
X112391000Y7965000D01*
X112391000Y5885000D02*
X112391000Y4657000D01*
X112431000Y9172000D02*
X112431000Y7965000D01*
X112431000Y5885000D02*
X112431000Y4678000D01*
X112471000Y9149000D02*
X112471000Y7965000D01*
X112471000Y5885000D02*
X112471000Y4701000D01*
X112511000Y9125000D02*
X112511000Y7965000D01*
X112511000Y5885000D02*
X112511000Y4725000D01*
X112551000Y9100000D02*
X112551000Y7965000D01*
X112551000Y5885000D02*
X112551000Y4750000D01*
X112591000Y9074000D02*
X112591000Y7965000D01*
X112591000Y5885000D02*
X112591000Y4776000D01*
X112631000Y9047000D02*
X112631000Y7965000D01*
X112631000Y5885000D02*
X112631000Y4803000D01*
X112671000Y9020000D02*
X112671000Y7965000D01*
X112671000Y5885000D02*
X112671000Y4830000D01*
X112711000Y8990000D02*
X112711000Y7965000D01*
X112711000Y5885000D02*
X112711000Y4860000D01*
X112751000Y8960000D02*
X112751000Y7965000D01*
X112751000Y5885000D02*
X112751000Y4890000D01*
X112791000Y8929000D02*
X112791000Y7965000D01*
X112791000Y5885000D02*
X112791000Y4921000D01*
X112831000Y8896000D02*
X112831000Y7965000D01*
X112831000Y5885000D02*
X112831000Y4954000D01*
X112871000Y8862000D02*
X112871000Y7965000D01*
X112871000Y5885000D02*
X112871000Y4988000D01*
X112911000Y8826000D02*
X112911000Y7965000D01*
X112911000Y5885000D02*
X112911000Y5024000D01*
X112951000Y8789000D02*
X112951000Y7965000D01*
X112951000Y5885000D02*
X112951000Y5061000D01*
X112991000Y8751000D02*
X112991000Y7965000D01*
X112991000Y5885000D02*
X112991000Y5099000D01*
X113031000Y8710000D02*
X113031000Y7965000D01*
X113031000Y5885000D02*
X113031000Y5140000D01*
X113071000Y8668000D02*
X113071000Y7965000D01*
X113071000Y5885000D02*
X113071000Y5182000D01*
X113111000Y8624000D02*
X113111000Y7965000D01*
X113111000Y5885000D02*
X113111000Y5226000D01*
X113151000Y8578000D02*
X113151000Y7965000D01*
X113151000Y5885000D02*
X113151000Y5272000D01*
X113191000Y8530000D02*
X113191000Y7965000D01*
X113191000Y5885000D02*
X113191000Y5320000D01*
X113231000Y8479000D02*
X113231000Y7965000D01*
X113231000Y5885000D02*
X113231000Y5371000D01*
X113271000Y8425000D02*
X113271000Y7965000D01*
X113271000Y5885000D02*
X113271000Y5425000D01*
X113311000Y8368000D02*
X113311000Y7965000D01*
X113311000Y5885000D02*
X113311000Y5482000D01*
X113351000Y8308000D02*
X113351000Y7965000D01*
X113351000Y5885000D02*
X113351000Y5542000D01*
X113391000Y8244000D02*
X113391000Y7965000D01*
X113391000Y5885000D02*
X113391000Y5606000D01*
X113431000Y8176000D02*
X113431000Y7965000D01*
X113431000Y5885000D02*
X113431000Y5674000D01*
X113471000Y8103000D02*
X113471000Y5747000D01*
X113511000Y8023000D02*
X113511000Y5827000D01*
X113551000Y7936000D02*
X113551000Y5914000D01*
X113591000Y7840000D02*
X113591000Y6010000D01*
X113631000Y7730000D02*
X113631000Y6120000D01*
X113671000Y7602000D02*
X113671000Y6248000D01*
X113711000Y7443000D02*
X113711000Y6407000D01*
X113751000Y7209000D02*
X113751000Y6641000D01*
X108345225Y8400000D02*
X108845225Y8400000D01*
X108595225Y8650000D02*
X108595225Y8150000D01*
%TO.C,C4*%
X89230000Y5120000D02*
X96970000Y5120000D01*
X89230000Y2380000D02*
X96970000Y2380000D01*
X89230000Y5120000D02*
X89230000Y2380000D01*
X96970000Y5120000D02*
X96970000Y2380000D01*
%TO.C,J24*%
X70070000Y4770000D02*
X72730000Y4770000D01*
X70070000Y4830000D02*
X70070000Y4770000D01*
X72730000Y4830000D02*
X72730000Y4770000D01*
X70070000Y4830000D02*
X72730000Y4830000D01*
X70070000Y6100000D02*
X70070000Y7430000D01*
X70070000Y7430000D02*
X71400000Y7430000D01*
%TO.C,J25*%
X70070000Y11480000D02*
X71400000Y11480000D01*
X70070000Y10150000D02*
X70070000Y11480000D01*
X70070000Y8880000D02*
X72730000Y8880000D01*
X72730000Y8880000D02*
X72730000Y8820000D01*
X70070000Y8880000D02*
X70070000Y8820000D01*
X70070000Y8820000D02*
X72730000Y8820000D01*
%TO.C,J26*%
X74120000Y15020000D02*
X76780000Y15020000D01*
X74120000Y15080000D02*
X74120000Y15020000D01*
X76780000Y15080000D02*
X76780000Y15020000D01*
X74120000Y15080000D02*
X76780000Y15080000D01*
X74120000Y16350000D02*
X74120000Y17680000D01*
X74120000Y17680000D02*
X75450000Y17680000D01*
%TO.C,J27*%
X76730000Y9970000D02*
X74070000Y9970000D01*
X76730000Y7370000D02*
X76730000Y9970000D01*
X74070000Y7370000D02*
X74070000Y9970000D01*
X76730000Y7370000D02*
X74070000Y7370000D01*
X76730000Y6100000D02*
X76730000Y4770000D01*
X76730000Y4770000D02*
X75400000Y4770000D01*
%TO.C,R28*%
X113570000Y13590000D02*
G75*
G03X113570000Y13590000I-1370000J0D01*
G01*
X112200000Y12220000D02*
X112200000Y12150000D01*
%TO.C,R29*%
X96980000Y5120000D02*
X96980000Y7780000D01*
X91840000Y5120000D02*
X96980000Y5120000D01*
X91840000Y7780000D02*
X96980000Y7780000D01*
X91840000Y5120000D02*
X91840000Y7780000D01*
X90570000Y5120000D02*
X89240000Y5120000D01*
X89240000Y5120000D02*
X89240000Y6450000D01*
%TO.C,U2*%
X98170000Y12090000D02*
G75*
G02X98170000Y14090000I0J1000000D01*
G01*
X98170000Y14090000D02*
X98170000Y15740000D01*
X98170000Y15740000D02*
X87890000Y15740000D01*
X87890000Y15740000D02*
X87890000Y10440000D01*
X87890000Y10440000D02*
X98170000Y10440000D01*
X98170000Y10440000D02*
X98170000Y12090000D01*
D11*
%TO.C,U3*%
X73100000Y12850000D02*
X72500000Y12850000D01*
X72500000Y12850000D02*
X72050000Y12500000D01*
X70450000Y12850000D02*
X70450000Y12500000D01*
X70450000Y12500000D02*
X70800000Y12500000D01*
X72100000Y15800000D02*
X72450000Y15800000D01*
X72450000Y15800000D02*
X72450000Y15450000D01*
X70450000Y15450000D02*
X70450000Y15800000D01*
X70450000Y15800000D02*
X70800000Y15800000D01*
%TD*%
%TO.C,C1*%
D13*
X52233333Y10842858D02*
X52185714Y10795239D01*
X52042857Y10747620D01*
X51947619Y10747620D01*
X51804761Y10795239D01*
X51709523Y10890477D01*
X51661904Y10985715D01*
X51614285Y11176191D01*
X51614285Y11319048D01*
X51661904Y11509524D01*
X51709523Y11604762D01*
X51804761Y11700000D01*
X51947619Y11747620D01*
X52042857Y11747620D01*
X52185714Y11700000D01*
X52233333Y11652381D01*
X53185714Y10747620D02*
X52614285Y10747620D01*
X52900000Y10747620D02*
X52900000Y11747620D01*
X52804761Y11604762D01*
X52709523Y11509524D01*
X52614285Y11461905D01*
%TO.C,R8*%
X230833333Y15247620D02*
X230500000Y15723810D01*
X230261904Y15247620D02*
X230261904Y16247620D01*
X230642857Y16247620D01*
X230738095Y16200000D01*
X230785714Y16152381D01*
X230833333Y16057143D01*
X230833333Y15914286D01*
X230785714Y15819048D01*
X230738095Y15771429D01*
X230642857Y15723810D01*
X230261904Y15723810D01*
X231404761Y15819048D02*
X231309523Y15866667D01*
X231261904Y15914286D01*
X231214285Y16009524D01*
X231214285Y16057143D01*
X231261904Y16152381D01*
X231309523Y16200000D01*
X231404761Y16247620D01*
X231595238Y16247620D01*
X231690476Y16200000D01*
X231738095Y16152381D01*
X231785714Y16057143D01*
X231785714Y16009524D01*
X231738095Y15914286D01*
X231690476Y15866667D01*
X231595238Y15819048D01*
X231404761Y15819048D01*
X231309523Y15771429D01*
X231261904Y15723810D01*
X231214285Y15628572D01*
X231214285Y15438096D01*
X231261904Y15342858D01*
X231309523Y15295239D01*
X231404761Y15247620D01*
X231595238Y15247620D01*
X231690476Y15295239D01*
X231738095Y15342858D01*
X231785714Y15438096D01*
X231785714Y15628572D01*
X231738095Y15723810D01*
X231690476Y15771429D01*
X231595238Y15819048D01*
%TO.C,U1*%
X375502380Y8748096D02*
X376311904Y8748096D01*
X376407142Y8795715D01*
X376454761Y8843334D01*
X376502380Y8938572D01*
X376502380Y9129048D01*
X376454761Y9224286D01*
X376407142Y9271905D01*
X376311904Y9319524D01*
X375502380Y9319524D01*
X376502380Y10319524D02*
X376502380Y9748096D01*
X376502380Y10033810D02*
X375502380Y10033810D01*
X375645238Y9938572D01*
X375740476Y9843334D01*
X375788095Y9748096D01*
%TO.C,R1*%
X363833333Y15247620D02*
X363500000Y15723810D01*
X363261904Y15247620D02*
X363261904Y16247620D01*
X363642857Y16247620D01*
X363738095Y16200000D01*
X363785714Y16152381D01*
X363833333Y16057143D01*
X363833333Y15914286D01*
X363785714Y15819048D01*
X363738095Y15771429D01*
X363642857Y15723810D01*
X363261904Y15723810D01*
X364785714Y15247620D02*
X364214285Y15247620D01*
X364500000Y15247620D02*
X364500000Y16247620D01*
X364404761Y16104762D01*
X364309523Y16009524D01*
X364214285Y15961905D01*
%TO.C,R25*%
X262357142Y13877620D02*
X262023809Y14353810D01*
X261785714Y13877620D02*
X261785714Y14877620D01*
X262166666Y14877620D01*
X262261904Y14830000D01*
X262309523Y14782381D01*
X262357142Y14687143D01*
X262357142Y14544286D01*
X262309523Y14449048D01*
X262261904Y14401429D01*
X262166666Y14353810D01*
X261785714Y14353810D01*
X262738095Y14782381D02*
X262785714Y14830000D01*
X262880952Y14877620D01*
X263119047Y14877620D01*
X263214285Y14830000D01*
X263261904Y14782381D01*
X263309523Y14687143D01*
X263309523Y14591905D01*
X263261904Y14449048D01*
X262690476Y13877620D01*
X263309523Y13877620D01*
X264214285Y14877620D02*
X263738095Y14877620D01*
X263690476Y14401429D01*
X263738095Y14449048D01*
X263833333Y14496667D01*
X264071428Y14496667D01*
X264166666Y14449048D01*
X264214285Y14401429D01*
X264261904Y14306191D01*
X264261904Y14068096D01*
X264214285Y13972858D01*
X264166666Y13925239D01*
X264071428Y13877620D01*
X263833333Y13877620D01*
X263738095Y13925239D01*
X263690476Y13972858D01*
%TO.C,R24*%
X300357142Y13877620D02*
X300023809Y14353810D01*
X299785714Y13877620D02*
X299785714Y14877620D01*
X300166666Y14877620D01*
X300261904Y14830000D01*
X300309523Y14782381D01*
X300357142Y14687143D01*
X300357142Y14544286D01*
X300309523Y14449048D01*
X300261904Y14401429D01*
X300166666Y14353810D01*
X299785714Y14353810D01*
X300738095Y14782381D02*
X300785714Y14830000D01*
X300880952Y14877620D01*
X301119047Y14877620D01*
X301214285Y14830000D01*
X301261904Y14782381D01*
X301309523Y14687143D01*
X301309523Y14591905D01*
X301261904Y14449048D01*
X300690476Y13877620D01*
X301309523Y13877620D01*
X302166666Y14544286D02*
X302166666Y13877620D01*
X301928571Y14925239D02*
X301690476Y14210953D01*
X302309523Y14210953D01*
%TO.C,R23*%
X338357142Y13877620D02*
X338023809Y14353810D01*
X337785714Y13877620D02*
X337785714Y14877620D01*
X338166666Y14877620D01*
X338261904Y14830000D01*
X338309523Y14782381D01*
X338357142Y14687143D01*
X338357142Y14544286D01*
X338309523Y14449048D01*
X338261904Y14401429D01*
X338166666Y14353810D01*
X337785714Y14353810D01*
X338738095Y14782381D02*
X338785714Y14830000D01*
X338880952Y14877620D01*
X339119047Y14877620D01*
X339214285Y14830000D01*
X339261904Y14782381D01*
X339309523Y14687143D01*
X339309523Y14591905D01*
X339261904Y14449048D01*
X338690476Y13877620D01*
X339309523Y13877620D01*
X339642857Y14877620D02*
X340261904Y14877620D01*
X339928571Y14496667D01*
X340071428Y14496667D01*
X340166666Y14449048D01*
X340214285Y14401429D01*
X340261904Y14306191D01*
X340261904Y14068096D01*
X340214285Y13972858D01*
X340166666Y13925239D01*
X340071428Y13877620D01*
X339785714Y13877620D01*
X339690476Y13925239D01*
X339642857Y13972858D01*
%TO.C,R22*%
X374452380Y16057143D02*
X373976190Y15723810D01*
X374452380Y15485715D02*
X373452380Y15485715D01*
X373452380Y15866667D01*
X373500000Y15961905D01*
X373547619Y16009524D01*
X373642857Y16057143D01*
X373785714Y16057143D01*
X373880952Y16009524D01*
X373928571Y15961905D01*
X373976190Y15866667D01*
X373976190Y15485715D01*
X373547619Y16438096D02*
X373500000Y16485715D01*
X373452380Y16580953D01*
X373452380Y16819048D01*
X373500000Y16914286D01*
X373547619Y16961905D01*
X373642857Y17009524D01*
X373738095Y17009524D01*
X373880952Y16961905D01*
X374452380Y16390477D01*
X374452380Y17009524D01*
X373547619Y17390477D02*
X373500000Y17438096D01*
X373452380Y17533334D01*
X373452380Y17771429D01*
X373500000Y17866667D01*
X373547619Y17914286D01*
X373642857Y17961905D01*
X373738095Y17961905D01*
X373880952Y17914286D01*
X374452380Y17342858D01*
X374452380Y17961905D01*
%TO.C,R21*%
X382452380Y2057143D02*
X381976190Y1723810D01*
X382452380Y1485715D02*
X381452380Y1485715D01*
X381452380Y1866667D01*
X381500000Y1961905D01*
X381547619Y2009524D01*
X381642857Y2057143D01*
X381785714Y2057143D01*
X381880952Y2009524D01*
X381928571Y1961905D01*
X381976190Y1866667D01*
X381976190Y1485715D01*
X381547619Y2438096D02*
X381500000Y2485715D01*
X381452380Y2580953D01*
X381452380Y2819048D01*
X381500000Y2914286D01*
X381547619Y2961905D01*
X381642857Y3009524D01*
X381738095Y3009524D01*
X381880952Y2961905D01*
X382452380Y2390477D01*
X382452380Y3009524D01*
X382452380Y3961905D02*
X382452380Y3390477D01*
X382452380Y3676191D02*
X381452380Y3676191D01*
X381595238Y3580953D01*
X381690476Y3485715D01*
X381738095Y3390477D01*
%TO.C,LED1*%
X367880952Y16497620D02*
X367404761Y16497620D01*
X367404761Y17497620D01*
X368214285Y17021429D02*
X368547619Y17021429D01*
X368690476Y16497620D02*
X368214285Y16497620D01*
X368214285Y17497620D01*
X368690476Y17497620D01*
X369119047Y16497620D02*
X369119047Y17497620D01*
X369357142Y17497620D01*
X369500000Y17450000D01*
X369595238Y17354762D01*
X369642857Y17259524D01*
X369690476Y17069048D01*
X369690476Y16926191D01*
X369642857Y16735715D01*
X369595238Y16640477D01*
X369500000Y16545239D01*
X369357142Y16497620D01*
X369119047Y16497620D01*
X370642857Y16497620D02*
X370071428Y16497620D01*
X370357142Y16497620D02*
X370357142Y17497620D01*
X370261904Y17354762D01*
X370166666Y17259524D01*
X370071428Y17211905D01*
%TO.C,J21*%
X380452380Y15890477D02*
X381166666Y15890477D01*
X381309523Y15842858D01*
X381404761Y15747620D01*
X381452380Y15604762D01*
X381452380Y15509524D01*
X380547619Y16319048D02*
X380500000Y16366667D01*
X380452380Y16461905D01*
X380452380Y16700000D01*
X380500000Y16795239D01*
X380547619Y16842858D01*
X380642857Y16890477D01*
X380738095Y16890477D01*
X380880952Y16842858D01*
X381452380Y16271429D01*
X381452380Y16890477D01*
X381452380Y17842858D02*
X381452380Y17271429D01*
X381452380Y17557143D02*
X380452380Y17557143D01*
X380595238Y17461905D01*
X380690476Y17366667D01*
X380738095Y17271429D01*
%TO.C,J1*%
X363122380Y5636667D02*
X363836666Y5636667D01*
X363979523Y5589048D01*
X364074761Y5493810D01*
X364122380Y5350953D01*
X364122380Y5255715D01*
X364122380Y6636667D02*
X364122380Y6065239D01*
X364122380Y6350953D02*
X363122380Y6350953D01*
X363265238Y6255715D01*
X363360476Y6160477D01*
X363408095Y6065239D01*
%TO.C,J2*%
X344122380Y5636667D02*
X344836666Y5636667D01*
X344979523Y5589048D01*
X345074761Y5493810D01*
X345122380Y5350953D01*
X345122380Y5255715D01*
X344217619Y6065239D02*
X344170000Y6112858D01*
X344122380Y6208096D01*
X344122380Y6446191D01*
X344170000Y6541429D01*
X344217619Y6589048D01*
X344312857Y6636667D01*
X344408095Y6636667D01*
X344550952Y6589048D01*
X345122380Y6017620D01*
X345122380Y6636667D01*
%TO.C,J3*%
X325122380Y5636667D02*
X325836666Y5636667D01*
X325979523Y5589048D01*
X326074761Y5493810D01*
X326122380Y5350953D01*
X326122380Y5255715D01*
X325122380Y6017620D02*
X325122380Y6636667D01*
X325503333Y6303334D01*
X325503333Y6446191D01*
X325550952Y6541429D01*
X325598571Y6589048D01*
X325693809Y6636667D01*
X325931904Y6636667D01*
X326027142Y6589048D01*
X326074761Y6541429D01*
X326122380Y6446191D01*
X326122380Y6160477D01*
X326074761Y6065239D01*
X326027142Y6017620D01*
%TO.C,J4*%
X306042380Y5636667D02*
X306756666Y5636667D01*
X306899523Y5589048D01*
X306994761Y5493810D01*
X307042380Y5350953D01*
X307042380Y5255715D01*
X306375714Y6541429D02*
X307042380Y6541429D01*
X305994761Y6303334D02*
X306709047Y6065239D01*
X306709047Y6684286D01*
%TO.C,J5*%
X287122380Y5636667D02*
X287836666Y5636667D01*
X287979523Y5589048D01*
X288074761Y5493810D01*
X288122380Y5350953D01*
X288122380Y5255715D01*
X287122380Y6589048D02*
X287122380Y6112858D01*
X287598571Y6065239D01*
X287550952Y6112858D01*
X287503333Y6208096D01*
X287503333Y6446191D01*
X287550952Y6541429D01*
X287598571Y6589048D01*
X287693809Y6636667D01*
X287931904Y6636667D01*
X288027142Y6589048D01*
X288074761Y6541429D01*
X288122380Y6446191D01*
X288122380Y6208096D01*
X288074761Y6112858D01*
X288027142Y6065239D01*
%TO.C,J6*%
X268122380Y5636667D02*
X268836666Y5636667D01*
X268979523Y5589048D01*
X269074761Y5493810D01*
X269122380Y5350953D01*
X269122380Y5255715D01*
X268122380Y6541429D02*
X268122380Y6350953D01*
X268170000Y6255715D01*
X268217619Y6208096D01*
X268360476Y6112858D01*
X268550952Y6065239D01*
X268931904Y6065239D01*
X269027142Y6112858D01*
X269074761Y6160477D01*
X269122380Y6255715D01*
X269122380Y6446191D01*
X269074761Y6541429D01*
X269027142Y6589048D01*
X268931904Y6636667D01*
X268693809Y6636667D01*
X268598571Y6589048D01*
X268550952Y6541429D01*
X268503333Y6446191D01*
X268503333Y6255715D01*
X268550952Y6160477D01*
X268598571Y6112858D01*
X268693809Y6065239D01*
%TO.C,J7*%
X249122380Y5636667D02*
X249836666Y5636667D01*
X249979523Y5589048D01*
X250074761Y5493810D01*
X250122380Y5350953D01*
X250122380Y5255715D01*
X249122380Y6017620D02*
X249122380Y6684286D01*
X250122380Y6255715D01*
%TO.C,J8*%
X230042380Y5636667D02*
X230756666Y5636667D01*
X230899523Y5589048D01*
X230994761Y5493810D01*
X231042380Y5350953D01*
X231042380Y5255715D01*
X230470952Y6255715D02*
X230423333Y6160477D01*
X230375714Y6112858D01*
X230280476Y6065239D01*
X230232857Y6065239D01*
X230137619Y6112858D01*
X230090000Y6160477D01*
X230042380Y6255715D01*
X230042380Y6446191D01*
X230090000Y6541429D01*
X230137619Y6589048D01*
X230232857Y6636667D01*
X230280476Y6636667D01*
X230375714Y6589048D01*
X230423333Y6541429D01*
X230470952Y6446191D01*
X230470952Y6255715D01*
X230518571Y6160477D01*
X230566190Y6112858D01*
X230661428Y6065239D01*
X230851904Y6065239D01*
X230947142Y6112858D01*
X230994761Y6160477D01*
X231042380Y6255715D01*
X231042380Y6446191D01*
X230994761Y6541429D01*
X230947142Y6589048D01*
X230851904Y6636667D01*
X230661428Y6636667D01*
X230566190Y6589048D01*
X230518571Y6541429D01*
X230470952Y6446191D01*
%TO.C,J9*%
X211122380Y5636667D02*
X211836666Y5636667D01*
X211979523Y5589048D01*
X212074761Y5493810D01*
X212122380Y5350953D01*
X212122380Y5255715D01*
X212122380Y6160477D02*
X212122380Y6350953D01*
X212074761Y6446191D01*
X212027142Y6493810D01*
X211884285Y6589048D01*
X211693809Y6636667D01*
X211312857Y6636667D01*
X211217619Y6589048D01*
X211170000Y6541429D01*
X211122380Y6446191D01*
X211122380Y6255715D01*
X211170000Y6160477D01*
X211217619Y6112858D01*
X211312857Y6065239D01*
X211550952Y6065239D01*
X211646190Y6112858D01*
X211693809Y6160477D01*
X211741428Y6255715D01*
X211741428Y6446191D01*
X211693809Y6541429D01*
X211646190Y6589048D01*
X211550952Y6636667D01*
%TO.C,J10*%
X192042380Y5160477D02*
X192756666Y5160477D01*
X192899523Y5112858D01*
X192994761Y5017620D01*
X193042380Y4874762D01*
X193042380Y4779524D01*
X193042380Y6160477D02*
X193042380Y5589048D01*
X193042380Y5874762D02*
X192042380Y5874762D01*
X192185238Y5779524D01*
X192280476Y5684286D01*
X192328095Y5589048D01*
X192042380Y6779524D02*
X192042380Y6874762D01*
X192090000Y6970000D01*
X192137619Y7017620D01*
X192232857Y7065239D01*
X192423333Y7112858D01*
X192661428Y7112858D01*
X192851904Y7065239D01*
X192947142Y7017620D01*
X192994761Y6970000D01*
X193042380Y6874762D01*
X193042380Y6779524D01*
X192994761Y6684286D01*
X192947142Y6636667D01*
X192851904Y6589048D01*
X192661428Y6541429D01*
X192423333Y6541429D01*
X192232857Y6589048D01*
X192137619Y6636667D01*
X192090000Y6684286D01*
X192042380Y6779524D01*
%TO.C,J11*%
X173042380Y5160477D02*
X173756666Y5160477D01*
X173899523Y5112858D01*
X173994761Y5017620D01*
X174042380Y4874762D01*
X174042380Y4779524D01*
X174042380Y6160477D02*
X174042380Y5589048D01*
X174042380Y5874762D02*
X173042380Y5874762D01*
X173185238Y5779524D01*
X173280476Y5684286D01*
X173328095Y5589048D01*
X174042380Y7112858D02*
X174042380Y6541429D01*
X174042380Y6827143D02*
X173042380Y6827143D01*
X173185238Y6731905D01*
X173280476Y6636667D01*
X173328095Y6541429D01*
%TO.C,J12*%
X154042380Y5160477D02*
X154756666Y5160477D01*
X154899523Y5112858D01*
X154994761Y5017620D01*
X155042380Y4874762D01*
X155042380Y4779524D01*
X155042380Y6160477D02*
X155042380Y5589048D01*
X155042380Y5874762D02*
X154042380Y5874762D01*
X154185238Y5779524D01*
X154280476Y5684286D01*
X154328095Y5589048D01*
X154137619Y6541429D02*
X154090000Y6589048D01*
X154042380Y6684286D01*
X154042380Y6922381D01*
X154090000Y7017620D01*
X154137619Y7065239D01*
X154232857Y7112858D01*
X154328095Y7112858D01*
X154470952Y7065239D01*
X155042380Y6493810D01*
X155042380Y7112858D01*
%TO.C,J13*%
X135042380Y5160477D02*
X135756666Y5160477D01*
X135899523Y5112858D01*
X135994761Y5017620D01*
X136042380Y4874762D01*
X136042380Y4779524D01*
X136042380Y6160477D02*
X136042380Y5589048D01*
X136042380Y5874762D02*
X135042380Y5874762D01*
X135185238Y5779524D01*
X135280476Y5684286D01*
X135328095Y5589048D01*
X135042380Y6493810D02*
X135042380Y7112858D01*
X135423333Y6779524D01*
X135423333Y6922381D01*
X135470952Y7017620D01*
X135518571Y7065239D01*
X135613809Y7112858D01*
X135851904Y7112858D01*
X135947142Y7065239D01*
X135994761Y7017620D01*
X136042380Y6922381D01*
X136042380Y6636667D01*
X135994761Y6541429D01*
X135947142Y6493810D01*
%TO.C,J14*%
X116042380Y5160477D02*
X116756666Y5160477D01*
X116899523Y5112858D01*
X116994761Y5017620D01*
X117042380Y4874762D01*
X117042380Y4779524D01*
X117042380Y6160477D02*
X117042380Y5589048D01*
X117042380Y5874762D02*
X116042380Y5874762D01*
X116185238Y5779524D01*
X116280476Y5684286D01*
X116328095Y5589048D01*
X116375714Y7017620D02*
X117042380Y7017620D01*
X115994761Y6779524D02*
X116709047Y6541429D01*
X116709047Y7160477D01*
%TO.C,J15*%
X97042380Y5160477D02*
X97756666Y5160477D01*
X97899523Y5112858D01*
X97994761Y5017620D01*
X98042380Y4874762D01*
X98042380Y4779524D01*
X98042380Y6160477D02*
X98042380Y5589048D01*
X98042380Y5874762D02*
X97042380Y5874762D01*
X97185238Y5779524D01*
X97280476Y5684286D01*
X97328095Y5589048D01*
X97042380Y7065239D02*
X97042380Y6589048D01*
X97518571Y6541429D01*
X97470952Y6589048D01*
X97423333Y6684286D01*
X97423333Y6922381D01*
X97470952Y7017620D01*
X97518571Y7065239D01*
X97613809Y7112858D01*
X97851904Y7112858D01*
X97947142Y7065239D01*
X97994761Y7017620D01*
X98042380Y6922381D01*
X98042380Y6684286D01*
X97994761Y6589048D01*
X97947142Y6541429D01*
%TO.C,J16*%
X78042380Y5160477D02*
X78756666Y5160477D01*
X78899523Y5112858D01*
X78994761Y5017620D01*
X79042380Y4874762D01*
X79042380Y4779524D01*
X79042380Y6160477D02*
X79042380Y5589048D01*
X79042380Y5874762D02*
X78042380Y5874762D01*
X78185238Y5779524D01*
X78280476Y5684286D01*
X78328095Y5589048D01*
X78042380Y7017620D02*
X78042380Y6827143D01*
X78090000Y6731905D01*
X78137619Y6684286D01*
X78280476Y6589048D01*
X78470952Y6541429D01*
X78851904Y6541429D01*
X78947142Y6589048D01*
X78994761Y6636667D01*
X79042380Y6731905D01*
X79042380Y6922381D01*
X78994761Y7017620D01*
X78947142Y7065239D01*
X78851904Y7112858D01*
X78613809Y7112858D01*
X78518571Y7065239D01*
X78470952Y7017620D01*
X78423333Y6922381D01*
X78423333Y6731905D01*
X78470952Y6636667D01*
X78518571Y6589048D01*
X78613809Y6541429D01*
%TO.C,J17*%
X59042380Y5160477D02*
X59756666Y5160477D01*
X59899523Y5112858D01*
X59994761Y5017620D01*
X60042380Y4874762D01*
X60042380Y4779524D01*
X60042380Y6160477D02*
X60042380Y5589048D01*
X60042380Y5874762D02*
X59042380Y5874762D01*
X59185238Y5779524D01*
X59280476Y5684286D01*
X59328095Y5589048D01*
X59042380Y6493810D02*
X59042380Y7160477D01*
X60042380Y6731905D01*
%TO.C,J18*%
X40042380Y5160477D02*
X40756666Y5160477D01*
X40899523Y5112858D01*
X40994761Y5017620D01*
X41042380Y4874762D01*
X41042380Y4779524D01*
X41042380Y6160477D02*
X41042380Y5589048D01*
X41042380Y5874762D02*
X40042380Y5874762D01*
X40185238Y5779524D01*
X40280476Y5684286D01*
X40328095Y5589048D01*
X40470952Y6731905D02*
X40423333Y6636667D01*
X40375714Y6589048D01*
X40280476Y6541429D01*
X40232857Y6541429D01*
X40137619Y6589048D01*
X40090000Y6636667D01*
X40042380Y6731905D01*
X40042380Y6922381D01*
X40090000Y7017620D01*
X40137619Y7065239D01*
X40232857Y7112858D01*
X40280476Y7112858D01*
X40375714Y7065239D01*
X40423333Y7017620D01*
X40470952Y6922381D01*
X40470952Y6731905D01*
X40518571Y6636667D01*
X40566190Y6589048D01*
X40661428Y6541429D01*
X40851904Y6541429D01*
X40947142Y6589048D01*
X40994761Y6636667D01*
X41042380Y6731905D01*
X41042380Y6922381D01*
X40994761Y7017620D01*
X40947142Y7065239D01*
X40851904Y7112858D01*
X40661428Y7112858D01*
X40566190Y7065239D01*
X40518571Y7017620D01*
X40470952Y6922381D01*
%TO.C,J19*%
X21042380Y5160477D02*
X21756666Y5160477D01*
X21899523Y5112858D01*
X21994761Y5017620D01*
X22042380Y4874762D01*
X22042380Y4779524D01*
X22042380Y6160477D02*
X22042380Y5589048D01*
X22042380Y5874762D02*
X21042380Y5874762D01*
X21185238Y5779524D01*
X21280476Y5684286D01*
X21328095Y5589048D01*
X22042380Y6636667D02*
X22042380Y6827143D01*
X21994761Y6922381D01*
X21947142Y6970000D01*
X21804285Y7065239D01*
X21613809Y7112858D01*
X21232857Y7112858D01*
X21137619Y7065239D01*
X21090000Y7017620D01*
X21042380Y6922381D01*
X21042380Y6731905D01*
X21090000Y6636667D01*
X21137619Y6589048D01*
X21232857Y6541429D01*
X21470952Y6541429D01*
X21566190Y6589048D01*
X21613809Y6636667D01*
X21661428Y6731905D01*
X21661428Y6922381D01*
X21613809Y7017620D01*
X21566190Y7065239D01*
X21470952Y7112858D01*
%TO.C,J20*%
X2042380Y5160477D02*
X2756666Y5160477D01*
X2899523Y5112858D01*
X2994761Y5017620D01*
X3042380Y4874762D01*
X3042380Y4779524D01*
X2137619Y5589048D02*
X2090000Y5636667D01*
X2042380Y5731905D01*
X2042380Y5970000D01*
X2090000Y6065239D01*
X2137619Y6112858D01*
X2232857Y6160477D01*
X2328095Y6160477D01*
X2470952Y6112858D01*
X3042380Y5541429D01*
X3042380Y6160477D01*
X2042380Y6779524D02*
X2042380Y6874762D01*
X2090000Y6970000D01*
X2137619Y7017620D01*
X2232857Y7065239D01*
X2423333Y7112858D01*
X2661428Y7112858D01*
X2851904Y7065239D01*
X2947142Y7017620D01*
X2994761Y6970000D01*
X3042380Y6874762D01*
X3042380Y6779524D01*
X2994761Y6684286D01*
X2947142Y6636667D01*
X2851904Y6589048D01*
X2661428Y6541429D01*
X2423333Y6541429D01*
X2232857Y6589048D01*
X2137619Y6636667D01*
X2090000Y6684286D01*
X2042380Y6779524D01*
%TO.C,LED2*%
X348880952Y16497620D02*
X348404761Y16497620D01*
X348404761Y17497620D01*
X349214285Y17021429D02*
X349547619Y17021429D01*
X349690476Y16497620D02*
X349214285Y16497620D01*
X349214285Y17497620D01*
X349690476Y17497620D01*
X350119047Y16497620D02*
X350119047Y17497620D01*
X350357142Y17497620D01*
X350500000Y17450000D01*
X350595238Y17354762D01*
X350642857Y17259524D01*
X350690476Y17069048D01*
X350690476Y16926191D01*
X350642857Y16735715D01*
X350595238Y16640477D01*
X350500000Y16545239D01*
X350357142Y16497620D01*
X350119047Y16497620D01*
X351071428Y17402381D02*
X351119047Y17450000D01*
X351214285Y17497620D01*
X351452380Y17497620D01*
X351547619Y17450000D01*
X351595238Y17402381D01*
X351642857Y17307143D01*
X351642857Y17211905D01*
X351595238Y17069048D01*
X351023809Y16497620D01*
X351642857Y16497620D01*
%TO.C,LED3*%
X329880952Y16497620D02*
X329404761Y16497620D01*
X329404761Y17497620D01*
X330214285Y17021429D02*
X330547619Y17021429D01*
X330690476Y16497620D02*
X330214285Y16497620D01*
X330214285Y17497620D01*
X330690476Y17497620D01*
X331119047Y16497620D02*
X331119047Y17497620D01*
X331357142Y17497620D01*
X331500000Y17450000D01*
X331595238Y17354762D01*
X331642857Y17259524D01*
X331690476Y17069048D01*
X331690476Y16926191D01*
X331642857Y16735715D01*
X331595238Y16640477D01*
X331500000Y16545239D01*
X331357142Y16497620D01*
X331119047Y16497620D01*
X332023809Y17497620D02*
X332642857Y17497620D01*
X332309523Y17116667D01*
X332452380Y17116667D01*
X332547619Y17069048D01*
X332595238Y17021429D01*
X332642857Y16926191D01*
X332642857Y16688096D01*
X332595238Y16592858D01*
X332547619Y16545239D01*
X332452380Y16497620D01*
X332166666Y16497620D01*
X332071428Y16545239D01*
X332023809Y16592858D01*
%TO.C,LED4*%
X310880952Y16497620D02*
X310404761Y16497620D01*
X310404761Y17497620D01*
X311214285Y17021429D02*
X311547619Y17021429D01*
X311690476Y16497620D02*
X311214285Y16497620D01*
X311214285Y17497620D01*
X311690476Y17497620D01*
X312119047Y16497620D02*
X312119047Y17497620D01*
X312357142Y17497620D01*
X312500000Y17450000D01*
X312595238Y17354762D01*
X312642857Y17259524D01*
X312690476Y17069048D01*
X312690476Y16926191D01*
X312642857Y16735715D01*
X312595238Y16640477D01*
X312500000Y16545239D01*
X312357142Y16497620D01*
X312119047Y16497620D01*
X313547619Y17164286D02*
X313547619Y16497620D01*
X313309523Y17545239D02*
X313071428Y16830953D01*
X313690476Y16830953D01*
%TO.C,LED5*%
X291880952Y16497620D02*
X291404761Y16497620D01*
X291404761Y17497620D01*
X292214285Y17021429D02*
X292547619Y17021429D01*
X292690476Y16497620D02*
X292214285Y16497620D01*
X292214285Y17497620D01*
X292690476Y17497620D01*
X293119047Y16497620D02*
X293119047Y17497620D01*
X293357142Y17497620D01*
X293500000Y17450000D01*
X293595238Y17354762D01*
X293642857Y17259524D01*
X293690476Y17069048D01*
X293690476Y16926191D01*
X293642857Y16735715D01*
X293595238Y16640477D01*
X293500000Y16545239D01*
X293357142Y16497620D01*
X293119047Y16497620D01*
X294595238Y17497620D02*
X294119047Y17497620D01*
X294071428Y17021429D01*
X294119047Y17069048D01*
X294214285Y17116667D01*
X294452380Y17116667D01*
X294547619Y17069048D01*
X294595238Y17021429D01*
X294642857Y16926191D01*
X294642857Y16688096D01*
X294595238Y16592858D01*
X294547619Y16545239D01*
X294452380Y16497620D01*
X294214285Y16497620D01*
X294119047Y16545239D01*
X294071428Y16592858D01*
%TO.C,LED6*%
X272880952Y16497620D02*
X272404761Y16497620D01*
X272404761Y17497620D01*
X273214285Y17021429D02*
X273547619Y17021429D01*
X273690476Y16497620D02*
X273214285Y16497620D01*
X273214285Y17497620D01*
X273690476Y17497620D01*
X274119047Y16497620D02*
X274119047Y17497620D01*
X274357142Y17497620D01*
X274500000Y17450000D01*
X274595238Y17354762D01*
X274642857Y17259524D01*
X274690476Y17069048D01*
X274690476Y16926191D01*
X274642857Y16735715D01*
X274595238Y16640477D01*
X274500000Y16545239D01*
X274357142Y16497620D01*
X274119047Y16497620D01*
X275547619Y17497620D02*
X275357142Y17497620D01*
X275261904Y17450000D01*
X275214285Y17402381D01*
X275119047Y17259524D01*
X275071428Y17069048D01*
X275071428Y16688096D01*
X275119047Y16592858D01*
X275166666Y16545239D01*
X275261904Y16497620D01*
X275452380Y16497620D01*
X275547619Y16545239D01*
X275595238Y16592858D01*
X275642857Y16688096D01*
X275642857Y16926191D01*
X275595238Y17021429D01*
X275547619Y17069048D01*
X275452380Y17116667D01*
X275261904Y17116667D01*
X275166666Y17069048D01*
X275119047Y17021429D01*
X275071428Y16926191D01*
%TO.C,LED7*%
X253880952Y16497620D02*
X253404761Y16497620D01*
X253404761Y17497620D01*
X254214285Y17021429D02*
X254547619Y17021429D01*
X254690476Y16497620D02*
X254214285Y16497620D01*
X254214285Y17497620D01*
X254690476Y17497620D01*
X255119047Y16497620D02*
X255119047Y17497620D01*
X255357142Y17497620D01*
X255500000Y17450000D01*
X255595238Y17354762D01*
X255642857Y17259524D01*
X255690476Y17069048D01*
X255690476Y16926191D01*
X255642857Y16735715D01*
X255595238Y16640477D01*
X255500000Y16545239D01*
X255357142Y16497620D01*
X255119047Y16497620D01*
X256023809Y17497620D02*
X256690476Y17497620D01*
X256261904Y16497620D01*
%TO.C,LED8*%
X234880952Y16497620D02*
X234404761Y16497620D01*
X234404761Y17497620D01*
X235214285Y17021429D02*
X235547619Y17021429D01*
X235690476Y16497620D02*
X235214285Y16497620D01*
X235214285Y17497620D01*
X235690476Y17497620D01*
X236119047Y16497620D02*
X236119047Y17497620D01*
X236357142Y17497620D01*
X236500000Y17450000D01*
X236595238Y17354762D01*
X236642857Y17259524D01*
X236690476Y17069048D01*
X236690476Y16926191D01*
X236642857Y16735715D01*
X236595238Y16640477D01*
X236500000Y16545239D01*
X236357142Y16497620D01*
X236119047Y16497620D01*
X237261904Y17069048D02*
X237166666Y17116667D01*
X237119047Y17164286D01*
X237071428Y17259524D01*
X237071428Y17307143D01*
X237119047Y17402381D01*
X237166666Y17450000D01*
X237261904Y17497620D01*
X237452380Y17497620D01*
X237547619Y17450000D01*
X237595238Y17402381D01*
X237642857Y17307143D01*
X237642857Y17259524D01*
X237595238Y17164286D01*
X237547619Y17116667D01*
X237452380Y17069048D01*
X237261904Y17069048D01*
X237166666Y17021429D01*
X237119047Y16973810D01*
X237071428Y16878572D01*
X237071428Y16688096D01*
X237119047Y16592858D01*
X237166666Y16545239D01*
X237261904Y16497620D01*
X237452380Y16497620D01*
X237547619Y16545239D01*
X237595238Y16592858D01*
X237642857Y16688096D01*
X237642857Y16878572D01*
X237595238Y16973810D01*
X237547619Y17021429D01*
X237452380Y17069048D01*
%TO.C,LED9*%
X215880952Y16497620D02*
X215404761Y16497620D01*
X215404761Y17497620D01*
X216214285Y17021429D02*
X216547619Y17021429D01*
X216690476Y16497620D02*
X216214285Y16497620D01*
X216214285Y17497620D01*
X216690476Y17497620D01*
X217119047Y16497620D02*
X217119047Y17497620D01*
X217357142Y17497620D01*
X217500000Y17450000D01*
X217595238Y17354762D01*
X217642857Y17259524D01*
X217690476Y17069048D01*
X217690476Y16926191D01*
X217642857Y16735715D01*
X217595238Y16640477D01*
X217500000Y16545239D01*
X217357142Y16497620D01*
X217119047Y16497620D01*
X218166666Y16497620D02*
X218357142Y16497620D01*
X218452380Y16545239D01*
X218500000Y16592858D01*
X218595238Y16735715D01*
X218642857Y16926191D01*
X218642857Y17307143D01*
X218595238Y17402381D01*
X218547619Y17450000D01*
X218452380Y17497620D01*
X218261904Y17497620D01*
X218166666Y17450000D01*
X218119047Y17402381D01*
X218071428Y17307143D01*
X218071428Y17069048D01*
X218119047Y16973810D01*
X218166666Y16926191D01*
X218261904Y16878572D01*
X218452380Y16878572D01*
X218547619Y16926191D01*
X218595238Y16973810D01*
X218642857Y17069048D01*
%TO.C,LED10*%
X196404761Y16497620D02*
X195928571Y16497620D01*
X195928571Y17497620D01*
X196738095Y17021429D02*
X197071428Y17021429D01*
X197214285Y16497620D02*
X196738095Y16497620D01*
X196738095Y17497620D01*
X197214285Y17497620D01*
X197642857Y16497620D02*
X197642857Y17497620D01*
X197880952Y17497620D01*
X198023809Y17450000D01*
X198119047Y17354762D01*
X198166666Y17259524D01*
X198214285Y17069048D01*
X198214285Y16926191D01*
X198166666Y16735715D01*
X198119047Y16640477D01*
X198023809Y16545239D01*
X197880952Y16497620D01*
X197642857Y16497620D01*
X199166666Y16497620D02*
X198595238Y16497620D01*
X198880952Y16497620D02*
X198880952Y17497620D01*
X198785714Y17354762D01*
X198690476Y17259524D01*
X198595238Y17211905D01*
X199785714Y17497620D02*
X199880952Y17497620D01*
X199976190Y17450000D01*
X200023809Y17402381D01*
X200071428Y17307143D01*
X200119047Y17116667D01*
X200119047Y16878572D01*
X200071428Y16688096D01*
X200023809Y16592858D01*
X199976190Y16545239D01*
X199880952Y16497620D01*
X199785714Y16497620D01*
X199690476Y16545239D01*
X199642857Y16592858D01*
X199595238Y16688096D01*
X199547619Y16878572D01*
X199547619Y17116667D01*
X199595238Y17307143D01*
X199642857Y17402381D01*
X199690476Y17450000D01*
X199785714Y17497620D01*
%TO.C,LED11*%
X177404761Y16497620D02*
X176928571Y16497620D01*
X176928571Y17497620D01*
X177738095Y17021429D02*
X178071428Y17021429D01*
X178214285Y16497620D02*
X177738095Y16497620D01*
X177738095Y17497620D01*
X178214285Y17497620D01*
X178642857Y16497620D02*
X178642857Y17497620D01*
X178880952Y17497620D01*
X179023809Y17450000D01*
X179119047Y17354762D01*
X179166666Y17259524D01*
X179214285Y17069048D01*
X179214285Y16926191D01*
X179166666Y16735715D01*
X179119047Y16640477D01*
X179023809Y16545239D01*
X178880952Y16497620D01*
X178642857Y16497620D01*
X180166666Y16497620D02*
X179595238Y16497620D01*
X179880952Y16497620D02*
X179880952Y17497620D01*
X179785714Y17354762D01*
X179690476Y17259524D01*
X179595238Y17211905D01*
X181119047Y16497620D02*
X180547619Y16497620D01*
X180833333Y16497620D02*
X180833333Y17497620D01*
X180738095Y17354762D01*
X180642857Y17259524D01*
X180547619Y17211905D01*
%TO.C,LED12*%
X158404761Y16497620D02*
X157928571Y16497620D01*
X157928571Y17497620D01*
X158738095Y17021429D02*
X159071428Y17021429D01*
X159214285Y16497620D02*
X158738095Y16497620D01*
X158738095Y17497620D01*
X159214285Y17497620D01*
X159642857Y16497620D02*
X159642857Y17497620D01*
X159880952Y17497620D01*
X160023809Y17450000D01*
X160119047Y17354762D01*
X160166666Y17259524D01*
X160214285Y17069048D01*
X160214285Y16926191D01*
X160166666Y16735715D01*
X160119047Y16640477D01*
X160023809Y16545239D01*
X159880952Y16497620D01*
X159642857Y16497620D01*
X161166666Y16497620D02*
X160595238Y16497620D01*
X160880952Y16497620D02*
X160880952Y17497620D01*
X160785714Y17354762D01*
X160690476Y17259524D01*
X160595238Y17211905D01*
X161547619Y17402381D02*
X161595238Y17450000D01*
X161690476Y17497620D01*
X161928571Y17497620D01*
X162023809Y17450000D01*
X162071428Y17402381D01*
X162119047Y17307143D01*
X162119047Y17211905D01*
X162071428Y17069048D01*
X161500000Y16497620D01*
X162119047Y16497620D01*
%TO.C,LED13*%
X139404761Y16497620D02*
X138928571Y16497620D01*
X138928571Y17497620D01*
X139738095Y17021429D02*
X140071428Y17021429D01*
X140214285Y16497620D02*
X139738095Y16497620D01*
X139738095Y17497620D01*
X140214285Y17497620D01*
X140642857Y16497620D02*
X140642857Y17497620D01*
X140880952Y17497620D01*
X141023809Y17450000D01*
X141119047Y17354762D01*
X141166666Y17259524D01*
X141214285Y17069048D01*
X141214285Y16926191D01*
X141166666Y16735715D01*
X141119047Y16640477D01*
X141023809Y16545239D01*
X140880952Y16497620D01*
X140642857Y16497620D01*
X142166666Y16497620D02*
X141595238Y16497620D01*
X141880952Y16497620D02*
X141880952Y17497620D01*
X141785714Y17354762D01*
X141690476Y17259524D01*
X141595238Y17211905D01*
X142500000Y17497620D02*
X143119047Y17497620D01*
X142785714Y17116667D01*
X142928571Y17116667D01*
X143023809Y17069048D01*
X143071428Y17021429D01*
X143119047Y16926191D01*
X143119047Y16688096D01*
X143071428Y16592858D01*
X143023809Y16545239D01*
X142928571Y16497620D01*
X142642857Y16497620D01*
X142547619Y16545239D01*
X142500000Y16592858D01*
%TO.C,LED14*%
X120404761Y16497620D02*
X119928571Y16497620D01*
X119928571Y17497620D01*
X120738095Y17021429D02*
X121071428Y17021429D01*
X121214285Y16497620D02*
X120738095Y16497620D01*
X120738095Y17497620D01*
X121214285Y17497620D01*
X121642857Y16497620D02*
X121642857Y17497620D01*
X121880952Y17497620D01*
X122023809Y17450000D01*
X122119047Y17354762D01*
X122166666Y17259524D01*
X122214285Y17069048D01*
X122214285Y16926191D01*
X122166666Y16735715D01*
X122119047Y16640477D01*
X122023809Y16545239D01*
X121880952Y16497620D01*
X121642857Y16497620D01*
X123166666Y16497620D02*
X122595238Y16497620D01*
X122880952Y16497620D02*
X122880952Y17497620D01*
X122785714Y17354762D01*
X122690476Y17259524D01*
X122595238Y17211905D01*
X124023809Y17164286D02*
X124023809Y16497620D01*
X123785714Y17545239D02*
X123547619Y16830953D01*
X124166666Y16830953D01*
%TO.C,LED15*%
X101504761Y13547620D02*
X101028571Y13547620D01*
X101028571Y14547620D01*
X101838095Y14071429D02*
X102171428Y14071429D01*
X102314285Y13547620D02*
X101838095Y13547620D01*
X101838095Y14547620D01*
X102314285Y14547620D01*
X102742857Y13547620D02*
X102742857Y14547620D01*
X102980952Y14547620D01*
X103123809Y14500000D01*
X103219047Y14404762D01*
X103266666Y14309524D01*
X103314285Y14119048D01*
X103314285Y13976191D01*
X103266666Y13785715D01*
X103219047Y13690477D01*
X103123809Y13595239D01*
X102980952Y13547620D01*
X102742857Y13547620D01*
X104266666Y13547620D02*
X103695238Y13547620D01*
X103980952Y13547620D02*
X103980952Y14547620D01*
X103885714Y14404762D01*
X103790476Y14309524D01*
X103695238Y14261905D01*
X105171428Y14547620D02*
X104695238Y14547620D01*
X104647619Y14071429D01*
X104695238Y14119048D01*
X104790476Y14166667D01*
X105028571Y14166667D01*
X105123809Y14119048D01*
X105171428Y14071429D01*
X105219047Y13976191D01*
X105219047Y13738096D01*
X105171428Y13642858D01*
X105123809Y13595239D01*
X105028571Y13547620D01*
X104790476Y13547620D01*
X104695238Y13595239D01*
X104647619Y13642858D01*
%TO.C,LED16*%
X82404761Y13647620D02*
X81928571Y13647620D01*
X81928571Y14647620D01*
X82738095Y14171429D02*
X83071428Y14171429D01*
X83214285Y13647620D02*
X82738095Y13647620D01*
X82738095Y14647620D01*
X83214285Y14647620D01*
X83642857Y13647620D02*
X83642857Y14647620D01*
X83880952Y14647620D01*
X84023809Y14600000D01*
X84119047Y14504762D01*
X84166666Y14409524D01*
X84214285Y14219048D01*
X84214285Y14076191D01*
X84166666Y13885715D01*
X84119047Y13790477D01*
X84023809Y13695239D01*
X83880952Y13647620D01*
X83642857Y13647620D01*
X85166666Y13647620D02*
X84595238Y13647620D01*
X84880952Y13647620D02*
X84880952Y14647620D01*
X84785714Y14504762D01*
X84690476Y14409524D01*
X84595238Y14361905D01*
X86023809Y14647620D02*
X85833333Y14647620D01*
X85738095Y14600000D01*
X85690476Y14552381D01*
X85595238Y14409524D01*
X85547619Y14219048D01*
X85547619Y13838096D01*
X85595238Y13742858D01*
X85642857Y13695239D01*
X85738095Y13647620D01*
X85928571Y13647620D01*
X86023809Y13695239D01*
X86071428Y13742858D01*
X86119047Y13838096D01*
X86119047Y14076191D01*
X86071428Y14171429D01*
X86023809Y14219048D01*
X85928571Y14266667D01*
X85738095Y14266667D01*
X85642857Y14219048D01*
X85595238Y14171429D01*
X85547619Y14076191D01*
%TO.C,LED17*%
X63404761Y16047620D02*
X62928571Y16047620D01*
X62928571Y17047620D01*
X63738095Y16571429D02*
X64071428Y16571429D01*
X64214285Y16047620D02*
X63738095Y16047620D01*
X63738095Y17047620D01*
X64214285Y17047620D01*
X64642857Y16047620D02*
X64642857Y17047620D01*
X64880952Y17047620D01*
X65023809Y17000000D01*
X65119047Y16904762D01*
X65166666Y16809524D01*
X65214285Y16619048D01*
X65214285Y16476191D01*
X65166666Y16285715D01*
X65119047Y16190477D01*
X65023809Y16095239D01*
X64880952Y16047620D01*
X64642857Y16047620D01*
X66166666Y16047620D02*
X65595238Y16047620D01*
X65880952Y16047620D02*
X65880952Y17047620D01*
X65785714Y16904762D01*
X65690476Y16809524D01*
X65595238Y16761905D01*
X66500000Y17047620D02*
X67166666Y17047620D01*
X66738095Y16047620D01*
%TO.C,LED18*%
X44404761Y13797620D02*
X43928571Y13797620D01*
X43928571Y14797620D01*
X44738095Y14321429D02*
X45071428Y14321429D01*
X45214285Y13797620D02*
X44738095Y13797620D01*
X44738095Y14797620D01*
X45214285Y14797620D01*
X45642857Y13797620D02*
X45642857Y14797620D01*
X45880952Y14797620D01*
X46023809Y14750000D01*
X46119047Y14654762D01*
X46166666Y14559524D01*
X46214285Y14369048D01*
X46214285Y14226191D01*
X46166666Y14035715D01*
X46119047Y13940477D01*
X46023809Y13845239D01*
X45880952Y13797620D01*
X45642857Y13797620D01*
X47166666Y13797620D02*
X46595238Y13797620D01*
X46880952Y13797620D02*
X46880952Y14797620D01*
X46785714Y14654762D01*
X46690476Y14559524D01*
X46595238Y14511905D01*
X47738095Y14369048D02*
X47642857Y14416667D01*
X47595238Y14464286D01*
X47547619Y14559524D01*
X47547619Y14607143D01*
X47595238Y14702381D01*
X47642857Y14750000D01*
X47738095Y14797620D01*
X47928571Y14797620D01*
X48023809Y14750000D01*
X48071428Y14702381D01*
X48119047Y14607143D01*
X48119047Y14559524D01*
X48071428Y14464286D01*
X48023809Y14416667D01*
X47928571Y14369048D01*
X47738095Y14369048D01*
X47642857Y14321429D01*
X47595238Y14273810D01*
X47547619Y14178572D01*
X47547619Y13988096D01*
X47595238Y13892858D01*
X47642857Y13845239D01*
X47738095Y13797620D01*
X47928571Y13797620D01*
X48023809Y13845239D01*
X48071428Y13892858D01*
X48119047Y13988096D01*
X48119047Y14178572D01*
X48071428Y14273810D01*
X48023809Y14321429D01*
X47928571Y14369048D01*
%TO.C,LED19*%
X25404761Y13797620D02*
X24928571Y13797620D01*
X24928571Y14797620D01*
X25738095Y14321429D02*
X26071428Y14321429D01*
X26214285Y13797620D02*
X25738095Y13797620D01*
X25738095Y14797620D01*
X26214285Y14797620D01*
X26642857Y13797620D02*
X26642857Y14797620D01*
X26880952Y14797620D01*
X27023809Y14750000D01*
X27119047Y14654762D01*
X27166666Y14559524D01*
X27214285Y14369048D01*
X27214285Y14226191D01*
X27166666Y14035715D01*
X27119047Y13940477D01*
X27023809Y13845239D01*
X26880952Y13797620D01*
X26642857Y13797620D01*
X28166666Y13797620D02*
X27595238Y13797620D01*
X27880952Y13797620D02*
X27880952Y14797620D01*
X27785714Y14654762D01*
X27690476Y14559524D01*
X27595238Y14511905D01*
X28642857Y13797620D02*
X28833333Y13797620D01*
X28928571Y13845239D01*
X28976190Y13892858D01*
X29071428Y14035715D01*
X29119047Y14226191D01*
X29119047Y14607143D01*
X29071428Y14702381D01*
X29023809Y14750000D01*
X28928571Y14797620D01*
X28738095Y14797620D01*
X28642857Y14750000D01*
X28595238Y14702381D01*
X28547619Y14607143D01*
X28547619Y14369048D01*
X28595238Y14273810D01*
X28642857Y14226191D01*
X28738095Y14178572D01*
X28928571Y14178572D01*
X29023809Y14226191D01*
X29071428Y14273810D01*
X29119047Y14369048D01*
%TO.C,LED20*%
X6404761Y16497620D02*
X5928571Y16497620D01*
X5928571Y17497620D01*
X6738095Y17021429D02*
X7071428Y17021429D01*
X7214285Y16497620D02*
X6738095Y16497620D01*
X6738095Y17497620D01*
X7214285Y17497620D01*
X7642857Y16497620D02*
X7642857Y17497620D01*
X7880952Y17497620D01*
X8023809Y17450000D01*
X8119047Y17354762D01*
X8166666Y17259524D01*
X8214285Y17069048D01*
X8214285Y16926191D01*
X8166666Y16735715D01*
X8119047Y16640477D01*
X8023809Y16545239D01*
X7880952Y16497620D01*
X7642857Y16497620D01*
X8595238Y17402381D02*
X8642857Y17450000D01*
X8738095Y17497620D01*
X8976190Y17497620D01*
X9071428Y17450000D01*
X9119047Y17402381D01*
X9166666Y17307143D01*
X9166666Y17211905D01*
X9119047Y17069048D01*
X8547619Y16497620D01*
X9166666Y16497620D01*
X9785714Y17497620D02*
X9880952Y17497620D01*
X9976190Y17450000D01*
X10023809Y17402381D01*
X10071428Y17307143D01*
X10119047Y17116667D01*
X10119047Y16878572D01*
X10071428Y16688096D01*
X10023809Y16592858D01*
X9976190Y16545239D01*
X9880952Y16497620D01*
X9785714Y16497620D01*
X9690476Y16545239D01*
X9642857Y16592858D01*
X9595238Y16688096D01*
X9547619Y16878572D01*
X9547619Y17116667D01*
X9595238Y17307143D01*
X9642857Y17402381D01*
X9690476Y17450000D01*
X9785714Y17497620D01*
%TO.C,R2*%
X344833333Y15247620D02*
X344500000Y15723810D01*
X344261904Y15247620D02*
X344261904Y16247620D01*
X344642857Y16247620D01*
X344738095Y16200000D01*
X344785714Y16152381D01*
X344833333Y16057143D01*
X344833333Y15914286D01*
X344785714Y15819048D01*
X344738095Y15771429D01*
X344642857Y15723810D01*
X344261904Y15723810D01*
X345214285Y16152381D02*
X345261904Y16200000D01*
X345357142Y16247620D01*
X345595238Y16247620D01*
X345690476Y16200000D01*
X345738095Y16152381D01*
X345785714Y16057143D01*
X345785714Y15961905D01*
X345738095Y15819048D01*
X345166666Y15247620D01*
X345785714Y15247620D01*
%TO.C,R3*%
X325833333Y15247620D02*
X325500000Y15723810D01*
X325261904Y15247620D02*
X325261904Y16247620D01*
X325642857Y16247620D01*
X325738095Y16200000D01*
X325785714Y16152381D01*
X325833333Y16057143D01*
X325833333Y15914286D01*
X325785714Y15819048D01*
X325738095Y15771429D01*
X325642857Y15723810D01*
X325261904Y15723810D01*
X326166666Y16247620D02*
X326785714Y16247620D01*
X326452380Y15866667D01*
X326595238Y15866667D01*
X326690476Y15819048D01*
X326738095Y15771429D01*
X326785714Y15676191D01*
X326785714Y15438096D01*
X326738095Y15342858D01*
X326690476Y15295239D01*
X326595238Y15247620D01*
X326309523Y15247620D01*
X326214285Y15295239D01*
X326166666Y15342858D01*
%TO.C,R4*%
X306833333Y15247620D02*
X306500000Y15723810D01*
X306261904Y15247620D02*
X306261904Y16247620D01*
X306642857Y16247620D01*
X306738095Y16200000D01*
X306785714Y16152381D01*
X306833333Y16057143D01*
X306833333Y15914286D01*
X306785714Y15819048D01*
X306738095Y15771429D01*
X306642857Y15723810D01*
X306261904Y15723810D01*
X307690476Y15914286D02*
X307690476Y15247620D01*
X307452380Y16295239D02*
X307214285Y15580953D01*
X307833333Y15580953D01*
%TO.C,R5*%
X287833333Y15247620D02*
X287500000Y15723810D01*
X287261904Y15247620D02*
X287261904Y16247620D01*
X287642857Y16247620D01*
X287738095Y16200000D01*
X287785714Y16152381D01*
X287833333Y16057143D01*
X287833333Y15914286D01*
X287785714Y15819048D01*
X287738095Y15771429D01*
X287642857Y15723810D01*
X287261904Y15723810D01*
X288738095Y16247620D02*
X288261904Y16247620D01*
X288214285Y15771429D01*
X288261904Y15819048D01*
X288357142Y15866667D01*
X288595238Y15866667D01*
X288690476Y15819048D01*
X288738095Y15771429D01*
X288785714Y15676191D01*
X288785714Y15438096D01*
X288738095Y15342858D01*
X288690476Y15295239D01*
X288595238Y15247620D01*
X288357142Y15247620D01*
X288261904Y15295239D01*
X288214285Y15342858D01*
%TO.C,R6*%
X268833333Y15247620D02*
X268500000Y15723810D01*
X268261904Y15247620D02*
X268261904Y16247620D01*
X268642857Y16247620D01*
X268738095Y16200000D01*
X268785714Y16152381D01*
X268833333Y16057143D01*
X268833333Y15914286D01*
X268785714Y15819048D01*
X268738095Y15771429D01*
X268642857Y15723810D01*
X268261904Y15723810D01*
X269690476Y16247620D02*
X269500000Y16247620D01*
X269404761Y16200000D01*
X269357142Y16152381D01*
X269261904Y16009524D01*
X269214285Y15819048D01*
X269214285Y15438096D01*
X269261904Y15342858D01*
X269309523Y15295239D01*
X269404761Y15247620D01*
X269595238Y15247620D01*
X269690476Y15295239D01*
X269738095Y15342858D01*
X269785714Y15438096D01*
X269785714Y15676191D01*
X269738095Y15771429D01*
X269690476Y15819048D01*
X269595238Y15866667D01*
X269404761Y15866667D01*
X269309523Y15819048D01*
X269261904Y15771429D01*
X269214285Y15676191D01*
%TO.C,R7*%
X249833333Y15247620D02*
X249500000Y15723810D01*
X249261904Y15247620D02*
X249261904Y16247620D01*
X249642857Y16247620D01*
X249738095Y16200000D01*
X249785714Y16152381D01*
X249833333Y16057143D01*
X249833333Y15914286D01*
X249785714Y15819048D01*
X249738095Y15771429D01*
X249642857Y15723810D01*
X249261904Y15723810D01*
X250166666Y16247620D02*
X250833333Y16247620D01*
X250404761Y15247620D01*
%TO.C,R9*%
X211833333Y15247620D02*
X211500000Y15723810D01*
X211261904Y15247620D02*
X211261904Y16247620D01*
X211642857Y16247620D01*
X211738095Y16200000D01*
X211785714Y16152381D01*
X211833333Y16057143D01*
X211833333Y15914286D01*
X211785714Y15819048D01*
X211738095Y15771429D01*
X211642857Y15723810D01*
X211261904Y15723810D01*
X212309523Y15247620D02*
X212500000Y15247620D01*
X212595238Y15295239D01*
X212642857Y15342858D01*
X212738095Y15485715D01*
X212785714Y15676191D01*
X212785714Y16057143D01*
X212738095Y16152381D01*
X212690476Y16200000D01*
X212595238Y16247620D01*
X212404761Y16247620D01*
X212309523Y16200000D01*
X212261904Y16152381D01*
X212214285Y16057143D01*
X212214285Y15819048D01*
X212261904Y15723810D01*
X212309523Y15676191D01*
X212404761Y15628572D01*
X212595238Y15628572D01*
X212690476Y15676191D01*
X212738095Y15723810D01*
X212785714Y15819048D01*
%TO.C,R10*%
X192357142Y15247620D02*
X192023809Y15723810D01*
X191785714Y15247620D02*
X191785714Y16247620D01*
X192166666Y16247620D01*
X192261904Y16200000D01*
X192309523Y16152381D01*
X192357142Y16057143D01*
X192357142Y15914286D01*
X192309523Y15819048D01*
X192261904Y15771429D01*
X192166666Y15723810D01*
X191785714Y15723810D01*
X193309523Y15247620D02*
X192738095Y15247620D01*
X193023809Y15247620D02*
X193023809Y16247620D01*
X192928571Y16104762D01*
X192833333Y16009524D01*
X192738095Y15961905D01*
X193928571Y16247620D02*
X194023809Y16247620D01*
X194119047Y16200000D01*
X194166666Y16152381D01*
X194214285Y16057143D01*
X194261904Y15866667D01*
X194261904Y15628572D01*
X194214285Y15438096D01*
X194166666Y15342858D01*
X194119047Y15295239D01*
X194023809Y15247620D01*
X193928571Y15247620D01*
X193833333Y15295239D01*
X193785714Y15342858D01*
X193738095Y15438096D01*
X193690476Y15628572D01*
X193690476Y15866667D01*
X193738095Y16057143D01*
X193785714Y16152381D01*
X193833333Y16200000D01*
X193928571Y16247620D01*
%TO.C,R11*%
X173357142Y15247620D02*
X173023809Y15723810D01*
X172785714Y15247620D02*
X172785714Y16247620D01*
X173166666Y16247620D01*
X173261904Y16200000D01*
X173309523Y16152381D01*
X173357142Y16057143D01*
X173357142Y15914286D01*
X173309523Y15819048D01*
X173261904Y15771429D01*
X173166666Y15723810D01*
X172785714Y15723810D01*
X174309523Y15247620D02*
X173738095Y15247620D01*
X174023809Y15247620D02*
X174023809Y16247620D01*
X173928571Y16104762D01*
X173833333Y16009524D01*
X173738095Y15961905D01*
X175261904Y15247620D02*
X174690476Y15247620D01*
X174976190Y15247620D02*
X174976190Y16247620D01*
X174880952Y16104762D01*
X174785714Y16009524D01*
X174690476Y15961905D01*
%TO.C,R12*%
X154357142Y15247620D02*
X154023809Y15723810D01*
X153785714Y15247620D02*
X153785714Y16247620D01*
X154166666Y16247620D01*
X154261904Y16200000D01*
X154309523Y16152381D01*
X154357142Y16057143D01*
X154357142Y15914286D01*
X154309523Y15819048D01*
X154261904Y15771429D01*
X154166666Y15723810D01*
X153785714Y15723810D01*
X155309523Y15247620D02*
X154738095Y15247620D01*
X155023809Y15247620D02*
X155023809Y16247620D01*
X154928571Y16104762D01*
X154833333Y16009524D01*
X154738095Y15961905D01*
X155690476Y16152381D02*
X155738095Y16200000D01*
X155833333Y16247620D01*
X156071428Y16247620D01*
X156166666Y16200000D01*
X156214285Y16152381D01*
X156261904Y16057143D01*
X156261904Y15961905D01*
X156214285Y15819048D01*
X155642857Y15247620D01*
X156261904Y15247620D01*
%TO.C,R13*%
X135357142Y15247620D02*
X135023809Y15723810D01*
X134785714Y15247620D02*
X134785714Y16247620D01*
X135166666Y16247620D01*
X135261904Y16200000D01*
X135309523Y16152381D01*
X135357142Y16057143D01*
X135357142Y15914286D01*
X135309523Y15819048D01*
X135261904Y15771429D01*
X135166666Y15723810D01*
X134785714Y15723810D01*
X136309523Y15247620D02*
X135738095Y15247620D01*
X136023809Y15247620D02*
X136023809Y16247620D01*
X135928571Y16104762D01*
X135833333Y16009524D01*
X135738095Y15961905D01*
X136642857Y16247620D02*
X137261904Y16247620D01*
X136928571Y15866667D01*
X137071428Y15866667D01*
X137166666Y15819048D01*
X137214285Y15771429D01*
X137261904Y15676191D01*
X137261904Y15438096D01*
X137214285Y15342858D01*
X137166666Y15295239D01*
X137071428Y15247620D01*
X136785714Y15247620D01*
X136690476Y15295239D01*
X136642857Y15342858D01*
%TO.C,R14*%
X116357142Y15247620D02*
X116023809Y15723810D01*
X115785714Y15247620D02*
X115785714Y16247620D01*
X116166666Y16247620D01*
X116261904Y16200000D01*
X116309523Y16152381D01*
X116357142Y16057143D01*
X116357142Y15914286D01*
X116309523Y15819048D01*
X116261904Y15771429D01*
X116166666Y15723810D01*
X115785714Y15723810D01*
X117309523Y15247620D02*
X116738095Y15247620D01*
X117023809Y15247620D02*
X117023809Y16247620D01*
X116928571Y16104762D01*
X116833333Y16009524D01*
X116738095Y15961905D01*
X118166666Y15914286D02*
X118166666Y15247620D01*
X117928571Y16295239D02*
X117690476Y15580953D01*
X118309523Y15580953D01*
%TO.C,R15*%
X104857142Y8947620D02*
X104523809Y9423810D01*
X104285714Y8947620D02*
X104285714Y9947620D01*
X104666666Y9947620D01*
X104761904Y9900000D01*
X104809523Y9852381D01*
X104857142Y9757143D01*
X104857142Y9614286D01*
X104809523Y9519048D01*
X104761904Y9471429D01*
X104666666Y9423810D01*
X104285714Y9423810D01*
X105809523Y8947620D02*
X105238095Y8947620D01*
X105523809Y8947620D02*
X105523809Y9947620D01*
X105428571Y9804762D01*
X105333333Y9709524D01*
X105238095Y9661905D01*
X106714285Y9947620D02*
X106238095Y9947620D01*
X106190476Y9471429D01*
X106238095Y9519048D01*
X106333333Y9566667D01*
X106571428Y9566667D01*
X106666666Y9519048D01*
X106714285Y9471429D01*
X106761904Y9376191D01*
X106761904Y9138096D01*
X106714285Y9042858D01*
X106666666Y8995239D01*
X106571428Y8947620D01*
X106333333Y8947620D01*
X106238095Y8995239D01*
X106190476Y9042858D01*
%TO.C,R16*%
X80557142Y8947620D02*
X80223809Y9423810D01*
X79985714Y8947620D02*
X79985714Y9947620D01*
X80366666Y9947620D01*
X80461904Y9900000D01*
X80509523Y9852381D01*
X80557142Y9757143D01*
X80557142Y9614286D01*
X80509523Y9519048D01*
X80461904Y9471429D01*
X80366666Y9423810D01*
X79985714Y9423810D01*
X81509523Y8947620D02*
X80938095Y8947620D01*
X81223809Y8947620D02*
X81223809Y9947620D01*
X81128571Y9804762D01*
X81033333Y9709524D01*
X80938095Y9661905D01*
X82366666Y9947620D02*
X82176190Y9947620D01*
X82080952Y9900000D01*
X82033333Y9852381D01*
X81938095Y9709524D01*
X81890476Y9519048D01*
X81890476Y9138096D01*
X81938095Y9042858D01*
X81985714Y8995239D01*
X82080952Y8947620D01*
X82271428Y8947620D01*
X82366666Y8995239D01*
X82414285Y9042858D01*
X82461904Y9138096D01*
X82461904Y9376191D01*
X82414285Y9471429D01*
X82366666Y9519048D01*
X82271428Y9566667D01*
X82080952Y9566667D01*
X81985714Y9519048D01*
X81938095Y9471429D01*
X81890476Y9376191D01*
%TO.C,R17*%
X59357142Y15247620D02*
X59023809Y15723810D01*
X58785714Y15247620D02*
X58785714Y16247620D01*
X59166666Y16247620D01*
X59261904Y16200000D01*
X59309523Y16152381D01*
X59357142Y16057143D01*
X59357142Y15914286D01*
X59309523Y15819048D01*
X59261904Y15771429D01*
X59166666Y15723810D01*
X58785714Y15723810D01*
X60309523Y15247620D02*
X59738095Y15247620D01*
X60023809Y15247620D02*
X60023809Y16247620D01*
X59928571Y16104762D01*
X59833333Y16009524D01*
X59738095Y15961905D01*
X60642857Y16247620D02*
X61309523Y16247620D01*
X60880952Y15247620D01*
%TO.C,R18*%
X40357142Y15247620D02*
X40023809Y15723810D01*
X39785714Y15247620D02*
X39785714Y16247620D01*
X40166666Y16247620D01*
X40261904Y16200000D01*
X40309523Y16152381D01*
X40357142Y16057143D01*
X40357142Y15914286D01*
X40309523Y15819048D01*
X40261904Y15771429D01*
X40166666Y15723810D01*
X39785714Y15723810D01*
X41309523Y15247620D02*
X40738095Y15247620D01*
X41023809Y15247620D02*
X41023809Y16247620D01*
X40928571Y16104762D01*
X40833333Y16009524D01*
X40738095Y15961905D01*
X41880952Y15819048D02*
X41785714Y15866667D01*
X41738095Y15914286D01*
X41690476Y16009524D01*
X41690476Y16057143D01*
X41738095Y16152381D01*
X41785714Y16200000D01*
X41880952Y16247620D01*
X42071428Y16247620D01*
X42166666Y16200000D01*
X42214285Y16152381D01*
X42261904Y16057143D01*
X42261904Y16009524D01*
X42214285Y15914286D01*
X42166666Y15866667D01*
X42071428Y15819048D01*
X41880952Y15819048D01*
X41785714Y15771429D01*
X41738095Y15723810D01*
X41690476Y15628572D01*
X41690476Y15438096D01*
X41738095Y15342858D01*
X41785714Y15295239D01*
X41880952Y15247620D01*
X42071428Y15247620D01*
X42166666Y15295239D01*
X42214285Y15342858D01*
X42261904Y15438096D01*
X42261904Y15628572D01*
X42214285Y15723810D01*
X42166666Y15771429D01*
X42071428Y15819048D01*
%TO.C,R19*%
X21357142Y15247620D02*
X21023809Y15723810D01*
X20785714Y15247620D02*
X20785714Y16247620D01*
X21166666Y16247620D01*
X21261904Y16200000D01*
X21309523Y16152381D01*
X21357142Y16057143D01*
X21357142Y15914286D01*
X21309523Y15819048D01*
X21261904Y15771429D01*
X21166666Y15723810D01*
X20785714Y15723810D01*
X22309523Y15247620D02*
X21738095Y15247620D01*
X22023809Y15247620D02*
X22023809Y16247620D01*
X21928571Y16104762D01*
X21833333Y16009524D01*
X21738095Y15961905D01*
X22785714Y15247620D02*
X22976190Y15247620D01*
X23071428Y15295239D01*
X23119047Y15342858D01*
X23214285Y15485715D01*
X23261904Y15676191D01*
X23261904Y16057143D01*
X23214285Y16152381D01*
X23166666Y16200000D01*
X23071428Y16247620D01*
X22880952Y16247620D01*
X22785714Y16200000D01*
X22738095Y16152381D01*
X22690476Y16057143D01*
X22690476Y15819048D01*
X22738095Y15723810D01*
X22785714Y15676191D01*
X22880952Y15628572D01*
X23071428Y15628572D01*
X23166666Y15676191D01*
X23214285Y15723810D01*
X23261904Y15819048D01*
%TO.C,R20*%
X2357142Y15247620D02*
X2023809Y15723810D01*
X1785714Y15247620D02*
X1785714Y16247620D01*
X2166666Y16247620D01*
X2261904Y16200000D01*
X2309523Y16152381D01*
X2357142Y16057143D01*
X2357142Y15914286D01*
X2309523Y15819048D01*
X2261904Y15771429D01*
X2166666Y15723810D01*
X1785714Y15723810D01*
X2738095Y16152381D02*
X2785714Y16200000D01*
X2880952Y16247620D01*
X3119047Y16247620D01*
X3214285Y16200000D01*
X3261904Y16152381D01*
X3309523Y16057143D01*
X3309523Y15961905D01*
X3261904Y15819048D01*
X2690476Y15247620D01*
X3309523Y15247620D01*
X3928571Y16247620D02*
X4023809Y16247620D01*
X4119047Y16200000D01*
X4166666Y16152381D01*
X4214285Y16057143D01*
X4261904Y15866667D01*
X4261904Y15628572D01*
X4214285Y15438096D01*
X4166666Y15342858D01*
X4119047Y15295239D01*
X4023809Y15247620D01*
X3928571Y15247620D01*
X3833333Y15295239D01*
X3785714Y15342858D01*
X3738095Y15438096D01*
X3690476Y15628572D01*
X3690476Y15866667D01*
X3738095Y16057143D01*
X3785714Y16152381D01*
X3833333Y16200000D01*
X3928571Y16247620D01*
%TO.C,C2*%
X14133333Y10842858D02*
X14085714Y10795239D01*
X13942857Y10747620D01*
X13847619Y10747620D01*
X13704761Y10795239D01*
X13609523Y10890477D01*
X13561904Y10985715D01*
X13514285Y11176191D01*
X13514285Y11319048D01*
X13561904Y11509524D01*
X13609523Y11604762D01*
X13704761Y11700000D01*
X13847619Y11747620D01*
X13942857Y11747620D01*
X14085714Y11700000D01*
X14133333Y11652381D01*
X14514285Y11652381D02*
X14561904Y11700000D01*
X14657142Y11747620D01*
X14895238Y11747620D01*
X14990476Y11700000D01*
X15038095Y11652381D01*
X15085714Y11557143D01*
X15085714Y11461905D01*
X15038095Y11319048D01*
X14466666Y10747620D01*
X15085714Y10747620D01*
%TO.C,D1*%
X33552380Y9261905D02*
X32552380Y9261905D01*
X32552380Y9500000D01*
X32600000Y9642858D01*
X32695238Y9738096D01*
X32790476Y9785715D01*
X32980952Y9833334D01*
X33123809Y9833334D01*
X33314285Y9785715D01*
X33409523Y9738096D01*
X33504761Y9642858D01*
X33552380Y9500000D01*
X33552380Y9261905D01*
X33552380Y10785715D02*
X33552380Y10214286D01*
X33552380Y10500000D02*
X32552380Y10500000D01*
X32695238Y10404762D01*
X32790476Y10309524D01*
X32838095Y10214286D01*
%TO.C,J22*%
X36190476Y15877620D02*
X36190476Y15163334D01*
X36142857Y15020477D01*
X36047619Y14925239D01*
X35904761Y14877620D01*
X35809523Y14877620D01*
X36619047Y15782381D02*
X36666666Y15830000D01*
X36761904Y15877620D01*
X37000000Y15877620D01*
X37095238Y15830000D01*
X37142857Y15782381D01*
X37190476Y15687143D01*
X37190476Y15591905D01*
X37142857Y15449048D01*
X36571428Y14877620D01*
X37190476Y14877620D01*
X37571428Y15782381D02*
X37619047Y15830000D01*
X37714285Y15877620D01*
X37952380Y15877620D01*
X38047619Y15830000D01*
X38095238Y15782381D01*
X38142857Y15687143D01*
X38142857Y15591905D01*
X38095238Y15449048D01*
X37523809Y14877620D01*
X38142857Y14877620D01*
%TO.C,J23*%
X36190476Y8267620D02*
X36190476Y7553334D01*
X36142857Y7410477D01*
X36047619Y7315239D01*
X35904761Y7267620D01*
X35809523Y7267620D01*
X36619047Y8172381D02*
X36666666Y8220000D01*
X36761904Y8267620D01*
X37000000Y8267620D01*
X37095238Y8220000D01*
X37142857Y8172381D01*
X37190476Y8077143D01*
X37190476Y7981905D01*
X37142857Y7839048D01*
X36571428Y7267620D01*
X37190476Y7267620D01*
X37523809Y8267620D02*
X38142857Y8267620D01*
X37809523Y7886667D01*
X37952380Y7886667D01*
X38047619Y7839048D01*
X38095238Y7791429D01*
X38142857Y7696191D01*
X38142857Y7458096D01*
X38095238Y7362858D01*
X38047619Y7315239D01*
X37952380Y7267620D01*
X37666666Y7267620D01*
X37571428Y7315239D01*
X37523809Y7362858D01*
%TO.C,R26*%
X53627142Y14547620D02*
X53293809Y15023810D01*
X53055714Y14547620D02*
X53055714Y15547620D01*
X53436666Y15547620D01*
X53531904Y15500000D01*
X53579523Y15452381D01*
X53627142Y15357143D01*
X53627142Y15214286D01*
X53579523Y15119048D01*
X53531904Y15071429D01*
X53436666Y15023810D01*
X53055714Y15023810D01*
X54008095Y15452381D02*
X54055714Y15500000D01*
X54150952Y15547620D01*
X54389047Y15547620D01*
X54484285Y15500000D01*
X54531904Y15452381D01*
X54579523Y15357143D01*
X54579523Y15261905D01*
X54531904Y15119048D01*
X53960476Y14547620D01*
X54579523Y14547620D01*
X55436666Y15547620D02*
X55246190Y15547620D01*
X55150952Y15500000D01*
X55103333Y15452381D01*
X55008095Y15309524D01*
X54960476Y15119048D01*
X54960476Y14738096D01*
X55008095Y14642858D01*
X55055714Y14595239D01*
X55150952Y14547620D01*
X55341428Y14547620D01*
X55436666Y14595239D01*
X55484285Y14642858D01*
X55531904Y14738096D01*
X55531904Y14976191D01*
X55484285Y15071429D01*
X55436666Y15119048D01*
X55341428Y15166667D01*
X55150952Y15166667D01*
X55055714Y15119048D01*
X55008095Y15071429D01*
X54960476Y14976191D01*
%TO.C,R27*%
X15627142Y14547620D02*
X15293809Y15023810D01*
X15055714Y14547620D02*
X15055714Y15547620D01*
X15436666Y15547620D01*
X15531904Y15500000D01*
X15579523Y15452381D01*
X15627142Y15357143D01*
X15627142Y15214286D01*
X15579523Y15119048D01*
X15531904Y15071429D01*
X15436666Y15023810D01*
X15055714Y15023810D01*
X16008095Y15452381D02*
X16055714Y15500000D01*
X16150952Y15547620D01*
X16389047Y15547620D01*
X16484285Y15500000D01*
X16531904Y15452381D01*
X16579523Y15357143D01*
X16579523Y15261905D01*
X16531904Y15119048D01*
X15960476Y14547620D01*
X16579523Y14547620D01*
X16912857Y15547620D02*
X17579523Y15547620D01*
X17150952Y14547620D01*
%TO.C,C3*%
X110233333Y9942858D02*
X110185714Y9895239D01*
X110042857Y9847620D01*
X109947619Y9847620D01*
X109804761Y9895239D01*
X109709523Y9990477D01*
X109661904Y10085715D01*
X109614285Y10276191D01*
X109614285Y10419048D01*
X109661904Y10609524D01*
X109709523Y10704762D01*
X109804761Y10800000D01*
X109947619Y10847620D01*
X110042857Y10847620D01*
X110185714Y10800000D01*
X110233333Y10752381D01*
X110566666Y10847620D02*
X111185714Y10847620D01*
X110852380Y10466667D01*
X110995238Y10466667D01*
X111090476Y10419048D01*
X111138095Y10371429D01*
X111185714Y10276191D01*
X111185714Y10038096D01*
X111138095Y9942858D01*
X111090476Y9895239D01*
X110995238Y9847620D01*
X110709523Y9847620D01*
X110614285Y9895239D01*
X110566666Y9942858D01*
%TO.C,C4*%
X92908333Y3367858D02*
X92860714Y3320239D01*
X92717857Y3272620D01*
X92622619Y3272620D01*
X92479761Y3320239D01*
X92384523Y3415477D01*
X92336904Y3510715D01*
X92289285Y3701191D01*
X92289285Y3844048D01*
X92336904Y4034524D01*
X92384523Y4129762D01*
X92479761Y4225000D01*
X92622619Y4272620D01*
X92717857Y4272620D01*
X92860714Y4225000D01*
X92908333Y4177381D01*
X93765476Y3939286D02*
X93765476Y3272620D01*
X93527380Y4320239D02*
X93289285Y3605953D01*
X93908333Y3605953D01*
%TO.C,J24*%
X70590476Y4547620D02*
X70590476Y3833334D01*
X70542857Y3690477D01*
X70447619Y3595239D01*
X70304761Y3547620D01*
X70209523Y3547620D01*
X71019047Y4452381D02*
X71066666Y4500000D01*
X71161904Y4547620D01*
X71400000Y4547620D01*
X71495238Y4500000D01*
X71542857Y4452381D01*
X71590476Y4357143D01*
X71590476Y4261905D01*
X71542857Y4119048D01*
X70971428Y3547620D01*
X71590476Y3547620D01*
X72447619Y4214286D02*
X72447619Y3547620D01*
X72209523Y4595239D02*
X71971428Y3880953D01*
X72590476Y3880953D01*
%TO.C,J25*%
X70590476Y8647620D02*
X70590476Y7933334D01*
X70542857Y7790477D01*
X70447619Y7695239D01*
X70304761Y7647620D01*
X70209523Y7647620D01*
X71019047Y8552381D02*
X71066666Y8600000D01*
X71161904Y8647620D01*
X71400000Y8647620D01*
X71495238Y8600000D01*
X71542857Y8552381D01*
X71590476Y8457143D01*
X71590476Y8361905D01*
X71542857Y8219048D01*
X70971428Y7647620D01*
X71590476Y7647620D01*
X72495238Y8647620D02*
X72019047Y8647620D01*
X71971428Y8171429D01*
X72019047Y8219048D01*
X72114285Y8266667D01*
X72352380Y8266667D01*
X72447619Y8219048D01*
X72495238Y8171429D01*
X72542857Y8076191D01*
X72542857Y7838096D01*
X72495238Y7742858D01*
X72447619Y7695239D01*
X72352380Y7647620D01*
X72114285Y7647620D01*
X72019047Y7695239D01*
X71971428Y7742858D01*
%TO.C,J26*%
X74640476Y14747620D02*
X74640476Y14033334D01*
X74592857Y13890477D01*
X74497619Y13795239D01*
X74354761Y13747620D01*
X74259523Y13747620D01*
X75069047Y14652381D02*
X75116666Y14700000D01*
X75211904Y14747620D01*
X75450000Y14747620D01*
X75545238Y14700000D01*
X75592857Y14652381D01*
X75640476Y14557143D01*
X75640476Y14461905D01*
X75592857Y14319048D01*
X75021428Y13747620D01*
X75640476Y13747620D01*
X76497619Y14747620D02*
X76307142Y14747620D01*
X76211904Y14700000D01*
X76164285Y14652381D01*
X76069047Y14509524D01*
X76021428Y14319048D01*
X76021428Y13938096D01*
X76069047Y13842858D01*
X76116666Y13795239D01*
X76211904Y13747620D01*
X76402380Y13747620D01*
X76497619Y13795239D01*
X76545238Y13842858D01*
X76592857Y13938096D01*
X76592857Y14176191D01*
X76545238Y14271429D01*
X76497619Y14319048D01*
X76402380Y14366667D01*
X76211904Y14366667D01*
X76116666Y14319048D01*
X76069047Y14271429D01*
X76021428Y14176191D01*
%TO.C,J27*%
X74590476Y11347620D02*
X74590476Y10633334D01*
X74542857Y10490477D01*
X74447619Y10395239D01*
X74304761Y10347620D01*
X74209523Y10347620D01*
X75019047Y11252381D02*
X75066666Y11300000D01*
X75161904Y11347620D01*
X75400000Y11347620D01*
X75495238Y11300000D01*
X75542857Y11252381D01*
X75590476Y11157143D01*
X75590476Y11061905D01*
X75542857Y10919048D01*
X74971428Y10347620D01*
X75590476Y10347620D01*
X75923809Y11347620D02*
X76590476Y11347620D01*
X76161904Y10347620D01*
%TO.C,R28*%
X111557142Y15147620D02*
X111223809Y15623810D01*
X110985714Y15147620D02*
X110985714Y16147620D01*
X111366666Y16147620D01*
X111461904Y16100000D01*
X111509523Y16052381D01*
X111557142Y15957143D01*
X111557142Y15814286D01*
X111509523Y15719048D01*
X111461904Y15671429D01*
X111366666Y15623810D01*
X110985714Y15623810D01*
X111938095Y16052381D02*
X111985714Y16100000D01*
X112080952Y16147620D01*
X112319047Y16147620D01*
X112414285Y16100000D01*
X112461904Y16052381D01*
X112509523Y15957143D01*
X112509523Y15861905D01*
X112461904Y15719048D01*
X111890476Y15147620D01*
X112509523Y15147620D01*
X113080952Y15719048D02*
X112985714Y15766667D01*
X112938095Y15814286D01*
X112890476Y15909524D01*
X112890476Y15957143D01*
X112938095Y16052381D01*
X112985714Y16100000D01*
X113080952Y16147620D01*
X113271428Y16147620D01*
X113366666Y16100000D01*
X113414285Y16052381D01*
X113461904Y15957143D01*
X113461904Y15909524D01*
X113414285Y15814286D01*
X113366666Y15766667D01*
X113271428Y15719048D01*
X113080952Y15719048D01*
X112985714Y15671429D01*
X112938095Y15623810D01*
X112890476Y15528572D01*
X112890476Y15338096D01*
X112938095Y15242858D01*
X112985714Y15195239D01*
X113080952Y15147620D01*
X113271428Y15147620D01*
X113366666Y15195239D01*
X113414285Y15242858D01*
X113461904Y15338096D01*
X113461904Y15528572D01*
X113414285Y15623810D01*
X113366666Y15671429D01*
X113271428Y15719048D01*
%TO.C,R29*%
X88692380Y5807143D02*
X88216190Y5473810D01*
X88692380Y5235715D02*
X87692380Y5235715D01*
X87692380Y5616667D01*
X87740000Y5711905D01*
X87787619Y5759524D01*
X87882857Y5807143D01*
X88025714Y5807143D01*
X88120952Y5759524D01*
X88168571Y5711905D01*
X88216190Y5616667D01*
X88216190Y5235715D01*
X87787619Y6188096D02*
X87740000Y6235715D01*
X87692380Y6330953D01*
X87692380Y6569048D01*
X87740000Y6664286D01*
X87787619Y6711905D01*
X87882857Y6759524D01*
X87978095Y6759524D01*
X88120952Y6711905D01*
X88692380Y6140477D01*
X88692380Y6759524D01*
X88692380Y7235715D02*
X88692380Y7426191D01*
X88644761Y7521429D01*
X88597142Y7569048D01*
X88454285Y7664286D01*
X88263809Y7711905D01*
X87882857Y7711905D01*
X87787619Y7664286D01*
X87740000Y7616667D01*
X87692380Y7521429D01*
X87692380Y7330953D01*
X87740000Y7235715D01*
X87787619Y7188096D01*
X87882857Y7140477D01*
X88120952Y7140477D01*
X88216190Y7188096D01*
X88263809Y7235715D01*
X88311428Y7330953D01*
X88311428Y7521429D01*
X88263809Y7616667D01*
X88216190Y7664286D01*
X88120952Y7711905D01*
%TO.C,U2*%
X92263095Y13722620D02*
X92263095Y12913096D01*
X92310714Y12817858D01*
X92358333Y12770239D01*
X92453571Y12722620D01*
X92644047Y12722620D01*
X92739285Y12770239D01*
X92786904Y12817858D01*
X92834523Y12913096D01*
X92834523Y13722620D01*
X93263095Y13627381D02*
X93310714Y13675000D01*
X93405952Y13722620D01*
X93644047Y13722620D01*
X93739285Y13675000D01*
X93786904Y13627381D01*
X93834523Y13532143D01*
X93834523Y13436905D01*
X93786904Y13294048D01*
X93215476Y12722620D01*
X93834523Y12722620D01*
%TO.C,U3*%
X70927380Y13363096D02*
X71736904Y13363096D01*
X71832142Y13410715D01*
X71879761Y13458334D01*
X71927380Y13553572D01*
X71927380Y13744048D01*
X71879761Y13839286D01*
X71832142Y13886905D01*
X71736904Y13934524D01*
X70927380Y13934524D01*
X70927380Y14315477D02*
X70927380Y14934524D01*
X71308333Y14601191D01*
X71308333Y14744048D01*
X71355952Y14839286D01*
X71403571Y14886905D01*
X71498809Y14934524D01*
X71736904Y14934524D01*
X71832142Y14886905D01*
X71879761Y14839286D01*
X71927380Y14744048D01*
X71927380Y14458334D01*
X71879761Y14363096D01*
X71832142Y14315477D01*
%TD*%
M02*
