%FSLAX45Y45*%
G04 Gerber Fmt 4.5, Leading zero omitted, Abs format (unit mm)*
G04 Created by KiCad (PCBNEW (5.1.5)-3) date 2020-03-21 19:40:14*
%MOMM*%
%LPD*%
G04 APERTURE LIST*
%TA.AperFunction,Profile*%
%ADD10C,0.200000*%
%TD*%
%ADD11C,0.200000*%
%ADD12C,0.300000*%
G04 APERTURE END LIST*
D10*
X39000000Y0D02*
X0Y0D01*
X39000000Y2000000D02*
X39000000Y0D01*
X0Y2000000D02*
X39000000Y2000000D01*
X0Y0D02*
X0Y2000000D01*
D11*
X22070000Y1000000D02*
X22130000Y940000D01*
X22130000Y1000000D02*
X22070000Y940000D01*
X30270000Y300000D02*
X30330000Y240000D01*
X30330000Y300000D02*
X30270000Y240000D01*
X36270000Y900000D02*
X36330000Y840000D01*
X36330000Y900000D02*
X36270000Y840000D01*
X19558100Y1270000D02*
G75*
G03X19558100Y1270000I-37500J0D01*
G01*
X19723200Y1270000D02*
G75*
G03X19723200Y1270000I-37500J0D01*
G01*
X19888300Y1270000D02*
G75*
G03X19888300Y1270000I-37500J0D01*
G01*
X20053400Y1270000D02*
G75*
G03X20053400Y1270000I-37500J0D01*
G01*
X21458100Y1270000D02*
G75*
G03X21458100Y1270000I-37500J0D01*
G01*
X21623200Y1270000D02*
G75*
G03X21623200Y1270000I-37500J0D01*
G01*
X21788300Y1270000D02*
G75*
G03X21788300Y1270000I-37500J0D01*
G01*
X21953400Y1270000D02*
G75*
G03X21953400Y1270000I-37500J0D01*
G01*
X13858100Y1270000D02*
G75*
G03X13858100Y1270000I-37500J0D01*
G01*
X14023200Y1270000D02*
G75*
G03X14023200Y1270000I-37500J0D01*
G01*
X14188300Y1270000D02*
G75*
G03X14188300Y1270000I-37500J0D01*
G01*
X14353400Y1270000D02*
G75*
G03X14353400Y1270000I-37500J0D01*
G01*
X32858100Y1270000D02*
G75*
G03X32858100Y1270000I-37500J0D01*
G01*
X33023200Y1270000D02*
G75*
G03X33023200Y1270000I-37500J0D01*
G01*
X33188300Y1270000D02*
G75*
G03X33188300Y1270000I-37500J0D01*
G01*
X33353400Y1270000D02*
G75*
G03X33353400Y1270000I-37500J0D01*
G01*
X6258100Y1270000D02*
G75*
G03X6258100Y1270000I-37500J0D01*
G01*
X6423200Y1270000D02*
G75*
G03X6423200Y1270000I-37500J0D01*
G01*
X6588300Y1270000D02*
G75*
G03X6588300Y1270000I-37500J0D01*
G01*
X6753400Y1270000D02*
G75*
G03X6753400Y1270000I-37500J0D01*
G01*
X23358100Y1270000D02*
G75*
G03X23358100Y1270000I-37500J0D01*
G01*
X23523200Y1270000D02*
G75*
G03X23523200Y1270000I-37500J0D01*
G01*
X23688300Y1270000D02*
G75*
G03X23688300Y1270000I-37500J0D01*
G01*
X23853400Y1270000D02*
G75*
G03X23853400Y1270000I-37500J0D01*
G01*
X15758100Y1270000D02*
G75*
G03X15758100Y1270000I-37500J0D01*
G01*
X15923200Y1270000D02*
G75*
G03X15923200Y1270000I-37500J0D01*
G01*
X16088300Y1270000D02*
G75*
G03X16088300Y1270000I-37500J0D01*
G01*
X16253400Y1270000D02*
G75*
G03X16253400Y1270000I-37500J0D01*
G01*
X11958100Y1270000D02*
G75*
G03X11958100Y1270000I-37500J0D01*
G01*
X12123200Y1270000D02*
G75*
G03X12123200Y1270000I-37500J0D01*
G01*
X12288300Y1270000D02*
G75*
G03X12288300Y1270000I-37500J0D01*
G01*
X12453400Y1270000D02*
G75*
G03X12453400Y1270000I-37500J0D01*
G01*
X25258100Y1270000D02*
G75*
G03X25258100Y1270000I-37500J0D01*
G01*
X25423200Y1270000D02*
G75*
G03X25423200Y1270000I-37500J0D01*
G01*
X25588300Y1270000D02*
G75*
G03X25588300Y1270000I-37500J0D01*
G01*
X25753400Y1270000D02*
G75*
G03X25753400Y1270000I-37500J0D01*
G01*
X558100Y1270000D02*
G75*
G03X558100Y1270000I-37500J0D01*
G01*
X723200Y1270000D02*
G75*
G03X723200Y1270000I-37500J0D01*
G01*
X888300Y1270000D02*
G75*
G03X888300Y1270000I-37500J0D01*
G01*
X1053400Y1270000D02*
G75*
G03X1053400Y1270000I-37500J0D01*
G01*
X34758100Y1270000D02*
G75*
G03X34758100Y1270000I-37500J0D01*
G01*
X34923200Y1270000D02*
G75*
G03X34923200Y1270000I-37500J0D01*
G01*
X35088300Y1270000D02*
G75*
G03X35088300Y1270000I-37500J0D01*
G01*
X35253400Y1270000D02*
G75*
G03X35253400Y1270000I-37500J0D01*
G01*
X10058100Y1270000D02*
G75*
G03X10058100Y1270000I-37500J0D01*
G01*
X10223200Y1270000D02*
G75*
G03X10223200Y1270000I-37500J0D01*
G01*
X10388300Y1270000D02*
G75*
G03X10388300Y1270000I-37500J0D01*
G01*
X10553400Y1270000D02*
G75*
G03X10553400Y1270000I-37500J0D01*
G01*
X30958100Y1270000D02*
G75*
G03X30958100Y1270000I-37500J0D01*
G01*
X31123200Y1270000D02*
G75*
G03X31123200Y1270000I-37500J0D01*
G01*
X31288300Y1270000D02*
G75*
G03X31288300Y1270000I-37500J0D01*
G01*
X31453400Y1270000D02*
G75*
G03X31453400Y1270000I-37500J0D01*
G01*
X4358100Y1270000D02*
G75*
G03X4358100Y1270000I-37500J0D01*
G01*
X4523200Y1270000D02*
G75*
G03X4523200Y1270000I-37500J0D01*
G01*
X4688300Y1270000D02*
G75*
G03X4688300Y1270000I-37500J0D01*
G01*
X4853400Y1270000D02*
G75*
G03X4853400Y1270000I-37500J0D01*
G01*
X17658100Y1270000D02*
G75*
G03X17658100Y1270000I-37500J0D01*
G01*
X17823200Y1270000D02*
G75*
G03X17823200Y1270000I-37500J0D01*
G01*
X17988300Y1270000D02*
G75*
G03X17988300Y1270000I-37500J0D01*
G01*
X18153400Y1270000D02*
G75*
G03X18153400Y1270000I-37500J0D01*
G01*
X27158100Y1270000D02*
G75*
G03X27158100Y1270000I-37500J0D01*
G01*
X27323200Y1270000D02*
G75*
G03X27323200Y1270000I-37500J0D01*
G01*
X27488300Y1270000D02*
G75*
G03X27488300Y1270000I-37500J0D01*
G01*
X27653400Y1270000D02*
G75*
G03X27653400Y1270000I-37500J0D01*
G01*
X8158100Y1270000D02*
G75*
G03X8158100Y1270000I-37500J0D01*
G01*
X8323200Y1270000D02*
G75*
G03X8323200Y1270000I-37500J0D01*
G01*
X8488300Y1270000D02*
G75*
G03X8488300Y1270000I-37500J0D01*
G01*
X8653400Y1270000D02*
G75*
G03X8653400Y1270000I-37500J0D01*
G01*
X2458100Y1270000D02*
G75*
G03X2458100Y1270000I-37500J0D01*
G01*
X2623200Y1270000D02*
G75*
G03X2623200Y1270000I-37500J0D01*
G01*
X2788300Y1270000D02*
G75*
G03X2788300Y1270000I-37500J0D01*
G01*
X2953400Y1270000D02*
G75*
G03X2953400Y1270000I-37500J0D01*
G01*
X29058100Y1270000D02*
G75*
G03X29058100Y1270000I-37500J0D01*
G01*
X29223200Y1270000D02*
G75*
G03X29223200Y1270000I-37500J0D01*
G01*
X29388300Y1270000D02*
G75*
G03X29388300Y1270000I-37500J0D01*
G01*
X29553400Y1270000D02*
G75*
G03X29553400Y1270000I-37500J0D01*
G01*
X36658100Y1270000D02*
G75*
G03X36658100Y1270000I-37500J0D01*
G01*
X36823200Y1270000D02*
G75*
G03X36823200Y1270000I-37500J0D01*
G01*
X36988300Y1270000D02*
G75*
G03X36988300Y1270000I-37500J0D01*
G01*
X37153400Y1270000D02*
G75*
G03X37153400Y1270000I-37500J0D01*
G01*
X33846000Y1710000D02*
X33846000Y1630000D01*
X33806000Y1670000D02*
X33886000Y1670000D01*
X34100000Y1710000D02*
X34100000Y1630000D01*
X34060000Y1670000D02*
X34140000Y1670000D01*
X26246000Y1710000D02*
X26246000Y1630000D01*
X26206000Y1670000D02*
X26286000Y1670000D01*
X26500000Y1710000D02*
X26500000Y1630000D01*
X26460000Y1670000D02*
X26540000Y1670000D01*
X13600000Y1364000D02*
X13600000Y1284000D01*
X13560000Y1324000D02*
X13640000Y1324000D01*
X13600000Y1110000D02*
X13600000Y1030000D01*
X13560000Y1070000D02*
X13640000Y1070000D01*
X30700000Y1364000D02*
X30700000Y1284000D01*
X30660000Y1324000D02*
X30740000Y1324000D01*
X30700000Y1110000D02*
X30700000Y1030000D01*
X30660000Y1070000D02*
X30740000Y1070000D01*
X36400000Y1364000D02*
X36400000Y1284000D01*
X36360000Y1324000D02*
X36440000Y1324000D01*
X36400000Y1110000D02*
X36400000Y1030000D01*
X36360000Y1070000D02*
X36440000Y1070000D01*
X37838000Y1372000D02*
X37838000Y1292000D01*
X37798000Y1332000D02*
X37878000Y1332000D01*
X37838000Y610000D02*
X37838000Y530000D01*
X37798000Y570000D02*
X37878000Y570000D01*
X38092000Y1372000D02*
X38092000Y1292000D01*
X38052000Y1332000D02*
X38132000Y1332000D01*
X38092000Y610000D02*
X38092000Y530000D01*
X38052000Y570000D02*
X38132000Y570000D01*
X38346000Y1372000D02*
X38346000Y1292000D01*
X38306000Y1332000D02*
X38386000Y1332000D01*
X38346000Y610000D02*
X38346000Y530000D01*
X38306000Y570000D02*
X38386000Y570000D01*
X38600000Y1372000D02*
X38600000Y1292000D01*
X38560000Y1332000D02*
X38640000Y1332000D01*
X38600000Y610000D02*
X38600000Y530000D01*
X38560000Y570000D02*
X38640000Y570000D01*
X19300000Y1364000D02*
X19300000Y1284000D01*
X19260000Y1324000D02*
X19340000Y1324000D01*
X19300000Y1110000D02*
X19300000Y1030000D01*
X19260000Y1070000D02*
X19340000Y1070000D01*
X4100000Y1364000D02*
X4100000Y1284000D01*
X4060000Y1324000D02*
X4140000Y1324000D01*
X4100000Y1110000D02*
X4100000Y1030000D01*
X4060000Y1070000D02*
X4140000Y1070000D01*
X21200000Y1364000D02*
X21200000Y1284000D01*
X21160000Y1324000D02*
X21240000Y1324000D01*
X21200000Y1110000D02*
X21200000Y1030000D01*
X21160000Y1070000D02*
X21240000Y1070000D01*
X25000000Y1364000D02*
X25000000Y1284000D01*
X24960000Y1324000D02*
X25040000Y1324000D01*
X25000000Y1110000D02*
X25000000Y1030000D01*
X24960000Y1070000D02*
X25040000Y1070000D01*
X32600000Y1364000D02*
X32600000Y1284000D01*
X32560000Y1324000D02*
X32640000Y1324000D01*
X32600000Y1110000D02*
X32600000Y1030000D01*
X32560000Y1070000D02*
X32640000Y1070000D01*
X28800000Y1364000D02*
X28800000Y1284000D01*
X28760000Y1324000D02*
X28840000Y1324000D01*
X28800000Y1110000D02*
X28800000Y1030000D01*
X28760000Y1070000D02*
X28840000Y1070000D01*
X34500000Y1364000D02*
X34500000Y1284000D01*
X34460000Y1324000D02*
X34540000Y1324000D01*
X34500000Y1110000D02*
X34500000Y1030000D01*
X34460000Y1070000D02*
X34540000Y1070000D01*
X300000Y1364000D02*
X300000Y1284000D01*
X260000Y1324000D02*
X340000Y1324000D01*
X300000Y1110000D02*
X300000Y1030000D01*
X260000Y1070000D02*
X340000Y1070000D01*
X37646000Y1710000D02*
X37646000Y1630000D01*
X37606000Y1670000D02*
X37686000Y1670000D01*
X37900000Y1710000D02*
X37900000Y1630000D01*
X37860000Y1670000D02*
X37940000Y1670000D01*
X23100000Y1364000D02*
X23100000Y1284000D01*
X23060000Y1324000D02*
X23140000Y1324000D01*
X23100000Y1110000D02*
X23100000Y1030000D01*
X23060000Y1070000D02*
X23140000Y1070000D01*
X2200000Y1364000D02*
X2200000Y1284000D01*
X2160000Y1324000D02*
X2240000Y1324000D01*
X2200000Y1110000D02*
X2200000Y1030000D01*
X2160000Y1070000D02*
X2240000Y1070000D01*
X26900000Y1364000D02*
X26900000Y1284000D01*
X26860000Y1324000D02*
X26940000Y1324000D01*
X26900000Y1110000D02*
X26900000Y1030000D01*
X26860000Y1070000D02*
X26940000Y1070000D01*
X17400000Y1364000D02*
X17400000Y1284000D01*
X17360000Y1324000D02*
X17440000Y1324000D01*
X17400000Y1110000D02*
X17400000Y1030000D01*
X17360000Y1070000D02*
X17440000Y1070000D01*
X30046000Y1710000D02*
X30046000Y1630000D01*
X30006000Y1670000D02*
X30086000Y1670000D01*
X30300000Y1710000D02*
X30300000Y1630000D01*
X30260000Y1670000D02*
X30340000Y1670000D01*
X6000000Y1364000D02*
X6000000Y1284000D01*
X5960000Y1324000D02*
X6040000Y1324000D01*
X6000000Y1110000D02*
X6000000Y1030000D01*
X5960000Y1070000D02*
X6040000Y1070000D01*
X7900000Y1364000D02*
X7900000Y1284000D01*
X7860000Y1324000D02*
X7940000Y1324000D01*
X7900000Y1110000D02*
X7900000Y1030000D01*
X7860000Y1070000D02*
X7940000Y1070000D01*
X11700000Y1364000D02*
X11700000Y1284000D01*
X11660000Y1324000D02*
X11740000Y1324000D01*
X11700000Y1110000D02*
X11700000Y1030000D01*
X11660000Y1070000D02*
X11740000Y1070000D01*
X38400000Y310000D02*
X38400000Y230000D01*
X38360000Y270000D02*
X38440000Y270000D01*
X38654000Y310000D02*
X38654000Y230000D01*
X38614000Y270000D02*
X38694000Y270000D01*
X9800000Y1364000D02*
X9800000Y1284000D01*
X9760000Y1324000D02*
X9840000Y1324000D01*
X9800000Y1110000D02*
X9800000Y1030000D01*
X9760000Y1070000D02*
X9840000Y1070000D01*
X15500000Y1364000D02*
X15500000Y1284000D01*
X15460000Y1324000D02*
X15540000Y1324000D01*
X15500000Y1110000D02*
X15500000Y1030000D01*
X15460000Y1070000D02*
X15540000Y1070000D01*
X32835356Y688644D02*
X32835356Y759356D01*
X32764644Y759356D01*
X32764644Y688644D01*
X32835356Y688644D01*
X32835356Y434644D02*
X32835356Y505356D01*
X32764644Y505356D01*
X32764644Y434644D01*
X32835356Y434644D01*
X33089356Y688644D02*
X33089356Y759356D01*
X33018644Y759356D01*
X33018644Y688644D01*
X33089356Y688644D01*
X33089356Y434644D02*
X33089356Y505356D01*
X33018644Y505356D01*
X33018644Y434644D01*
X33089356Y434644D01*
X33343356Y688644D02*
X33343356Y759356D01*
X33272644Y759356D01*
X33272644Y688644D01*
X33343356Y688644D01*
X33343356Y434644D02*
X33343356Y505356D01*
X33272644Y505356D01*
X33272644Y434644D01*
X33343356Y434644D01*
X527356Y688644D02*
X527356Y759356D01*
X456644Y759356D01*
X456644Y688644D01*
X527356Y688644D01*
X527356Y434644D02*
X527356Y505356D01*
X456644Y505356D01*
X456644Y434644D01*
X527356Y434644D01*
X781356Y688644D02*
X781356Y759356D01*
X710644Y759356D01*
X710644Y688644D01*
X781356Y688644D01*
X781356Y434644D02*
X781356Y505356D01*
X710644Y505356D01*
X710644Y434644D01*
X781356Y434644D01*
X1035356Y688644D02*
X1035356Y759356D01*
X964644Y759356D01*
X964644Y688644D01*
X1035356Y688644D01*
X1035356Y434644D02*
X1035356Y505356D01*
X964644Y505356D01*
X964644Y434644D01*
X1035356Y434644D01*
X21435356Y688644D02*
X21435356Y759356D01*
X21364644Y759356D01*
X21364644Y688644D01*
X21435356Y688644D01*
X21435356Y434644D02*
X21435356Y505356D01*
X21364644Y505356D01*
X21364644Y434644D01*
X21435356Y434644D01*
X21689356Y688644D02*
X21689356Y759356D01*
X21618644Y759356D01*
X21618644Y688644D01*
X21689356Y688644D01*
X21689356Y434644D02*
X21689356Y505356D01*
X21618644Y505356D01*
X21618644Y434644D01*
X21689356Y434644D01*
X21943356Y688644D02*
X21943356Y759356D01*
X21872644Y759356D01*
X21872644Y688644D01*
X21943356Y688644D01*
X21943356Y434644D02*
X21943356Y505356D01*
X21872644Y505356D01*
X21872644Y434644D01*
X21943356Y434644D01*
X38381356Y1634644D02*
X38381356Y1705356D01*
X38310644Y1705356D01*
X38310644Y1634644D01*
X38381356Y1634644D01*
X38635356Y1634644D02*
X38635356Y1705356D01*
X38564644Y1705356D01*
X38564644Y1634644D01*
X38635356Y1634644D01*
X29035356Y688644D02*
X29035356Y759356D01*
X28964644Y759356D01*
X28964644Y688644D01*
X29035356Y688644D01*
X29035356Y434644D02*
X29035356Y505356D01*
X28964644Y505356D01*
X28964644Y434644D01*
X29035356Y434644D01*
X29289356Y688644D02*
X29289356Y759356D01*
X29218644Y759356D01*
X29218644Y688644D01*
X29289356Y688644D01*
X29289356Y434644D02*
X29289356Y505356D01*
X29218644Y505356D01*
X29218644Y434644D01*
X29289356Y434644D01*
X29543356Y688644D02*
X29543356Y759356D01*
X29472644Y759356D01*
X29472644Y688644D01*
X29543356Y688644D01*
X29543356Y434644D02*
X29543356Y505356D01*
X29472644Y505356D01*
X29472644Y434644D01*
X29543356Y434644D01*
X2427356Y688644D02*
X2427356Y759356D01*
X2356644Y759356D01*
X2356644Y688644D01*
X2427356Y688644D01*
X2427356Y434644D02*
X2427356Y505356D01*
X2356644Y505356D01*
X2356644Y434644D01*
X2427356Y434644D01*
X2681356Y688644D02*
X2681356Y759356D01*
X2610644Y759356D01*
X2610644Y688644D01*
X2681356Y688644D01*
X2681356Y434644D02*
X2681356Y505356D01*
X2610644Y505356D01*
X2610644Y434644D01*
X2681356Y434644D01*
X2935356Y688644D02*
X2935356Y759356D01*
X2864644Y759356D01*
X2864644Y688644D01*
X2935356Y688644D01*
X2935356Y434644D02*
X2935356Y505356D01*
X2864644Y505356D01*
X2864644Y434644D01*
X2935356Y434644D01*
X15727356Y688644D02*
X15727356Y759356D01*
X15656644Y759356D01*
X15656644Y688644D01*
X15727356Y688644D01*
X15727356Y434644D02*
X15727356Y505356D01*
X15656644Y505356D01*
X15656644Y434644D01*
X15727356Y434644D01*
X15981356Y688644D02*
X15981356Y759356D01*
X15910644Y759356D01*
X15910644Y688644D01*
X15981356Y688644D01*
X15981356Y434644D02*
X15981356Y505356D01*
X15910644Y505356D01*
X15910644Y434644D01*
X15981356Y434644D01*
X16235356Y688644D02*
X16235356Y759356D01*
X16164644Y759356D01*
X16164644Y688644D01*
X16235356Y688644D01*
X16235356Y434644D02*
X16235356Y505356D01*
X16164644Y505356D01*
X16164644Y434644D01*
X16235356Y434644D01*
X36635356Y688644D02*
X36635356Y759356D01*
X36564644Y759356D01*
X36564644Y688644D01*
X36635356Y688644D01*
X36635356Y434644D02*
X36635356Y505356D01*
X36564644Y505356D01*
X36564644Y434644D01*
X36635356Y434644D01*
X36889356Y688644D02*
X36889356Y759356D01*
X36818644Y759356D01*
X36818644Y688644D01*
X36889356Y688644D01*
X36889356Y434644D02*
X36889356Y505356D01*
X36818644Y505356D01*
X36818644Y434644D01*
X36889356Y434644D01*
X37143356Y688644D02*
X37143356Y759356D01*
X37072644Y759356D01*
X37072644Y688644D01*
X37143356Y688644D01*
X37143356Y434644D02*
X37143356Y505356D01*
X37072644Y505356D01*
X37072644Y434644D01*
X37143356Y434644D01*
X30927356Y688644D02*
X30927356Y759356D01*
X30856644Y759356D01*
X30856644Y688644D01*
X30927356Y688644D01*
X30927356Y434644D02*
X30927356Y505356D01*
X30856644Y505356D01*
X30856644Y434644D01*
X30927356Y434644D01*
X31181356Y688644D02*
X31181356Y759356D01*
X31110644Y759356D01*
X31110644Y688644D01*
X31181356Y688644D01*
X31181356Y434644D02*
X31181356Y505356D01*
X31110644Y505356D01*
X31110644Y434644D01*
X31181356Y434644D01*
X31435356Y688644D02*
X31435356Y759356D01*
X31364644Y759356D01*
X31364644Y688644D01*
X31435356Y688644D01*
X31435356Y434644D02*
X31435356Y505356D01*
X31364644Y505356D01*
X31364644Y434644D01*
X31435356Y434644D01*
X6227356Y688644D02*
X6227356Y759356D01*
X6156644Y759356D01*
X6156644Y688644D01*
X6227356Y688644D01*
X6227356Y434644D02*
X6227356Y505356D01*
X6156644Y505356D01*
X6156644Y434644D01*
X6227356Y434644D01*
X6481356Y688644D02*
X6481356Y759356D01*
X6410644Y759356D01*
X6410644Y688644D01*
X6481356Y688644D01*
X6481356Y434644D02*
X6481356Y505356D01*
X6410644Y505356D01*
X6410644Y434644D01*
X6481356Y434644D01*
X6735356Y688644D02*
X6735356Y759356D01*
X6664644Y759356D01*
X6664644Y688644D01*
X6735356Y688644D01*
X6735356Y434644D02*
X6735356Y505356D01*
X6664644Y505356D01*
X6664644Y434644D01*
X6735356Y434644D01*
X17627356Y688644D02*
X17627356Y759356D01*
X17556644Y759356D01*
X17556644Y688644D01*
X17627356Y688644D01*
X17627356Y434644D02*
X17627356Y505356D01*
X17556644Y505356D01*
X17556644Y434644D01*
X17627356Y434644D01*
X17881356Y688644D02*
X17881356Y759356D01*
X17810644Y759356D01*
X17810644Y688644D01*
X17881356Y688644D01*
X17881356Y434644D02*
X17881356Y505356D01*
X17810644Y505356D01*
X17810644Y434644D01*
X17881356Y434644D01*
X18135356Y688644D02*
X18135356Y759356D01*
X18064644Y759356D01*
X18064644Y688644D01*
X18135356Y688644D01*
X18135356Y434644D02*
X18135356Y505356D01*
X18064644Y505356D01*
X18064644Y434644D01*
X18135356Y434644D01*
X13827356Y688644D02*
X13827356Y759356D01*
X13756644Y759356D01*
X13756644Y688644D01*
X13827356Y688644D01*
X13827356Y434644D02*
X13827356Y505356D01*
X13756644Y505356D01*
X13756644Y434644D01*
X13827356Y434644D01*
X14081356Y688644D02*
X14081356Y759356D01*
X14010644Y759356D01*
X14010644Y688644D01*
X14081356Y688644D01*
X14081356Y434644D02*
X14081356Y505356D01*
X14010644Y505356D01*
X14010644Y434644D01*
X14081356Y434644D01*
X14335356Y688644D02*
X14335356Y759356D01*
X14264644Y759356D01*
X14264644Y688644D01*
X14335356Y688644D01*
X14335356Y434644D02*
X14335356Y505356D01*
X14264644Y505356D01*
X14264644Y434644D01*
X14335356Y434644D01*
X4327356Y688644D02*
X4327356Y759356D01*
X4256644Y759356D01*
X4256644Y688644D01*
X4327356Y688644D01*
X4327356Y434644D02*
X4327356Y505356D01*
X4256644Y505356D01*
X4256644Y434644D01*
X4327356Y434644D01*
X4581356Y688644D02*
X4581356Y759356D01*
X4510644Y759356D01*
X4510644Y688644D01*
X4581356Y688644D01*
X4581356Y434644D02*
X4581356Y505356D01*
X4510644Y505356D01*
X4510644Y434644D01*
X4581356Y434644D01*
X4835356Y688644D02*
X4835356Y759356D01*
X4764644Y759356D01*
X4764644Y688644D01*
X4835356Y688644D01*
X4835356Y434644D02*
X4835356Y505356D01*
X4764644Y505356D01*
X4764644Y434644D01*
X4835356Y434644D01*
X23327356Y688644D02*
X23327356Y759356D01*
X23256644Y759356D01*
X23256644Y688644D01*
X23327356Y688644D01*
X23327356Y434644D02*
X23327356Y505356D01*
X23256644Y505356D01*
X23256644Y434644D01*
X23327356Y434644D01*
X23581356Y688644D02*
X23581356Y759356D01*
X23510644Y759356D01*
X23510644Y688644D01*
X23581356Y688644D01*
X23581356Y434644D02*
X23581356Y505356D01*
X23510644Y505356D01*
X23510644Y434644D01*
X23581356Y434644D01*
X23835356Y688644D02*
X23835356Y759356D01*
X23764644Y759356D01*
X23764644Y688644D01*
X23835356Y688644D01*
X23835356Y434644D02*
X23835356Y505356D01*
X23764644Y505356D01*
X23764644Y434644D01*
X23835356Y434644D01*
X25235356Y688644D02*
X25235356Y759356D01*
X25164644Y759356D01*
X25164644Y688644D01*
X25235356Y688644D01*
X25235356Y434644D02*
X25235356Y505356D01*
X25164644Y505356D01*
X25164644Y434644D01*
X25235356Y434644D01*
X25489356Y688644D02*
X25489356Y759356D01*
X25418644Y759356D01*
X25418644Y688644D01*
X25489356Y688644D01*
X25489356Y434644D02*
X25489356Y505356D01*
X25418644Y505356D01*
X25418644Y434644D01*
X25489356Y434644D01*
X25743356Y688644D02*
X25743356Y759356D01*
X25672644Y759356D01*
X25672644Y688644D01*
X25743356Y688644D01*
X25743356Y434644D02*
X25743356Y505356D01*
X25672644Y505356D01*
X25672644Y434644D01*
X25743356Y434644D01*
X11927356Y688644D02*
X11927356Y759356D01*
X11856644Y759356D01*
X11856644Y688644D01*
X11927356Y688644D01*
X11927356Y434644D02*
X11927356Y505356D01*
X11856644Y505356D01*
X11856644Y434644D01*
X11927356Y434644D01*
X12181356Y688644D02*
X12181356Y759356D01*
X12110644Y759356D01*
X12110644Y688644D01*
X12181356Y688644D01*
X12181356Y434644D02*
X12181356Y505356D01*
X12110644Y505356D01*
X12110644Y434644D01*
X12181356Y434644D01*
X12435356Y688644D02*
X12435356Y759356D01*
X12364644Y759356D01*
X12364644Y688644D01*
X12435356Y688644D01*
X12435356Y434644D02*
X12435356Y505356D01*
X12364644Y505356D01*
X12364644Y434644D01*
X12435356Y434644D01*
X19527356Y688644D02*
X19527356Y759356D01*
X19456644Y759356D01*
X19456644Y688644D01*
X19527356Y688644D01*
X19527356Y434644D02*
X19527356Y505356D01*
X19456644Y505356D01*
X19456644Y434644D01*
X19527356Y434644D01*
X19781356Y688644D02*
X19781356Y759356D01*
X19710644Y759356D01*
X19710644Y688644D01*
X19781356Y688644D01*
X19781356Y434644D02*
X19781356Y505356D01*
X19710644Y505356D01*
X19710644Y434644D01*
X19781356Y434644D01*
X20035356Y688644D02*
X20035356Y759356D01*
X19964644Y759356D01*
X19964644Y688644D01*
X20035356Y688644D01*
X20035356Y434644D02*
X20035356Y505356D01*
X19964644Y505356D01*
X19964644Y434644D01*
X20035356Y434644D01*
X27135356Y688644D02*
X27135356Y759356D01*
X27064644Y759356D01*
X27064644Y688644D01*
X27135356Y688644D01*
X27135356Y434644D02*
X27135356Y505356D01*
X27064644Y505356D01*
X27064644Y434644D01*
X27135356Y434644D01*
X27389356Y688644D02*
X27389356Y759356D01*
X27318644Y759356D01*
X27318644Y688644D01*
X27389356Y688644D01*
X27389356Y434644D02*
X27389356Y505356D01*
X27318644Y505356D01*
X27318644Y434644D01*
X27389356Y434644D01*
X27643356Y688644D02*
X27643356Y759356D01*
X27572644Y759356D01*
X27572644Y688644D01*
X27643356Y688644D01*
X27643356Y434644D02*
X27643356Y505356D01*
X27572644Y505356D01*
X27572644Y434644D01*
X27643356Y434644D01*
X8127356Y688644D02*
X8127356Y759356D01*
X8056644Y759356D01*
X8056644Y688644D01*
X8127356Y688644D01*
X8127356Y434644D02*
X8127356Y505356D01*
X8056644Y505356D01*
X8056644Y434644D01*
X8127356Y434644D01*
X8381356Y688644D02*
X8381356Y759356D01*
X8310644Y759356D01*
X8310644Y688644D01*
X8381356Y688644D01*
X8381356Y434644D02*
X8381356Y505356D01*
X8310644Y505356D01*
X8310644Y434644D01*
X8381356Y434644D01*
X8635356Y688644D02*
X8635356Y759356D01*
X8564644Y759356D01*
X8564644Y688644D01*
X8635356Y688644D01*
X8635356Y434644D02*
X8635356Y505356D01*
X8564644Y505356D01*
X8564644Y434644D01*
X8635356Y434644D01*
X10027356Y688644D02*
X10027356Y759356D01*
X9956644Y759356D01*
X9956644Y688644D01*
X10027356Y688644D01*
X10027356Y434644D02*
X10027356Y505356D01*
X9956644Y505356D01*
X9956644Y434644D01*
X10027356Y434644D01*
X10281356Y688644D02*
X10281356Y759356D01*
X10210644Y759356D01*
X10210644Y688644D01*
X10281356Y688644D01*
X10281356Y434644D02*
X10281356Y505356D01*
X10210644Y505356D01*
X10210644Y434644D01*
X10281356Y434644D01*
X10535356Y688644D02*
X10535356Y759356D01*
X10464644Y759356D01*
X10464644Y688644D01*
X10535356Y688644D01*
X10535356Y434644D02*
X10535356Y505356D01*
X10464644Y505356D01*
X10464644Y434644D01*
X10535356Y434644D01*
X34735356Y688644D02*
X34735356Y759356D01*
X34664644Y759356D01*
X34664644Y688644D01*
X34735356Y688644D01*
X34735356Y434644D02*
X34735356Y505356D01*
X34664644Y505356D01*
X34664644Y434644D01*
X34735356Y434644D01*
X34989356Y688644D02*
X34989356Y759356D01*
X34918644Y759356D01*
X34918644Y688644D01*
X34989356Y688644D01*
X34989356Y434644D02*
X34989356Y505356D01*
X34918644Y505356D01*
X34918644Y434644D01*
X34989356Y434644D01*
X35243356Y688644D02*
X35243356Y759356D01*
X35172644Y759356D01*
X35172644Y688644D01*
X35243356Y688644D01*
X35243356Y434644D02*
X35243356Y505356D01*
X35172644Y505356D01*
X35172644Y434644D01*
X35243356Y434644D01*
D12*
X276428Y-475714D02*
X276428Y-175714D01*
X347857Y-175714D01*
X390714Y-190000D01*
X419286Y-218571D01*
X433571Y-247143D01*
X447857Y-304286D01*
X447857Y-347143D01*
X433571Y-404286D01*
X419286Y-432857D01*
X390714Y-461429D01*
X347857Y-475714D01*
X276428Y-475714D01*
X576428Y-475714D02*
X576428Y-275714D01*
X576428Y-332857D02*
X590714Y-304286D01*
X605000Y-290000D01*
X633571Y-275714D01*
X662143Y-275714D01*
X762143Y-475714D02*
X762143Y-275714D01*
X762143Y-175714D02*
X747857Y-190000D01*
X762143Y-204286D01*
X776428Y-190000D01*
X762143Y-175714D01*
X762143Y-204286D01*
X947857Y-475714D02*
X919286Y-461429D01*
X905000Y-432857D01*
X905000Y-175714D01*
X1105000Y-475714D02*
X1076428Y-461429D01*
X1062143Y-432857D01*
X1062143Y-175714D01*
X1447857Y-475714D02*
X1447857Y-175714D01*
X1547857Y-390000D01*
X1647857Y-175714D01*
X1647857Y-475714D01*
X1919286Y-475714D02*
X1919286Y-318572D01*
X1905000Y-290000D01*
X1876428Y-275714D01*
X1819286Y-275714D01*
X1790714Y-290000D01*
X1919286Y-461429D02*
X1890714Y-475714D01*
X1819286Y-475714D01*
X1790714Y-461429D01*
X1776428Y-432857D01*
X1776428Y-404286D01*
X1790714Y-375714D01*
X1819286Y-361429D01*
X1890714Y-361429D01*
X1919286Y-347143D01*
X2062143Y-275714D02*
X2062143Y-575714D01*
X2062143Y-290000D02*
X2090714Y-275714D01*
X2147857Y-275714D01*
X2176428Y-290000D01*
X2190714Y-304286D01*
X2205000Y-332857D01*
X2205000Y-418571D01*
X2190714Y-447143D01*
X2176428Y-461429D01*
X2147857Y-475714D01*
X2090714Y-475714D01*
X2062143Y-461429D01*
X2333571Y-447143D02*
X2347857Y-461429D01*
X2333571Y-475714D01*
X2319286Y-461429D01*
X2333571Y-447143D01*
X2333571Y-475714D01*
X2333571Y-290000D02*
X2347857Y-304286D01*
X2333571Y-318572D01*
X2319286Y-304286D01*
X2333571Y-290000D01*
X2333571Y-318572D01*
X-70000Y-940000D02*
X-10000Y-1000000D01*
X-10000Y-940000D02*
X-70000Y-1000000D01*
X333571Y-805714D02*
X362143Y-805714D01*
X390714Y-820000D01*
X405000Y-834286D01*
X419286Y-862857D01*
X433571Y-920000D01*
X433571Y-991429D01*
X419286Y-1048571D01*
X405000Y-1077143D01*
X390714Y-1091429D01*
X362143Y-1105714D01*
X333571Y-1105714D01*
X305000Y-1091429D01*
X290714Y-1077143D01*
X276428Y-1048571D01*
X262143Y-991429D01*
X262143Y-920000D01*
X276428Y-862857D01*
X290714Y-834286D01*
X305000Y-820000D01*
X333571Y-805714D01*
X562143Y-1077143D02*
X576428Y-1091429D01*
X562143Y-1105714D01*
X547857Y-1091429D01*
X562143Y-1077143D01*
X562143Y-1105714D01*
X833571Y-805714D02*
X776428Y-805714D01*
X747857Y-820000D01*
X733571Y-834286D01*
X705000Y-877143D01*
X690714Y-934286D01*
X690714Y-1048571D01*
X705000Y-1077143D01*
X719286Y-1091429D01*
X747857Y-1105714D01*
X805000Y-1105714D01*
X833571Y-1091429D01*
X847857Y-1077143D01*
X862143Y-1048571D01*
X862143Y-977143D01*
X847857Y-948571D01*
X833571Y-934286D01*
X805000Y-920000D01*
X747857Y-920000D01*
X719286Y-934286D01*
X705000Y-948571D01*
X690714Y-977143D01*
X1047857Y-805714D02*
X1076428Y-805714D01*
X1105000Y-820000D01*
X1119286Y-834286D01*
X1133571Y-862857D01*
X1147857Y-920000D01*
X1147857Y-991429D01*
X1133571Y-1048571D01*
X1119286Y-1077143D01*
X1105000Y-1091429D01*
X1076428Y-1105714D01*
X1047857Y-1105714D01*
X1019286Y-1091429D01*
X1005000Y-1077143D01*
X990714Y-1048571D01*
X976428Y-991429D01*
X976428Y-920000D01*
X990714Y-862857D01*
X1005000Y-834286D01*
X1019286Y-820000D01*
X1047857Y-805714D01*
X1276428Y-1105714D02*
X1276428Y-905714D01*
X1276428Y-934286D02*
X1290714Y-920000D01*
X1319286Y-905714D01*
X1362143Y-905714D01*
X1390714Y-920000D01*
X1405000Y-948571D01*
X1405000Y-1105714D01*
X1405000Y-948571D02*
X1419286Y-920000D01*
X1447857Y-905714D01*
X1490714Y-905714D01*
X1519286Y-920000D01*
X1533571Y-948571D01*
X1533571Y-1105714D01*
X1676428Y-1105714D02*
X1676428Y-905714D01*
X1676428Y-934286D02*
X1690714Y-920000D01*
X1719286Y-905714D01*
X1762143Y-905714D01*
X1790714Y-920000D01*
X1805000Y-948571D01*
X1805000Y-1105714D01*
X1805000Y-948571D02*
X1819286Y-920000D01*
X1847857Y-905714D01*
X1890714Y-905714D01*
X1919286Y-920000D01*
X1933571Y-948571D01*
X1933571Y-1105714D01*
X2519286Y-791429D02*
X2262143Y-1177143D01*
X2905000Y-805714D02*
X2933571Y-805714D01*
X2962143Y-820000D01*
X2976428Y-834286D01*
X2990714Y-862857D01*
X3005000Y-920000D01*
X3005000Y-991429D01*
X2990714Y-1048571D01*
X2976428Y-1077143D01*
X2962143Y-1091429D01*
X2933571Y-1105714D01*
X2905000Y-1105714D01*
X2876428Y-1091429D01*
X2862143Y-1077143D01*
X2847857Y-1048571D01*
X2833571Y-991429D01*
X2833571Y-920000D01*
X2847857Y-862857D01*
X2862143Y-834286D01*
X2876428Y-820000D01*
X2905000Y-805714D01*
X3133571Y-1077143D02*
X3147857Y-1091429D01*
X3133571Y-1105714D01*
X3119286Y-1091429D01*
X3133571Y-1077143D01*
X3133571Y-1105714D01*
X3333571Y-805714D02*
X3362143Y-805714D01*
X3390714Y-820000D01*
X3405000Y-834286D01*
X3419286Y-862857D01*
X3433571Y-920000D01*
X3433571Y-991429D01*
X3419286Y-1048571D01*
X3405000Y-1077143D01*
X3390714Y-1091429D01*
X3362143Y-1105714D01*
X3333571Y-1105714D01*
X3305000Y-1091429D01*
X3290714Y-1077143D01*
X3276428Y-1048571D01*
X3262143Y-991429D01*
X3262143Y-920000D01*
X3276428Y-862857D01*
X3290714Y-834286D01*
X3305000Y-820000D01*
X3333571Y-805714D01*
X3547857Y-834286D02*
X3562143Y-820000D01*
X3590714Y-805714D01*
X3662143Y-805714D01*
X3690714Y-820000D01*
X3705000Y-834286D01*
X3719286Y-862857D01*
X3719286Y-891429D01*
X3705000Y-934286D01*
X3533571Y-1105714D01*
X3719286Y-1105714D01*
X3976428Y-905714D02*
X3976428Y-1105714D01*
X3905000Y-791429D02*
X3833571Y-1005714D01*
X4019286Y-1005714D01*
X4119286Y-805714D02*
X4119286Y-862857D01*
X4233571Y-805714D02*
X4233571Y-862857D01*
X4676428Y-1220000D02*
X4662143Y-1205714D01*
X4633571Y-1162857D01*
X4619286Y-1134286D01*
X4605000Y-1091429D01*
X4590714Y-1020000D01*
X4590714Y-962857D01*
X4605000Y-891429D01*
X4619286Y-848571D01*
X4633571Y-820000D01*
X4662143Y-777143D01*
X4676428Y-762857D01*
X4762143Y-805714D02*
X4947857Y-805714D01*
X4847857Y-920000D01*
X4890714Y-920000D01*
X4919286Y-934286D01*
X4933571Y-948571D01*
X4947857Y-977143D01*
X4947857Y-1048571D01*
X4933571Y-1077143D01*
X4919286Y-1091429D01*
X4890714Y-1105714D01*
X4805000Y-1105714D01*
X4776428Y-1091429D01*
X4762143Y-1077143D01*
X5305000Y-1105714D02*
X5305000Y-805714D01*
X5433571Y-1105714D02*
X5433571Y-948571D01*
X5419286Y-920000D01*
X5390714Y-905714D01*
X5347857Y-905714D01*
X5319286Y-920000D01*
X5305000Y-934286D01*
X5619286Y-1105714D02*
X5590714Y-1091429D01*
X5576428Y-1077143D01*
X5562143Y-1048571D01*
X5562143Y-962857D01*
X5576428Y-934286D01*
X5590714Y-920000D01*
X5619286Y-905714D01*
X5662143Y-905714D01*
X5690714Y-920000D01*
X5705000Y-934286D01*
X5719286Y-962857D01*
X5719286Y-1048571D01*
X5705000Y-1077143D01*
X5690714Y-1091429D01*
X5662143Y-1105714D01*
X5619286Y-1105714D01*
X5890714Y-1105714D02*
X5862143Y-1091429D01*
X5847857Y-1062857D01*
X5847857Y-805714D01*
X6119286Y-1091429D02*
X6090714Y-1105714D01*
X6033571Y-1105714D01*
X6005000Y-1091429D01*
X5990714Y-1062857D01*
X5990714Y-948571D01*
X6005000Y-920000D01*
X6033571Y-905714D01*
X6090714Y-905714D01*
X6119286Y-920000D01*
X6133571Y-948571D01*
X6133571Y-977143D01*
X5990714Y-1005714D01*
X6247857Y-1091429D02*
X6276428Y-1105714D01*
X6333571Y-1105714D01*
X6362143Y-1091429D01*
X6376428Y-1062857D01*
X6376428Y-1048571D01*
X6362143Y-1020000D01*
X6333571Y-1005714D01*
X6290714Y-1005714D01*
X6262143Y-991429D01*
X6247857Y-962857D01*
X6247857Y-948571D01*
X6262143Y-920000D01*
X6290714Y-905714D01*
X6333571Y-905714D01*
X6362143Y-920000D01*
X6476428Y-1220000D02*
X6490714Y-1205714D01*
X6519286Y-1162857D01*
X6533571Y-1134286D01*
X6547857Y-1091429D01*
X6562143Y-1020000D01*
X6562143Y-962857D01*
X6547857Y-891429D01*
X6533571Y-848571D01*
X6519286Y-820000D01*
X6490714Y-777143D01*
X6476428Y-762857D01*
X-10000Y-1366000D02*
G75*
G03X-10000Y-1366000I-37500J0D01*
G01*
X333571Y-1201714D02*
X362143Y-1201714D01*
X390714Y-1216000D01*
X405000Y-1230286D01*
X419286Y-1258857D01*
X433571Y-1316000D01*
X433571Y-1387429D01*
X419286Y-1444571D01*
X405000Y-1473143D01*
X390714Y-1487429D01*
X362143Y-1501714D01*
X333571Y-1501714D01*
X305000Y-1487429D01*
X290714Y-1473143D01*
X276428Y-1444571D01*
X262143Y-1387429D01*
X262143Y-1316000D01*
X276428Y-1258857D01*
X290714Y-1230286D01*
X305000Y-1216000D01*
X333571Y-1201714D01*
X562143Y-1473143D02*
X576428Y-1487429D01*
X562143Y-1501714D01*
X547857Y-1487429D01*
X562143Y-1473143D01*
X562143Y-1501714D01*
X676428Y-1201714D02*
X876428Y-1201714D01*
X747857Y-1501714D01*
X1133571Y-1201714D02*
X990714Y-1201714D01*
X976428Y-1344572D01*
X990714Y-1330286D01*
X1019286Y-1316000D01*
X1090714Y-1316000D01*
X1119286Y-1330286D01*
X1133571Y-1344572D01*
X1147857Y-1373143D01*
X1147857Y-1444571D01*
X1133571Y-1473143D01*
X1119286Y-1487429D01*
X1090714Y-1501714D01*
X1019286Y-1501714D01*
X990714Y-1487429D01*
X976428Y-1473143D01*
X1276428Y-1501714D02*
X1276428Y-1301714D01*
X1276428Y-1330286D02*
X1290714Y-1316000D01*
X1319286Y-1301714D01*
X1362143Y-1301714D01*
X1390714Y-1316000D01*
X1405000Y-1344572D01*
X1405000Y-1501714D01*
X1405000Y-1344572D02*
X1419286Y-1316000D01*
X1447857Y-1301714D01*
X1490714Y-1301714D01*
X1519286Y-1316000D01*
X1533571Y-1344572D01*
X1533571Y-1501714D01*
X1676428Y-1501714D02*
X1676428Y-1301714D01*
X1676428Y-1330286D02*
X1690714Y-1316000D01*
X1719286Y-1301714D01*
X1762143Y-1301714D01*
X1790714Y-1316000D01*
X1805000Y-1344572D01*
X1805000Y-1501714D01*
X1805000Y-1344572D02*
X1819286Y-1316000D01*
X1847857Y-1301714D01*
X1890714Y-1301714D01*
X1919286Y-1316000D01*
X1933571Y-1344572D01*
X1933571Y-1501714D01*
X2519286Y-1187429D02*
X2262143Y-1573143D01*
X2905000Y-1201714D02*
X2933571Y-1201714D01*
X2962143Y-1216000D01*
X2976428Y-1230286D01*
X2990714Y-1258857D01*
X3005000Y-1316000D01*
X3005000Y-1387429D01*
X2990714Y-1444571D01*
X2976428Y-1473143D01*
X2962143Y-1487429D01*
X2933571Y-1501714D01*
X2905000Y-1501714D01*
X2876428Y-1487429D01*
X2862143Y-1473143D01*
X2847857Y-1444571D01*
X2833571Y-1387429D01*
X2833571Y-1316000D01*
X2847857Y-1258857D01*
X2862143Y-1230286D01*
X2876428Y-1216000D01*
X2905000Y-1201714D01*
X3133571Y-1473143D02*
X3147857Y-1487429D01*
X3133571Y-1501714D01*
X3119286Y-1487429D01*
X3133571Y-1473143D01*
X3133571Y-1501714D01*
X3333571Y-1201714D02*
X3362143Y-1201714D01*
X3390714Y-1216000D01*
X3405000Y-1230286D01*
X3419286Y-1258857D01*
X3433571Y-1316000D01*
X3433571Y-1387429D01*
X3419286Y-1444571D01*
X3405000Y-1473143D01*
X3390714Y-1487429D01*
X3362143Y-1501714D01*
X3333571Y-1501714D01*
X3305000Y-1487429D01*
X3290714Y-1473143D01*
X3276428Y-1444571D01*
X3262143Y-1387429D01*
X3262143Y-1316000D01*
X3276428Y-1258857D01*
X3290714Y-1230286D01*
X3305000Y-1216000D01*
X3333571Y-1201714D01*
X3533571Y-1201714D02*
X3719286Y-1201714D01*
X3619286Y-1316000D01*
X3662143Y-1316000D01*
X3690714Y-1330286D01*
X3705000Y-1344572D01*
X3719286Y-1373143D01*
X3719286Y-1444571D01*
X3705000Y-1473143D01*
X3690714Y-1487429D01*
X3662143Y-1501714D01*
X3576428Y-1501714D01*
X3547857Y-1487429D01*
X3533571Y-1473143D01*
X3905000Y-1201714D02*
X3933571Y-1201714D01*
X3962143Y-1216000D01*
X3976428Y-1230286D01*
X3990714Y-1258857D01*
X4005000Y-1316000D01*
X4005000Y-1387429D01*
X3990714Y-1444571D01*
X3976428Y-1473143D01*
X3962143Y-1487429D01*
X3933571Y-1501714D01*
X3905000Y-1501714D01*
X3876428Y-1487429D01*
X3862143Y-1473143D01*
X3847857Y-1444571D01*
X3833571Y-1387429D01*
X3833571Y-1316000D01*
X3847857Y-1258857D01*
X3862143Y-1230286D01*
X3876428Y-1216000D01*
X3905000Y-1201714D01*
X4119286Y-1201714D02*
X4119286Y-1258857D01*
X4233571Y-1201714D02*
X4233571Y-1258857D01*
X4676428Y-1616000D02*
X4662143Y-1601714D01*
X4633571Y-1558857D01*
X4619286Y-1530286D01*
X4605000Y-1487429D01*
X4590714Y-1416000D01*
X4590714Y-1358857D01*
X4605000Y-1287429D01*
X4619286Y-1244572D01*
X4633571Y-1216000D01*
X4662143Y-1173143D01*
X4676428Y-1158857D01*
X4833571Y-1330286D02*
X4805000Y-1316000D01*
X4790714Y-1301714D01*
X4776428Y-1273143D01*
X4776428Y-1258857D01*
X4790714Y-1230286D01*
X4805000Y-1216000D01*
X4833571Y-1201714D01*
X4890714Y-1201714D01*
X4919286Y-1216000D01*
X4933571Y-1230286D01*
X4947857Y-1258857D01*
X4947857Y-1273143D01*
X4933571Y-1301714D01*
X4919286Y-1316000D01*
X4890714Y-1330286D01*
X4833571Y-1330286D01*
X4805000Y-1344572D01*
X4790714Y-1358857D01*
X4776428Y-1387429D01*
X4776428Y-1444571D01*
X4790714Y-1473143D01*
X4805000Y-1487429D01*
X4833571Y-1501714D01*
X4890714Y-1501714D01*
X4919286Y-1487429D01*
X4933571Y-1473143D01*
X4947857Y-1444571D01*
X4947857Y-1387429D01*
X4933571Y-1358857D01*
X4919286Y-1344572D01*
X4890714Y-1330286D01*
X5133571Y-1201714D02*
X5162143Y-1201714D01*
X5190714Y-1216000D01*
X5205000Y-1230286D01*
X5219286Y-1258857D01*
X5233571Y-1316000D01*
X5233571Y-1387429D01*
X5219286Y-1444571D01*
X5205000Y-1473143D01*
X5190714Y-1487429D01*
X5162143Y-1501714D01*
X5133571Y-1501714D01*
X5105000Y-1487429D01*
X5090714Y-1473143D01*
X5076428Y-1444571D01*
X5062143Y-1387429D01*
X5062143Y-1316000D01*
X5076428Y-1258857D01*
X5090714Y-1230286D01*
X5105000Y-1216000D01*
X5133571Y-1201714D01*
X5590714Y-1501714D02*
X5590714Y-1201714D01*
X5719286Y-1501714D02*
X5719286Y-1344572D01*
X5705000Y-1316000D01*
X5676428Y-1301714D01*
X5633571Y-1301714D01*
X5605000Y-1316000D01*
X5590714Y-1330286D01*
X5905000Y-1501714D02*
X5876428Y-1487429D01*
X5862143Y-1473143D01*
X5847857Y-1444571D01*
X5847857Y-1358857D01*
X5862143Y-1330286D01*
X5876428Y-1316000D01*
X5905000Y-1301714D01*
X5947857Y-1301714D01*
X5976428Y-1316000D01*
X5990714Y-1330286D01*
X6005000Y-1358857D01*
X6005000Y-1444571D01*
X5990714Y-1473143D01*
X5976428Y-1487429D01*
X5947857Y-1501714D01*
X5905000Y-1501714D01*
X6176428Y-1501714D02*
X6147857Y-1487429D01*
X6133571Y-1458857D01*
X6133571Y-1201714D01*
X6405000Y-1487429D02*
X6376428Y-1501714D01*
X6319286Y-1501714D01*
X6290714Y-1487429D01*
X6276428Y-1458857D01*
X6276428Y-1344572D01*
X6290714Y-1316000D01*
X6319286Y-1301714D01*
X6376428Y-1301714D01*
X6405000Y-1316000D01*
X6419286Y-1344572D01*
X6419286Y-1373143D01*
X6276428Y-1401714D01*
X6533571Y-1487429D02*
X6562143Y-1501714D01*
X6619286Y-1501714D01*
X6647857Y-1487429D01*
X6662143Y-1458857D01*
X6662143Y-1444571D01*
X6647857Y-1416000D01*
X6619286Y-1401714D01*
X6576428Y-1401714D01*
X6547857Y-1387429D01*
X6533571Y-1358857D01*
X6533571Y-1344572D01*
X6547857Y-1316000D01*
X6576428Y-1301714D01*
X6619286Y-1301714D01*
X6647857Y-1316000D01*
X6762143Y-1616000D02*
X6776428Y-1601714D01*
X6805000Y-1558857D01*
X6819286Y-1530286D01*
X6833571Y-1487429D01*
X6847857Y-1416000D01*
X6847857Y-1358857D01*
X6833571Y-1287429D01*
X6819286Y-1244572D01*
X6805000Y-1216000D01*
X6776428Y-1173143D01*
X6762143Y-1158857D01*
X-50000Y-1722000D02*
X-50000Y-1802000D01*
X-90000Y-1762000D02*
X-10000Y-1762000D01*
X333571Y-1597714D02*
X362143Y-1597714D01*
X390714Y-1612000D01*
X405000Y-1626286D01*
X419286Y-1654857D01*
X433571Y-1712000D01*
X433571Y-1783429D01*
X419286Y-1840571D01*
X405000Y-1869143D01*
X390714Y-1883429D01*
X362143Y-1897714D01*
X333571Y-1897714D01*
X305000Y-1883429D01*
X290714Y-1869143D01*
X276428Y-1840571D01*
X262143Y-1783429D01*
X262143Y-1712000D01*
X276428Y-1654857D01*
X290714Y-1626286D01*
X305000Y-1612000D01*
X333571Y-1597714D01*
X562143Y-1869143D02*
X576428Y-1883429D01*
X562143Y-1897714D01*
X547857Y-1883429D01*
X562143Y-1869143D01*
X562143Y-1897714D01*
X747857Y-1726286D02*
X719286Y-1712000D01*
X705000Y-1697714D01*
X690714Y-1669143D01*
X690714Y-1654857D01*
X705000Y-1626286D01*
X719286Y-1612000D01*
X747857Y-1597714D01*
X805000Y-1597714D01*
X833571Y-1612000D01*
X847857Y-1626286D01*
X862143Y-1654857D01*
X862143Y-1669143D01*
X847857Y-1697714D01*
X833571Y-1712000D01*
X805000Y-1726286D01*
X747857Y-1726286D01*
X719286Y-1740571D01*
X705000Y-1754857D01*
X690714Y-1783429D01*
X690714Y-1840571D01*
X705000Y-1869143D01*
X719286Y-1883429D01*
X747857Y-1897714D01*
X805000Y-1897714D01*
X833571Y-1883429D01*
X847857Y-1869143D01*
X862143Y-1840571D01*
X862143Y-1783429D01*
X847857Y-1754857D01*
X833571Y-1740571D01*
X805000Y-1726286D01*
X1047857Y-1597714D02*
X1076428Y-1597714D01*
X1105000Y-1612000D01*
X1119286Y-1626286D01*
X1133571Y-1654857D01*
X1147857Y-1712000D01*
X1147857Y-1783429D01*
X1133571Y-1840571D01*
X1119286Y-1869143D01*
X1105000Y-1883429D01*
X1076428Y-1897714D01*
X1047857Y-1897714D01*
X1019286Y-1883429D01*
X1005000Y-1869143D01*
X990714Y-1840571D01*
X976428Y-1783429D01*
X976428Y-1712000D01*
X990714Y-1654857D01*
X1005000Y-1626286D01*
X1019286Y-1612000D01*
X1047857Y-1597714D01*
X1276428Y-1897714D02*
X1276428Y-1697714D01*
X1276428Y-1726286D02*
X1290714Y-1712000D01*
X1319286Y-1697714D01*
X1362143Y-1697714D01*
X1390714Y-1712000D01*
X1405000Y-1740571D01*
X1405000Y-1897714D01*
X1405000Y-1740571D02*
X1419286Y-1712000D01*
X1447857Y-1697714D01*
X1490714Y-1697714D01*
X1519286Y-1712000D01*
X1533571Y-1740571D01*
X1533571Y-1897714D01*
X1676428Y-1897714D02*
X1676428Y-1697714D01*
X1676428Y-1726286D02*
X1690714Y-1712000D01*
X1719286Y-1697714D01*
X1762143Y-1697714D01*
X1790714Y-1712000D01*
X1805000Y-1740571D01*
X1805000Y-1897714D01*
X1805000Y-1740571D02*
X1819286Y-1712000D01*
X1847857Y-1697714D01*
X1890714Y-1697714D01*
X1919286Y-1712000D01*
X1933571Y-1740571D01*
X1933571Y-1897714D01*
X2519286Y-1583429D02*
X2262143Y-1969143D01*
X2905000Y-1597714D02*
X2933571Y-1597714D01*
X2962143Y-1612000D01*
X2976428Y-1626286D01*
X2990714Y-1654857D01*
X3005000Y-1712000D01*
X3005000Y-1783429D01*
X2990714Y-1840571D01*
X2976428Y-1869143D01*
X2962143Y-1883429D01*
X2933571Y-1897714D01*
X2905000Y-1897714D01*
X2876428Y-1883429D01*
X2862143Y-1869143D01*
X2847857Y-1840571D01*
X2833571Y-1783429D01*
X2833571Y-1712000D01*
X2847857Y-1654857D01*
X2862143Y-1626286D01*
X2876428Y-1612000D01*
X2905000Y-1597714D01*
X3133571Y-1869143D02*
X3147857Y-1883429D01*
X3133571Y-1897714D01*
X3119286Y-1883429D01*
X3133571Y-1869143D01*
X3133571Y-1897714D01*
X3333571Y-1597714D02*
X3362143Y-1597714D01*
X3390714Y-1612000D01*
X3405000Y-1626286D01*
X3419286Y-1654857D01*
X3433571Y-1712000D01*
X3433571Y-1783429D01*
X3419286Y-1840571D01*
X3405000Y-1869143D01*
X3390714Y-1883429D01*
X3362143Y-1897714D01*
X3333571Y-1897714D01*
X3305000Y-1883429D01*
X3290714Y-1869143D01*
X3276428Y-1840571D01*
X3262143Y-1783429D01*
X3262143Y-1712000D01*
X3276428Y-1654857D01*
X3290714Y-1626286D01*
X3305000Y-1612000D01*
X3333571Y-1597714D01*
X3533571Y-1597714D02*
X3719286Y-1597714D01*
X3619286Y-1712000D01*
X3662143Y-1712000D01*
X3690714Y-1726286D01*
X3705000Y-1740571D01*
X3719286Y-1769143D01*
X3719286Y-1840571D01*
X3705000Y-1869143D01*
X3690714Y-1883429D01*
X3662143Y-1897714D01*
X3576428Y-1897714D01*
X3547857Y-1883429D01*
X3533571Y-1869143D01*
X4005000Y-1897714D02*
X3833571Y-1897714D01*
X3919286Y-1897714D02*
X3919286Y-1597714D01*
X3890714Y-1640571D01*
X3862143Y-1669143D01*
X3833571Y-1683429D01*
X4119286Y-1597714D02*
X4119286Y-1654857D01*
X4233571Y-1597714D02*
X4233571Y-1654857D01*
X4676428Y-2012000D02*
X4662143Y-1997714D01*
X4633571Y-1954857D01*
X4619286Y-1926286D01*
X4605000Y-1883429D01*
X4590714Y-1812000D01*
X4590714Y-1754857D01*
X4605000Y-1683429D01*
X4619286Y-1640571D01*
X4633571Y-1612000D01*
X4662143Y-1569143D01*
X4676428Y-1554857D01*
X4933571Y-1597714D02*
X4790714Y-1597714D01*
X4776428Y-1740571D01*
X4790714Y-1726286D01*
X4819286Y-1712000D01*
X4890714Y-1712000D01*
X4919286Y-1726286D01*
X4933571Y-1740571D01*
X4947857Y-1769143D01*
X4947857Y-1840571D01*
X4933571Y-1869143D01*
X4919286Y-1883429D01*
X4890714Y-1897714D01*
X4819286Y-1897714D01*
X4790714Y-1883429D01*
X4776428Y-1869143D01*
X5119286Y-1726286D02*
X5090714Y-1712000D01*
X5076428Y-1697714D01*
X5062143Y-1669143D01*
X5062143Y-1654857D01*
X5076428Y-1626286D01*
X5090714Y-1612000D01*
X5119286Y-1597714D01*
X5176428Y-1597714D01*
X5205000Y-1612000D01*
X5219286Y-1626286D01*
X5233571Y-1654857D01*
X5233571Y-1669143D01*
X5219286Y-1697714D01*
X5205000Y-1712000D01*
X5176428Y-1726286D01*
X5119286Y-1726286D01*
X5090714Y-1740571D01*
X5076428Y-1754857D01*
X5062143Y-1783429D01*
X5062143Y-1840571D01*
X5076428Y-1869143D01*
X5090714Y-1883429D01*
X5119286Y-1897714D01*
X5176428Y-1897714D01*
X5205000Y-1883429D01*
X5219286Y-1869143D01*
X5233571Y-1840571D01*
X5233571Y-1783429D01*
X5219286Y-1754857D01*
X5205000Y-1740571D01*
X5176428Y-1726286D01*
X5590714Y-1897714D02*
X5590714Y-1597714D01*
X5719286Y-1897714D02*
X5719286Y-1740571D01*
X5705000Y-1712000D01*
X5676428Y-1697714D01*
X5633571Y-1697714D01*
X5605000Y-1712000D01*
X5590714Y-1726286D01*
X5905000Y-1897714D02*
X5876428Y-1883429D01*
X5862143Y-1869143D01*
X5847857Y-1840571D01*
X5847857Y-1754857D01*
X5862143Y-1726286D01*
X5876428Y-1712000D01*
X5905000Y-1697714D01*
X5947857Y-1697714D01*
X5976428Y-1712000D01*
X5990714Y-1726286D01*
X6005000Y-1754857D01*
X6005000Y-1840571D01*
X5990714Y-1869143D01*
X5976428Y-1883429D01*
X5947857Y-1897714D01*
X5905000Y-1897714D01*
X6176428Y-1897714D02*
X6147857Y-1883429D01*
X6133571Y-1854857D01*
X6133571Y-1597714D01*
X6405000Y-1883429D02*
X6376428Y-1897714D01*
X6319286Y-1897714D01*
X6290714Y-1883429D01*
X6276428Y-1854857D01*
X6276428Y-1740571D01*
X6290714Y-1712000D01*
X6319286Y-1697714D01*
X6376428Y-1697714D01*
X6405000Y-1712000D01*
X6419286Y-1740571D01*
X6419286Y-1769143D01*
X6276428Y-1797714D01*
X6533571Y-1883429D02*
X6562143Y-1897714D01*
X6619286Y-1897714D01*
X6647857Y-1883429D01*
X6662143Y-1854857D01*
X6662143Y-1840571D01*
X6647857Y-1812000D01*
X6619286Y-1797714D01*
X6576428Y-1797714D01*
X6547857Y-1783429D01*
X6533571Y-1754857D01*
X6533571Y-1740571D01*
X6547857Y-1712000D01*
X6576428Y-1697714D01*
X6619286Y-1697714D01*
X6647857Y-1712000D01*
X6762143Y-2012000D02*
X6776428Y-1997714D01*
X6805000Y-1954857D01*
X6819286Y-1926286D01*
X6833571Y-1883429D01*
X6847857Y-1812000D01*
X6847857Y-1754857D01*
X6833571Y-1683429D01*
X6819286Y-1640571D01*
X6805000Y-1612000D01*
X6776428Y-1569143D01*
X6762143Y-1554857D01*
X-24644Y-2193356D02*
X-24644Y-2122644D01*
X-95356Y-2122644D01*
X-95356Y-2193356D01*
X-24644Y-2193356D01*
X433571Y-2293714D02*
X262143Y-2293714D01*
X347857Y-2293714D02*
X347857Y-1993714D01*
X319286Y-2036571D01*
X290714Y-2065143D01*
X262143Y-2079429D01*
X562143Y-2265143D02*
X576428Y-2279429D01*
X562143Y-2293714D01*
X547857Y-2279429D01*
X562143Y-2265143D01*
X562143Y-2293714D01*
X762143Y-1993714D02*
X790714Y-1993714D01*
X819286Y-2008000D01*
X833571Y-2022286D01*
X847857Y-2050857D01*
X862143Y-2108000D01*
X862143Y-2179429D01*
X847857Y-2236572D01*
X833571Y-2265143D01*
X819286Y-2279429D01*
X790714Y-2293714D01*
X762143Y-2293714D01*
X733571Y-2279429D01*
X719286Y-2265143D01*
X705000Y-2236572D01*
X690714Y-2179429D01*
X690714Y-2108000D01*
X705000Y-2050857D01*
X719286Y-2022286D01*
X733571Y-2008000D01*
X762143Y-1993714D01*
X1047857Y-1993714D02*
X1076428Y-1993714D01*
X1105000Y-2008000D01*
X1119286Y-2022286D01*
X1133571Y-2050857D01*
X1147857Y-2108000D01*
X1147857Y-2179429D01*
X1133571Y-2236572D01*
X1119286Y-2265143D01*
X1105000Y-2279429D01*
X1076428Y-2293714D01*
X1047857Y-2293714D01*
X1019286Y-2279429D01*
X1005000Y-2265143D01*
X990714Y-2236572D01*
X976428Y-2179429D01*
X976428Y-2108000D01*
X990714Y-2050857D01*
X1005000Y-2022286D01*
X1019286Y-2008000D01*
X1047857Y-1993714D01*
X1276428Y-2293714D02*
X1276428Y-2093714D01*
X1276428Y-2122286D02*
X1290714Y-2108000D01*
X1319286Y-2093714D01*
X1362143Y-2093714D01*
X1390714Y-2108000D01*
X1405000Y-2136572D01*
X1405000Y-2293714D01*
X1405000Y-2136572D02*
X1419286Y-2108000D01*
X1447857Y-2093714D01*
X1490714Y-2093714D01*
X1519286Y-2108000D01*
X1533571Y-2136572D01*
X1533571Y-2293714D01*
X1676428Y-2293714D02*
X1676428Y-2093714D01*
X1676428Y-2122286D02*
X1690714Y-2108000D01*
X1719286Y-2093714D01*
X1762143Y-2093714D01*
X1790714Y-2108000D01*
X1805000Y-2136572D01*
X1805000Y-2293714D01*
X1805000Y-2136572D02*
X1819286Y-2108000D01*
X1847857Y-2093714D01*
X1890714Y-2093714D01*
X1919286Y-2108000D01*
X1933571Y-2136572D01*
X1933571Y-2293714D01*
X2519286Y-1979429D02*
X2262143Y-2365143D01*
X2905000Y-1993714D02*
X2933571Y-1993714D01*
X2962143Y-2008000D01*
X2976428Y-2022286D01*
X2990714Y-2050857D01*
X3005000Y-2108000D01*
X3005000Y-2179429D01*
X2990714Y-2236572D01*
X2976428Y-2265143D01*
X2962143Y-2279429D01*
X2933571Y-2293714D01*
X2905000Y-2293714D01*
X2876428Y-2279429D01*
X2862143Y-2265143D01*
X2847857Y-2236572D01*
X2833571Y-2179429D01*
X2833571Y-2108000D01*
X2847857Y-2050857D01*
X2862143Y-2022286D01*
X2876428Y-2008000D01*
X2905000Y-1993714D01*
X3133571Y-2265143D02*
X3147857Y-2279429D01*
X3133571Y-2293714D01*
X3119286Y-2279429D01*
X3133571Y-2265143D01*
X3133571Y-2293714D01*
X3333571Y-1993714D02*
X3362143Y-1993714D01*
X3390714Y-2008000D01*
X3405000Y-2022286D01*
X3419286Y-2050857D01*
X3433571Y-2108000D01*
X3433571Y-2179429D01*
X3419286Y-2236572D01*
X3405000Y-2265143D01*
X3390714Y-2279429D01*
X3362143Y-2293714D01*
X3333571Y-2293714D01*
X3305000Y-2279429D01*
X3290714Y-2265143D01*
X3276428Y-2236572D01*
X3262143Y-2179429D01*
X3262143Y-2108000D01*
X3276428Y-2050857D01*
X3290714Y-2022286D01*
X3305000Y-2008000D01*
X3333571Y-1993714D01*
X3533571Y-1993714D02*
X3719286Y-1993714D01*
X3619286Y-2108000D01*
X3662143Y-2108000D01*
X3690714Y-2122286D01*
X3705000Y-2136572D01*
X3719286Y-2165143D01*
X3719286Y-2236572D01*
X3705000Y-2265143D01*
X3690714Y-2279429D01*
X3662143Y-2293714D01*
X3576428Y-2293714D01*
X3547857Y-2279429D01*
X3533571Y-2265143D01*
X3862143Y-2293714D02*
X3919286Y-2293714D01*
X3947857Y-2279429D01*
X3962143Y-2265143D01*
X3990714Y-2222286D01*
X4005000Y-2165143D01*
X4005000Y-2050857D01*
X3990714Y-2022286D01*
X3976428Y-2008000D01*
X3947857Y-1993714D01*
X3890714Y-1993714D01*
X3862143Y-2008000D01*
X3847857Y-2022286D01*
X3833571Y-2050857D01*
X3833571Y-2122286D01*
X3847857Y-2150857D01*
X3862143Y-2165143D01*
X3890714Y-2179429D01*
X3947857Y-2179429D01*
X3976428Y-2165143D01*
X3990714Y-2150857D01*
X4005000Y-2122286D01*
X4119286Y-1993714D02*
X4119286Y-2050857D01*
X4233571Y-1993714D02*
X4233571Y-2050857D01*
X4676428Y-2408000D02*
X4662143Y-2393714D01*
X4633571Y-2350857D01*
X4619286Y-2322286D01*
X4605000Y-2279429D01*
X4590714Y-2208000D01*
X4590714Y-2150857D01*
X4605000Y-2079429D01*
X4619286Y-2036571D01*
X4633571Y-2008000D01*
X4662143Y-1965143D01*
X4676428Y-1950857D01*
X4947857Y-2293714D02*
X4776428Y-2293714D01*
X4862143Y-2293714D02*
X4862143Y-1993714D01*
X4833571Y-2036571D01*
X4805000Y-2065143D01*
X4776428Y-2079429D01*
X5062143Y-2022286D02*
X5076428Y-2008000D01*
X5105000Y-1993714D01*
X5176428Y-1993714D01*
X5205000Y-2008000D01*
X5219286Y-2022286D01*
X5233571Y-2050857D01*
X5233571Y-2079429D01*
X5219286Y-2122286D01*
X5047857Y-2293714D01*
X5233571Y-2293714D01*
X5347857Y-2022286D02*
X5362143Y-2008000D01*
X5390714Y-1993714D01*
X5462143Y-1993714D01*
X5490714Y-2008000D01*
X5505000Y-2022286D01*
X5519286Y-2050857D01*
X5519286Y-2079429D01*
X5505000Y-2122286D01*
X5333571Y-2293714D01*
X5519286Y-2293714D01*
X5876428Y-2293714D02*
X5876428Y-1993714D01*
X6005000Y-2293714D02*
X6005000Y-2136572D01*
X5990714Y-2108000D01*
X5962143Y-2093714D01*
X5919286Y-2093714D01*
X5890714Y-2108000D01*
X5876428Y-2122286D01*
X6190714Y-2293714D02*
X6162143Y-2279429D01*
X6147857Y-2265143D01*
X6133571Y-2236572D01*
X6133571Y-2150857D01*
X6147857Y-2122286D01*
X6162143Y-2108000D01*
X6190714Y-2093714D01*
X6233571Y-2093714D01*
X6262143Y-2108000D01*
X6276428Y-2122286D01*
X6290714Y-2150857D01*
X6290714Y-2236572D01*
X6276428Y-2265143D01*
X6262143Y-2279429D01*
X6233571Y-2293714D01*
X6190714Y-2293714D01*
X6462143Y-2293714D02*
X6433571Y-2279429D01*
X6419286Y-2250857D01*
X6419286Y-1993714D01*
X6690714Y-2279429D02*
X6662143Y-2293714D01*
X6605000Y-2293714D01*
X6576428Y-2279429D01*
X6562143Y-2250857D01*
X6562143Y-2136572D01*
X6576428Y-2108000D01*
X6605000Y-2093714D01*
X6662143Y-2093714D01*
X6690714Y-2108000D01*
X6705000Y-2136572D01*
X6705000Y-2165143D01*
X6562143Y-2193714D01*
X6819286Y-2279429D02*
X6847857Y-2293714D01*
X6905000Y-2293714D01*
X6933571Y-2279429D01*
X6947857Y-2250857D01*
X6947857Y-2236572D01*
X6933571Y-2208000D01*
X6905000Y-2193714D01*
X6862143Y-2193714D01*
X6833571Y-2179429D01*
X6819286Y-2150857D01*
X6819286Y-2136572D01*
X6833571Y-2108000D01*
X6862143Y-2093714D01*
X6905000Y-2093714D01*
X6933571Y-2108000D01*
X7047857Y-2408000D02*
X7062143Y-2393714D01*
X7090714Y-2350857D01*
X7105000Y-2322286D01*
X7119286Y-2279429D01*
X7133571Y-2208000D01*
X7133571Y-2150857D01*
X7119286Y-2079429D01*
X7105000Y-2036571D01*
X7090714Y-2008000D01*
X7062143Y-1965143D01*
X7047857Y-1950857D01*
M02*
