%TF.GenerationSoftware,KiCad,Pcbnew,(5.1.5)-3*%
%TF.CreationDate,2020-03-21T19:40:16+01:00*%
%TF.ProjectId,Larson SC64anner,4c617273-6f6e-4205-9343-3634616e6e65,rev?*%
%TF.SameCoordinates,PX1ba8140PY2625a00*%
%TF.FileFunction,Legend,Top*%
%TF.FilePolarity,Positive*%
%FSLAX46Y46*%
G04 Gerber Fmt 4.6, Leading zero omitted, Abs format (unit mm)*
G04 Created by KiCad (PCBNEW (5.1.5)-3) date 2020-03-21 19:40:16*
%MOMM*%
%LPD*%
G04 APERTURE LIST*
%ADD10C,0.300000*%
%ADD11C,0.120000*%
%ADD12C,0.150000*%
G04 APERTURE END LIST*
D10*
X226108214Y1221429D02*
X225393928Y1221429D01*
X225581428Y2721429D01*
X226545714Y1292858D02*
X226751071Y1221429D01*
X227108214Y1221429D01*
X227260000Y1292858D01*
X227340357Y1364286D01*
X227429642Y1507143D01*
X227447500Y1650000D01*
X227393928Y1792858D01*
X227331428Y1864286D01*
X227197500Y1935715D01*
X226920714Y2007143D01*
X226786785Y2078572D01*
X226724285Y2150000D01*
X226670714Y2292858D01*
X226688571Y2435715D01*
X226777857Y2578572D01*
X226858214Y2650000D01*
X227010000Y2721429D01*
X227367142Y2721429D01*
X227572500Y2650000D01*
X228911785Y1364286D02*
X228831428Y1292858D01*
X228608214Y1221429D01*
X228465357Y1221429D01*
X228260000Y1292858D01*
X228135000Y1435715D01*
X228081428Y1578572D01*
X228045714Y1864286D01*
X228072500Y2078572D01*
X228179642Y2364286D01*
X228268928Y2507143D01*
X228429642Y2650000D01*
X228652857Y2721429D01*
X228795714Y2721429D01*
X229001071Y2650000D01*
X229063571Y2578572D01*
X230367142Y2721429D02*
X230081428Y2721429D01*
X229929642Y2650000D01*
X229849285Y2578572D01*
X229679642Y2364286D01*
X229572500Y2078572D01*
X229501071Y1507143D01*
X229554642Y1364286D01*
X229617142Y1292858D01*
X229751071Y1221429D01*
X230036785Y1221429D01*
X230188571Y1292858D01*
X230268928Y1364286D01*
X230358214Y1507143D01*
X230402857Y1864286D01*
X230349285Y2007143D01*
X230286785Y2078572D01*
X230152857Y2150000D01*
X229867142Y2150000D01*
X229715357Y2078572D01*
X229635000Y2007143D01*
X229545714Y1864286D01*
X231733214Y2221429D02*
X231608214Y1221429D01*
X231447500Y2792858D02*
X230956428Y1721429D01*
X231885000Y1721429D01*
X233510000Y2721429D02*
X233822500Y1221429D01*
X234510000Y2721429D01*
X234920714Y2578572D02*
X235001071Y2650000D01*
X235152857Y2721429D01*
X235510000Y2721429D01*
X235643928Y2650000D01*
X235706428Y2578572D01*
X235760000Y2435715D01*
X235742142Y2292858D01*
X235643928Y2078572D01*
X234679642Y1221429D01*
X235608214Y1221429D01*
X236268928Y1364286D02*
X236331428Y1292858D01*
X236251071Y1221429D01*
X236188571Y1292858D01*
X236268928Y1364286D01*
X236251071Y1221429D01*
X237751071Y1221429D02*
X236893928Y1221429D01*
X237322500Y1221429D02*
X237510000Y2721429D01*
X237340357Y2507143D01*
X237179642Y2364286D01*
X237027857Y2292858D01*
X238715357Y2078572D02*
X238581428Y2150000D01*
X238518928Y2221429D01*
X238465357Y2364286D01*
X238474285Y2435715D01*
X238563571Y2578572D01*
X238643928Y2650000D01*
X238795714Y2721429D01*
X239081428Y2721429D01*
X239215357Y2650000D01*
X239277857Y2578572D01*
X239331428Y2435715D01*
X239322500Y2364286D01*
X239233214Y2221429D01*
X239152857Y2150000D01*
X239001071Y2078572D01*
X238715357Y2078572D01*
X238563571Y2007143D01*
X238483214Y1935715D01*
X238393928Y1792858D01*
X238358214Y1507143D01*
X238411785Y1364286D01*
X238474285Y1292858D01*
X238608214Y1221429D01*
X238893928Y1221429D01*
X239045714Y1292858D01*
X239126071Y1364286D01*
X239215357Y1507143D01*
X239251071Y1792858D01*
X239197500Y1935715D01*
X239135000Y2007143D01*
X239001071Y2078572D01*
X241036785Y1792858D02*
X242179642Y1792858D01*
X243965357Y1221429D02*
X244152857Y2721429D01*
X244081428Y2150000D02*
X244233214Y2221429D01*
X244518928Y2221429D01*
X244652857Y2150000D01*
X244715357Y2078572D01*
X244768928Y1935715D01*
X244715357Y1507143D01*
X244626071Y1364286D01*
X244545714Y1292858D01*
X244393928Y1221429D01*
X244108214Y1221429D01*
X243974285Y1292858D01*
X245304642Y2221429D02*
X245536785Y1221429D01*
X246018928Y2221429D02*
X245536785Y1221429D01*
X245349285Y864286D01*
X245268928Y792858D01*
X245117142Y721429D01*
X248572500Y2650000D02*
X248438571Y2721429D01*
X248224285Y2721429D01*
X248001071Y2650000D01*
X247840357Y2507143D01*
X247751071Y2364286D01*
X247643928Y2078572D01*
X247617142Y1864286D01*
X247652857Y1578572D01*
X247706428Y1435715D01*
X247831428Y1292858D01*
X248036785Y1221429D01*
X248179642Y1221429D01*
X248402857Y1292858D01*
X248483214Y1364286D01*
X248545714Y1864286D01*
X248260000Y1864286D01*
X249108214Y1221429D02*
X249233214Y2221429D01*
X249197500Y1935715D02*
X249286785Y2078572D01*
X249367142Y2150000D01*
X249518928Y2221429D01*
X249661785Y2221429D01*
X250036785Y1221429D02*
X250161785Y2221429D01*
X250224285Y2721429D02*
X250143928Y2650000D01*
X250206428Y2578572D01*
X250286785Y2650000D01*
X250224285Y2721429D01*
X250206428Y2578572D01*
X251331428Y1292858D02*
X251179642Y1221429D01*
X250893928Y1221429D01*
X250760000Y1292858D01*
X250706428Y1435715D01*
X250777857Y2007143D01*
X250867142Y2150000D01*
X251018928Y2221429D01*
X251304642Y2221429D01*
X251438571Y2150000D01*
X251492142Y2007143D01*
X251474285Y1864286D01*
X250742142Y1721429D01*
X251947500Y2221429D02*
X252518928Y2221429D01*
X252036785Y1221429D02*
X252197500Y2507143D01*
X252286785Y2650000D01*
X252438571Y2721429D01*
X252581428Y2721429D01*
X253474285Y1292858D02*
X253322500Y1221429D01*
X253036785Y1221429D01*
X252902857Y1292858D01*
X252849285Y1435715D01*
X252920714Y2007143D01*
X253010000Y2150000D01*
X253161785Y2221429D01*
X253447500Y2221429D01*
X253581428Y2150000D01*
X253635000Y2007143D01*
X253617142Y1864286D01*
X252885000Y1721429D01*
X254822500Y1221429D02*
X255010000Y2721429D01*
X254831428Y1292858D02*
X254679642Y1221429D01*
X254393928Y1221429D01*
X254260000Y1292858D01*
X254197500Y1364286D01*
X254143928Y1507143D01*
X254197500Y1935715D01*
X254286785Y2078572D01*
X254367142Y2150000D01*
X254518928Y2221429D01*
X254804642Y2221429D01*
X254938571Y2150000D01*
X256751071Y1792858D02*
X257893928Y1792858D01*
X259679642Y1221429D02*
X259867142Y2721429D01*
X260322500Y1221429D02*
X260420714Y2007143D01*
X260367142Y2150000D01*
X260233214Y2221429D01*
X260018928Y2221429D01*
X259867142Y2150000D01*
X259786785Y2078572D01*
X260947500Y2221429D02*
X261518928Y2221429D01*
X261224285Y2721429D02*
X261063571Y1435715D01*
X261117142Y1292858D01*
X261251071Y1221429D01*
X261393928Y1221429D01*
X261804642Y2221429D02*
X262376071Y2221429D01*
X262081428Y2721429D02*
X261920714Y1435715D01*
X261974285Y1292858D01*
X262108214Y1221429D01*
X262251071Y1221429D01*
X262876071Y2221429D02*
X262688571Y721429D01*
X262867142Y2150000D02*
X263018928Y2221429D01*
X263304642Y2221429D01*
X263438571Y2150000D01*
X263501071Y2078572D01*
X263554642Y1935715D01*
X263501071Y1507143D01*
X263411785Y1364286D01*
X263331428Y1292858D01*
X263179642Y1221429D01*
X262893928Y1221429D01*
X262760000Y1292858D01*
X264045714Y1292858D02*
X264179642Y1221429D01*
X264465357Y1221429D01*
X264617142Y1292858D01*
X264706428Y1435715D01*
X264715357Y1507143D01*
X264661785Y1650000D01*
X264527857Y1721429D01*
X264313571Y1721429D01*
X264179642Y1792858D01*
X264126071Y1935715D01*
X264135000Y2007143D01*
X264224285Y2150000D01*
X264376071Y2221429D01*
X264590357Y2221429D01*
X264724285Y2150000D01*
X265340357Y1364286D02*
X265402857Y1292858D01*
X265322500Y1221429D01*
X265260000Y1292858D01*
X265340357Y1364286D01*
X265322500Y1221429D01*
X265438571Y2150000D02*
X265501071Y2078572D01*
X265420714Y2007143D01*
X265358214Y2078572D01*
X265438571Y2150000D01*
X265420714Y2007143D01*
X267304642Y2792858D02*
X265777857Y864286D01*
X268876071Y2792858D02*
X267349285Y864286D01*
X269947500Y2221429D02*
X269795714Y1007143D01*
X269706428Y864286D01*
X269626071Y792858D01*
X269474285Y721429D01*
X269260000Y721429D01*
X269126071Y792858D01*
X269831428Y1292858D02*
X269679642Y1221429D01*
X269393928Y1221429D01*
X269260000Y1292858D01*
X269197500Y1364286D01*
X269143928Y1507143D01*
X269197500Y1935715D01*
X269286785Y2078572D01*
X269367142Y2150000D01*
X269518928Y2221429D01*
X269804642Y2221429D01*
X269938571Y2150000D01*
X270536785Y1221429D02*
X270661785Y2221429D01*
X270724285Y2721429D02*
X270643928Y2650000D01*
X270706428Y2578572D01*
X270786785Y2650000D01*
X270724285Y2721429D01*
X270706428Y2578572D01*
X271161785Y2221429D02*
X271733214Y2221429D01*
X271438571Y2721429D02*
X271277857Y1435715D01*
X271331428Y1292858D01*
X271465357Y1221429D01*
X271608214Y1221429D01*
X272108214Y1221429D02*
X272295714Y2721429D01*
X272751071Y1221429D02*
X272849285Y2007143D01*
X272795714Y2150000D01*
X272661785Y2221429D01*
X272447500Y2221429D01*
X272295714Y2150000D01*
X272215357Y2078572D01*
X274233214Y2221429D02*
X274108214Y1221429D01*
X273590357Y2221429D02*
X273492142Y1435715D01*
X273545714Y1292858D01*
X273679642Y1221429D01*
X273893928Y1221429D01*
X274045714Y1292858D01*
X274126071Y1364286D01*
X274822500Y1221429D02*
X275010000Y2721429D01*
X274938571Y2150000D02*
X275090357Y2221429D01*
X275376071Y2221429D01*
X275510000Y2150000D01*
X275572500Y2078572D01*
X275626071Y1935715D01*
X275572500Y1507143D01*
X275483214Y1364286D01*
X275402857Y1292858D01*
X275251071Y1221429D01*
X274965357Y1221429D01*
X274831428Y1292858D01*
X276197500Y1364286D02*
X276260000Y1292858D01*
X276179642Y1221429D01*
X276117142Y1292858D01*
X276197500Y1364286D01*
X276179642Y1221429D01*
X277545714Y1292858D02*
X277393928Y1221429D01*
X277108214Y1221429D01*
X276974285Y1292858D01*
X276911785Y1364286D01*
X276858214Y1507143D01*
X276911785Y1935715D01*
X277001071Y2078572D01*
X277081428Y2150000D01*
X277233214Y2221429D01*
X277518928Y2221429D01*
X277652857Y2150000D01*
X278393928Y1221429D02*
X278260000Y1292858D01*
X278197500Y1364286D01*
X278143928Y1507143D01*
X278197500Y1935715D01*
X278286785Y2078572D01*
X278367142Y2150000D01*
X278518928Y2221429D01*
X278733214Y2221429D01*
X278867142Y2150000D01*
X278929642Y2078572D01*
X278983214Y1935715D01*
X278929642Y1507143D01*
X278840357Y1364286D01*
X278760000Y1292858D01*
X278608214Y1221429D01*
X278393928Y1221429D01*
X279536785Y1221429D02*
X279661785Y2221429D01*
X279643928Y2078572D02*
X279724285Y2150000D01*
X279876071Y2221429D01*
X280090357Y2221429D01*
X280224285Y2150000D01*
X280277857Y2007143D01*
X280179642Y1221429D01*
X280277857Y2007143D02*
X280367142Y2150000D01*
X280518928Y2221429D01*
X280733214Y2221429D01*
X280867142Y2150000D01*
X280920714Y2007143D01*
X280822500Y1221429D01*
X282804642Y2792858D02*
X281277857Y864286D01*
X284072500Y2650000D02*
X283938571Y2721429D01*
X283724285Y2721429D01*
X283501071Y2650000D01*
X283340357Y2507143D01*
X283251071Y2364286D01*
X283143928Y2078572D01*
X283117142Y1864286D01*
X283152857Y1578572D01*
X283206428Y1435715D01*
X283331428Y1292858D01*
X283536785Y1221429D01*
X283679642Y1221429D01*
X283902857Y1292858D01*
X283983214Y1364286D01*
X284045714Y1864286D01*
X283760000Y1864286D01*
X284608214Y1221429D02*
X284733214Y2221429D01*
X284697500Y1935715D02*
X284786785Y2078572D01*
X284867142Y2150000D01*
X285018928Y2221429D01*
X285161785Y2221429D01*
X285536785Y1221429D02*
X285661785Y2221429D01*
X285724285Y2721429D02*
X285643928Y2650000D01*
X285706428Y2578572D01*
X285786785Y2650000D01*
X285724285Y2721429D01*
X285706428Y2578572D01*
X286831428Y1292858D02*
X286679642Y1221429D01*
X286393928Y1221429D01*
X286260000Y1292858D01*
X286206428Y1435715D01*
X286277857Y2007143D01*
X286367142Y2150000D01*
X286518928Y2221429D01*
X286804642Y2221429D01*
X286938571Y2150000D01*
X286992142Y2007143D01*
X286974285Y1864286D01*
X286242142Y1721429D01*
X287447500Y2221429D02*
X288018928Y2221429D01*
X287536785Y1221429D02*
X287697500Y2507143D01*
X287786785Y2650000D01*
X287938571Y2721429D01*
X288081428Y2721429D01*
X288974285Y1292858D02*
X288822500Y1221429D01*
X288536785Y1221429D01*
X288402857Y1292858D01*
X288349285Y1435715D01*
X288420714Y2007143D01*
X288510000Y2150000D01*
X288661785Y2221429D01*
X288947500Y2221429D01*
X289081428Y2150000D01*
X289135000Y2007143D01*
X289117142Y1864286D01*
X288385000Y1721429D01*
X290322500Y1221429D02*
X290510000Y2721429D01*
X290331428Y1292858D02*
X290179642Y1221429D01*
X289893928Y1221429D01*
X289760000Y1292858D01*
X289697500Y1364286D01*
X289643928Y1507143D01*
X289697500Y1935715D01*
X289786785Y2078572D01*
X289867142Y2150000D01*
X290018928Y2221429D01*
X290304642Y2221429D01*
X290438571Y2150000D01*
X292304642Y2792858D02*
X290777857Y864286D01*
X293322500Y1221429D02*
X292608214Y1221429D01*
X292795714Y2721429D01*
X293760000Y1292858D02*
X293965357Y1221429D01*
X294322500Y1221429D01*
X294474285Y1292858D01*
X294554642Y1364286D01*
X294643928Y1507143D01*
X294661785Y1650000D01*
X294608214Y1792858D01*
X294545714Y1864286D01*
X294411785Y1935715D01*
X294135000Y2007143D01*
X294001071Y2078572D01*
X293938571Y2150000D01*
X293885000Y2292858D01*
X293902857Y2435715D01*
X293992142Y2578572D01*
X294072500Y2650000D01*
X294224285Y2721429D01*
X294581428Y2721429D01*
X294786785Y2650000D01*
X296126071Y1364286D02*
X296045714Y1292858D01*
X295822500Y1221429D01*
X295679642Y1221429D01*
X295474285Y1292858D01*
X295349285Y1435715D01*
X295295714Y1578572D01*
X295260000Y1864286D01*
X295286785Y2078572D01*
X295393928Y2364286D01*
X295483214Y2507143D01*
X295643928Y2650000D01*
X295867142Y2721429D01*
X296010000Y2721429D01*
X296215357Y2650000D01*
X296277857Y2578572D01*
X297581428Y2721429D02*
X297295714Y2721429D01*
X297143928Y2650000D01*
X297063571Y2578572D01*
X296893928Y2364286D01*
X296786785Y2078572D01*
X296715357Y1507143D01*
X296768928Y1364286D01*
X296831428Y1292858D01*
X296965357Y1221429D01*
X297251071Y1221429D01*
X297402857Y1292858D01*
X297483214Y1364286D01*
X297572500Y1507143D01*
X297617142Y1864286D01*
X297563571Y2007143D01*
X297501071Y2078572D01*
X297367142Y2150000D01*
X297081428Y2150000D01*
X296929642Y2078572D01*
X296849285Y2007143D01*
X296760000Y1864286D01*
X298947500Y2221429D02*
X298822500Y1221429D01*
X298661785Y2792858D02*
X298170714Y1721429D01*
X299099285Y1721429D01*
D11*
%TO.C,R8*%
X231000000Y11870000D02*
X231000000Y11800000D01*
X232370000Y13240000D02*
G75*
G03X232370000Y13240000I-1370000J0D01*
G01*
%TO.C,U1*%
X377050000Y12160000D02*
X377050000Y10510000D01*
X387330000Y12160000D02*
X377050000Y12160000D01*
X387330000Y6860000D02*
X387330000Y12160000D01*
X377050000Y6860000D02*
X387330000Y6860000D01*
X377050000Y8510000D02*
X377050000Y6860000D01*
X377050000Y10510000D02*
G75*
G02X377050000Y8510000I0J-1000000D01*
G01*
%TO.C,R1*%
X364000000Y11870000D02*
X364000000Y11800000D01*
X365370000Y13240000D02*
G75*
G03X365370000Y13240000I-1370000J0D01*
G01*
%TO.C,R25*%
X263630000Y16700000D02*
X263560000Y16700000D01*
X266370000Y16700000D02*
G75*
G03X266370000Y16700000I-1370000J0D01*
G01*
%TO.C,R24*%
X301630000Y16700000D02*
X301560000Y16700000D01*
X304370000Y16700000D02*
G75*
G03X304370000Y16700000I-1370000J0D01*
G01*
%TO.C,R23*%
X339630000Y16700000D02*
X339560000Y16700000D01*
X342370000Y16700000D02*
G75*
G03X342370000Y16700000I-1370000J0D01*
G01*
%TO.C,R22*%
X377830000Y16700000D02*
X377900000Y16700000D01*
X377830000Y16700000D02*
G75*
G03X377830000Y16700000I-1370000J0D01*
G01*
%TO.C,R21*%
X385370000Y2700000D02*
X385440000Y2700000D01*
X385370000Y2700000D02*
G75*
G03X385370000Y2700000I-1370000J0D01*
G01*
%TO.C,LED1*%
X366409202Y14223999D02*
G75*
G02X366409201Y11176001I2539998J-1523999D01*
G01*
%TO.C,J21*%
X387330000Y18030000D02*
X387330000Y16700000D01*
X386000000Y18030000D02*
X387330000Y18030000D01*
X384730000Y18030000D02*
X384730000Y15370000D01*
X384730000Y15370000D02*
X382130000Y15370000D01*
X384730000Y18030000D02*
X382130000Y18030000D01*
X382130000Y18030000D02*
X382130000Y15370000D01*
%TO.C,J1*%
X364670000Y3370000D02*
X364670000Y4700000D01*
X366000000Y3370000D02*
X364670000Y3370000D01*
X364670000Y5970000D02*
X364670000Y8570000D01*
X367270000Y5970000D02*
X364670000Y5970000D01*
X367270000Y3370000D02*
X367270000Y5970000D01*
X364670000Y8570000D02*
X372410000Y8570000D01*
X367270000Y3370000D02*
X372410000Y3370000D01*
X372410000Y3370000D02*
X372410000Y8570000D01*
%TO.C,J2*%
X345670000Y3370000D02*
X345670000Y4700000D01*
X347000000Y3370000D02*
X345670000Y3370000D01*
X345670000Y5970000D02*
X345670000Y8570000D01*
X348270000Y5970000D02*
X345670000Y5970000D01*
X348270000Y3370000D02*
X348270000Y5970000D01*
X345670000Y8570000D02*
X353410000Y8570000D01*
X348270000Y3370000D02*
X353410000Y3370000D01*
X353410000Y3370000D02*
X353410000Y8570000D01*
%TO.C,J3*%
X326670000Y3370000D02*
X326670000Y4700000D01*
X328000000Y3370000D02*
X326670000Y3370000D01*
X326670000Y5970000D02*
X326670000Y8570000D01*
X329270000Y5970000D02*
X326670000Y5970000D01*
X329270000Y3370000D02*
X329270000Y5970000D01*
X326670000Y8570000D02*
X334410000Y8570000D01*
X329270000Y3370000D02*
X334410000Y3370000D01*
X334410000Y3370000D02*
X334410000Y8570000D01*
%TO.C,J4*%
X307590000Y3370000D02*
X307590000Y4700000D01*
X308920000Y3370000D02*
X307590000Y3370000D01*
X307590000Y5970000D02*
X307590000Y8570000D01*
X310190000Y5970000D02*
X307590000Y5970000D01*
X310190000Y3370000D02*
X310190000Y5970000D01*
X307590000Y8570000D02*
X315330000Y8570000D01*
X310190000Y3370000D02*
X315330000Y3370000D01*
X315330000Y3370000D02*
X315330000Y8570000D01*
%TO.C,J5*%
X288670000Y3370000D02*
X288670000Y4700000D01*
X290000000Y3370000D02*
X288670000Y3370000D01*
X288670000Y5970000D02*
X288670000Y8570000D01*
X291270000Y5970000D02*
X288670000Y5970000D01*
X291270000Y3370000D02*
X291270000Y5970000D01*
X288670000Y8570000D02*
X296410000Y8570000D01*
X291270000Y3370000D02*
X296410000Y3370000D01*
X296410000Y3370000D02*
X296410000Y8570000D01*
%TO.C,J6*%
X269670000Y3370000D02*
X269670000Y4700000D01*
X271000000Y3370000D02*
X269670000Y3370000D01*
X269670000Y5970000D02*
X269670000Y8570000D01*
X272270000Y5970000D02*
X269670000Y5970000D01*
X272270000Y3370000D02*
X272270000Y5970000D01*
X269670000Y8570000D02*
X277410000Y8570000D01*
X272270000Y3370000D02*
X277410000Y3370000D01*
X277410000Y3370000D02*
X277410000Y8570000D01*
%TO.C,J7*%
X250670000Y3370000D02*
X250670000Y4700000D01*
X252000000Y3370000D02*
X250670000Y3370000D01*
X250670000Y5970000D02*
X250670000Y8570000D01*
X253270000Y5970000D02*
X250670000Y5970000D01*
X253270000Y3370000D02*
X253270000Y5970000D01*
X250670000Y8570000D02*
X258410000Y8570000D01*
X253270000Y3370000D02*
X258410000Y3370000D01*
X258410000Y3370000D02*
X258410000Y8570000D01*
%TO.C,J8*%
X231590000Y3370000D02*
X231590000Y4700000D01*
X232920000Y3370000D02*
X231590000Y3370000D01*
X231590000Y5970000D02*
X231590000Y8570000D01*
X234190000Y5970000D02*
X231590000Y5970000D01*
X234190000Y3370000D02*
X234190000Y5970000D01*
X231590000Y8570000D02*
X239330000Y8570000D01*
X234190000Y3370000D02*
X239330000Y3370000D01*
X239330000Y3370000D02*
X239330000Y8570000D01*
%TO.C,J9*%
X212670000Y3370000D02*
X212670000Y4700000D01*
X214000000Y3370000D02*
X212670000Y3370000D01*
X212670000Y5970000D02*
X212670000Y8570000D01*
X215270000Y5970000D02*
X212670000Y5970000D01*
X215270000Y3370000D02*
X215270000Y5970000D01*
X212670000Y8570000D02*
X220410000Y8570000D01*
X215270000Y3370000D02*
X220410000Y3370000D01*
X220410000Y3370000D02*
X220410000Y8570000D01*
%TO.C,J10*%
X193590000Y3370000D02*
X193590000Y4700000D01*
X194920000Y3370000D02*
X193590000Y3370000D01*
X193590000Y5970000D02*
X193590000Y8570000D01*
X196190000Y5970000D02*
X193590000Y5970000D01*
X196190000Y3370000D02*
X196190000Y5970000D01*
X193590000Y8570000D02*
X201330000Y8570000D01*
X196190000Y3370000D02*
X201330000Y3370000D01*
X201330000Y3370000D02*
X201330000Y8570000D01*
%TO.C,J11*%
X174590000Y3370000D02*
X174590000Y4700000D01*
X175920000Y3370000D02*
X174590000Y3370000D01*
X174590000Y5970000D02*
X174590000Y8570000D01*
X177190000Y5970000D02*
X174590000Y5970000D01*
X177190000Y3370000D02*
X177190000Y5970000D01*
X174590000Y8570000D02*
X182330000Y8570000D01*
X177190000Y3370000D02*
X182330000Y3370000D01*
X182330000Y3370000D02*
X182330000Y8570000D01*
%TO.C,J12*%
X155590000Y3370000D02*
X155590000Y4700000D01*
X156920000Y3370000D02*
X155590000Y3370000D01*
X155590000Y5970000D02*
X155590000Y8570000D01*
X158190000Y5970000D02*
X155590000Y5970000D01*
X158190000Y3370000D02*
X158190000Y5970000D01*
X155590000Y8570000D02*
X163330000Y8570000D01*
X158190000Y3370000D02*
X163330000Y3370000D01*
X163330000Y3370000D02*
X163330000Y8570000D01*
%TO.C,J13*%
X136590000Y3370000D02*
X136590000Y4700000D01*
X137920000Y3370000D02*
X136590000Y3370000D01*
X136590000Y5970000D02*
X136590000Y8570000D01*
X139190000Y5970000D02*
X136590000Y5970000D01*
X139190000Y3370000D02*
X139190000Y5970000D01*
X136590000Y8570000D02*
X144330000Y8570000D01*
X139190000Y3370000D02*
X144330000Y3370000D01*
X144330000Y3370000D02*
X144330000Y8570000D01*
%TO.C,J14*%
X117590000Y3370000D02*
X117590000Y4700000D01*
X118920000Y3370000D02*
X117590000Y3370000D01*
X117590000Y5970000D02*
X117590000Y8570000D01*
X120190000Y5970000D02*
X117590000Y5970000D01*
X120190000Y3370000D02*
X120190000Y5970000D01*
X117590000Y8570000D02*
X125330000Y8570000D01*
X120190000Y3370000D02*
X125330000Y3370000D01*
X125330000Y3370000D02*
X125330000Y8570000D01*
%TO.C,J15*%
X98590000Y3370000D02*
X98590000Y4700000D01*
X99920000Y3370000D02*
X98590000Y3370000D01*
X98590000Y5970000D02*
X98590000Y8570000D01*
X101190000Y5970000D02*
X98590000Y5970000D01*
X101190000Y3370000D02*
X101190000Y5970000D01*
X98590000Y8570000D02*
X106330000Y8570000D01*
X101190000Y3370000D02*
X106330000Y3370000D01*
X106330000Y3370000D02*
X106330000Y8570000D01*
%TO.C,J16*%
X79590000Y3370000D02*
X79590000Y4700000D01*
X80920000Y3370000D02*
X79590000Y3370000D01*
X79590000Y5970000D02*
X79590000Y8570000D01*
X82190000Y5970000D02*
X79590000Y5970000D01*
X82190000Y3370000D02*
X82190000Y5970000D01*
X79590000Y8570000D02*
X87330000Y8570000D01*
X82190000Y3370000D02*
X87330000Y3370000D01*
X87330000Y3370000D02*
X87330000Y8570000D01*
%TO.C,J17*%
X60590000Y3370000D02*
X60590000Y4700000D01*
X61920000Y3370000D02*
X60590000Y3370000D01*
X60590000Y5970000D02*
X60590000Y8570000D01*
X63190000Y5970000D02*
X60590000Y5970000D01*
X63190000Y3370000D02*
X63190000Y5970000D01*
X60590000Y8570000D02*
X68330000Y8570000D01*
X63190000Y3370000D02*
X68330000Y3370000D01*
X68330000Y3370000D02*
X68330000Y8570000D01*
%TO.C,J18*%
X41590000Y3370000D02*
X41590000Y4700000D01*
X42920000Y3370000D02*
X41590000Y3370000D01*
X41590000Y5970000D02*
X41590000Y8570000D01*
X44190000Y5970000D02*
X41590000Y5970000D01*
X44190000Y3370000D02*
X44190000Y5970000D01*
X41590000Y8570000D02*
X49330000Y8570000D01*
X44190000Y3370000D02*
X49330000Y3370000D01*
X49330000Y3370000D02*
X49330000Y8570000D01*
%TO.C,J19*%
X22590000Y3370000D02*
X22590000Y4700000D01*
X23920000Y3370000D02*
X22590000Y3370000D01*
X22590000Y5970000D02*
X22590000Y8570000D01*
X25190000Y5970000D02*
X22590000Y5970000D01*
X25190000Y3370000D02*
X25190000Y5970000D01*
X22590000Y8570000D02*
X30330000Y8570000D01*
X25190000Y3370000D02*
X30330000Y3370000D01*
X30330000Y3370000D02*
X30330000Y8570000D01*
%TO.C,J20*%
X3590000Y3370000D02*
X3590000Y4700000D01*
X4920000Y3370000D02*
X3590000Y3370000D01*
X3590000Y5970000D02*
X3590000Y8570000D01*
X6190000Y5970000D02*
X3590000Y5970000D01*
X6190000Y3370000D02*
X6190000Y5970000D01*
X3590000Y8570000D02*
X11330000Y8570000D01*
X6190000Y3370000D02*
X11330000Y3370000D01*
X11330000Y3370000D02*
X11330000Y8570000D01*
%TO.C,LED2*%
X347409202Y14223999D02*
G75*
G02X347409201Y11176001I2539998J-1523999D01*
G01*
%TO.C,LED3*%
X328409202Y14223999D02*
G75*
G02X328409201Y11176001I2539998J-1523999D01*
G01*
%TO.C,LED4*%
X309409202Y14223999D02*
G75*
G02X309409201Y11176001I2539998J-1523999D01*
G01*
%TO.C,LED5*%
X290409202Y14223999D02*
G75*
G02X290409201Y11176001I2539998J-1523999D01*
G01*
%TO.C,LED6*%
X271409202Y14223999D02*
G75*
G02X271409201Y11176001I2539998J-1523999D01*
G01*
%TO.C,LED7*%
X252409202Y14223999D02*
G75*
G02X252409201Y11176001I2539998J-1523999D01*
G01*
%TO.C,LED8*%
X233409202Y14223999D02*
G75*
G02X233409201Y11176001I2539998J-1523999D01*
G01*
%TO.C,LED9*%
X214409202Y14223999D02*
G75*
G02X214409201Y11176001I2539998J-1523999D01*
G01*
%TO.C,LED10*%
X195409202Y14223999D02*
G75*
G02X195409201Y11176001I2539998J-1523999D01*
G01*
%TO.C,LED11*%
X176409202Y14223999D02*
G75*
G02X176409201Y11176001I2539998J-1523999D01*
G01*
%TO.C,LED12*%
X157409202Y14223999D02*
G75*
G02X157409201Y11176001I2539998J-1523999D01*
G01*
%TO.C,LED13*%
X138409202Y14223999D02*
G75*
G02X138409201Y11176001I2539998J-1523999D01*
G01*
%TO.C,LED14*%
X119409202Y14223999D02*
G75*
G02X119409201Y11176001I2539998J-1523999D01*
G01*
%TO.C,LED15*%
X100409202Y14223999D02*
G75*
G02X100409201Y11176001I2539998J-1523999D01*
G01*
%TO.C,LED16*%
X81409202Y14223999D02*
G75*
G02X81409201Y11176001I2539998J-1523999D01*
G01*
%TO.C,LED17*%
X62409202Y14223999D02*
G75*
G02X62409201Y11176001I2539998J-1523999D01*
G01*
%TO.C,LED18*%
X43409202Y14223999D02*
G75*
G02X43409201Y11176001I2539998J-1523999D01*
G01*
%TO.C,LED19*%
X24409202Y14223999D02*
G75*
G02X24409201Y11176001I2539998J-1523999D01*
G01*
%TO.C,LED20*%
X5409202Y14223999D02*
G75*
G02X5409201Y11176001I2539998J-1523999D01*
G01*
%TO.C,R2*%
X345000000Y11870000D02*
X345000000Y11800000D01*
X346370000Y13240000D02*
G75*
G03X346370000Y13240000I-1370000J0D01*
G01*
%TO.C,R3*%
X326000000Y11870000D02*
X326000000Y11800000D01*
X327370000Y13240000D02*
G75*
G03X327370000Y13240000I-1370000J0D01*
G01*
%TO.C,R4*%
X307000000Y11870000D02*
X307000000Y11800000D01*
X308370000Y13240000D02*
G75*
G03X308370000Y13240000I-1370000J0D01*
G01*
%TO.C,R5*%
X288000000Y11870000D02*
X288000000Y11800000D01*
X289370000Y13240000D02*
G75*
G03X289370000Y13240000I-1370000J0D01*
G01*
%TO.C,R6*%
X269000000Y11870000D02*
X269000000Y11800000D01*
X270370000Y13240000D02*
G75*
G03X270370000Y13240000I-1370000J0D01*
G01*
%TO.C,R7*%
X250000000Y11870000D02*
X250000000Y11800000D01*
X251370000Y13240000D02*
G75*
G03X251370000Y13240000I-1370000J0D01*
G01*
%TO.C,R9*%
X212000000Y11870000D02*
X212000000Y11800000D01*
X213370000Y13240000D02*
G75*
G03X213370000Y13240000I-1370000J0D01*
G01*
%TO.C,R10*%
X193000000Y11870000D02*
X193000000Y11800000D01*
X194370000Y13240000D02*
G75*
G03X194370000Y13240000I-1370000J0D01*
G01*
%TO.C,R11*%
X174000000Y11870000D02*
X174000000Y11800000D01*
X175370000Y13240000D02*
G75*
G03X175370000Y13240000I-1370000J0D01*
G01*
%TO.C,R12*%
X155000000Y11870000D02*
X155000000Y11800000D01*
X156370000Y13240000D02*
G75*
G03X156370000Y13240000I-1370000J0D01*
G01*
%TO.C,R13*%
X136000000Y11870000D02*
X136000000Y11800000D01*
X137370000Y13240000D02*
G75*
G03X137370000Y13240000I-1370000J0D01*
G01*
%TO.C,R14*%
X117000000Y11870000D02*
X117000000Y11800000D01*
X118370000Y13240000D02*
G75*
G03X118370000Y13240000I-1370000J0D01*
G01*
%TO.C,R15*%
X98000000Y11870000D02*
X98000000Y11800000D01*
X99370000Y13240000D02*
G75*
G03X99370000Y13240000I-1370000J0D01*
G01*
%TO.C,R16*%
X79000000Y11870000D02*
X79000000Y11800000D01*
X80370000Y13240000D02*
G75*
G03X80370000Y13240000I-1370000J0D01*
G01*
%TO.C,R17*%
X60000000Y11870000D02*
X60000000Y11800000D01*
X61370000Y13240000D02*
G75*
G03X61370000Y13240000I-1370000J0D01*
G01*
%TO.C,R18*%
X41000000Y11870000D02*
X41000000Y11800000D01*
X42370000Y13240000D02*
G75*
G03X42370000Y13240000I-1370000J0D01*
G01*
%TO.C,R19*%
X22000000Y11870000D02*
X22000000Y11800000D01*
X23370000Y13240000D02*
G75*
G03X23370000Y13240000I-1370000J0D01*
G01*
%TO.C,R20*%
X3000000Y11870000D02*
X3000000Y11800000D01*
X4370000Y13240000D02*
G75*
G03X4370000Y13240000I-1370000J0D01*
G01*
%TD*%
%TO.C,R8*%
D12*
X230833333Y15247620D02*
X230500000Y15723810D01*
X230261904Y15247620D02*
X230261904Y16247620D01*
X230642857Y16247620D01*
X230738095Y16200000D01*
X230785714Y16152381D01*
X230833333Y16057143D01*
X230833333Y15914286D01*
X230785714Y15819048D01*
X230738095Y15771429D01*
X230642857Y15723810D01*
X230261904Y15723810D01*
X231404761Y15819048D02*
X231309523Y15866667D01*
X231261904Y15914286D01*
X231214285Y16009524D01*
X231214285Y16057143D01*
X231261904Y16152381D01*
X231309523Y16200000D01*
X231404761Y16247620D01*
X231595238Y16247620D01*
X231690476Y16200000D01*
X231738095Y16152381D01*
X231785714Y16057143D01*
X231785714Y16009524D01*
X231738095Y15914286D01*
X231690476Y15866667D01*
X231595238Y15819048D01*
X231404761Y15819048D01*
X231309523Y15771429D01*
X231261904Y15723810D01*
X231214285Y15628572D01*
X231214285Y15438096D01*
X231261904Y15342858D01*
X231309523Y15295239D01*
X231404761Y15247620D01*
X231595238Y15247620D01*
X231690476Y15295239D01*
X231738095Y15342858D01*
X231785714Y15438096D01*
X231785714Y15628572D01*
X231738095Y15723810D01*
X231690476Y15771429D01*
X231595238Y15819048D01*
%TO.C,U1*%
X375502380Y8748096D02*
X376311904Y8748096D01*
X376407142Y8795715D01*
X376454761Y8843334D01*
X376502380Y8938572D01*
X376502380Y9129048D01*
X376454761Y9224286D01*
X376407142Y9271905D01*
X376311904Y9319524D01*
X375502380Y9319524D01*
X376502380Y10319524D02*
X376502380Y9748096D01*
X376502380Y10033810D02*
X375502380Y10033810D01*
X375645238Y9938572D01*
X375740476Y9843334D01*
X375788095Y9748096D01*
%TO.C,R1*%
X363833333Y15247620D02*
X363500000Y15723810D01*
X363261904Y15247620D02*
X363261904Y16247620D01*
X363642857Y16247620D01*
X363738095Y16200000D01*
X363785714Y16152381D01*
X363833333Y16057143D01*
X363833333Y15914286D01*
X363785714Y15819048D01*
X363738095Y15771429D01*
X363642857Y15723810D01*
X363261904Y15723810D01*
X364785714Y15247620D02*
X364214285Y15247620D01*
X364500000Y15247620D02*
X364500000Y16247620D01*
X364404761Y16104762D01*
X364309523Y16009524D01*
X364214285Y15961905D01*
%TO.C,R25*%
X262357142Y13877620D02*
X262023809Y14353810D01*
X261785714Y13877620D02*
X261785714Y14877620D01*
X262166666Y14877620D01*
X262261904Y14830000D01*
X262309523Y14782381D01*
X262357142Y14687143D01*
X262357142Y14544286D01*
X262309523Y14449048D01*
X262261904Y14401429D01*
X262166666Y14353810D01*
X261785714Y14353810D01*
X262738095Y14782381D02*
X262785714Y14830000D01*
X262880952Y14877620D01*
X263119047Y14877620D01*
X263214285Y14830000D01*
X263261904Y14782381D01*
X263309523Y14687143D01*
X263309523Y14591905D01*
X263261904Y14449048D01*
X262690476Y13877620D01*
X263309523Y13877620D01*
X264214285Y14877620D02*
X263738095Y14877620D01*
X263690476Y14401429D01*
X263738095Y14449048D01*
X263833333Y14496667D01*
X264071428Y14496667D01*
X264166666Y14449048D01*
X264214285Y14401429D01*
X264261904Y14306191D01*
X264261904Y14068096D01*
X264214285Y13972858D01*
X264166666Y13925239D01*
X264071428Y13877620D01*
X263833333Y13877620D01*
X263738095Y13925239D01*
X263690476Y13972858D01*
%TO.C,R24*%
X300357142Y13877620D02*
X300023809Y14353810D01*
X299785714Y13877620D02*
X299785714Y14877620D01*
X300166666Y14877620D01*
X300261904Y14830000D01*
X300309523Y14782381D01*
X300357142Y14687143D01*
X300357142Y14544286D01*
X300309523Y14449048D01*
X300261904Y14401429D01*
X300166666Y14353810D01*
X299785714Y14353810D01*
X300738095Y14782381D02*
X300785714Y14830000D01*
X300880952Y14877620D01*
X301119047Y14877620D01*
X301214285Y14830000D01*
X301261904Y14782381D01*
X301309523Y14687143D01*
X301309523Y14591905D01*
X301261904Y14449048D01*
X300690476Y13877620D01*
X301309523Y13877620D01*
X302166666Y14544286D02*
X302166666Y13877620D01*
X301928571Y14925239D02*
X301690476Y14210953D01*
X302309523Y14210953D01*
%TO.C,R23*%
X338357142Y13877620D02*
X338023809Y14353810D01*
X337785714Y13877620D02*
X337785714Y14877620D01*
X338166666Y14877620D01*
X338261904Y14830000D01*
X338309523Y14782381D01*
X338357142Y14687143D01*
X338357142Y14544286D01*
X338309523Y14449048D01*
X338261904Y14401429D01*
X338166666Y14353810D01*
X337785714Y14353810D01*
X338738095Y14782381D02*
X338785714Y14830000D01*
X338880952Y14877620D01*
X339119047Y14877620D01*
X339214285Y14830000D01*
X339261904Y14782381D01*
X339309523Y14687143D01*
X339309523Y14591905D01*
X339261904Y14449048D01*
X338690476Y13877620D01*
X339309523Y13877620D01*
X339642857Y14877620D02*
X340261904Y14877620D01*
X339928571Y14496667D01*
X340071428Y14496667D01*
X340166666Y14449048D01*
X340214285Y14401429D01*
X340261904Y14306191D01*
X340261904Y14068096D01*
X340214285Y13972858D01*
X340166666Y13925239D01*
X340071428Y13877620D01*
X339785714Y13877620D01*
X339690476Y13925239D01*
X339642857Y13972858D01*
%TO.C,R22*%
X374452380Y16057143D02*
X373976190Y15723810D01*
X374452380Y15485715D02*
X373452380Y15485715D01*
X373452380Y15866667D01*
X373500000Y15961905D01*
X373547619Y16009524D01*
X373642857Y16057143D01*
X373785714Y16057143D01*
X373880952Y16009524D01*
X373928571Y15961905D01*
X373976190Y15866667D01*
X373976190Y15485715D01*
X373547619Y16438096D02*
X373500000Y16485715D01*
X373452380Y16580953D01*
X373452380Y16819048D01*
X373500000Y16914286D01*
X373547619Y16961905D01*
X373642857Y17009524D01*
X373738095Y17009524D01*
X373880952Y16961905D01*
X374452380Y16390477D01*
X374452380Y17009524D01*
X373547619Y17390477D02*
X373500000Y17438096D01*
X373452380Y17533334D01*
X373452380Y17771429D01*
X373500000Y17866667D01*
X373547619Y17914286D01*
X373642857Y17961905D01*
X373738095Y17961905D01*
X373880952Y17914286D01*
X374452380Y17342858D01*
X374452380Y17961905D01*
%TO.C,R21*%
X382452380Y2057143D02*
X381976190Y1723810D01*
X382452380Y1485715D02*
X381452380Y1485715D01*
X381452380Y1866667D01*
X381500000Y1961905D01*
X381547619Y2009524D01*
X381642857Y2057143D01*
X381785714Y2057143D01*
X381880952Y2009524D01*
X381928571Y1961905D01*
X381976190Y1866667D01*
X381976190Y1485715D01*
X381547619Y2438096D02*
X381500000Y2485715D01*
X381452380Y2580953D01*
X381452380Y2819048D01*
X381500000Y2914286D01*
X381547619Y2961905D01*
X381642857Y3009524D01*
X381738095Y3009524D01*
X381880952Y2961905D01*
X382452380Y2390477D01*
X382452380Y3009524D01*
X382452380Y3961905D02*
X382452380Y3390477D01*
X382452380Y3676191D02*
X381452380Y3676191D01*
X381595238Y3580953D01*
X381690476Y3485715D01*
X381738095Y3390477D01*
%TO.C,LED1*%
X367880952Y16497620D02*
X367404761Y16497620D01*
X367404761Y17497620D01*
X368214285Y17021429D02*
X368547619Y17021429D01*
X368690476Y16497620D02*
X368214285Y16497620D01*
X368214285Y17497620D01*
X368690476Y17497620D01*
X369119047Y16497620D02*
X369119047Y17497620D01*
X369357142Y17497620D01*
X369500000Y17450000D01*
X369595238Y17354762D01*
X369642857Y17259524D01*
X369690476Y17069048D01*
X369690476Y16926191D01*
X369642857Y16735715D01*
X369595238Y16640477D01*
X369500000Y16545239D01*
X369357142Y16497620D01*
X369119047Y16497620D01*
X370642857Y16497620D02*
X370071428Y16497620D01*
X370357142Y16497620D02*
X370357142Y17497620D01*
X370261904Y17354762D01*
X370166666Y17259524D01*
X370071428Y17211905D01*
%TO.C,J21*%
X380452380Y15890477D02*
X381166666Y15890477D01*
X381309523Y15842858D01*
X381404761Y15747620D01*
X381452380Y15604762D01*
X381452380Y15509524D01*
X380547619Y16319048D02*
X380500000Y16366667D01*
X380452380Y16461905D01*
X380452380Y16700000D01*
X380500000Y16795239D01*
X380547619Y16842858D01*
X380642857Y16890477D01*
X380738095Y16890477D01*
X380880952Y16842858D01*
X381452380Y16271429D01*
X381452380Y16890477D01*
X381452380Y17842858D02*
X381452380Y17271429D01*
X381452380Y17557143D02*
X380452380Y17557143D01*
X380595238Y17461905D01*
X380690476Y17366667D01*
X380738095Y17271429D01*
%TO.C,J1*%
X363122380Y5636667D02*
X363836666Y5636667D01*
X363979523Y5589048D01*
X364074761Y5493810D01*
X364122380Y5350953D01*
X364122380Y5255715D01*
X364122380Y6636667D02*
X364122380Y6065239D01*
X364122380Y6350953D02*
X363122380Y6350953D01*
X363265238Y6255715D01*
X363360476Y6160477D01*
X363408095Y6065239D01*
%TO.C,J2*%
X344122380Y5636667D02*
X344836666Y5636667D01*
X344979523Y5589048D01*
X345074761Y5493810D01*
X345122380Y5350953D01*
X345122380Y5255715D01*
X344217619Y6065239D02*
X344170000Y6112858D01*
X344122380Y6208096D01*
X344122380Y6446191D01*
X344170000Y6541429D01*
X344217619Y6589048D01*
X344312857Y6636667D01*
X344408095Y6636667D01*
X344550952Y6589048D01*
X345122380Y6017620D01*
X345122380Y6636667D01*
%TO.C,J3*%
X325122380Y5636667D02*
X325836666Y5636667D01*
X325979523Y5589048D01*
X326074761Y5493810D01*
X326122380Y5350953D01*
X326122380Y5255715D01*
X325122380Y6017620D02*
X325122380Y6636667D01*
X325503333Y6303334D01*
X325503333Y6446191D01*
X325550952Y6541429D01*
X325598571Y6589048D01*
X325693809Y6636667D01*
X325931904Y6636667D01*
X326027142Y6589048D01*
X326074761Y6541429D01*
X326122380Y6446191D01*
X326122380Y6160477D01*
X326074761Y6065239D01*
X326027142Y6017620D01*
%TO.C,J4*%
X306042380Y5636667D02*
X306756666Y5636667D01*
X306899523Y5589048D01*
X306994761Y5493810D01*
X307042380Y5350953D01*
X307042380Y5255715D01*
X306375714Y6541429D02*
X307042380Y6541429D01*
X305994761Y6303334D02*
X306709047Y6065239D01*
X306709047Y6684286D01*
%TO.C,J5*%
X287122380Y5636667D02*
X287836666Y5636667D01*
X287979523Y5589048D01*
X288074761Y5493810D01*
X288122380Y5350953D01*
X288122380Y5255715D01*
X287122380Y6589048D02*
X287122380Y6112858D01*
X287598571Y6065239D01*
X287550952Y6112858D01*
X287503333Y6208096D01*
X287503333Y6446191D01*
X287550952Y6541429D01*
X287598571Y6589048D01*
X287693809Y6636667D01*
X287931904Y6636667D01*
X288027142Y6589048D01*
X288074761Y6541429D01*
X288122380Y6446191D01*
X288122380Y6208096D01*
X288074761Y6112858D01*
X288027142Y6065239D01*
%TO.C,J6*%
X268122380Y5636667D02*
X268836666Y5636667D01*
X268979523Y5589048D01*
X269074761Y5493810D01*
X269122380Y5350953D01*
X269122380Y5255715D01*
X268122380Y6541429D02*
X268122380Y6350953D01*
X268170000Y6255715D01*
X268217619Y6208096D01*
X268360476Y6112858D01*
X268550952Y6065239D01*
X268931904Y6065239D01*
X269027142Y6112858D01*
X269074761Y6160477D01*
X269122380Y6255715D01*
X269122380Y6446191D01*
X269074761Y6541429D01*
X269027142Y6589048D01*
X268931904Y6636667D01*
X268693809Y6636667D01*
X268598571Y6589048D01*
X268550952Y6541429D01*
X268503333Y6446191D01*
X268503333Y6255715D01*
X268550952Y6160477D01*
X268598571Y6112858D01*
X268693809Y6065239D01*
%TO.C,J7*%
X249122380Y5636667D02*
X249836666Y5636667D01*
X249979523Y5589048D01*
X250074761Y5493810D01*
X250122380Y5350953D01*
X250122380Y5255715D01*
X249122380Y6017620D02*
X249122380Y6684286D01*
X250122380Y6255715D01*
%TO.C,J8*%
X230042380Y5636667D02*
X230756666Y5636667D01*
X230899523Y5589048D01*
X230994761Y5493810D01*
X231042380Y5350953D01*
X231042380Y5255715D01*
X230470952Y6255715D02*
X230423333Y6160477D01*
X230375714Y6112858D01*
X230280476Y6065239D01*
X230232857Y6065239D01*
X230137619Y6112858D01*
X230090000Y6160477D01*
X230042380Y6255715D01*
X230042380Y6446191D01*
X230090000Y6541429D01*
X230137619Y6589048D01*
X230232857Y6636667D01*
X230280476Y6636667D01*
X230375714Y6589048D01*
X230423333Y6541429D01*
X230470952Y6446191D01*
X230470952Y6255715D01*
X230518571Y6160477D01*
X230566190Y6112858D01*
X230661428Y6065239D01*
X230851904Y6065239D01*
X230947142Y6112858D01*
X230994761Y6160477D01*
X231042380Y6255715D01*
X231042380Y6446191D01*
X230994761Y6541429D01*
X230947142Y6589048D01*
X230851904Y6636667D01*
X230661428Y6636667D01*
X230566190Y6589048D01*
X230518571Y6541429D01*
X230470952Y6446191D01*
%TO.C,J9*%
X211122380Y5636667D02*
X211836666Y5636667D01*
X211979523Y5589048D01*
X212074761Y5493810D01*
X212122380Y5350953D01*
X212122380Y5255715D01*
X212122380Y6160477D02*
X212122380Y6350953D01*
X212074761Y6446191D01*
X212027142Y6493810D01*
X211884285Y6589048D01*
X211693809Y6636667D01*
X211312857Y6636667D01*
X211217619Y6589048D01*
X211170000Y6541429D01*
X211122380Y6446191D01*
X211122380Y6255715D01*
X211170000Y6160477D01*
X211217619Y6112858D01*
X211312857Y6065239D01*
X211550952Y6065239D01*
X211646190Y6112858D01*
X211693809Y6160477D01*
X211741428Y6255715D01*
X211741428Y6446191D01*
X211693809Y6541429D01*
X211646190Y6589048D01*
X211550952Y6636667D01*
%TO.C,J10*%
X192042380Y5160477D02*
X192756666Y5160477D01*
X192899523Y5112858D01*
X192994761Y5017620D01*
X193042380Y4874762D01*
X193042380Y4779524D01*
X193042380Y6160477D02*
X193042380Y5589048D01*
X193042380Y5874762D02*
X192042380Y5874762D01*
X192185238Y5779524D01*
X192280476Y5684286D01*
X192328095Y5589048D01*
X192042380Y6779524D02*
X192042380Y6874762D01*
X192090000Y6970000D01*
X192137619Y7017620D01*
X192232857Y7065239D01*
X192423333Y7112858D01*
X192661428Y7112858D01*
X192851904Y7065239D01*
X192947142Y7017620D01*
X192994761Y6970000D01*
X193042380Y6874762D01*
X193042380Y6779524D01*
X192994761Y6684286D01*
X192947142Y6636667D01*
X192851904Y6589048D01*
X192661428Y6541429D01*
X192423333Y6541429D01*
X192232857Y6589048D01*
X192137619Y6636667D01*
X192090000Y6684286D01*
X192042380Y6779524D01*
%TO.C,J11*%
X173042380Y5160477D02*
X173756666Y5160477D01*
X173899523Y5112858D01*
X173994761Y5017620D01*
X174042380Y4874762D01*
X174042380Y4779524D01*
X174042380Y6160477D02*
X174042380Y5589048D01*
X174042380Y5874762D02*
X173042380Y5874762D01*
X173185238Y5779524D01*
X173280476Y5684286D01*
X173328095Y5589048D01*
X174042380Y7112858D02*
X174042380Y6541429D01*
X174042380Y6827143D02*
X173042380Y6827143D01*
X173185238Y6731905D01*
X173280476Y6636667D01*
X173328095Y6541429D01*
%TO.C,J12*%
X154042380Y5160477D02*
X154756666Y5160477D01*
X154899523Y5112858D01*
X154994761Y5017620D01*
X155042380Y4874762D01*
X155042380Y4779524D01*
X155042380Y6160477D02*
X155042380Y5589048D01*
X155042380Y5874762D02*
X154042380Y5874762D01*
X154185238Y5779524D01*
X154280476Y5684286D01*
X154328095Y5589048D01*
X154137619Y6541429D02*
X154090000Y6589048D01*
X154042380Y6684286D01*
X154042380Y6922381D01*
X154090000Y7017620D01*
X154137619Y7065239D01*
X154232857Y7112858D01*
X154328095Y7112858D01*
X154470952Y7065239D01*
X155042380Y6493810D01*
X155042380Y7112858D01*
%TO.C,J13*%
X135042380Y5160477D02*
X135756666Y5160477D01*
X135899523Y5112858D01*
X135994761Y5017620D01*
X136042380Y4874762D01*
X136042380Y4779524D01*
X136042380Y6160477D02*
X136042380Y5589048D01*
X136042380Y5874762D02*
X135042380Y5874762D01*
X135185238Y5779524D01*
X135280476Y5684286D01*
X135328095Y5589048D01*
X135042380Y6493810D02*
X135042380Y7112858D01*
X135423333Y6779524D01*
X135423333Y6922381D01*
X135470952Y7017620D01*
X135518571Y7065239D01*
X135613809Y7112858D01*
X135851904Y7112858D01*
X135947142Y7065239D01*
X135994761Y7017620D01*
X136042380Y6922381D01*
X136042380Y6636667D01*
X135994761Y6541429D01*
X135947142Y6493810D01*
%TO.C,J14*%
X116042380Y5160477D02*
X116756666Y5160477D01*
X116899523Y5112858D01*
X116994761Y5017620D01*
X117042380Y4874762D01*
X117042380Y4779524D01*
X117042380Y6160477D02*
X117042380Y5589048D01*
X117042380Y5874762D02*
X116042380Y5874762D01*
X116185238Y5779524D01*
X116280476Y5684286D01*
X116328095Y5589048D01*
X116375714Y7017620D02*
X117042380Y7017620D01*
X115994761Y6779524D02*
X116709047Y6541429D01*
X116709047Y7160477D01*
%TO.C,J15*%
X97042380Y5160477D02*
X97756666Y5160477D01*
X97899523Y5112858D01*
X97994761Y5017620D01*
X98042380Y4874762D01*
X98042380Y4779524D01*
X98042380Y6160477D02*
X98042380Y5589048D01*
X98042380Y5874762D02*
X97042380Y5874762D01*
X97185238Y5779524D01*
X97280476Y5684286D01*
X97328095Y5589048D01*
X97042380Y7065239D02*
X97042380Y6589048D01*
X97518571Y6541429D01*
X97470952Y6589048D01*
X97423333Y6684286D01*
X97423333Y6922381D01*
X97470952Y7017620D01*
X97518571Y7065239D01*
X97613809Y7112858D01*
X97851904Y7112858D01*
X97947142Y7065239D01*
X97994761Y7017620D01*
X98042380Y6922381D01*
X98042380Y6684286D01*
X97994761Y6589048D01*
X97947142Y6541429D01*
%TO.C,J16*%
X78042380Y5160477D02*
X78756666Y5160477D01*
X78899523Y5112858D01*
X78994761Y5017620D01*
X79042380Y4874762D01*
X79042380Y4779524D01*
X79042380Y6160477D02*
X79042380Y5589048D01*
X79042380Y5874762D02*
X78042380Y5874762D01*
X78185238Y5779524D01*
X78280476Y5684286D01*
X78328095Y5589048D01*
X78042380Y7017620D02*
X78042380Y6827143D01*
X78090000Y6731905D01*
X78137619Y6684286D01*
X78280476Y6589048D01*
X78470952Y6541429D01*
X78851904Y6541429D01*
X78947142Y6589048D01*
X78994761Y6636667D01*
X79042380Y6731905D01*
X79042380Y6922381D01*
X78994761Y7017620D01*
X78947142Y7065239D01*
X78851904Y7112858D01*
X78613809Y7112858D01*
X78518571Y7065239D01*
X78470952Y7017620D01*
X78423333Y6922381D01*
X78423333Y6731905D01*
X78470952Y6636667D01*
X78518571Y6589048D01*
X78613809Y6541429D01*
%TO.C,J17*%
X59042380Y5160477D02*
X59756666Y5160477D01*
X59899523Y5112858D01*
X59994761Y5017620D01*
X60042380Y4874762D01*
X60042380Y4779524D01*
X60042380Y6160477D02*
X60042380Y5589048D01*
X60042380Y5874762D02*
X59042380Y5874762D01*
X59185238Y5779524D01*
X59280476Y5684286D01*
X59328095Y5589048D01*
X59042380Y6493810D02*
X59042380Y7160477D01*
X60042380Y6731905D01*
%TO.C,J18*%
X40042380Y5160477D02*
X40756666Y5160477D01*
X40899523Y5112858D01*
X40994761Y5017620D01*
X41042380Y4874762D01*
X41042380Y4779524D01*
X41042380Y6160477D02*
X41042380Y5589048D01*
X41042380Y5874762D02*
X40042380Y5874762D01*
X40185238Y5779524D01*
X40280476Y5684286D01*
X40328095Y5589048D01*
X40470952Y6731905D02*
X40423333Y6636667D01*
X40375714Y6589048D01*
X40280476Y6541429D01*
X40232857Y6541429D01*
X40137619Y6589048D01*
X40090000Y6636667D01*
X40042380Y6731905D01*
X40042380Y6922381D01*
X40090000Y7017620D01*
X40137619Y7065239D01*
X40232857Y7112858D01*
X40280476Y7112858D01*
X40375714Y7065239D01*
X40423333Y7017620D01*
X40470952Y6922381D01*
X40470952Y6731905D01*
X40518571Y6636667D01*
X40566190Y6589048D01*
X40661428Y6541429D01*
X40851904Y6541429D01*
X40947142Y6589048D01*
X40994761Y6636667D01*
X41042380Y6731905D01*
X41042380Y6922381D01*
X40994761Y7017620D01*
X40947142Y7065239D01*
X40851904Y7112858D01*
X40661428Y7112858D01*
X40566190Y7065239D01*
X40518571Y7017620D01*
X40470952Y6922381D01*
%TO.C,J19*%
X21042380Y5160477D02*
X21756666Y5160477D01*
X21899523Y5112858D01*
X21994761Y5017620D01*
X22042380Y4874762D01*
X22042380Y4779524D01*
X22042380Y6160477D02*
X22042380Y5589048D01*
X22042380Y5874762D02*
X21042380Y5874762D01*
X21185238Y5779524D01*
X21280476Y5684286D01*
X21328095Y5589048D01*
X22042380Y6636667D02*
X22042380Y6827143D01*
X21994761Y6922381D01*
X21947142Y6970000D01*
X21804285Y7065239D01*
X21613809Y7112858D01*
X21232857Y7112858D01*
X21137619Y7065239D01*
X21090000Y7017620D01*
X21042380Y6922381D01*
X21042380Y6731905D01*
X21090000Y6636667D01*
X21137619Y6589048D01*
X21232857Y6541429D01*
X21470952Y6541429D01*
X21566190Y6589048D01*
X21613809Y6636667D01*
X21661428Y6731905D01*
X21661428Y6922381D01*
X21613809Y7017620D01*
X21566190Y7065239D01*
X21470952Y7112858D01*
%TO.C,J20*%
X2042380Y5160477D02*
X2756666Y5160477D01*
X2899523Y5112858D01*
X2994761Y5017620D01*
X3042380Y4874762D01*
X3042380Y4779524D01*
X2137619Y5589048D02*
X2090000Y5636667D01*
X2042380Y5731905D01*
X2042380Y5970000D01*
X2090000Y6065239D01*
X2137619Y6112858D01*
X2232857Y6160477D01*
X2328095Y6160477D01*
X2470952Y6112858D01*
X3042380Y5541429D01*
X3042380Y6160477D01*
X2042380Y6779524D02*
X2042380Y6874762D01*
X2090000Y6970000D01*
X2137619Y7017620D01*
X2232857Y7065239D01*
X2423333Y7112858D01*
X2661428Y7112858D01*
X2851904Y7065239D01*
X2947142Y7017620D01*
X2994761Y6970000D01*
X3042380Y6874762D01*
X3042380Y6779524D01*
X2994761Y6684286D01*
X2947142Y6636667D01*
X2851904Y6589048D01*
X2661428Y6541429D01*
X2423333Y6541429D01*
X2232857Y6589048D01*
X2137619Y6636667D01*
X2090000Y6684286D01*
X2042380Y6779524D01*
%TO.C,LED2*%
X348880952Y16497620D02*
X348404761Y16497620D01*
X348404761Y17497620D01*
X349214285Y17021429D02*
X349547619Y17021429D01*
X349690476Y16497620D02*
X349214285Y16497620D01*
X349214285Y17497620D01*
X349690476Y17497620D01*
X350119047Y16497620D02*
X350119047Y17497620D01*
X350357142Y17497620D01*
X350500000Y17450000D01*
X350595238Y17354762D01*
X350642857Y17259524D01*
X350690476Y17069048D01*
X350690476Y16926191D01*
X350642857Y16735715D01*
X350595238Y16640477D01*
X350500000Y16545239D01*
X350357142Y16497620D01*
X350119047Y16497620D01*
X351071428Y17402381D02*
X351119047Y17450000D01*
X351214285Y17497620D01*
X351452380Y17497620D01*
X351547619Y17450000D01*
X351595238Y17402381D01*
X351642857Y17307143D01*
X351642857Y17211905D01*
X351595238Y17069048D01*
X351023809Y16497620D01*
X351642857Y16497620D01*
%TO.C,LED3*%
X329880952Y16497620D02*
X329404761Y16497620D01*
X329404761Y17497620D01*
X330214285Y17021429D02*
X330547619Y17021429D01*
X330690476Y16497620D02*
X330214285Y16497620D01*
X330214285Y17497620D01*
X330690476Y17497620D01*
X331119047Y16497620D02*
X331119047Y17497620D01*
X331357142Y17497620D01*
X331500000Y17450000D01*
X331595238Y17354762D01*
X331642857Y17259524D01*
X331690476Y17069048D01*
X331690476Y16926191D01*
X331642857Y16735715D01*
X331595238Y16640477D01*
X331500000Y16545239D01*
X331357142Y16497620D01*
X331119047Y16497620D01*
X332023809Y17497620D02*
X332642857Y17497620D01*
X332309523Y17116667D01*
X332452380Y17116667D01*
X332547619Y17069048D01*
X332595238Y17021429D01*
X332642857Y16926191D01*
X332642857Y16688096D01*
X332595238Y16592858D01*
X332547619Y16545239D01*
X332452380Y16497620D01*
X332166666Y16497620D01*
X332071428Y16545239D01*
X332023809Y16592858D01*
%TO.C,LED4*%
X310880952Y16497620D02*
X310404761Y16497620D01*
X310404761Y17497620D01*
X311214285Y17021429D02*
X311547619Y17021429D01*
X311690476Y16497620D02*
X311214285Y16497620D01*
X311214285Y17497620D01*
X311690476Y17497620D01*
X312119047Y16497620D02*
X312119047Y17497620D01*
X312357142Y17497620D01*
X312500000Y17450000D01*
X312595238Y17354762D01*
X312642857Y17259524D01*
X312690476Y17069048D01*
X312690476Y16926191D01*
X312642857Y16735715D01*
X312595238Y16640477D01*
X312500000Y16545239D01*
X312357142Y16497620D01*
X312119047Y16497620D01*
X313547619Y17164286D02*
X313547619Y16497620D01*
X313309523Y17545239D02*
X313071428Y16830953D01*
X313690476Y16830953D01*
%TO.C,LED5*%
X291880952Y16497620D02*
X291404761Y16497620D01*
X291404761Y17497620D01*
X292214285Y17021429D02*
X292547619Y17021429D01*
X292690476Y16497620D02*
X292214285Y16497620D01*
X292214285Y17497620D01*
X292690476Y17497620D01*
X293119047Y16497620D02*
X293119047Y17497620D01*
X293357142Y17497620D01*
X293500000Y17450000D01*
X293595238Y17354762D01*
X293642857Y17259524D01*
X293690476Y17069048D01*
X293690476Y16926191D01*
X293642857Y16735715D01*
X293595238Y16640477D01*
X293500000Y16545239D01*
X293357142Y16497620D01*
X293119047Y16497620D01*
X294595238Y17497620D02*
X294119047Y17497620D01*
X294071428Y17021429D01*
X294119047Y17069048D01*
X294214285Y17116667D01*
X294452380Y17116667D01*
X294547619Y17069048D01*
X294595238Y17021429D01*
X294642857Y16926191D01*
X294642857Y16688096D01*
X294595238Y16592858D01*
X294547619Y16545239D01*
X294452380Y16497620D01*
X294214285Y16497620D01*
X294119047Y16545239D01*
X294071428Y16592858D01*
%TO.C,LED6*%
X272880952Y16497620D02*
X272404761Y16497620D01*
X272404761Y17497620D01*
X273214285Y17021429D02*
X273547619Y17021429D01*
X273690476Y16497620D02*
X273214285Y16497620D01*
X273214285Y17497620D01*
X273690476Y17497620D01*
X274119047Y16497620D02*
X274119047Y17497620D01*
X274357142Y17497620D01*
X274500000Y17450000D01*
X274595238Y17354762D01*
X274642857Y17259524D01*
X274690476Y17069048D01*
X274690476Y16926191D01*
X274642857Y16735715D01*
X274595238Y16640477D01*
X274500000Y16545239D01*
X274357142Y16497620D01*
X274119047Y16497620D01*
X275547619Y17497620D02*
X275357142Y17497620D01*
X275261904Y17450000D01*
X275214285Y17402381D01*
X275119047Y17259524D01*
X275071428Y17069048D01*
X275071428Y16688096D01*
X275119047Y16592858D01*
X275166666Y16545239D01*
X275261904Y16497620D01*
X275452380Y16497620D01*
X275547619Y16545239D01*
X275595238Y16592858D01*
X275642857Y16688096D01*
X275642857Y16926191D01*
X275595238Y17021429D01*
X275547619Y17069048D01*
X275452380Y17116667D01*
X275261904Y17116667D01*
X275166666Y17069048D01*
X275119047Y17021429D01*
X275071428Y16926191D01*
%TO.C,LED7*%
X253880952Y16497620D02*
X253404761Y16497620D01*
X253404761Y17497620D01*
X254214285Y17021429D02*
X254547619Y17021429D01*
X254690476Y16497620D02*
X254214285Y16497620D01*
X254214285Y17497620D01*
X254690476Y17497620D01*
X255119047Y16497620D02*
X255119047Y17497620D01*
X255357142Y17497620D01*
X255500000Y17450000D01*
X255595238Y17354762D01*
X255642857Y17259524D01*
X255690476Y17069048D01*
X255690476Y16926191D01*
X255642857Y16735715D01*
X255595238Y16640477D01*
X255500000Y16545239D01*
X255357142Y16497620D01*
X255119047Y16497620D01*
X256023809Y17497620D02*
X256690476Y17497620D01*
X256261904Y16497620D01*
%TO.C,LED8*%
X234880952Y16497620D02*
X234404761Y16497620D01*
X234404761Y17497620D01*
X235214285Y17021429D02*
X235547619Y17021429D01*
X235690476Y16497620D02*
X235214285Y16497620D01*
X235214285Y17497620D01*
X235690476Y17497620D01*
X236119047Y16497620D02*
X236119047Y17497620D01*
X236357142Y17497620D01*
X236500000Y17450000D01*
X236595238Y17354762D01*
X236642857Y17259524D01*
X236690476Y17069048D01*
X236690476Y16926191D01*
X236642857Y16735715D01*
X236595238Y16640477D01*
X236500000Y16545239D01*
X236357142Y16497620D01*
X236119047Y16497620D01*
X237261904Y17069048D02*
X237166666Y17116667D01*
X237119047Y17164286D01*
X237071428Y17259524D01*
X237071428Y17307143D01*
X237119047Y17402381D01*
X237166666Y17450000D01*
X237261904Y17497620D01*
X237452380Y17497620D01*
X237547619Y17450000D01*
X237595238Y17402381D01*
X237642857Y17307143D01*
X237642857Y17259524D01*
X237595238Y17164286D01*
X237547619Y17116667D01*
X237452380Y17069048D01*
X237261904Y17069048D01*
X237166666Y17021429D01*
X237119047Y16973810D01*
X237071428Y16878572D01*
X237071428Y16688096D01*
X237119047Y16592858D01*
X237166666Y16545239D01*
X237261904Y16497620D01*
X237452380Y16497620D01*
X237547619Y16545239D01*
X237595238Y16592858D01*
X237642857Y16688096D01*
X237642857Y16878572D01*
X237595238Y16973810D01*
X237547619Y17021429D01*
X237452380Y17069048D01*
%TO.C,LED9*%
X215880952Y16497620D02*
X215404761Y16497620D01*
X215404761Y17497620D01*
X216214285Y17021429D02*
X216547619Y17021429D01*
X216690476Y16497620D02*
X216214285Y16497620D01*
X216214285Y17497620D01*
X216690476Y17497620D01*
X217119047Y16497620D02*
X217119047Y17497620D01*
X217357142Y17497620D01*
X217500000Y17450000D01*
X217595238Y17354762D01*
X217642857Y17259524D01*
X217690476Y17069048D01*
X217690476Y16926191D01*
X217642857Y16735715D01*
X217595238Y16640477D01*
X217500000Y16545239D01*
X217357142Y16497620D01*
X217119047Y16497620D01*
X218166666Y16497620D02*
X218357142Y16497620D01*
X218452380Y16545239D01*
X218500000Y16592858D01*
X218595238Y16735715D01*
X218642857Y16926191D01*
X218642857Y17307143D01*
X218595238Y17402381D01*
X218547619Y17450000D01*
X218452380Y17497620D01*
X218261904Y17497620D01*
X218166666Y17450000D01*
X218119047Y17402381D01*
X218071428Y17307143D01*
X218071428Y17069048D01*
X218119047Y16973810D01*
X218166666Y16926191D01*
X218261904Y16878572D01*
X218452380Y16878572D01*
X218547619Y16926191D01*
X218595238Y16973810D01*
X218642857Y17069048D01*
%TO.C,LED10*%
X196404761Y16497620D02*
X195928571Y16497620D01*
X195928571Y17497620D01*
X196738095Y17021429D02*
X197071428Y17021429D01*
X197214285Y16497620D02*
X196738095Y16497620D01*
X196738095Y17497620D01*
X197214285Y17497620D01*
X197642857Y16497620D02*
X197642857Y17497620D01*
X197880952Y17497620D01*
X198023809Y17450000D01*
X198119047Y17354762D01*
X198166666Y17259524D01*
X198214285Y17069048D01*
X198214285Y16926191D01*
X198166666Y16735715D01*
X198119047Y16640477D01*
X198023809Y16545239D01*
X197880952Y16497620D01*
X197642857Y16497620D01*
X199166666Y16497620D02*
X198595238Y16497620D01*
X198880952Y16497620D02*
X198880952Y17497620D01*
X198785714Y17354762D01*
X198690476Y17259524D01*
X198595238Y17211905D01*
X199785714Y17497620D02*
X199880952Y17497620D01*
X199976190Y17450000D01*
X200023809Y17402381D01*
X200071428Y17307143D01*
X200119047Y17116667D01*
X200119047Y16878572D01*
X200071428Y16688096D01*
X200023809Y16592858D01*
X199976190Y16545239D01*
X199880952Y16497620D01*
X199785714Y16497620D01*
X199690476Y16545239D01*
X199642857Y16592858D01*
X199595238Y16688096D01*
X199547619Y16878572D01*
X199547619Y17116667D01*
X199595238Y17307143D01*
X199642857Y17402381D01*
X199690476Y17450000D01*
X199785714Y17497620D01*
%TO.C,LED11*%
X177404761Y16497620D02*
X176928571Y16497620D01*
X176928571Y17497620D01*
X177738095Y17021429D02*
X178071428Y17021429D01*
X178214285Y16497620D02*
X177738095Y16497620D01*
X177738095Y17497620D01*
X178214285Y17497620D01*
X178642857Y16497620D02*
X178642857Y17497620D01*
X178880952Y17497620D01*
X179023809Y17450000D01*
X179119047Y17354762D01*
X179166666Y17259524D01*
X179214285Y17069048D01*
X179214285Y16926191D01*
X179166666Y16735715D01*
X179119047Y16640477D01*
X179023809Y16545239D01*
X178880952Y16497620D01*
X178642857Y16497620D01*
X180166666Y16497620D02*
X179595238Y16497620D01*
X179880952Y16497620D02*
X179880952Y17497620D01*
X179785714Y17354762D01*
X179690476Y17259524D01*
X179595238Y17211905D01*
X181119047Y16497620D02*
X180547619Y16497620D01*
X180833333Y16497620D02*
X180833333Y17497620D01*
X180738095Y17354762D01*
X180642857Y17259524D01*
X180547619Y17211905D01*
%TO.C,LED12*%
X158404761Y16497620D02*
X157928571Y16497620D01*
X157928571Y17497620D01*
X158738095Y17021429D02*
X159071428Y17021429D01*
X159214285Y16497620D02*
X158738095Y16497620D01*
X158738095Y17497620D01*
X159214285Y17497620D01*
X159642857Y16497620D02*
X159642857Y17497620D01*
X159880952Y17497620D01*
X160023809Y17450000D01*
X160119047Y17354762D01*
X160166666Y17259524D01*
X160214285Y17069048D01*
X160214285Y16926191D01*
X160166666Y16735715D01*
X160119047Y16640477D01*
X160023809Y16545239D01*
X159880952Y16497620D01*
X159642857Y16497620D01*
X161166666Y16497620D02*
X160595238Y16497620D01*
X160880952Y16497620D02*
X160880952Y17497620D01*
X160785714Y17354762D01*
X160690476Y17259524D01*
X160595238Y17211905D01*
X161547619Y17402381D02*
X161595238Y17450000D01*
X161690476Y17497620D01*
X161928571Y17497620D01*
X162023809Y17450000D01*
X162071428Y17402381D01*
X162119047Y17307143D01*
X162119047Y17211905D01*
X162071428Y17069048D01*
X161500000Y16497620D01*
X162119047Y16497620D01*
%TO.C,LED13*%
X139404761Y16497620D02*
X138928571Y16497620D01*
X138928571Y17497620D01*
X139738095Y17021429D02*
X140071428Y17021429D01*
X140214285Y16497620D02*
X139738095Y16497620D01*
X139738095Y17497620D01*
X140214285Y17497620D01*
X140642857Y16497620D02*
X140642857Y17497620D01*
X140880952Y17497620D01*
X141023809Y17450000D01*
X141119047Y17354762D01*
X141166666Y17259524D01*
X141214285Y17069048D01*
X141214285Y16926191D01*
X141166666Y16735715D01*
X141119047Y16640477D01*
X141023809Y16545239D01*
X140880952Y16497620D01*
X140642857Y16497620D01*
X142166666Y16497620D02*
X141595238Y16497620D01*
X141880952Y16497620D02*
X141880952Y17497620D01*
X141785714Y17354762D01*
X141690476Y17259524D01*
X141595238Y17211905D01*
X142500000Y17497620D02*
X143119047Y17497620D01*
X142785714Y17116667D01*
X142928571Y17116667D01*
X143023809Y17069048D01*
X143071428Y17021429D01*
X143119047Y16926191D01*
X143119047Y16688096D01*
X143071428Y16592858D01*
X143023809Y16545239D01*
X142928571Y16497620D01*
X142642857Y16497620D01*
X142547619Y16545239D01*
X142500000Y16592858D01*
%TO.C,LED14*%
X120404761Y16497620D02*
X119928571Y16497620D01*
X119928571Y17497620D01*
X120738095Y17021429D02*
X121071428Y17021429D01*
X121214285Y16497620D02*
X120738095Y16497620D01*
X120738095Y17497620D01*
X121214285Y17497620D01*
X121642857Y16497620D02*
X121642857Y17497620D01*
X121880952Y17497620D01*
X122023809Y17450000D01*
X122119047Y17354762D01*
X122166666Y17259524D01*
X122214285Y17069048D01*
X122214285Y16926191D01*
X122166666Y16735715D01*
X122119047Y16640477D01*
X122023809Y16545239D01*
X121880952Y16497620D01*
X121642857Y16497620D01*
X123166666Y16497620D02*
X122595238Y16497620D01*
X122880952Y16497620D02*
X122880952Y17497620D01*
X122785714Y17354762D01*
X122690476Y17259524D01*
X122595238Y17211905D01*
X124023809Y17164286D02*
X124023809Y16497620D01*
X123785714Y17545239D02*
X123547619Y16830953D01*
X124166666Y16830953D01*
%TO.C,LED15*%
X101404761Y16497620D02*
X100928571Y16497620D01*
X100928571Y17497620D01*
X101738095Y17021429D02*
X102071428Y17021429D01*
X102214285Y16497620D02*
X101738095Y16497620D01*
X101738095Y17497620D01*
X102214285Y17497620D01*
X102642857Y16497620D02*
X102642857Y17497620D01*
X102880952Y17497620D01*
X103023809Y17450000D01*
X103119047Y17354762D01*
X103166666Y17259524D01*
X103214285Y17069048D01*
X103214285Y16926191D01*
X103166666Y16735715D01*
X103119047Y16640477D01*
X103023809Y16545239D01*
X102880952Y16497620D01*
X102642857Y16497620D01*
X104166666Y16497620D02*
X103595238Y16497620D01*
X103880952Y16497620D02*
X103880952Y17497620D01*
X103785714Y17354762D01*
X103690476Y17259524D01*
X103595238Y17211905D01*
X105071428Y17497620D02*
X104595238Y17497620D01*
X104547619Y17021429D01*
X104595238Y17069048D01*
X104690476Y17116667D01*
X104928571Y17116667D01*
X105023809Y17069048D01*
X105071428Y17021429D01*
X105119047Y16926191D01*
X105119047Y16688096D01*
X105071428Y16592858D01*
X105023809Y16545239D01*
X104928571Y16497620D01*
X104690476Y16497620D01*
X104595238Y16545239D01*
X104547619Y16592858D01*
%TO.C,LED16*%
X82404761Y16497620D02*
X81928571Y16497620D01*
X81928571Y17497620D01*
X82738095Y17021429D02*
X83071428Y17021429D01*
X83214285Y16497620D02*
X82738095Y16497620D01*
X82738095Y17497620D01*
X83214285Y17497620D01*
X83642857Y16497620D02*
X83642857Y17497620D01*
X83880952Y17497620D01*
X84023809Y17450000D01*
X84119047Y17354762D01*
X84166666Y17259524D01*
X84214285Y17069048D01*
X84214285Y16926191D01*
X84166666Y16735715D01*
X84119047Y16640477D01*
X84023809Y16545239D01*
X83880952Y16497620D01*
X83642857Y16497620D01*
X85166666Y16497620D02*
X84595238Y16497620D01*
X84880952Y16497620D02*
X84880952Y17497620D01*
X84785714Y17354762D01*
X84690476Y17259524D01*
X84595238Y17211905D01*
X86023809Y17497620D02*
X85833333Y17497620D01*
X85738095Y17450000D01*
X85690476Y17402381D01*
X85595238Y17259524D01*
X85547619Y17069048D01*
X85547619Y16688096D01*
X85595238Y16592858D01*
X85642857Y16545239D01*
X85738095Y16497620D01*
X85928571Y16497620D01*
X86023809Y16545239D01*
X86071428Y16592858D01*
X86119047Y16688096D01*
X86119047Y16926191D01*
X86071428Y17021429D01*
X86023809Y17069048D01*
X85928571Y17116667D01*
X85738095Y17116667D01*
X85642857Y17069048D01*
X85595238Y17021429D01*
X85547619Y16926191D01*
%TO.C,LED17*%
X63404761Y16497620D02*
X62928571Y16497620D01*
X62928571Y17497620D01*
X63738095Y17021429D02*
X64071428Y17021429D01*
X64214285Y16497620D02*
X63738095Y16497620D01*
X63738095Y17497620D01*
X64214285Y17497620D01*
X64642857Y16497620D02*
X64642857Y17497620D01*
X64880952Y17497620D01*
X65023809Y17450000D01*
X65119047Y17354762D01*
X65166666Y17259524D01*
X65214285Y17069048D01*
X65214285Y16926191D01*
X65166666Y16735715D01*
X65119047Y16640477D01*
X65023809Y16545239D01*
X64880952Y16497620D01*
X64642857Y16497620D01*
X66166666Y16497620D02*
X65595238Y16497620D01*
X65880952Y16497620D02*
X65880952Y17497620D01*
X65785714Y17354762D01*
X65690476Y17259524D01*
X65595238Y17211905D01*
X66500000Y17497620D02*
X67166666Y17497620D01*
X66738095Y16497620D01*
%TO.C,LED18*%
X44404761Y16497620D02*
X43928571Y16497620D01*
X43928571Y17497620D01*
X44738095Y17021429D02*
X45071428Y17021429D01*
X45214285Y16497620D02*
X44738095Y16497620D01*
X44738095Y17497620D01*
X45214285Y17497620D01*
X45642857Y16497620D02*
X45642857Y17497620D01*
X45880952Y17497620D01*
X46023809Y17450000D01*
X46119047Y17354762D01*
X46166666Y17259524D01*
X46214285Y17069048D01*
X46214285Y16926191D01*
X46166666Y16735715D01*
X46119047Y16640477D01*
X46023809Y16545239D01*
X45880952Y16497620D01*
X45642857Y16497620D01*
X47166666Y16497620D02*
X46595238Y16497620D01*
X46880952Y16497620D02*
X46880952Y17497620D01*
X46785714Y17354762D01*
X46690476Y17259524D01*
X46595238Y17211905D01*
X47738095Y17069048D02*
X47642857Y17116667D01*
X47595238Y17164286D01*
X47547619Y17259524D01*
X47547619Y17307143D01*
X47595238Y17402381D01*
X47642857Y17450000D01*
X47738095Y17497620D01*
X47928571Y17497620D01*
X48023809Y17450000D01*
X48071428Y17402381D01*
X48119047Y17307143D01*
X48119047Y17259524D01*
X48071428Y17164286D01*
X48023809Y17116667D01*
X47928571Y17069048D01*
X47738095Y17069048D01*
X47642857Y17021429D01*
X47595238Y16973810D01*
X47547619Y16878572D01*
X47547619Y16688096D01*
X47595238Y16592858D01*
X47642857Y16545239D01*
X47738095Y16497620D01*
X47928571Y16497620D01*
X48023809Y16545239D01*
X48071428Y16592858D01*
X48119047Y16688096D01*
X48119047Y16878572D01*
X48071428Y16973810D01*
X48023809Y17021429D01*
X47928571Y17069048D01*
%TO.C,LED19*%
X25404761Y16497620D02*
X24928571Y16497620D01*
X24928571Y17497620D01*
X25738095Y17021429D02*
X26071428Y17021429D01*
X26214285Y16497620D02*
X25738095Y16497620D01*
X25738095Y17497620D01*
X26214285Y17497620D01*
X26642857Y16497620D02*
X26642857Y17497620D01*
X26880952Y17497620D01*
X27023809Y17450000D01*
X27119047Y17354762D01*
X27166666Y17259524D01*
X27214285Y17069048D01*
X27214285Y16926191D01*
X27166666Y16735715D01*
X27119047Y16640477D01*
X27023809Y16545239D01*
X26880952Y16497620D01*
X26642857Y16497620D01*
X28166666Y16497620D02*
X27595238Y16497620D01*
X27880952Y16497620D02*
X27880952Y17497620D01*
X27785714Y17354762D01*
X27690476Y17259524D01*
X27595238Y17211905D01*
X28642857Y16497620D02*
X28833333Y16497620D01*
X28928571Y16545239D01*
X28976190Y16592858D01*
X29071428Y16735715D01*
X29119047Y16926191D01*
X29119047Y17307143D01*
X29071428Y17402381D01*
X29023809Y17450000D01*
X28928571Y17497620D01*
X28738095Y17497620D01*
X28642857Y17450000D01*
X28595238Y17402381D01*
X28547619Y17307143D01*
X28547619Y17069048D01*
X28595238Y16973810D01*
X28642857Y16926191D01*
X28738095Y16878572D01*
X28928571Y16878572D01*
X29023809Y16926191D01*
X29071428Y16973810D01*
X29119047Y17069048D01*
%TO.C,LED20*%
X6404761Y16497620D02*
X5928571Y16497620D01*
X5928571Y17497620D01*
X6738095Y17021429D02*
X7071428Y17021429D01*
X7214285Y16497620D02*
X6738095Y16497620D01*
X6738095Y17497620D01*
X7214285Y17497620D01*
X7642857Y16497620D02*
X7642857Y17497620D01*
X7880952Y17497620D01*
X8023809Y17450000D01*
X8119047Y17354762D01*
X8166666Y17259524D01*
X8214285Y17069048D01*
X8214285Y16926191D01*
X8166666Y16735715D01*
X8119047Y16640477D01*
X8023809Y16545239D01*
X7880952Y16497620D01*
X7642857Y16497620D01*
X8595238Y17402381D02*
X8642857Y17450000D01*
X8738095Y17497620D01*
X8976190Y17497620D01*
X9071428Y17450000D01*
X9119047Y17402381D01*
X9166666Y17307143D01*
X9166666Y17211905D01*
X9119047Y17069048D01*
X8547619Y16497620D01*
X9166666Y16497620D01*
X9785714Y17497620D02*
X9880952Y17497620D01*
X9976190Y17450000D01*
X10023809Y17402381D01*
X10071428Y17307143D01*
X10119047Y17116667D01*
X10119047Y16878572D01*
X10071428Y16688096D01*
X10023809Y16592858D01*
X9976190Y16545239D01*
X9880952Y16497620D01*
X9785714Y16497620D01*
X9690476Y16545239D01*
X9642857Y16592858D01*
X9595238Y16688096D01*
X9547619Y16878572D01*
X9547619Y17116667D01*
X9595238Y17307143D01*
X9642857Y17402381D01*
X9690476Y17450000D01*
X9785714Y17497620D01*
%TO.C,R2*%
X344833333Y15247620D02*
X344500000Y15723810D01*
X344261904Y15247620D02*
X344261904Y16247620D01*
X344642857Y16247620D01*
X344738095Y16200000D01*
X344785714Y16152381D01*
X344833333Y16057143D01*
X344833333Y15914286D01*
X344785714Y15819048D01*
X344738095Y15771429D01*
X344642857Y15723810D01*
X344261904Y15723810D01*
X345214285Y16152381D02*
X345261904Y16200000D01*
X345357142Y16247620D01*
X345595238Y16247620D01*
X345690476Y16200000D01*
X345738095Y16152381D01*
X345785714Y16057143D01*
X345785714Y15961905D01*
X345738095Y15819048D01*
X345166666Y15247620D01*
X345785714Y15247620D01*
%TO.C,R3*%
X325833333Y15247620D02*
X325500000Y15723810D01*
X325261904Y15247620D02*
X325261904Y16247620D01*
X325642857Y16247620D01*
X325738095Y16200000D01*
X325785714Y16152381D01*
X325833333Y16057143D01*
X325833333Y15914286D01*
X325785714Y15819048D01*
X325738095Y15771429D01*
X325642857Y15723810D01*
X325261904Y15723810D01*
X326166666Y16247620D02*
X326785714Y16247620D01*
X326452380Y15866667D01*
X326595238Y15866667D01*
X326690476Y15819048D01*
X326738095Y15771429D01*
X326785714Y15676191D01*
X326785714Y15438096D01*
X326738095Y15342858D01*
X326690476Y15295239D01*
X326595238Y15247620D01*
X326309523Y15247620D01*
X326214285Y15295239D01*
X326166666Y15342858D01*
%TO.C,R4*%
X306833333Y15247620D02*
X306500000Y15723810D01*
X306261904Y15247620D02*
X306261904Y16247620D01*
X306642857Y16247620D01*
X306738095Y16200000D01*
X306785714Y16152381D01*
X306833333Y16057143D01*
X306833333Y15914286D01*
X306785714Y15819048D01*
X306738095Y15771429D01*
X306642857Y15723810D01*
X306261904Y15723810D01*
X307690476Y15914286D02*
X307690476Y15247620D01*
X307452380Y16295239D02*
X307214285Y15580953D01*
X307833333Y15580953D01*
%TO.C,R5*%
X287833333Y15247620D02*
X287500000Y15723810D01*
X287261904Y15247620D02*
X287261904Y16247620D01*
X287642857Y16247620D01*
X287738095Y16200000D01*
X287785714Y16152381D01*
X287833333Y16057143D01*
X287833333Y15914286D01*
X287785714Y15819048D01*
X287738095Y15771429D01*
X287642857Y15723810D01*
X287261904Y15723810D01*
X288738095Y16247620D02*
X288261904Y16247620D01*
X288214285Y15771429D01*
X288261904Y15819048D01*
X288357142Y15866667D01*
X288595238Y15866667D01*
X288690476Y15819048D01*
X288738095Y15771429D01*
X288785714Y15676191D01*
X288785714Y15438096D01*
X288738095Y15342858D01*
X288690476Y15295239D01*
X288595238Y15247620D01*
X288357142Y15247620D01*
X288261904Y15295239D01*
X288214285Y15342858D01*
%TO.C,R6*%
X268833333Y15247620D02*
X268500000Y15723810D01*
X268261904Y15247620D02*
X268261904Y16247620D01*
X268642857Y16247620D01*
X268738095Y16200000D01*
X268785714Y16152381D01*
X268833333Y16057143D01*
X268833333Y15914286D01*
X268785714Y15819048D01*
X268738095Y15771429D01*
X268642857Y15723810D01*
X268261904Y15723810D01*
X269690476Y16247620D02*
X269500000Y16247620D01*
X269404761Y16200000D01*
X269357142Y16152381D01*
X269261904Y16009524D01*
X269214285Y15819048D01*
X269214285Y15438096D01*
X269261904Y15342858D01*
X269309523Y15295239D01*
X269404761Y15247620D01*
X269595238Y15247620D01*
X269690476Y15295239D01*
X269738095Y15342858D01*
X269785714Y15438096D01*
X269785714Y15676191D01*
X269738095Y15771429D01*
X269690476Y15819048D01*
X269595238Y15866667D01*
X269404761Y15866667D01*
X269309523Y15819048D01*
X269261904Y15771429D01*
X269214285Y15676191D01*
%TO.C,R7*%
X249833333Y15247620D02*
X249500000Y15723810D01*
X249261904Y15247620D02*
X249261904Y16247620D01*
X249642857Y16247620D01*
X249738095Y16200000D01*
X249785714Y16152381D01*
X249833333Y16057143D01*
X249833333Y15914286D01*
X249785714Y15819048D01*
X249738095Y15771429D01*
X249642857Y15723810D01*
X249261904Y15723810D01*
X250166666Y16247620D02*
X250833333Y16247620D01*
X250404761Y15247620D01*
%TO.C,R9*%
X211833333Y15247620D02*
X211500000Y15723810D01*
X211261904Y15247620D02*
X211261904Y16247620D01*
X211642857Y16247620D01*
X211738095Y16200000D01*
X211785714Y16152381D01*
X211833333Y16057143D01*
X211833333Y15914286D01*
X211785714Y15819048D01*
X211738095Y15771429D01*
X211642857Y15723810D01*
X211261904Y15723810D01*
X212309523Y15247620D02*
X212500000Y15247620D01*
X212595238Y15295239D01*
X212642857Y15342858D01*
X212738095Y15485715D01*
X212785714Y15676191D01*
X212785714Y16057143D01*
X212738095Y16152381D01*
X212690476Y16200000D01*
X212595238Y16247620D01*
X212404761Y16247620D01*
X212309523Y16200000D01*
X212261904Y16152381D01*
X212214285Y16057143D01*
X212214285Y15819048D01*
X212261904Y15723810D01*
X212309523Y15676191D01*
X212404761Y15628572D01*
X212595238Y15628572D01*
X212690476Y15676191D01*
X212738095Y15723810D01*
X212785714Y15819048D01*
%TO.C,R10*%
X192357142Y15247620D02*
X192023809Y15723810D01*
X191785714Y15247620D02*
X191785714Y16247620D01*
X192166666Y16247620D01*
X192261904Y16200000D01*
X192309523Y16152381D01*
X192357142Y16057143D01*
X192357142Y15914286D01*
X192309523Y15819048D01*
X192261904Y15771429D01*
X192166666Y15723810D01*
X191785714Y15723810D01*
X193309523Y15247620D02*
X192738095Y15247620D01*
X193023809Y15247620D02*
X193023809Y16247620D01*
X192928571Y16104762D01*
X192833333Y16009524D01*
X192738095Y15961905D01*
X193928571Y16247620D02*
X194023809Y16247620D01*
X194119047Y16200000D01*
X194166666Y16152381D01*
X194214285Y16057143D01*
X194261904Y15866667D01*
X194261904Y15628572D01*
X194214285Y15438096D01*
X194166666Y15342858D01*
X194119047Y15295239D01*
X194023809Y15247620D01*
X193928571Y15247620D01*
X193833333Y15295239D01*
X193785714Y15342858D01*
X193738095Y15438096D01*
X193690476Y15628572D01*
X193690476Y15866667D01*
X193738095Y16057143D01*
X193785714Y16152381D01*
X193833333Y16200000D01*
X193928571Y16247620D01*
%TO.C,R11*%
X173357142Y15247620D02*
X173023809Y15723810D01*
X172785714Y15247620D02*
X172785714Y16247620D01*
X173166666Y16247620D01*
X173261904Y16200000D01*
X173309523Y16152381D01*
X173357142Y16057143D01*
X173357142Y15914286D01*
X173309523Y15819048D01*
X173261904Y15771429D01*
X173166666Y15723810D01*
X172785714Y15723810D01*
X174309523Y15247620D02*
X173738095Y15247620D01*
X174023809Y15247620D02*
X174023809Y16247620D01*
X173928571Y16104762D01*
X173833333Y16009524D01*
X173738095Y15961905D01*
X175261904Y15247620D02*
X174690476Y15247620D01*
X174976190Y15247620D02*
X174976190Y16247620D01*
X174880952Y16104762D01*
X174785714Y16009524D01*
X174690476Y15961905D01*
%TO.C,R12*%
X154357142Y15247620D02*
X154023809Y15723810D01*
X153785714Y15247620D02*
X153785714Y16247620D01*
X154166666Y16247620D01*
X154261904Y16200000D01*
X154309523Y16152381D01*
X154357142Y16057143D01*
X154357142Y15914286D01*
X154309523Y15819048D01*
X154261904Y15771429D01*
X154166666Y15723810D01*
X153785714Y15723810D01*
X155309523Y15247620D02*
X154738095Y15247620D01*
X155023809Y15247620D02*
X155023809Y16247620D01*
X154928571Y16104762D01*
X154833333Y16009524D01*
X154738095Y15961905D01*
X155690476Y16152381D02*
X155738095Y16200000D01*
X155833333Y16247620D01*
X156071428Y16247620D01*
X156166666Y16200000D01*
X156214285Y16152381D01*
X156261904Y16057143D01*
X156261904Y15961905D01*
X156214285Y15819048D01*
X155642857Y15247620D01*
X156261904Y15247620D01*
%TO.C,R13*%
X135357142Y15247620D02*
X135023809Y15723810D01*
X134785714Y15247620D02*
X134785714Y16247620D01*
X135166666Y16247620D01*
X135261904Y16200000D01*
X135309523Y16152381D01*
X135357142Y16057143D01*
X135357142Y15914286D01*
X135309523Y15819048D01*
X135261904Y15771429D01*
X135166666Y15723810D01*
X134785714Y15723810D01*
X136309523Y15247620D02*
X135738095Y15247620D01*
X136023809Y15247620D02*
X136023809Y16247620D01*
X135928571Y16104762D01*
X135833333Y16009524D01*
X135738095Y15961905D01*
X136642857Y16247620D02*
X137261904Y16247620D01*
X136928571Y15866667D01*
X137071428Y15866667D01*
X137166666Y15819048D01*
X137214285Y15771429D01*
X137261904Y15676191D01*
X137261904Y15438096D01*
X137214285Y15342858D01*
X137166666Y15295239D01*
X137071428Y15247620D01*
X136785714Y15247620D01*
X136690476Y15295239D01*
X136642857Y15342858D01*
%TO.C,R14*%
X116357142Y15247620D02*
X116023809Y15723810D01*
X115785714Y15247620D02*
X115785714Y16247620D01*
X116166666Y16247620D01*
X116261904Y16200000D01*
X116309523Y16152381D01*
X116357142Y16057143D01*
X116357142Y15914286D01*
X116309523Y15819048D01*
X116261904Y15771429D01*
X116166666Y15723810D01*
X115785714Y15723810D01*
X117309523Y15247620D02*
X116738095Y15247620D01*
X117023809Y15247620D02*
X117023809Y16247620D01*
X116928571Y16104762D01*
X116833333Y16009524D01*
X116738095Y15961905D01*
X118166666Y15914286D02*
X118166666Y15247620D01*
X117928571Y16295239D02*
X117690476Y15580953D01*
X118309523Y15580953D01*
%TO.C,R15*%
X97357142Y15247620D02*
X97023809Y15723810D01*
X96785714Y15247620D02*
X96785714Y16247620D01*
X97166666Y16247620D01*
X97261904Y16200000D01*
X97309523Y16152381D01*
X97357142Y16057143D01*
X97357142Y15914286D01*
X97309523Y15819048D01*
X97261904Y15771429D01*
X97166666Y15723810D01*
X96785714Y15723810D01*
X98309523Y15247620D02*
X97738095Y15247620D01*
X98023809Y15247620D02*
X98023809Y16247620D01*
X97928571Y16104762D01*
X97833333Y16009524D01*
X97738095Y15961905D01*
X99214285Y16247620D02*
X98738095Y16247620D01*
X98690476Y15771429D01*
X98738095Y15819048D01*
X98833333Y15866667D01*
X99071428Y15866667D01*
X99166666Y15819048D01*
X99214285Y15771429D01*
X99261904Y15676191D01*
X99261904Y15438096D01*
X99214285Y15342858D01*
X99166666Y15295239D01*
X99071428Y15247620D01*
X98833333Y15247620D01*
X98738095Y15295239D01*
X98690476Y15342858D01*
%TO.C,R16*%
X78357142Y15247620D02*
X78023809Y15723810D01*
X77785714Y15247620D02*
X77785714Y16247620D01*
X78166666Y16247620D01*
X78261904Y16200000D01*
X78309523Y16152381D01*
X78357142Y16057143D01*
X78357142Y15914286D01*
X78309523Y15819048D01*
X78261904Y15771429D01*
X78166666Y15723810D01*
X77785714Y15723810D01*
X79309523Y15247620D02*
X78738095Y15247620D01*
X79023809Y15247620D02*
X79023809Y16247620D01*
X78928571Y16104762D01*
X78833333Y16009524D01*
X78738095Y15961905D01*
X80166666Y16247620D02*
X79976190Y16247620D01*
X79880952Y16200000D01*
X79833333Y16152381D01*
X79738095Y16009524D01*
X79690476Y15819048D01*
X79690476Y15438096D01*
X79738095Y15342858D01*
X79785714Y15295239D01*
X79880952Y15247620D01*
X80071428Y15247620D01*
X80166666Y15295239D01*
X80214285Y15342858D01*
X80261904Y15438096D01*
X80261904Y15676191D01*
X80214285Y15771429D01*
X80166666Y15819048D01*
X80071428Y15866667D01*
X79880952Y15866667D01*
X79785714Y15819048D01*
X79738095Y15771429D01*
X79690476Y15676191D01*
%TO.C,R17*%
X59357142Y15247620D02*
X59023809Y15723810D01*
X58785714Y15247620D02*
X58785714Y16247620D01*
X59166666Y16247620D01*
X59261904Y16200000D01*
X59309523Y16152381D01*
X59357142Y16057143D01*
X59357142Y15914286D01*
X59309523Y15819048D01*
X59261904Y15771429D01*
X59166666Y15723810D01*
X58785714Y15723810D01*
X60309523Y15247620D02*
X59738095Y15247620D01*
X60023809Y15247620D02*
X60023809Y16247620D01*
X59928571Y16104762D01*
X59833333Y16009524D01*
X59738095Y15961905D01*
X60642857Y16247620D02*
X61309523Y16247620D01*
X60880952Y15247620D01*
%TO.C,R18*%
X40357142Y15247620D02*
X40023809Y15723810D01*
X39785714Y15247620D02*
X39785714Y16247620D01*
X40166666Y16247620D01*
X40261904Y16200000D01*
X40309523Y16152381D01*
X40357142Y16057143D01*
X40357142Y15914286D01*
X40309523Y15819048D01*
X40261904Y15771429D01*
X40166666Y15723810D01*
X39785714Y15723810D01*
X41309523Y15247620D02*
X40738095Y15247620D01*
X41023809Y15247620D02*
X41023809Y16247620D01*
X40928571Y16104762D01*
X40833333Y16009524D01*
X40738095Y15961905D01*
X41880952Y15819048D02*
X41785714Y15866667D01*
X41738095Y15914286D01*
X41690476Y16009524D01*
X41690476Y16057143D01*
X41738095Y16152381D01*
X41785714Y16200000D01*
X41880952Y16247620D01*
X42071428Y16247620D01*
X42166666Y16200000D01*
X42214285Y16152381D01*
X42261904Y16057143D01*
X42261904Y16009524D01*
X42214285Y15914286D01*
X42166666Y15866667D01*
X42071428Y15819048D01*
X41880952Y15819048D01*
X41785714Y15771429D01*
X41738095Y15723810D01*
X41690476Y15628572D01*
X41690476Y15438096D01*
X41738095Y15342858D01*
X41785714Y15295239D01*
X41880952Y15247620D01*
X42071428Y15247620D01*
X42166666Y15295239D01*
X42214285Y15342858D01*
X42261904Y15438096D01*
X42261904Y15628572D01*
X42214285Y15723810D01*
X42166666Y15771429D01*
X42071428Y15819048D01*
%TO.C,R19*%
X21357142Y15247620D02*
X21023809Y15723810D01*
X20785714Y15247620D02*
X20785714Y16247620D01*
X21166666Y16247620D01*
X21261904Y16200000D01*
X21309523Y16152381D01*
X21357142Y16057143D01*
X21357142Y15914286D01*
X21309523Y15819048D01*
X21261904Y15771429D01*
X21166666Y15723810D01*
X20785714Y15723810D01*
X22309523Y15247620D02*
X21738095Y15247620D01*
X22023809Y15247620D02*
X22023809Y16247620D01*
X21928571Y16104762D01*
X21833333Y16009524D01*
X21738095Y15961905D01*
X22785714Y15247620D02*
X22976190Y15247620D01*
X23071428Y15295239D01*
X23119047Y15342858D01*
X23214285Y15485715D01*
X23261904Y15676191D01*
X23261904Y16057143D01*
X23214285Y16152381D01*
X23166666Y16200000D01*
X23071428Y16247620D01*
X22880952Y16247620D01*
X22785714Y16200000D01*
X22738095Y16152381D01*
X22690476Y16057143D01*
X22690476Y15819048D01*
X22738095Y15723810D01*
X22785714Y15676191D01*
X22880952Y15628572D01*
X23071428Y15628572D01*
X23166666Y15676191D01*
X23214285Y15723810D01*
X23261904Y15819048D01*
%TO.C,R20*%
X2357142Y15247620D02*
X2023809Y15723810D01*
X1785714Y15247620D02*
X1785714Y16247620D01*
X2166666Y16247620D01*
X2261904Y16200000D01*
X2309523Y16152381D01*
X2357142Y16057143D01*
X2357142Y15914286D01*
X2309523Y15819048D01*
X2261904Y15771429D01*
X2166666Y15723810D01*
X1785714Y15723810D01*
X2738095Y16152381D02*
X2785714Y16200000D01*
X2880952Y16247620D01*
X3119047Y16247620D01*
X3214285Y16200000D01*
X3261904Y16152381D01*
X3309523Y16057143D01*
X3309523Y15961905D01*
X3261904Y15819048D01*
X2690476Y15247620D01*
X3309523Y15247620D01*
X3928571Y16247620D02*
X4023809Y16247620D01*
X4119047Y16200000D01*
X4166666Y16152381D01*
X4214285Y16057143D01*
X4261904Y15866667D01*
X4261904Y15628572D01*
X4214285Y15438096D01*
X4166666Y15342858D01*
X4119047Y15295239D01*
X4023809Y15247620D01*
X3928571Y15247620D01*
X3833333Y15295239D01*
X3785714Y15342858D01*
X3738095Y15438096D01*
X3690476Y15628572D01*
X3690476Y15866667D01*
X3738095Y16057143D01*
X3785714Y16152381D01*
X3833333Y16200000D01*
X3928571Y16247620D01*
%TD*%
M02*
