M48
; DRILL file {KiCad (5.1.5)-3} date 10/04/2020 12:18:30
; FORMAT={-:-/ absolute / metric / decimal}
; #@! TF.CreationDate,2020-04-10T12:18:30+02:00
; #@! TF.GenerationSoftware,Kicad,Pcbnew,(5.1.5)-3
; #@! TF.FileFunction,Plated,1,2,PTH
FMAT,2
METRIC
T1C0.350
T2C0.400
T3C0.750
T4C0.800
T5C1.000
%
G90
G05
T1
X102.475Y2.325
X117.53Y17.44
X138.73Y17.64
X138.73Y16.54
X140.84Y16.54
X158.857Y9.243
X177.857Y9.343
X196.857Y9.243
X201.95Y15.75
X204.3Y13.4
X205.5Y12.4
X205.5Y9.8
X211.6Y13.7
X212.45Y15.75
X219.3Y15.2
X219.996Y10.604
X302.0Y13.0
X303.0Y2.7
X306.75Y16.75
X363.0Y8.7
T2
X51.6Y3.7
X73.3Y8.3
X75.9Y11.3
X76.7Y9.6
T3
X366.206Y12.7
X367.857Y12.7
X369.508Y12.7
X371.159Y12.7
X43.206Y12.7
X44.857Y12.7
X46.508Y12.7
X48.159Y12.7
X81.206Y12.7
X82.857Y12.7
X84.508Y12.7
X86.159Y12.7
X309.206Y12.7
X310.857Y12.7
X312.508Y12.7
X314.159Y12.7
X347.206Y12.7
X348.857Y12.7
X350.508Y12.7
X352.159Y12.7
X24.206Y12.7
X25.857Y12.7
X27.508Y12.7
X29.159Y12.7
X214.206Y12.7
X215.857Y12.7
X217.508Y12.7
X219.159Y12.7
X62.206Y12.7
X63.857Y12.7
X65.508Y12.7
X67.159Y12.7
X195.206Y12.7
X196.857Y12.7
X198.508Y12.7
X200.159Y12.7
X271.206Y12.7
X272.857Y12.7
X274.508Y12.7
X276.159Y12.7
X5.206Y12.7
X6.857Y12.7
X8.508Y12.7
X10.159Y12.7
X119.206Y12.7
X120.857Y12.7
X122.508Y12.7
X124.159Y12.7
X328.206Y12.7
X329.857Y12.7
X331.508Y12.7
X333.159Y12.7
X100.206Y12.7
X101.857Y12.7
X103.508Y12.7
X105.159Y12.7
X176.206Y12.7
X177.857Y12.7
X179.508Y12.7
X181.159Y12.7
X290.206Y12.7
X291.857Y12.7
X293.508Y12.7
X295.159Y12.7
X157.206Y12.7
X158.857Y12.7
X160.508Y12.7
X162.159Y12.7
X138.206Y12.7
X139.857Y12.7
X141.508Y12.7
X143.159Y12.7
X233.206Y12.7
X234.857Y12.7
X236.508Y12.7
X238.159Y12.7
X252.206Y12.7
X253.857Y12.7
X255.508Y12.7
X257.159Y12.7
T4
X378.38Y13.32
X378.38Y5.7
X380.92Y13.32
X380.92Y5.7
X383.46Y13.32
X383.46Y5.7
X386.0Y13.32
X386.0Y5.7
X15.0Y13.0
X17.54Y13.0
X338.46Y16.7
X341.0Y16.7
X269.0Y13.24
X269.0Y10.7
X307.0Y13.24
X307.0Y10.7
X225.4Y16.6
X225.4Y14.1
X148.7Y15.5
X151.2Y15.5
X376.46Y16.7
X379.0Y16.7
X192.93Y13.06
X192.93Y10.52
X79.0Y13.24
X79.0Y10.7
X326.0Y13.24
X326.0Y10.7
X345.0Y13.24
X345.0Y10.7
X205.5Y15.6
X208.0Y15.6
X229.7Y17.5
X229.7Y14.96
X112.2Y13.59
X112.2Y11.05
X240.8Y12.74
X240.8Y10.2
X22.0Y13.24
X22.0Y10.7
X164.8Y12.7
X164.8Y10.16
X364.0Y13.24
X364.0Y10.7
X109.9Y6.925
X112.4Y6.925
X225.3Y11.0
X225.3Y8.5
X3.0Y13.24
X3.0Y10.7
X127.83Y9.18
X127.83Y6.64
X146.18Y11.12
X146.18Y8.58
X146.18Y6.04
X146.18Y3.5
X153.8Y11.12
X153.8Y8.58
X153.8Y6.04
X153.8Y3.5
X41.0Y13.24
X41.0Y10.7
X117.0Y13.24
X117.0Y10.7
X250.0Y13.24
X250.0Y10.7
X53.0Y8.0
X55.5Y8.0
X132.13Y9.625
X132.13Y7.125
X33.1Y13.0
X33.1Y5.38
X89.22Y16.9
X89.22Y9.28
X91.76Y16.9
X91.76Y9.28
X94.3Y16.9
X94.3Y9.28
X96.84Y16.9
X96.84Y9.28
X53.0Y13.0
X55.54Y13.0
X384.0Y2.7
X386.54Y2.7
X173.81Y13.11
X173.81Y10.57
X288.0Y13.24
X288.0Y10.7
X127.254Y15.14
X127.254Y12.6
X60.0Y13.24
X60.0Y10.7
X107.75Y13.0
X107.75Y10.46
X229.7Y10.74
X229.7Y8.2
X203.24Y11.23
X203.24Y8.69
X203.24Y6.15
X203.24Y3.61
X210.86Y11.23
X210.86Y8.69
X210.86Y6.15
X210.86Y3.61
X15.0Y8.0
X17.5Y8.0
X131.572Y15.494
X131.572Y12.994
X300.46Y16.7
X303.0Y16.7
X262.46Y16.7
X265.0Y16.7
X136.5Y14.15
X136.5Y11.61
X221.1Y14.14
X221.1Y11.6
T5
X99.92Y7.24
X99.92Y4.7
X102.46Y7.24
X102.46Y4.7
X105.0Y7.24
X105.0Y4.7
X328.0Y7.24
X328.0Y4.7
X330.54Y7.24
X330.54Y4.7
X333.08Y7.24
X333.08Y4.7
X127.825Y3.95
X132.825Y3.95
X383.45Y16.7
X385.99Y16.7
X37.0Y14.5
X118.92Y7.24
X118.92Y4.7
X121.46Y7.24
X121.46Y4.7
X124.0Y7.24
X124.0Y4.7
X175.92Y7.24
X175.92Y4.7
X178.46Y7.24
X178.46Y4.7
X181.0Y7.24
X181.0Y4.7
X366.0Y7.24
X366.0Y4.7
X368.54Y7.24
X368.54Y4.7
X371.08Y7.24
X371.08Y4.7
X37.0Y5.39
X308.92Y7.24
X308.92Y4.7
X311.46Y7.24
X311.46Y4.7
X314.0Y7.24
X314.0Y4.7
X188.65Y9.6
X188.6Y5.15
X90.6Y3.75
X95.6Y3.75
X42.92Y7.24
X42.92Y4.7
X45.46Y7.24
X45.46Y4.7
X48.0Y7.24
X48.0Y4.7
X252.0Y7.24
X252.0Y4.7
X254.54Y7.24
X254.54Y4.7
X257.08Y7.24
X257.08Y4.7
X72.49Y17.07
X168.18Y9.6
X168.18Y14.05
X37.0Y10.0
X214.0Y7.24
X214.0Y4.7
X216.54Y7.24
X216.54Y4.7
X219.08Y7.24
X219.08Y4.7
X347.0Y7.24
X347.0Y4.7
X349.54Y7.24
X349.54Y4.7
X352.08Y7.24
X352.08Y4.7
X168.18Y5.17
X90.56Y6.7
X93.1Y6.7
X95.64Y6.7
X232.92Y7.24
X232.92Y4.7
X235.46Y7.24
X235.46Y4.7
X238.0Y7.24
X238.0Y4.7
X80.92Y7.24
X80.92Y4.7
X83.46Y7.24
X83.46Y4.7
X86.0Y7.24
X86.0Y4.7
X4.92Y7.24
X4.92Y4.7
X7.46Y7.24
X7.46Y4.7
X10.0Y7.24
X10.0Y4.7
X243.86Y16.56
X243.86Y14.02
X243.86Y11.48
X243.86Y8.94
X243.86Y6.4
X246.4Y16.56
X246.4Y14.02
X246.4Y11.48
X246.4Y8.94
X246.4Y6.4
X137.92Y7.24
X137.92Y4.7
X140.46Y7.24
X140.46Y4.7
X143.0Y7.24
X143.0Y4.7
X61.92Y7.24
X61.92Y4.7
X64.46Y7.24
X64.46Y4.7
X67.0Y7.24
X67.0Y4.7
X194.92Y7.24
X194.92Y4.7
X197.46Y7.24
X197.46Y4.7
X200.0Y7.24
X200.0Y4.7
X290.0Y7.24
X290.0Y4.7
X292.54Y7.24
X292.54Y4.7
X295.08Y7.24
X295.08Y4.7
X223.4Y5.4
X228.4Y5.4
X23.92Y7.24
X23.92Y4.7
X26.46Y7.24
X26.46Y4.7
X29.0Y7.24
X29.0Y4.7
X156.92Y7.24
X156.92Y4.7
X159.46Y7.24
X159.46Y4.7
X162.0Y7.24
X162.0Y4.7
X271.0Y7.24
X271.0Y4.7
X273.54Y7.24
X273.54Y4.7
X276.08Y7.24
X276.08Y4.7
X188.65Y14.05
X76.55Y17.1
T0
M30
