M48
; DRILL file {KiCad (5.1.5)-3} date 04/04/2020 00:09:47
; FORMAT={-:-/ absolute / inch / decimal}
; #@! TF.CreationDate,2020-04-04T00:09:47+02:00
; #@! TF.GenerationSoftware,Kicad,Pcbnew,(5.1.5)-3
; #@! TF.FileFunction,Plated,1,2,PTH
FMAT,2
INCH
T1C0.0138
T2C0.0157
T3C0.0295
T4C0.0315
T5C0.0394
%
G90
G05
T1
X4.0344Y0.0915
X4.6272Y0.6866
X5.4618Y0.6945
X5.4618Y0.6512
X5.5449Y0.6945
X5.5449Y0.6512
X6.2542Y0.3639
X7.0022Y0.3678
X7.7503Y0.3639
X7.9508Y0.6201
X8.0433Y0.5276
X8.0906Y0.4882
X8.0906Y0.3858
X8.3307Y0.5394
X8.3642Y0.6201
X8.6339Y0.5984
X8.6613Y0.4175
X11.8898Y0.5118
X11.9291Y0.1063
X12.0768Y0.6594
X14.2913Y0.3425
T2
X2.0315Y0.1457
X2.8858Y0.3268
X2.9882Y0.4449
X3.0197Y0.378
T3
X6.9372Y0.5
X7.0022Y0.5
X7.0672Y0.5
X7.1322Y0.5
X3.9451Y0.5
X4.0101Y0.5
X4.0751Y0.5
X4.1401Y0.5
X14.4176Y0.5
X14.4826Y0.5
X14.5476Y0.5
X14.6126Y0.5
X0.205Y0.5
X0.27Y0.5
X0.335Y0.5
X0.4Y0.5
X9.1813Y0.5
X9.2463Y0.5
X9.3113Y0.5
X9.3763Y0.5
X4.6931Y0.5
X4.7581Y0.5
X4.8231Y0.5
X4.8881Y0.5
X5.4412Y0.5
X5.5062Y0.5
X5.5712Y0.5
X5.6362Y0.5
X7.6853Y0.5
X7.7503Y0.5
X7.8153Y0.5
X7.8803Y0.5
X11.4254Y0.5
X11.4904Y0.5
X11.5554Y0.5
X11.6204Y0.5
X10.6774Y0.5
X10.7424Y0.5
X10.8074Y0.5
X10.8724Y0.5
X8.4333Y0.5
X8.4983Y0.5
X8.5633Y0.5
X8.6283Y0.5
X2.4491Y0.5
X2.5141Y0.5
X2.5791Y0.5
X2.6441Y0.5
X12.1735Y0.5
X12.2385Y0.5
X12.3035Y0.5
X12.3685Y0.5
X13.6695Y0.5
X13.7345Y0.5
X13.7995Y0.5
X13.8645Y0.5
X12.9215Y0.5
X12.9865Y0.5
X13.0515Y0.5
X13.1165Y0.5
X0.953Y0.5
X1.018Y0.5
X1.083Y0.5
X1.148Y0.5
X9.9294Y0.5
X9.9944Y0.5
X10.0594Y0.5
X10.1244Y0.5
X1.701Y0.5
X1.766Y0.5
X1.831Y0.5
X1.896Y0.5
X6.1892Y0.5
X6.2542Y0.5
X6.3192Y0.5
X6.3842Y0.5
X3.1971Y0.5
X3.2621Y0.5
X3.3271Y0.5
X3.3921Y0.5
T4
X13.3252Y0.6575
X13.4252Y0.6575
X9.0433Y0.4228
X9.0433Y0.3228
X4.3268Y0.2726
X4.4252Y0.2726
X9.0433Y0.689
X9.0433Y0.589
X14.3307Y0.5213
X14.3307Y0.4213
X8.7047Y0.5567
X8.7047Y0.4567
X3.5126Y0.6654
X3.5126Y0.3654
X3.6126Y0.6654
X3.6126Y0.3654
X3.7126Y0.6654
X3.7126Y0.3654
X3.8126Y0.6654
X3.8126Y0.3654
X0.8661Y0.5213
X0.8661Y0.4213
X4.4173Y0.535
X4.4173Y0.435
X15.1181Y0.1063
X15.2181Y0.1063
X7.5957Y0.5142
X7.5957Y0.4142
X11.3386Y0.5213
X11.3386Y0.4213
X5.374Y0.5571
X5.374Y0.4571
X8.874Y0.6535
X8.874Y0.5551
X1.6142Y0.5213
X1.6142Y0.4213
X11.8291Y0.6575
X11.9291Y0.6575
X5.0327Y0.3614
X5.0327Y0.2614
X13.5827Y0.5213
X13.5827Y0.4213
X4.6063Y0.5213
X4.6063Y0.4213
X10.5906Y0.5213
X10.5906Y0.4213
X5.01Y0.5961
X5.01Y0.4961
X2.3622Y0.5213
X2.3622Y0.4213
X12.0866Y0.5213
X12.0866Y0.4213
X8.0016Y0.4421
X8.0016Y0.3421
X8.0016Y0.2421
X8.0016Y0.1421
X8.3016Y0.4421
X8.3016Y0.3421
X8.3016Y0.2421
X8.3016Y0.1421
X6.8429Y0.5161
X6.8429Y0.4161
X14.8969Y0.5244
X14.8969Y0.2244
X14.9969Y0.5244
X14.9969Y0.2244
X15.0969Y0.5244
X15.0969Y0.2244
X15.1969Y0.5244
X15.1969Y0.2244
X5.8543Y0.6102
X5.9528Y0.6102
X8.8701Y0.4331
X8.8701Y0.3346
X0.5906Y0.5118
X0.6906Y0.5118
X0.5906Y0.315
X0.689Y0.315
X9.8425Y0.5213
X9.8425Y0.4213
X9.4803Y0.5016
X9.4803Y0.4016
X1.3031Y0.5118
X1.3031Y0.2118
X5.202Y0.3789
X5.202Y0.2805
X0.1181Y0.5213
X0.1181Y0.4213
X10.3331Y0.6575
X10.4331Y0.6575
X6.4882Y0.5
X6.4882Y0.4
X12.8346Y0.5213
X12.8346Y0.4213
X8.0906Y0.6142
X8.189Y0.6142
X2.0866Y0.5118
X2.1866Y0.5118
X5.18Y0.61
X5.18Y0.5116
X3.1102Y0.5213
X3.1102Y0.4213
X14.8213Y0.6575
X14.9213Y0.6575
X5.7551Y0.4378
X5.7551Y0.3378
X5.7551Y0.2378
X5.7551Y0.1378
X6.0551Y0.4378
X6.0551Y0.3378
X6.0551Y0.2378
X6.0551Y0.1378
X4.2421Y0.5118
X4.2421Y0.4118
X2.0866Y0.315
X2.185Y0.315
T5
X2.4378Y0.285
X2.4378Y0.185
X2.5378Y0.285
X2.5378Y0.185
X2.6378Y0.285
X2.6378Y0.185
X0.9417Y0.285
X0.9417Y0.185
X1.0417Y0.285
X1.0417Y0.185
X1.1417Y0.285
X1.1417Y0.185
X8.4252Y0.285
X8.4252Y0.185
X8.5252Y0.285
X8.5252Y0.185
X8.6252Y0.285
X8.6252Y0.185
X6.6213Y0.2035
X1.4567Y0.5709
X10.6693Y0.285
X10.6693Y0.185
X10.7693Y0.285
X10.7693Y0.185
X10.8693Y0.285
X10.8693Y0.185
X3.9339Y0.285
X3.9339Y0.185
X4.0339Y0.285
X4.0339Y0.185
X4.1339Y0.285
X4.1339Y0.185
X11.4173Y0.285
X11.4173Y0.185
X11.5173Y0.285
X11.5173Y0.185
X11.6173Y0.285
X11.6173Y0.185
X3.1858Y0.285
X3.1858Y0.185
X3.2858Y0.285
X3.2858Y0.185
X3.3858Y0.285
X3.3858Y0.185
X7.4272Y0.378
X9.1701Y0.285
X9.1701Y0.185
X9.2701Y0.285
X9.2701Y0.185
X9.3701Y0.285
X9.3701Y0.185
X13.6614Y0.285
X13.6614Y0.185
X13.7614Y0.285
X13.7614Y0.185
X13.8614Y0.285
X13.8614Y0.185
X6.178Y0.285
X6.178Y0.185
X6.278Y0.285
X6.278Y0.185
X6.378Y0.285
X6.378Y0.185
X12.1622Y0.285
X12.1622Y0.185
X12.2622Y0.285
X12.2622Y0.185
X12.3622Y0.285
X12.3622Y0.185
X6.926Y0.285
X6.926Y0.185
X7.026Y0.285
X7.026Y0.185
X7.126Y0.285
X7.126Y0.185
X7.674Y0.285
X7.674Y0.185
X7.774Y0.285
X7.774Y0.185
X7.874Y0.285
X7.874Y0.185
X9.9213Y0.285
X9.9213Y0.185
X10.0213Y0.285
X10.0213Y0.185
X10.1213Y0.285
X10.1213Y0.185
X1.4567Y0.3937
X6.6213Y0.5531
X3.5669Y0.1476
X3.7638Y0.1476
X15.0965Y0.6575
X15.1965Y0.6575
X14.4094Y0.285
X14.4094Y0.185
X14.5094Y0.285
X14.5094Y0.185
X14.6094Y0.285
X14.6094Y0.185
X5.4299Y0.285
X5.4299Y0.185
X5.5299Y0.285
X5.5299Y0.185
X5.6299Y0.285
X5.6299Y0.185
X2.8539Y0.672
X1.4567Y0.2122
X6.6213Y0.378
X3.0138Y0.6732
X5.0325Y0.1555
X5.2293Y0.1555
X7.4272Y0.5531
X9.6008Y0.652
X9.6008Y0.552
X9.6008Y0.452
X9.6008Y0.352
X9.6008Y0.252
X9.7008Y0.652
X9.7008Y0.552
X9.7008Y0.452
X9.7008Y0.352
X9.7008Y0.252
X1.6898Y0.285
X1.6898Y0.185
X1.7898Y0.285
X1.7898Y0.185
X1.8898Y0.285
X1.8898Y0.185
X12.9134Y0.285
X12.9134Y0.185
X13.0134Y0.285
X13.0134Y0.185
X13.1134Y0.285
X13.1134Y0.185
X0.1937Y0.285
X0.1937Y0.185
X0.2937Y0.285
X0.2937Y0.185
X0.3937Y0.285
X0.3937Y0.185
X4.6819Y0.285
X4.6819Y0.185
X4.7819Y0.285
X4.7819Y0.185
X4.8819Y0.285
X4.8819Y0.185
X3.5654Y0.2638
X3.6654Y0.2638
X3.7654Y0.2638
X8.7953Y0.2126
X8.9921Y0.2126
X7.4252Y0.2028
T0
M30
