M48
; DRILL file {KiCad (5.1.5)-3} date 11/04/2020 14:26:30
; FORMAT={-:-/ absolute / metric / decimal}
; #@! TF.CreationDate,2020-04-11T14:26:30+02:00
; #@! TF.GenerationSoftware,Kicad,Pcbnew,(5.1.5)-3
; #@! TF.FileFunction,Plated,1,2,PTH
FMAT,2
METRIC
T1C0.350
T2C0.400
T3C0.750
T4C0.800
T5C1.000
%
G90
G05
T1
X131.475Y-37.675
X167.73Y-23.46
X169.84Y-23.46
X187.857Y-30.757
X232.1Y-25.4
X242.05Y-24.85
X331.0Y-27.0
X332.0Y-37.3
X335.75Y-23.25
T2
X146.55Y-22.36
X167.73Y-22.36
X235.7Y-29.15
T3
X281.206Y-27.3
X282.857Y-27.3
X284.508Y-27.3
X286.159Y-27.3
X262.206Y-27.3
X263.857Y-27.3
X265.508Y-27.3
X267.159Y-27.3
X376.206Y-27.3
X377.857Y-27.3
X379.508Y-27.3
X381.159Y-27.3
X243.206Y-27.3
X244.857Y-27.3
X246.508Y-27.3
X248.159Y-27.3
X110.206Y-27.3
X111.857Y-27.3
X113.508Y-27.3
X115.159Y-27.3
X34.206Y-27.3
X35.857Y-27.3
X37.508Y-27.3
X39.159Y-27.3
X205.206Y-27.3
X206.857Y-27.3
X208.508Y-27.3
X210.159Y-27.3
X148.206Y-27.3
X149.857Y-27.3
X151.508Y-27.3
X153.159Y-27.3
X53.206Y-27.3
X54.857Y-27.3
X56.508Y-27.3
X58.159Y-27.3
X224.206Y-27.3
X225.857Y-27.3
X227.508Y-27.3
X229.159Y-27.3
X319.206Y-27.3
X320.857Y-27.3
X322.508Y-27.3
X324.159Y-27.3
X395.206Y-27.3
X396.857Y-27.3
X398.508Y-27.3
X400.159Y-27.3
X167.206Y-27.3
X168.857Y-27.3
X170.508Y-27.3
X172.159Y-27.3
X91.206Y-27.3
X92.857Y-27.3
X94.508Y-27.3
X96.159Y-27.3
X300.206Y-27.3
X301.857Y-27.3
X303.508Y-27.3
X305.159Y-27.3
X129.206Y-27.3
X130.857Y-27.3
X132.508Y-27.3
X134.159Y-27.3
X338.206Y-27.3
X339.857Y-27.3
X341.508Y-27.3
X343.159Y-27.3
X72.206Y-27.3
X73.857Y-27.3
X75.508Y-27.3
X77.159Y-27.3
X357.206Y-27.3
X358.857Y-27.3
X360.508Y-27.3
X362.159Y-27.3
X186.206Y-27.3
X187.857Y-27.3
X189.508Y-27.3
X191.159Y-27.3
T4
X279.0Y-26.76
X279.0Y-29.3
X156.83Y-30.82
X156.83Y-33.36
X70.0Y-26.76
X70.0Y-29.3
X329.46Y-23.3
X332.0Y-23.3
X317.0Y-26.76
X317.0Y-29.3
X393.0Y-26.76
X393.0Y-29.3
X51.0Y-26.76
X51.0Y-29.3
X405.46Y-23.3
X408.0Y-23.3
X413.0Y-37.3
X415.54Y-37.3
X82.0Y-32.0
X84.5Y-32.0
X374.0Y-26.76
X374.0Y-29.3
X202.81Y-26.89
X202.81Y-29.43
X175.18Y-28.88
X175.18Y-31.42
X175.18Y-33.96
X175.18Y-36.5
X182.8Y-28.88
X182.8Y-31.42
X182.8Y-33.96
X182.8Y-36.5
X156.254Y-24.86
X156.254Y-27.4
X108.0Y-26.76
X108.0Y-29.3
X118.22Y-23.1
X118.22Y-30.72
X120.76Y-23.1
X120.76Y-30.72
X123.3Y-23.1
X123.3Y-30.72
X125.84Y-23.1
X125.84Y-30.72
X407.38Y-26.68
X407.38Y-34.3
X409.92Y-26.68
X409.92Y-34.3
X412.46Y-26.68
X412.46Y-34.3
X415.0Y-26.68
X415.0Y-34.3
X254.4Y-23.4
X254.4Y-25.9
X136.75Y-27.0
X136.75Y-29.54
X250.1Y-25.86
X250.1Y-28.4
X336.0Y-26.76
X336.0Y-29.3
X258.7Y-29.26
X258.7Y-31.8
X44.0Y-27.0
X46.54Y-27.0
X89.0Y-26.76
X89.0Y-29.3
X160.572Y-24.506
X160.572Y-27.006
X234.5Y-24.4
X237.0Y-24.4
X355.0Y-26.76
X355.0Y-29.3
X62.1Y-27.0
X62.1Y-34.62
X258.7Y-22.5
X258.7Y-25.04
X367.46Y-23.3
X370.0Y-23.3
X177.7Y-24.5
X180.2Y-24.5
X254.3Y-29.0
X254.3Y-31.5
X165.5Y-25.85
X165.5Y-28.39
X269.8Y-27.26
X269.8Y-29.8
X44.0Y-32.0
X46.5Y-32.0
X82.0Y-27.0
X84.54Y-27.0
X32.0Y-26.76
X32.0Y-29.3
X232.24Y-28.77
X232.24Y-31.31
X232.24Y-33.85
X232.24Y-36.39
X239.86Y-28.77
X239.86Y-31.31
X239.86Y-33.85
X239.86Y-36.39
X193.8Y-27.3
X193.8Y-29.84
X298.0Y-26.76
X298.0Y-29.3
X291.46Y-23.3
X294.0Y-23.3
X141.2Y-26.41
X141.2Y-28.95
X161.13Y-30.375
X161.13Y-32.875
X140.0Y-33.55
X142.5Y-33.55
X146.0Y-26.76
X146.0Y-29.3
X221.93Y-26.94
X221.93Y-29.48
T5
X119.6Y-36.7
X124.6Y-36.7
X223.92Y-32.76
X223.92Y-35.3
X226.46Y-32.76
X226.46Y-35.3
X229.0Y-32.76
X229.0Y-35.3
X412.45Y-23.3
X414.99Y-23.3
X281.0Y-32.76
X281.0Y-35.3
X283.54Y-32.76
X283.54Y-35.3
X286.08Y-32.76
X286.08Y-35.3
X185.92Y-32.76
X185.92Y-35.3
X188.46Y-32.76
X188.46Y-35.3
X191.0Y-32.76
X191.0Y-35.3
X261.92Y-32.76
X261.92Y-35.3
X264.46Y-32.76
X264.46Y-35.3
X267.0Y-32.76
X267.0Y-35.3
X217.65Y-30.4
X376.0Y-32.76
X376.0Y-35.3
X378.54Y-32.76
X378.54Y-35.3
X381.08Y-32.76
X381.08Y-35.3
X100.75Y-23.3
X166.92Y-32.76
X166.92Y-35.3
X169.46Y-32.76
X169.46Y-35.3
X172.0Y-32.76
X172.0Y-35.3
X217.65Y-25.95
X319.0Y-32.76
X319.0Y-35.3
X321.54Y-32.76
X321.54Y-35.3
X324.08Y-32.76
X324.08Y-35.3
X197.18Y-25.95
X90.92Y-32.76
X90.92Y-35.3
X93.46Y-32.76
X93.46Y-35.3
X96.0Y-32.76
X96.0Y-35.3
X109.92Y-32.76
X109.92Y-35.3
X112.46Y-32.76
X112.46Y-35.3
X115.0Y-32.76
X115.0Y-35.3
X337.92Y-32.76
X337.92Y-35.3
X340.46Y-32.76
X340.46Y-35.3
X343.0Y-32.76
X343.0Y-35.3
X395.0Y-32.76
X395.0Y-35.3
X397.54Y-32.76
X397.54Y-35.3
X400.08Y-32.76
X400.08Y-35.3
X71.92Y-32.76
X71.92Y-35.3
X74.46Y-32.76
X74.46Y-35.3
X77.0Y-32.76
X77.0Y-35.3
X66.0Y-30.0
X252.4Y-34.6
X257.4Y-34.6
X357.0Y-32.76
X357.0Y-35.3
X359.54Y-32.76
X359.54Y-35.3
X362.08Y-32.76
X362.08Y-35.3
X197.18Y-34.83
X273.11Y-23.44
X273.11Y-25.98
X273.11Y-28.52
X273.11Y-31.06
X273.11Y-33.6
X275.65Y-23.44
X275.65Y-25.98
X275.65Y-28.52
X275.65Y-31.06
X275.65Y-33.6
X105.55Y-23.3
X128.92Y-32.76
X128.92Y-35.3
X131.46Y-32.76
X131.46Y-35.3
X134.0Y-32.76
X134.0Y-35.3
X33.92Y-32.76
X33.92Y-35.3
X36.46Y-32.76
X36.46Y-35.3
X39.0Y-32.76
X39.0Y-35.3
X243.0Y-32.76
X243.0Y-35.3
X245.54Y-32.76
X245.54Y-35.3
X248.08Y-32.76
X248.08Y-35.3
X156.825Y-36.05
X161.825Y-36.05
X119.56Y-33.3
X122.1Y-33.3
X124.64Y-33.3
X197.18Y-30.4
X204.92Y-32.76
X204.92Y-35.3
X207.46Y-32.76
X207.46Y-35.3
X210.0Y-32.76
X210.0Y-35.3
X52.92Y-32.76
X52.92Y-35.3
X55.46Y-32.76
X55.46Y-35.3
X58.0Y-32.76
X58.0Y-35.3
X66.0Y-25.5
X217.6Y-34.85
X66.0Y-34.61
X147.92Y-32.76
X147.92Y-35.3
X150.46Y-32.76
X150.46Y-35.3
X153.0Y-32.76
X153.0Y-35.3
X300.0Y-32.76
X300.0Y-35.3
X302.54Y-32.76
X302.54Y-35.3
X305.08Y-32.76
X305.08Y-35.3
T0
M30
