%TF.GenerationSoftware,KiCad,Pcbnew,(5.1.5)-3*%
%TF.CreationDate,2020-04-03T20:25:34+02:00*%
%TF.ProjectId,Larson SC64anner,4c617273-6f6e-4205-9343-3634616e6e65,rev?*%
%TF.SameCoordinates,PX1ba8140PY2625a00*%
%TF.FileFunction,Copper,L2,Bot*%
%TF.FilePolarity,Positive*%
%FSLAX46Y46*%
G04 Gerber Fmt 4.6, Leading zero omitted, Abs format (unit mm)*
G04 Created by KiCad (PCBNEW (5.1.5)-3) date 2020-04-03 20:25:34*
%MOMM*%
%LPD*%
G04 APERTURE LIST*
%TA.AperFunction,NonConductor*%
%ADD10C,0.300000*%
%TD*%
%TA.AperFunction,ComponentPad*%
%ADD11R,1.700000X1.700000*%
%TD*%
%TA.AperFunction,ComponentPad*%
%ADD12O,1.700000X1.700000*%
%TD*%
%TA.AperFunction,ComponentPad*%
%ADD13R,1.600000X1.600000*%
%TD*%
%TA.AperFunction,ComponentPad*%
%ADD14C,1.600000*%
%TD*%
%TA.AperFunction,ComponentPad*%
%ADD15O,1.600000X1.600000*%
%TD*%
%TA.AperFunction,ComponentPad*%
%ADD16C,1.200000*%
%TD*%
%TA.AperFunction,ComponentPad*%
%ADD17R,1.200000X1.200000*%
%TD*%
%TA.AperFunction,ComponentPad*%
%ADD18C,2.000000*%
%TD*%
%TA.AperFunction,ViaPad*%
%ADD19C,0.600000*%
%TD*%
%TA.AperFunction,ViaPad*%
%ADD20C,0.800000*%
%TD*%
%TA.AperFunction,Conductor*%
%ADD21C,0.250000*%
%TD*%
G04 APERTURE END LIST*
D10*
X14571428Y2021429D02*
X13857142Y2021429D01*
X13857142Y3521429D01*
X15000000Y2092858D02*
X15214285Y2021429D01*
X15571428Y2021429D01*
X15714285Y2092858D01*
X15785714Y2164286D01*
X15857142Y2307143D01*
X15857142Y2450000D01*
X15785714Y2592858D01*
X15714285Y2664286D01*
X15571428Y2735715D01*
X15285714Y2807143D01*
X15142857Y2878572D01*
X15071428Y2950000D01*
X15000000Y3092858D01*
X15000000Y3235715D01*
X15071428Y3378572D01*
X15142857Y3450000D01*
X15285714Y3521429D01*
X15642857Y3521429D01*
X15857142Y3450000D01*
X17357142Y2164286D02*
X17285714Y2092858D01*
X17071428Y2021429D01*
X16928571Y2021429D01*
X16714285Y2092858D01*
X16571428Y2235715D01*
X16500000Y2378572D01*
X16428571Y2664286D01*
X16428571Y2878572D01*
X16500000Y3164286D01*
X16571428Y3307143D01*
X16714285Y3450000D01*
X16928571Y3521429D01*
X17071428Y3521429D01*
X17285714Y3450000D01*
X17357142Y3378572D01*
X18642857Y3521429D02*
X18357142Y3521429D01*
X18214285Y3450000D01*
X18142857Y3378572D01*
X18000000Y3164286D01*
X17928571Y2878572D01*
X17928571Y2307143D01*
X18000000Y2164286D01*
X18071428Y2092858D01*
X18214285Y2021429D01*
X18500000Y2021429D01*
X18642857Y2092858D01*
X18714285Y2164286D01*
X18785714Y2307143D01*
X18785714Y2664286D01*
X18714285Y2807143D01*
X18642857Y2878572D01*
X18500000Y2950000D01*
X18214285Y2950000D01*
X18071428Y2878572D01*
X18000000Y2807143D01*
X17928571Y2664286D01*
X20071428Y3021429D02*
X20071428Y2021429D01*
X19714285Y3592858D02*
X19357142Y2521429D01*
X20285714Y2521429D01*
D11*
%TO.P,J26,1*%
%TO.N,Net-(C11-Pad2)*%
X243860000Y16560000D03*
D12*
%TO.P,J26,2*%
X246400000Y16560000D03*
%TO.P,J26,3*%
X243860000Y14020000D03*
%TO.P,J26,4*%
X246400000Y14020000D03*
%TO.P,J26,5*%
X243860000Y11480000D03*
%TO.P,J26,6*%
X246400000Y11480000D03*
%TO.P,J26,7*%
X243860000Y8940000D03*
%TO.P,J26,8*%
X246400000Y8940000D03*
%TO.P,J26,9*%
X243860000Y6400000D03*
%TO.P,J26,10*%
X246400000Y6400000D03*
%TD*%
D11*
%TO.P,J25,1*%
%TO.N,Net-(J25-Pad1)*%
X72490000Y17070000D03*
%TD*%
D12*
%TO.P,J10,6*%
%TO.N,Net-(J10-Pad6)*%
X200000000Y7240000D03*
%TO.P,J10,5*%
%TO.N,Net-(J10-Pad1)*%
X200000000Y4700000D03*
%TO.P,J10,4*%
%TO.N,Net-(J10-Pad4)*%
X197460000Y7240000D03*
%TO.P,J10,3*%
%TO.N,Net-(J10-Pad1)*%
X197460000Y4700000D03*
%TO.P,J10,2*%
%TO.N,Net-(J10-Pad2)*%
X194920000Y7240000D03*
D11*
%TO.P,J10,1*%
%TO.N,Net-(J10-Pad1)*%
X194920000Y4700000D03*
%TD*%
D13*
%TO.P,C1,2*%
%TO.N,Net-(C1-Pad2)*%
X55500000Y8000000D03*
D14*
%TO.P,C1,1*%
%TO.N,Net-(C1-Pad1)*%
X53000000Y8000000D03*
%TD*%
D15*
%TO.P,U1,8*%
%TO.N,Net-(J21-Pad1)*%
X378380000Y13320000D03*
D13*
%TO.P,U1,4*%
%TO.N,Net-(C11-Pad2)*%
X386000000Y5700000D03*
D15*
%TO.P,U1,7*%
%TO.N,Net-(R23-Pad1)*%
X380920000Y13320000D03*
%TO.P,U1,3*%
%TO.N,Net-(R25-Pad1)*%
X383460000Y5700000D03*
%TO.P,U1,6*%
%TO.N,Net-(R22-Pad2)*%
X383460000Y13320000D03*
%TO.P,U1,2*%
%TO.N,Net-(R24-Pad1)*%
X380920000Y5700000D03*
%TO.P,U1,5*%
%TO.N,Net-(R21-Pad2)*%
X386000000Y13320000D03*
D14*
%TO.P,U1,1*%
%TO.N,N/C*%
X378380000Y5700000D03*
%TD*%
D16*
%TO.P,LED1,4*%
%TO.N,Net-(J1-Pad6)*%
X371159000Y12700000D03*
%TO.P,LED1,1*%
%TO.N,Net-(LED1-Pad1)*%
X366206000Y12700000D03*
%TO.P,LED1,3*%
%TO.N,Net-(J1-Pad4)*%
X369508000Y12700000D03*
D17*
%TO.P,LED1,2*%
%TO.N,Net-(J11-Pad1)*%
X367857000Y12700000D03*
%TD*%
D12*
%TO.P,J1,6*%
%TO.N,Net-(J1-Pad6)*%
X371080000Y7240000D03*
%TO.P,J1,5*%
%TO.N,Net-(J1-Pad1)*%
X371080000Y4700000D03*
%TO.P,J1,4*%
%TO.N,Net-(J1-Pad4)*%
X368540000Y7240000D03*
%TO.P,J1,3*%
%TO.N,Net-(J1-Pad1)*%
X368540000Y4700000D03*
%TO.P,J1,2*%
%TO.N,Net-(J1-Pad2)*%
X366000000Y7240000D03*
D11*
%TO.P,J1,1*%
%TO.N,Net-(J1-Pad1)*%
X366000000Y4700000D03*
%TD*%
D12*
%TO.P,J2,6*%
%TO.N,Net-(J2-Pad6)*%
X352080000Y7240000D03*
%TO.P,J2,5*%
%TO.N,Net-(J11-Pad1)*%
X352080000Y4700000D03*
%TO.P,J2,4*%
%TO.N,Net-(J2-Pad4)*%
X349540000Y7240000D03*
%TO.P,J2,3*%
%TO.N,Net-(J11-Pad1)*%
X349540000Y4700000D03*
%TO.P,J2,2*%
%TO.N,Net-(J2-Pad2)*%
X347000000Y7240000D03*
D11*
%TO.P,J2,1*%
%TO.N,Net-(J11-Pad1)*%
X347000000Y4700000D03*
%TD*%
D12*
%TO.P,J3,6*%
%TO.N,Net-(J3-Pad6)*%
X333080000Y7240000D03*
%TO.P,J3,5*%
%TO.N,Net-(J1-Pad1)*%
X333080000Y4700000D03*
%TO.P,J3,4*%
%TO.N,Net-(J3-Pad4)*%
X330540000Y7240000D03*
%TO.P,J3,3*%
%TO.N,Net-(J1-Pad1)*%
X330540000Y4700000D03*
%TO.P,J3,2*%
%TO.N,Net-(J3-Pad2)*%
X328000000Y7240000D03*
D11*
%TO.P,J3,1*%
%TO.N,Net-(J1-Pad1)*%
X328000000Y4700000D03*
%TD*%
D12*
%TO.P,J4,6*%
%TO.N,Net-(J4-Pad6)*%
X314000000Y7240000D03*
%TO.P,J4,5*%
%TO.N,Net-(J10-Pad1)*%
X314000000Y4700000D03*
%TO.P,J4,4*%
%TO.N,Net-(J4-Pad4)*%
X311460000Y7240000D03*
%TO.P,J4,3*%
%TO.N,Net-(J10-Pad1)*%
X311460000Y4700000D03*
%TO.P,J4,2*%
%TO.N,Net-(J4-Pad2)*%
X308920000Y7240000D03*
D11*
%TO.P,J4,1*%
%TO.N,Net-(J10-Pad1)*%
X308920000Y4700000D03*
%TD*%
D12*
%TO.P,J5,6*%
%TO.N,Net-(J5-Pad6)*%
X295080000Y7240000D03*
%TO.P,J5,5*%
%TO.N,Net-(J1-Pad1)*%
X295080000Y4700000D03*
%TO.P,J5,4*%
%TO.N,Net-(J5-Pad4)*%
X292540000Y7240000D03*
%TO.P,J5,3*%
%TO.N,Net-(J1-Pad1)*%
X292540000Y4700000D03*
%TO.P,J5,2*%
%TO.N,Net-(J5-Pad2)*%
X290000000Y7240000D03*
D11*
%TO.P,J5,1*%
%TO.N,Net-(J1-Pad1)*%
X290000000Y4700000D03*
%TD*%
D12*
%TO.P,J6,6*%
%TO.N,Net-(J6-Pad6)*%
X276080000Y7240000D03*
%TO.P,J6,5*%
%TO.N,Net-(J12-Pad1)*%
X276080000Y4700000D03*
%TO.P,J6,4*%
%TO.N,Net-(J6-Pad4)*%
X273540000Y7240000D03*
%TO.P,J6,3*%
%TO.N,Net-(J12-Pad1)*%
X273540000Y4700000D03*
%TO.P,J6,2*%
%TO.N,Net-(J6-Pad2)*%
X271000000Y7240000D03*
D11*
%TO.P,J6,1*%
%TO.N,Net-(J12-Pad1)*%
X271000000Y4700000D03*
%TD*%
D12*
%TO.P,J7,6*%
%TO.N,Net-(J7-Pad6)*%
X257080000Y7240000D03*
%TO.P,J7,5*%
%TO.N,Net-(J1-Pad1)*%
X257080000Y4700000D03*
%TO.P,J7,4*%
%TO.N,Net-(J7-Pad4)*%
X254540000Y7240000D03*
%TO.P,J7,3*%
%TO.N,Net-(J1-Pad1)*%
X254540000Y4700000D03*
%TO.P,J7,2*%
%TO.N,Net-(J7-Pad2)*%
X252000000Y7240000D03*
D11*
%TO.P,J7,1*%
%TO.N,Net-(J1-Pad1)*%
X252000000Y4700000D03*
%TD*%
D12*
%TO.P,J8,6*%
%TO.N,Net-(J8-Pad6)*%
X238000000Y7240000D03*
%TO.P,J8,5*%
%TO.N,Net-(J14-Pad1)*%
X238000000Y4700000D03*
%TO.P,J8,4*%
%TO.N,Net-(J8-Pad4)*%
X235460000Y7240000D03*
%TO.P,J8,3*%
%TO.N,Net-(J14-Pad1)*%
X235460000Y4700000D03*
%TO.P,J8,2*%
%TO.N,Net-(J8-Pad2)*%
X232920000Y7240000D03*
D11*
%TO.P,J8,1*%
%TO.N,Net-(J14-Pad1)*%
X232920000Y4700000D03*
%TD*%
D12*
%TO.P,J9,6*%
%TO.N,Net-(J9-Pad6)*%
X219080000Y7240000D03*
%TO.P,J9,5*%
%TO.N,Net-(J11-Pad1)*%
X219080000Y4700000D03*
%TO.P,J9,4*%
%TO.N,Net-(J9-Pad4)*%
X216540000Y7240000D03*
%TO.P,J9,3*%
%TO.N,Net-(J11-Pad1)*%
X216540000Y4700000D03*
%TO.P,J9,2*%
%TO.N,Net-(J9-Pad2)*%
X214000000Y7240000D03*
D11*
%TO.P,J9,1*%
%TO.N,Net-(J11-Pad1)*%
X214000000Y4700000D03*
%TD*%
D12*
%TO.P,J11,6*%
%TO.N,Net-(J11-Pad6)*%
X181000000Y7240000D03*
%TO.P,J11,5*%
%TO.N,Net-(J11-Pad1)*%
X181000000Y4700000D03*
%TO.P,J11,4*%
%TO.N,Net-(J11-Pad4)*%
X178460000Y7240000D03*
%TO.P,J11,3*%
%TO.N,Net-(J11-Pad1)*%
X178460000Y4700000D03*
%TO.P,J11,2*%
%TO.N,Net-(J11-Pad2)*%
X175920000Y7240000D03*
D11*
%TO.P,J11,1*%
%TO.N,Net-(J11-Pad1)*%
X175920000Y4700000D03*
%TD*%
D12*
%TO.P,J12,6*%
%TO.N,Net-(J12-Pad6)*%
X162000000Y7240000D03*
%TO.P,J12,5*%
%TO.N,Net-(J12-Pad1)*%
X162000000Y4700000D03*
%TO.P,J12,4*%
%TO.N,Net-(J12-Pad4)*%
X159460000Y7240000D03*
%TO.P,J12,3*%
%TO.N,Net-(J12-Pad1)*%
X159460000Y4700000D03*
%TO.P,J12,2*%
%TO.N,Net-(J12-Pad2)*%
X156920000Y7240000D03*
D11*
%TO.P,J12,1*%
%TO.N,Net-(J12-Pad1)*%
X156920000Y4700000D03*
%TD*%
D12*
%TO.P,J13,6*%
%TO.N,Net-(J13-Pad6)*%
X143000000Y7240000D03*
%TO.P,J13,5*%
%TO.N,Net-(J11-Pad1)*%
X143000000Y4700000D03*
%TO.P,J13,4*%
%TO.N,Net-(J13-Pad4)*%
X140460000Y7240000D03*
%TO.P,J13,3*%
%TO.N,Net-(J11-Pad1)*%
X140460000Y4700000D03*
%TO.P,J13,2*%
%TO.N,Net-(J13-Pad2)*%
X137920000Y7240000D03*
D11*
%TO.P,J13,1*%
%TO.N,Net-(J11-Pad1)*%
X137920000Y4700000D03*
%TD*%
D12*
%TO.P,J14,6*%
%TO.N,Net-(J14-Pad6)*%
X124000000Y7240000D03*
%TO.P,J14,5*%
%TO.N,Net-(J14-Pad1)*%
X124000000Y4700000D03*
%TO.P,J14,4*%
%TO.N,Net-(J14-Pad4)*%
X121460000Y7240000D03*
%TO.P,J14,3*%
%TO.N,Net-(J14-Pad1)*%
X121460000Y4700000D03*
%TO.P,J14,2*%
%TO.N,Net-(J14-Pad2)*%
X118920000Y7240000D03*
D11*
%TO.P,J14,1*%
%TO.N,Net-(J14-Pad1)*%
X118920000Y4700000D03*
%TD*%
D12*
%TO.P,J15,6*%
%TO.N,Net-(J15-Pad6)*%
X105000000Y7240000D03*
%TO.P,J15,5*%
%TO.N,Net-(J10-Pad1)*%
X105000000Y4700000D03*
%TO.P,J15,4*%
%TO.N,Net-(J15-Pad4)*%
X102460000Y7240000D03*
%TO.P,J15,3*%
%TO.N,Net-(J10-Pad1)*%
X102460000Y4700000D03*
%TO.P,J15,2*%
%TO.N,Net-(J15-Pad2)*%
X99920000Y7240000D03*
D11*
%TO.P,J15,1*%
%TO.N,Net-(J10-Pad1)*%
X99920000Y4700000D03*
%TD*%
D12*
%TO.P,J16,6*%
%TO.N,Net-(J16-Pad6)*%
X86000000Y7240000D03*
%TO.P,J16,5*%
%TO.N,Net-(J12-Pad1)*%
X86000000Y4700000D03*
%TO.P,J16,4*%
%TO.N,Net-(J16-Pad4)*%
X83460000Y7240000D03*
%TO.P,J16,3*%
%TO.N,Net-(J12-Pad1)*%
X83460000Y4700000D03*
%TO.P,J16,2*%
%TO.N,Net-(J16-Pad2)*%
X80920000Y7240000D03*
D11*
%TO.P,J16,1*%
%TO.N,Net-(J12-Pad1)*%
X80920000Y4700000D03*
%TD*%
D12*
%TO.P,J17,6*%
%TO.N,Net-(J17-Pad6)*%
X67000000Y7240000D03*
%TO.P,J17,5*%
%TO.N,Net-(J10-Pad1)*%
X67000000Y4700000D03*
%TO.P,J17,4*%
%TO.N,Net-(J17-Pad4)*%
X64460000Y7240000D03*
%TO.P,J17,3*%
%TO.N,Net-(J10-Pad1)*%
X64460000Y4700000D03*
%TO.P,J17,2*%
%TO.N,Net-(J17-Pad2)*%
X61920000Y7240000D03*
D11*
%TO.P,J17,1*%
%TO.N,Net-(J10-Pad1)*%
X61920000Y4700000D03*
%TD*%
D12*
%TO.P,J18,6*%
%TO.N,Net-(J18-Pad6)*%
X48000000Y7240000D03*
%TO.P,J18,5*%
%TO.N,Net-(J14-Pad1)*%
X48000000Y4700000D03*
%TO.P,J18,4*%
%TO.N,Net-(J18-Pad4)*%
X45460000Y7240000D03*
%TO.P,J18,3*%
%TO.N,Net-(J14-Pad1)*%
X45460000Y4700000D03*
%TO.P,J18,2*%
%TO.N,Net-(J18-Pad2)*%
X42920000Y7240000D03*
D11*
%TO.P,J18,1*%
%TO.N,Net-(J14-Pad1)*%
X42920000Y4700000D03*
%TD*%
D12*
%TO.P,J19,6*%
%TO.N,Net-(J19-Pad6)*%
X29000000Y7240000D03*
%TO.P,J19,5*%
%TO.N,Net-(J12-Pad1)*%
X29000000Y4700000D03*
%TO.P,J19,4*%
%TO.N,Net-(J19-Pad4)*%
X26460000Y7240000D03*
%TO.P,J19,3*%
%TO.N,Net-(J12-Pad1)*%
X26460000Y4700000D03*
%TO.P,J19,2*%
%TO.N,Net-(J19-Pad2)*%
X23920000Y7240000D03*
D11*
%TO.P,J19,1*%
%TO.N,Net-(J12-Pad1)*%
X23920000Y4700000D03*
%TD*%
D12*
%TO.P,J20,6*%
%TO.N,Net-(J20-Pad6)*%
X10000000Y7240000D03*
%TO.P,J20,5*%
%TO.N,Net-(J14-Pad1)*%
X10000000Y4700000D03*
%TO.P,J20,4*%
%TO.N,Net-(J20-Pad4)*%
X7460000Y7240000D03*
%TO.P,J20,3*%
%TO.N,Net-(J14-Pad1)*%
X7460000Y4700000D03*
%TO.P,J20,2*%
%TO.N,Net-(J20-Pad2)*%
X4920000Y7240000D03*
D11*
%TO.P,J20,1*%
%TO.N,Net-(J14-Pad1)*%
X4920000Y4700000D03*
%TD*%
D16*
%TO.P,LED2,4*%
%TO.N,Net-(J2-Pad6)*%
X352159000Y12700000D03*
%TO.P,LED2,1*%
%TO.N,Net-(LED2-Pad1)*%
X347206000Y12700000D03*
%TO.P,LED2,3*%
%TO.N,Net-(J2-Pad4)*%
X350508000Y12700000D03*
D17*
%TO.P,LED2,2*%
%TO.N,Net-(J1-Pad1)*%
X348857000Y12700000D03*
%TD*%
D16*
%TO.P,LED3,4*%
%TO.N,Net-(J3-Pad6)*%
X333159000Y12700000D03*
%TO.P,LED3,1*%
%TO.N,Net-(LED3-Pad1)*%
X328206000Y12700000D03*
%TO.P,LED3,3*%
%TO.N,Net-(J3-Pad4)*%
X331508000Y12700000D03*
D17*
%TO.P,LED3,2*%
%TO.N,Net-(J10-Pad1)*%
X329857000Y12700000D03*
%TD*%
D16*
%TO.P,LED4,4*%
%TO.N,Net-(J4-Pad6)*%
X314159000Y12700000D03*
%TO.P,LED4,1*%
%TO.N,Net-(LED4-Pad1)*%
X309206000Y12700000D03*
%TO.P,LED4,3*%
%TO.N,Net-(J4-Pad4)*%
X312508000Y12700000D03*
D17*
%TO.P,LED4,2*%
%TO.N,Net-(J1-Pad1)*%
X310857000Y12700000D03*
%TD*%
D16*
%TO.P,LED5,4*%
%TO.N,Net-(J5-Pad6)*%
X295159000Y12700000D03*
%TO.P,LED5,1*%
%TO.N,Net-(LED5-Pad1)*%
X290206000Y12700000D03*
%TO.P,LED5,3*%
%TO.N,Net-(J5-Pad4)*%
X293508000Y12700000D03*
D17*
%TO.P,LED5,2*%
%TO.N,Net-(J12-Pad1)*%
X291857000Y12700000D03*
%TD*%
D16*
%TO.P,LED6,4*%
%TO.N,Net-(J6-Pad6)*%
X276159000Y12700000D03*
%TO.P,LED6,1*%
%TO.N,Net-(LED6-Pad1)*%
X271206000Y12700000D03*
%TO.P,LED6,3*%
%TO.N,Net-(J6-Pad4)*%
X274508000Y12700000D03*
D17*
%TO.P,LED6,2*%
%TO.N,Net-(J1-Pad1)*%
X272857000Y12700000D03*
%TD*%
D16*
%TO.P,LED7,4*%
%TO.N,Net-(J7-Pad6)*%
X257159000Y12700000D03*
%TO.P,LED7,1*%
%TO.N,Net-(LED7-Pad1)*%
X252206000Y12700000D03*
%TO.P,LED7,3*%
%TO.N,Net-(J7-Pad4)*%
X255508000Y12700000D03*
D17*
%TO.P,LED7,2*%
%TO.N,Net-(J14-Pad1)*%
X253857000Y12700000D03*
%TD*%
D16*
%TO.P,LED8,4*%
%TO.N,Net-(J8-Pad6)*%
X238159000Y12700000D03*
%TO.P,LED8,1*%
%TO.N,Net-(LED8-Pad1)*%
X233206000Y12700000D03*
%TO.P,LED8,3*%
%TO.N,Net-(J8-Pad4)*%
X236508000Y12700000D03*
D17*
%TO.P,LED8,2*%
%TO.N,Net-(J1-Pad1)*%
X234857000Y12700000D03*
%TD*%
D16*
%TO.P,LED9,4*%
%TO.N,Net-(J9-Pad6)*%
X219159000Y12700000D03*
%TO.P,LED9,1*%
%TO.N,Net-(LED9-Pad1)*%
X214206000Y12700000D03*
%TO.P,LED9,3*%
%TO.N,Net-(J9-Pad4)*%
X217508000Y12700000D03*
D17*
%TO.P,LED9,2*%
%TO.N,Net-(J10-Pad1)*%
X215857000Y12700000D03*
%TD*%
D16*
%TO.P,LED10,4*%
%TO.N,Net-(J10-Pad6)*%
X200159000Y12700000D03*
%TO.P,LED10,1*%
%TO.N,Net-(LED10-Pad1)*%
X195206000Y12700000D03*
%TO.P,LED10,3*%
%TO.N,Net-(J10-Pad4)*%
X198508000Y12700000D03*
D17*
%TO.P,LED10,2*%
%TO.N,Net-(J11-Pad1)*%
X196857000Y12700000D03*
%TD*%
D16*
%TO.P,LED11,4*%
%TO.N,Net-(J11-Pad6)*%
X181159000Y12700000D03*
%TO.P,LED11,1*%
%TO.N,Net-(LED11-Pad1)*%
X176206000Y12700000D03*
%TO.P,LED11,3*%
%TO.N,Net-(J11-Pad4)*%
X179508000Y12700000D03*
D17*
%TO.P,LED11,2*%
%TO.N,Net-(J12-Pad1)*%
X177857000Y12700000D03*
%TD*%
D16*
%TO.P,LED12,4*%
%TO.N,Net-(J12-Pad6)*%
X162159000Y12700000D03*
%TO.P,LED12,1*%
%TO.N,Net-(LED12-Pad1)*%
X157206000Y12700000D03*
%TO.P,LED12,3*%
%TO.N,Net-(J12-Pad4)*%
X160508000Y12700000D03*
D17*
%TO.P,LED12,2*%
%TO.N,Net-(J11-Pad1)*%
X158857000Y12700000D03*
%TD*%
D16*
%TO.P,LED13,4*%
%TO.N,Net-(J13-Pad6)*%
X143159000Y12700000D03*
%TO.P,LED13,1*%
%TO.N,Net-(LED13-Pad1)*%
X138206000Y12700000D03*
%TO.P,LED13,3*%
%TO.N,Net-(J13-Pad4)*%
X141508000Y12700000D03*
D17*
%TO.P,LED13,2*%
%TO.N,Net-(J14-Pad1)*%
X139857000Y12700000D03*
%TD*%
D16*
%TO.P,LED14,4*%
%TO.N,Net-(J14-Pad6)*%
X124159000Y12700000D03*
%TO.P,LED14,1*%
%TO.N,Net-(LED14-Pad1)*%
X119206000Y12700000D03*
%TO.P,LED14,3*%
%TO.N,Net-(J14-Pad4)*%
X122508000Y12700000D03*
D17*
%TO.P,LED14,2*%
%TO.N,Net-(J11-Pad1)*%
X120857000Y12700000D03*
%TD*%
D16*
%TO.P,LED15,4*%
%TO.N,Net-(J15-Pad6)*%
X105159000Y12700000D03*
%TO.P,LED15,1*%
%TO.N,Net-(LED15-Pad1)*%
X100206000Y12700000D03*
%TO.P,LED15,3*%
%TO.N,Net-(J15-Pad4)*%
X103508000Y12700000D03*
D17*
%TO.P,LED15,2*%
%TO.N,Net-(J12-Pad1)*%
X101857000Y12700000D03*
%TD*%
D16*
%TO.P,LED16,4*%
%TO.N,Net-(J16-Pad6)*%
X86159000Y12700000D03*
%TO.P,LED16,1*%
%TO.N,Net-(LED16-Pad1)*%
X81206000Y12700000D03*
%TO.P,LED16,3*%
%TO.N,Net-(J16-Pad4)*%
X84508000Y12700000D03*
D17*
%TO.P,LED16,2*%
%TO.N,Net-(J10-Pad1)*%
X82857000Y12700000D03*
%TD*%
D16*
%TO.P,LED17,4*%
%TO.N,Net-(J17-Pad6)*%
X67159000Y12700000D03*
%TO.P,LED17,1*%
%TO.N,Net-(LED17-Pad1)*%
X62206000Y12700000D03*
%TO.P,LED17,3*%
%TO.N,Net-(J17-Pad4)*%
X65508000Y12700000D03*
D17*
%TO.P,LED17,2*%
%TO.N,Net-(J14-Pad1)*%
X63857000Y12700000D03*
%TD*%
D16*
%TO.P,LED18,4*%
%TO.N,Net-(J18-Pad6)*%
X48159000Y12700000D03*
%TO.P,LED18,1*%
%TO.N,Net-(LED18-Pad1)*%
X43206000Y12700000D03*
%TO.P,LED18,3*%
%TO.N,Net-(J18-Pad4)*%
X46508000Y12700000D03*
D17*
%TO.P,LED18,2*%
%TO.N,Net-(J10-Pad1)*%
X44857000Y12700000D03*
%TD*%
D16*
%TO.P,LED19,4*%
%TO.N,Net-(J19-Pad6)*%
X29159000Y12700000D03*
%TO.P,LED19,1*%
%TO.N,Net-(LED19-Pad1)*%
X24206000Y12700000D03*
%TO.P,LED19,3*%
%TO.N,Net-(J19-Pad4)*%
X27508000Y12700000D03*
D17*
%TO.P,LED19,2*%
%TO.N,Net-(J14-Pad1)*%
X25857000Y12700000D03*
%TD*%
D16*
%TO.P,LED20,4*%
%TO.N,Net-(J20-Pad6)*%
X10159000Y12700000D03*
%TO.P,LED20,1*%
%TO.N,Net-(LED20-Pad1)*%
X5206000Y12700000D03*
%TO.P,LED20,3*%
%TO.N,Net-(J20-Pad4)*%
X8508000Y12700000D03*
D17*
%TO.P,LED20,2*%
%TO.N,Net-(J12-Pad1)*%
X6857000Y12700000D03*
%TD*%
D14*
%TO.P,C2,1*%
%TO.N,Net-(C2-Pad1)*%
X15000000Y8000000D03*
D13*
%TO.P,C2,2*%
%TO.N,Net-(C2-Pad2)*%
X17500000Y8000000D03*
%TD*%
%TO.P,D1,1*%
%TO.N,Net-(C1-Pad2)*%
X33100000Y5380000D03*
D15*
%TO.P,D1,2*%
%TO.N,Net-(C2-Pad2)*%
X33100000Y13000000D03*
%TD*%
D11*
%TO.P,J23,1*%
%TO.N,Net-(C1-Pad2)*%
X37000000Y5390000D03*
%TD*%
D14*
%TO.P,C3,1*%
%TO.N,Net-(C11-Pad2)*%
X109900000Y6925000D03*
D13*
%TO.P,C3,2*%
%TO.N,Net-(C3-Pad2)*%
X112400000Y6925000D03*
%TD*%
D18*
%TO.P,C4,1*%
%TO.N,Net-(C4-Pad1)*%
X90600000Y3750000D03*
%TO.P,C4,2*%
%TO.N,Net-(C3-Pad2)*%
X95600000Y3750000D03*
%TD*%
D11*
%TO.P,R29,1*%
%TO.N,Net-(J24-Pad1)*%
X95640000Y6700000D03*
D12*
%TO.P,R29,2*%
%TO.N,Net-(R28-Pad1)*%
X93100000Y6700000D03*
%TO.P,R29,3*%
X90560000Y6700000D03*
%TD*%
D13*
%TO.P,U2,1*%
%TO.N,Net-(C3-Pad2)*%
X96840000Y16900000D03*
D15*
%TO.P,U2,5*%
%TO.N,Net-(C4-Pad1)*%
X89220000Y9280000D03*
%TO.P,U2,2*%
%TO.N,Net-(C11-Pad2)*%
X94300000Y16900000D03*
%TO.P,U2,6*%
X91760000Y9280000D03*
%TO.P,U2,3*%
%TO.N,Net-(U2-Pad3)*%
X91760000Y16900000D03*
%TO.P,U2,7*%
%TO.N,Net-(R28-Pad1)*%
X94300000Y9280000D03*
%TO.P,U2,4*%
%TO.N,Net-(J24-Pad1)*%
X89220000Y16900000D03*
%TO.P,U2,8*%
X96840000Y9280000D03*
%TD*%
D13*
%TO.P,C5,1*%
%TO.N,Net-(C5-Pad1)*%
X131572000Y15494000D03*
D14*
%TO.P,C5,2*%
%TO.N,Net-(C5-Pad2)*%
X131572000Y12994000D03*
%TD*%
D13*
%TO.P,C6,1*%
%TO.N,Net-(C6-Pad1)*%
X132130000Y9625000D03*
D14*
%TO.P,C6,2*%
%TO.N,Net-(C5-Pad2)*%
X132130000Y7125000D03*
%TD*%
D18*
%TO.P,C7,1*%
%TO.N,Net-(C5-Pad2)*%
X132825000Y3950000D03*
%TO.P,C7,2*%
%TO.N,Net-(C7-Pad2)*%
X127825000Y3950000D03*
%TD*%
D14*
%TO.P,C8,2*%
%TO.N,Net-(C11-Pad2)*%
X148700000Y15500000D03*
D13*
%TO.P,C8,1*%
%TO.N,Net-(C8-Pad1)*%
X151200000Y15500000D03*
%TD*%
D14*
%TO.P,C9,2*%
%TO.N,Net-(C10-Pad2)*%
X225400000Y14100000D03*
D13*
%TO.P,C9,1*%
%TO.N,Net-(C9-Pad1)*%
X225400000Y16600000D03*
%TD*%
D14*
%TO.P,C10,2*%
%TO.N,Net-(C10-Pad2)*%
X225300000Y11000000D03*
D13*
%TO.P,C10,1*%
%TO.N,Net-(C10-Pad1)*%
X225300000Y8500000D03*
%TD*%
%TO.P,C11,1*%
%TO.N,Net-(C11-Pad1)*%
X208000000Y15600000D03*
D14*
%TO.P,C11,2*%
%TO.N,Net-(C11-Pad2)*%
X205500000Y15600000D03*
%TD*%
D18*
%TO.P,C12,2*%
%TO.N,Net-(C12-Pad2)*%
X228400000Y5400000D03*
%TO.P,C12,1*%
%TO.N,Net-(C10-Pad2)*%
X223400000Y5400000D03*
%TD*%
D11*
%TO.P,J29,1*%
%TO.N,Net-(J29-Pad1)*%
X168180000Y9600000D03*
%TD*%
%TO.P,J31,1*%
%TO.N,Net-(J31-Pad1)*%
X168180000Y14050000D03*
%TD*%
%TO.P,J32,1*%
%TO.N,Net-(C5-Pad2)*%
X168180000Y5170000D03*
%TD*%
%TO.P,J35,1*%
%TO.N,Net-(J35-Pad1)*%
X188650000Y9600000D03*
%TD*%
%TO.P,J36,1*%
%TO.N,Net-(J36-Pad1)*%
X188600000Y5150000D03*
%TD*%
%TO.P,J38,1*%
%TO.N,Net-(C10-Pad2)*%
X188650000Y14050000D03*
%TD*%
%TO.P,J24,1*%
%TO.N,Net-(J24-Pad1)*%
X76550000Y17100000D03*
%TD*%
%TO.P,J21,1*%
%TO.N,Net-(J21-Pad1)*%
X383450000Y16700000D03*
D12*
%TO.P,J21,2*%
X385990000Y16700000D03*
%TD*%
D13*
%TO.P,U4,1*%
%TO.N,Net-(R30-Pad1)*%
X146180000Y11120000D03*
D15*
%TO.P,U4,5*%
%TO.N,Net-(C6-Pad1)*%
X153800000Y3500000D03*
%TO.P,U4,2*%
%TO.N,Net-(C11-Pad2)*%
X146180000Y8580000D03*
%TO.P,U4,6*%
%TO.N,Net-(J31-Pad1)*%
X153800000Y6040000D03*
%TO.P,U4,3*%
%TO.N,Net-(J29-Pad1)*%
X146180000Y6040000D03*
%TO.P,U4,7*%
%TO.N,Net-(C8-Pad1)*%
X153800000Y8580000D03*
%TO.P,U4,4*%
%TO.N,Net-(C11-Pad2)*%
X146180000Y3500000D03*
%TO.P,U4,8*%
%TO.N,N/C*%
X153800000Y11120000D03*
%TD*%
%TO.P,U5,8*%
%TO.N,N/C*%
X210860000Y11230000D03*
%TO.P,U5,4*%
%TO.N,Net-(C11-Pad2)*%
X203240000Y3610000D03*
%TO.P,U5,7*%
%TO.N,Net-(C11-Pad1)*%
X210860000Y8690000D03*
%TO.P,U5,3*%
%TO.N,Net-(J36-Pad1)*%
X203240000Y6150000D03*
%TO.P,U5,6*%
%TO.N,Net-(J35-Pad1)*%
X210860000Y6150000D03*
%TO.P,U5,2*%
%TO.N,Net-(C11-Pad2)*%
X203240000Y8690000D03*
%TO.P,U5,5*%
%TO.N,Net-(C10-Pad1)*%
X210860000Y3610000D03*
D13*
%TO.P,U5,1*%
%TO.N,Net-(R32-Pad1)*%
X203240000Y11230000D03*
%TD*%
D14*
%TO.P,R1,1*%
%TO.N,Net-(LED1-Pad1)*%
X364000000Y13240000D03*
D15*
%TO.P,R1,2*%
%TO.N,Net-(J1-Pad2)*%
X364000000Y10700000D03*
%TD*%
D14*
%TO.P,R2,1*%
%TO.N,Net-(LED2-Pad1)*%
X345000000Y13240000D03*
D15*
%TO.P,R2,2*%
%TO.N,Net-(J2-Pad2)*%
X345000000Y10700000D03*
%TD*%
%TO.P,R3,2*%
%TO.N,Net-(J3-Pad2)*%
X326000000Y10700000D03*
D14*
%TO.P,R3,1*%
%TO.N,Net-(LED3-Pad1)*%
X326000000Y13240000D03*
%TD*%
%TO.P,R4,1*%
%TO.N,Net-(LED4-Pad1)*%
X307000000Y13240000D03*
D15*
%TO.P,R4,2*%
%TO.N,Net-(J4-Pad2)*%
X307000000Y10700000D03*
%TD*%
%TO.P,R5,2*%
%TO.N,Net-(J5-Pad2)*%
X288000000Y10700000D03*
D14*
%TO.P,R5,1*%
%TO.N,Net-(LED5-Pad1)*%
X288000000Y13240000D03*
%TD*%
D15*
%TO.P,R6,2*%
%TO.N,Net-(J6-Pad2)*%
X269000000Y10700000D03*
D14*
%TO.P,R6,1*%
%TO.N,Net-(LED6-Pad1)*%
X269000000Y13240000D03*
%TD*%
D15*
%TO.P,R7,2*%
%TO.N,Net-(J7-Pad2)*%
X250000000Y10700000D03*
D14*
%TO.P,R7,1*%
%TO.N,Net-(LED7-Pad1)*%
X250000000Y13240000D03*
%TD*%
D15*
%TO.P,R8,2*%
%TO.N,Net-(J8-Pad2)*%
X240800000Y10200000D03*
D14*
%TO.P,R8,1*%
%TO.N,Net-(LED8-Pad1)*%
X240800000Y12740000D03*
%TD*%
D15*
%TO.P,R9,2*%
%TO.N,Net-(J9-Pad2)*%
X221100000Y11600000D03*
D14*
%TO.P,R9,1*%
%TO.N,Net-(LED9-Pad1)*%
X221100000Y14140000D03*
%TD*%
D15*
%TO.P,R10,2*%
%TO.N,Net-(J10-Pad2)*%
X192930000Y10520000D03*
D14*
%TO.P,R10,1*%
%TO.N,Net-(LED10-Pad1)*%
X192930000Y13060000D03*
%TD*%
D15*
%TO.P,R11,2*%
%TO.N,Net-(J11-Pad2)*%
X173810000Y10570000D03*
D14*
%TO.P,R11,1*%
%TO.N,Net-(LED11-Pad1)*%
X173810000Y13110000D03*
%TD*%
%TO.P,R12,1*%
%TO.N,Net-(LED12-Pad1)*%
X164800000Y12700000D03*
D15*
%TO.P,R12,2*%
%TO.N,Net-(J12-Pad2)*%
X164800000Y10160000D03*
%TD*%
D14*
%TO.P,R13,1*%
%TO.N,Net-(LED13-Pad1)*%
X136500000Y14150000D03*
D15*
%TO.P,R13,2*%
%TO.N,Net-(J13-Pad2)*%
X136500000Y11610000D03*
%TD*%
D14*
%TO.P,R14,1*%
%TO.N,Net-(LED14-Pad1)*%
X117000000Y13240000D03*
D15*
%TO.P,R14,2*%
%TO.N,Net-(J14-Pad2)*%
X117000000Y10700000D03*
%TD*%
D14*
%TO.P,R15,1*%
%TO.N,Net-(LED15-Pad1)*%
X107750000Y13000000D03*
D15*
%TO.P,R15,2*%
%TO.N,Net-(J15-Pad2)*%
X107750000Y10460000D03*
%TD*%
D14*
%TO.P,R16,1*%
%TO.N,Net-(LED16-Pad1)*%
X79000000Y13240000D03*
D15*
%TO.P,R16,2*%
%TO.N,Net-(J16-Pad2)*%
X79000000Y10700000D03*
%TD*%
D14*
%TO.P,R17,1*%
%TO.N,Net-(LED17-Pad1)*%
X60000000Y13240000D03*
D15*
%TO.P,R17,2*%
%TO.N,Net-(J17-Pad2)*%
X60000000Y10700000D03*
%TD*%
D14*
%TO.P,R18,1*%
%TO.N,Net-(LED18-Pad1)*%
X41000000Y13240000D03*
D15*
%TO.P,R18,2*%
%TO.N,Net-(J18-Pad2)*%
X41000000Y10700000D03*
%TD*%
%TO.P,R19,2*%
%TO.N,Net-(J19-Pad2)*%
X22000000Y10700000D03*
D14*
%TO.P,R19,1*%
%TO.N,Net-(LED19-Pad1)*%
X22000000Y13240000D03*
%TD*%
%TO.P,R20,1*%
%TO.N,Net-(LED20-Pad1)*%
X3000000Y13240000D03*
D15*
%TO.P,R20,2*%
%TO.N,Net-(J20-Pad2)*%
X3000000Y10700000D03*
%TD*%
D14*
%TO.P,R21,1*%
%TO.N,Net-(J1-Pad1)*%
X384000000Y2700000D03*
D15*
%TO.P,R21,2*%
%TO.N,Net-(R21-Pad2)*%
X386540000Y2700000D03*
%TD*%
D14*
%TO.P,R22,1*%
%TO.N,Net-(J11-Pad1)*%
X376460000Y16700000D03*
D15*
%TO.P,R22,2*%
%TO.N,Net-(R22-Pad2)*%
X379000000Y16700000D03*
%TD*%
%TO.P,R23,2*%
%TO.N,Net-(J10-Pad1)*%
X338460000Y16700000D03*
D14*
%TO.P,R23,1*%
%TO.N,Net-(R23-Pad1)*%
X341000000Y16700000D03*
%TD*%
%TO.P,R24,1*%
%TO.N,Net-(R24-Pad1)*%
X303000000Y16700000D03*
D15*
%TO.P,R24,2*%
%TO.N,Net-(J12-Pad1)*%
X300460000Y16700000D03*
%TD*%
%TO.P,R25,2*%
%TO.N,Net-(J14-Pad1)*%
X262460000Y16700000D03*
D14*
%TO.P,R25,1*%
%TO.N,Net-(R25-Pad1)*%
X265000000Y16700000D03*
%TD*%
%TO.P,R26,1*%
%TO.N,Net-(C1-Pad2)*%
X55540000Y13000000D03*
D15*
%TO.P,R26,2*%
%TO.N,Net-(C1-Pad1)*%
X53000000Y13000000D03*
%TD*%
%TO.P,R27,2*%
%TO.N,Net-(C2-Pad1)*%
X15000000Y13000000D03*
D14*
%TO.P,R27,1*%
%TO.N,Net-(C2-Pad2)*%
X17540000Y13000000D03*
%TD*%
%TO.P,R28,1*%
%TO.N,Net-(R28-Pad1)*%
X112200000Y13590000D03*
D15*
%TO.P,R28,2*%
%TO.N,Net-(C11-Pad2)*%
X112200000Y11050000D03*
%TD*%
%TO.P,R30,2*%
%TO.N,Net-(C5-Pad1)*%
X127254000Y15140000D03*
D14*
%TO.P,R30,1*%
%TO.N,Net-(R30-Pad1)*%
X127254000Y12600000D03*
%TD*%
D15*
%TO.P,R31,2*%
%TO.N,Net-(C7-Pad2)*%
X127830000Y6640000D03*
D14*
%TO.P,R31,1*%
%TO.N,Net-(C11-Pad2)*%
X127830000Y9180000D03*
%TD*%
D15*
%TO.P,R32,2*%
%TO.N,Net-(C9-Pad1)*%
X229700000Y17500000D03*
D14*
%TO.P,R32,1*%
%TO.N,Net-(R32-Pad1)*%
X229700000Y14960000D03*
%TD*%
D15*
%TO.P,R33,2*%
%TO.N,Net-(C12-Pad2)*%
X229700000Y8200000D03*
D14*
%TO.P,R33,1*%
%TO.N,Net-(C11-Pad2)*%
X229700000Y10740000D03*
%TD*%
D11*
%TO.P,J22,1*%
%TO.N,Net-(C1-Pad1)*%
X37000000Y14500000D03*
%TD*%
%TO.P,J27,1*%
%TO.N,Net-(C2-Pad1)*%
X37000000Y10000000D03*
%TD*%
D19*
%TO.N,Net-(J11-Pad1)*%
X306750000Y16750000D03*
X302000000Y13000000D03*
X196857000Y9243000D03*
X158857000Y9243000D03*
%TO.N,Net-(J10-Pad1)*%
X303000000Y2700000D03*
D20*
X51600000Y3700000D03*
D19*
X219996500Y10603500D03*
%TO.N,Net-(J12-Pad1)*%
X102475000Y2325000D03*
X177857000Y9343000D03*
%TO.N,Net-(J14-Pad1)*%
X212450000Y15750000D03*
X219300000Y15200000D03*
%TO.N,Net-(R24-Pad1)*%
X363000000Y8700000D03*
D20*
%TO.N,Net-(J24-Pad1)*%
X76700000Y9600000D03*
X73300000Y8300000D03*
%TO.N,Net-(U2-Pad3)*%
X75900000Y11300000D03*
D19*
%TO.N,Net-(C6-Pad1)*%
X138730000Y16540000D03*
X140840000Y16540000D03*
%TO.N,Net-(C11-Pad2)*%
X205500000Y12400000D03*
X205500000Y9800000D03*
X140840000Y17640000D03*
X138730000Y17640000D03*
X117530000Y17440000D03*
%TO.N,Net-(C10-Pad2)*%
X201950000Y15750000D03*
X204300000Y13400000D03*
%TO.N,Net-(C10-Pad1)*%
X211600000Y13700000D03*
%TD*%
D21*
%TO.N,Net-(J1-Pad1)*%
X348857000Y11700000D02*
X348857000Y12700000D01*
X350857000Y9700000D02*
X348857000Y11700000D01*
X328000000Y4700000D02*
X326750000Y4700000D01*
X272857000Y11700000D02*
X272857000Y12700000D01*
X283750000Y9700000D02*
X274857000Y9700000D01*
X274857000Y9700000D02*
X272857000Y11700000D01*
X288750000Y4700000D02*
X283750000Y9700000D01*
X290000000Y4700000D02*
X288750000Y4700000D01*
X234857000Y11700000D02*
X234857000Y12700000D01*
X236857000Y9700000D02*
X234857000Y11700000D01*
X356500000Y9700000D02*
X361500000Y4700000D01*
X356500000Y9700000D02*
X350857000Y9700000D01*
X361500000Y4700000D02*
X366000000Y4700000D01*
X238500000Y9700000D02*
X239600000Y8600000D01*
X238500000Y9700000D02*
X236857000Y9700000D01*
X239600000Y8600000D02*
X239600000Y4700000D01*
X239600000Y4700000D02*
X240400000Y3900000D01*
X240400000Y3900000D02*
X250100000Y3900000D01*
X250900000Y4700000D02*
X252000000Y4700000D01*
X250100000Y3900000D02*
X250900000Y4700000D01*
X303600000Y4700000D02*
X295080000Y4700000D01*
X303600000Y4700000D02*
X303707000Y4700000D01*
X310857000Y11850000D02*
X303707000Y4700000D01*
X313007000Y9700000D02*
X321800000Y9700000D01*
X326750000Y4700000D02*
X321800000Y9700000D01*
X310857000Y12700000D02*
X310857000Y11850000D01*
X321800000Y9700000D02*
X321750000Y9700000D01*
X310857000Y11850000D02*
X313007000Y9700000D01*
%TO.N,Net-(J11-Pad1)*%
X345000000Y16700000D02*
X343000000Y14700000D01*
X343000000Y14700000D02*
X337000000Y14700000D01*
X376000000Y16700000D02*
X371111000Y16700000D01*
X367857000Y15557000D02*
X369000000Y16700000D01*
X371111000Y16700000D02*
X369000000Y16700000D01*
X367857000Y12700000D02*
X367857000Y15557000D01*
X369000000Y16700000D02*
X345000000Y16700000D01*
X302000000Y13000000D02*
X302000000Y13000000D01*
X175920000Y3600000D02*
X175020000Y2700000D01*
X175920000Y4700000D02*
X175920000Y3600000D01*
X175020000Y2700000D02*
X164100000Y2700000D01*
X164100000Y2700000D02*
X163500000Y3300000D01*
X163500000Y3300000D02*
X163500000Y8600000D01*
X220180000Y3600000D02*
X230900000Y3600000D01*
X230900000Y3600000D02*
X231300000Y4000000D01*
X219080000Y4700000D02*
X220180000Y3600000D01*
X162857000Y9243000D02*
X158857000Y9243000D01*
X162870000Y9230000D02*
X162857000Y9243000D01*
X163500000Y8600000D02*
X162870000Y9230000D01*
X345900000Y4700000D02*
X342500000Y8100000D01*
X347000000Y4700000D02*
X345900000Y4700000D01*
X342500000Y9200000D02*
X337000000Y14700000D01*
X342500000Y8100000D02*
X342500000Y9200000D01*
X120857000Y9957000D02*
X120857000Y12700000D01*
X120850000Y9950000D02*
X120857000Y9957000D01*
X121800000Y9000000D02*
X120850000Y9950000D01*
X125100000Y9000000D02*
X121800000Y9000000D01*
X137920000Y4700000D02*
X137920000Y3600000D01*
X137920000Y3600000D02*
X135620000Y1300000D01*
X125600000Y8500000D02*
X125100000Y9000000D01*
X135620000Y1300000D02*
X126400000Y1300000D01*
X126400000Y1300000D02*
X125600000Y2100000D01*
X125600000Y2100000D02*
X125600000Y8500000D01*
X200843000Y9243000D02*
X196857000Y9243000D01*
X201586000Y8500000D02*
X200843000Y9243000D01*
X202350000Y1740000D02*
X201586000Y2504000D01*
X214000000Y4700000D02*
X212900000Y4700000D01*
X201586000Y2504000D02*
X201586000Y8500000D01*
X212400000Y4200000D02*
X212400000Y2870000D01*
X212400000Y2870000D02*
X211270000Y1740000D01*
X212900000Y4700000D02*
X212400000Y4200000D01*
X211270000Y1740000D02*
X202350000Y1740000D01*
X231300000Y7900000D02*
X231300000Y8100000D01*
X231300000Y4000000D02*
X231300000Y7900000D01*
X307850000Y17850000D02*
X306750000Y16750000D01*
X337000000Y14700000D02*
X333850000Y17850000D01*
X333850000Y17850000D02*
X307850000Y17850000D01*
X267500000Y15500000D02*
X296000000Y15500000D01*
X261700000Y14500000D02*
X266500000Y14500000D01*
X256300000Y9100000D02*
X261700000Y14500000D01*
X250600000Y9100000D02*
X256300000Y9100000D01*
X242500000Y13300000D02*
X242500000Y9600000D01*
X240800000Y15000000D02*
X242500000Y13300000D01*
X232800000Y15000000D02*
X240800000Y15000000D01*
X231300000Y7900000D02*
X231300000Y13500000D01*
X231300000Y13500000D02*
X232800000Y15000000D01*
X241524990Y4300010D02*
X249934312Y4300010D01*
X250300000Y8800000D02*
X250600000Y9100000D01*
X250300000Y4665698D02*
X250300000Y8800000D01*
X242500000Y9600000D02*
X240900000Y8000000D01*
X240900000Y8000000D02*
X240900000Y4925000D01*
X296000000Y15500000D02*
X298500000Y13000000D01*
X240900000Y4925000D02*
X241524990Y4300010D01*
X298500000Y13000000D02*
X302000000Y13000000D01*
X266500000Y14500000D02*
X267500000Y15500000D01*
X249934312Y4300010D02*
X250300000Y4665698D01*
%TO.N,Net-(J10-Pad1)*%
X308920000Y3450000D02*
X308920000Y4700000D01*
X308170000Y2700000D02*
X308920000Y3450000D01*
X303000000Y2700000D02*
X303000000Y2700000D01*
X44857000Y11700000D02*
X46857000Y9700000D01*
X44857000Y12700000D02*
X44857000Y11700000D01*
X46857000Y9700000D02*
X49300000Y9700000D01*
X49300000Y9700000D02*
X50000000Y9000000D01*
X99920000Y4700000D02*
X99920000Y3600000D01*
X98220000Y1900000D02*
X99920000Y3600000D01*
X88500000Y1900000D02*
X98220000Y1900000D01*
X88000000Y2400000D02*
X88500000Y1900000D01*
X88000000Y7980000D02*
X88000000Y2400000D01*
X87500000Y8480000D02*
X88000000Y7980000D01*
X82857000Y11700000D02*
X84857000Y9700000D01*
X84857000Y9700000D02*
X86300000Y9700000D01*
X86300000Y9700000D02*
X87500000Y8500000D01*
X82857000Y12700000D02*
X82857000Y11700000D01*
X87500000Y8500000D02*
X87500000Y8480000D01*
X50000000Y6200000D02*
X50000000Y4800000D01*
X50000000Y6200000D02*
X50000000Y6000000D01*
X50000000Y9000000D02*
X50000000Y6200000D01*
X50000000Y4800000D02*
X51100000Y3700000D01*
X51100000Y3700000D02*
X51600000Y3700000D01*
X51600000Y3700000D02*
X51600000Y3700000D01*
X303000000Y2700000D02*
X308170000Y2700000D01*
X51600000Y3700000D02*
X51600000Y3700000D01*
X215857000Y12700000D02*
X215857000Y11850000D01*
X215857000Y11850000D02*
X217103500Y10603500D01*
X217103500Y10603500D02*
X219996500Y10603500D01*
X219996500Y10603500D02*
X219996500Y10603500D01*
%TO.N,Net-(J12-Pad1)*%
X6857000Y11700000D02*
X6857000Y12700000D01*
X8857000Y9700000D02*
X6857000Y11700000D01*
X23920000Y4700000D02*
X22670000Y4700000D01*
X8857000Y9700000D02*
X11300000Y9700000D01*
X11300000Y9700000D02*
X13000000Y8000000D01*
X13000000Y8000000D02*
X13000000Y6000000D01*
X14300000Y4700000D02*
X23920000Y4700000D01*
X13000000Y6000000D02*
X14300000Y4700000D01*
X101857000Y11850000D02*
X104457000Y9250000D01*
X101857000Y12700000D02*
X101857000Y11850000D01*
X104457000Y9250000D02*
X106250000Y9250000D01*
X106250000Y9250000D02*
X107000000Y8500000D01*
X107000000Y8500000D02*
X107000000Y4750000D01*
X107000000Y4750000D02*
X107750000Y4000000D01*
X107750000Y4000000D02*
X106250000Y2500000D01*
X106250000Y2500000D02*
X106075000Y2325000D01*
X106075000Y2325000D02*
X102475000Y2325000D01*
X102475000Y2325000D02*
X102475000Y2325000D01*
X114000000Y4000000D02*
X107750000Y4000000D01*
X115000000Y5000000D02*
X114000000Y4000000D01*
X116100000Y14700000D02*
X115000000Y13600000D01*
X144700000Y13100000D02*
X143800000Y14000000D01*
X154450000Y1050000D02*
X145450000Y1050000D01*
X156920000Y4700000D02*
X156920000Y3520000D01*
X156920000Y3520000D02*
X154450000Y1050000D01*
X144700000Y1800000D02*
X144700000Y13100000D01*
X145450000Y1050000D02*
X144700000Y1800000D01*
X115000000Y13600000D02*
X115000000Y5000000D01*
X118400000Y14100000D02*
X117800000Y14700000D01*
X124800000Y14100000D02*
X118400000Y14100000D01*
X125300000Y13600000D02*
X124800000Y14100000D01*
X125300000Y10000000D02*
X125300000Y13600000D01*
X117800000Y14700000D02*
X116100000Y14700000D01*
X136000000Y8000000D02*
X136000000Y2700000D01*
X136000000Y2700000D02*
X135150000Y1850000D01*
X135150000Y1850000D02*
X127000000Y1850000D01*
X126174999Y9125001D02*
X125300000Y10000000D01*
X126174999Y2675001D02*
X126174999Y9125001D01*
X127000000Y1850000D02*
X126174999Y2675001D01*
X136000000Y8000000D02*
X136000000Y9750000D01*
X136000000Y9750000D02*
X134950000Y10800000D01*
X134950000Y10800000D02*
X134950000Y14800000D01*
X134950000Y14800000D02*
X135850000Y15700000D01*
X135850000Y15700000D02*
X137150000Y15700000D01*
X138850000Y14000000D02*
X143800000Y14000000D01*
X137150000Y15700000D02*
X138850000Y14000000D01*
X182500000Y3600000D02*
X182500000Y8486000D01*
X199540000Y2700000D02*
X183400000Y2700000D01*
X201240000Y1000000D02*
X199540000Y2700000D01*
X183400000Y2700000D02*
X182500000Y3600000D01*
X213330000Y2700000D02*
X211630000Y1000000D01*
X181643000Y9343000D02*
X177857000Y9343000D01*
X271000000Y3450000D02*
X270250000Y2700000D01*
X271000000Y4700000D02*
X271000000Y3450000D01*
X270250000Y2700000D02*
X213330000Y2700000D01*
X182500000Y8486000D02*
X181643000Y9343000D01*
X211630000Y1000000D02*
X201240000Y1000000D01*
%TO.N,Net-(J14-Pad1)*%
X42920000Y3600000D02*
X42920000Y4700000D01*
X42320000Y3000000D02*
X42920000Y3600000D01*
X32000000Y3000000D02*
X42320000Y3000000D01*
X25857000Y12700000D02*
X25857000Y11700000D01*
X25857000Y11700000D02*
X27857000Y9700000D01*
X31000000Y4000000D02*
X32000000Y3000000D01*
X31000000Y9000000D02*
X31000000Y4000000D01*
X27857000Y9700000D02*
X30300000Y9700000D01*
X30300000Y9700000D02*
X31000000Y9000000D01*
X118920000Y2920000D02*
X118920000Y4700000D01*
X118000000Y2000000D02*
X118920000Y2920000D01*
X87000000Y1000000D02*
X107000000Y1000000D01*
X108000000Y2000000D02*
X118000000Y2000000D01*
X107000000Y1000000D02*
X108000000Y2000000D01*
X85300000Y2700000D02*
X87000000Y1000000D01*
X63857000Y11850000D02*
X59300000Y7293000D01*
X63857000Y12700000D02*
X63857000Y11850000D01*
X59300000Y7293000D02*
X59300000Y3900000D01*
X60500000Y2700000D02*
X85300000Y2700000D01*
X59300000Y3900000D02*
X60500000Y2700000D01*
X213000000Y15200000D02*
X212450000Y15750000D01*
X219300000Y15200000D02*
X213000000Y15200000D01*
%TO.N,Net-(J8-Pad2)*%
X232920000Y8442081D02*
X232000000Y9362081D01*
X232920000Y7240000D02*
X232920000Y8442081D01*
X232000000Y9362081D02*
X232000000Y13400000D01*
X232000000Y13400000D02*
X233000000Y14400000D01*
X233000000Y14400000D02*
X238600000Y14400000D01*
X238600000Y14400000D02*
X239400000Y13600000D01*
X239400000Y11600000D02*
X240800000Y10200000D01*
X239400000Y13600000D02*
X239400000Y11600000D01*
%TO.N,Net-(J9-Pad2)*%
X214000000Y8670000D02*
X214000000Y7240000D01*
X214620000Y9290000D02*
X214000000Y8670000D01*
X219610000Y9290000D02*
X220490000Y9290000D01*
X219610000Y9290000D02*
X214620000Y9290000D01*
X219998630Y9290000D02*
X219610000Y9290000D01*
X221100000Y9900000D02*
X221100000Y11600000D01*
X220490000Y9290000D02*
X221100000Y9900000D01*
%TO.N,Net-(J10-Pad2)*%
X194920000Y8530000D02*
X194920000Y7240000D01*
X192930000Y10520000D02*
X194920000Y8530000D01*
%TO.N,Net-(J11-Pad2)*%
X175920000Y8460000D02*
X173810000Y10570000D01*
X175920000Y7240000D02*
X175920000Y8460000D01*
%TO.N,Net-(J12-Pad2)*%
X163668630Y10160000D02*
X164800000Y10160000D01*
X158637919Y10160000D02*
X163668630Y10160000D01*
X156920000Y8442081D02*
X158637919Y10160000D01*
X156920000Y7240000D02*
X156920000Y8442081D01*
%TO.N,Net-(J13-Pad2)*%
X137920000Y10190000D02*
X136500000Y11610000D01*
X137920000Y7240000D02*
X137920000Y10190000D01*
%TO.N,Net-(J15-Pad2)*%
X99070001Y14320001D02*
X99070001Y8089999D01*
X99070001Y8089999D02*
X99920000Y7240000D01*
X107750000Y10460000D02*
X109900000Y12610000D01*
X109900000Y12610000D02*
X109900000Y13900000D01*
X109900000Y13900000D02*
X108500000Y15300000D01*
X108500000Y15300000D02*
X100100000Y15300000D01*
X100100000Y15300000D02*
X99070001Y14320001D01*
%TO.N,Net-(J16-Pad2)*%
X80920000Y8780000D02*
X80920000Y7240000D01*
X79000000Y10700000D02*
X80920000Y8780000D01*
%TO.N,Net-(R21-Pad2)*%
X386000000Y13320000D02*
X386000000Y9850000D01*
X386000000Y9850000D02*
X388200000Y7650000D01*
X388200000Y4360000D02*
X386540000Y2700000D01*
X388200000Y7650000D02*
X388200000Y4360000D01*
%TO.N,Net-(R24-Pad1)*%
X363565685Y8700000D02*
X364165685Y9300000D01*
X363000000Y8700000D02*
X363000000Y8700000D01*
X377320000Y9300000D02*
X380920000Y5700000D01*
X375200000Y9300000D02*
X377320000Y9300000D01*
X364165685Y9300000D02*
X375200000Y9300000D01*
X363000000Y8700000D02*
X363565685Y8700000D01*
%TO.N,Net-(R25-Pad1)*%
X309400000Y16700000D02*
X307400000Y14700000D01*
X332500000Y16700000D02*
X309400000Y16700000D01*
X380460000Y2700000D02*
X343000000Y2700000D01*
X299000000Y14700000D02*
X297000000Y16700000D01*
X343000000Y2700000D02*
X341000000Y4700000D01*
X297000000Y16700000D02*
X265000000Y16700000D01*
X341000000Y8200000D02*
X332500000Y16700000D01*
X307400000Y14700000D02*
X299000000Y14700000D01*
X383460000Y5700000D02*
X380460000Y2700000D01*
X341000000Y4700000D02*
X341000000Y8200000D01*
%TO.N,Net-(LED9-Pad1)*%
X214206000Y12700000D02*
X214206000Y13806000D01*
X214540000Y14140000D02*
X221100000Y14140000D01*
X214206000Y13806000D02*
X214540000Y14140000D01*
%TO.N,Net-(LED10-Pad1)*%
X193290000Y12700000D02*
X192930000Y13060000D01*
X195206000Y12700000D02*
X193290000Y12700000D01*
%TO.N,Net-(LED15-Pad1)*%
X100206000Y13956000D02*
X100206000Y12700000D01*
X100500000Y14250000D02*
X100206000Y13956000D01*
X107750000Y13000000D02*
X106500000Y14250000D01*
X106500000Y14250000D02*
X100500000Y14250000D01*
%TO.N,Net-(C1-Pad2)*%
X36990000Y5380000D02*
X37000000Y5390000D01*
X33100000Y5380000D02*
X36990000Y5380000D01*
X55540000Y8040000D02*
X55500000Y8000000D01*
X55540000Y13000000D02*
X55540000Y8040000D01*
%TO.N,Net-(C1-Pad1)*%
X53000000Y8000000D02*
X53000000Y13000000D01*
X38000000Y18000000D02*
X37000000Y17000000D01*
X52500000Y18000000D02*
X38000000Y18000000D01*
X53000000Y13000000D02*
X53000000Y17500000D01*
X53000000Y17500000D02*
X52500000Y18000000D01*
X37000000Y17000000D02*
X37000000Y14500000D01*
%TO.N,Net-(C2-Pad1)*%
X15000000Y8000000D02*
X15000000Y13000000D01*
X35900000Y10000000D02*
X37000000Y10000000D01*
X15000000Y13000000D02*
X20000000Y18000000D01*
X32000000Y18000000D02*
X35000000Y15000000D01*
X20000000Y18000000D02*
X32000000Y18000000D01*
X35000000Y15000000D02*
X35000000Y10900000D01*
X35000000Y10900000D02*
X35900000Y10000000D01*
%TO.N,Net-(C2-Pad2)*%
X17500000Y12960000D02*
X17540000Y13000000D01*
X17500000Y8000000D02*
X17500000Y12960000D01*
%TO.N,Net-(J24-Pad1)*%
X96740000Y6700000D02*
X95640000Y6700000D01*
X96840000Y6800000D02*
X96740000Y6700000D01*
X96840000Y9280000D02*
X96840000Y6800000D01*
X89050000Y17070000D02*
X89220000Y16900000D01*
X76550000Y17070000D02*
X89050000Y17070000D01*
X74600000Y9600000D02*
X73300000Y8300000D01*
X76700000Y9600000D02*
X74600000Y9600000D01*
X73300000Y8300000D02*
X73300000Y8300000D01*
%TO.N,Net-(R28-Pad1)*%
X93100000Y6700000D02*
X90560000Y6700000D01*
X93100000Y8080000D02*
X93100000Y6700000D01*
X94300000Y9280000D02*
X93100000Y8080000D01*
X112200000Y13590000D02*
X111400001Y14389999D01*
X100000000Y16900000D02*
X94300000Y11200000D01*
X111400001Y14399999D02*
X108900000Y16900000D01*
X94300000Y11200000D02*
X94300000Y9280000D01*
X108900000Y16900000D02*
X100000000Y16900000D01*
X111400001Y14389999D02*
X111400001Y14399999D01*
%TO.N,Net-(U2-Pad3)*%
X91760000Y16900000D02*
X89460000Y14600000D01*
X89460000Y14600000D02*
X81100000Y14600000D01*
X81100000Y14600000D02*
X78200000Y14600000D01*
X78200000Y14600000D02*
X77600000Y14000000D01*
X77600000Y14000000D02*
X77600000Y12200000D01*
X77600000Y12200000D02*
X76700000Y11300000D01*
X76700000Y11300000D02*
X75900000Y11300000D01*
X75900000Y11300000D02*
X75900000Y11300000D01*
%TO.N,Net-(C5-Pad2)*%
X130998630Y7125000D02*
X130180000Y7943630D01*
X132130000Y7125000D02*
X130998630Y7125000D01*
X130180000Y11602000D02*
X131572000Y12994000D01*
X130180000Y9600000D02*
X130180000Y11602000D01*
X130180000Y7943630D02*
X130180000Y9600000D01*
X129310000Y10880000D02*
X126950000Y10880000D01*
X137400000Y18200000D02*
X137700000Y18500000D01*
X137700000Y18500000D02*
X141900000Y18500000D01*
X141900000Y18500000D02*
X142950000Y17450000D01*
X171860000Y15440000D02*
X171860000Y6260000D01*
X125920000Y11910000D02*
X125920000Y16170000D01*
X169850000Y17450000D02*
X171860000Y15440000D01*
X130180000Y10010000D02*
X129310000Y10880000D01*
X170770000Y5170000D02*
X168180000Y5170000D01*
X126950000Y10880000D02*
X125920000Y11910000D01*
X130180000Y9600000D02*
X130180000Y10010000D01*
X127950000Y18200000D02*
X137400000Y18200000D01*
X142950000Y17450000D02*
X169850000Y17450000D01*
X171860000Y6260000D02*
X170770000Y5170000D01*
X125920000Y16170000D02*
X127950000Y18200000D01*
%TO.N,Net-(C6-Pad1)*%
X140840000Y16540000D02*
X140840000Y16540000D01*
X138730000Y16540000D02*
X139295685Y16540000D01*
X139295685Y16540000D02*
X140840000Y16540000D01*
%TO.N,Net-(C8-Pad1)*%
X151670000Y8580000D02*
X153800000Y8580000D01*
X151200000Y15500000D02*
X151200000Y9050000D01*
X151200000Y9050000D02*
X151670000Y8580000D01*
%TO.N,Net-(C11-Pad2)*%
X91760000Y9280000D02*
X91760000Y11735000D01*
X91760000Y11735000D02*
X94300000Y14275000D01*
X94300000Y14275000D02*
X94300000Y16900000D01*
X146180000Y8580000D02*
X147960000Y6800000D01*
X147960000Y5280000D02*
X146180000Y3500000D01*
X147960000Y6800000D02*
X147960000Y5280000D01*
X147900001Y14700001D02*
X147900001Y9040001D01*
X148700000Y15500000D02*
X147900001Y14700001D01*
X147440000Y8580000D02*
X146180000Y8580000D01*
X147900001Y9040001D02*
X147440000Y8580000D01*
X205500000Y17000000D02*
X205500000Y15600000D01*
X222000000Y17350000D02*
X205850000Y17350000D01*
X224000000Y15350000D02*
X222000000Y17350000D01*
X228900001Y11539999D02*
X228900001Y11549999D01*
X227350000Y13100000D02*
X227350000Y14400000D01*
X229700000Y10740000D02*
X228900001Y11539999D01*
X228900001Y11549999D02*
X227350000Y13100000D01*
X205850000Y17350000D02*
X205500000Y17000000D01*
X226400000Y15350000D02*
X224000000Y15350000D01*
X227350000Y14400000D02*
X226400000Y15350000D01*
X205500000Y9818630D02*
X205500000Y12400000D01*
X113331370Y11050000D02*
X114050000Y11768630D01*
X112200000Y11050000D02*
X113331370Y11050000D01*
X114050000Y11768630D02*
X114050000Y13950000D01*
X114050000Y13950000D02*
X117550000Y17450000D01*
X140840000Y17640000D02*
X140840000Y17640000D01*
X138730000Y17640000D02*
X139295685Y17640000D01*
X139295685Y17640000D02*
X140840000Y17640000D01*
X117550000Y17450000D02*
X117550000Y17450000D01*
%TO.N,Net-(C10-Pad2)*%
X225300000Y14000000D02*
X225400000Y14100000D01*
X225300000Y11000000D02*
X225300000Y14000000D01*
X225400000Y14100000D02*
X224100000Y14100000D01*
X222475000Y15725000D02*
X221650000Y16550000D01*
X222475000Y15725000D02*
X222200000Y16000000D01*
X224100000Y14100000D02*
X222475000Y15725000D01*
X221650000Y16550000D02*
X213400000Y16550000D01*
X213400000Y16550000D02*
X213400000Y16550000D01*
X213400000Y16550000D02*
X212000000Y16550000D01*
X212000000Y16550000D02*
X208850000Y13400000D01*
X208850000Y13400000D02*
X204300000Y13400000D01*
X204300000Y13400000D02*
X204300000Y13400000D01*
X188650000Y15450000D02*
X188650000Y14350000D01*
X189450000Y16250000D02*
X188650000Y15450000D01*
X201450000Y16250000D02*
X189450000Y16250000D01*
X201950000Y15750000D02*
X201450000Y16250000D01*
X188650000Y15450000D02*
X188650000Y14050000D01*
%TO.N,Net-(C9-Pad1)*%
X225660000Y16340000D02*
X225400000Y16600000D01*
%TO.N,Net-(C10-Pad1)*%
X209728630Y3610000D02*
X208650000Y4688630D01*
X210860000Y3610000D02*
X209728630Y3610000D01*
X208650000Y4688630D02*
X208650000Y11450000D01*
X208650000Y11450000D02*
X210900000Y13700000D01*
X210900000Y13700000D02*
X211600000Y13700000D01*
%TO.N,Net-(C12-Pad2)*%
X229700000Y6700000D02*
X229700000Y8200000D01*
X228400000Y5400000D02*
X229700000Y6700000D01*
%TO.N,Net-(J31-Pad1)*%
X153800000Y6040000D02*
X155360000Y7600000D01*
X155360000Y7600000D02*
X155360000Y13320000D01*
X155360000Y13320000D02*
X156420000Y14380000D01*
X156420000Y14380000D02*
X165990000Y14380000D01*
X166320000Y14050000D02*
X168180000Y14050000D01*
X165990000Y14380000D02*
X166320000Y14050000D01*
%TO.N,Net-(J36-Pad1)*%
X204850000Y7750000D02*
X204850000Y9200000D01*
X204049999Y6949999D02*
X204850000Y7750000D01*
X203240000Y6150000D02*
X204039999Y6949999D01*
X204850000Y9200000D02*
X204100000Y9950000D01*
X204039999Y6949999D02*
X204049999Y6949999D01*
X201700000Y9950000D02*
X201700000Y12950000D01*
X204100000Y9950000D02*
X201700000Y9950000D01*
X201700000Y12950000D02*
X199750000Y14900000D01*
X199750000Y14900000D02*
X192250000Y14900000D01*
X192250000Y14900000D02*
X191050000Y13700000D01*
X191050000Y13700000D02*
X191050000Y7750000D01*
X189700000Y5150000D02*
X188600000Y5150000D01*
X191050000Y6500000D02*
X189700000Y5150000D01*
X191050000Y7750000D02*
X191050000Y6500000D01*
%TO.N,Net-(R30-Pad1)*%
X138700000Y15350000D02*
X136800000Y17250000D01*
X128385370Y12600000D02*
X129250000Y13464630D01*
X144350000Y15350000D02*
X138700000Y15350000D01*
X146180000Y13520000D02*
X144350000Y15350000D01*
X127254000Y12600000D02*
X128385370Y12600000D01*
X146180000Y13520000D02*
X146180000Y11120000D01*
X136800000Y17250000D02*
X129550000Y17250000D01*
X129550000Y17250000D02*
X129250000Y16950000D01*
X129250000Y13464630D02*
X129250000Y16950000D01*
%TO.N,Net-(R32-Pad1)*%
X205200000Y18300000D02*
X203240000Y16340000D01*
X228140000Y14960000D02*
X227800000Y15300000D01*
X229700000Y14960000D02*
X228140000Y14960000D01*
X227800000Y15300000D02*
X227800000Y17600000D01*
X227800000Y17600000D02*
X227100000Y18300000D01*
X203240000Y16340000D02*
X203240000Y11230000D01*
X227100000Y18300000D02*
X205200000Y18300000D01*
%TO.N,Net-(J21-Pad1)*%
X381760000Y16700000D02*
X378380000Y13320000D01*
X383460000Y16700000D02*
X381760000Y16700000D01*
%TD*%
M02*
