%TF.GenerationSoftware,KiCad,Pcbnew,(5.1.5)-3*%
%TF.CreationDate,2020-04-10T12:24:48+02:00*%
%TF.ProjectId,Larson SC64anner,4c617273-6f6e-4205-9343-3634616e6e65,rev?*%
%TF.SameCoordinates,PX1ba8140PY2625a00*%
%TF.FileFunction,Legend,Top*%
%TF.FilePolarity,Positive*%
%FSLAX46Y46*%
G04 Gerber Fmt 4.6, Leading zero omitted, Abs format (unit mm)*
G04 Created by KiCad (PCBNEW (5.1.5)-3) date 2020-04-10 12:24:48*
%MOMM*%
%LPD*%
G04 APERTURE LIST*
%ADD10C,0.150000*%
%ADD11C,0.120000*%
%ADD12C,0.200000*%
%ADD13C,0.300000*%
%ADD14C,0.100000*%
%TA.AperFunction,Profile*%
%ADD15C,0.200000*%
%TD*%
G04 APERTURE END LIST*
D10*
X307128571Y1647620D02*
X307128571Y2647620D01*
X307557142Y1647620D02*
X307557142Y2171429D01*
X307509523Y2266667D01*
X307414285Y2314286D01*
X307271428Y2314286D01*
X307176190Y2266667D01*
X307128571Y2219048D01*
X307890476Y2314286D02*
X308271428Y2314286D01*
X308033333Y2647620D02*
X308033333Y1790477D01*
X308080952Y1695239D01*
X308176190Y1647620D01*
X308271428Y1647620D01*
X308461904Y2314286D02*
X308842857Y2314286D01*
X308604761Y2647620D02*
X308604761Y1790477D01*
X308652380Y1695239D01*
X308747619Y1647620D01*
X308842857Y1647620D01*
X309176190Y2314286D02*
X309176190Y1314286D01*
X309176190Y2266667D02*
X309271428Y2314286D01*
X309461904Y2314286D01*
X309557142Y2266667D01*
X309604761Y2219048D01*
X309652380Y2123810D01*
X309652380Y1838096D01*
X309604761Y1742858D01*
X309557142Y1695239D01*
X309461904Y1647620D01*
X309271428Y1647620D01*
X309176190Y1695239D01*
X310033333Y1695239D02*
X310128571Y1647620D01*
X310319047Y1647620D01*
X310414285Y1695239D01*
X310461904Y1790477D01*
X310461904Y1838096D01*
X310414285Y1933334D01*
X310319047Y1980953D01*
X310176190Y1980953D01*
X310080952Y2028572D01*
X310033333Y2123810D01*
X310033333Y2171429D01*
X310080952Y2266667D01*
X310176190Y2314286D01*
X310319047Y2314286D01*
X310414285Y2266667D01*
X310890476Y1742858D02*
X310938095Y1695239D01*
X310890476Y1647620D01*
X310842857Y1695239D01*
X310890476Y1742858D01*
X310890476Y1647620D01*
X310890476Y2266667D02*
X310938095Y2219048D01*
X310890476Y2171429D01*
X310842857Y2219048D01*
X310890476Y2266667D01*
X310890476Y2171429D01*
X312080952Y2695239D02*
X311223809Y1409524D01*
X313128571Y2695239D02*
X312271428Y1409524D01*
X313890476Y2314286D02*
X313890476Y1504762D01*
X313842857Y1409524D01*
X313795238Y1361905D01*
X313700000Y1314286D01*
X313557142Y1314286D01*
X313461904Y1361905D01*
X313890476Y1695239D02*
X313795238Y1647620D01*
X313604761Y1647620D01*
X313509523Y1695239D01*
X313461904Y1742858D01*
X313414285Y1838096D01*
X313414285Y2123810D01*
X313461904Y2219048D01*
X313509523Y2266667D01*
X313604761Y2314286D01*
X313795238Y2314286D01*
X313890476Y2266667D01*
X314366666Y1647620D02*
X314366666Y2314286D01*
X314366666Y2647620D02*
X314319047Y2600000D01*
X314366666Y2552381D01*
X314414285Y2600000D01*
X314366666Y2647620D01*
X314366666Y2552381D01*
X314700000Y2314286D02*
X315080952Y2314286D01*
X314842857Y2647620D02*
X314842857Y1790477D01*
X314890476Y1695239D01*
X314985714Y1647620D01*
X315080952Y1647620D01*
X315414285Y1647620D02*
X315414285Y2647620D01*
X315842857Y1647620D02*
X315842857Y2171429D01*
X315795238Y2266667D01*
X315700000Y2314286D01*
X315557142Y2314286D01*
X315461904Y2266667D01*
X315414285Y2219048D01*
X316747619Y2314286D02*
X316747619Y1647620D01*
X316319047Y2314286D02*
X316319047Y1790477D01*
X316366666Y1695239D01*
X316461904Y1647620D01*
X316604761Y1647620D01*
X316700000Y1695239D01*
X316747619Y1742858D01*
X317223809Y1647620D02*
X317223809Y2647620D01*
X317223809Y2266667D02*
X317319047Y2314286D01*
X317509523Y2314286D01*
X317604761Y2266667D01*
X317652380Y2219048D01*
X317700000Y2123810D01*
X317700000Y1838096D01*
X317652380Y1742858D01*
X317604761Y1695239D01*
X317509523Y1647620D01*
X317319047Y1647620D01*
X317223809Y1695239D01*
X318128571Y1742858D02*
X318176190Y1695239D01*
X318128571Y1647620D01*
X318080952Y1695239D01*
X318128571Y1742858D01*
X318128571Y1647620D01*
X319033333Y1695239D02*
X318938095Y1647620D01*
X318747619Y1647620D01*
X318652380Y1695239D01*
X318604761Y1742858D01*
X318557142Y1838096D01*
X318557142Y2123810D01*
X318604761Y2219048D01*
X318652380Y2266667D01*
X318747619Y2314286D01*
X318938095Y2314286D01*
X319033333Y2266667D01*
X319604761Y1647620D02*
X319509523Y1695239D01*
X319461904Y1742858D01*
X319414285Y1838096D01*
X319414285Y2123810D01*
X319461904Y2219048D01*
X319509523Y2266667D01*
X319604761Y2314286D01*
X319747619Y2314286D01*
X319842857Y2266667D01*
X319890476Y2219048D01*
X319938095Y2123810D01*
X319938095Y1838096D01*
X319890476Y1742858D01*
X319842857Y1695239D01*
X319747619Y1647620D01*
X319604761Y1647620D01*
X320366666Y1647620D02*
X320366666Y2314286D01*
X320366666Y2219048D02*
X320414285Y2266667D01*
X320509523Y2314286D01*
X320652380Y2314286D01*
X320747619Y2266667D01*
X320795238Y2171429D01*
X320795238Y1647620D01*
X320795238Y2171429D02*
X320842857Y2266667D01*
X320938095Y2314286D01*
X321080952Y2314286D01*
X321176190Y2266667D01*
X321223809Y2171429D01*
X321223809Y1647620D01*
X322414285Y2695239D02*
X321557142Y1409524D01*
X323271428Y2600000D02*
X323176190Y2647620D01*
X323033333Y2647620D01*
X322890476Y2600000D01*
X322795238Y2504762D01*
X322747619Y2409524D01*
X322700000Y2219048D01*
X322700000Y2076191D01*
X322747619Y1885715D01*
X322795238Y1790477D01*
X322890476Y1695239D01*
X323033333Y1647620D01*
X323128571Y1647620D01*
X323271428Y1695239D01*
X323319047Y1742858D01*
X323319047Y2076191D01*
X323128571Y2076191D01*
X323747619Y1647620D02*
X323747619Y2314286D01*
X323747619Y2123810D02*
X323795238Y2219048D01*
X323842857Y2266667D01*
X323938095Y2314286D01*
X324033333Y2314286D01*
X324366666Y1647620D02*
X324366666Y2314286D01*
X324366666Y2647620D02*
X324319047Y2600000D01*
X324366666Y2552381D01*
X324414285Y2600000D01*
X324366666Y2647620D01*
X324366666Y2552381D01*
X325223809Y1695239D02*
X325128571Y1647620D01*
X324938095Y1647620D01*
X324842857Y1695239D01*
X324795238Y1790477D01*
X324795238Y2171429D01*
X324842857Y2266667D01*
X324938095Y2314286D01*
X325128571Y2314286D01*
X325223809Y2266667D01*
X325271428Y2171429D01*
X325271428Y2076191D01*
X324795238Y1980953D01*
X325557142Y2314286D02*
X325938095Y2314286D01*
X325700000Y1647620D02*
X325700000Y2504762D01*
X325747619Y2600000D01*
X325842857Y2647620D01*
X325938095Y2647620D01*
X326652380Y1695239D02*
X326557142Y1647620D01*
X326366666Y1647620D01*
X326271428Y1695239D01*
X326223809Y1790477D01*
X326223809Y2171429D01*
X326271428Y2266667D01*
X326366666Y2314286D01*
X326557142Y2314286D01*
X326652380Y2266667D01*
X326700000Y2171429D01*
X326700000Y2076191D01*
X326223809Y1980953D01*
X327557142Y1647620D02*
X327557142Y2647620D01*
X327557142Y1695239D02*
X327461904Y1647620D01*
X327271428Y1647620D01*
X327176190Y1695239D01*
X327128571Y1742858D01*
X327080952Y1838096D01*
X327080952Y2123810D01*
X327128571Y2219048D01*
X327176190Y2266667D01*
X327271428Y2314286D01*
X327461904Y2314286D01*
X327557142Y2266667D01*
X328747619Y2695239D02*
X327890476Y1409524D01*
X329557142Y1647620D02*
X329080952Y1647620D01*
X329080952Y2647620D01*
X329842857Y1695239D02*
X329985714Y1647620D01*
X330223809Y1647620D01*
X330319047Y1695239D01*
X330366666Y1742858D01*
X330414285Y1838096D01*
X330414285Y1933334D01*
X330366666Y2028572D01*
X330319047Y2076191D01*
X330223809Y2123810D01*
X330033333Y2171429D01*
X329938095Y2219048D01*
X329890476Y2266667D01*
X329842857Y2361905D01*
X329842857Y2457143D01*
X329890476Y2552381D01*
X329938095Y2600000D01*
X330033333Y2647620D01*
X330271428Y2647620D01*
X330414285Y2600000D01*
X331414285Y1742858D02*
X331366666Y1695239D01*
X331223809Y1647620D01*
X331128571Y1647620D01*
X330985714Y1695239D01*
X330890476Y1790477D01*
X330842857Y1885715D01*
X330795238Y2076191D01*
X330795238Y2219048D01*
X330842857Y2409524D01*
X330890476Y2504762D01*
X330985714Y2600000D01*
X331128571Y2647620D01*
X331223809Y2647620D01*
X331366666Y2600000D01*
X331414285Y2552381D01*
X332271428Y2647620D02*
X332080952Y2647620D01*
X331985714Y2600000D01*
X331938095Y2552381D01*
X331842857Y2409524D01*
X331795238Y2219048D01*
X331795238Y1838096D01*
X331842857Y1742858D01*
X331890476Y1695239D01*
X331985714Y1647620D01*
X332176190Y1647620D01*
X332271428Y1695239D01*
X332319047Y1742858D01*
X332366666Y1838096D01*
X332366666Y2076191D01*
X332319047Y2171429D01*
X332271428Y2219048D01*
X332176190Y2266667D01*
X331985714Y2266667D01*
X331890476Y2219048D01*
X331842857Y2171429D01*
X331795238Y2076191D01*
X333223809Y2314286D02*
X333223809Y1647620D01*
X332985714Y2695239D02*
X332747619Y1980953D01*
X333366666Y1980953D01*
D11*
X32000000Y3300000D02*
G75*
G02X31250000Y4050000I0J750000D01*
G01*
X39000000Y4050000D02*
G75*
G02X38250000Y3300000I-750000J0D01*
G01*
X68900000Y17850000D02*
G75*
G02X69650000Y18600000I750000J0D01*
G01*
X77300000Y5000000D02*
G75*
G02X76550000Y4250000I-750000J0D01*
G01*
X69650000Y4250000D02*
G75*
G02X68900000Y5000000I0J750000D01*
G01*
X98400000Y15150000D02*
G75*
G02X99150000Y15900000I750000J0D01*
G01*
X108650000Y15900000D02*
G75*
G02X109400000Y15150000I0J-750000D01*
G01*
X231200000Y4350000D02*
G75*
G02X230450000Y3600000I-750000J0D01*
G01*
X221450000Y3600000D02*
G75*
G02X220700000Y4350000I0J750000D01*
G01*
X134850000Y2900000D02*
G75*
G02X134100000Y2150000I-750000J0D01*
G01*
X126250000Y2150000D02*
G75*
G02X125500000Y2900000I0J750000D01*
G01*
X155200000Y2450000D02*
G75*
G02X154450000Y1700000I-750000J0D01*
G01*
X145500000Y1700000D02*
G75*
G02X144750000Y2450000I0J750000D01*
G01*
X186100000Y16000000D02*
X170750000Y16000000D01*
X170000000Y15250000D02*
G75*
G02X170750000Y16000000I750000J0D01*
G01*
X186100000Y16000000D02*
G75*
G02X186850000Y15250000I0J-750000D01*
G01*
D12*
X170557142Y17307143D02*
X170557142Y18507143D01*
X170557142Y17935715D02*
X171242857Y17935715D01*
X171242857Y17307143D02*
X171242857Y18507143D01*
X172271428Y17364286D02*
X172157142Y17307143D01*
X171928571Y17307143D01*
X171814285Y17364286D01*
X171757142Y17478572D01*
X171757142Y17935715D01*
X171814285Y18050000D01*
X171928571Y18107143D01*
X172157142Y18107143D01*
X172271428Y18050000D01*
X172328571Y17935715D01*
X172328571Y17821429D01*
X171757142Y17707143D01*
X173357142Y17307143D02*
X173357142Y17935715D01*
X173300000Y18050000D01*
X173185714Y18107143D01*
X172957142Y18107143D01*
X172842857Y18050000D01*
X173357142Y17364286D02*
X173242857Y17307143D01*
X172957142Y17307143D01*
X172842857Y17364286D01*
X172785714Y17478572D01*
X172785714Y17592858D01*
X172842857Y17707143D01*
X172957142Y17764286D01*
X173242857Y17764286D01*
X173357142Y17821429D01*
X174442857Y17307143D02*
X174442857Y18507143D01*
X174442857Y17364286D02*
X174328571Y17307143D01*
X174100000Y17307143D01*
X173985714Y17364286D01*
X173928571Y17421429D01*
X173871428Y17535715D01*
X173871428Y17878572D01*
X173928571Y17992858D01*
X173985714Y18050000D01*
X174100000Y18107143D01*
X174328571Y18107143D01*
X174442857Y18050000D01*
X175014285Y18107143D02*
X175014285Y16907143D01*
X175014285Y18050000D02*
X175128571Y18107143D01*
X175357142Y18107143D01*
X175471428Y18050000D01*
X175528571Y17992858D01*
X175585714Y17878572D01*
X175585714Y17535715D01*
X175528571Y17421429D01*
X175471428Y17364286D01*
X175357142Y17307143D01*
X175128571Y17307143D01*
X175014285Y17364286D01*
X176100000Y17307143D02*
X176100000Y18507143D01*
X176614285Y17307143D02*
X176614285Y17935715D01*
X176557142Y18050000D01*
X176442857Y18107143D01*
X176271428Y18107143D01*
X176157142Y18050000D01*
X176100000Y17992858D01*
X177357142Y17307143D02*
X177242857Y17364286D01*
X177185714Y17421429D01*
X177128571Y17535715D01*
X177128571Y17878572D01*
X177185714Y17992858D01*
X177242857Y18050000D01*
X177357142Y18107143D01*
X177528571Y18107143D01*
X177642857Y18050000D01*
X177700000Y17992858D01*
X177757142Y17878572D01*
X177757142Y17535715D01*
X177700000Y17421429D01*
X177642857Y17364286D01*
X177528571Y17307143D01*
X177357142Y17307143D01*
X178271428Y18107143D02*
X178271428Y17307143D01*
X178271428Y17992858D02*
X178328571Y18050000D01*
X178442857Y18107143D01*
X178614285Y18107143D01*
X178728571Y18050000D01*
X178785714Y17935715D01*
X178785714Y17307143D01*
X179814285Y17364286D02*
X179700000Y17307143D01*
X179471428Y17307143D01*
X179357142Y17364286D01*
X179300000Y17478572D01*
X179300000Y17935715D01*
X179357142Y18050000D01*
X179471428Y18107143D01*
X179700000Y18107143D01*
X179814285Y18050000D01*
X179871428Y17935715D01*
X179871428Y17821429D01*
X179300000Y17707143D01*
X181242857Y17650000D02*
X181814285Y17650000D01*
X181128571Y17307143D02*
X181528571Y18507143D01*
X181928571Y17307143D01*
X182328571Y17307143D02*
X182328571Y18107143D01*
X182328571Y17992858D02*
X182385714Y18050000D01*
X182500000Y18107143D01*
X182671428Y18107143D01*
X182785714Y18050000D01*
X182842857Y17935715D01*
X182842857Y17307143D01*
X182842857Y17935715D02*
X182900000Y18050000D01*
X183014285Y18107143D01*
X183185714Y18107143D01*
X183300000Y18050000D01*
X183357142Y17935715D01*
X183357142Y17307143D01*
X183928571Y18107143D02*
X183928571Y16907143D01*
X183928571Y18050000D02*
X184042857Y18107143D01*
X184271428Y18107143D01*
X184385714Y18050000D01*
X184442857Y17992858D01*
X184500000Y17878572D01*
X184500000Y17535715D01*
X184442857Y17421429D01*
X184385714Y17364286D01*
X184271428Y17307143D01*
X184042857Y17307143D01*
X183928571Y17364286D01*
D11*
X221800000Y15800000D02*
G75*
G02X222550000Y15050000I0J-750000D01*
G01*
X222550000Y11200000D02*
X222550000Y15050000D01*
X221800000Y10450000D02*
X221450000Y10450000D01*
X222550000Y11200000D02*
G75*
G02X221800000Y10450000I-750000J0D01*
G01*
X220700000Y9700000D02*
G75*
G02X221450000Y10450000I750000J0D01*
G01*
X202400000Y2000000D02*
X211650000Y2000000D01*
X212400000Y2750000D02*
G75*
G02X211650000Y2000000I-750000J0D01*
G01*
X202400000Y2000000D02*
G75*
G02X201650000Y2750000I0J750000D01*
G01*
X201650000Y15300000D02*
X201650000Y2750000D01*
X200900000Y16050000D02*
G75*
G02X201650000Y15300000I0J-750000D01*
G01*
X191200000Y16050000D02*
X200900000Y16050000D01*
X190450000Y15300000D02*
G75*
G02X191200000Y16050000I750000J0D01*
G01*
X126250000Y2150000D02*
X134100000Y2150000D01*
X77300000Y5000000D02*
X77300000Y13500000D01*
X186850000Y15250000D02*
X186850000Y4100000D01*
D13*
X14571428Y2021429D02*
X13857142Y2021429D01*
X13857142Y3521429D01*
X15000000Y2092858D02*
X15214285Y2021429D01*
X15571428Y2021429D01*
X15714285Y2092858D01*
X15785714Y2164286D01*
X15857142Y2307143D01*
X15857142Y2450000D01*
X15785714Y2592858D01*
X15714285Y2664286D01*
X15571428Y2735715D01*
X15285714Y2807143D01*
X15142857Y2878572D01*
X15071428Y2950000D01*
X15000000Y3092858D01*
X15000000Y3235715D01*
X15071428Y3378572D01*
X15142857Y3450000D01*
X15285714Y3521429D01*
X15642857Y3521429D01*
X15857142Y3450000D01*
X17357142Y2164286D02*
X17285714Y2092858D01*
X17071428Y2021429D01*
X16928571Y2021429D01*
X16714285Y2092858D01*
X16571428Y2235715D01*
X16500000Y2378572D01*
X16428571Y2664286D01*
X16428571Y2878572D01*
X16500000Y3164286D01*
X16571428Y3307143D01*
X16714285Y3450000D01*
X16928571Y3521429D01*
X17071428Y3521429D01*
X17285714Y3450000D01*
X17357142Y3378572D01*
X18642857Y3521429D02*
X18357142Y3521429D01*
X18214285Y3450000D01*
X18142857Y3378572D01*
X18000000Y3164286D01*
X17928571Y2878572D01*
X17928571Y2307143D01*
X18000000Y2164286D01*
X18071428Y2092858D01*
X18214285Y2021429D01*
X18500000Y2021429D01*
X18642857Y2092858D01*
X18714285Y2164286D01*
X18785714Y2307143D01*
X18785714Y2664286D01*
X18714285Y2807143D01*
X18642857Y2878572D01*
X18500000Y2950000D01*
X18214285Y2950000D01*
X18071428Y2878572D01*
X18000000Y2807143D01*
X17928571Y2664286D01*
X20071428Y3021429D02*
X20071428Y2021429D01*
X19714285Y3592858D02*
X19357142Y2521429D01*
X20285714Y2521429D01*
D11*
X230450000Y18850000D02*
X127100000Y18850000D01*
X230450000Y18850000D02*
G75*
G02X231200000Y18100000I0J-750000D01*
G01*
X213150000Y15800000D02*
X221800000Y15800000D01*
X212400000Y15050000D02*
G75*
G02X213150000Y15800000I750000J0D01*
G01*
X190450000Y4100000D02*
G75*
G02X189700000Y3350000I-750000J0D01*
G01*
X187600000Y3350000D02*
G75*
G02X186850000Y4100000I0J750000D01*
G01*
X170000000Y4050000D02*
G75*
G02X169250000Y3300000I-750000J0D01*
G01*
X167150000Y3300000D02*
G75*
G02X166400000Y4050000I0J750000D01*
G01*
X165550000Y16100000D02*
G75*
G02X166400000Y15250000I0J-850000D01*
G01*
X155200000Y15250000D02*
G75*
G02X156050000Y16100000I850000J0D01*
G01*
X155200000Y2450000D02*
X155200000Y15250000D01*
X143700000Y15900000D02*
G75*
G02X144750000Y14850000I0J-1050000D01*
G01*
X144750000Y2450000D02*
X144750000Y14850000D01*
X134850000Y15000000D02*
G75*
G02X135750000Y15900000I900000J0D01*
G01*
X134850000Y15000000D02*
X134850000Y2900000D01*
X231200000Y4350000D02*
X231200000Y18100000D01*
X221450000Y3600000D02*
X230450000Y3600000D01*
X220700000Y9700000D02*
X220700000Y4350000D01*
X212400000Y12500000D02*
X212400000Y15050000D01*
X212400000Y2750000D02*
X212400000Y12500000D01*
X190450000Y4100000D02*
X190450000Y15300000D01*
X187600000Y3350000D02*
X189700000Y3350000D01*
X170000000Y4050000D02*
X170000000Y15250000D01*
X167150000Y3300000D02*
X169250000Y3300000D01*
X166400000Y15250000D02*
X166400000Y4050000D01*
X156050000Y16100000D02*
X165550000Y16100000D01*
X145500000Y1700000D02*
X154450000Y1700000D01*
X135750000Y15900000D02*
X143700000Y15900000D01*
X125500000Y17250000D02*
G75*
G02X127100000Y18850000I1600000J0D01*
G01*
X125500000Y2900000D02*
X125500000Y17250000D01*
D14*
G36*
X320900000Y17100000D02*
G01*
X322000000Y16700000D01*
X322600000Y16300000D01*
X323000000Y15600000D01*
X317400000Y15600000D01*
X317800000Y16300000D01*
X318400000Y16700000D01*
X319500000Y17100000D01*
X319500000Y17800000D01*
X320900000Y17800000D01*
X320900000Y17100000D01*
G37*
X320900000Y17100000D02*
X322000000Y16700000D01*
X322600000Y16300000D01*
X323000000Y15600000D01*
X317400000Y15600000D01*
X317800000Y16300000D01*
X318400000Y16700000D01*
X319500000Y17100000D01*
X319500000Y17800000D01*
X320900000Y17800000D01*
X320900000Y17100000D01*
D11*
X322000000Y16700000D02*
X320900000Y17100000D01*
X318400000Y16700000D02*
X319500000Y17100000D01*
X319500000Y17800000D02*
X319500000Y17100000D01*
X320900000Y17800000D02*
X320900000Y17100000D01*
X319500000Y17800000D02*
X320900000Y17800000D01*
X322600000Y16300000D02*
X322000000Y16700000D01*
X317800000Y16300000D02*
X318400000Y16700000D01*
X317400000Y15600000D02*
X317800000Y16300000D01*
X323000000Y15600000D02*
X322600000Y16300000D01*
X317400000Y15600000D02*
X323000000Y15600000D01*
X317000000Y10300000D02*
X317200000Y9600000D01*
X318800000Y9100000D02*
X317000000Y10300000D01*
X317000000Y10300000D02*
X317800000Y10300000D01*
X323000000Y11700000D02*
G75*
G02X317400002Y11700000I-2799999J-2899999D01*
G01*
X320200000Y13400000D02*
X320000000Y13600000D01*
X320200000Y13400000D02*
X320400000Y13600000D01*
X320200000Y14000000D02*
X320200000Y13400000D01*
X319500000Y13500000D02*
X319700000Y13400000D01*
X319500000Y13700000D02*
X319500000Y13500000D01*
X320200000Y14000000D02*
X319500000Y13500000D01*
X321204988Y14000000D02*
G75*
G03X321204988Y14000000I-1004988J0D01*
G01*
D14*
G36*
X320200000Y10800000D02*
G01*
X318800000Y13000000D01*
X320200000Y12600000D01*
X321600000Y13000000D01*
X320200000Y10800000D01*
G37*
X320200000Y10800000D02*
X318800000Y13000000D01*
X320200000Y12600000D01*
X321600000Y13000000D01*
X320200000Y10800000D01*
D11*
X316500000Y9300000D02*
X317300000Y9300000D01*
X318300000Y8100000D02*
X316500000Y9300000D01*
X316500000Y9300000D02*
X316700000Y8600000D01*
X320200000Y10700000D02*
X323000000Y15200000D01*
X320200000Y10700000D02*
X317398215Y15200000D01*
X322998215Y15200000D02*
X317398215Y15200000D01*
X317400000Y10700000D02*
X323000000Y10700000D01*
X320300000Y10700000D02*
X323000000Y6200000D01*
X320100000Y10700000D02*
X317398215Y6200000D01*
D13*
X320200000Y5400000D02*
X320200000Y11100000D01*
D11*
X317400000Y6200000D02*
X323000000Y6200000D01*
D10*
X318580952Y3297620D02*
X318104761Y3297620D01*
X318104761Y4297620D01*
X318866666Y3345239D02*
X319009523Y3297620D01*
X319247619Y3297620D01*
X319342857Y3345239D01*
X319390476Y3392858D01*
X319438095Y3488096D01*
X319438095Y3583334D01*
X319390476Y3678572D01*
X319342857Y3726191D01*
X319247619Y3773810D01*
X319057142Y3821429D01*
X318961904Y3869048D01*
X318914285Y3916667D01*
X318866666Y4011905D01*
X318866666Y4107143D01*
X318914285Y4202381D01*
X318961904Y4250000D01*
X319057142Y4297620D01*
X319295238Y4297620D01*
X319438095Y4250000D01*
X320438095Y3392858D02*
X320390476Y3345239D01*
X320247619Y3297620D01*
X320152380Y3297620D01*
X320009523Y3345239D01*
X319914285Y3440477D01*
X319866666Y3535715D01*
X319819047Y3726191D01*
X319819047Y3869048D01*
X319866666Y4059524D01*
X319914285Y4154762D01*
X320009523Y4250000D01*
X320152380Y4297620D01*
X320247619Y4297620D01*
X320390476Y4250000D01*
X320438095Y4202381D01*
X321295238Y4297620D02*
X321104761Y4297620D01*
X321009523Y4250000D01*
X320961904Y4202381D01*
X320866666Y4059524D01*
X320819047Y3869048D01*
X320819047Y3488096D01*
X320866666Y3392858D01*
X320914285Y3345239D01*
X321009523Y3297620D01*
X321200000Y3297620D01*
X321295238Y3345239D01*
X321342857Y3392858D01*
X321390476Y3488096D01*
X321390476Y3726191D01*
X321342857Y3821429D01*
X321295238Y3869048D01*
X321200000Y3916667D01*
X321009523Y3916667D01*
X320914285Y3869048D01*
X320866666Y3821429D01*
X320819047Y3726191D01*
X322247619Y3964286D02*
X322247619Y3297620D01*
X322009523Y4345239D02*
X321771428Y3630953D01*
X322390476Y3630953D01*
D13*
X80000000Y16421429D02*
X80000000Y17921429D01*
X80857142Y16421429D01*
X80857142Y17921429D01*
X81571428Y17207143D02*
X82071428Y17207143D01*
X82285714Y16421429D02*
X81571428Y16421429D01*
X81571428Y17921429D01*
X82285714Y17921429D01*
X83642857Y17921429D02*
X82928571Y17921429D01*
X82857142Y17207143D01*
X82928571Y17278572D01*
X83071428Y17350000D01*
X83428571Y17350000D01*
X83571428Y17278572D01*
X83642857Y17207143D01*
X83714285Y17064286D01*
X83714285Y16707143D01*
X83642857Y16564286D01*
X83571428Y16492858D01*
X83428571Y16421429D01*
X83071428Y16421429D01*
X82928571Y16492858D01*
X82857142Y16564286D01*
X85071428Y17921429D02*
X84357142Y17921429D01*
X84285714Y17207143D01*
X84357142Y17278572D01*
X84500000Y17350000D01*
X84857142Y17350000D01*
X85000000Y17278572D01*
X85071428Y17207143D01*
X85142857Y17064286D01*
X85142857Y16707143D01*
X85071428Y16564286D01*
X85000000Y16492858D01*
X84857142Y16421429D01*
X84500000Y16421429D01*
X84357142Y16492858D01*
X84285714Y16564286D01*
X86500000Y17921429D02*
X85785714Y17921429D01*
X85714285Y17207143D01*
X85785714Y17278572D01*
X85928571Y17350000D01*
X86285714Y17350000D01*
X86428571Y17278572D01*
X86500000Y17207143D01*
X86571428Y17064286D01*
X86571428Y16707143D01*
X86500000Y16564286D01*
X86428571Y16492858D01*
X86285714Y16421429D01*
X85928571Y16421429D01*
X85785714Y16492858D01*
X85714285Y16564286D01*
X99914285Y16564286D02*
X99842857Y16492858D01*
X99628571Y16421429D01*
X99485714Y16421429D01*
X99271428Y16492858D01*
X99128571Y16635715D01*
X99057142Y16778572D01*
X98985714Y17064286D01*
X98985714Y17278572D01*
X99057142Y17564286D01*
X99128571Y17707143D01*
X99271428Y17850000D01*
X99485714Y17921429D01*
X99628571Y17921429D01*
X99842857Y17850000D01*
X99914285Y17778572D01*
X100557142Y16421429D02*
X100557142Y17921429D01*
X101128571Y17921429D01*
X101271428Y17850000D01*
X101342857Y17778572D01*
X101414285Y17635715D01*
X101414285Y17421429D01*
X101342857Y17278572D01*
X101271428Y17207143D01*
X101128571Y17135715D01*
X100557142Y17135715D01*
X102057142Y17921429D02*
X102057142Y16707143D01*
X102128571Y16564286D01*
X102200000Y16492858D01*
X102342857Y16421429D01*
X102628571Y16421429D01*
X102771428Y16492858D01*
X102842857Y16564286D01*
X102914285Y16707143D01*
X102914285Y17921429D01*
X105271428Y17207143D02*
X105485714Y17135715D01*
X105557142Y17064286D01*
X105628571Y16921429D01*
X105628571Y16707143D01*
X105557142Y16564286D01*
X105485714Y16492858D01*
X105342857Y16421429D01*
X104771428Y16421429D01*
X104771428Y17921429D01*
X105271428Y17921429D01*
X105414285Y17850000D01*
X105485714Y17778572D01*
X105557142Y17635715D01*
X105557142Y17492858D01*
X105485714Y17350000D01*
X105414285Y17278572D01*
X105271428Y17207143D01*
X104771428Y17207143D01*
X106271428Y16421429D02*
X106271428Y17421429D01*
X106271428Y17135715D02*
X106342857Y17278572D01*
X106414285Y17350000D01*
X106557142Y17421429D01*
X106700000Y17421429D01*
X107842857Y16421429D02*
X107842857Y17207143D01*
X107771428Y17350000D01*
X107628571Y17421429D01*
X107342857Y17421429D01*
X107200000Y17350000D01*
X107842857Y16492858D02*
X107700000Y16421429D01*
X107342857Y16421429D01*
X107200000Y16492858D01*
X107128571Y16635715D01*
X107128571Y16778572D01*
X107200000Y16921429D01*
X107342857Y16992858D01*
X107700000Y16992858D01*
X107842857Y17064286D01*
X108557142Y16421429D02*
X108557142Y17921429D01*
X108700000Y16992858D02*
X109128571Y16421429D01*
X109128571Y17421429D02*
X108557142Y16850000D01*
X110342857Y16492858D02*
X110200000Y16421429D01*
X109914285Y16421429D01*
X109771428Y16492858D01*
X109700000Y16635715D01*
X109700000Y17207143D01*
X109771428Y17350000D01*
X109914285Y17421429D01*
X110200000Y17421429D01*
X110342857Y17350000D01*
X110414285Y17207143D01*
X110414285Y17064286D01*
X109700000Y16921429D01*
D11*
X109400000Y15150000D02*
X109400001Y9899999D01*
X99150000Y15900000D02*
X108650000Y15900000D01*
X98400000Y15150000D02*
X98400000Y4200000D01*
X87500000Y4200000D02*
X87500000Y13500000D01*
X95900000Y1700000D02*
X90000000Y1700000D01*
X114784688Y6800000D02*
X114784688Y16300000D01*
X114784688Y6800000D02*
G75*
G02X109400001Y9899999I-3584688J0D01*
G01*
X98400000Y4200000D02*
G75*
G02X95900000Y1700000I-2500000J0D01*
G01*
X90000000Y1700000D02*
G75*
G02X87500000Y4200000I0J2500000D01*
G01*
X85000000Y16000000D02*
X79800000Y16000000D01*
X85000000Y16000000D02*
G75*
G02X87500000Y13500000I0J-2500000D01*
G01*
X77300000Y13500000D02*
G75*
G02X79800000Y16000000I2500000J0D01*
G01*
X69650000Y18600000D02*
X112484688Y18600000D01*
X112484688Y18600000D02*
G75*
G02X114784688Y16300000I0J-2300000D01*
G01*
X68900000Y5000000D02*
X68900000Y17850000D01*
X76550000Y4250000D02*
X69650000Y4250000D01*
D10*
X23809523Y17821429D02*
X24142857Y17821429D01*
X24285714Y17297620D02*
X23809523Y17297620D01*
X23809523Y18297620D01*
X24285714Y18297620D01*
X24619047Y17297620D02*
X25142857Y17964286D01*
X24619047Y17964286D02*
X25142857Y17297620D01*
X25523809Y17964286D02*
X25523809Y16964286D01*
X25523809Y17916667D02*
X25619047Y17964286D01*
X25809523Y17964286D01*
X25904761Y17916667D01*
X25952380Y17869048D01*
X25999999Y17773810D01*
X25999999Y17488096D01*
X25952380Y17392858D01*
X25904761Y17345239D01*
X25809523Y17297620D01*
X25619047Y17297620D01*
X25523809Y17345239D01*
X26857142Y17297620D02*
X26857142Y17821429D01*
X26809523Y17916667D01*
X26714285Y17964286D01*
X26523809Y17964286D01*
X26428571Y17916667D01*
X26857142Y17345239D02*
X26761904Y17297620D01*
X26523809Y17297620D01*
X26428571Y17345239D01*
X26380952Y17440477D01*
X26380952Y17535715D01*
X26428571Y17630953D01*
X26523809Y17678572D01*
X26761904Y17678572D01*
X26857142Y17726191D01*
X27333333Y17964286D02*
X27333333Y17297620D01*
X27333333Y17869048D02*
X27380952Y17916667D01*
X27476190Y17964286D01*
X27619047Y17964286D01*
X27714285Y17916667D01*
X27761904Y17821429D01*
X27761904Y17297620D01*
X28190476Y17345239D02*
X28285714Y17297620D01*
X28476190Y17297620D01*
X28571428Y17345239D01*
X28619047Y17440477D01*
X28619047Y17488096D01*
X28571428Y17583334D01*
X28476190Y17630953D01*
X28333333Y17630953D01*
X28238095Y17678572D01*
X28190476Y17773810D01*
X28190476Y17821429D01*
X28238095Y17916667D01*
X28333333Y17964286D01*
X28476190Y17964286D01*
X28571428Y17916667D01*
X29047619Y17297620D02*
X29047619Y17964286D01*
X29047619Y18297620D02*
X28999999Y18250000D01*
X29047619Y18202381D01*
X29095238Y18250000D01*
X29047619Y18297620D01*
X29047619Y18202381D01*
X29666666Y17297620D02*
X29571428Y17345239D01*
X29523809Y17392858D01*
X29476190Y17488096D01*
X29476190Y17773810D01*
X29523809Y17869048D01*
X29571428Y17916667D01*
X29666666Y17964286D01*
X29809523Y17964286D01*
X29904761Y17916667D01*
X29952380Y17869048D01*
X29999999Y17773810D01*
X29999999Y17488096D01*
X29952380Y17392858D01*
X29904761Y17345239D01*
X29809523Y17297620D01*
X29666666Y17297620D01*
X30428571Y17964286D02*
X30428571Y17297620D01*
X30428571Y17869048D02*
X30476190Y17916667D01*
X30571428Y17964286D01*
X30714285Y17964286D01*
X30809523Y17916667D01*
X30857142Y17821429D01*
X30857142Y17297620D01*
X31285714Y17345239D02*
X31380952Y17297620D01*
X31571428Y17297620D01*
X31666666Y17345239D01*
X31714285Y17440477D01*
X31714285Y17488096D01*
X31666666Y17583334D01*
X31571428Y17630953D01*
X31428571Y17630953D01*
X31333333Y17678572D01*
X31285714Y17773810D01*
X31285714Y17821429D01*
X31333333Y17916667D01*
X31428571Y17964286D01*
X31571428Y17964286D01*
X31666666Y17916667D01*
X32142857Y17964286D02*
X32142857Y16964286D01*
X32142857Y17916667D02*
X32238095Y17964286D01*
X32428571Y17964286D01*
X32523809Y17916667D01*
X32571428Y17869048D01*
X32619047Y17773810D01*
X32619047Y17488096D01*
X32571428Y17392858D01*
X32523809Y17345239D01*
X32428571Y17297620D01*
X32238095Y17297620D01*
X32142857Y17345239D01*
X33190476Y17297620D02*
X33095238Y17345239D01*
X33047619Y17392858D01*
X32999999Y17488096D01*
X32999999Y17773810D01*
X33047619Y17869048D01*
X33095238Y17916667D01*
X33190476Y17964286D01*
X33333333Y17964286D01*
X33428571Y17916667D01*
X33476190Y17869048D01*
X33523809Y17773810D01*
X33523809Y17488096D01*
X33476190Y17392858D01*
X33428571Y17345239D01*
X33333333Y17297620D01*
X33190476Y17297620D01*
X33952380Y17297620D02*
X33952380Y17964286D01*
X33952380Y17773810D02*
X33999999Y17869048D01*
X34047619Y17916667D01*
X34142857Y17964286D01*
X34238095Y17964286D01*
X34428571Y17964286D02*
X34809523Y17964286D01*
X34571428Y18297620D02*
X34571428Y17440477D01*
X34619047Y17345239D01*
X34714285Y17297620D01*
X34809523Y17297620D01*
X35142857Y17678572D02*
X35904761Y17678572D01*
X36380952Y17297620D02*
X36380952Y18297620D01*
X36619047Y18297620D01*
X36761904Y18250000D01*
X36857142Y18154762D01*
X36904761Y18059524D01*
X36952380Y17869048D01*
X36952380Y17726191D01*
X36904761Y17535715D01*
X36857142Y17440477D01*
X36761904Y17345239D01*
X36619047Y17297620D01*
X36380952Y17297620D01*
X37761904Y17345239D02*
X37666666Y17297620D01*
X37476190Y17297620D01*
X37380952Y17345239D01*
X37333333Y17440477D01*
X37333333Y17821429D01*
X37380952Y17916667D01*
X37476190Y17964286D01*
X37666666Y17964286D01*
X37761904Y17916667D01*
X37809523Y17821429D01*
X37809523Y17726191D01*
X37333333Y17630953D01*
X38380952Y17297620D02*
X38285714Y17345239D01*
X38238095Y17440477D01*
X38238095Y18297620D01*
X39190476Y17964286D02*
X39190476Y17297620D01*
X38761904Y17964286D02*
X38761904Y17440477D01*
X38809523Y17345239D01*
X38904761Y17297620D01*
X39047619Y17297620D01*
X39142857Y17345239D01*
X39190476Y17392858D01*
X39571428Y17297620D02*
X40095238Y17964286D01*
X39571428Y17964286D02*
X40095238Y17297620D01*
X40857142Y17345239D02*
X40761904Y17297620D01*
X40571428Y17297620D01*
X40476190Y17345239D01*
X40428571Y17440477D01*
X40428571Y17821429D01*
X40476190Y17916667D01*
X40571428Y17964286D01*
X40761904Y17964286D01*
X40857142Y17916667D01*
X40904761Y17821429D01*
X40904761Y17726191D01*
X40428571Y17630953D01*
X41333333Y17678572D02*
X42095238Y17678572D01*
X43142857Y17297620D02*
X42809523Y17773810D01*
X42571428Y17297620D02*
X42571428Y18297620D01*
X42952380Y18297620D01*
X43047619Y18250000D01*
X43095238Y18202381D01*
X43142857Y18107143D01*
X43142857Y17964286D01*
X43095238Y17869048D01*
X43047619Y17821429D01*
X42952380Y17773810D01*
X42571428Y17773810D01*
X43952380Y17345239D02*
X43857142Y17297620D01*
X43666666Y17297620D01*
X43571428Y17345239D01*
X43523809Y17440477D01*
X43523809Y17821429D01*
X43571428Y17916667D01*
X43666666Y17964286D01*
X43857142Y17964286D01*
X43952380Y17916667D01*
X44000000Y17821429D01*
X44000000Y17726191D01*
X43523809Y17630953D01*
X44380952Y17345239D02*
X44476190Y17297620D01*
X44666666Y17297620D01*
X44761904Y17345239D01*
X44809523Y17440477D01*
X44809523Y17488096D01*
X44761904Y17583334D01*
X44666666Y17630953D01*
X44523809Y17630953D01*
X44428571Y17678572D01*
X44380952Y17773810D01*
X44380952Y17821429D01*
X44428571Y17916667D01*
X44523809Y17964286D01*
X44666666Y17964286D01*
X44761904Y17916667D01*
X45619047Y17345239D02*
X45523809Y17297620D01*
X45333333Y17297620D01*
X45238095Y17345239D01*
X45190476Y17440477D01*
X45190476Y17821429D01*
X45238095Y17916667D01*
X45333333Y17964286D01*
X45523809Y17964286D01*
X45619047Y17916667D01*
X45666666Y17821429D01*
X45666666Y17726191D01*
X45190476Y17630953D01*
X45952380Y17964286D02*
X46333333Y17964286D01*
X46095238Y18297620D02*
X46095238Y17440477D01*
X46142857Y17345239D01*
X46238095Y17297620D01*
X46333333Y17297620D01*
D11*
X32000000Y3300000D02*
X38250000Y3300000D01*
X39000000Y4050000D02*
X39000000Y15250000D01*
X31250000Y15250000D02*
X31250000Y4050000D01*
X29250000Y17000000D02*
X29500000Y17000000D01*
X29250000Y17000000D02*
X21250000Y17000000D01*
X49250000Y17000000D02*
X40750000Y17000000D01*
X39000000Y15250000D02*
G75*
G02X40750000Y17000000I1750000J0D01*
G01*
X49250000Y17000000D02*
G75*
G02X51000000Y15250000I0J-1750000D01*
G01*
X29500000Y17000000D02*
G75*
G02X31250000Y15250000I0J-1750000D01*
G01*
X19500000Y15250000D02*
G75*
G02X21250000Y17000000I1750000J0D01*
G01*
X55000000Y18500000D02*
X15500000Y18500000D01*
X55000000Y18500000D02*
G75*
G02X57500000Y16000000I0J-2500000D01*
G01*
X13000000Y16000000D02*
G75*
G02X15500000Y18500000I2500000J0D01*
G01*
X51000000Y8000000D02*
X51000000Y15250000D01*
X57500000Y8000000D02*
X57500000Y16000000D01*
X19500000Y8000000D02*
X19500000Y15250000D01*
X13000000Y8000000D02*
X13000000Y16000000D01*
X57500000Y8000000D02*
G75*
G02X51000000Y8000000I-3250000J0D01*
G01*
X19500000Y8000000D02*
G75*
G02X13000000Y8000000I-3250000J0D01*
G01*
D15*
X390000000Y0D02*
X0Y0D01*
X390000000Y20000000D02*
X390000000Y0D01*
X0Y20000000D02*
X390000000Y20000000D01*
X0Y0D02*
X0Y20000000D01*
D11*
%TO.C,J26*%
X242530000Y5070000D02*
X247730000Y5070000D01*
X242530000Y15290000D02*
X242530000Y5070000D01*
X247730000Y17890000D02*
X247730000Y5070000D01*
X242530000Y15290000D02*
X245130000Y15290000D01*
X245130000Y15290000D02*
X245130000Y17890000D01*
X245130000Y17890000D02*
X247730000Y17890000D01*
X242530000Y16560000D02*
X242530000Y17890000D01*
X242530000Y17890000D02*
X243860000Y17890000D01*
%TO.C,U3*%
X77170000Y8710000D02*
G75*
G02X77170000Y10710000I0J1000000D01*
G01*
X77170000Y10710000D02*
X77170000Y12160000D01*
X77170000Y12160000D02*
X69430000Y12160000D01*
X69430000Y12160000D02*
X69430000Y7260000D01*
X69430000Y7260000D02*
X77170000Y7260000D01*
X77170000Y7260000D02*
X77170000Y8710000D01*
%TO.C,J25*%
X71160000Y15740000D02*
X73820000Y15740000D01*
X71160000Y15800000D02*
X71160000Y15740000D01*
X73820000Y15800000D02*
X73820000Y15740000D01*
X71160000Y15800000D02*
X73820000Y15800000D01*
X71160000Y17070000D02*
X71160000Y18400000D01*
X71160000Y18400000D02*
X72490000Y18400000D01*
%TO.C,J10*%
X193590000Y3370000D02*
X193590000Y4700000D01*
X194920000Y3370000D02*
X193590000Y3370000D01*
X193590000Y5970000D02*
X193590000Y8570000D01*
X196190000Y5970000D02*
X193590000Y5970000D01*
X196190000Y3370000D02*
X196190000Y5970000D01*
X193590000Y8570000D02*
X201330000Y8570000D01*
X196190000Y3370000D02*
X201330000Y3370000D01*
X201330000Y3370000D02*
X201330000Y8570000D01*
%TO.C,C1*%
X51695225Y9725000D02*
X51695225Y9225000D01*
X51445225Y9475000D02*
X51945225Y9475000D01*
X56851000Y8284000D02*
X56851000Y7716000D01*
X56811000Y8518000D02*
X56811000Y7482000D01*
X56771000Y8677000D02*
X56771000Y7323000D01*
X56731000Y8805000D02*
X56731000Y7195000D01*
X56691000Y8915000D02*
X56691000Y7085000D01*
X56651000Y9011000D02*
X56651000Y6989000D01*
X56611000Y9098000D02*
X56611000Y6902000D01*
X56571000Y9178000D02*
X56571000Y6822000D01*
X56531000Y6960000D02*
X56531000Y6749000D01*
X56531000Y9251000D02*
X56531000Y9040000D01*
X56491000Y6960000D02*
X56491000Y6681000D01*
X56491000Y9319000D02*
X56491000Y9040000D01*
X56451000Y6960000D02*
X56451000Y6617000D01*
X56451000Y9383000D02*
X56451000Y9040000D01*
X56411000Y6960000D02*
X56411000Y6557000D01*
X56411000Y9443000D02*
X56411000Y9040000D01*
X56371000Y6960000D02*
X56371000Y6500000D01*
X56371000Y9500000D02*
X56371000Y9040000D01*
X56331000Y6960000D02*
X56331000Y6446000D01*
X56331000Y9554000D02*
X56331000Y9040000D01*
X56291000Y6960000D02*
X56291000Y6395000D01*
X56291000Y9605000D02*
X56291000Y9040000D01*
X56251000Y6960000D02*
X56251000Y6347000D01*
X56251000Y9653000D02*
X56251000Y9040000D01*
X56211000Y6960000D02*
X56211000Y6301000D01*
X56211000Y9699000D02*
X56211000Y9040000D01*
X56171000Y6960000D02*
X56171000Y6257000D01*
X56171000Y9743000D02*
X56171000Y9040000D01*
X56131000Y6960000D02*
X56131000Y6215000D01*
X56131000Y9785000D02*
X56131000Y9040000D01*
X56091000Y6960000D02*
X56091000Y6174000D01*
X56091000Y9826000D02*
X56091000Y9040000D01*
X56051000Y6960000D02*
X56051000Y6136000D01*
X56051000Y9864000D02*
X56051000Y9040000D01*
X56011000Y6960000D02*
X56011000Y6099000D01*
X56011000Y9901000D02*
X56011000Y9040000D01*
X55971000Y6960000D02*
X55971000Y6063000D01*
X55971000Y9937000D02*
X55971000Y9040000D01*
X55931000Y6960000D02*
X55931000Y6029000D01*
X55931000Y9971000D02*
X55931000Y9040000D01*
X55891000Y6960000D02*
X55891000Y5996000D01*
X55891000Y10004000D02*
X55891000Y9040000D01*
X55851000Y6960000D02*
X55851000Y5965000D01*
X55851000Y10035000D02*
X55851000Y9040000D01*
X55811000Y6960000D02*
X55811000Y5935000D01*
X55811000Y10065000D02*
X55811000Y9040000D01*
X55771000Y6960000D02*
X55771000Y5905000D01*
X55771000Y10095000D02*
X55771000Y9040000D01*
X55731000Y6960000D02*
X55731000Y5878000D01*
X55731000Y10122000D02*
X55731000Y9040000D01*
X55691000Y6960000D02*
X55691000Y5851000D01*
X55691000Y10149000D02*
X55691000Y9040000D01*
X55651000Y6960000D02*
X55651000Y5825000D01*
X55651000Y10175000D02*
X55651000Y9040000D01*
X55611000Y6960000D02*
X55611000Y5800000D01*
X55611000Y10200000D02*
X55611000Y9040000D01*
X55571000Y6960000D02*
X55571000Y5776000D01*
X55571000Y10224000D02*
X55571000Y9040000D01*
X55531000Y6960000D02*
X55531000Y5753000D01*
X55531000Y10247000D02*
X55531000Y9040000D01*
X55491000Y6960000D02*
X55491000Y5732000D01*
X55491000Y10268000D02*
X55491000Y9040000D01*
X55451000Y6960000D02*
X55451000Y5710000D01*
X55451000Y10290000D02*
X55451000Y9040000D01*
X55411000Y6960000D02*
X55411000Y5690000D01*
X55411000Y10310000D02*
X55411000Y9040000D01*
X55371000Y6960000D02*
X55371000Y5671000D01*
X55371000Y10329000D02*
X55371000Y9040000D01*
X55331000Y6960000D02*
X55331000Y5652000D01*
X55331000Y10348000D02*
X55331000Y9040000D01*
X55291000Y6960000D02*
X55291000Y5635000D01*
X55291000Y10365000D02*
X55291000Y9040000D01*
X55251000Y6960000D02*
X55251000Y5618000D01*
X55251000Y10382000D02*
X55251000Y9040000D01*
X55211000Y6960000D02*
X55211000Y5602000D01*
X55211000Y10398000D02*
X55211000Y9040000D01*
X55171000Y6960000D02*
X55171000Y5586000D01*
X55171000Y10414000D02*
X55171000Y9040000D01*
X55131000Y6960000D02*
X55131000Y5572000D01*
X55131000Y10428000D02*
X55131000Y9040000D01*
X55091000Y6960000D02*
X55091000Y5558000D01*
X55091000Y10442000D02*
X55091000Y9040000D01*
X55051000Y6960000D02*
X55051000Y5545000D01*
X55051000Y10455000D02*
X55051000Y9040000D01*
X55011000Y6960000D02*
X55011000Y5532000D01*
X55011000Y10468000D02*
X55011000Y9040000D01*
X54971000Y6960000D02*
X54971000Y5520000D01*
X54971000Y10480000D02*
X54971000Y9040000D01*
X54930000Y6960000D02*
X54930000Y5509000D01*
X54930000Y10491000D02*
X54930000Y9040000D01*
X54890000Y6960000D02*
X54890000Y5499000D01*
X54890000Y10501000D02*
X54890000Y9040000D01*
X54850000Y6960000D02*
X54850000Y5489000D01*
X54850000Y10511000D02*
X54850000Y9040000D01*
X54810000Y6960000D02*
X54810000Y5480000D01*
X54810000Y10520000D02*
X54810000Y9040000D01*
X54770000Y6960000D02*
X54770000Y5472000D01*
X54770000Y10528000D02*
X54770000Y9040000D01*
X54730000Y6960000D02*
X54730000Y5464000D01*
X54730000Y10536000D02*
X54730000Y9040000D01*
X54690000Y6960000D02*
X54690000Y5457000D01*
X54690000Y10543000D02*
X54690000Y9040000D01*
X54650000Y6960000D02*
X54650000Y5450000D01*
X54650000Y10550000D02*
X54650000Y9040000D01*
X54610000Y6960000D02*
X54610000Y5444000D01*
X54610000Y10556000D02*
X54610000Y9040000D01*
X54570000Y6960000D02*
X54570000Y5439000D01*
X54570000Y10561000D02*
X54570000Y9040000D01*
X54530000Y6960000D02*
X54530000Y5435000D01*
X54530000Y10565000D02*
X54530000Y9040000D01*
X54490000Y6960000D02*
X54490000Y5431000D01*
X54490000Y10569000D02*
X54490000Y9040000D01*
X54450000Y10573000D02*
X54450000Y5427000D01*
X54410000Y10576000D02*
X54410000Y5424000D01*
X54370000Y10578000D02*
X54370000Y5422000D01*
X54330000Y10579000D02*
X54330000Y5421000D01*
X54290000Y10580000D02*
X54290000Y5420000D01*
X54250000Y10580000D02*
X54250000Y5420000D01*
X56870000Y8000000D02*
G75*
G03X56870000Y8000000I-2620000J0D01*
G01*
%TO.C,U1*%
X377050000Y12160000D02*
X377050000Y10510000D01*
X387330000Y12160000D02*
X377050000Y12160000D01*
X387330000Y6860000D02*
X387330000Y12160000D01*
X377050000Y6860000D02*
X387330000Y6860000D01*
X377050000Y8510000D02*
X377050000Y6860000D01*
X377050000Y10510000D02*
G75*
G02X377050000Y8510000I0J-1000000D01*
G01*
%TO.C,LED1*%
X366409202Y14223999D02*
G75*
G02X366409201Y11176001I2539998J-1523999D01*
G01*
%TO.C,J1*%
X364670000Y3370000D02*
X364670000Y4700000D01*
X366000000Y3370000D02*
X364670000Y3370000D01*
X364670000Y5970000D02*
X364670000Y8570000D01*
X367270000Y5970000D02*
X364670000Y5970000D01*
X367270000Y3370000D02*
X367270000Y5970000D01*
X364670000Y8570000D02*
X372410000Y8570000D01*
X367270000Y3370000D02*
X372410000Y3370000D01*
X372410000Y3370000D02*
X372410000Y8570000D01*
%TO.C,J2*%
X345670000Y3370000D02*
X345670000Y4700000D01*
X347000000Y3370000D02*
X345670000Y3370000D01*
X345670000Y5970000D02*
X345670000Y8570000D01*
X348270000Y5970000D02*
X345670000Y5970000D01*
X348270000Y3370000D02*
X348270000Y5970000D01*
X345670000Y8570000D02*
X353410000Y8570000D01*
X348270000Y3370000D02*
X353410000Y3370000D01*
X353410000Y3370000D02*
X353410000Y8570000D01*
%TO.C,J3*%
X326670000Y3370000D02*
X326670000Y4700000D01*
X328000000Y3370000D02*
X326670000Y3370000D01*
X326670000Y5970000D02*
X326670000Y8570000D01*
X329270000Y5970000D02*
X326670000Y5970000D01*
X329270000Y3370000D02*
X329270000Y5970000D01*
X326670000Y8570000D02*
X334410000Y8570000D01*
X329270000Y3370000D02*
X334410000Y3370000D01*
X334410000Y3370000D02*
X334410000Y8570000D01*
%TO.C,J4*%
X307590000Y3370000D02*
X307590000Y4700000D01*
X308920000Y3370000D02*
X307590000Y3370000D01*
X307590000Y5970000D02*
X307590000Y8570000D01*
X310190000Y5970000D02*
X307590000Y5970000D01*
X310190000Y3370000D02*
X310190000Y5970000D01*
X307590000Y8570000D02*
X315330000Y8570000D01*
X310190000Y3370000D02*
X315330000Y3370000D01*
X315330000Y3370000D02*
X315330000Y8570000D01*
%TO.C,J5*%
X288670000Y3370000D02*
X288670000Y4700000D01*
X290000000Y3370000D02*
X288670000Y3370000D01*
X288670000Y5970000D02*
X288670000Y8570000D01*
X291270000Y5970000D02*
X288670000Y5970000D01*
X291270000Y3370000D02*
X291270000Y5970000D01*
X288670000Y8570000D02*
X296410000Y8570000D01*
X291270000Y3370000D02*
X296410000Y3370000D01*
X296410000Y3370000D02*
X296410000Y8570000D01*
%TO.C,J6*%
X269670000Y3370000D02*
X269670000Y4700000D01*
X271000000Y3370000D02*
X269670000Y3370000D01*
X269670000Y5970000D02*
X269670000Y8570000D01*
X272270000Y5970000D02*
X269670000Y5970000D01*
X272270000Y3370000D02*
X272270000Y5970000D01*
X269670000Y8570000D02*
X277410000Y8570000D01*
X272270000Y3370000D02*
X277410000Y3370000D01*
X277410000Y3370000D02*
X277410000Y8570000D01*
%TO.C,J7*%
X250670000Y3370000D02*
X250670000Y4700000D01*
X252000000Y3370000D02*
X250670000Y3370000D01*
X250670000Y5970000D02*
X250670000Y8570000D01*
X253270000Y5970000D02*
X250670000Y5970000D01*
X253270000Y3370000D02*
X253270000Y5970000D01*
X250670000Y8570000D02*
X258410000Y8570000D01*
X253270000Y3370000D02*
X258410000Y3370000D01*
X258410000Y3370000D02*
X258410000Y8570000D01*
%TO.C,J8*%
X231590000Y3370000D02*
X231590000Y4700000D01*
X232920000Y3370000D02*
X231590000Y3370000D01*
X231590000Y5970000D02*
X231590000Y8570000D01*
X234190000Y5970000D02*
X231590000Y5970000D01*
X234190000Y3370000D02*
X234190000Y5970000D01*
X231590000Y8570000D02*
X239330000Y8570000D01*
X234190000Y3370000D02*
X239330000Y3370000D01*
X239330000Y3370000D02*
X239330000Y8570000D01*
%TO.C,J9*%
X212670000Y3370000D02*
X212670000Y4700000D01*
X214000000Y3370000D02*
X212670000Y3370000D01*
X212670000Y5970000D02*
X212670000Y8570000D01*
X215270000Y5970000D02*
X212670000Y5970000D01*
X215270000Y3370000D02*
X215270000Y5970000D01*
X212670000Y8570000D02*
X220410000Y8570000D01*
X215270000Y3370000D02*
X220410000Y3370000D01*
X220410000Y3370000D02*
X220410000Y8570000D01*
%TO.C,J11*%
X174590000Y3370000D02*
X174590000Y4700000D01*
X175920000Y3370000D02*
X174590000Y3370000D01*
X174590000Y5970000D02*
X174590000Y8570000D01*
X177190000Y5970000D02*
X174590000Y5970000D01*
X177190000Y3370000D02*
X177190000Y5970000D01*
X174590000Y8570000D02*
X182330000Y8570000D01*
X177190000Y3370000D02*
X182330000Y3370000D01*
X182330000Y3370000D02*
X182330000Y8570000D01*
%TO.C,J12*%
X155590000Y3370000D02*
X155590000Y4700000D01*
X156920000Y3370000D02*
X155590000Y3370000D01*
X155590000Y5970000D02*
X155590000Y8570000D01*
X158190000Y5970000D02*
X155590000Y5970000D01*
X158190000Y3370000D02*
X158190000Y5970000D01*
X155590000Y8570000D02*
X163330000Y8570000D01*
X158190000Y3370000D02*
X163330000Y3370000D01*
X163330000Y3370000D02*
X163330000Y8570000D01*
%TO.C,J13*%
X136590000Y3370000D02*
X136590000Y4700000D01*
X137920000Y3370000D02*
X136590000Y3370000D01*
X136590000Y5970000D02*
X136590000Y8570000D01*
X139190000Y5970000D02*
X136590000Y5970000D01*
X139190000Y3370000D02*
X139190000Y5970000D01*
X136590000Y8570000D02*
X144330000Y8570000D01*
X139190000Y3370000D02*
X144330000Y3370000D01*
X144330000Y3370000D02*
X144330000Y8570000D01*
%TO.C,J14*%
X117590000Y3370000D02*
X117590000Y4700000D01*
X118920000Y3370000D02*
X117590000Y3370000D01*
X117590000Y5970000D02*
X117590000Y8570000D01*
X120190000Y5970000D02*
X117590000Y5970000D01*
X120190000Y3370000D02*
X120190000Y5970000D01*
X117590000Y8570000D02*
X125330000Y8570000D01*
X120190000Y3370000D02*
X125330000Y3370000D01*
X125330000Y3370000D02*
X125330000Y8570000D01*
%TO.C,J15*%
X98590000Y3370000D02*
X98590000Y4700000D01*
X99920000Y3370000D02*
X98590000Y3370000D01*
X98590000Y5970000D02*
X98590000Y8570000D01*
X101190000Y5970000D02*
X98590000Y5970000D01*
X101190000Y3370000D02*
X101190000Y5970000D01*
X98590000Y8570000D02*
X106330000Y8570000D01*
X101190000Y3370000D02*
X106330000Y3370000D01*
X106330000Y3370000D02*
X106330000Y8570000D01*
%TO.C,J16*%
X79590000Y3370000D02*
X79590000Y4700000D01*
X80920000Y3370000D02*
X79590000Y3370000D01*
X79590000Y5970000D02*
X79590000Y8570000D01*
X82190000Y5970000D02*
X79590000Y5970000D01*
X82190000Y3370000D02*
X82190000Y5970000D01*
X79590000Y8570000D02*
X87330000Y8570000D01*
X82190000Y3370000D02*
X87330000Y3370000D01*
X87330000Y3370000D02*
X87330000Y8570000D01*
%TO.C,J17*%
X60590000Y3370000D02*
X60590000Y4700000D01*
X61920000Y3370000D02*
X60590000Y3370000D01*
X60590000Y5970000D02*
X60590000Y8570000D01*
X63190000Y5970000D02*
X60590000Y5970000D01*
X63190000Y3370000D02*
X63190000Y5970000D01*
X60590000Y8570000D02*
X68330000Y8570000D01*
X63190000Y3370000D02*
X68330000Y3370000D01*
X68330000Y3370000D02*
X68330000Y8570000D01*
%TO.C,J18*%
X41590000Y3370000D02*
X41590000Y4700000D01*
X42920000Y3370000D02*
X41590000Y3370000D01*
X41590000Y5970000D02*
X41590000Y8570000D01*
X44190000Y5970000D02*
X41590000Y5970000D01*
X44190000Y3370000D02*
X44190000Y5970000D01*
X41590000Y8570000D02*
X49330000Y8570000D01*
X44190000Y3370000D02*
X49330000Y3370000D01*
X49330000Y3370000D02*
X49330000Y8570000D01*
%TO.C,J19*%
X22590000Y3370000D02*
X22590000Y4700000D01*
X23920000Y3370000D02*
X22590000Y3370000D01*
X22590000Y5970000D02*
X22590000Y8570000D01*
X25190000Y5970000D02*
X22590000Y5970000D01*
X25190000Y3370000D02*
X25190000Y5970000D01*
X22590000Y8570000D02*
X30330000Y8570000D01*
X25190000Y3370000D02*
X30330000Y3370000D01*
X30330000Y3370000D02*
X30330000Y8570000D01*
%TO.C,J20*%
X3590000Y3370000D02*
X3590000Y4700000D01*
X4920000Y3370000D02*
X3590000Y3370000D01*
X3590000Y5970000D02*
X3590000Y8570000D01*
X6190000Y5970000D02*
X3590000Y5970000D01*
X6190000Y3370000D02*
X6190000Y5970000D01*
X3590000Y8570000D02*
X11330000Y8570000D01*
X6190000Y3370000D02*
X11330000Y3370000D01*
X11330000Y3370000D02*
X11330000Y8570000D01*
%TO.C,LED2*%
X347409202Y14223999D02*
G75*
G02X347409201Y11176001I2539998J-1523999D01*
G01*
%TO.C,LED3*%
X328409202Y14223999D02*
G75*
G02X328409201Y11176001I2539998J-1523999D01*
G01*
%TO.C,LED4*%
X309409202Y14223999D02*
G75*
G02X309409201Y11176001I2539998J-1523999D01*
G01*
%TO.C,LED5*%
X290409202Y14223999D02*
G75*
G02X290409201Y11176001I2539998J-1523999D01*
G01*
%TO.C,LED6*%
X271409202Y14223999D02*
G75*
G02X271409201Y11176001I2539998J-1523999D01*
G01*
%TO.C,LED7*%
X252409202Y14223999D02*
G75*
G02X252409201Y11176001I2539998J-1523999D01*
G01*
%TO.C,LED8*%
X233409202Y14223999D02*
G75*
G02X233409201Y11176001I2539998J-1523999D01*
G01*
%TO.C,LED9*%
X214409202Y14223999D02*
G75*
G02X214409201Y11176001I2539998J-1523999D01*
G01*
%TO.C,LED10*%
X195409202Y14223999D02*
G75*
G02X195409201Y11176001I2539998J-1523999D01*
G01*
%TO.C,LED11*%
X176409202Y14223999D02*
G75*
G02X176409201Y11176001I2539998J-1523999D01*
G01*
%TO.C,LED12*%
X157409202Y14223999D02*
G75*
G02X157409201Y11176001I2539998J-1523999D01*
G01*
%TO.C,LED13*%
X138409202Y14223999D02*
G75*
G02X138409201Y11176001I2539998J-1523999D01*
G01*
%TO.C,LED14*%
X119409202Y14223999D02*
G75*
G02X119409201Y11176001I2539998J-1523999D01*
G01*
%TO.C,LED15*%
X100409202Y14223999D02*
G75*
G02X100409201Y11176001I2539998J-1523999D01*
G01*
%TO.C,LED16*%
X81409202Y14223999D02*
G75*
G02X81409201Y11176001I2539998J-1523999D01*
G01*
%TO.C,LED17*%
X62409202Y14223999D02*
G75*
G02X62409201Y11176001I2539998J-1523999D01*
G01*
%TO.C,LED18*%
X43409202Y14223999D02*
G75*
G02X43409201Y11176001I2539998J-1523999D01*
G01*
%TO.C,LED19*%
X24409202Y14223999D02*
G75*
G02X24409201Y11176001I2539998J-1523999D01*
G01*
%TO.C,LED20*%
X5409202Y14223999D02*
G75*
G02X5409201Y11176001I2539998J-1523999D01*
G01*
%TO.C,C2*%
X18870000Y8000000D02*
G75*
G03X18870000Y8000000I-2620000J0D01*
G01*
X16250000Y10580000D02*
X16250000Y5420000D01*
X16290000Y10580000D02*
X16290000Y5420000D01*
X16330000Y10579000D02*
X16330000Y5421000D01*
X16370000Y10578000D02*
X16370000Y5422000D01*
X16410000Y10576000D02*
X16410000Y5424000D01*
X16450000Y10573000D02*
X16450000Y5427000D01*
X16490000Y10569000D02*
X16490000Y9040000D01*
X16490000Y6960000D02*
X16490000Y5431000D01*
X16530000Y10565000D02*
X16530000Y9040000D01*
X16530000Y6960000D02*
X16530000Y5435000D01*
X16570000Y10561000D02*
X16570000Y9040000D01*
X16570000Y6960000D02*
X16570000Y5439000D01*
X16610000Y10556000D02*
X16610000Y9040000D01*
X16610000Y6960000D02*
X16610000Y5444000D01*
X16650000Y10550000D02*
X16650000Y9040000D01*
X16650000Y6960000D02*
X16650000Y5450000D01*
X16690000Y10543000D02*
X16690000Y9040000D01*
X16690000Y6960000D02*
X16690000Y5457000D01*
X16730000Y10536000D02*
X16730000Y9040000D01*
X16730000Y6960000D02*
X16730000Y5464000D01*
X16770000Y10528000D02*
X16770000Y9040000D01*
X16770000Y6960000D02*
X16770000Y5472000D01*
X16810000Y10520000D02*
X16810000Y9040000D01*
X16810000Y6960000D02*
X16810000Y5480000D01*
X16850000Y10511000D02*
X16850000Y9040000D01*
X16850000Y6960000D02*
X16850000Y5489000D01*
X16890000Y10501000D02*
X16890000Y9040000D01*
X16890000Y6960000D02*
X16890000Y5499000D01*
X16930000Y10491000D02*
X16930000Y9040000D01*
X16930000Y6960000D02*
X16930000Y5509000D01*
X16971000Y10480000D02*
X16971000Y9040000D01*
X16971000Y6960000D02*
X16971000Y5520000D01*
X17011000Y10468000D02*
X17011000Y9040000D01*
X17011000Y6960000D02*
X17011000Y5532000D01*
X17051000Y10455000D02*
X17051000Y9040000D01*
X17051000Y6960000D02*
X17051000Y5545000D01*
X17091000Y10442000D02*
X17091000Y9040000D01*
X17091000Y6960000D02*
X17091000Y5558000D01*
X17131000Y10428000D02*
X17131000Y9040000D01*
X17131000Y6960000D02*
X17131000Y5572000D01*
X17171000Y10414000D02*
X17171000Y9040000D01*
X17171000Y6960000D02*
X17171000Y5586000D01*
X17211000Y10398000D02*
X17211000Y9040000D01*
X17211000Y6960000D02*
X17211000Y5602000D01*
X17251000Y10382000D02*
X17251000Y9040000D01*
X17251000Y6960000D02*
X17251000Y5618000D01*
X17291000Y10365000D02*
X17291000Y9040000D01*
X17291000Y6960000D02*
X17291000Y5635000D01*
X17331000Y10348000D02*
X17331000Y9040000D01*
X17331000Y6960000D02*
X17331000Y5652000D01*
X17371000Y10329000D02*
X17371000Y9040000D01*
X17371000Y6960000D02*
X17371000Y5671000D01*
X17411000Y10310000D02*
X17411000Y9040000D01*
X17411000Y6960000D02*
X17411000Y5690000D01*
X17451000Y10290000D02*
X17451000Y9040000D01*
X17451000Y6960000D02*
X17451000Y5710000D01*
X17491000Y10268000D02*
X17491000Y9040000D01*
X17491000Y6960000D02*
X17491000Y5732000D01*
X17531000Y10247000D02*
X17531000Y9040000D01*
X17531000Y6960000D02*
X17531000Y5753000D01*
X17571000Y10224000D02*
X17571000Y9040000D01*
X17571000Y6960000D02*
X17571000Y5776000D01*
X17611000Y10200000D02*
X17611000Y9040000D01*
X17611000Y6960000D02*
X17611000Y5800000D01*
X17651000Y10175000D02*
X17651000Y9040000D01*
X17651000Y6960000D02*
X17651000Y5825000D01*
X17691000Y10149000D02*
X17691000Y9040000D01*
X17691000Y6960000D02*
X17691000Y5851000D01*
X17731000Y10122000D02*
X17731000Y9040000D01*
X17731000Y6960000D02*
X17731000Y5878000D01*
X17771000Y10095000D02*
X17771000Y9040000D01*
X17771000Y6960000D02*
X17771000Y5905000D01*
X17811000Y10065000D02*
X17811000Y9040000D01*
X17811000Y6960000D02*
X17811000Y5935000D01*
X17851000Y10035000D02*
X17851000Y9040000D01*
X17851000Y6960000D02*
X17851000Y5965000D01*
X17891000Y10004000D02*
X17891000Y9040000D01*
X17891000Y6960000D02*
X17891000Y5996000D01*
X17931000Y9971000D02*
X17931000Y9040000D01*
X17931000Y6960000D02*
X17931000Y6029000D01*
X17971000Y9937000D02*
X17971000Y9040000D01*
X17971000Y6960000D02*
X17971000Y6063000D01*
X18011000Y9901000D02*
X18011000Y9040000D01*
X18011000Y6960000D02*
X18011000Y6099000D01*
X18051000Y9864000D02*
X18051000Y9040000D01*
X18051000Y6960000D02*
X18051000Y6136000D01*
X18091000Y9826000D02*
X18091000Y9040000D01*
X18091000Y6960000D02*
X18091000Y6174000D01*
X18131000Y9785000D02*
X18131000Y9040000D01*
X18131000Y6960000D02*
X18131000Y6215000D01*
X18171000Y9743000D02*
X18171000Y9040000D01*
X18171000Y6960000D02*
X18171000Y6257000D01*
X18211000Y9699000D02*
X18211000Y9040000D01*
X18211000Y6960000D02*
X18211000Y6301000D01*
X18251000Y9653000D02*
X18251000Y9040000D01*
X18251000Y6960000D02*
X18251000Y6347000D01*
X18291000Y9605000D02*
X18291000Y9040000D01*
X18291000Y6960000D02*
X18291000Y6395000D01*
X18331000Y9554000D02*
X18331000Y9040000D01*
X18331000Y6960000D02*
X18331000Y6446000D01*
X18371000Y9500000D02*
X18371000Y9040000D01*
X18371000Y6960000D02*
X18371000Y6500000D01*
X18411000Y9443000D02*
X18411000Y9040000D01*
X18411000Y6960000D02*
X18411000Y6557000D01*
X18451000Y9383000D02*
X18451000Y9040000D01*
X18451000Y6960000D02*
X18451000Y6617000D01*
X18491000Y9319000D02*
X18491000Y9040000D01*
X18491000Y6960000D02*
X18491000Y6681000D01*
X18531000Y9251000D02*
X18531000Y9040000D01*
X18531000Y6960000D02*
X18531000Y6749000D01*
X18571000Y9178000D02*
X18571000Y6822000D01*
X18611000Y9098000D02*
X18611000Y6902000D01*
X18651000Y9011000D02*
X18651000Y6989000D01*
X18691000Y8915000D02*
X18691000Y7085000D01*
X18731000Y8805000D02*
X18731000Y7195000D01*
X18771000Y8677000D02*
X18771000Y7323000D01*
X18811000Y8518000D02*
X18811000Y7482000D01*
X18851000Y8284000D02*
X18851000Y7716000D01*
X13445225Y9475000D02*
X13945225Y9475000D01*
X13695225Y9725000D02*
X13695225Y9225000D01*
%TO.C,D1*%
X31980000Y7070000D02*
X34220000Y7070000D01*
X34220000Y7070000D02*
X34220000Y11310000D01*
X34220000Y11310000D02*
X31980000Y11310000D01*
X31980000Y11310000D02*
X31980000Y7070000D01*
X33100000Y6420000D02*
X33100000Y7070000D01*
X33100000Y11960000D02*
X33100000Y11310000D01*
X31980000Y7790000D02*
X34220000Y7790000D01*
X31980000Y7910000D02*
X34220000Y7910000D01*
X31980000Y7670000D02*
X34220000Y7670000D01*
%TO.C,J23*%
X35670000Y4060000D02*
X38330000Y4060000D01*
X35670000Y4120000D02*
X35670000Y4060000D01*
X38330000Y4120000D02*
X38330000Y4060000D01*
X35670000Y4120000D02*
X38330000Y4120000D01*
X35670000Y5390000D02*
X35670000Y6720000D01*
X35670000Y6720000D02*
X37000000Y6720000D01*
%TO.C,C3*%
X113770000Y6925000D02*
G75*
G03X113770000Y6925000I-2620000J0D01*
G01*
X111150000Y9505000D02*
X111150000Y4345000D01*
X111190000Y9505000D02*
X111190000Y4345000D01*
X111230000Y9504000D02*
X111230000Y4346000D01*
X111270000Y9503000D02*
X111270000Y4347000D01*
X111310000Y9501000D02*
X111310000Y4349000D01*
X111350000Y9498000D02*
X111350000Y4352000D01*
X111390000Y9494000D02*
X111390000Y7965000D01*
X111390000Y5885000D02*
X111390000Y4356000D01*
X111430000Y9490000D02*
X111430000Y7965000D01*
X111430000Y5885000D02*
X111430000Y4360000D01*
X111470000Y9486000D02*
X111470000Y7965000D01*
X111470000Y5885000D02*
X111470000Y4364000D01*
X111510000Y9481000D02*
X111510000Y7965000D01*
X111510000Y5885000D02*
X111510000Y4369000D01*
X111550000Y9475000D02*
X111550000Y7965000D01*
X111550000Y5885000D02*
X111550000Y4375000D01*
X111590000Y9468000D02*
X111590000Y7965000D01*
X111590000Y5885000D02*
X111590000Y4382000D01*
X111630000Y9461000D02*
X111630000Y7965000D01*
X111630000Y5885000D02*
X111630000Y4389000D01*
X111670000Y9453000D02*
X111670000Y7965000D01*
X111670000Y5885000D02*
X111670000Y4397000D01*
X111710000Y9445000D02*
X111710000Y7965000D01*
X111710000Y5885000D02*
X111710000Y4405000D01*
X111750000Y9436000D02*
X111750000Y7965000D01*
X111750000Y5885000D02*
X111750000Y4414000D01*
X111790000Y9426000D02*
X111790000Y7965000D01*
X111790000Y5885000D02*
X111790000Y4424000D01*
X111830000Y9416000D02*
X111830000Y7965000D01*
X111830000Y5885000D02*
X111830000Y4434000D01*
X111871000Y9405000D02*
X111871000Y7965000D01*
X111871000Y5885000D02*
X111871000Y4445000D01*
X111911000Y9393000D02*
X111911000Y7965000D01*
X111911000Y5885000D02*
X111911000Y4457000D01*
X111951000Y9380000D02*
X111951000Y7965000D01*
X111951000Y5885000D02*
X111951000Y4470000D01*
X111991000Y9367000D02*
X111991000Y7965000D01*
X111991000Y5885000D02*
X111991000Y4483000D01*
X112031000Y9353000D02*
X112031000Y7965000D01*
X112031000Y5885000D02*
X112031000Y4497000D01*
X112071000Y9339000D02*
X112071000Y7965000D01*
X112071000Y5885000D02*
X112071000Y4511000D01*
X112111000Y9323000D02*
X112111000Y7965000D01*
X112111000Y5885000D02*
X112111000Y4527000D01*
X112151000Y9307000D02*
X112151000Y7965000D01*
X112151000Y5885000D02*
X112151000Y4543000D01*
X112191000Y9290000D02*
X112191000Y7965000D01*
X112191000Y5885000D02*
X112191000Y4560000D01*
X112231000Y9273000D02*
X112231000Y7965000D01*
X112231000Y5885000D02*
X112231000Y4577000D01*
X112271000Y9254000D02*
X112271000Y7965000D01*
X112271000Y5885000D02*
X112271000Y4596000D01*
X112311000Y9235000D02*
X112311000Y7965000D01*
X112311000Y5885000D02*
X112311000Y4615000D01*
X112351000Y9215000D02*
X112351000Y7965000D01*
X112351000Y5885000D02*
X112351000Y4635000D01*
X112391000Y9193000D02*
X112391000Y7965000D01*
X112391000Y5885000D02*
X112391000Y4657000D01*
X112431000Y9172000D02*
X112431000Y7965000D01*
X112431000Y5885000D02*
X112431000Y4678000D01*
X112471000Y9149000D02*
X112471000Y7965000D01*
X112471000Y5885000D02*
X112471000Y4701000D01*
X112511000Y9125000D02*
X112511000Y7965000D01*
X112511000Y5885000D02*
X112511000Y4725000D01*
X112551000Y9100000D02*
X112551000Y7965000D01*
X112551000Y5885000D02*
X112551000Y4750000D01*
X112591000Y9074000D02*
X112591000Y7965000D01*
X112591000Y5885000D02*
X112591000Y4776000D01*
X112631000Y9047000D02*
X112631000Y7965000D01*
X112631000Y5885000D02*
X112631000Y4803000D01*
X112671000Y9020000D02*
X112671000Y7965000D01*
X112671000Y5885000D02*
X112671000Y4830000D01*
X112711000Y8990000D02*
X112711000Y7965000D01*
X112711000Y5885000D02*
X112711000Y4860000D01*
X112751000Y8960000D02*
X112751000Y7965000D01*
X112751000Y5885000D02*
X112751000Y4890000D01*
X112791000Y8929000D02*
X112791000Y7965000D01*
X112791000Y5885000D02*
X112791000Y4921000D01*
X112831000Y8896000D02*
X112831000Y7965000D01*
X112831000Y5885000D02*
X112831000Y4954000D01*
X112871000Y8862000D02*
X112871000Y7965000D01*
X112871000Y5885000D02*
X112871000Y4988000D01*
X112911000Y8826000D02*
X112911000Y7965000D01*
X112911000Y5885000D02*
X112911000Y5024000D01*
X112951000Y8789000D02*
X112951000Y7965000D01*
X112951000Y5885000D02*
X112951000Y5061000D01*
X112991000Y8751000D02*
X112991000Y7965000D01*
X112991000Y5885000D02*
X112991000Y5099000D01*
X113031000Y8710000D02*
X113031000Y7965000D01*
X113031000Y5885000D02*
X113031000Y5140000D01*
X113071000Y8668000D02*
X113071000Y7965000D01*
X113071000Y5885000D02*
X113071000Y5182000D01*
X113111000Y8624000D02*
X113111000Y7965000D01*
X113111000Y5885000D02*
X113111000Y5226000D01*
X113151000Y8578000D02*
X113151000Y7965000D01*
X113151000Y5885000D02*
X113151000Y5272000D01*
X113191000Y8530000D02*
X113191000Y7965000D01*
X113191000Y5885000D02*
X113191000Y5320000D01*
X113231000Y8479000D02*
X113231000Y7965000D01*
X113231000Y5885000D02*
X113231000Y5371000D01*
X113271000Y8425000D02*
X113271000Y7965000D01*
X113271000Y5885000D02*
X113271000Y5425000D01*
X113311000Y8368000D02*
X113311000Y7965000D01*
X113311000Y5885000D02*
X113311000Y5482000D01*
X113351000Y8308000D02*
X113351000Y7965000D01*
X113351000Y5885000D02*
X113351000Y5542000D01*
X113391000Y8244000D02*
X113391000Y7965000D01*
X113391000Y5885000D02*
X113391000Y5606000D01*
X113431000Y8176000D02*
X113431000Y7965000D01*
X113431000Y5885000D02*
X113431000Y5674000D01*
X113471000Y8103000D02*
X113471000Y5747000D01*
X113511000Y8023000D02*
X113511000Y5827000D01*
X113551000Y7936000D02*
X113551000Y5914000D01*
X113591000Y7840000D02*
X113591000Y6010000D01*
X113631000Y7730000D02*
X113631000Y6120000D01*
X113671000Y7602000D02*
X113671000Y6248000D01*
X113711000Y7443000D02*
X113711000Y6407000D01*
X113751000Y7209000D02*
X113751000Y6641000D01*
X108345225Y8400000D02*
X108845225Y8400000D01*
X108595225Y8650000D02*
X108595225Y8150000D01*
%TO.C,C4*%
X89230000Y5120000D02*
X96970000Y5120000D01*
X89230000Y2380000D02*
X96970000Y2380000D01*
X89230000Y5120000D02*
X89230000Y2380000D01*
X96970000Y5120000D02*
X96970000Y2380000D01*
%TO.C,R29*%
X89230000Y8030000D02*
X89230000Y5370000D01*
X94370000Y8030000D02*
X89230000Y8030000D01*
X94370000Y5370000D02*
X89230000Y5370000D01*
X94370000Y8030000D02*
X94370000Y5370000D01*
X95640000Y8030000D02*
X96970000Y8030000D01*
X96970000Y8030000D02*
X96970000Y6700000D01*
%TO.C,U2*%
X98170000Y12090000D02*
G75*
G02X98170000Y14090000I0J1000000D01*
G01*
X98170000Y14090000D02*
X98170000Y15740000D01*
X98170000Y15740000D02*
X87890000Y15740000D01*
X87890000Y15740000D02*
X87890000Y10440000D01*
X87890000Y10440000D02*
X98170000Y10440000D01*
X98170000Y10440000D02*
X98170000Y12090000D01*
%TO.C,C5*%
X134192000Y14244000D02*
G75*
G03X134192000Y14244000I-2620000J0D01*
G01*
X134152000Y14244000D02*
X128992000Y14244000D01*
X134152000Y14204000D02*
X128992000Y14204000D01*
X134151000Y14164000D02*
X128993000Y14164000D01*
X134150000Y14124000D02*
X128994000Y14124000D01*
X134148000Y14084000D02*
X128996000Y14084000D01*
X134145000Y14044000D02*
X128999000Y14044000D01*
X134141000Y14004000D02*
X132612000Y14004000D01*
X130532000Y14004000D02*
X129003000Y14004000D01*
X134137000Y13964000D02*
X132612000Y13964000D01*
X130532000Y13964000D02*
X129007000Y13964000D01*
X134133000Y13924000D02*
X132612000Y13924000D01*
X130532000Y13924000D02*
X129011000Y13924000D01*
X134128000Y13884000D02*
X132612000Y13884000D01*
X130532000Y13884000D02*
X129016000Y13884000D01*
X134122000Y13844000D02*
X132612000Y13844000D01*
X130532000Y13844000D02*
X129022000Y13844000D01*
X134115000Y13804000D02*
X132612000Y13804000D01*
X130532000Y13804000D02*
X129029000Y13804000D01*
X134108000Y13764000D02*
X132612000Y13764000D01*
X130532000Y13764000D02*
X129036000Y13764000D01*
X134100000Y13724000D02*
X132612000Y13724000D01*
X130532000Y13724000D02*
X129044000Y13724000D01*
X134092000Y13684000D02*
X132612000Y13684000D01*
X130532000Y13684000D02*
X129052000Y13684000D01*
X134083000Y13644000D02*
X132612000Y13644000D01*
X130532000Y13644000D02*
X129061000Y13644000D01*
X134073000Y13604000D02*
X132612000Y13604000D01*
X130532000Y13604000D02*
X129071000Y13604000D01*
X134063000Y13564000D02*
X132612000Y13564000D01*
X130532000Y13564000D02*
X129081000Y13564000D01*
X134052000Y13523000D02*
X132612000Y13523000D01*
X130532000Y13523000D02*
X129092000Y13523000D01*
X134040000Y13483000D02*
X132612000Y13483000D01*
X130532000Y13483000D02*
X129104000Y13483000D01*
X134027000Y13443000D02*
X132612000Y13443000D01*
X130532000Y13443000D02*
X129117000Y13443000D01*
X134014000Y13403000D02*
X132612000Y13403000D01*
X130532000Y13403000D02*
X129130000Y13403000D01*
X134000000Y13363000D02*
X132612000Y13363000D01*
X130532000Y13363000D02*
X129144000Y13363000D01*
X133986000Y13323000D02*
X132612000Y13323000D01*
X130532000Y13323000D02*
X129158000Y13323000D01*
X133970000Y13283000D02*
X132612000Y13283000D01*
X130532000Y13283000D02*
X129174000Y13283000D01*
X133954000Y13243000D02*
X132612000Y13243000D01*
X130532000Y13243000D02*
X129190000Y13243000D01*
X133937000Y13203000D02*
X132612000Y13203000D01*
X130532000Y13203000D02*
X129207000Y13203000D01*
X133920000Y13163000D02*
X132612000Y13163000D01*
X130532000Y13163000D02*
X129224000Y13163000D01*
X133901000Y13123000D02*
X132612000Y13123000D01*
X130532000Y13123000D02*
X129243000Y13123000D01*
X133882000Y13083000D02*
X132612000Y13083000D01*
X130532000Y13083000D02*
X129262000Y13083000D01*
X133862000Y13043000D02*
X132612000Y13043000D01*
X130532000Y13043000D02*
X129282000Y13043000D01*
X133840000Y13003000D02*
X132612000Y13003000D01*
X130532000Y13003000D02*
X129304000Y13003000D01*
X133819000Y12963000D02*
X132612000Y12963000D01*
X130532000Y12963000D02*
X129325000Y12963000D01*
X133796000Y12923000D02*
X132612000Y12923000D01*
X130532000Y12923000D02*
X129348000Y12923000D01*
X133772000Y12883000D02*
X132612000Y12883000D01*
X130532000Y12883000D02*
X129372000Y12883000D01*
X133747000Y12843000D02*
X132612000Y12843000D01*
X130532000Y12843000D02*
X129397000Y12843000D01*
X133721000Y12803000D02*
X132612000Y12803000D01*
X130532000Y12803000D02*
X129423000Y12803000D01*
X133694000Y12763000D02*
X132612000Y12763000D01*
X130532000Y12763000D02*
X129450000Y12763000D01*
X133667000Y12723000D02*
X132612000Y12723000D01*
X130532000Y12723000D02*
X129477000Y12723000D01*
X133637000Y12683000D02*
X132612000Y12683000D01*
X130532000Y12683000D02*
X129507000Y12683000D01*
X133607000Y12643000D02*
X132612000Y12643000D01*
X130532000Y12643000D02*
X129537000Y12643000D01*
X133576000Y12603000D02*
X132612000Y12603000D01*
X130532000Y12603000D02*
X129568000Y12603000D01*
X133543000Y12563000D02*
X132612000Y12563000D01*
X130532000Y12563000D02*
X129601000Y12563000D01*
X133509000Y12523000D02*
X132612000Y12523000D01*
X130532000Y12523000D02*
X129635000Y12523000D01*
X133473000Y12483000D02*
X132612000Y12483000D01*
X130532000Y12483000D02*
X129671000Y12483000D01*
X133436000Y12443000D02*
X132612000Y12443000D01*
X130532000Y12443000D02*
X129708000Y12443000D01*
X133398000Y12403000D02*
X132612000Y12403000D01*
X130532000Y12403000D02*
X129746000Y12403000D01*
X133357000Y12363000D02*
X132612000Y12363000D01*
X130532000Y12363000D02*
X129787000Y12363000D01*
X133315000Y12323000D02*
X132612000Y12323000D01*
X130532000Y12323000D02*
X129829000Y12323000D01*
X133271000Y12283000D02*
X132612000Y12283000D01*
X130532000Y12283000D02*
X129873000Y12283000D01*
X133225000Y12243000D02*
X132612000Y12243000D01*
X130532000Y12243000D02*
X129919000Y12243000D01*
X133177000Y12203000D02*
X132612000Y12203000D01*
X130532000Y12203000D02*
X129967000Y12203000D01*
X133126000Y12163000D02*
X132612000Y12163000D01*
X130532000Y12163000D02*
X130018000Y12163000D01*
X133072000Y12123000D02*
X132612000Y12123000D01*
X130532000Y12123000D02*
X130072000Y12123000D01*
X133015000Y12083000D02*
X132612000Y12083000D01*
X130532000Y12083000D02*
X130129000Y12083000D01*
X132955000Y12043000D02*
X132612000Y12043000D01*
X130532000Y12043000D02*
X130189000Y12043000D01*
X132891000Y12003000D02*
X132612000Y12003000D01*
X130532000Y12003000D02*
X130253000Y12003000D01*
X132823000Y11963000D02*
X132612000Y11963000D01*
X130532000Y11963000D02*
X130321000Y11963000D01*
X132750000Y11923000D02*
X130394000Y11923000D01*
X132670000Y11883000D02*
X130474000Y11883000D01*
X132583000Y11843000D02*
X130561000Y11843000D01*
X132487000Y11803000D02*
X130657000Y11803000D01*
X132377000Y11763000D02*
X130767000Y11763000D01*
X132249000Y11723000D02*
X130895000Y11723000D01*
X132090000Y11683000D02*
X131054000Y11683000D01*
X131856000Y11643000D02*
X131288000Y11643000D01*
X133047000Y17048775D02*
X133047000Y16548775D01*
X133297000Y16798775D02*
X132797000Y16798775D01*
%TO.C,C6*%
X134750000Y8375000D02*
G75*
G03X134750000Y8375000I-2620000J0D01*
G01*
X134710000Y8375000D02*
X129550000Y8375000D01*
X134710000Y8335000D02*
X129550000Y8335000D01*
X134709000Y8295000D02*
X129551000Y8295000D01*
X134708000Y8255000D02*
X129552000Y8255000D01*
X134706000Y8215000D02*
X129554000Y8215000D01*
X134703000Y8175000D02*
X129557000Y8175000D01*
X134699000Y8135000D02*
X133170000Y8135000D01*
X131090000Y8135000D02*
X129561000Y8135000D01*
X134695000Y8095000D02*
X133170000Y8095000D01*
X131090000Y8095000D02*
X129565000Y8095000D01*
X134691000Y8055000D02*
X133170000Y8055000D01*
X131090000Y8055000D02*
X129569000Y8055000D01*
X134686000Y8015000D02*
X133170000Y8015000D01*
X131090000Y8015000D02*
X129574000Y8015000D01*
X134680000Y7975000D02*
X133170000Y7975000D01*
X131090000Y7975000D02*
X129580000Y7975000D01*
X134673000Y7935000D02*
X133170000Y7935000D01*
X131090000Y7935000D02*
X129587000Y7935000D01*
X134666000Y7895000D02*
X133170000Y7895000D01*
X131090000Y7895000D02*
X129594000Y7895000D01*
X134658000Y7855000D02*
X133170000Y7855000D01*
X131090000Y7855000D02*
X129602000Y7855000D01*
X134650000Y7815000D02*
X133170000Y7815000D01*
X131090000Y7815000D02*
X129610000Y7815000D01*
X134641000Y7775000D02*
X133170000Y7775000D01*
X131090000Y7775000D02*
X129619000Y7775000D01*
X134631000Y7735000D02*
X133170000Y7735000D01*
X131090000Y7735000D02*
X129629000Y7735000D01*
X134621000Y7695000D02*
X133170000Y7695000D01*
X131090000Y7695000D02*
X129639000Y7695000D01*
X134610000Y7654000D02*
X133170000Y7654000D01*
X131090000Y7654000D02*
X129650000Y7654000D01*
X134598000Y7614000D02*
X133170000Y7614000D01*
X131090000Y7614000D02*
X129662000Y7614000D01*
X134585000Y7574000D02*
X133170000Y7574000D01*
X131090000Y7574000D02*
X129675000Y7574000D01*
X134572000Y7534000D02*
X133170000Y7534000D01*
X131090000Y7534000D02*
X129688000Y7534000D01*
X134558000Y7494000D02*
X133170000Y7494000D01*
X131090000Y7494000D02*
X129702000Y7494000D01*
X134544000Y7454000D02*
X133170000Y7454000D01*
X131090000Y7454000D02*
X129716000Y7454000D01*
X134528000Y7414000D02*
X133170000Y7414000D01*
X131090000Y7414000D02*
X129732000Y7414000D01*
X134512000Y7374000D02*
X133170000Y7374000D01*
X131090000Y7374000D02*
X129748000Y7374000D01*
X134495000Y7334000D02*
X133170000Y7334000D01*
X131090000Y7334000D02*
X129765000Y7334000D01*
X134478000Y7294000D02*
X133170000Y7294000D01*
X131090000Y7294000D02*
X129782000Y7294000D01*
X134459000Y7254000D02*
X133170000Y7254000D01*
X131090000Y7254000D02*
X129801000Y7254000D01*
X134440000Y7214000D02*
X133170000Y7214000D01*
X131090000Y7214000D02*
X129820000Y7214000D01*
X134420000Y7174000D02*
X133170000Y7174000D01*
X131090000Y7174000D02*
X129840000Y7174000D01*
X134398000Y7134000D02*
X133170000Y7134000D01*
X131090000Y7134000D02*
X129862000Y7134000D01*
X134377000Y7094000D02*
X133170000Y7094000D01*
X131090000Y7094000D02*
X129883000Y7094000D01*
X134354000Y7054000D02*
X133170000Y7054000D01*
X131090000Y7054000D02*
X129906000Y7054000D01*
X134330000Y7014000D02*
X133170000Y7014000D01*
X131090000Y7014000D02*
X129930000Y7014000D01*
X134305000Y6974000D02*
X133170000Y6974000D01*
X131090000Y6974000D02*
X129955000Y6974000D01*
X134279000Y6934000D02*
X133170000Y6934000D01*
X131090000Y6934000D02*
X129981000Y6934000D01*
X134252000Y6894000D02*
X133170000Y6894000D01*
X131090000Y6894000D02*
X130008000Y6894000D01*
X134225000Y6854000D02*
X133170000Y6854000D01*
X131090000Y6854000D02*
X130035000Y6854000D01*
X134195000Y6814000D02*
X133170000Y6814000D01*
X131090000Y6814000D02*
X130065000Y6814000D01*
X134165000Y6774000D02*
X133170000Y6774000D01*
X131090000Y6774000D02*
X130095000Y6774000D01*
X134134000Y6734000D02*
X133170000Y6734000D01*
X131090000Y6734000D02*
X130126000Y6734000D01*
X134101000Y6694000D02*
X133170000Y6694000D01*
X131090000Y6694000D02*
X130159000Y6694000D01*
X134067000Y6654000D02*
X133170000Y6654000D01*
X131090000Y6654000D02*
X130193000Y6654000D01*
X134031000Y6614000D02*
X133170000Y6614000D01*
X131090000Y6614000D02*
X130229000Y6614000D01*
X133994000Y6574000D02*
X133170000Y6574000D01*
X131090000Y6574000D02*
X130266000Y6574000D01*
X133956000Y6534000D02*
X133170000Y6534000D01*
X131090000Y6534000D02*
X130304000Y6534000D01*
X133915000Y6494000D02*
X133170000Y6494000D01*
X131090000Y6494000D02*
X130345000Y6494000D01*
X133873000Y6454000D02*
X133170000Y6454000D01*
X131090000Y6454000D02*
X130387000Y6454000D01*
X133829000Y6414000D02*
X133170000Y6414000D01*
X131090000Y6414000D02*
X130431000Y6414000D01*
X133783000Y6374000D02*
X133170000Y6374000D01*
X131090000Y6374000D02*
X130477000Y6374000D01*
X133735000Y6334000D02*
X133170000Y6334000D01*
X131090000Y6334000D02*
X130525000Y6334000D01*
X133684000Y6294000D02*
X133170000Y6294000D01*
X131090000Y6294000D02*
X130576000Y6294000D01*
X133630000Y6254000D02*
X133170000Y6254000D01*
X131090000Y6254000D02*
X130630000Y6254000D01*
X133573000Y6214000D02*
X133170000Y6214000D01*
X131090000Y6214000D02*
X130687000Y6214000D01*
X133513000Y6174000D02*
X133170000Y6174000D01*
X131090000Y6174000D02*
X130747000Y6174000D01*
X133449000Y6134000D02*
X133170000Y6134000D01*
X131090000Y6134000D02*
X130811000Y6134000D01*
X133381000Y6094000D02*
X133170000Y6094000D01*
X131090000Y6094000D02*
X130879000Y6094000D01*
X133308000Y6054000D02*
X130952000Y6054000D01*
X133228000Y6014000D02*
X131032000Y6014000D01*
X133141000Y5974000D02*
X131119000Y5974000D01*
X133045000Y5934000D02*
X131215000Y5934000D01*
X132935000Y5894000D02*
X131325000Y5894000D01*
X132807000Y5854000D02*
X131453000Y5854000D01*
X132648000Y5814000D02*
X131612000Y5814000D01*
X132414000Y5774000D02*
X131846000Y5774000D01*
X133605000Y11179775D02*
X133605000Y10679775D01*
X133855000Y10929775D02*
X133355000Y10929775D01*
%TO.C,C7*%
X134195000Y2580000D02*
X126455000Y2580000D01*
X134195000Y5320000D02*
X126455000Y5320000D01*
X134195000Y2580000D02*
X134195000Y5320000D01*
X126455000Y2580000D02*
X126455000Y5320000D01*
%TO.C,C8*%
X152504775Y13775000D02*
X152504775Y14275000D01*
X152754775Y14025000D02*
X152254775Y14025000D01*
X147349000Y15216000D02*
X147349000Y15784000D01*
X147389000Y14982000D02*
X147389000Y16018000D01*
X147429000Y14823000D02*
X147429000Y16177000D01*
X147469000Y14695000D02*
X147469000Y16305000D01*
X147509000Y14585000D02*
X147509000Y16415000D01*
X147549000Y14489000D02*
X147549000Y16511000D01*
X147589000Y14402000D02*
X147589000Y16598000D01*
X147629000Y14322000D02*
X147629000Y16678000D01*
X147669000Y16540000D02*
X147669000Y16751000D01*
X147669000Y14249000D02*
X147669000Y14460000D01*
X147709000Y16540000D02*
X147709000Y16819000D01*
X147709000Y14181000D02*
X147709000Y14460000D01*
X147749000Y16540000D02*
X147749000Y16883000D01*
X147749000Y14117000D02*
X147749000Y14460000D01*
X147789000Y16540000D02*
X147789000Y16943000D01*
X147789000Y14057000D02*
X147789000Y14460000D01*
X147829000Y16540000D02*
X147829000Y17000000D01*
X147829000Y14000000D02*
X147829000Y14460000D01*
X147869000Y16540000D02*
X147869000Y17054000D01*
X147869000Y13946000D02*
X147869000Y14460000D01*
X147909000Y16540000D02*
X147909000Y17105000D01*
X147909000Y13895000D02*
X147909000Y14460000D01*
X147949000Y16540000D02*
X147949000Y17153000D01*
X147949000Y13847000D02*
X147949000Y14460000D01*
X147989000Y16540000D02*
X147989000Y17199000D01*
X147989000Y13801000D02*
X147989000Y14460000D01*
X148029000Y16540000D02*
X148029000Y17243000D01*
X148029000Y13757000D02*
X148029000Y14460000D01*
X148069000Y16540000D02*
X148069000Y17285000D01*
X148069000Y13715000D02*
X148069000Y14460000D01*
X148109000Y16540000D02*
X148109000Y17326000D01*
X148109000Y13674000D02*
X148109000Y14460000D01*
X148149000Y16540000D02*
X148149000Y17364000D01*
X148149000Y13636000D02*
X148149000Y14460000D01*
X148189000Y16540000D02*
X148189000Y17401000D01*
X148189000Y13599000D02*
X148189000Y14460000D01*
X148229000Y16540000D02*
X148229000Y17437000D01*
X148229000Y13563000D02*
X148229000Y14460000D01*
X148269000Y16540000D02*
X148269000Y17471000D01*
X148269000Y13529000D02*
X148269000Y14460000D01*
X148309000Y16540000D02*
X148309000Y17504000D01*
X148309000Y13496000D02*
X148309000Y14460000D01*
X148349000Y16540000D02*
X148349000Y17535000D01*
X148349000Y13465000D02*
X148349000Y14460000D01*
X148389000Y16540000D02*
X148389000Y17565000D01*
X148389000Y13435000D02*
X148389000Y14460000D01*
X148429000Y16540000D02*
X148429000Y17595000D01*
X148429000Y13405000D02*
X148429000Y14460000D01*
X148469000Y16540000D02*
X148469000Y17622000D01*
X148469000Y13378000D02*
X148469000Y14460000D01*
X148509000Y16540000D02*
X148509000Y17649000D01*
X148509000Y13351000D02*
X148509000Y14460000D01*
X148549000Y16540000D02*
X148549000Y17675000D01*
X148549000Y13325000D02*
X148549000Y14460000D01*
X148589000Y16540000D02*
X148589000Y17700000D01*
X148589000Y13300000D02*
X148589000Y14460000D01*
X148629000Y16540000D02*
X148629000Y17724000D01*
X148629000Y13276000D02*
X148629000Y14460000D01*
X148669000Y16540000D02*
X148669000Y17747000D01*
X148669000Y13253000D02*
X148669000Y14460000D01*
X148709000Y16540000D02*
X148709000Y17768000D01*
X148709000Y13232000D02*
X148709000Y14460000D01*
X148749000Y16540000D02*
X148749000Y17790000D01*
X148749000Y13210000D02*
X148749000Y14460000D01*
X148789000Y16540000D02*
X148789000Y17810000D01*
X148789000Y13190000D02*
X148789000Y14460000D01*
X148829000Y16540000D02*
X148829000Y17829000D01*
X148829000Y13171000D02*
X148829000Y14460000D01*
X148869000Y16540000D02*
X148869000Y17848000D01*
X148869000Y13152000D02*
X148869000Y14460000D01*
X148909000Y16540000D02*
X148909000Y17865000D01*
X148909000Y13135000D02*
X148909000Y14460000D01*
X148949000Y16540000D02*
X148949000Y17882000D01*
X148949000Y13118000D02*
X148949000Y14460000D01*
X148989000Y16540000D02*
X148989000Y17898000D01*
X148989000Y13102000D02*
X148989000Y14460000D01*
X149029000Y16540000D02*
X149029000Y17914000D01*
X149029000Y13086000D02*
X149029000Y14460000D01*
X149069000Y16540000D02*
X149069000Y17928000D01*
X149069000Y13072000D02*
X149069000Y14460000D01*
X149109000Y16540000D02*
X149109000Y17942000D01*
X149109000Y13058000D02*
X149109000Y14460000D01*
X149149000Y16540000D02*
X149149000Y17955000D01*
X149149000Y13045000D02*
X149149000Y14460000D01*
X149189000Y16540000D02*
X149189000Y17968000D01*
X149189000Y13032000D02*
X149189000Y14460000D01*
X149229000Y16540000D02*
X149229000Y17980000D01*
X149229000Y13020000D02*
X149229000Y14460000D01*
X149270000Y16540000D02*
X149270000Y17991000D01*
X149270000Y13009000D02*
X149270000Y14460000D01*
X149310000Y16540000D02*
X149310000Y18001000D01*
X149310000Y12999000D02*
X149310000Y14460000D01*
X149350000Y16540000D02*
X149350000Y18011000D01*
X149350000Y12989000D02*
X149350000Y14460000D01*
X149390000Y16540000D02*
X149390000Y18020000D01*
X149390000Y12980000D02*
X149390000Y14460000D01*
X149430000Y16540000D02*
X149430000Y18028000D01*
X149430000Y12972000D02*
X149430000Y14460000D01*
X149470000Y16540000D02*
X149470000Y18036000D01*
X149470000Y12964000D02*
X149470000Y14460000D01*
X149510000Y16540000D02*
X149510000Y18043000D01*
X149510000Y12957000D02*
X149510000Y14460000D01*
X149550000Y16540000D02*
X149550000Y18050000D01*
X149550000Y12950000D02*
X149550000Y14460000D01*
X149590000Y16540000D02*
X149590000Y18056000D01*
X149590000Y12944000D02*
X149590000Y14460000D01*
X149630000Y16540000D02*
X149630000Y18061000D01*
X149630000Y12939000D02*
X149630000Y14460000D01*
X149670000Y16540000D02*
X149670000Y18065000D01*
X149670000Y12935000D02*
X149670000Y14460000D01*
X149710000Y16540000D02*
X149710000Y18069000D01*
X149710000Y12931000D02*
X149710000Y14460000D01*
X149750000Y12927000D02*
X149750000Y18073000D01*
X149790000Y12924000D02*
X149790000Y18076000D01*
X149830000Y12922000D02*
X149830000Y18078000D01*
X149870000Y12921000D02*
X149870000Y18079000D01*
X149910000Y12920000D02*
X149910000Y18080000D01*
X149950000Y12920000D02*
X149950000Y18080000D01*
X152570000Y15500000D02*
G75*
G03X152570000Y15500000I-2620000J0D01*
G01*
%TO.C,C9*%
X227125000Y17904775D02*
X226625000Y17904775D01*
X226875000Y18154775D02*
X226875000Y17654775D01*
X225684000Y12749000D02*
X225116000Y12749000D01*
X225918000Y12789000D02*
X224882000Y12789000D01*
X226077000Y12829000D02*
X224723000Y12829000D01*
X226205000Y12869000D02*
X224595000Y12869000D01*
X226315000Y12909000D02*
X224485000Y12909000D01*
X226411000Y12949000D02*
X224389000Y12949000D01*
X226498000Y12989000D02*
X224302000Y12989000D01*
X226578000Y13029000D02*
X224222000Y13029000D01*
X224360000Y13069000D02*
X224149000Y13069000D01*
X226651000Y13069000D02*
X226440000Y13069000D01*
X224360000Y13109000D02*
X224081000Y13109000D01*
X226719000Y13109000D02*
X226440000Y13109000D01*
X224360000Y13149000D02*
X224017000Y13149000D01*
X226783000Y13149000D02*
X226440000Y13149000D01*
X224360000Y13189000D02*
X223957000Y13189000D01*
X226843000Y13189000D02*
X226440000Y13189000D01*
X224360000Y13229000D02*
X223900000Y13229000D01*
X226900000Y13229000D02*
X226440000Y13229000D01*
X224360000Y13269000D02*
X223846000Y13269000D01*
X226954000Y13269000D02*
X226440000Y13269000D01*
X224360000Y13309000D02*
X223795000Y13309000D01*
X227005000Y13309000D02*
X226440000Y13309000D01*
X224360000Y13349000D02*
X223747000Y13349000D01*
X227053000Y13349000D02*
X226440000Y13349000D01*
X224360000Y13389000D02*
X223701000Y13389000D01*
X227099000Y13389000D02*
X226440000Y13389000D01*
X224360000Y13429000D02*
X223657000Y13429000D01*
X227143000Y13429000D02*
X226440000Y13429000D01*
X224360000Y13469000D02*
X223615000Y13469000D01*
X227185000Y13469000D02*
X226440000Y13469000D01*
X224360000Y13509000D02*
X223574000Y13509000D01*
X227226000Y13509000D02*
X226440000Y13509000D01*
X224360000Y13549000D02*
X223536000Y13549000D01*
X227264000Y13549000D02*
X226440000Y13549000D01*
X224360000Y13589000D02*
X223499000Y13589000D01*
X227301000Y13589000D02*
X226440000Y13589000D01*
X224360000Y13629000D02*
X223463000Y13629000D01*
X227337000Y13629000D02*
X226440000Y13629000D01*
X224360000Y13669000D02*
X223429000Y13669000D01*
X227371000Y13669000D02*
X226440000Y13669000D01*
X224360000Y13709000D02*
X223396000Y13709000D01*
X227404000Y13709000D02*
X226440000Y13709000D01*
X224360000Y13749000D02*
X223365000Y13749000D01*
X227435000Y13749000D02*
X226440000Y13749000D01*
X224360000Y13789000D02*
X223335000Y13789000D01*
X227465000Y13789000D02*
X226440000Y13789000D01*
X224360000Y13829000D02*
X223305000Y13829000D01*
X227495000Y13829000D02*
X226440000Y13829000D01*
X224360000Y13869000D02*
X223278000Y13869000D01*
X227522000Y13869000D02*
X226440000Y13869000D01*
X224360000Y13909000D02*
X223251000Y13909000D01*
X227549000Y13909000D02*
X226440000Y13909000D01*
X224360000Y13949000D02*
X223225000Y13949000D01*
X227575000Y13949000D02*
X226440000Y13949000D01*
X224360000Y13989000D02*
X223200000Y13989000D01*
X227600000Y13989000D02*
X226440000Y13989000D01*
X224360000Y14029000D02*
X223176000Y14029000D01*
X227624000Y14029000D02*
X226440000Y14029000D01*
X224360000Y14069000D02*
X223153000Y14069000D01*
X227647000Y14069000D02*
X226440000Y14069000D01*
X224360000Y14109000D02*
X223132000Y14109000D01*
X227668000Y14109000D02*
X226440000Y14109000D01*
X224360000Y14149000D02*
X223110000Y14149000D01*
X227690000Y14149000D02*
X226440000Y14149000D01*
X224360000Y14189000D02*
X223090000Y14189000D01*
X227710000Y14189000D02*
X226440000Y14189000D01*
X224360000Y14229000D02*
X223071000Y14229000D01*
X227729000Y14229000D02*
X226440000Y14229000D01*
X224360000Y14269000D02*
X223052000Y14269000D01*
X227748000Y14269000D02*
X226440000Y14269000D01*
X224360000Y14309000D02*
X223035000Y14309000D01*
X227765000Y14309000D02*
X226440000Y14309000D01*
X224360000Y14349000D02*
X223018000Y14349000D01*
X227782000Y14349000D02*
X226440000Y14349000D01*
X224360000Y14389000D02*
X223002000Y14389000D01*
X227798000Y14389000D02*
X226440000Y14389000D01*
X224360000Y14429000D02*
X222986000Y14429000D01*
X227814000Y14429000D02*
X226440000Y14429000D01*
X224360000Y14469000D02*
X222972000Y14469000D01*
X227828000Y14469000D02*
X226440000Y14469000D01*
X224360000Y14509000D02*
X222958000Y14509000D01*
X227842000Y14509000D02*
X226440000Y14509000D01*
X224360000Y14549000D02*
X222945000Y14549000D01*
X227855000Y14549000D02*
X226440000Y14549000D01*
X224360000Y14589000D02*
X222932000Y14589000D01*
X227868000Y14589000D02*
X226440000Y14589000D01*
X224360000Y14629000D02*
X222920000Y14629000D01*
X227880000Y14629000D02*
X226440000Y14629000D01*
X224360000Y14670000D02*
X222909000Y14670000D01*
X227891000Y14670000D02*
X226440000Y14670000D01*
X224360000Y14710000D02*
X222899000Y14710000D01*
X227901000Y14710000D02*
X226440000Y14710000D01*
X224360000Y14750000D02*
X222889000Y14750000D01*
X227911000Y14750000D02*
X226440000Y14750000D01*
X224360000Y14790000D02*
X222880000Y14790000D01*
X227920000Y14790000D02*
X226440000Y14790000D01*
X224360000Y14830000D02*
X222872000Y14830000D01*
X227928000Y14830000D02*
X226440000Y14830000D01*
X224360000Y14870000D02*
X222864000Y14870000D01*
X227936000Y14870000D02*
X226440000Y14870000D01*
X224360000Y14910000D02*
X222857000Y14910000D01*
X227943000Y14910000D02*
X226440000Y14910000D01*
X224360000Y14950000D02*
X222850000Y14950000D01*
X227950000Y14950000D02*
X226440000Y14950000D01*
X224360000Y14990000D02*
X222844000Y14990000D01*
X227956000Y14990000D02*
X226440000Y14990000D01*
X224360000Y15030000D02*
X222839000Y15030000D01*
X227961000Y15030000D02*
X226440000Y15030000D01*
X224360000Y15070000D02*
X222835000Y15070000D01*
X227965000Y15070000D02*
X226440000Y15070000D01*
X224360000Y15110000D02*
X222831000Y15110000D01*
X227969000Y15110000D02*
X226440000Y15110000D01*
X227973000Y15150000D02*
X222827000Y15150000D01*
X227976000Y15190000D02*
X222824000Y15190000D01*
X227978000Y15230000D02*
X222822000Y15230000D01*
X227979000Y15270000D02*
X222821000Y15270000D01*
X227980000Y15310000D02*
X222820000Y15310000D01*
X227980000Y15350000D02*
X222820000Y15350000D01*
X228020000Y15350000D02*
G75*
G03X228020000Y15350000I-2620000J0D01*
G01*
%TO.C,C10*%
X223575000Y7195225D02*
X224075000Y7195225D01*
X223825000Y6945225D02*
X223825000Y7445225D01*
X225016000Y12351000D02*
X225584000Y12351000D01*
X224782000Y12311000D02*
X225818000Y12311000D01*
X224623000Y12271000D02*
X225977000Y12271000D01*
X224495000Y12231000D02*
X226105000Y12231000D01*
X224385000Y12191000D02*
X226215000Y12191000D01*
X224289000Y12151000D02*
X226311000Y12151000D01*
X224202000Y12111000D02*
X226398000Y12111000D01*
X224122000Y12071000D02*
X226478000Y12071000D01*
X226340000Y12031000D02*
X226551000Y12031000D01*
X224049000Y12031000D02*
X224260000Y12031000D01*
X226340000Y11991000D02*
X226619000Y11991000D01*
X223981000Y11991000D02*
X224260000Y11991000D01*
X226340000Y11951000D02*
X226683000Y11951000D01*
X223917000Y11951000D02*
X224260000Y11951000D01*
X226340000Y11911000D02*
X226743000Y11911000D01*
X223857000Y11911000D02*
X224260000Y11911000D01*
X226340000Y11871000D02*
X226800000Y11871000D01*
X223800000Y11871000D02*
X224260000Y11871000D01*
X226340000Y11831000D02*
X226854000Y11831000D01*
X223746000Y11831000D02*
X224260000Y11831000D01*
X226340000Y11791000D02*
X226905000Y11791000D01*
X223695000Y11791000D02*
X224260000Y11791000D01*
X226340000Y11751000D02*
X226953000Y11751000D01*
X223647000Y11751000D02*
X224260000Y11751000D01*
X226340000Y11711000D02*
X226999000Y11711000D01*
X223601000Y11711000D02*
X224260000Y11711000D01*
X226340000Y11671000D02*
X227043000Y11671000D01*
X223557000Y11671000D02*
X224260000Y11671000D01*
X226340000Y11631000D02*
X227085000Y11631000D01*
X223515000Y11631000D02*
X224260000Y11631000D01*
X226340000Y11591000D02*
X227126000Y11591000D01*
X223474000Y11591000D02*
X224260000Y11591000D01*
X226340000Y11551000D02*
X227164000Y11551000D01*
X223436000Y11551000D02*
X224260000Y11551000D01*
X226340000Y11511000D02*
X227201000Y11511000D01*
X223399000Y11511000D02*
X224260000Y11511000D01*
X226340000Y11471000D02*
X227237000Y11471000D01*
X223363000Y11471000D02*
X224260000Y11471000D01*
X226340000Y11431000D02*
X227271000Y11431000D01*
X223329000Y11431000D02*
X224260000Y11431000D01*
X226340000Y11391000D02*
X227304000Y11391000D01*
X223296000Y11391000D02*
X224260000Y11391000D01*
X226340000Y11351000D02*
X227335000Y11351000D01*
X223265000Y11351000D02*
X224260000Y11351000D01*
X226340000Y11311000D02*
X227365000Y11311000D01*
X223235000Y11311000D02*
X224260000Y11311000D01*
X226340000Y11271000D02*
X227395000Y11271000D01*
X223205000Y11271000D02*
X224260000Y11271000D01*
X226340000Y11231000D02*
X227422000Y11231000D01*
X223178000Y11231000D02*
X224260000Y11231000D01*
X226340000Y11191000D02*
X227449000Y11191000D01*
X223151000Y11191000D02*
X224260000Y11191000D01*
X226340000Y11151000D02*
X227475000Y11151000D01*
X223125000Y11151000D02*
X224260000Y11151000D01*
X226340000Y11111000D02*
X227500000Y11111000D01*
X223100000Y11111000D02*
X224260000Y11111000D01*
X226340000Y11071000D02*
X227524000Y11071000D01*
X223076000Y11071000D02*
X224260000Y11071000D01*
X226340000Y11031000D02*
X227547000Y11031000D01*
X223053000Y11031000D02*
X224260000Y11031000D01*
X226340000Y10991000D02*
X227568000Y10991000D01*
X223032000Y10991000D02*
X224260000Y10991000D01*
X226340000Y10951000D02*
X227590000Y10951000D01*
X223010000Y10951000D02*
X224260000Y10951000D01*
X226340000Y10911000D02*
X227610000Y10911000D01*
X222990000Y10911000D02*
X224260000Y10911000D01*
X226340000Y10871000D02*
X227629000Y10871000D01*
X222971000Y10871000D02*
X224260000Y10871000D01*
X226340000Y10831000D02*
X227648000Y10831000D01*
X222952000Y10831000D02*
X224260000Y10831000D01*
X226340000Y10791000D02*
X227665000Y10791000D01*
X222935000Y10791000D02*
X224260000Y10791000D01*
X226340000Y10751000D02*
X227682000Y10751000D01*
X222918000Y10751000D02*
X224260000Y10751000D01*
X226340000Y10711000D02*
X227698000Y10711000D01*
X222902000Y10711000D02*
X224260000Y10711000D01*
X226340000Y10671000D02*
X227714000Y10671000D01*
X222886000Y10671000D02*
X224260000Y10671000D01*
X226340000Y10631000D02*
X227728000Y10631000D01*
X222872000Y10631000D02*
X224260000Y10631000D01*
X226340000Y10591000D02*
X227742000Y10591000D01*
X222858000Y10591000D02*
X224260000Y10591000D01*
X226340000Y10551000D02*
X227755000Y10551000D01*
X222845000Y10551000D02*
X224260000Y10551000D01*
X226340000Y10511000D02*
X227768000Y10511000D01*
X222832000Y10511000D02*
X224260000Y10511000D01*
X226340000Y10471000D02*
X227780000Y10471000D01*
X222820000Y10471000D02*
X224260000Y10471000D01*
X226340000Y10430000D02*
X227791000Y10430000D01*
X222809000Y10430000D02*
X224260000Y10430000D01*
X226340000Y10390000D02*
X227801000Y10390000D01*
X222799000Y10390000D02*
X224260000Y10390000D01*
X226340000Y10350000D02*
X227811000Y10350000D01*
X222789000Y10350000D02*
X224260000Y10350000D01*
X226340000Y10310000D02*
X227820000Y10310000D01*
X222780000Y10310000D02*
X224260000Y10310000D01*
X226340000Y10270000D02*
X227828000Y10270000D01*
X222772000Y10270000D02*
X224260000Y10270000D01*
X226340000Y10230000D02*
X227836000Y10230000D01*
X222764000Y10230000D02*
X224260000Y10230000D01*
X226340000Y10190000D02*
X227843000Y10190000D01*
X222757000Y10190000D02*
X224260000Y10190000D01*
X226340000Y10150000D02*
X227850000Y10150000D01*
X222750000Y10150000D02*
X224260000Y10150000D01*
X226340000Y10110000D02*
X227856000Y10110000D01*
X222744000Y10110000D02*
X224260000Y10110000D01*
X226340000Y10070000D02*
X227861000Y10070000D01*
X222739000Y10070000D02*
X224260000Y10070000D01*
X226340000Y10030000D02*
X227865000Y10030000D01*
X222735000Y10030000D02*
X224260000Y10030000D01*
X226340000Y9990000D02*
X227869000Y9990000D01*
X222731000Y9990000D02*
X224260000Y9990000D01*
X222727000Y9950000D02*
X227873000Y9950000D01*
X222724000Y9910000D02*
X227876000Y9910000D01*
X222722000Y9870000D02*
X227878000Y9870000D01*
X222721000Y9830000D02*
X227879000Y9830000D01*
X222720000Y9790000D02*
X227880000Y9790000D01*
X222720000Y9750000D02*
X227880000Y9750000D01*
X227920000Y9750000D02*
G75*
G03X227920000Y9750000I-2620000J0D01*
G01*
%TO.C,C11*%
X209370000Y15600000D02*
G75*
G03X209370000Y15600000I-2620000J0D01*
G01*
X206750000Y13020000D02*
X206750000Y18180000D01*
X206710000Y13020000D02*
X206710000Y18180000D01*
X206670000Y13021000D02*
X206670000Y18179000D01*
X206630000Y13022000D02*
X206630000Y18178000D01*
X206590000Y13024000D02*
X206590000Y18176000D01*
X206550000Y13027000D02*
X206550000Y18173000D01*
X206510000Y13031000D02*
X206510000Y14560000D01*
X206510000Y16640000D02*
X206510000Y18169000D01*
X206470000Y13035000D02*
X206470000Y14560000D01*
X206470000Y16640000D02*
X206470000Y18165000D01*
X206430000Y13039000D02*
X206430000Y14560000D01*
X206430000Y16640000D02*
X206430000Y18161000D01*
X206390000Y13044000D02*
X206390000Y14560000D01*
X206390000Y16640000D02*
X206390000Y18156000D01*
X206350000Y13050000D02*
X206350000Y14560000D01*
X206350000Y16640000D02*
X206350000Y18150000D01*
X206310000Y13057000D02*
X206310000Y14560000D01*
X206310000Y16640000D02*
X206310000Y18143000D01*
X206270000Y13064000D02*
X206270000Y14560000D01*
X206270000Y16640000D02*
X206270000Y18136000D01*
X206230000Y13072000D02*
X206230000Y14560000D01*
X206230000Y16640000D02*
X206230000Y18128000D01*
X206190000Y13080000D02*
X206190000Y14560000D01*
X206190000Y16640000D02*
X206190000Y18120000D01*
X206150000Y13089000D02*
X206150000Y14560000D01*
X206150000Y16640000D02*
X206150000Y18111000D01*
X206110000Y13099000D02*
X206110000Y14560000D01*
X206110000Y16640000D02*
X206110000Y18101000D01*
X206070000Y13109000D02*
X206070000Y14560000D01*
X206070000Y16640000D02*
X206070000Y18091000D01*
X206029000Y13120000D02*
X206029000Y14560000D01*
X206029000Y16640000D02*
X206029000Y18080000D01*
X205989000Y13132000D02*
X205989000Y14560000D01*
X205989000Y16640000D02*
X205989000Y18068000D01*
X205949000Y13145000D02*
X205949000Y14560000D01*
X205949000Y16640000D02*
X205949000Y18055000D01*
X205909000Y13158000D02*
X205909000Y14560000D01*
X205909000Y16640000D02*
X205909000Y18042000D01*
X205869000Y13172000D02*
X205869000Y14560000D01*
X205869000Y16640000D02*
X205869000Y18028000D01*
X205829000Y13186000D02*
X205829000Y14560000D01*
X205829000Y16640000D02*
X205829000Y18014000D01*
X205789000Y13202000D02*
X205789000Y14560000D01*
X205789000Y16640000D02*
X205789000Y17998000D01*
X205749000Y13218000D02*
X205749000Y14560000D01*
X205749000Y16640000D02*
X205749000Y17982000D01*
X205709000Y13235000D02*
X205709000Y14560000D01*
X205709000Y16640000D02*
X205709000Y17965000D01*
X205669000Y13252000D02*
X205669000Y14560000D01*
X205669000Y16640000D02*
X205669000Y17948000D01*
X205629000Y13271000D02*
X205629000Y14560000D01*
X205629000Y16640000D02*
X205629000Y17929000D01*
X205589000Y13290000D02*
X205589000Y14560000D01*
X205589000Y16640000D02*
X205589000Y17910000D01*
X205549000Y13310000D02*
X205549000Y14560000D01*
X205549000Y16640000D02*
X205549000Y17890000D01*
X205509000Y13332000D02*
X205509000Y14560000D01*
X205509000Y16640000D02*
X205509000Y17868000D01*
X205469000Y13353000D02*
X205469000Y14560000D01*
X205469000Y16640000D02*
X205469000Y17847000D01*
X205429000Y13376000D02*
X205429000Y14560000D01*
X205429000Y16640000D02*
X205429000Y17824000D01*
X205389000Y13400000D02*
X205389000Y14560000D01*
X205389000Y16640000D02*
X205389000Y17800000D01*
X205349000Y13425000D02*
X205349000Y14560000D01*
X205349000Y16640000D02*
X205349000Y17775000D01*
X205309000Y13451000D02*
X205309000Y14560000D01*
X205309000Y16640000D02*
X205309000Y17749000D01*
X205269000Y13478000D02*
X205269000Y14560000D01*
X205269000Y16640000D02*
X205269000Y17722000D01*
X205229000Y13505000D02*
X205229000Y14560000D01*
X205229000Y16640000D02*
X205229000Y17695000D01*
X205189000Y13535000D02*
X205189000Y14560000D01*
X205189000Y16640000D02*
X205189000Y17665000D01*
X205149000Y13565000D02*
X205149000Y14560000D01*
X205149000Y16640000D02*
X205149000Y17635000D01*
X205109000Y13596000D02*
X205109000Y14560000D01*
X205109000Y16640000D02*
X205109000Y17604000D01*
X205069000Y13629000D02*
X205069000Y14560000D01*
X205069000Y16640000D02*
X205069000Y17571000D01*
X205029000Y13663000D02*
X205029000Y14560000D01*
X205029000Y16640000D02*
X205029000Y17537000D01*
X204989000Y13699000D02*
X204989000Y14560000D01*
X204989000Y16640000D02*
X204989000Y17501000D01*
X204949000Y13736000D02*
X204949000Y14560000D01*
X204949000Y16640000D02*
X204949000Y17464000D01*
X204909000Y13774000D02*
X204909000Y14560000D01*
X204909000Y16640000D02*
X204909000Y17426000D01*
X204869000Y13815000D02*
X204869000Y14560000D01*
X204869000Y16640000D02*
X204869000Y17385000D01*
X204829000Y13857000D02*
X204829000Y14560000D01*
X204829000Y16640000D02*
X204829000Y17343000D01*
X204789000Y13901000D02*
X204789000Y14560000D01*
X204789000Y16640000D02*
X204789000Y17299000D01*
X204749000Y13947000D02*
X204749000Y14560000D01*
X204749000Y16640000D02*
X204749000Y17253000D01*
X204709000Y13995000D02*
X204709000Y14560000D01*
X204709000Y16640000D02*
X204709000Y17205000D01*
X204669000Y14046000D02*
X204669000Y14560000D01*
X204669000Y16640000D02*
X204669000Y17154000D01*
X204629000Y14100000D02*
X204629000Y14560000D01*
X204629000Y16640000D02*
X204629000Y17100000D01*
X204589000Y14157000D02*
X204589000Y14560000D01*
X204589000Y16640000D02*
X204589000Y17043000D01*
X204549000Y14217000D02*
X204549000Y14560000D01*
X204549000Y16640000D02*
X204549000Y16983000D01*
X204509000Y14281000D02*
X204509000Y14560000D01*
X204509000Y16640000D02*
X204509000Y16919000D01*
X204469000Y14349000D02*
X204469000Y14560000D01*
X204469000Y16640000D02*
X204469000Y16851000D01*
X204429000Y14422000D02*
X204429000Y16778000D01*
X204389000Y14502000D02*
X204389000Y16698000D01*
X204349000Y14589000D02*
X204349000Y16611000D01*
X204309000Y14685000D02*
X204309000Y16515000D01*
X204269000Y14795000D02*
X204269000Y16405000D01*
X204229000Y14923000D02*
X204229000Y16277000D01*
X204189000Y15082000D02*
X204189000Y16118000D01*
X204149000Y15316000D02*
X204149000Y15884000D01*
X209554775Y14125000D02*
X209054775Y14125000D01*
X209304775Y13875000D02*
X209304775Y14375000D01*
%TO.C,C12*%
X229770000Y6770000D02*
X229770000Y4030000D01*
X222030000Y6770000D02*
X222030000Y4030000D01*
X222030000Y4030000D02*
X229770000Y4030000D01*
X222030000Y6770000D02*
X229770000Y6770000D01*
%TO.C,J29*%
X166850000Y10930000D02*
X168180000Y10930000D01*
X166850000Y9600000D02*
X166850000Y10930000D01*
X166850000Y8330000D02*
X169510000Y8330000D01*
X169510000Y8330000D02*
X169510000Y8270000D01*
X166850000Y8330000D02*
X166850000Y8270000D01*
X166850000Y8270000D02*
X169510000Y8270000D01*
%TO.C,J31*%
X166850000Y12720000D02*
X169510000Y12720000D01*
X166850000Y12780000D02*
X166850000Y12720000D01*
X169510000Y12780000D02*
X169510000Y12720000D01*
X166850000Y12780000D02*
X169510000Y12780000D01*
X166850000Y14050000D02*
X166850000Y15380000D01*
X166850000Y15380000D02*
X168180000Y15380000D01*
%TO.C,J32*%
X166850000Y6500000D02*
X168180000Y6500000D01*
X166850000Y5170000D02*
X166850000Y6500000D01*
X166850000Y3900000D02*
X169510000Y3900000D01*
X169510000Y3900000D02*
X169510000Y3840000D01*
X166850000Y3900000D02*
X166850000Y3840000D01*
X166850000Y3840000D02*
X169510000Y3840000D01*
%TO.C,J35*%
X187320000Y10930000D02*
X188650000Y10930000D01*
X187320000Y9600000D02*
X187320000Y10930000D01*
X187320000Y8330000D02*
X189980000Y8330000D01*
X189980000Y8330000D02*
X189980000Y8270000D01*
X187320000Y8330000D02*
X187320000Y8270000D01*
X187320000Y8270000D02*
X189980000Y8270000D01*
%TO.C,J36*%
X187270000Y3820000D02*
X189930000Y3820000D01*
X187270000Y3880000D02*
X187270000Y3820000D01*
X189930000Y3880000D02*
X189930000Y3820000D01*
X187270000Y3880000D02*
X189930000Y3880000D01*
X187270000Y5150000D02*
X187270000Y6480000D01*
X187270000Y6480000D02*
X188600000Y6480000D01*
%TO.C,J38*%
X187320000Y12720000D02*
X189980000Y12720000D01*
X187320000Y12780000D02*
X187320000Y12720000D01*
X189980000Y12780000D02*
X189980000Y12720000D01*
X187320000Y12780000D02*
X189980000Y12780000D01*
X187320000Y14050000D02*
X187320000Y15380000D01*
X187320000Y15380000D02*
X188650000Y15380000D01*
%TO.C,J24*%
X75220000Y15770000D02*
X77880000Y15770000D01*
X75220000Y15830000D02*
X75220000Y15770000D01*
X77880000Y15830000D02*
X77880000Y15770000D01*
X75220000Y15830000D02*
X77880000Y15830000D01*
X75220000Y17100000D02*
X75220000Y18430000D01*
X75220000Y18430000D02*
X76550000Y18430000D01*
%TO.C,J21*%
X387320000Y15370000D02*
X387320000Y18030000D01*
X384720000Y15370000D02*
X387320000Y15370000D01*
X384720000Y18030000D02*
X387320000Y18030000D01*
X384720000Y15370000D02*
X384720000Y18030000D01*
X383450000Y15370000D02*
X382120000Y15370000D01*
X382120000Y15370000D02*
X382120000Y16700000D01*
%TO.C,U4*%
X150990000Y12450000D02*
G75*
G02X148990000Y12450000I-1000000J0D01*
G01*
X148990000Y12450000D02*
X147340000Y12450000D01*
X147340000Y12450000D02*
X147340000Y2170000D01*
X147340000Y2170000D02*
X152640000Y2170000D01*
X152640000Y2170000D02*
X152640000Y12450000D01*
X152640000Y12450000D02*
X150990000Y12450000D01*
%TO.C,U5*%
X209700000Y12560000D02*
X208050000Y12560000D01*
X209700000Y2280000D02*
X209700000Y12560000D01*
X204400000Y2280000D02*
X209700000Y2280000D01*
X204400000Y12560000D02*
X204400000Y2280000D01*
X206050000Y12560000D02*
X204400000Y12560000D01*
X208050000Y12560000D02*
G75*
G02X206050000Y12560000I-1000000J0D01*
G01*
%TO.C,R1*%
X365370000Y13240000D02*
G75*
G03X365370000Y13240000I-1370000J0D01*
G01*
X364000000Y11870000D02*
X364000000Y11800000D01*
%TO.C,R2*%
X346370000Y13240000D02*
G75*
G03X346370000Y13240000I-1370000J0D01*
G01*
X345000000Y11870000D02*
X345000000Y11800000D01*
%TO.C,R3*%
X326000000Y11870000D02*
X326000000Y11800000D01*
X327370000Y13240000D02*
G75*
G03X327370000Y13240000I-1370000J0D01*
G01*
%TO.C,R4*%
X308370000Y13240000D02*
G75*
G03X308370000Y13240000I-1370000J0D01*
G01*
X307000000Y11870000D02*
X307000000Y11800000D01*
%TO.C,R5*%
X288000000Y11870000D02*
X288000000Y11800000D01*
X289370000Y13240000D02*
G75*
G03X289370000Y13240000I-1370000J0D01*
G01*
%TO.C,R6*%
X269000000Y11870000D02*
X269000000Y11800000D01*
X270370000Y13240000D02*
G75*
G03X270370000Y13240000I-1370000J0D01*
G01*
%TO.C,R7*%
X250000000Y11870000D02*
X250000000Y11800000D01*
X251370000Y13240000D02*
G75*
G03X251370000Y13240000I-1370000J0D01*
G01*
%TO.C,R8*%
X240800000Y11370000D02*
X240800000Y11300000D01*
X242170000Y12740000D02*
G75*
G03X242170000Y12740000I-1370000J0D01*
G01*
%TO.C,R9*%
X221100000Y12770000D02*
X221100000Y12700000D01*
X222470000Y14140000D02*
G75*
G03X222470000Y14140000I-1370000J0D01*
G01*
%TO.C,R10*%
X192930000Y11690000D02*
X192930000Y11620000D01*
X194300000Y13060000D02*
G75*
G03X194300000Y13060000I-1370000J0D01*
G01*
%TO.C,R11*%
X173810000Y11740000D02*
X173810000Y11670000D01*
X175180000Y13110000D02*
G75*
G03X175180000Y13110000I-1370000J0D01*
G01*
%TO.C,R12*%
X166170000Y12700000D02*
G75*
G03X166170000Y12700000I-1370000J0D01*
G01*
X164800000Y11330000D02*
X164800000Y11260000D01*
%TO.C,R13*%
X137870000Y14150000D02*
G75*
G03X137870000Y14150000I-1370000J0D01*
G01*
X136500000Y12780000D02*
X136500000Y12710000D01*
%TO.C,R14*%
X118370000Y13240000D02*
G75*
G03X118370000Y13240000I-1370000J0D01*
G01*
X117000000Y11870000D02*
X117000000Y11800000D01*
%TO.C,R15*%
X109120000Y13000000D02*
G75*
G03X109120000Y13000000I-1370000J0D01*
G01*
X107750000Y11630000D02*
X107750000Y11560000D01*
%TO.C,R16*%
X80370000Y13240000D02*
G75*
G03X80370000Y13240000I-1370000J0D01*
G01*
X79000000Y11870000D02*
X79000000Y11800000D01*
%TO.C,R17*%
X61370000Y13240000D02*
G75*
G03X61370000Y13240000I-1370000J0D01*
G01*
X60000000Y11870000D02*
X60000000Y11800000D01*
%TO.C,R18*%
X42370000Y13240000D02*
G75*
G03X42370000Y13240000I-1370000J0D01*
G01*
X41000000Y11870000D02*
X41000000Y11800000D01*
%TO.C,R19*%
X22000000Y11870000D02*
X22000000Y11800000D01*
X23370000Y13240000D02*
G75*
G03X23370000Y13240000I-1370000J0D01*
G01*
%TO.C,R20*%
X4370000Y13240000D02*
G75*
G03X4370000Y13240000I-1370000J0D01*
G01*
X3000000Y11870000D02*
X3000000Y11800000D01*
%TO.C,R21*%
X385370000Y2700000D02*
G75*
G03X385370000Y2700000I-1370000J0D01*
G01*
X385370000Y2700000D02*
X385440000Y2700000D01*
%TO.C,R22*%
X377830000Y16700000D02*
G75*
G03X377830000Y16700000I-1370000J0D01*
G01*
X377830000Y16700000D02*
X377900000Y16700000D01*
%TO.C,R23*%
X339630000Y16700000D02*
X339560000Y16700000D01*
X342370000Y16700000D02*
G75*
G03X342370000Y16700000I-1370000J0D01*
G01*
%TO.C,R24*%
X304370000Y16700000D02*
G75*
G03X304370000Y16700000I-1370000J0D01*
G01*
X301630000Y16700000D02*
X301560000Y16700000D01*
%TO.C,R25*%
X263630000Y16700000D02*
X263560000Y16700000D01*
X266370000Y16700000D02*
G75*
G03X266370000Y16700000I-1370000J0D01*
G01*
%TO.C,R26*%
X56910000Y13000000D02*
G75*
G03X56910000Y13000000I-1370000J0D01*
G01*
X54170000Y13000000D02*
X54100000Y13000000D01*
%TO.C,R27*%
X16170000Y13000000D02*
X16100000Y13000000D01*
X18910000Y13000000D02*
G75*
G03X18910000Y13000000I-1370000J0D01*
G01*
%TO.C,R28*%
X113570000Y13590000D02*
G75*
G03X113570000Y13590000I-1370000J0D01*
G01*
X112200000Y12220000D02*
X112200000Y12150000D01*
%TO.C,R30*%
X127254000Y13970000D02*
X127254000Y14040000D01*
X128624000Y12600000D02*
G75*
G03X128624000Y12600000I-1370000J0D01*
G01*
%TO.C,R31*%
X127830000Y7810000D02*
X127830000Y7740000D01*
X129200000Y9180000D02*
G75*
G03X129200000Y9180000I-1370000J0D01*
G01*
%TO.C,R32*%
X229700000Y16330000D02*
X229700000Y16400000D01*
X231070000Y14960000D02*
G75*
G03X231070000Y14960000I-1370000J0D01*
G01*
%TO.C,R33*%
X229700000Y9370000D02*
X229700000Y9300000D01*
X231070000Y10740000D02*
G75*
G03X231070000Y10740000I-1370000J0D01*
G01*
%TO.C,J22*%
X35670000Y15830000D02*
X37000000Y15830000D01*
X35670000Y14500000D02*
X35670000Y15830000D01*
X35670000Y13230000D02*
X38330000Y13230000D01*
X38330000Y13230000D02*
X38330000Y13170000D01*
X35670000Y13230000D02*
X35670000Y13170000D01*
X35670000Y13170000D02*
X38330000Y13170000D01*
%TO.C,J27*%
X35670000Y8670000D02*
X38330000Y8670000D01*
X35670000Y8730000D02*
X35670000Y8670000D01*
X38330000Y8730000D02*
X38330000Y8670000D01*
X35670000Y8730000D02*
X38330000Y8730000D01*
X35670000Y10000000D02*
X35670000Y11330000D01*
X35670000Y11330000D02*
X37000000Y11330000D01*
%TD*%
%TO.C,J26*%
D10*
X244320476Y19437620D02*
X244320476Y18723334D01*
X244272857Y18580477D01*
X244177619Y18485239D01*
X244034761Y18437620D01*
X243939523Y18437620D01*
X244749047Y19342381D02*
X244796666Y19390000D01*
X244891904Y19437620D01*
X245130000Y19437620D01*
X245225238Y19390000D01*
X245272857Y19342381D01*
X245320476Y19247143D01*
X245320476Y19151905D01*
X245272857Y19009048D01*
X244701428Y18437620D01*
X245320476Y18437620D01*
X246177619Y19437620D02*
X245987142Y19437620D01*
X245891904Y19390000D01*
X245844285Y19342381D01*
X245749047Y19199524D01*
X245701428Y19009048D01*
X245701428Y18628096D01*
X245749047Y18532858D01*
X245796666Y18485239D01*
X245891904Y18437620D01*
X246082380Y18437620D01*
X246177619Y18485239D01*
X246225238Y18532858D01*
X246272857Y18628096D01*
X246272857Y18866191D01*
X246225238Y18961429D01*
X246177619Y19009048D01*
X246082380Y19056667D01*
X245891904Y19056667D01*
X245796666Y19009048D01*
X245749047Y18961429D01*
X245701428Y18866191D01*
%TO.C,U3*%
X72538095Y10257620D02*
X72538095Y9448096D01*
X72585714Y9352858D01*
X72633333Y9305239D01*
X72728571Y9257620D01*
X72919047Y9257620D01*
X73014285Y9305239D01*
X73061904Y9352858D01*
X73109523Y9448096D01*
X73109523Y10257620D01*
X73490476Y10257620D02*
X74109523Y10257620D01*
X73776190Y9876667D01*
X73919047Y9876667D01*
X74014285Y9829048D01*
X74061904Y9781429D01*
X74109523Y9686191D01*
X74109523Y9448096D01*
X74061904Y9352858D01*
X74014285Y9305239D01*
X73919047Y9257620D01*
X73633333Y9257620D01*
X73538095Y9305239D01*
X73490476Y9352858D01*
%TO.C,J25*%
X69902380Y15890477D02*
X70616666Y15890477D01*
X70759523Y15842858D01*
X70854761Y15747620D01*
X70902380Y15604762D01*
X70902380Y15509524D01*
X69997619Y16319048D02*
X69950000Y16366667D01*
X69902380Y16461905D01*
X69902380Y16700000D01*
X69950000Y16795239D01*
X69997619Y16842858D01*
X70092857Y16890477D01*
X70188095Y16890477D01*
X70330952Y16842858D01*
X70902380Y16271429D01*
X70902380Y16890477D01*
X69902380Y17795239D02*
X69902380Y17319048D01*
X70378571Y17271429D01*
X70330952Y17319048D01*
X70283333Y17414286D01*
X70283333Y17652381D01*
X70330952Y17747620D01*
X70378571Y17795239D01*
X70473809Y17842858D01*
X70711904Y17842858D01*
X70807142Y17795239D01*
X70854761Y17747620D01*
X70902380Y17652381D01*
X70902380Y17414286D01*
X70854761Y17319048D01*
X70807142Y17271429D01*
%TO.C,J10*%
X196690476Y3147620D02*
X196690476Y2433334D01*
X196642857Y2290477D01*
X196547619Y2195239D01*
X196404761Y2147620D01*
X196309523Y2147620D01*
X197690476Y2147620D02*
X197119047Y2147620D01*
X197404761Y2147620D02*
X197404761Y3147620D01*
X197309523Y3004762D01*
X197214285Y2909524D01*
X197119047Y2861905D01*
X198309523Y3147620D02*
X198404761Y3147620D01*
X198500000Y3100000D01*
X198547619Y3052381D01*
X198595238Y2957143D01*
X198642857Y2766667D01*
X198642857Y2528572D01*
X198595238Y2338096D01*
X198547619Y2242858D01*
X198500000Y2195239D01*
X198404761Y2147620D01*
X198309523Y2147620D01*
X198214285Y2195239D01*
X198166666Y2242858D01*
X198119047Y2338096D01*
X198071428Y2528572D01*
X198071428Y2766667D01*
X198119047Y2957143D01*
X198166666Y3052381D01*
X198214285Y3100000D01*
X198309523Y3147620D01*
%TO.C,C1*%
X52233333Y10842858D02*
X52185714Y10795239D01*
X52042857Y10747620D01*
X51947619Y10747620D01*
X51804761Y10795239D01*
X51709523Y10890477D01*
X51661904Y10985715D01*
X51614285Y11176191D01*
X51614285Y11319048D01*
X51661904Y11509524D01*
X51709523Y11604762D01*
X51804761Y11700000D01*
X51947619Y11747620D01*
X52042857Y11747620D01*
X52185714Y11700000D01*
X52233333Y11652381D01*
X53185714Y10747620D02*
X52614285Y10747620D01*
X52900000Y10747620D02*
X52900000Y11747620D01*
X52804761Y11604762D01*
X52709523Y11509524D01*
X52614285Y11461905D01*
%TO.C,U1*%
X375502380Y8748096D02*
X376311904Y8748096D01*
X376407142Y8795715D01*
X376454761Y8843334D01*
X376502380Y8938572D01*
X376502380Y9129048D01*
X376454761Y9224286D01*
X376407142Y9271905D01*
X376311904Y9319524D01*
X375502380Y9319524D01*
X376502380Y10319524D02*
X376502380Y9748096D01*
X376502380Y10033810D02*
X375502380Y10033810D01*
X375645238Y9938572D01*
X375740476Y9843334D01*
X375788095Y9748096D01*
%TO.C,LED1*%
X367880952Y16497620D02*
X367404761Y16497620D01*
X367404761Y17497620D01*
X368214285Y17021429D02*
X368547619Y17021429D01*
X368690476Y16497620D02*
X368214285Y16497620D01*
X368214285Y17497620D01*
X368690476Y17497620D01*
X369119047Y16497620D02*
X369119047Y17497620D01*
X369357142Y17497620D01*
X369500000Y17450000D01*
X369595238Y17354762D01*
X369642857Y17259524D01*
X369690476Y17069048D01*
X369690476Y16926191D01*
X369642857Y16735715D01*
X369595238Y16640477D01*
X369500000Y16545239D01*
X369357142Y16497620D01*
X369119047Y16497620D01*
X370642857Y16497620D02*
X370071428Y16497620D01*
X370357142Y16497620D02*
X370357142Y17497620D01*
X370261904Y17354762D01*
X370166666Y17259524D01*
X370071428Y17211905D01*
%TO.C,J1*%
X363122380Y5636667D02*
X363836666Y5636667D01*
X363979523Y5589048D01*
X364074761Y5493810D01*
X364122380Y5350953D01*
X364122380Y5255715D01*
X364122380Y6636667D02*
X364122380Y6065239D01*
X364122380Y6350953D02*
X363122380Y6350953D01*
X363265238Y6255715D01*
X363360476Y6160477D01*
X363408095Y6065239D01*
%TO.C,J2*%
X344122380Y5636667D02*
X344836666Y5636667D01*
X344979523Y5589048D01*
X345074761Y5493810D01*
X345122380Y5350953D01*
X345122380Y5255715D01*
X344217619Y6065239D02*
X344170000Y6112858D01*
X344122380Y6208096D01*
X344122380Y6446191D01*
X344170000Y6541429D01*
X344217619Y6589048D01*
X344312857Y6636667D01*
X344408095Y6636667D01*
X344550952Y6589048D01*
X345122380Y6017620D01*
X345122380Y6636667D01*
%TO.C,J3*%
X325122380Y5636667D02*
X325836666Y5636667D01*
X325979523Y5589048D01*
X326074761Y5493810D01*
X326122380Y5350953D01*
X326122380Y5255715D01*
X325122380Y6017620D02*
X325122380Y6636667D01*
X325503333Y6303334D01*
X325503333Y6446191D01*
X325550952Y6541429D01*
X325598571Y6589048D01*
X325693809Y6636667D01*
X325931904Y6636667D01*
X326027142Y6589048D01*
X326074761Y6541429D01*
X326122380Y6446191D01*
X326122380Y6160477D01*
X326074761Y6065239D01*
X326027142Y6017620D01*
%TO.C,J4*%
X306042380Y5636667D02*
X306756666Y5636667D01*
X306899523Y5589048D01*
X306994761Y5493810D01*
X307042380Y5350953D01*
X307042380Y5255715D01*
X306375714Y6541429D02*
X307042380Y6541429D01*
X305994761Y6303334D02*
X306709047Y6065239D01*
X306709047Y6684286D01*
%TO.C,J5*%
X287122380Y5636667D02*
X287836666Y5636667D01*
X287979523Y5589048D01*
X288074761Y5493810D01*
X288122380Y5350953D01*
X288122380Y5255715D01*
X287122380Y6589048D02*
X287122380Y6112858D01*
X287598571Y6065239D01*
X287550952Y6112858D01*
X287503333Y6208096D01*
X287503333Y6446191D01*
X287550952Y6541429D01*
X287598571Y6589048D01*
X287693809Y6636667D01*
X287931904Y6636667D01*
X288027142Y6589048D01*
X288074761Y6541429D01*
X288122380Y6446191D01*
X288122380Y6208096D01*
X288074761Y6112858D01*
X288027142Y6065239D01*
%TO.C,J6*%
X268122380Y5636667D02*
X268836666Y5636667D01*
X268979523Y5589048D01*
X269074761Y5493810D01*
X269122380Y5350953D01*
X269122380Y5255715D01*
X268122380Y6541429D02*
X268122380Y6350953D01*
X268170000Y6255715D01*
X268217619Y6208096D01*
X268360476Y6112858D01*
X268550952Y6065239D01*
X268931904Y6065239D01*
X269027142Y6112858D01*
X269074761Y6160477D01*
X269122380Y6255715D01*
X269122380Y6446191D01*
X269074761Y6541429D01*
X269027142Y6589048D01*
X268931904Y6636667D01*
X268693809Y6636667D01*
X268598571Y6589048D01*
X268550952Y6541429D01*
X268503333Y6446191D01*
X268503333Y6255715D01*
X268550952Y6160477D01*
X268598571Y6112858D01*
X268693809Y6065239D01*
%TO.C,J7*%
X249122380Y5636667D02*
X249836666Y5636667D01*
X249979523Y5589048D01*
X250074761Y5493810D01*
X250122380Y5350953D01*
X250122380Y5255715D01*
X249122380Y6017620D02*
X249122380Y6684286D01*
X250122380Y6255715D01*
%TO.C,J8*%
X235116666Y3097620D02*
X235116666Y2383334D01*
X235069047Y2240477D01*
X234973809Y2145239D01*
X234830952Y2097620D01*
X234735714Y2097620D01*
X235735714Y2669048D02*
X235640476Y2716667D01*
X235592857Y2764286D01*
X235545238Y2859524D01*
X235545238Y2907143D01*
X235592857Y3002381D01*
X235640476Y3050000D01*
X235735714Y3097620D01*
X235926190Y3097620D01*
X236021428Y3050000D01*
X236069047Y3002381D01*
X236116666Y2907143D01*
X236116666Y2859524D01*
X236069047Y2764286D01*
X236021428Y2716667D01*
X235926190Y2669048D01*
X235735714Y2669048D01*
X235640476Y2621429D01*
X235592857Y2573810D01*
X235545238Y2478572D01*
X235545238Y2288096D01*
X235592857Y2192858D01*
X235640476Y2145239D01*
X235735714Y2097620D01*
X235926190Y2097620D01*
X236021428Y2145239D01*
X236069047Y2192858D01*
X236116666Y2288096D01*
X236116666Y2478572D01*
X236069047Y2573810D01*
X236021428Y2621429D01*
X235926190Y2669048D01*
%TO.C,J9*%
X216216666Y3097620D02*
X216216666Y2383334D01*
X216169047Y2240477D01*
X216073809Y2145239D01*
X215930952Y2097620D01*
X215835714Y2097620D01*
X216740476Y2097620D02*
X216930952Y2097620D01*
X217026190Y2145239D01*
X217073809Y2192858D01*
X217169047Y2335715D01*
X217216666Y2526191D01*
X217216666Y2907143D01*
X217169047Y3002381D01*
X217121428Y3050000D01*
X217026190Y3097620D01*
X216835714Y3097620D01*
X216740476Y3050000D01*
X216692857Y3002381D01*
X216645238Y2907143D01*
X216645238Y2669048D01*
X216692857Y2573810D01*
X216740476Y2526191D01*
X216835714Y2478572D01*
X217026190Y2478572D01*
X217121428Y2526191D01*
X217169047Y2573810D01*
X217216666Y2669048D01*
%TO.C,J11*%
X177690476Y3147620D02*
X177690476Y2433334D01*
X177642857Y2290477D01*
X177547619Y2195239D01*
X177404761Y2147620D01*
X177309523Y2147620D01*
X178690476Y2147620D02*
X178119047Y2147620D01*
X178404761Y2147620D02*
X178404761Y3147620D01*
X178309523Y3004762D01*
X178214285Y2909524D01*
X178119047Y2861905D01*
X179642857Y2147620D02*
X179071428Y2147620D01*
X179357142Y2147620D02*
X179357142Y3147620D01*
X179261904Y3004762D01*
X179166666Y2909524D01*
X179071428Y2861905D01*
%TO.C,J12*%
X158640476Y3197620D02*
X158640476Y2483334D01*
X158592857Y2340477D01*
X158497619Y2245239D01*
X158354761Y2197620D01*
X158259523Y2197620D01*
X159640476Y2197620D02*
X159069047Y2197620D01*
X159354761Y2197620D02*
X159354761Y3197620D01*
X159259523Y3054762D01*
X159164285Y2959524D01*
X159069047Y2911905D01*
X160021428Y3102381D02*
X160069047Y3150000D01*
X160164285Y3197620D01*
X160402380Y3197620D01*
X160497619Y3150000D01*
X160545238Y3102381D01*
X160592857Y3007143D01*
X160592857Y2911905D01*
X160545238Y2769048D01*
X159973809Y2197620D01*
X160592857Y2197620D01*
%TO.C,J13*%
X139690476Y3097620D02*
X139690476Y2383334D01*
X139642857Y2240477D01*
X139547619Y2145239D01*
X139404761Y2097620D01*
X139309523Y2097620D01*
X140690476Y2097620D02*
X140119047Y2097620D01*
X140404761Y2097620D02*
X140404761Y3097620D01*
X140309523Y2954762D01*
X140214285Y2859524D01*
X140119047Y2811905D01*
X141023809Y3097620D02*
X141642857Y3097620D01*
X141309523Y2716667D01*
X141452380Y2716667D01*
X141547619Y2669048D01*
X141595238Y2621429D01*
X141642857Y2526191D01*
X141642857Y2288096D01*
X141595238Y2192858D01*
X141547619Y2145239D01*
X141452380Y2097620D01*
X141166666Y2097620D01*
X141071428Y2145239D01*
X141023809Y2192858D01*
%TO.C,J14*%
X116042380Y5160477D02*
X116756666Y5160477D01*
X116899523Y5112858D01*
X116994761Y5017620D01*
X117042380Y4874762D01*
X117042380Y4779524D01*
X117042380Y6160477D02*
X117042380Y5589048D01*
X117042380Y5874762D02*
X116042380Y5874762D01*
X116185238Y5779524D01*
X116280476Y5684286D01*
X116328095Y5589048D01*
X116375714Y7017620D02*
X117042380Y7017620D01*
X115994761Y6779524D02*
X116709047Y6541429D01*
X116709047Y7160477D01*
%TO.C,J15*%
X103490476Y3147620D02*
X103490476Y2433334D01*
X103442857Y2290477D01*
X103347619Y2195239D01*
X103204761Y2147620D01*
X103109523Y2147620D01*
X104490476Y2147620D02*
X103919047Y2147620D01*
X104204761Y2147620D02*
X104204761Y3147620D01*
X104109523Y3004762D01*
X104014285Y2909524D01*
X103919047Y2861905D01*
X105395238Y3147620D02*
X104919047Y3147620D01*
X104871428Y2671429D01*
X104919047Y2719048D01*
X105014285Y2766667D01*
X105252380Y2766667D01*
X105347619Y2719048D01*
X105395238Y2671429D01*
X105442857Y2576191D01*
X105442857Y2338096D01*
X105395238Y2242858D01*
X105347619Y2195239D01*
X105252380Y2147620D01*
X105014285Y2147620D01*
X104919047Y2195239D01*
X104871428Y2242858D01*
%TO.C,J16*%
X78042380Y5160477D02*
X78756666Y5160477D01*
X78899523Y5112858D01*
X78994761Y5017620D01*
X79042380Y4874762D01*
X79042380Y4779524D01*
X79042380Y6160477D02*
X79042380Y5589048D01*
X79042380Y5874762D02*
X78042380Y5874762D01*
X78185238Y5779524D01*
X78280476Y5684286D01*
X78328095Y5589048D01*
X78042380Y7017620D02*
X78042380Y6827143D01*
X78090000Y6731905D01*
X78137619Y6684286D01*
X78280476Y6589048D01*
X78470952Y6541429D01*
X78851904Y6541429D01*
X78947142Y6589048D01*
X78994761Y6636667D01*
X79042380Y6731905D01*
X79042380Y6922381D01*
X78994761Y7017620D01*
X78947142Y7065239D01*
X78851904Y7112858D01*
X78613809Y7112858D01*
X78518571Y7065239D01*
X78470952Y7017620D01*
X78423333Y6922381D01*
X78423333Y6731905D01*
X78470952Y6636667D01*
X78518571Y6589048D01*
X78613809Y6541429D01*
%TO.C,J17*%
X59042380Y5160477D02*
X59756666Y5160477D01*
X59899523Y5112858D01*
X59994761Y5017620D01*
X60042380Y4874762D01*
X60042380Y4779524D01*
X60042380Y6160477D02*
X60042380Y5589048D01*
X60042380Y5874762D02*
X59042380Y5874762D01*
X59185238Y5779524D01*
X59280476Y5684286D01*
X59328095Y5589048D01*
X59042380Y6493810D02*
X59042380Y7160477D01*
X60042380Y6731905D01*
%TO.C,J18*%
X40042380Y5160477D02*
X40756666Y5160477D01*
X40899523Y5112858D01*
X40994761Y5017620D01*
X41042380Y4874762D01*
X41042380Y4779524D01*
X41042380Y6160477D02*
X41042380Y5589048D01*
X41042380Y5874762D02*
X40042380Y5874762D01*
X40185238Y5779524D01*
X40280476Y5684286D01*
X40328095Y5589048D01*
X40470952Y6731905D02*
X40423333Y6636667D01*
X40375714Y6589048D01*
X40280476Y6541429D01*
X40232857Y6541429D01*
X40137619Y6589048D01*
X40090000Y6636667D01*
X40042380Y6731905D01*
X40042380Y6922381D01*
X40090000Y7017620D01*
X40137619Y7065239D01*
X40232857Y7112858D01*
X40280476Y7112858D01*
X40375714Y7065239D01*
X40423333Y7017620D01*
X40470952Y6922381D01*
X40470952Y6731905D01*
X40518571Y6636667D01*
X40566190Y6589048D01*
X40661428Y6541429D01*
X40851904Y6541429D01*
X40947142Y6589048D01*
X40994761Y6636667D01*
X41042380Y6731905D01*
X41042380Y6922381D01*
X40994761Y7017620D01*
X40947142Y7065239D01*
X40851904Y7112858D01*
X40661428Y7112858D01*
X40566190Y7065239D01*
X40518571Y7017620D01*
X40470952Y6922381D01*
%TO.C,J19*%
X21042380Y5160477D02*
X21756666Y5160477D01*
X21899523Y5112858D01*
X21994761Y5017620D01*
X22042380Y4874762D01*
X22042380Y4779524D01*
X22042380Y6160477D02*
X22042380Y5589048D01*
X22042380Y5874762D02*
X21042380Y5874762D01*
X21185238Y5779524D01*
X21280476Y5684286D01*
X21328095Y5589048D01*
X22042380Y6636667D02*
X22042380Y6827143D01*
X21994761Y6922381D01*
X21947142Y6970000D01*
X21804285Y7065239D01*
X21613809Y7112858D01*
X21232857Y7112858D01*
X21137619Y7065239D01*
X21090000Y7017620D01*
X21042380Y6922381D01*
X21042380Y6731905D01*
X21090000Y6636667D01*
X21137619Y6589048D01*
X21232857Y6541429D01*
X21470952Y6541429D01*
X21566190Y6589048D01*
X21613809Y6636667D01*
X21661428Y6731905D01*
X21661428Y6922381D01*
X21613809Y7017620D01*
X21566190Y7065239D01*
X21470952Y7112858D01*
%TO.C,J20*%
X2042380Y5160477D02*
X2756666Y5160477D01*
X2899523Y5112858D01*
X2994761Y5017620D01*
X3042380Y4874762D01*
X3042380Y4779524D01*
X2137619Y5589048D02*
X2090000Y5636667D01*
X2042380Y5731905D01*
X2042380Y5970000D01*
X2090000Y6065239D01*
X2137619Y6112858D01*
X2232857Y6160477D01*
X2328095Y6160477D01*
X2470952Y6112858D01*
X3042380Y5541429D01*
X3042380Y6160477D01*
X2042380Y6779524D02*
X2042380Y6874762D01*
X2090000Y6970000D01*
X2137619Y7017620D01*
X2232857Y7065239D01*
X2423333Y7112858D01*
X2661428Y7112858D01*
X2851904Y7065239D01*
X2947142Y7017620D01*
X2994761Y6970000D01*
X3042380Y6874762D01*
X3042380Y6779524D01*
X2994761Y6684286D01*
X2947142Y6636667D01*
X2851904Y6589048D01*
X2661428Y6541429D01*
X2423333Y6541429D01*
X2232857Y6589048D01*
X2137619Y6636667D01*
X2090000Y6684286D01*
X2042380Y6779524D01*
%TO.C,LED2*%
X348880952Y16497620D02*
X348404761Y16497620D01*
X348404761Y17497620D01*
X349214285Y17021429D02*
X349547619Y17021429D01*
X349690476Y16497620D02*
X349214285Y16497620D01*
X349214285Y17497620D01*
X349690476Y17497620D01*
X350119047Y16497620D02*
X350119047Y17497620D01*
X350357142Y17497620D01*
X350500000Y17450000D01*
X350595238Y17354762D01*
X350642857Y17259524D01*
X350690476Y17069048D01*
X350690476Y16926191D01*
X350642857Y16735715D01*
X350595238Y16640477D01*
X350500000Y16545239D01*
X350357142Y16497620D01*
X350119047Y16497620D01*
X351071428Y17402381D02*
X351119047Y17450000D01*
X351214285Y17497620D01*
X351452380Y17497620D01*
X351547619Y17450000D01*
X351595238Y17402381D01*
X351642857Y17307143D01*
X351642857Y17211905D01*
X351595238Y17069048D01*
X351023809Y16497620D01*
X351642857Y16497620D01*
%TO.C,LED3*%
X329880952Y16497620D02*
X329404761Y16497620D01*
X329404761Y17497620D01*
X330214285Y17021429D02*
X330547619Y17021429D01*
X330690476Y16497620D02*
X330214285Y16497620D01*
X330214285Y17497620D01*
X330690476Y17497620D01*
X331119047Y16497620D02*
X331119047Y17497620D01*
X331357142Y17497620D01*
X331500000Y17450000D01*
X331595238Y17354762D01*
X331642857Y17259524D01*
X331690476Y17069048D01*
X331690476Y16926191D01*
X331642857Y16735715D01*
X331595238Y16640477D01*
X331500000Y16545239D01*
X331357142Y16497620D01*
X331119047Y16497620D01*
X332023809Y17497620D02*
X332642857Y17497620D01*
X332309523Y17116667D01*
X332452380Y17116667D01*
X332547619Y17069048D01*
X332595238Y17021429D01*
X332642857Y16926191D01*
X332642857Y16688096D01*
X332595238Y16592858D01*
X332547619Y16545239D01*
X332452380Y16497620D01*
X332166666Y16497620D01*
X332071428Y16545239D01*
X332023809Y16592858D01*
%TO.C,LED4*%
X310880952Y16497620D02*
X310404761Y16497620D01*
X310404761Y17497620D01*
X311214285Y17021429D02*
X311547619Y17021429D01*
X311690476Y16497620D02*
X311214285Y16497620D01*
X311214285Y17497620D01*
X311690476Y17497620D01*
X312119047Y16497620D02*
X312119047Y17497620D01*
X312357142Y17497620D01*
X312500000Y17450000D01*
X312595238Y17354762D01*
X312642857Y17259524D01*
X312690476Y17069048D01*
X312690476Y16926191D01*
X312642857Y16735715D01*
X312595238Y16640477D01*
X312500000Y16545239D01*
X312357142Y16497620D01*
X312119047Y16497620D01*
X313547619Y17164286D02*
X313547619Y16497620D01*
X313309523Y17545239D02*
X313071428Y16830953D01*
X313690476Y16830953D01*
%TO.C,LED5*%
X291880952Y16497620D02*
X291404761Y16497620D01*
X291404761Y17497620D01*
X292214285Y17021429D02*
X292547619Y17021429D01*
X292690476Y16497620D02*
X292214285Y16497620D01*
X292214285Y17497620D01*
X292690476Y17497620D01*
X293119047Y16497620D02*
X293119047Y17497620D01*
X293357142Y17497620D01*
X293500000Y17450000D01*
X293595238Y17354762D01*
X293642857Y17259524D01*
X293690476Y17069048D01*
X293690476Y16926191D01*
X293642857Y16735715D01*
X293595238Y16640477D01*
X293500000Y16545239D01*
X293357142Y16497620D01*
X293119047Y16497620D01*
X294595238Y17497620D02*
X294119047Y17497620D01*
X294071428Y17021429D01*
X294119047Y17069048D01*
X294214285Y17116667D01*
X294452380Y17116667D01*
X294547619Y17069048D01*
X294595238Y17021429D01*
X294642857Y16926191D01*
X294642857Y16688096D01*
X294595238Y16592858D01*
X294547619Y16545239D01*
X294452380Y16497620D01*
X294214285Y16497620D01*
X294119047Y16545239D01*
X294071428Y16592858D01*
%TO.C,LED6*%
X272880952Y16497620D02*
X272404761Y16497620D01*
X272404761Y17497620D01*
X273214285Y17021429D02*
X273547619Y17021429D01*
X273690476Y16497620D02*
X273214285Y16497620D01*
X273214285Y17497620D01*
X273690476Y17497620D01*
X274119047Y16497620D02*
X274119047Y17497620D01*
X274357142Y17497620D01*
X274500000Y17450000D01*
X274595238Y17354762D01*
X274642857Y17259524D01*
X274690476Y17069048D01*
X274690476Y16926191D01*
X274642857Y16735715D01*
X274595238Y16640477D01*
X274500000Y16545239D01*
X274357142Y16497620D01*
X274119047Y16497620D01*
X275547619Y17497620D02*
X275357142Y17497620D01*
X275261904Y17450000D01*
X275214285Y17402381D01*
X275119047Y17259524D01*
X275071428Y17069048D01*
X275071428Y16688096D01*
X275119047Y16592858D01*
X275166666Y16545239D01*
X275261904Y16497620D01*
X275452380Y16497620D01*
X275547619Y16545239D01*
X275595238Y16592858D01*
X275642857Y16688096D01*
X275642857Y16926191D01*
X275595238Y17021429D01*
X275547619Y17069048D01*
X275452380Y17116667D01*
X275261904Y17116667D01*
X275166666Y17069048D01*
X275119047Y17021429D01*
X275071428Y16926191D01*
%TO.C,LED7*%
X253880952Y16497620D02*
X253404761Y16497620D01*
X253404761Y17497620D01*
X254214285Y17021429D02*
X254547619Y17021429D01*
X254690476Y16497620D02*
X254214285Y16497620D01*
X254214285Y17497620D01*
X254690476Y17497620D01*
X255119047Y16497620D02*
X255119047Y17497620D01*
X255357142Y17497620D01*
X255500000Y17450000D01*
X255595238Y17354762D01*
X255642857Y17259524D01*
X255690476Y17069048D01*
X255690476Y16926191D01*
X255642857Y16735715D01*
X255595238Y16640477D01*
X255500000Y16545239D01*
X255357142Y16497620D01*
X255119047Y16497620D01*
X256023809Y17497620D02*
X256690476Y17497620D01*
X256261904Y16497620D01*
%TO.C,LED8*%
X234880952Y13697620D02*
X234404761Y13697620D01*
X234404761Y14697620D01*
X235214285Y14221429D02*
X235547619Y14221429D01*
X235690476Y13697620D02*
X235214285Y13697620D01*
X235214285Y14697620D01*
X235690476Y14697620D01*
X236119047Y13697620D02*
X236119047Y14697620D01*
X236357142Y14697620D01*
X236500000Y14650000D01*
X236595238Y14554762D01*
X236642857Y14459524D01*
X236690476Y14269048D01*
X236690476Y14126191D01*
X236642857Y13935715D01*
X236595238Y13840477D01*
X236500000Y13745239D01*
X236357142Y13697620D01*
X236119047Y13697620D01*
X237261904Y14269048D02*
X237166666Y14316667D01*
X237119047Y14364286D01*
X237071428Y14459524D01*
X237071428Y14507143D01*
X237119047Y14602381D01*
X237166666Y14650000D01*
X237261904Y14697620D01*
X237452380Y14697620D01*
X237547619Y14650000D01*
X237595238Y14602381D01*
X237642857Y14507143D01*
X237642857Y14459524D01*
X237595238Y14364286D01*
X237547619Y14316667D01*
X237452380Y14269048D01*
X237261904Y14269048D01*
X237166666Y14221429D01*
X237119047Y14173810D01*
X237071428Y14078572D01*
X237071428Y13888096D01*
X237119047Y13792858D01*
X237166666Y13745239D01*
X237261904Y13697620D01*
X237452380Y13697620D01*
X237547619Y13745239D01*
X237595238Y13792858D01*
X237642857Y13888096D01*
X237642857Y14078572D01*
X237595238Y14173810D01*
X237547619Y14221429D01*
X237452380Y14269048D01*
%TO.C,LED9*%
X215930952Y13797620D02*
X215454761Y13797620D01*
X215454761Y14797620D01*
X216264285Y14321429D02*
X216597619Y14321429D01*
X216740476Y13797620D02*
X216264285Y13797620D01*
X216264285Y14797620D01*
X216740476Y14797620D01*
X217169047Y13797620D02*
X217169047Y14797620D01*
X217407142Y14797620D01*
X217550000Y14750000D01*
X217645238Y14654762D01*
X217692857Y14559524D01*
X217740476Y14369048D01*
X217740476Y14226191D01*
X217692857Y14035715D01*
X217645238Y13940477D01*
X217550000Y13845239D01*
X217407142Y13797620D01*
X217169047Y13797620D01*
X218216666Y13797620D02*
X218407142Y13797620D01*
X218502380Y13845239D01*
X218550000Y13892858D01*
X218645238Y14035715D01*
X218692857Y14226191D01*
X218692857Y14607143D01*
X218645238Y14702381D01*
X218597619Y14750000D01*
X218502380Y14797620D01*
X218311904Y14797620D01*
X218216666Y14750000D01*
X218169047Y14702381D01*
X218121428Y14607143D01*
X218121428Y14369048D01*
X218169047Y14273810D01*
X218216666Y14226191D01*
X218311904Y14178572D01*
X218502380Y14178572D01*
X218597619Y14226191D01*
X218645238Y14273810D01*
X218692857Y14369048D01*
%TO.C,LED10*%
X196404761Y13597620D02*
X195928571Y13597620D01*
X195928571Y14597620D01*
X196738095Y14121429D02*
X197071428Y14121429D01*
X197214285Y13597620D02*
X196738095Y13597620D01*
X196738095Y14597620D01*
X197214285Y14597620D01*
X197642857Y13597620D02*
X197642857Y14597620D01*
X197880952Y14597620D01*
X198023809Y14550000D01*
X198119047Y14454762D01*
X198166666Y14359524D01*
X198214285Y14169048D01*
X198214285Y14026191D01*
X198166666Y13835715D01*
X198119047Y13740477D01*
X198023809Y13645239D01*
X197880952Y13597620D01*
X197642857Y13597620D01*
X199166666Y13597620D02*
X198595238Y13597620D01*
X198880952Y13597620D02*
X198880952Y14597620D01*
X198785714Y14454762D01*
X198690476Y14359524D01*
X198595238Y14311905D01*
X199785714Y14597620D02*
X199880952Y14597620D01*
X199976190Y14550000D01*
X200023809Y14502381D01*
X200071428Y14407143D01*
X200119047Y14216667D01*
X200119047Y13978572D01*
X200071428Y13788096D01*
X200023809Y13692858D01*
X199976190Y13645239D01*
X199880952Y13597620D01*
X199785714Y13597620D01*
X199690476Y13645239D01*
X199642857Y13692858D01*
X199595238Y13788096D01*
X199547619Y13978572D01*
X199547619Y14216667D01*
X199595238Y14407143D01*
X199642857Y14502381D01*
X199690476Y14550000D01*
X199785714Y14597620D01*
%TO.C,LED11*%
X177404761Y13647620D02*
X176928571Y13647620D01*
X176928571Y14647620D01*
X177738095Y14171429D02*
X178071428Y14171429D01*
X178214285Y13647620D02*
X177738095Y13647620D01*
X177738095Y14647620D01*
X178214285Y14647620D01*
X178642857Y13647620D02*
X178642857Y14647620D01*
X178880952Y14647620D01*
X179023809Y14600000D01*
X179119047Y14504762D01*
X179166666Y14409524D01*
X179214285Y14219048D01*
X179214285Y14076191D01*
X179166666Y13885715D01*
X179119047Y13790477D01*
X179023809Y13695239D01*
X178880952Y13647620D01*
X178642857Y13647620D01*
X180166666Y13647620D02*
X179595238Y13647620D01*
X179880952Y13647620D02*
X179880952Y14647620D01*
X179785714Y14504762D01*
X179690476Y14409524D01*
X179595238Y14361905D01*
X181119047Y13647620D02*
X180547619Y13647620D01*
X180833333Y13647620D02*
X180833333Y14647620D01*
X180738095Y14504762D01*
X180642857Y14409524D01*
X180547619Y14361905D01*
%TO.C,LED12*%
X158404761Y13547620D02*
X157928571Y13547620D01*
X157928571Y14547620D01*
X158738095Y14071429D02*
X159071428Y14071429D01*
X159214285Y13547620D02*
X158738095Y13547620D01*
X158738095Y14547620D01*
X159214285Y14547620D01*
X159642857Y13547620D02*
X159642857Y14547620D01*
X159880952Y14547620D01*
X160023809Y14500000D01*
X160119047Y14404762D01*
X160166666Y14309524D01*
X160214285Y14119048D01*
X160214285Y13976191D01*
X160166666Y13785715D01*
X160119047Y13690477D01*
X160023809Y13595239D01*
X159880952Y13547620D01*
X159642857Y13547620D01*
X161166666Y13547620D02*
X160595238Y13547620D01*
X160880952Y13547620D02*
X160880952Y14547620D01*
X160785714Y14404762D01*
X160690476Y14309524D01*
X160595238Y14261905D01*
X161547619Y14452381D02*
X161595238Y14500000D01*
X161690476Y14547620D01*
X161928571Y14547620D01*
X162023809Y14500000D01*
X162071428Y14452381D01*
X162119047Y14357143D01*
X162119047Y14261905D01*
X162071428Y14119048D01*
X161500000Y13547620D01*
X162119047Y13547620D01*
%TO.C,LED13*%
X139404761Y13647620D02*
X138928571Y13647620D01*
X138928571Y14647620D01*
X139738095Y14171429D02*
X140071428Y14171429D01*
X140214285Y13647620D02*
X139738095Y13647620D01*
X139738095Y14647620D01*
X140214285Y14647620D01*
X140642857Y13647620D02*
X140642857Y14647620D01*
X140880952Y14647620D01*
X141023809Y14600000D01*
X141119047Y14504762D01*
X141166666Y14409524D01*
X141214285Y14219048D01*
X141214285Y14076191D01*
X141166666Y13885715D01*
X141119047Y13790477D01*
X141023809Y13695239D01*
X140880952Y13647620D01*
X140642857Y13647620D01*
X142166666Y13647620D02*
X141595238Y13647620D01*
X141880952Y13647620D02*
X141880952Y14647620D01*
X141785714Y14504762D01*
X141690476Y14409524D01*
X141595238Y14361905D01*
X142500000Y14647620D02*
X143119047Y14647620D01*
X142785714Y14266667D01*
X142928571Y14266667D01*
X143023809Y14219048D01*
X143071428Y14171429D01*
X143119047Y14076191D01*
X143119047Y13838096D01*
X143071428Y13742858D01*
X143023809Y13695239D01*
X142928571Y13647620D01*
X142642857Y13647620D01*
X142547619Y13695239D01*
X142500000Y13742858D01*
%TO.C,LED14*%
X120404761Y16497620D02*
X119928571Y16497620D01*
X119928571Y17497620D01*
X120738095Y17021429D02*
X121071428Y17021429D01*
X121214285Y16497620D02*
X120738095Y16497620D01*
X120738095Y17497620D01*
X121214285Y17497620D01*
X121642857Y16497620D02*
X121642857Y17497620D01*
X121880952Y17497620D01*
X122023809Y17450000D01*
X122119047Y17354762D01*
X122166666Y17259524D01*
X122214285Y17069048D01*
X122214285Y16926191D01*
X122166666Y16735715D01*
X122119047Y16640477D01*
X122023809Y16545239D01*
X121880952Y16497620D01*
X121642857Y16497620D01*
X123166666Y16497620D02*
X122595238Y16497620D01*
X122880952Y16497620D02*
X122880952Y17497620D01*
X122785714Y17354762D01*
X122690476Y17259524D01*
X122595238Y17211905D01*
X124023809Y17164286D02*
X124023809Y16497620D01*
X123785714Y17545239D02*
X123547619Y16830953D01*
X124166666Y16830953D01*
%TO.C,LED15*%
X101504761Y13547620D02*
X101028571Y13547620D01*
X101028571Y14547620D01*
X101838095Y14071429D02*
X102171428Y14071429D01*
X102314285Y13547620D02*
X101838095Y13547620D01*
X101838095Y14547620D01*
X102314285Y14547620D01*
X102742857Y13547620D02*
X102742857Y14547620D01*
X102980952Y14547620D01*
X103123809Y14500000D01*
X103219047Y14404762D01*
X103266666Y14309524D01*
X103314285Y14119048D01*
X103314285Y13976191D01*
X103266666Y13785715D01*
X103219047Y13690477D01*
X103123809Y13595239D01*
X102980952Y13547620D01*
X102742857Y13547620D01*
X104266666Y13547620D02*
X103695238Y13547620D01*
X103980952Y13547620D02*
X103980952Y14547620D01*
X103885714Y14404762D01*
X103790476Y14309524D01*
X103695238Y14261905D01*
X105171428Y14547620D02*
X104695238Y14547620D01*
X104647619Y14071429D01*
X104695238Y14119048D01*
X104790476Y14166667D01*
X105028571Y14166667D01*
X105123809Y14119048D01*
X105171428Y14071429D01*
X105219047Y13976191D01*
X105219047Y13738096D01*
X105171428Y13642858D01*
X105123809Y13595239D01*
X105028571Y13547620D01*
X104790476Y13547620D01*
X104695238Y13595239D01*
X104647619Y13642858D01*
%TO.C,LED16*%
X82404761Y13647620D02*
X81928571Y13647620D01*
X81928571Y14647620D01*
X82738095Y14171429D02*
X83071428Y14171429D01*
X83214285Y13647620D02*
X82738095Y13647620D01*
X82738095Y14647620D01*
X83214285Y14647620D01*
X83642857Y13647620D02*
X83642857Y14647620D01*
X83880952Y14647620D01*
X84023809Y14600000D01*
X84119047Y14504762D01*
X84166666Y14409524D01*
X84214285Y14219048D01*
X84214285Y14076191D01*
X84166666Y13885715D01*
X84119047Y13790477D01*
X84023809Y13695239D01*
X83880952Y13647620D01*
X83642857Y13647620D01*
X85166666Y13647620D02*
X84595238Y13647620D01*
X84880952Y13647620D02*
X84880952Y14647620D01*
X84785714Y14504762D01*
X84690476Y14409524D01*
X84595238Y14361905D01*
X86023809Y14647620D02*
X85833333Y14647620D01*
X85738095Y14600000D01*
X85690476Y14552381D01*
X85595238Y14409524D01*
X85547619Y14219048D01*
X85547619Y13838096D01*
X85595238Y13742858D01*
X85642857Y13695239D01*
X85738095Y13647620D01*
X85928571Y13647620D01*
X86023809Y13695239D01*
X86071428Y13742858D01*
X86119047Y13838096D01*
X86119047Y14076191D01*
X86071428Y14171429D01*
X86023809Y14219048D01*
X85928571Y14266667D01*
X85738095Y14266667D01*
X85642857Y14219048D01*
X85595238Y14171429D01*
X85547619Y14076191D01*
%TO.C,LED17*%
X63404761Y16047620D02*
X62928571Y16047620D01*
X62928571Y17047620D01*
X63738095Y16571429D02*
X64071428Y16571429D01*
X64214285Y16047620D02*
X63738095Y16047620D01*
X63738095Y17047620D01*
X64214285Y17047620D01*
X64642857Y16047620D02*
X64642857Y17047620D01*
X64880952Y17047620D01*
X65023809Y17000000D01*
X65119047Y16904762D01*
X65166666Y16809524D01*
X65214285Y16619048D01*
X65214285Y16476191D01*
X65166666Y16285715D01*
X65119047Y16190477D01*
X65023809Y16095239D01*
X64880952Y16047620D01*
X64642857Y16047620D01*
X66166666Y16047620D02*
X65595238Y16047620D01*
X65880952Y16047620D02*
X65880952Y17047620D01*
X65785714Y16904762D01*
X65690476Y16809524D01*
X65595238Y16761905D01*
X66500000Y17047620D02*
X67166666Y17047620D01*
X66738095Y16047620D01*
%TO.C,LED18*%
X44404761Y13797620D02*
X43928571Y13797620D01*
X43928571Y14797620D01*
X44738095Y14321429D02*
X45071428Y14321429D01*
X45214285Y13797620D02*
X44738095Y13797620D01*
X44738095Y14797620D01*
X45214285Y14797620D01*
X45642857Y13797620D02*
X45642857Y14797620D01*
X45880952Y14797620D01*
X46023809Y14750000D01*
X46119047Y14654762D01*
X46166666Y14559524D01*
X46214285Y14369048D01*
X46214285Y14226191D01*
X46166666Y14035715D01*
X46119047Y13940477D01*
X46023809Y13845239D01*
X45880952Y13797620D01*
X45642857Y13797620D01*
X47166666Y13797620D02*
X46595238Y13797620D01*
X46880952Y13797620D02*
X46880952Y14797620D01*
X46785714Y14654762D01*
X46690476Y14559524D01*
X46595238Y14511905D01*
X47738095Y14369048D02*
X47642857Y14416667D01*
X47595238Y14464286D01*
X47547619Y14559524D01*
X47547619Y14607143D01*
X47595238Y14702381D01*
X47642857Y14750000D01*
X47738095Y14797620D01*
X47928571Y14797620D01*
X48023809Y14750000D01*
X48071428Y14702381D01*
X48119047Y14607143D01*
X48119047Y14559524D01*
X48071428Y14464286D01*
X48023809Y14416667D01*
X47928571Y14369048D01*
X47738095Y14369048D01*
X47642857Y14321429D01*
X47595238Y14273810D01*
X47547619Y14178572D01*
X47547619Y13988096D01*
X47595238Y13892858D01*
X47642857Y13845239D01*
X47738095Y13797620D01*
X47928571Y13797620D01*
X48023809Y13845239D01*
X48071428Y13892858D01*
X48119047Y13988096D01*
X48119047Y14178572D01*
X48071428Y14273810D01*
X48023809Y14321429D01*
X47928571Y14369048D01*
%TO.C,LED19*%
X25404761Y13797620D02*
X24928571Y13797620D01*
X24928571Y14797620D01*
X25738095Y14321429D02*
X26071428Y14321429D01*
X26214285Y13797620D02*
X25738095Y13797620D01*
X25738095Y14797620D01*
X26214285Y14797620D01*
X26642857Y13797620D02*
X26642857Y14797620D01*
X26880952Y14797620D01*
X27023809Y14750000D01*
X27119047Y14654762D01*
X27166666Y14559524D01*
X27214285Y14369048D01*
X27214285Y14226191D01*
X27166666Y14035715D01*
X27119047Y13940477D01*
X27023809Y13845239D01*
X26880952Y13797620D01*
X26642857Y13797620D01*
X28166666Y13797620D02*
X27595238Y13797620D01*
X27880952Y13797620D02*
X27880952Y14797620D01*
X27785714Y14654762D01*
X27690476Y14559524D01*
X27595238Y14511905D01*
X28642857Y13797620D02*
X28833333Y13797620D01*
X28928571Y13845239D01*
X28976190Y13892858D01*
X29071428Y14035715D01*
X29119047Y14226191D01*
X29119047Y14607143D01*
X29071428Y14702381D01*
X29023809Y14750000D01*
X28928571Y14797620D01*
X28738095Y14797620D01*
X28642857Y14750000D01*
X28595238Y14702381D01*
X28547619Y14607143D01*
X28547619Y14369048D01*
X28595238Y14273810D01*
X28642857Y14226191D01*
X28738095Y14178572D01*
X28928571Y14178572D01*
X29023809Y14226191D01*
X29071428Y14273810D01*
X29119047Y14369048D01*
%TO.C,LED20*%
X6404761Y16497620D02*
X5928571Y16497620D01*
X5928571Y17497620D01*
X6738095Y17021429D02*
X7071428Y17021429D01*
X7214285Y16497620D02*
X6738095Y16497620D01*
X6738095Y17497620D01*
X7214285Y17497620D01*
X7642857Y16497620D02*
X7642857Y17497620D01*
X7880952Y17497620D01*
X8023809Y17450000D01*
X8119047Y17354762D01*
X8166666Y17259524D01*
X8214285Y17069048D01*
X8214285Y16926191D01*
X8166666Y16735715D01*
X8119047Y16640477D01*
X8023809Y16545239D01*
X7880952Y16497620D01*
X7642857Y16497620D01*
X8595238Y17402381D02*
X8642857Y17450000D01*
X8738095Y17497620D01*
X8976190Y17497620D01*
X9071428Y17450000D01*
X9119047Y17402381D01*
X9166666Y17307143D01*
X9166666Y17211905D01*
X9119047Y17069048D01*
X8547619Y16497620D01*
X9166666Y16497620D01*
X9785714Y17497620D02*
X9880952Y17497620D01*
X9976190Y17450000D01*
X10023809Y17402381D01*
X10071428Y17307143D01*
X10119047Y17116667D01*
X10119047Y16878572D01*
X10071428Y16688096D01*
X10023809Y16592858D01*
X9976190Y16545239D01*
X9880952Y16497620D01*
X9785714Y16497620D01*
X9690476Y16545239D01*
X9642857Y16592858D01*
X9595238Y16688096D01*
X9547619Y16878572D01*
X9547619Y17116667D01*
X9595238Y17307143D01*
X9642857Y17402381D01*
X9690476Y17450000D01*
X9785714Y17497620D01*
%TO.C,C2*%
X14133333Y10842858D02*
X14085714Y10795239D01*
X13942857Y10747620D01*
X13847619Y10747620D01*
X13704761Y10795239D01*
X13609523Y10890477D01*
X13561904Y10985715D01*
X13514285Y11176191D01*
X13514285Y11319048D01*
X13561904Y11509524D01*
X13609523Y11604762D01*
X13704761Y11700000D01*
X13847619Y11747620D01*
X13942857Y11747620D01*
X14085714Y11700000D01*
X14133333Y11652381D01*
X14514285Y11652381D02*
X14561904Y11700000D01*
X14657142Y11747620D01*
X14895238Y11747620D01*
X14990476Y11700000D01*
X15038095Y11652381D01*
X15085714Y11557143D01*
X15085714Y11461905D01*
X15038095Y11319048D01*
X14466666Y10747620D01*
X15085714Y10747620D01*
%TO.C,D1*%
X33552380Y9261905D02*
X32552380Y9261905D01*
X32552380Y9500000D01*
X32600000Y9642858D01*
X32695238Y9738096D01*
X32790476Y9785715D01*
X32980952Y9833334D01*
X33123809Y9833334D01*
X33314285Y9785715D01*
X33409523Y9738096D01*
X33504761Y9642858D01*
X33552380Y9500000D01*
X33552380Y9261905D01*
X33552380Y10785715D02*
X33552380Y10214286D01*
X33552380Y10500000D02*
X32552380Y10500000D01*
X32695238Y10404762D01*
X32790476Y10309524D01*
X32838095Y10214286D01*
%TO.C,J23*%
X36190476Y7947620D02*
X36190476Y7233334D01*
X36142857Y7090477D01*
X36047619Y6995239D01*
X35904761Y6947620D01*
X35809523Y6947620D01*
X36619047Y7852381D02*
X36666666Y7900000D01*
X36761904Y7947620D01*
X37000000Y7947620D01*
X37095238Y7900000D01*
X37142857Y7852381D01*
X37190476Y7757143D01*
X37190476Y7661905D01*
X37142857Y7519048D01*
X36571428Y6947620D01*
X37190476Y6947620D01*
X37523809Y7947620D02*
X38142857Y7947620D01*
X37809523Y7566667D01*
X37952380Y7566667D01*
X38047619Y7519048D01*
X38095238Y7471429D01*
X38142857Y7376191D01*
X38142857Y7138096D01*
X38095238Y7042858D01*
X38047619Y6995239D01*
X37952380Y6947620D01*
X37666666Y6947620D01*
X37571428Y6995239D01*
X37523809Y7042858D01*
%TO.C,C3*%
X113533333Y9142858D02*
X113485714Y9095239D01*
X113342857Y9047620D01*
X113247619Y9047620D01*
X113104761Y9095239D01*
X113009523Y9190477D01*
X112961904Y9285715D01*
X112914285Y9476191D01*
X112914285Y9619048D01*
X112961904Y9809524D01*
X113009523Y9904762D01*
X113104761Y10000000D01*
X113247619Y10047620D01*
X113342857Y10047620D01*
X113485714Y10000000D01*
X113533333Y9952381D01*
X113866666Y10047620D02*
X114485714Y10047620D01*
X114152380Y9666667D01*
X114295238Y9666667D01*
X114390476Y9619048D01*
X114438095Y9571429D01*
X114485714Y9476191D01*
X114485714Y9238096D01*
X114438095Y9142858D01*
X114390476Y9095239D01*
X114295238Y9047620D01*
X114009523Y9047620D01*
X113914285Y9095239D01*
X113866666Y9142858D01*
%TO.C,C4*%
X92908333Y3367858D02*
X92860714Y3320239D01*
X92717857Y3272620D01*
X92622619Y3272620D01*
X92479761Y3320239D01*
X92384523Y3415477D01*
X92336904Y3510715D01*
X92289285Y3701191D01*
X92289285Y3844048D01*
X92336904Y4034524D01*
X92384523Y4129762D01*
X92479761Y4225000D01*
X92622619Y4272620D01*
X92717857Y4272620D01*
X92860714Y4225000D01*
X92908333Y4177381D01*
X93765476Y3939286D02*
X93765476Y3272620D01*
X93527380Y4320239D02*
X93289285Y3605953D01*
X93908333Y3605953D01*
%TO.C,R29*%
X89052380Y6057143D02*
X88576190Y5723810D01*
X89052380Y5485715D02*
X88052380Y5485715D01*
X88052380Y5866667D01*
X88100000Y5961905D01*
X88147619Y6009524D01*
X88242857Y6057143D01*
X88385714Y6057143D01*
X88480952Y6009524D01*
X88528571Y5961905D01*
X88576190Y5866667D01*
X88576190Y5485715D01*
X88147619Y6438096D02*
X88100000Y6485715D01*
X88052380Y6580953D01*
X88052380Y6819048D01*
X88100000Y6914286D01*
X88147619Y6961905D01*
X88242857Y7009524D01*
X88338095Y7009524D01*
X88480952Y6961905D01*
X89052380Y6390477D01*
X89052380Y7009524D01*
X89052380Y7485715D02*
X89052380Y7676191D01*
X89004761Y7771429D01*
X88957142Y7819048D01*
X88814285Y7914286D01*
X88623809Y7961905D01*
X88242857Y7961905D01*
X88147619Y7914286D01*
X88100000Y7866667D01*
X88052380Y7771429D01*
X88052380Y7580953D01*
X88100000Y7485715D01*
X88147619Y7438096D01*
X88242857Y7390477D01*
X88480952Y7390477D01*
X88576190Y7438096D01*
X88623809Y7485715D01*
X88671428Y7580953D01*
X88671428Y7771429D01*
X88623809Y7866667D01*
X88576190Y7914286D01*
X88480952Y7961905D01*
%TO.C,U2*%
X92263095Y13722620D02*
X92263095Y12913096D01*
X92310714Y12817858D01*
X92358333Y12770239D01*
X92453571Y12722620D01*
X92644047Y12722620D01*
X92739285Y12770239D01*
X92786904Y12817858D01*
X92834523Y12913096D01*
X92834523Y13722620D01*
X93263095Y13627381D02*
X93310714Y13675000D01*
X93405952Y13722620D01*
X93644047Y13722620D01*
X93739285Y13675000D01*
X93786904Y13627381D01*
X93834523Y13532143D01*
X93834523Y13436905D01*
X93786904Y13294048D01*
X93215476Y12722620D01*
X93834523Y12722620D01*
%TO.C,C5*%
X131283333Y17192858D02*
X131235714Y17145239D01*
X131092857Y17097620D01*
X130997619Y17097620D01*
X130854761Y17145239D01*
X130759523Y17240477D01*
X130711904Y17335715D01*
X130664285Y17526191D01*
X130664285Y17669048D01*
X130711904Y17859524D01*
X130759523Y17954762D01*
X130854761Y18050000D01*
X130997619Y18097620D01*
X131092857Y18097620D01*
X131235714Y18050000D01*
X131283333Y18002381D01*
X132188095Y18097620D02*
X131711904Y18097620D01*
X131664285Y17621429D01*
X131711904Y17669048D01*
X131807142Y17716667D01*
X132045238Y17716667D01*
X132140476Y17669048D01*
X132188095Y17621429D01*
X132235714Y17526191D01*
X132235714Y17288096D01*
X132188095Y17192858D01*
X132140476Y17145239D01*
X132045238Y17097620D01*
X131807142Y17097620D01*
X131711904Y17145239D01*
X131664285Y17192858D01*
%TO.C,C6*%
X129183333Y10592858D02*
X129135714Y10545239D01*
X128992857Y10497620D01*
X128897619Y10497620D01*
X128754761Y10545239D01*
X128659523Y10640477D01*
X128611904Y10735715D01*
X128564285Y10926191D01*
X128564285Y11069048D01*
X128611904Y11259524D01*
X128659523Y11354762D01*
X128754761Y11450000D01*
X128897619Y11497620D01*
X128992857Y11497620D01*
X129135714Y11450000D01*
X129183333Y11402381D01*
X130040476Y11497620D02*
X129850000Y11497620D01*
X129754761Y11450000D01*
X129707142Y11402381D01*
X129611904Y11259524D01*
X129564285Y11069048D01*
X129564285Y10688096D01*
X129611904Y10592858D01*
X129659523Y10545239D01*
X129754761Y10497620D01*
X129945238Y10497620D01*
X130040476Y10545239D01*
X130088095Y10592858D01*
X130135714Y10688096D01*
X130135714Y10926191D01*
X130088095Y11021429D01*
X130040476Y11069048D01*
X129945238Y11116667D01*
X129754761Y11116667D01*
X129659523Y11069048D01*
X129611904Y11021429D01*
X129564285Y10926191D01*
%TO.C,C7*%
X130158333Y3542858D02*
X130110714Y3495239D01*
X129967857Y3447620D01*
X129872619Y3447620D01*
X129729761Y3495239D01*
X129634523Y3590477D01*
X129586904Y3685715D01*
X129539285Y3876191D01*
X129539285Y4019048D01*
X129586904Y4209524D01*
X129634523Y4304762D01*
X129729761Y4400000D01*
X129872619Y4447620D01*
X129967857Y4447620D01*
X130110714Y4400000D01*
X130158333Y4352381D01*
X130491666Y4447620D02*
X131158333Y4447620D01*
X130729761Y3447620D01*
%TO.C,C8*%
X153533333Y15542858D02*
X153485714Y15495239D01*
X153342857Y15447620D01*
X153247619Y15447620D01*
X153104761Y15495239D01*
X153009523Y15590477D01*
X152961904Y15685715D01*
X152914285Y15876191D01*
X152914285Y16019048D01*
X152961904Y16209524D01*
X153009523Y16304762D01*
X153104761Y16400000D01*
X153247619Y16447620D01*
X153342857Y16447620D01*
X153485714Y16400000D01*
X153533333Y16352381D01*
X154104761Y16019048D02*
X154009523Y16066667D01*
X153961904Y16114286D01*
X153914285Y16209524D01*
X153914285Y16257143D01*
X153961904Y16352381D01*
X154009523Y16400000D01*
X154104761Y16447620D01*
X154295238Y16447620D01*
X154390476Y16400000D01*
X154438095Y16352381D01*
X154485714Y16257143D01*
X154485714Y16209524D01*
X154438095Y16114286D01*
X154390476Y16066667D01*
X154295238Y16019048D01*
X154104761Y16019048D01*
X154009523Y15971429D01*
X153961904Y15923810D01*
X153914285Y15828572D01*
X153914285Y15638096D01*
X153961904Y15542858D01*
X154009523Y15495239D01*
X154104761Y15447620D01*
X154295238Y15447620D01*
X154390476Y15495239D01*
X154438095Y15542858D01*
X154485714Y15638096D01*
X154485714Y15828572D01*
X154438095Y15923810D01*
X154390476Y15971429D01*
X154295238Y16019048D01*
%TO.C,C9*%
X222383333Y17242858D02*
X222335714Y17195239D01*
X222192857Y17147620D01*
X222097619Y17147620D01*
X221954761Y17195239D01*
X221859523Y17290477D01*
X221811904Y17385715D01*
X221764285Y17576191D01*
X221764285Y17719048D01*
X221811904Y17909524D01*
X221859523Y18004762D01*
X221954761Y18100000D01*
X222097619Y18147620D01*
X222192857Y18147620D01*
X222335714Y18100000D01*
X222383333Y18052381D01*
X222859523Y17147620D02*
X223050000Y17147620D01*
X223145238Y17195239D01*
X223192857Y17242858D01*
X223288095Y17385715D01*
X223335714Y17576191D01*
X223335714Y17957143D01*
X223288095Y18052381D01*
X223240476Y18100000D01*
X223145238Y18147620D01*
X222954761Y18147620D01*
X222859523Y18100000D01*
X222811904Y18052381D01*
X222764285Y17957143D01*
X222764285Y17719048D01*
X222811904Y17623810D01*
X222859523Y17576191D01*
X222954761Y17528572D01*
X223145238Y17528572D01*
X223240476Y17576191D01*
X223288095Y17623810D01*
X223335714Y17719048D01*
%TO.C,C10*%
X222157142Y8257143D02*
X222204761Y8209524D01*
X222252380Y8066667D01*
X222252380Y7971429D01*
X222204761Y7828572D01*
X222109523Y7733334D01*
X222014285Y7685715D01*
X221823809Y7638096D01*
X221680952Y7638096D01*
X221490476Y7685715D01*
X221395238Y7733334D01*
X221300000Y7828572D01*
X221252380Y7971429D01*
X221252380Y8066667D01*
X221300000Y8209524D01*
X221347619Y8257143D01*
X222252380Y9209524D02*
X222252380Y8638096D01*
X222252380Y8923810D02*
X221252380Y8923810D01*
X221395238Y8828572D01*
X221490476Y8733334D01*
X221538095Y8638096D01*
X221252380Y9828572D02*
X221252380Y9923810D01*
X221300000Y10019048D01*
X221347619Y10066667D01*
X221442857Y10114286D01*
X221633333Y10161905D01*
X221871428Y10161905D01*
X222061904Y10114286D01*
X222157142Y10066667D01*
X222204761Y10019048D01*
X222252380Y9923810D01*
X222252380Y9828572D01*
X222204761Y9733334D01*
X222157142Y9685715D01*
X222061904Y9638096D01*
X221871428Y9590477D01*
X221633333Y9590477D01*
X221442857Y9638096D01*
X221347619Y9685715D01*
X221300000Y9733334D01*
X221252380Y9828572D01*
%TO.C,C11*%
X210257142Y15242858D02*
X210209523Y15195239D01*
X210066666Y15147620D01*
X209971428Y15147620D01*
X209828571Y15195239D01*
X209733333Y15290477D01*
X209685714Y15385715D01*
X209638095Y15576191D01*
X209638095Y15719048D01*
X209685714Y15909524D01*
X209733333Y16004762D01*
X209828571Y16100000D01*
X209971428Y16147620D01*
X210066666Y16147620D01*
X210209523Y16100000D01*
X210257142Y16052381D01*
X211209523Y15147620D02*
X210638095Y15147620D01*
X210923809Y15147620D02*
X210923809Y16147620D01*
X210828571Y16004762D01*
X210733333Y15909524D01*
X210638095Y15861905D01*
X212161904Y15147620D02*
X211590476Y15147620D01*
X211876190Y15147620D02*
X211876190Y16147620D01*
X211780952Y16004762D01*
X211685714Y15909524D01*
X211590476Y15861905D01*
%TO.C,C12*%
X225257142Y5042858D02*
X225209523Y4995239D01*
X225066666Y4947620D01*
X224971428Y4947620D01*
X224828571Y4995239D01*
X224733333Y5090477D01*
X224685714Y5185715D01*
X224638095Y5376191D01*
X224638095Y5519048D01*
X224685714Y5709524D01*
X224733333Y5804762D01*
X224828571Y5900000D01*
X224971428Y5947620D01*
X225066666Y5947620D01*
X225209523Y5900000D01*
X225257142Y5852381D01*
X226209523Y4947620D02*
X225638095Y4947620D01*
X225923809Y4947620D02*
X225923809Y5947620D01*
X225828571Y5804762D01*
X225733333Y5709524D01*
X225638095Y5661905D01*
X226590476Y5852381D02*
X226638095Y5900000D01*
X226733333Y5947620D01*
X226971428Y5947620D01*
X227066666Y5900000D01*
X227114285Y5852381D01*
X227161904Y5757143D01*
X227161904Y5661905D01*
X227114285Y5519048D01*
X226542857Y4947620D01*
X227161904Y4947620D01*
%TO.C,J29*%
X167370476Y12477620D02*
X167370476Y11763334D01*
X167322857Y11620477D01*
X167227619Y11525239D01*
X167084761Y11477620D01*
X166989523Y11477620D01*
X167799047Y12382381D02*
X167846666Y12430000D01*
X167941904Y12477620D01*
X168180000Y12477620D01*
X168275238Y12430000D01*
X168322857Y12382381D01*
X168370476Y12287143D01*
X168370476Y12191905D01*
X168322857Y12049048D01*
X167751428Y11477620D01*
X168370476Y11477620D01*
X168846666Y11477620D02*
X169037142Y11477620D01*
X169132380Y11525239D01*
X169180000Y11572858D01*
X169275238Y11715715D01*
X169322857Y11906191D01*
X169322857Y12287143D01*
X169275238Y12382381D01*
X169227619Y12430000D01*
X169132380Y12477620D01*
X168941904Y12477620D01*
X168846666Y12430000D01*
X168799047Y12382381D01*
X168751428Y12287143D01*
X168751428Y12049048D01*
X168799047Y11953810D01*
X168846666Y11906191D01*
X168941904Y11858572D01*
X169132380Y11858572D01*
X169227619Y11906191D01*
X169275238Y11953810D01*
X169322857Y12049048D01*
%TO.C,J31*%
X167370476Y16927620D02*
X167370476Y16213334D01*
X167322857Y16070477D01*
X167227619Y15975239D01*
X167084761Y15927620D01*
X166989523Y15927620D01*
X167751428Y16927620D02*
X168370476Y16927620D01*
X168037142Y16546667D01*
X168180000Y16546667D01*
X168275238Y16499048D01*
X168322857Y16451429D01*
X168370476Y16356191D01*
X168370476Y16118096D01*
X168322857Y16022858D01*
X168275238Y15975239D01*
X168180000Y15927620D01*
X167894285Y15927620D01*
X167799047Y15975239D01*
X167751428Y16022858D01*
X169322857Y15927620D02*
X168751428Y15927620D01*
X169037142Y15927620D02*
X169037142Y16927620D01*
X168941904Y16784762D01*
X168846666Y16689524D01*
X168751428Y16641905D01*
%TO.C,J32*%
X167370476Y8047620D02*
X167370476Y7333334D01*
X167322857Y7190477D01*
X167227619Y7095239D01*
X167084761Y7047620D01*
X166989523Y7047620D01*
X167751428Y8047620D02*
X168370476Y8047620D01*
X168037142Y7666667D01*
X168180000Y7666667D01*
X168275238Y7619048D01*
X168322857Y7571429D01*
X168370476Y7476191D01*
X168370476Y7238096D01*
X168322857Y7142858D01*
X168275238Y7095239D01*
X168180000Y7047620D01*
X167894285Y7047620D01*
X167799047Y7095239D01*
X167751428Y7142858D01*
X168751428Y7952381D02*
X168799047Y8000000D01*
X168894285Y8047620D01*
X169132380Y8047620D01*
X169227619Y8000000D01*
X169275238Y7952381D01*
X169322857Y7857143D01*
X169322857Y7761905D01*
X169275238Y7619048D01*
X168703809Y7047620D01*
X169322857Y7047620D01*
%TO.C,J35*%
X187840476Y12477620D02*
X187840476Y11763334D01*
X187792857Y11620477D01*
X187697619Y11525239D01*
X187554761Y11477620D01*
X187459523Y11477620D01*
X188221428Y12477620D02*
X188840476Y12477620D01*
X188507142Y12096667D01*
X188650000Y12096667D01*
X188745238Y12049048D01*
X188792857Y12001429D01*
X188840476Y11906191D01*
X188840476Y11668096D01*
X188792857Y11572858D01*
X188745238Y11525239D01*
X188650000Y11477620D01*
X188364285Y11477620D01*
X188269047Y11525239D01*
X188221428Y11572858D01*
X189745238Y12477620D02*
X189269047Y12477620D01*
X189221428Y12001429D01*
X189269047Y12049048D01*
X189364285Y12096667D01*
X189602380Y12096667D01*
X189697619Y12049048D01*
X189745238Y12001429D01*
X189792857Y11906191D01*
X189792857Y11668096D01*
X189745238Y11572858D01*
X189697619Y11525239D01*
X189602380Y11477620D01*
X189364285Y11477620D01*
X189269047Y11525239D01*
X189221428Y11572858D01*
%TO.C,J36*%
X187790476Y8027620D02*
X187790476Y7313334D01*
X187742857Y7170477D01*
X187647619Y7075239D01*
X187504761Y7027620D01*
X187409523Y7027620D01*
X188171428Y8027620D02*
X188790476Y8027620D01*
X188457142Y7646667D01*
X188600000Y7646667D01*
X188695238Y7599048D01*
X188742857Y7551429D01*
X188790476Y7456191D01*
X188790476Y7218096D01*
X188742857Y7122858D01*
X188695238Y7075239D01*
X188600000Y7027620D01*
X188314285Y7027620D01*
X188219047Y7075239D01*
X188171428Y7122858D01*
X189647619Y8027620D02*
X189457142Y8027620D01*
X189361904Y7980000D01*
X189314285Y7932381D01*
X189219047Y7789524D01*
X189171428Y7599048D01*
X189171428Y7218096D01*
X189219047Y7122858D01*
X189266666Y7075239D01*
X189361904Y7027620D01*
X189552380Y7027620D01*
X189647619Y7075239D01*
X189695238Y7122858D01*
X189742857Y7218096D01*
X189742857Y7456191D01*
X189695238Y7551429D01*
X189647619Y7599048D01*
X189552380Y7646667D01*
X189361904Y7646667D01*
X189266666Y7599048D01*
X189219047Y7551429D01*
X189171428Y7456191D01*
%TO.C,J38*%
X187840476Y16927620D02*
X187840476Y16213334D01*
X187792857Y16070477D01*
X187697619Y15975239D01*
X187554761Y15927620D01*
X187459523Y15927620D01*
X188221428Y16927620D02*
X188840476Y16927620D01*
X188507142Y16546667D01*
X188650000Y16546667D01*
X188745238Y16499048D01*
X188792857Y16451429D01*
X188840476Y16356191D01*
X188840476Y16118096D01*
X188792857Y16022858D01*
X188745238Y15975239D01*
X188650000Y15927620D01*
X188364285Y15927620D01*
X188269047Y15975239D01*
X188221428Y16022858D01*
X189411904Y16499048D02*
X189316666Y16546667D01*
X189269047Y16594286D01*
X189221428Y16689524D01*
X189221428Y16737143D01*
X189269047Y16832381D01*
X189316666Y16880000D01*
X189411904Y16927620D01*
X189602380Y16927620D01*
X189697619Y16880000D01*
X189745238Y16832381D01*
X189792857Y16737143D01*
X189792857Y16689524D01*
X189745238Y16594286D01*
X189697619Y16546667D01*
X189602380Y16499048D01*
X189411904Y16499048D01*
X189316666Y16451429D01*
X189269047Y16403810D01*
X189221428Y16308572D01*
X189221428Y16118096D01*
X189269047Y16022858D01*
X189316666Y15975239D01*
X189411904Y15927620D01*
X189602380Y15927620D01*
X189697619Y15975239D01*
X189745238Y16022858D01*
X189792857Y16118096D01*
X189792857Y16308572D01*
X189745238Y16403810D01*
X189697619Y16451429D01*
X189602380Y16499048D01*
%TO.C,J24*%
X73952380Y15890477D02*
X74666666Y15890477D01*
X74809523Y15842858D01*
X74904761Y15747620D01*
X74952380Y15604762D01*
X74952380Y15509524D01*
X74047619Y16319048D02*
X74000000Y16366667D01*
X73952380Y16461905D01*
X73952380Y16700000D01*
X74000000Y16795239D01*
X74047619Y16842858D01*
X74142857Y16890477D01*
X74238095Y16890477D01*
X74380952Y16842858D01*
X74952380Y16271429D01*
X74952380Y16890477D01*
X74285714Y17747620D02*
X74952380Y17747620D01*
X73904761Y17509524D02*
X74619047Y17271429D01*
X74619047Y17890477D01*
%TO.C,J21*%
X380572380Y15890477D02*
X381286666Y15890477D01*
X381429523Y15842858D01*
X381524761Y15747620D01*
X381572380Y15604762D01*
X381572380Y15509524D01*
X380667619Y16319048D02*
X380620000Y16366667D01*
X380572380Y16461905D01*
X380572380Y16700000D01*
X380620000Y16795239D01*
X380667619Y16842858D01*
X380762857Y16890477D01*
X380858095Y16890477D01*
X381000952Y16842858D01*
X381572380Y16271429D01*
X381572380Y16890477D01*
X381572380Y17842858D02*
X381572380Y17271429D01*
X381572380Y17557143D02*
X380572380Y17557143D01*
X380715238Y17461905D01*
X380810476Y17366667D01*
X380858095Y17271429D01*
%TO.C,U4*%
X149438095Y7797620D02*
X149438095Y6988096D01*
X149485714Y6892858D01*
X149533333Y6845239D01*
X149628571Y6797620D01*
X149819047Y6797620D01*
X149914285Y6845239D01*
X149961904Y6892858D01*
X150009523Y6988096D01*
X150009523Y7797620D01*
X150914285Y7464286D02*
X150914285Y6797620D01*
X150676190Y7845239D02*
X150438095Y7130953D01*
X151057142Y7130953D01*
%TO.C,U5*%
X206248095Y7659620D02*
X206248095Y6850096D01*
X206295714Y6754858D01*
X206343333Y6707239D01*
X206438571Y6659620D01*
X206629047Y6659620D01*
X206724285Y6707239D01*
X206771904Y6754858D01*
X206819523Y6850096D01*
X206819523Y7659620D01*
X207771904Y7659620D02*
X207295714Y7659620D01*
X207248095Y7183429D01*
X207295714Y7231048D01*
X207390952Y7278667D01*
X207629047Y7278667D01*
X207724285Y7231048D01*
X207771904Y7183429D01*
X207819523Y7088191D01*
X207819523Y6850096D01*
X207771904Y6754858D01*
X207724285Y6707239D01*
X207629047Y6659620D01*
X207390952Y6659620D01*
X207295714Y6707239D01*
X207248095Y6754858D01*
%TO.C,R1*%
X363833333Y15247620D02*
X363500000Y15723810D01*
X363261904Y15247620D02*
X363261904Y16247620D01*
X363642857Y16247620D01*
X363738095Y16200000D01*
X363785714Y16152381D01*
X363833333Y16057143D01*
X363833333Y15914286D01*
X363785714Y15819048D01*
X363738095Y15771429D01*
X363642857Y15723810D01*
X363261904Y15723810D01*
X364785714Y15247620D02*
X364214285Y15247620D01*
X364500000Y15247620D02*
X364500000Y16247620D01*
X364404761Y16104762D01*
X364309523Y16009524D01*
X364214285Y15961905D01*
%TO.C,R2*%
X344833333Y15247620D02*
X344500000Y15723810D01*
X344261904Y15247620D02*
X344261904Y16247620D01*
X344642857Y16247620D01*
X344738095Y16200000D01*
X344785714Y16152381D01*
X344833333Y16057143D01*
X344833333Y15914286D01*
X344785714Y15819048D01*
X344738095Y15771429D01*
X344642857Y15723810D01*
X344261904Y15723810D01*
X345214285Y16152381D02*
X345261904Y16200000D01*
X345357142Y16247620D01*
X345595238Y16247620D01*
X345690476Y16200000D01*
X345738095Y16152381D01*
X345785714Y16057143D01*
X345785714Y15961905D01*
X345738095Y15819048D01*
X345166666Y15247620D01*
X345785714Y15247620D01*
%TO.C,R3*%
X325833333Y15247620D02*
X325500000Y15723810D01*
X325261904Y15247620D02*
X325261904Y16247620D01*
X325642857Y16247620D01*
X325738095Y16200000D01*
X325785714Y16152381D01*
X325833333Y16057143D01*
X325833333Y15914286D01*
X325785714Y15819048D01*
X325738095Y15771429D01*
X325642857Y15723810D01*
X325261904Y15723810D01*
X326166666Y16247620D02*
X326785714Y16247620D01*
X326452380Y15866667D01*
X326595238Y15866667D01*
X326690476Y15819048D01*
X326738095Y15771429D01*
X326785714Y15676191D01*
X326785714Y15438096D01*
X326738095Y15342858D01*
X326690476Y15295239D01*
X326595238Y15247620D01*
X326309523Y15247620D01*
X326214285Y15295239D01*
X326166666Y15342858D01*
%TO.C,R4*%
X306833333Y15247620D02*
X306500000Y15723810D01*
X306261904Y15247620D02*
X306261904Y16247620D01*
X306642857Y16247620D01*
X306738095Y16200000D01*
X306785714Y16152381D01*
X306833333Y16057143D01*
X306833333Y15914286D01*
X306785714Y15819048D01*
X306738095Y15771429D01*
X306642857Y15723810D01*
X306261904Y15723810D01*
X307690476Y15914286D02*
X307690476Y15247620D01*
X307452380Y16295239D02*
X307214285Y15580953D01*
X307833333Y15580953D01*
%TO.C,R5*%
X287833333Y15247620D02*
X287500000Y15723810D01*
X287261904Y15247620D02*
X287261904Y16247620D01*
X287642857Y16247620D01*
X287738095Y16200000D01*
X287785714Y16152381D01*
X287833333Y16057143D01*
X287833333Y15914286D01*
X287785714Y15819048D01*
X287738095Y15771429D01*
X287642857Y15723810D01*
X287261904Y15723810D01*
X288738095Y16247620D02*
X288261904Y16247620D01*
X288214285Y15771429D01*
X288261904Y15819048D01*
X288357142Y15866667D01*
X288595238Y15866667D01*
X288690476Y15819048D01*
X288738095Y15771429D01*
X288785714Y15676191D01*
X288785714Y15438096D01*
X288738095Y15342858D01*
X288690476Y15295239D01*
X288595238Y15247620D01*
X288357142Y15247620D01*
X288261904Y15295239D01*
X288214285Y15342858D01*
%TO.C,R6*%
X268833333Y15247620D02*
X268500000Y15723810D01*
X268261904Y15247620D02*
X268261904Y16247620D01*
X268642857Y16247620D01*
X268738095Y16200000D01*
X268785714Y16152381D01*
X268833333Y16057143D01*
X268833333Y15914286D01*
X268785714Y15819048D01*
X268738095Y15771429D01*
X268642857Y15723810D01*
X268261904Y15723810D01*
X269690476Y16247620D02*
X269500000Y16247620D01*
X269404761Y16200000D01*
X269357142Y16152381D01*
X269261904Y16009524D01*
X269214285Y15819048D01*
X269214285Y15438096D01*
X269261904Y15342858D01*
X269309523Y15295239D01*
X269404761Y15247620D01*
X269595238Y15247620D01*
X269690476Y15295239D01*
X269738095Y15342858D01*
X269785714Y15438096D01*
X269785714Y15676191D01*
X269738095Y15771429D01*
X269690476Y15819048D01*
X269595238Y15866667D01*
X269404761Y15866667D01*
X269309523Y15819048D01*
X269261904Y15771429D01*
X269214285Y15676191D01*
%TO.C,R7*%
X249833333Y15247620D02*
X249500000Y15723810D01*
X249261904Y15247620D02*
X249261904Y16247620D01*
X249642857Y16247620D01*
X249738095Y16200000D01*
X249785714Y16152381D01*
X249833333Y16057143D01*
X249833333Y15914286D01*
X249785714Y15819048D01*
X249738095Y15771429D01*
X249642857Y15723810D01*
X249261904Y15723810D01*
X250166666Y16247620D02*
X250833333Y16247620D01*
X250404761Y15247620D01*
%TO.C,R8*%
X240633333Y14747620D02*
X240300000Y15223810D01*
X240061904Y14747620D02*
X240061904Y15747620D01*
X240442857Y15747620D01*
X240538095Y15700000D01*
X240585714Y15652381D01*
X240633333Y15557143D01*
X240633333Y15414286D01*
X240585714Y15319048D01*
X240538095Y15271429D01*
X240442857Y15223810D01*
X240061904Y15223810D01*
X241204761Y15319048D02*
X241109523Y15366667D01*
X241061904Y15414286D01*
X241014285Y15509524D01*
X241014285Y15557143D01*
X241061904Y15652381D01*
X241109523Y15700000D01*
X241204761Y15747620D01*
X241395238Y15747620D01*
X241490476Y15700000D01*
X241538095Y15652381D01*
X241585714Y15557143D01*
X241585714Y15509524D01*
X241538095Y15414286D01*
X241490476Y15366667D01*
X241395238Y15319048D01*
X241204761Y15319048D01*
X241109523Y15271429D01*
X241061904Y15223810D01*
X241014285Y15128572D01*
X241014285Y14938096D01*
X241061904Y14842858D01*
X241109523Y14795239D01*
X241204761Y14747620D01*
X241395238Y14747620D01*
X241490476Y14795239D01*
X241538095Y14842858D01*
X241585714Y14938096D01*
X241585714Y15128572D01*
X241538095Y15223810D01*
X241490476Y15271429D01*
X241395238Y15319048D01*
%TO.C,R9*%
X219533333Y9147620D02*
X219200000Y9623810D01*
X218961904Y9147620D02*
X218961904Y10147620D01*
X219342857Y10147620D01*
X219438095Y10100000D01*
X219485714Y10052381D01*
X219533333Y9957143D01*
X219533333Y9814286D01*
X219485714Y9719048D01*
X219438095Y9671429D01*
X219342857Y9623810D01*
X218961904Y9623810D01*
X220009523Y9147620D02*
X220200000Y9147620D01*
X220295238Y9195239D01*
X220342857Y9242858D01*
X220438095Y9385715D01*
X220485714Y9576191D01*
X220485714Y9957143D01*
X220438095Y10052381D01*
X220390476Y10100000D01*
X220295238Y10147620D01*
X220104761Y10147620D01*
X220009523Y10100000D01*
X219961904Y10052381D01*
X219914285Y9957143D01*
X219914285Y9719048D01*
X219961904Y9623810D01*
X220009523Y9576191D01*
X220104761Y9528572D01*
X220295238Y9528572D01*
X220390476Y9576191D01*
X220438095Y9623810D01*
X220485714Y9719048D01*
%TO.C,R10*%
X192287142Y14747620D02*
X191953809Y15223810D01*
X191715714Y14747620D02*
X191715714Y15747620D01*
X192096666Y15747620D01*
X192191904Y15700000D01*
X192239523Y15652381D01*
X192287142Y15557143D01*
X192287142Y15414286D01*
X192239523Y15319048D01*
X192191904Y15271429D01*
X192096666Y15223810D01*
X191715714Y15223810D01*
X193239523Y14747620D02*
X192668095Y14747620D01*
X192953809Y14747620D02*
X192953809Y15747620D01*
X192858571Y15604762D01*
X192763333Y15509524D01*
X192668095Y15461905D01*
X193858571Y15747620D02*
X193953809Y15747620D01*
X194049047Y15700000D01*
X194096666Y15652381D01*
X194144285Y15557143D01*
X194191904Y15366667D01*
X194191904Y15128572D01*
X194144285Y14938096D01*
X194096666Y14842858D01*
X194049047Y14795239D01*
X193953809Y14747620D01*
X193858571Y14747620D01*
X193763333Y14795239D01*
X193715714Y14842858D01*
X193668095Y14938096D01*
X193620476Y15128572D01*
X193620476Y15366667D01*
X193668095Y15557143D01*
X193715714Y15652381D01*
X193763333Y15700000D01*
X193858571Y15747620D01*
%TO.C,R11*%
X173652380Y7557143D02*
X173176190Y7223810D01*
X173652380Y6985715D02*
X172652380Y6985715D01*
X172652380Y7366667D01*
X172700000Y7461905D01*
X172747619Y7509524D01*
X172842857Y7557143D01*
X172985714Y7557143D01*
X173080952Y7509524D01*
X173128571Y7461905D01*
X173176190Y7366667D01*
X173176190Y6985715D01*
X173652380Y8509524D02*
X173652380Y7938096D01*
X173652380Y8223810D02*
X172652380Y8223810D01*
X172795238Y8128572D01*
X172890476Y8033334D01*
X172938095Y7938096D01*
X173652380Y9461905D02*
X173652380Y8890477D01*
X173652380Y9176191D02*
X172652380Y9176191D01*
X172795238Y9080953D01*
X172890476Y8985715D01*
X172938095Y8890477D01*
%TO.C,R12*%
X164157142Y14707620D02*
X163823809Y15183810D01*
X163585714Y14707620D02*
X163585714Y15707620D01*
X163966666Y15707620D01*
X164061904Y15660000D01*
X164109523Y15612381D01*
X164157142Y15517143D01*
X164157142Y15374286D01*
X164109523Y15279048D01*
X164061904Y15231429D01*
X163966666Y15183810D01*
X163585714Y15183810D01*
X165109523Y14707620D02*
X164538095Y14707620D01*
X164823809Y14707620D02*
X164823809Y15707620D01*
X164728571Y15564762D01*
X164633333Y15469524D01*
X164538095Y15421905D01*
X165490476Y15612381D02*
X165538095Y15660000D01*
X165633333Y15707620D01*
X165871428Y15707620D01*
X165966666Y15660000D01*
X166014285Y15612381D01*
X166061904Y15517143D01*
X166061904Y15421905D01*
X166014285Y15279048D01*
X165442857Y14707620D01*
X166061904Y14707620D01*
%TO.C,R13*%
X135857142Y9247620D02*
X135523809Y9723810D01*
X135285714Y9247620D02*
X135285714Y10247620D01*
X135666666Y10247620D01*
X135761904Y10200000D01*
X135809523Y10152381D01*
X135857142Y10057143D01*
X135857142Y9914286D01*
X135809523Y9819048D01*
X135761904Y9771429D01*
X135666666Y9723810D01*
X135285714Y9723810D01*
X136809523Y9247620D02*
X136238095Y9247620D01*
X136523809Y9247620D02*
X136523809Y10247620D01*
X136428571Y10104762D01*
X136333333Y10009524D01*
X136238095Y9961905D01*
X137142857Y10247620D02*
X137761904Y10247620D01*
X137428571Y9866667D01*
X137571428Y9866667D01*
X137666666Y9819048D01*
X137714285Y9771429D01*
X137761904Y9676191D01*
X137761904Y9438096D01*
X137714285Y9342858D01*
X137666666Y9295239D01*
X137571428Y9247620D01*
X137285714Y9247620D01*
X137190476Y9295239D01*
X137142857Y9342858D01*
%TO.C,R14*%
X116357142Y15247620D02*
X116023809Y15723810D01*
X115785714Y15247620D02*
X115785714Y16247620D01*
X116166666Y16247620D01*
X116261904Y16200000D01*
X116309523Y16152381D01*
X116357142Y16057143D01*
X116357142Y15914286D01*
X116309523Y15819048D01*
X116261904Y15771429D01*
X116166666Y15723810D01*
X115785714Y15723810D01*
X117309523Y15247620D02*
X116738095Y15247620D01*
X117023809Y15247620D02*
X117023809Y16247620D01*
X116928571Y16104762D01*
X116833333Y16009524D01*
X116738095Y15961905D01*
X118166666Y15914286D02*
X118166666Y15247620D01*
X117928571Y16295239D02*
X117690476Y15580953D01*
X118309523Y15580953D01*
%TO.C,R15*%
X107107142Y14647620D02*
X106773809Y15123810D01*
X106535714Y14647620D02*
X106535714Y15647620D01*
X106916666Y15647620D01*
X107011904Y15600000D01*
X107059523Y15552381D01*
X107107142Y15457143D01*
X107107142Y15314286D01*
X107059523Y15219048D01*
X107011904Y15171429D01*
X106916666Y15123810D01*
X106535714Y15123810D01*
X108059523Y14647620D02*
X107488095Y14647620D01*
X107773809Y14647620D02*
X107773809Y15647620D01*
X107678571Y15504762D01*
X107583333Y15409524D01*
X107488095Y15361905D01*
X108964285Y15647620D02*
X108488095Y15647620D01*
X108440476Y15171429D01*
X108488095Y15219048D01*
X108583333Y15266667D01*
X108821428Y15266667D01*
X108916666Y15219048D01*
X108964285Y15171429D01*
X109011904Y15076191D01*
X109011904Y14838096D01*
X108964285Y14742858D01*
X108916666Y14695239D01*
X108821428Y14647620D01*
X108583333Y14647620D01*
X108488095Y14695239D01*
X108440476Y14742858D01*
%TO.C,R16*%
X79657142Y14747620D02*
X79323809Y15223810D01*
X79085714Y14747620D02*
X79085714Y15747620D01*
X79466666Y15747620D01*
X79561904Y15700000D01*
X79609523Y15652381D01*
X79657142Y15557143D01*
X79657142Y15414286D01*
X79609523Y15319048D01*
X79561904Y15271429D01*
X79466666Y15223810D01*
X79085714Y15223810D01*
X80609523Y14747620D02*
X80038095Y14747620D01*
X80323809Y14747620D02*
X80323809Y15747620D01*
X80228571Y15604762D01*
X80133333Y15509524D01*
X80038095Y15461905D01*
X81466666Y15747620D02*
X81276190Y15747620D01*
X81180952Y15700000D01*
X81133333Y15652381D01*
X81038095Y15509524D01*
X80990476Y15319048D01*
X80990476Y14938096D01*
X81038095Y14842858D01*
X81085714Y14795239D01*
X81180952Y14747620D01*
X81371428Y14747620D01*
X81466666Y14795239D01*
X81514285Y14842858D01*
X81561904Y14938096D01*
X81561904Y15176191D01*
X81514285Y15271429D01*
X81466666Y15319048D01*
X81371428Y15366667D01*
X81180952Y15366667D01*
X81085714Y15319048D01*
X81038095Y15271429D01*
X80990476Y15176191D01*
%TO.C,R17*%
X59357142Y15247620D02*
X59023809Y15723810D01*
X58785714Y15247620D02*
X58785714Y16247620D01*
X59166666Y16247620D01*
X59261904Y16200000D01*
X59309523Y16152381D01*
X59357142Y16057143D01*
X59357142Y15914286D01*
X59309523Y15819048D01*
X59261904Y15771429D01*
X59166666Y15723810D01*
X58785714Y15723810D01*
X60309523Y15247620D02*
X59738095Y15247620D01*
X60023809Y15247620D02*
X60023809Y16247620D01*
X59928571Y16104762D01*
X59833333Y16009524D01*
X59738095Y15961905D01*
X60642857Y16247620D02*
X61309523Y16247620D01*
X60880952Y15247620D01*
%TO.C,R18*%
X40357142Y15247620D02*
X40023809Y15723810D01*
X39785714Y15247620D02*
X39785714Y16247620D01*
X40166666Y16247620D01*
X40261904Y16200000D01*
X40309523Y16152381D01*
X40357142Y16057143D01*
X40357142Y15914286D01*
X40309523Y15819048D01*
X40261904Y15771429D01*
X40166666Y15723810D01*
X39785714Y15723810D01*
X41309523Y15247620D02*
X40738095Y15247620D01*
X41023809Y15247620D02*
X41023809Y16247620D01*
X40928571Y16104762D01*
X40833333Y16009524D01*
X40738095Y15961905D01*
X41880952Y15819048D02*
X41785714Y15866667D01*
X41738095Y15914286D01*
X41690476Y16009524D01*
X41690476Y16057143D01*
X41738095Y16152381D01*
X41785714Y16200000D01*
X41880952Y16247620D01*
X42071428Y16247620D01*
X42166666Y16200000D01*
X42214285Y16152381D01*
X42261904Y16057143D01*
X42261904Y16009524D01*
X42214285Y15914286D01*
X42166666Y15866667D01*
X42071428Y15819048D01*
X41880952Y15819048D01*
X41785714Y15771429D01*
X41738095Y15723810D01*
X41690476Y15628572D01*
X41690476Y15438096D01*
X41738095Y15342858D01*
X41785714Y15295239D01*
X41880952Y15247620D01*
X42071428Y15247620D01*
X42166666Y15295239D01*
X42214285Y15342858D01*
X42261904Y15438096D01*
X42261904Y15628572D01*
X42214285Y15723810D01*
X42166666Y15771429D01*
X42071428Y15819048D01*
%TO.C,R19*%
X21357142Y15247620D02*
X21023809Y15723810D01*
X20785714Y15247620D02*
X20785714Y16247620D01*
X21166666Y16247620D01*
X21261904Y16200000D01*
X21309523Y16152381D01*
X21357142Y16057143D01*
X21357142Y15914286D01*
X21309523Y15819048D01*
X21261904Y15771429D01*
X21166666Y15723810D01*
X20785714Y15723810D01*
X22309523Y15247620D02*
X21738095Y15247620D01*
X22023809Y15247620D02*
X22023809Y16247620D01*
X21928571Y16104762D01*
X21833333Y16009524D01*
X21738095Y15961905D01*
X22785714Y15247620D02*
X22976190Y15247620D01*
X23071428Y15295239D01*
X23119047Y15342858D01*
X23214285Y15485715D01*
X23261904Y15676191D01*
X23261904Y16057143D01*
X23214285Y16152381D01*
X23166666Y16200000D01*
X23071428Y16247620D01*
X22880952Y16247620D01*
X22785714Y16200000D01*
X22738095Y16152381D01*
X22690476Y16057143D01*
X22690476Y15819048D01*
X22738095Y15723810D01*
X22785714Y15676191D01*
X22880952Y15628572D01*
X23071428Y15628572D01*
X23166666Y15676191D01*
X23214285Y15723810D01*
X23261904Y15819048D01*
%TO.C,R20*%
X2357142Y15247620D02*
X2023809Y15723810D01*
X1785714Y15247620D02*
X1785714Y16247620D01*
X2166666Y16247620D01*
X2261904Y16200000D01*
X2309523Y16152381D01*
X2357142Y16057143D01*
X2357142Y15914286D01*
X2309523Y15819048D01*
X2261904Y15771429D01*
X2166666Y15723810D01*
X1785714Y15723810D01*
X2738095Y16152381D02*
X2785714Y16200000D01*
X2880952Y16247620D01*
X3119047Y16247620D01*
X3214285Y16200000D01*
X3261904Y16152381D01*
X3309523Y16057143D01*
X3309523Y15961905D01*
X3261904Y15819048D01*
X2690476Y15247620D01*
X3309523Y15247620D01*
X3928571Y16247620D02*
X4023809Y16247620D01*
X4119047Y16200000D01*
X4166666Y16152381D01*
X4214285Y16057143D01*
X4261904Y15866667D01*
X4261904Y15628572D01*
X4214285Y15438096D01*
X4166666Y15342858D01*
X4119047Y15295239D01*
X4023809Y15247620D01*
X3928571Y15247620D01*
X3833333Y15295239D01*
X3785714Y15342858D01*
X3738095Y15438096D01*
X3690476Y15628572D01*
X3690476Y15866667D01*
X3738095Y16057143D01*
X3785714Y16152381D01*
X3833333Y16200000D01*
X3928571Y16247620D01*
%TO.C,R21*%
X381992380Y2057143D02*
X381516190Y1723810D01*
X381992380Y1485715D02*
X380992380Y1485715D01*
X380992380Y1866667D01*
X381040000Y1961905D01*
X381087619Y2009524D01*
X381182857Y2057143D01*
X381325714Y2057143D01*
X381420952Y2009524D01*
X381468571Y1961905D01*
X381516190Y1866667D01*
X381516190Y1485715D01*
X381087619Y2438096D02*
X381040000Y2485715D01*
X380992380Y2580953D01*
X380992380Y2819048D01*
X381040000Y2914286D01*
X381087619Y2961905D01*
X381182857Y3009524D01*
X381278095Y3009524D01*
X381420952Y2961905D01*
X381992380Y2390477D01*
X381992380Y3009524D01*
X381992380Y3961905D02*
X381992380Y3390477D01*
X381992380Y3676191D02*
X380992380Y3676191D01*
X381135238Y3580953D01*
X381230476Y3485715D01*
X381278095Y3390477D01*
%TO.C,R22*%
X374752380Y16057143D02*
X374276190Y15723810D01*
X374752380Y15485715D02*
X373752380Y15485715D01*
X373752380Y15866667D01*
X373800000Y15961905D01*
X373847619Y16009524D01*
X373942857Y16057143D01*
X374085714Y16057143D01*
X374180952Y16009524D01*
X374228571Y15961905D01*
X374276190Y15866667D01*
X374276190Y15485715D01*
X373847619Y16438096D02*
X373800000Y16485715D01*
X373752380Y16580953D01*
X373752380Y16819048D01*
X373800000Y16914286D01*
X373847619Y16961905D01*
X373942857Y17009524D01*
X374038095Y17009524D01*
X374180952Y16961905D01*
X374752380Y16390477D01*
X374752380Y17009524D01*
X373847619Y17390477D02*
X373800000Y17438096D01*
X373752380Y17533334D01*
X373752380Y17771429D01*
X373800000Y17866667D01*
X373847619Y17914286D01*
X373942857Y17961905D01*
X374038095Y17961905D01*
X374180952Y17914286D01*
X374752380Y17342858D01*
X374752380Y17961905D01*
%TO.C,R23*%
X337152380Y16057143D02*
X336676190Y15723810D01*
X337152380Y15485715D02*
X336152380Y15485715D01*
X336152380Y15866667D01*
X336200000Y15961905D01*
X336247619Y16009524D01*
X336342857Y16057143D01*
X336485714Y16057143D01*
X336580952Y16009524D01*
X336628571Y15961905D01*
X336676190Y15866667D01*
X336676190Y15485715D01*
X336247619Y16438096D02*
X336200000Y16485715D01*
X336152380Y16580953D01*
X336152380Y16819048D01*
X336200000Y16914286D01*
X336247619Y16961905D01*
X336342857Y17009524D01*
X336438095Y17009524D01*
X336580952Y16961905D01*
X337152380Y16390477D01*
X337152380Y17009524D01*
X336152380Y17342858D02*
X336152380Y17961905D01*
X336533333Y17628572D01*
X336533333Y17771429D01*
X336580952Y17866667D01*
X336628571Y17914286D01*
X336723809Y17961905D01*
X336961904Y17961905D01*
X337057142Y17914286D01*
X337104761Y17866667D01*
X337152380Y17771429D01*
X337152380Y17485715D01*
X337104761Y17390477D01*
X337057142Y17342858D01*
%TO.C,R24*%
X305912380Y16057143D02*
X305436190Y15723810D01*
X305912380Y15485715D02*
X304912380Y15485715D01*
X304912380Y15866667D01*
X304960000Y15961905D01*
X305007619Y16009524D01*
X305102857Y16057143D01*
X305245714Y16057143D01*
X305340952Y16009524D01*
X305388571Y15961905D01*
X305436190Y15866667D01*
X305436190Y15485715D01*
X305007619Y16438096D02*
X304960000Y16485715D01*
X304912380Y16580953D01*
X304912380Y16819048D01*
X304960000Y16914286D01*
X305007619Y16961905D01*
X305102857Y17009524D01*
X305198095Y17009524D01*
X305340952Y16961905D01*
X305912380Y16390477D01*
X305912380Y17009524D01*
X305245714Y17866667D02*
X305912380Y17866667D01*
X304864761Y17628572D02*
X305579047Y17390477D01*
X305579047Y18009524D01*
%TO.C,R25*%
X267912380Y16057143D02*
X267436190Y15723810D01*
X267912380Y15485715D02*
X266912380Y15485715D01*
X266912380Y15866667D01*
X266960000Y15961905D01*
X267007619Y16009524D01*
X267102857Y16057143D01*
X267245714Y16057143D01*
X267340952Y16009524D01*
X267388571Y15961905D01*
X267436190Y15866667D01*
X267436190Y15485715D01*
X267007619Y16438096D02*
X266960000Y16485715D01*
X266912380Y16580953D01*
X266912380Y16819048D01*
X266960000Y16914286D01*
X267007619Y16961905D01*
X267102857Y17009524D01*
X267198095Y17009524D01*
X267340952Y16961905D01*
X267912380Y16390477D01*
X267912380Y17009524D01*
X266912380Y17914286D02*
X266912380Y17438096D01*
X267388571Y17390477D01*
X267340952Y17438096D01*
X267293333Y17533334D01*
X267293333Y17771429D01*
X267340952Y17866667D01*
X267388571Y17914286D01*
X267483809Y17961905D01*
X267721904Y17961905D01*
X267817142Y17914286D01*
X267864761Y17866667D01*
X267912380Y17771429D01*
X267912380Y17533334D01*
X267864761Y17438096D01*
X267817142Y17390477D01*
%TO.C,R26*%
X53657142Y14747620D02*
X53323809Y15223810D01*
X53085714Y14747620D02*
X53085714Y15747620D01*
X53466666Y15747620D01*
X53561904Y15700000D01*
X53609523Y15652381D01*
X53657142Y15557143D01*
X53657142Y15414286D01*
X53609523Y15319048D01*
X53561904Y15271429D01*
X53466666Y15223810D01*
X53085714Y15223810D01*
X54038095Y15652381D02*
X54085714Y15700000D01*
X54180952Y15747620D01*
X54419047Y15747620D01*
X54514285Y15700000D01*
X54561904Y15652381D01*
X54609523Y15557143D01*
X54609523Y15461905D01*
X54561904Y15319048D01*
X53990476Y14747620D01*
X54609523Y14747620D01*
X55466666Y15747620D02*
X55276190Y15747620D01*
X55180952Y15700000D01*
X55133333Y15652381D01*
X55038095Y15509524D01*
X54990476Y15319048D01*
X54990476Y14938096D01*
X55038095Y14842858D01*
X55085714Y14795239D01*
X55180952Y14747620D01*
X55371428Y14747620D01*
X55466666Y14795239D01*
X55514285Y14842858D01*
X55561904Y14938096D01*
X55561904Y15176191D01*
X55514285Y15271429D01*
X55466666Y15319048D01*
X55371428Y15366667D01*
X55180952Y15366667D01*
X55085714Y15319048D01*
X55038095Y15271429D01*
X54990476Y15176191D01*
%TO.C,R27*%
X15807142Y15047620D02*
X15473809Y15523810D01*
X15235714Y15047620D02*
X15235714Y16047620D01*
X15616666Y16047620D01*
X15711904Y16000000D01*
X15759523Y15952381D01*
X15807142Y15857143D01*
X15807142Y15714286D01*
X15759523Y15619048D01*
X15711904Y15571429D01*
X15616666Y15523810D01*
X15235714Y15523810D01*
X16188095Y15952381D02*
X16235714Y16000000D01*
X16330952Y16047620D01*
X16569047Y16047620D01*
X16664285Y16000000D01*
X16711904Y15952381D01*
X16759523Y15857143D01*
X16759523Y15761905D01*
X16711904Y15619048D01*
X16140476Y15047620D01*
X16759523Y15047620D01*
X17092857Y16047620D02*
X17759523Y16047620D01*
X17330952Y15047620D01*
%TO.C,R28*%
X111557142Y15597620D02*
X111223809Y16073810D01*
X110985714Y15597620D02*
X110985714Y16597620D01*
X111366666Y16597620D01*
X111461904Y16550000D01*
X111509523Y16502381D01*
X111557142Y16407143D01*
X111557142Y16264286D01*
X111509523Y16169048D01*
X111461904Y16121429D01*
X111366666Y16073810D01*
X110985714Y16073810D01*
X111938095Y16502381D02*
X111985714Y16550000D01*
X112080952Y16597620D01*
X112319047Y16597620D01*
X112414285Y16550000D01*
X112461904Y16502381D01*
X112509523Y16407143D01*
X112509523Y16311905D01*
X112461904Y16169048D01*
X111890476Y15597620D01*
X112509523Y15597620D01*
X113080952Y16169048D02*
X112985714Y16216667D01*
X112938095Y16264286D01*
X112890476Y16359524D01*
X112890476Y16407143D01*
X112938095Y16502381D01*
X112985714Y16550000D01*
X113080952Y16597620D01*
X113271428Y16597620D01*
X113366666Y16550000D01*
X113414285Y16502381D01*
X113461904Y16407143D01*
X113461904Y16359524D01*
X113414285Y16264286D01*
X113366666Y16216667D01*
X113271428Y16169048D01*
X113080952Y16169048D01*
X112985714Y16121429D01*
X112938095Y16073810D01*
X112890476Y15978572D01*
X112890476Y15788096D01*
X112938095Y15692858D01*
X112985714Y15645239D01*
X113080952Y15597620D01*
X113271428Y15597620D01*
X113366666Y15645239D01*
X113414285Y15692858D01*
X113461904Y15788096D01*
X113461904Y15978572D01*
X113414285Y16073810D01*
X113366666Y16121429D01*
X113271428Y16169048D01*
%TO.C,R30*%
X126657142Y16347620D02*
X126323809Y16823810D01*
X126085714Y16347620D02*
X126085714Y17347620D01*
X126466666Y17347620D01*
X126561904Y17300000D01*
X126609523Y17252381D01*
X126657142Y17157143D01*
X126657142Y17014286D01*
X126609523Y16919048D01*
X126561904Y16871429D01*
X126466666Y16823810D01*
X126085714Y16823810D01*
X126990476Y17347620D02*
X127609523Y17347620D01*
X127276190Y16966667D01*
X127419047Y16966667D01*
X127514285Y16919048D01*
X127561904Y16871429D01*
X127609523Y16776191D01*
X127609523Y16538096D01*
X127561904Y16442858D01*
X127514285Y16395239D01*
X127419047Y16347620D01*
X127133333Y16347620D01*
X127038095Y16395239D01*
X126990476Y16442858D01*
X128228571Y17347620D02*
X128323809Y17347620D01*
X128419047Y17300000D01*
X128466666Y17252381D01*
X128514285Y17157143D01*
X128561904Y16966667D01*
X128561904Y16728572D01*
X128514285Y16538096D01*
X128466666Y16442858D01*
X128419047Y16395239D01*
X128323809Y16347620D01*
X128228571Y16347620D01*
X128133333Y16395239D01*
X128085714Y16442858D01*
X128038095Y16538096D01*
X127990476Y16728572D01*
X127990476Y16966667D01*
X128038095Y17157143D01*
X128085714Y17252381D01*
X128133333Y17300000D01*
X128228571Y17347620D01*
%TO.C,R31*%
X126652380Y6257143D02*
X126176190Y5923810D01*
X126652380Y5685715D02*
X125652380Y5685715D01*
X125652380Y6066667D01*
X125700000Y6161905D01*
X125747619Y6209524D01*
X125842857Y6257143D01*
X125985714Y6257143D01*
X126080952Y6209524D01*
X126128571Y6161905D01*
X126176190Y6066667D01*
X126176190Y5685715D01*
X125652380Y6590477D02*
X125652380Y7209524D01*
X126033333Y6876191D01*
X126033333Y7019048D01*
X126080952Y7114286D01*
X126128571Y7161905D01*
X126223809Y7209524D01*
X126461904Y7209524D01*
X126557142Y7161905D01*
X126604761Y7114286D01*
X126652380Y7019048D01*
X126652380Y6733334D01*
X126604761Y6638096D01*
X126557142Y6590477D01*
X126652380Y8161905D02*
X126652380Y7590477D01*
X126652380Y7876191D02*
X125652380Y7876191D01*
X125795238Y7780953D01*
X125890476Y7685715D01*
X125938095Y7590477D01*
%TO.C,R32*%
X229057142Y12347620D02*
X228723809Y12823810D01*
X228485714Y12347620D02*
X228485714Y13347620D01*
X228866666Y13347620D01*
X228961904Y13300000D01*
X229009523Y13252381D01*
X229057142Y13157143D01*
X229057142Y13014286D01*
X229009523Y12919048D01*
X228961904Y12871429D01*
X228866666Y12823810D01*
X228485714Y12823810D01*
X229390476Y13347620D02*
X230009523Y13347620D01*
X229676190Y12966667D01*
X229819047Y12966667D01*
X229914285Y12919048D01*
X229961904Y12871429D01*
X230009523Y12776191D01*
X230009523Y12538096D01*
X229961904Y12442858D01*
X229914285Y12395239D01*
X229819047Y12347620D01*
X229533333Y12347620D01*
X229438095Y12395239D01*
X229390476Y12442858D01*
X230390476Y13252381D02*
X230438095Y13300000D01*
X230533333Y13347620D01*
X230771428Y13347620D01*
X230866666Y13300000D01*
X230914285Y13252381D01*
X230961904Y13157143D01*
X230961904Y13061905D01*
X230914285Y12919048D01*
X230342857Y12347620D01*
X230961904Y12347620D01*
%TO.C,R33*%
X231052380Y5357143D02*
X230576190Y5023810D01*
X231052380Y4785715D02*
X230052380Y4785715D01*
X230052380Y5166667D01*
X230100000Y5261905D01*
X230147619Y5309524D01*
X230242857Y5357143D01*
X230385714Y5357143D01*
X230480952Y5309524D01*
X230528571Y5261905D01*
X230576190Y5166667D01*
X230576190Y4785715D01*
X230052380Y5690477D02*
X230052380Y6309524D01*
X230433333Y5976191D01*
X230433333Y6119048D01*
X230480952Y6214286D01*
X230528571Y6261905D01*
X230623809Y6309524D01*
X230861904Y6309524D01*
X230957142Y6261905D01*
X231004761Y6214286D01*
X231052380Y6119048D01*
X231052380Y5833334D01*
X231004761Y5738096D01*
X230957142Y5690477D01*
X230052380Y6642858D02*
X230052380Y7261905D01*
X230433333Y6928572D01*
X230433333Y7071429D01*
X230480952Y7166667D01*
X230528571Y7214286D01*
X230623809Y7261905D01*
X230861904Y7261905D01*
X230957142Y7214286D01*
X231004761Y7166667D01*
X231052380Y7071429D01*
X231052380Y6785715D01*
X231004761Y6690477D01*
X230957142Y6642858D01*
%TO.C,J22*%
X36190476Y17047620D02*
X36190476Y16333334D01*
X36142857Y16190477D01*
X36047619Y16095239D01*
X35904761Y16047620D01*
X35809523Y16047620D01*
X36619047Y16952381D02*
X36666666Y17000000D01*
X36761904Y17047620D01*
X37000000Y17047620D01*
X37095238Y17000000D01*
X37142857Y16952381D01*
X37190476Y16857143D01*
X37190476Y16761905D01*
X37142857Y16619048D01*
X36571428Y16047620D01*
X37190476Y16047620D01*
X37571428Y16952381D02*
X37619047Y17000000D01*
X37714285Y17047620D01*
X37952380Y17047620D01*
X38047619Y17000000D01*
X38095238Y16952381D01*
X38142857Y16857143D01*
X38142857Y16761905D01*
X38095238Y16619048D01*
X37523809Y16047620D01*
X38142857Y16047620D01*
%TO.C,J27*%
X36190476Y12547620D02*
X36190476Y11833334D01*
X36142857Y11690477D01*
X36047619Y11595239D01*
X35904761Y11547620D01*
X35809523Y11547620D01*
X36619047Y12452381D02*
X36666666Y12500000D01*
X36761904Y12547620D01*
X37000000Y12547620D01*
X37095238Y12500000D01*
X37142857Y12452381D01*
X37190476Y12357143D01*
X37190476Y12261905D01*
X37142857Y12119048D01*
X36571428Y11547620D01*
X37190476Y11547620D01*
X37523809Y12547620D02*
X38190476Y12547620D01*
X37761904Y11547620D01*
%TD*%
M02*
