%TF.GenerationSoftware,KiCad,Pcbnew,(5.1.5)-3*%
%TF.CreationDate,2020-03-29T09:47:47+02:00*%
%TF.ProjectId,Larson SC64anner,4c617273-6f6e-4205-9343-3634616e6e65,rev?*%
%TF.SameCoordinates,PX1ba8140PY2625a00*%
%TF.FileFunction,Plated,1,2,PTH,Drill*%
%TF.FilePolarity,Positive*%
%FSLAX46Y46*%
G04 Gerber Fmt 4.6, Leading zero omitted, Abs format (unit mm)*
G04 Created by KiCad (PCBNEW (5.1.5)-3) date 2020-03-29 09:47:47*
%MOMM*%
%LPD*%
G04 APERTURE LIST*
%TA.AperFunction,ViaDrill*%
%ADD10C,0.350000*%
%TD*%
%TA.AperFunction,ViaDrill*%
%ADD11C,0.400000*%
%TD*%
%TA.AperFunction,ComponentDrill*%
%ADD12C,0.750000*%
%TD*%
%TA.AperFunction,ComponentDrill*%
%ADD13C,0.800000*%
%TD*%
%TA.AperFunction,ComponentDrill*%
%ADD14C,1.000000*%
%TD*%
G04 APERTURE END LIST*
D10*
X102475000Y2325000D03*
X158857000Y9243000D03*
X177857000Y9343000D03*
X196857000Y9243000D03*
X220700000Y10300000D03*
X302000000Y13000000D03*
X303000000Y2700000D03*
X312650000Y17850000D03*
X363000000Y8700000D03*
D11*
X51600000Y3700000D03*
X73300000Y8300000D03*
X75900000Y11300000D03*
X76700000Y9600000D03*
X156900000Y17300000D03*
X157300000Y10300000D03*
X170700000Y13200000D03*
X170700000Y9300000D03*
X186200000Y11700000D03*
X203882843Y15782843D03*
X204000000Y14000000D03*
X210200000Y15700000D03*
X212900000Y16600000D03*
D12*
%TO.C,LED13*%
X138206000Y12700000D03*
X139857000Y12700000D03*
X141508000Y12700000D03*
X143159000Y12700000D03*
%TO.C,LED3*%
X328206000Y12700000D03*
X329857000Y12700000D03*
X331508000Y12700000D03*
X333159000Y12700000D03*
%TO.C,LED19*%
X24206000Y12700000D03*
X25857000Y12700000D03*
X27508000Y12700000D03*
X29159000Y12700000D03*
%TO.C,LED12*%
X157206000Y12700000D03*
X158857000Y12700000D03*
X160508000Y12700000D03*
X162159000Y12700000D03*
%TO.C,LED4*%
X309206000Y12700000D03*
X310857000Y12700000D03*
X312508000Y12700000D03*
X314159000Y12700000D03*
%TO.C,LED10*%
X195206000Y12700000D03*
X196857000Y12700000D03*
X198508000Y12700000D03*
X200159000Y12700000D03*
%TO.C,LED2*%
X347206000Y12700000D03*
X348857000Y12700000D03*
X350508000Y12700000D03*
X352159000Y12700000D03*
%TO.C,LED1*%
X366206000Y12700000D03*
X367857000Y12700000D03*
X369508000Y12700000D03*
X371159000Y12700000D03*
%TO.C,LED6*%
X271206000Y12700000D03*
X272857000Y12700000D03*
X274508000Y12700000D03*
X276159000Y12700000D03*
%TO.C,LED8*%
X233206000Y12700000D03*
X234857000Y12700000D03*
X236508000Y12700000D03*
X238159000Y12700000D03*
%TO.C,LED17*%
X62206000Y12700000D03*
X63857000Y12700000D03*
X65508000Y12700000D03*
X67159000Y12700000D03*
%TO.C,LED16*%
X81206000Y12700000D03*
X82857000Y12700000D03*
X84508000Y12700000D03*
X86159000Y12700000D03*
%TO.C,LED15*%
X100206000Y12700000D03*
X101857000Y12700000D03*
X103508000Y12700000D03*
X105159000Y12700000D03*
%TO.C,LED11*%
X176206000Y12700000D03*
X177857000Y12700000D03*
X179508000Y12700000D03*
X181159000Y12700000D03*
%TO.C,LED14*%
X119206000Y12700000D03*
X120857000Y12700000D03*
X122508000Y12700000D03*
X124159000Y12700000D03*
%TO.C,LED18*%
X43206000Y12700000D03*
X44857000Y12700000D03*
X46508000Y12700000D03*
X48159000Y12700000D03*
%TO.C,LED7*%
X252206000Y12700000D03*
X253857000Y12700000D03*
X255508000Y12700000D03*
X257159000Y12700000D03*
%TO.C,LED9*%
X214206000Y12700000D03*
X215857000Y12700000D03*
X217508000Y12700000D03*
X219159000Y12700000D03*
%TO.C,LED20*%
X5206000Y12700000D03*
X6857000Y12700000D03*
X8508000Y12700000D03*
X10159000Y12700000D03*
%TO.C,LED5*%
X290206000Y12700000D03*
X291857000Y12700000D03*
X293508000Y12700000D03*
X295159000Y12700000D03*
D13*
%TO.C,C1*%
X53000000Y8000000D03*
X55500000Y8000000D03*
%TO.C,R15*%
X107750000Y13000000D03*
X107750000Y10460000D03*
%TO.C,C10*%
X226800000Y12900000D03*
X226800000Y10400000D03*
%TO.C,R5*%
X288000000Y13240000D03*
X288000000Y10700000D03*
%TO.C,R20*%
X3000000Y13240000D03*
X3000000Y10700000D03*
%TO.C,R25*%
X262460000Y16700000D03*
X265000000Y16700000D03*
%TO.C,C8*%
X172800000Y16500000D03*
X175300000Y16500000D03*
%TO.C,R11*%
X182900000Y16000000D03*
X185440000Y16000000D03*
%TO.C,R28*%
X112200000Y13590000D03*
X112200000Y11050000D03*
%TO.C,C9*%
X223700000Y8100000D03*
X223700000Y5600000D03*
%TO.C,R13*%
X136000000Y13240000D03*
X136000000Y10700000D03*
%TO.C,R19*%
X22000000Y13240000D03*
X22000000Y10700000D03*
%TO.C,U1*%
X378380000Y13320000D03*
X378380000Y5700000D03*
X380920000Y13320000D03*
X380920000Y5700000D03*
X383460000Y13320000D03*
X383460000Y5700000D03*
X386000000Y13320000D03*
X386000000Y5700000D03*
%TO.C,R10*%
X204300000Y7700000D03*
X204300000Y5160000D03*
%TO.C,C3*%
X109900000Y6925000D03*
X112400000Y6925000D03*
%TO.C,R6*%
X269000000Y13240000D03*
X269000000Y10700000D03*
%TO.C,R18*%
X41000000Y13240000D03*
X41000000Y10700000D03*
%TO.C,C6*%
X130200000Y8200000D03*
X130200000Y5700000D03*
%TO.C,C11*%
X242700000Y11900000D03*
X245200000Y11900000D03*
%TO.C,R4*%
X307000000Y13240000D03*
X307000000Y10700000D03*
%TO.C,R2*%
X345000000Y13240000D03*
X345000000Y10700000D03*
%TO.C,R27*%
X15000000Y13000000D03*
X17540000Y13000000D03*
%TO.C,R12*%
X154990000Y13720000D03*
X154990000Y11180000D03*
%TO.C,R22*%
X376460000Y16700000D03*
X379000000Y16700000D03*
%TO.C,R8*%
X231000000Y13240000D03*
X231000000Y10700000D03*
%TO.C,R32*%
X222300000Y15200000D03*
X222300000Y12660000D03*
%TO.C,R30*%
X127760000Y16800000D03*
X130300000Y16800000D03*
%TO.C,R3*%
X326000000Y13240000D03*
X326000000Y10700000D03*
%TO.C,U2*%
X89220000Y16900000D03*
X89220000Y9280000D03*
X91760000Y16900000D03*
X91760000Y9280000D03*
X94300000Y16900000D03*
X94300000Y9280000D03*
X96840000Y16900000D03*
X96840000Y9280000D03*
%TO.C,D1*%
X33100000Y13000000D03*
X33100000Y5380000D03*
%TO.C,C5*%
X128100000Y13900000D03*
X128100000Y11400000D03*
%TO.C,R21*%
X384000000Y2700000D03*
X386540000Y2700000D03*
%TO.C,R23*%
X338460000Y16700000D03*
X341000000Y16700000D03*
%TO.C,R17*%
X60000000Y13240000D03*
X60000000Y10700000D03*
%TO.C,R31*%
X147810000Y5800000D03*
X150350000Y5800000D03*
%TO.C,R14*%
X117000000Y13240000D03*
X117000000Y10700000D03*
%TO.C,C2*%
X15000000Y8000000D03*
X17500000Y8000000D03*
%TO.C,R9*%
X212000000Y13240000D03*
X212000000Y10700000D03*
%TO.C,R26*%
X53000000Y13000000D03*
X55540000Y13000000D03*
%TO.C,R24*%
X300460000Y16700000D03*
X303000000Y16700000D03*
%TO.C,R1*%
X364000000Y13240000D03*
X364000000Y10700000D03*
%TO.C,R33*%
X191800000Y16000000D03*
X194340000Y16000000D03*
%TO.C,R16*%
X79000000Y13240000D03*
X79000000Y10700000D03*
%TO.C,R7*%
X250000000Y13240000D03*
X250000000Y10700000D03*
D14*
%TO.C,J26*%
X112470000Y17070000D03*
%TO.C,J23*%
X37000000Y5390000D03*
%TO.C,J15*%
X99920000Y7240000D03*
X99920000Y4700000D03*
X102460000Y7240000D03*
X102460000Y4700000D03*
X105000000Y7240000D03*
X105000000Y4700000D03*
%TO.C,J12*%
X156920000Y7240000D03*
X156920000Y4700000D03*
X159460000Y7240000D03*
X159460000Y4700000D03*
X162000000Y7240000D03*
X162000000Y4700000D03*
%TO.C,J11*%
X175920000Y7240000D03*
X175920000Y4700000D03*
X178460000Y7240000D03*
X178460000Y4700000D03*
X181000000Y7240000D03*
X181000000Y4700000D03*
%TO.C,J32*%
X132650000Y12700000D03*
%TO.C,J18*%
X42920000Y7240000D03*
X42920000Y4700000D03*
X45460000Y7240000D03*
X45460000Y4700000D03*
X48000000Y7240000D03*
X48000000Y4700000D03*
%TO.C,J14*%
X118920000Y7240000D03*
X118920000Y4700000D03*
X121460000Y7240000D03*
X121460000Y4700000D03*
X124000000Y7240000D03*
X124000000Y4700000D03*
%TO.C,J6*%
X271000000Y7240000D03*
X271000000Y4700000D03*
X273540000Y7240000D03*
X273540000Y4700000D03*
X276080000Y7240000D03*
X276080000Y4700000D03*
%TO.C,C12*%
X208700000Y10600000D03*
X208700000Y5600000D03*
%TO.C,J36*%
X188400000Y16100000D03*
%TO.C,U5*%
X184200000Y12920000D03*
X184200000Y10380000D03*
X184200000Y7840000D03*
X184200000Y5300000D03*
X191820000Y12920000D03*
X191820000Y10380000D03*
X191820000Y7840000D03*
X191820000Y5300000D03*
%TO.C,R29*%
X90560000Y6700000D03*
X93100000Y6700000D03*
X95640000Y6700000D03*
%TO.C,J22*%
X37000000Y13000000D03*
X37000000Y10460000D03*
%TO.C,J3*%
X328000000Y7240000D03*
X328000000Y4700000D03*
X330540000Y7240000D03*
X330540000Y4700000D03*
X333080000Y7240000D03*
X333080000Y4700000D03*
%TO.C,J16*%
X80920000Y7240000D03*
X80920000Y4700000D03*
X83460000Y7240000D03*
X83460000Y4700000D03*
X86000000Y7240000D03*
X86000000Y4700000D03*
%TO.C,J5*%
X290000000Y7240000D03*
X290000000Y4700000D03*
X292540000Y7240000D03*
X292540000Y4700000D03*
X295080000Y7240000D03*
X295080000Y4700000D03*
%TO.C,U4*%
X165080000Y12880000D03*
X165080000Y10340000D03*
X165080000Y7800000D03*
X165080000Y5260000D03*
X172700000Y12880000D03*
X172700000Y10340000D03*
X172700000Y7800000D03*
X172700000Y5260000D03*
%TO.C,J35*%
X203000000Y12400000D03*
%TO.C,J31*%
X168500000Y16000000D03*
%TO.C,J25*%
X72490000Y17070000D03*
%TO.C,J4*%
X308920000Y7240000D03*
X308920000Y4700000D03*
X311460000Y7240000D03*
X311460000Y4700000D03*
X314000000Y7240000D03*
X314000000Y4700000D03*
%TO.C,J1*%
X366000000Y7240000D03*
X366000000Y4700000D03*
X368540000Y7240000D03*
X368540000Y4700000D03*
X371080000Y7240000D03*
X371080000Y4700000D03*
%TO.C,J13*%
X137920000Y7240000D03*
X137920000Y4700000D03*
X140460000Y7240000D03*
X140460000Y4700000D03*
X143000000Y7240000D03*
X143000000Y4700000D03*
%TO.C,J30*%
X151600000Y13400000D03*
%TO.C,J24*%
X76550000Y17070000D03*
%TO.C,J2*%
X347000000Y7240000D03*
X347000000Y4700000D03*
X349540000Y7240000D03*
X349540000Y4700000D03*
X352080000Y7240000D03*
X352080000Y4700000D03*
%TO.C,J17*%
X61920000Y7240000D03*
X61920000Y4700000D03*
X64460000Y7240000D03*
X64460000Y4700000D03*
X67000000Y7240000D03*
X67000000Y4700000D03*
%TO.C,J8*%
X232920000Y7240000D03*
X232920000Y4700000D03*
X235460000Y7240000D03*
X235460000Y4700000D03*
X238000000Y7240000D03*
X238000000Y4700000D03*
%TO.C,J10*%
X194920000Y7240000D03*
X194920000Y4700000D03*
X197460000Y7240000D03*
X197460000Y4700000D03*
X200000000Y7240000D03*
X200000000Y4700000D03*
%TO.C,C7*%
X146900000Y14050000D03*
X146900000Y9050000D03*
%TO.C,J29*%
X164800000Y16000000D03*
%TO.C,J19*%
X23920000Y7240000D03*
X23920000Y4700000D03*
X26460000Y7240000D03*
X26460000Y4700000D03*
X29000000Y7240000D03*
X29000000Y4700000D03*
%TO.C,J38*%
X208600000Y14000000D03*
%TO.C,C4*%
X90600000Y3750000D03*
X95600000Y3750000D03*
%TO.C,J20*%
X4920000Y7240000D03*
X4920000Y4700000D03*
X7460000Y7240000D03*
X7460000Y4700000D03*
X10000000Y7240000D03*
X10000000Y4700000D03*
%TO.C,J7*%
X252000000Y7240000D03*
X252000000Y4700000D03*
X254540000Y7240000D03*
X254540000Y4700000D03*
X257080000Y7240000D03*
X257080000Y4700000D03*
%TO.C,J9*%
X214000000Y7240000D03*
X214000000Y4700000D03*
X216540000Y7240000D03*
X216540000Y4700000D03*
X219080000Y7240000D03*
X219080000Y4700000D03*
%TO.C,J21*%
X383460000Y16700000D03*
X386000000Y16700000D03*
M02*
