%TF.GenerationSoftware,KiCad,Pcbnew,(5.1.5)-3*%
%TF.CreationDate,2020-04-10T20:42:34+02:00*%
%TF.ProjectId,Larson SC64anner,4c617273-6f6e-4205-9343-3634616e6e65,rev?*%
%TF.SameCoordinates,Original*%
%TF.FileFunction,Copper,L1,Top*%
%TF.FilePolarity,Positive*%
%FSLAX46Y46*%
G04 Gerber Fmt 4.6, Leading zero omitted, Abs format (unit mm)*
G04 Created by KiCad (PCBNEW (5.1.5)-3) date 2020-04-10 20:42:34*
%MOMM*%
%LPD*%
G04 APERTURE LIST*
%ADD10C,0.100000*%
%ADD11C,0.150000*%
%ADD12C,0.300000*%
%ADD13C,0.400000*%
%TA.AperFunction,NonConductor*%
%ADD14C,0.300000*%
%TD*%
%TA.AperFunction,Profile*%
%ADD15C,0.200000*%
%TD*%
%TA.AperFunction,ComponentPad*%
%ADD16O,1.600000X1.600000*%
%TD*%
%TA.AperFunction,ComponentPad*%
%ADD17R,1.600000X1.600000*%
%TD*%
%TA.AperFunction,ComponentPad*%
%ADD18R,1.700000X1.700000*%
%TD*%
%TA.AperFunction,ComponentPad*%
%ADD19O,1.700000X1.700000*%
%TD*%
%TA.AperFunction,SMDPad,CuDef*%
%ADD20R,1.780000X2.000000*%
%TD*%
%TA.AperFunction,ComponentPad*%
%ADD21C,1.600000*%
%TD*%
%TA.AperFunction,ComponentPad*%
%ADD22C,1.200000*%
%TD*%
%TA.AperFunction,ComponentPad*%
%ADD23R,1.200000X1.200000*%
%TD*%
%TA.AperFunction,ComponentPad*%
%ADD24C,2.000000*%
%TD*%
%TA.AperFunction,ViaPad*%
%ADD25C,0.800000*%
%TD*%
%TA.AperFunction,Conductor*%
%ADD26C,0.250000*%
%TD*%
%TA.AperFunction,Conductor*%
%ADD27C,0.600000*%
%TD*%
G04 APERTURE END LIST*
D10*
D11*
X720994000Y-550004400D02*
X720994000Y-582004400D01*
X828994000Y-582004400D01*
X828994000Y-550004400D01*
X720994000Y-550004400D01*
D10*
D11*
X10000000Y-10000000D02*
X10000000Y-584004400D01*
X830994000Y-584004400D01*
X830994000Y-10000000D01*
X10000000Y-10000000D01*
D10*
D11*
X12000000Y-12000000D02*
X12000000Y-582004400D01*
X828994000Y-582004400D01*
X828994000Y-12000000D01*
X12000000Y-12000000D01*
D10*
D11*
X60000000Y-12000000D02*
X60000000Y-10000000D01*
D10*
D11*
X110000000Y-12000000D02*
X110000000Y-10000000D01*
D10*
D11*
X160000000Y-12000000D02*
X160000000Y-10000000D01*
D10*
D11*
X210000000Y-12000000D02*
X210000000Y-10000000D01*
D10*
D11*
X260000000Y-12000000D02*
X260000000Y-10000000D01*
D10*
D11*
X310000000Y-12000000D02*
X310000000Y-10000000D01*
D10*
D11*
X360000000Y-12000000D02*
X360000000Y-10000000D01*
D10*
D11*
X410000000Y-12000000D02*
X410000000Y-10000000D01*
D10*
D11*
X460000000Y-12000000D02*
X460000000Y-10000000D01*
D10*
D11*
X510000000Y-12000000D02*
X510000000Y-10000000D01*
D10*
D11*
X560000000Y-12000000D02*
X560000000Y-10000000D01*
D10*
D11*
X610000000Y-12000000D02*
X610000000Y-10000000D01*
D10*
D11*
X660000000Y-12000000D02*
X660000000Y-10000000D01*
D10*
D11*
X710000000Y-12000000D02*
X710000000Y-10000000D01*
D10*
D11*
X760000000Y-12000000D02*
X760000000Y-10000000D01*
D10*
D11*
X810000000Y-12000000D02*
X810000000Y-10000000D01*
D10*
D11*
X36065476Y-11588095D02*
X35322619Y-11588095D01*
X35694047Y-11588095D02*
X35694047Y-10288095D01*
X35570238Y-10473809D01*
X35446428Y-10597619D01*
X35322619Y-10659523D01*
D10*
D11*
X85322619Y-10411904D02*
X85384523Y-10350000D01*
X85508333Y-10288095D01*
X85817857Y-10288095D01*
X85941666Y-10350000D01*
X86003571Y-10411904D01*
X86065476Y-10535714D01*
X86065476Y-10659523D01*
X86003571Y-10845238D01*
X85260714Y-11588095D01*
X86065476Y-11588095D01*
D10*
D11*
X135260714Y-10288095D02*
X136065476Y-10288095D01*
X135632142Y-10783333D01*
X135817857Y-10783333D01*
X135941666Y-10845238D01*
X136003571Y-10907142D01*
X136065476Y-11030952D01*
X136065476Y-11340476D01*
X136003571Y-11464285D01*
X135941666Y-11526190D01*
X135817857Y-11588095D01*
X135446428Y-11588095D01*
X135322619Y-11526190D01*
X135260714Y-11464285D01*
D10*
D11*
X185941666Y-10721428D02*
X185941666Y-11588095D01*
X185632142Y-10226190D02*
X185322619Y-11154761D01*
X186127380Y-11154761D01*
D10*
D11*
X236003571Y-10288095D02*
X235384523Y-10288095D01*
X235322619Y-10907142D01*
X235384523Y-10845238D01*
X235508333Y-10783333D01*
X235817857Y-10783333D01*
X235941666Y-10845238D01*
X236003571Y-10907142D01*
X236065476Y-11030952D01*
X236065476Y-11340476D01*
X236003571Y-11464285D01*
X235941666Y-11526190D01*
X235817857Y-11588095D01*
X235508333Y-11588095D01*
X235384523Y-11526190D01*
X235322619Y-11464285D01*
D10*
D11*
X285941666Y-10288095D02*
X285694047Y-10288095D01*
X285570238Y-10350000D01*
X285508333Y-10411904D01*
X285384523Y-10597619D01*
X285322619Y-10845238D01*
X285322619Y-11340476D01*
X285384523Y-11464285D01*
X285446428Y-11526190D01*
X285570238Y-11588095D01*
X285817857Y-11588095D01*
X285941666Y-11526190D01*
X286003571Y-11464285D01*
X286065476Y-11340476D01*
X286065476Y-11030952D01*
X286003571Y-10907142D01*
X285941666Y-10845238D01*
X285817857Y-10783333D01*
X285570238Y-10783333D01*
X285446428Y-10845238D01*
X285384523Y-10907142D01*
X285322619Y-11030952D01*
D10*
D11*
X335260714Y-10288095D02*
X336127380Y-10288095D01*
X335570238Y-11588095D01*
D10*
D11*
X385570238Y-10845238D02*
X385446428Y-10783333D01*
X385384523Y-10721428D01*
X385322619Y-10597619D01*
X385322619Y-10535714D01*
X385384523Y-10411904D01*
X385446428Y-10350000D01*
X385570238Y-10288095D01*
X385817857Y-10288095D01*
X385941666Y-10350000D01*
X386003571Y-10411904D01*
X386065476Y-10535714D01*
X386065476Y-10597619D01*
X386003571Y-10721428D01*
X385941666Y-10783333D01*
X385817857Y-10845238D01*
X385570238Y-10845238D01*
X385446428Y-10907142D01*
X385384523Y-10969047D01*
X385322619Y-11092857D01*
X385322619Y-11340476D01*
X385384523Y-11464285D01*
X385446428Y-11526190D01*
X385570238Y-11588095D01*
X385817857Y-11588095D01*
X385941666Y-11526190D01*
X386003571Y-11464285D01*
X386065476Y-11340476D01*
X386065476Y-11092857D01*
X386003571Y-10969047D01*
X385941666Y-10907142D01*
X385817857Y-10845238D01*
D10*
D11*
X435446428Y-11588095D02*
X435694047Y-11588095D01*
X435817857Y-11526190D01*
X435879761Y-11464285D01*
X436003571Y-11278571D01*
X436065476Y-11030952D01*
X436065476Y-10535714D01*
X436003571Y-10411904D01*
X435941666Y-10350000D01*
X435817857Y-10288095D01*
X435570238Y-10288095D01*
X435446428Y-10350000D01*
X435384523Y-10411904D01*
X435322619Y-10535714D01*
X435322619Y-10845238D01*
X435384523Y-10969047D01*
X435446428Y-11030952D01*
X435570238Y-11092857D01*
X435817857Y-11092857D01*
X435941666Y-11030952D01*
X436003571Y-10969047D01*
X436065476Y-10845238D01*
D10*
D11*
X486065476Y-11588095D02*
X485322619Y-11588095D01*
X485694047Y-11588095D02*
X485694047Y-10288095D01*
X485570238Y-10473809D01*
X485446428Y-10597619D01*
X485322619Y-10659523D01*
X486870238Y-10288095D02*
X486994047Y-10288095D01*
X487117857Y-10350000D01*
X487179761Y-10411904D01*
X487241666Y-10535714D01*
X487303571Y-10783333D01*
X487303571Y-11092857D01*
X487241666Y-11340476D01*
X487179761Y-11464285D01*
X487117857Y-11526190D01*
X486994047Y-11588095D01*
X486870238Y-11588095D01*
X486746428Y-11526190D01*
X486684523Y-11464285D01*
X486622619Y-11340476D01*
X486560714Y-11092857D01*
X486560714Y-10783333D01*
X486622619Y-10535714D01*
X486684523Y-10411904D01*
X486746428Y-10350000D01*
X486870238Y-10288095D01*
D10*
D11*
X536065476Y-11588095D02*
X535322619Y-11588095D01*
X535694047Y-11588095D02*
X535694047Y-10288095D01*
X535570238Y-10473809D01*
X535446428Y-10597619D01*
X535322619Y-10659523D01*
X537303571Y-11588095D02*
X536560714Y-11588095D01*
X536932142Y-11588095D02*
X536932142Y-10288095D01*
X536808333Y-10473809D01*
X536684523Y-10597619D01*
X536560714Y-10659523D01*
D10*
D11*
X586065476Y-11588095D02*
X585322619Y-11588095D01*
X585694047Y-11588095D02*
X585694047Y-10288095D01*
X585570238Y-10473809D01*
X585446428Y-10597619D01*
X585322619Y-10659523D01*
X586560714Y-10411904D02*
X586622619Y-10350000D01*
X586746428Y-10288095D01*
X587055952Y-10288095D01*
X587179761Y-10350000D01*
X587241666Y-10411904D01*
X587303571Y-10535714D01*
X587303571Y-10659523D01*
X587241666Y-10845238D01*
X586498809Y-11588095D01*
X587303571Y-11588095D01*
D10*
D11*
X636065476Y-11588095D02*
X635322619Y-11588095D01*
X635694047Y-11588095D02*
X635694047Y-10288095D01*
X635570238Y-10473809D01*
X635446428Y-10597619D01*
X635322619Y-10659523D01*
X636498809Y-10288095D02*
X637303571Y-10288095D01*
X636870238Y-10783333D01*
X637055952Y-10783333D01*
X637179761Y-10845238D01*
X637241666Y-10907142D01*
X637303571Y-11030952D01*
X637303571Y-11340476D01*
X637241666Y-11464285D01*
X637179761Y-11526190D01*
X637055952Y-11588095D01*
X636684523Y-11588095D01*
X636560714Y-11526190D01*
X636498809Y-11464285D01*
D10*
D11*
X686065476Y-11588095D02*
X685322619Y-11588095D01*
X685694047Y-11588095D02*
X685694047Y-10288095D01*
X685570238Y-10473809D01*
X685446428Y-10597619D01*
X685322619Y-10659523D01*
X687179761Y-10721428D02*
X687179761Y-11588095D01*
X686870238Y-10226190D02*
X686560714Y-11154761D01*
X687365476Y-11154761D01*
D10*
D11*
X736065476Y-11588095D02*
X735322619Y-11588095D01*
X735694047Y-11588095D02*
X735694047Y-10288095D01*
X735570238Y-10473809D01*
X735446428Y-10597619D01*
X735322619Y-10659523D01*
X737241666Y-10288095D02*
X736622619Y-10288095D01*
X736560714Y-10907142D01*
X736622619Y-10845238D01*
X736746428Y-10783333D01*
X737055952Y-10783333D01*
X737179761Y-10845238D01*
X737241666Y-10907142D01*
X737303571Y-11030952D01*
X737303571Y-11340476D01*
X737241666Y-11464285D01*
X737179761Y-11526190D01*
X737055952Y-11588095D01*
X736746428Y-11588095D01*
X736622619Y-11526190D01*
X736560714Y-11464285D01*
D10*
D11*
X786065476Y-11588095D02*
X785322619Y-11588095D01*
X785694047Y-11588095D02*
X785694047Y-10288095D01*
X785570238Y-10473809D01*
X785446428Y-10597619D01*
X785322619Y-10659523D01*
X787179761Y-10288095D02*
X786932142Y-10288095D01*
X786808333Y-10350000D01*
X786746428Y-10411904D01*
X786622619Y-10597619D01*
X786560714Y-10845238D01*
X786560714Y-11340476D01*
X786622619Y-11464285D01*
X786684523Y-11526190D01*
X786808333Y-11588095D01*
X787055952Y-11588095D01*
X787179761Y-11526190D01*
X787241666Y-11464285D01*
X787303571Y-11340476D01*
X787303571Y-11030952D01*
X787241666Y-10907142D01*
X787179761Y-10845238D01*
X787055952Y-10783333D01*
X786808333Y-10783333D01*
X786684523Y-10845238D01*
X786622619Y-10907142D01*
X786560714Y-11030952D01*
D10*
D11*
X60000000Y-582004400D02*
X60000000Y-584004400D01*
D10*
D11*
X110000000Y-582004400D02*
X110000000Y-584004400D01*
D10*
D11*
X160000000Y-582004400D02*
X160000000Y-584004400D01*
D10*
D11*
X210000000Y-582004400D02*
X210000000Y-584004400D01*
D10*
D11*
X260000000Y-582004400D02*
X260000000Y-584004400D01*
D10*
D11*
X310000000Y-582004400D02*
X310000000Y-584004400D01*
D10*
D11*
X360000000Y-582004400D02*
X360000000Y-584004400D01*
D10*
D11*
X410000000Y-582004400D02*
X410000000Y-584004400D01*
D10*
D11*
X460000000Y-582004400D02*
X460000000Y-584004400D01*
D10*
D11*
X510000000Y-582004400D02*
X510000000Y-584004400D01*
D10*
D11*
X560000000Y-582004400D02*
X560000000Y-584004400D01*
D10*
D11*
X610000000Y-582004400D02*
X610000000Y-584004400D01*
D10*
D11*
X660000000Y-582004400D02*
X660000000Y-584004400D01*
D10*
D11*
X710000000Y-582004400D02*
X710000000Y-584004400D01*
D10*
D11*
X760000000Y-582004400D02*
X760000000Y-584004400D01*
D10*
D11*
X810000000Y-582004400D02*
X810000000Y-584004400D01*
D10*
D11*
X36065476Y-583592495D02*
X35322619Y-583592495D01*
X35694047Y-583592495D02*
X35694047Y-582292495D01*
X35570238Y-582478209D01*
X35446428Y-582602019D01*
X35322619Y-582663923D01*
D10*
D11*
X85322619Y-582416304D02*
X85384523Y-582354400D01*
X85508333Y-582292495D01*
X85817857Y-582292495D01*
X85941666Y-582354400D01*
X86003571Y-582416304D01*
X86065476Y-582540114D01*
X86065476Y-582663923D01*
X86003571Y-582849638D01*
X85260714Y-583592495D01*
X86065476Y-583592495D01*
D10*
D11*
X135260714Y-582292495D02*
X136065476Y-582292495D01*
X135632142Y-582787733D01*
X135817857Y-582787733D01*
X135941666Y-582849638D01*
X136003571Y-582911542D01*
X136065476Y-583035352D01*
X136065476Y-583344876D01*
X136003571Y-583468685D01*
X135941666Y-583530590D01*
X135817857Y-583592495D01*
X135446428Y-583592495D01*
X135322619Y-583530590D01*
X135260714Y-583468685D01*
D10*
D11*
X185941666Y-582725828D02*
X185941666Y-583592495D01*
X185632142Y-582230590D02*
X185322619Y-583159161D01*
X186127380Y-583159161D01*
D10*
D11*
X236003571Y-582292495D02*
X235384523Y-582292495D01*
X235322619Y-582911542D01*
X235384523Y-582849638D01*
X235508333Y-582787733D01*
X235817857Y-582787733D01*
X235941666Y-582849638D01*
X236003571Y-582911542D01*
X236065476Y-583035352D01*
X236065476Y-583344876D01*
X236003571Y-583468685D01*
X235941666Y-583530590D01*
X235817857Y-583592495D01*
X235508333Y-583592495D01*
X235384523Y-583530590D01*
X235322619Y-583468685D01*
D10*
D11*
X285941666Y-582292495D02*
X285694047Y-582292495D01*
X285570238Y-582354400D01*
X285508333Y-582416304D01*
X285384523Y-582602019D01*
X285322619Y-582849638D01*
X285322619Y-583344876D01*
X285384523Y-583468685D01*
X285446428Y-583530590D01*
X285570238Y-583592495D01*
X285817857Y-583592495D01*
X285941666Y-583530590D01*
X286003571Y-583468685D01*
X286065476Y-583344876D01*
X286065476Y-583035352D01*
X286003571Y-582911542D01*
X285941666Y-582849638D01*
X285817857Y-582787733D01*
X285570238Y-582787733D01*
X285446428Y-582849638D01*
X285384523Y-582911542D01*
X285322619Y-583035352D01*
D10*
D11*
X335260714Y-582292495D02*
X336127380Y-582292495D01*
X335570238Y-583592495D01*
D10*
D11*
X385570238Y-582849638D02*
X385446428Y-582787733D01*
X385384523Y-582725828D01*
X385322619Y-582602019D01*
X385322619Y-582540114D01*
X385384523Y-582416304D01*
X385446428Y-582354400D01*
X385570238Y-582292495D01*
X385817857Y-582292495D01*
X385941666Y-582354400D01*
X386003571Y-582416304D01*
X386065476Y-582540114D01*
X386065476Y-582602019D01*
X386003571Y-582725828D01*
X385941666Y-582787733D01*
X385817857Y-582849638D01*
X385570238Y-582849638D01*
X385446428Y-582911542D01*
X385384523Y-582973447D01*
X385322619Y-583097257D01*
X385322619Y-583344876D01*
X385384523Y-583468685D01*
X385446428Y-583530590D01*
X385570238Y-583592495D01*
X385817857Y-583592495D01*
X385941666Y-583530590D01*
X386003571Y-583468685D01*
X386065476Y-583344876D01*
X386065476Y-583097257D01*
X386003571Y-582973447D01*
X385941666Y-582911542D01*
X385817857Y-582849638D01*
D10*
D11*
X435446428Y-583592495D02*
X435694047Y-583592495D01*
X435817857Y-583530590D01*
X435879761Y-583468685D01*
X436003571Y-583282971D01*
X436065476Y-583035352D01*
X436065476Y-582540114D01*
X436003571Y-582416304D01*
X435941666Y-582354400D01*
X435817857Y-582292495D01*
X435570238Y-582292495D01*
X435446428Y-582354400D01*
X435384523Y-582416304D01*
X435322619Y-582540114D01*
X435322619Y-582849638D01*
X435384523Y-582973447D01*
X435446428Y-583035352D01*
X435570238Y-583097257D01*
X435817857Y-583097257D01*
X435941666Y-583035352D01*
X436003571Y-582973447D01*
X436065476Y-582849638D01*
D10*
D11*
X486065476Y-583592495D02*
X485322619Y-583592495D01*
X485694047Y-583592495D02*
X485694047Y-582292495D01*
X485570238Y-582478209D01*
X485446428Y-582602019D01*
X485322619Y-582663923D01*
X486870238Y-582292495D02*
X486994047Y-582292495D01*
X487117857Y-582354400D01*
X487179761Y-582416304D01*
X487241666Y-582540114D01*
X487303571Y-582787733D01*
X487303571Y-583097257D01*
X487241666Y-583344876D01*
X487179761Y-583468685D01*
X487117857Y-583530590D01*
X486994047Y-583592495D01*
X486870238Y-583592495D01*
X486746428Y-583530590D01*
X486684523Y-583468685D01*
X486622619Y-583344876D01*
X486560714Y-583097257D01*
X486560714Y-582787733D01*
X486622619Y-582540114D01*
X486684523Y-582416304D01*
X486746428Y-582354400D01*
X486870238Y-582292495D01*
D10*
D11*
X536065476Y-583592495D02*
X535322619Y-583592495D01*
X535694047Y-583592495D02*
X535694047Y-582292495D01*
X535570238Y-582478209D01*
X535446428Y-582602019D01*
X535322619Y-582663923D01*
X537303571Y-583592495D02*
X536560714Y-583592495D01*
X536932142Y-583592495D02*
X536932142Y-582292495D01*
X536808333Y-582478209D01*
X536684523Y-582602019D01*
X536560714Y-582663923D01*
D10*
D11*
X586065476Y-583592495D02*
X585322619Y-583592495D01*
X585694047Y-583592495D02*
X585694047Y-582292495D01*
X585570238Y-582478209D01*
X585446428Y-582602019D01*
X585322619Y-582663923D01*
X586560714Y-582416304D02*
X586622619Y-582354400D01*
X586746428Y-582292495D01*
X587055952Y-582292495D01*
X587179761Y-582354400D01*
X587241666Y-582416304D01*
X587303571Y-582540114D01*
X587303571Y-582663923D01*
X587241666Y-582849638D01*
X586498809Y-583592495D01*
X587303571Y-583592495D01*
D10*
D11*
X636065476Y-583592495D02*
X635322619Y-583592495D01*
X635694047Y-583592495D02*
X635694047Y-582292495D01*
X635570238Y-582478209D01*
X635446428Y-582602019D01*
X635322619Y-582663923D01*
X636498809Y-582292495D02*
X637303571Y-582292495D01*
X636870238Y-582787733D01*
X637055952Y-582787733D01*
X637179761Y-582849638D01*
X637241666Y-582911542D01*
X637303571Y-583035352D01*
X637303571Y-583344876D01*
X637241666Y-583468685D01*
X637179761Y-583530590D01*
X637055952Y-583592495D01*
X636684523Y-583592495D01*
X636560714Y-583530590D01*
X636498809Y-583468685D01*
D10*
D11*
X686065476Y-583592495D02*
X685322619Y-583592495D01*
X685694047Y-583592495D02*
X685694047Y-582292495D01*
X685570238Y-582478209D01*
X685446428Y-582602019D01*
X685322619Y-582663923D01*
X687179761Y-582725828D02*
X687179761Y-583592495D01*
X686870238Y-582230590D02*
X686560714Y-583159161D01*
X687365476Y-583159161D01*
D10*
D11*
X736065476Y-583592495D02*
X735322619Y-583592495D01*
X735694047Y-583592495D02*
X735694047Y-582292495D01*
X735570238Y-582478209D01*
X735446428Y-582602019D01*
X735322619Y-582663923D01*
X737241666Y-582292495D02*
X736622619Y-582292495D01*
X736560714Y-582911542D01*
X736622619Y-582849638D01*
X736746428Y-582787733D01*
X737055952Y-582787733D01*
X737179761Y-582849638D01*
X737241666Y-582911542D01*
X737303571Y-583035352D01*
X737303571Y-583344876D01*
X737241666Y-583468685D01*
X737179761Y-583530590D01*
X737055952Y-583592495D01*
X736746428Y-583592495D01*
X736622619Y-583530590D01*
X736560714Y-583468685D01*
D10*
D11*
X786065476Y-583592495D02*
X785322619Y-583592495D01*
X785694047Y-583592495D02*
X785694047Y-582292495D01*
X785570238Y-582478209D01*
X785446428Y-582602019D01*
X785322619Y-582663923D01*
X787179761Y-582292495D02*
X786932142Y-582292495D01*
X786808333Y-582354400D01*
X786746428Y-582416304D01*
X786622619Y-582602019D01*
X786560714Y-582849638D01*
X786560714Y-583344876D01*
X786622619Y-583468685D01*
X786684523Y-583530590D01*
X786808333Y-583592495D01*
X787055952Y-583592495D01*
X787179761Y-583530590D01*
X787241666Y-583468685D01*
X787303571Y-583344876D01*
X787303571Y-583035352D01*
X787241666Y-582911542D01*
X787179761Y-582849638D01*
X787055952Y-582787733D01*
X786808333Y-582787733D01*
X786684523Y-582849638D01*
X786622619Y-582911542D01*
X786560714Y-583035352D01*
D10*
D11*
X10000000Y-60000000D02*
X12000000Y-60000000D01*
D10*
D11*
X10000000Y-110000000D02*
X12000000Y-110000000D01*
D10*
D11*
X10000000Y-160000000D02*
X12000000Y-160000000D01*
D10*
D11*
X10000000Y-210000000D02*
X12000000Y-210000000D01*
D10*
D11*
X10000000Y-260000000D02*
X12000000Y-260000000D01*
D10*
D11*
X10000000Y-310000000D02*
X12000000Y-310000000D01*
D10*
D11*
X10000000Y-360000000D02*
X12000000Y-360000000D01*
D10*
D11*
X10000000Y-410000000D02*
X12000000Y-410000000D01*
D10*
D11*
X10000000Y-460000000D02*
X12000000Y-460000000D01*
D10*
D11*
X10000000Y-510000000D02*
X12000000Y-510000000D01*
D10*
D11*
X10000000Y-560000000D02*
X12000000Y-560000000D01*
D10*
D11*
X10690476Y-35216666D02*
X11309523Y-35216666D01*
X10566666Y-35588095D02*
X11000000Y-34288095D01*
X11433333Y-35588095D01*
D10*
D11*
X11092857Y-84907142D02*
X11278571Y-84969047D01*
X11340476Y-85030952D01*
X11402380Y-85154761D01*
X11402380Y-85340476D01*
X11340476Y-85464285D01*
X11278571Y-85526190D01*
X11154761Y-85588095D01*
X10659523Y-85588095D01*
X10659523Y-84288095D01*
X11092857Y-84288095D01*
X11216666Y-84350000D01*
X11278571Y-84411904D01*
X11340476Y-84535714D01*
X11340476Y-84659523D01*
X11278571Y-84783333D01*
X11216666Y-84845238D01*
X11092857Y-84907142D01*
X10659523Y-84907142D01*
D10*
D11*
X11402380Y-135464285D02*
X11340476Y-135526190D01*
X11154761Y-135588095D01*
X11030952Y-135588095D01*
X10845238Y-135526190D01*
X10721428Y-135402380D01*
X10659523Y-135278571D01*
X10597619Y-135030952D01*
X10597619Y-134845238D01*
X10659523Y-134597619D01*
X10721428Y-134473809D01*
X10845238Y-134350000D01*
X11030952Y-134288095D01*
X11154761Y-134288095D01*
X11340476Y-134350000D01*
X11402380Y-134411904D01*
D10*
D11*
X10659523Y-185588095D02*
X10659523Y-184288095D01*
X10969047Y-184288095D01*
X11154761Y-184350000D01*
X11278571Y-184473809D01*
X11340476Y-184597619D01*
X11402380Y-184845238D01*
X11402380Y-185030952D01*
X11340476Y-185278571D01*
X11278571Y-185402380D01*
X11154761Y-185526190D01*
X10969047Y-185588095D01*
X10659523Y-185588095D01*
D10*
D11*
X10721428Y-234907142D02*
X11154761Y-234907142D01*
X11340476Y-235588095D02*
X10721428Y-235588095D01*
X10721428Y-234288095D01*
X11340476Y-234288095D01*
D10*
D11*
X11185714Y-284907142D02*
X10752380Y-284907142D01*
X10752380Y-285588095D02*
X10752380Y-284288095D01*
X11371428Y-284288095D01*
D10*
D11*
X11340476Y-334350000D02*
X11216666Y-334288095D01*
X11030952Y-334288095D01*
X10845238Y-334350000D01*
X10721428Y-334473809D01*
X10659523Y-334597619D01*
X10597619Y-334845238D01*
X10597619Y-335030952D01*
X10659523Y-335278571D01*
X10721428Y-335402380D01*
X10845238Y-335526190D01*
X11030952Y-335588095D01*
X11154761Y-335588095D01*
X11340476Y-335526190D01*
X11402380Y-335464285D01*
X11402380Y-335030952D01*
X11154761Y-335030952D01*
D10*
D11*
X10628571Y-385588095D02*
X10628571Y-384288095D01*
X10628571Y-384907142D02*
X11371428Y-384907142D01*
X11371428Y-385588095D02*
X11371428Y-384288095D01*
D10*
D11*
X11000000Y-435588095D02*
X11000000Y-434288095D01*
D10*
D11*
X11185714Y-484288095D02*
X11185714Y-485216666D01*
X11123809Y-485402380D01*
X11000000Y-485526190D01*
X10814285Y-485588095D01*
X10690476Y-485588095D01*
D10*
D11*
X10659523Y-535588095D02*
X10659523Y-534288095D01*
X11402380Y-535588095D02*
X10845238Y-534845238D01*
X11402380Y-534288095D02*
X10659523Y-535030952D01*
D10*
D11*
X830994000Y-60000000D02*
X828994000Y-60000000D01*
D10*
D11*
X830994000Y-110000000D02*
X828994000Y-110000000D01*
D10*
D11*
X830994000Y-160000000D02*
X828994000Y-160000000D01*
D10*
D11*
X830994000Y-210000000D02*
X828994000Y-210000000D01*
D10*
D11*
X830994000Y-260000000D02*
X828994000Y-260000000D01*
D10*
D11*
X830994000Y-310000000D02*
X828994000Y-310000000D01*
D10*
D11*
X830994000Y-360000000D02*
X828994000Y-360000000D01*
D10*
D11*
X830994000Y-410000000D02*
X828994000Y-410000000D01*
D10*
D11*
X830994000Y-460000000D02*
X828994000Y-460000000D01*
D10*
D11*
X830994000Y-510000000D02*
X828994000Y-510000000D01*
D10*
D11*
X830994000Y-560000000D02*
X828994000Y-560000000D01*
D10*
D11*
X829684476Y-35216666D02*
X830303523Y-35216666D01*
X829560666Y-35588095D02*
X829994000Y-34288095D01*
X830427333Y-35588095D01*
D10*
D11*
X830086857Y-84907142D02*
X830272571Y-84969047D01*
X830334476Y-85030952D01*
X830396380Y-85154761D01*
X830396380Y-85340476D01*
X830334476Y-85464285D01*
X830272571Y-85526190D01*
X830148761Y-85588095D01*
X829653523Y-85588095D01*
X829653523Y-84288095D01*
X830086857Y-84288095D01*
X830210666Y-84350000D01*
X830272571Y-84411904D01*
X830334476Y-84535714D01*
X830334476Y-84659523D01*
X830272571Y-84783333D01*
X830210666Y-84845238D01*
X830086857Y-84907142D01*
X829653523Y-84907142D01*
D10*
D11*
X830396380Y-135464285D02*
X830334476Y-135526190D01*
X830148761Y-135588095D01*
X830024952Y-135588095D01*
X829839238Y-135526190D01*
X829715428Y-135402380D01*
X829653523Y-135278571D01*
X829591619Y-135030952D01*
X829591619Y-134845238D01*
X829653523Y-134597619D01*
X829715428Y-134473809D01*
X829839238Y-134350000D01*
X830024952Y-134288095D01*
X830148761Y-134288095D01*
X830334476Y-134350000D01*
X830396380Y-134411904D01*
D10*
D11*
X829653523Y-185588095D02*
X829653523Y-184288095D01*
X829963047Y-184288095D01*
X830148761Y-184350000D01*
X830272571Y-184473809D01*
X830334476Y-184597619D01*
X830396380Y-184845238D01*
X830396380Y-185030952D01*
X830334476Y-185278571D01*
X830272571Y-185402380D01*
X830148761Y-185526190D01*
X829963047Y-185588095D01*
X829653523Y-185588095D01*
D10*
D11*
X829715428Y-234907142D02*
X830148761Y-234907142D01*
X830334476Y-235588095D02*
X829715428Y-235588095D01*
X829715428Y-234288095D01*
X830334476Y-234288095D01*
D10*
D11*
X830179714Y-284907142D02*
X829746380Y-284907142D01*
X829746380Y-285588095D02*
X829746380Y-284288095D01*
X830365428Y-284288095D01*
D10*
D11*
X830334476Y-334350000D02*
X830210666Y-334288095D01*
X830024952Y-334288095D01*
X829839238Y-334350000D01*
X829715428Y-334473809D01*
X829653523Y-334597619D01*
X829591619Y-334845238D01*
X829591619Y-335030952D01*
X829653523Y-335278571D01*
X829715428Y-335402380D01*
X829839238Y-335526190D01*
X830024952Y-335588095D01*
X830148761Y-335588095D01*
X830334476Y-335526190D01*
X830396380Y-335464285D01*
X830396380Y-335030952D01*
X830148761Y-335030952D01*
D10*
D11*
X829622571Y-385588095D02*
X829622571Y-384288095D01*
X829622571Y-384907142D02*
X830365428Y-384907142D01*
X830365428Y-385588095D02*
X830365428Y-384288095D01*
D10*
D11*
X829994000Y-435588095D02*
X829994000Y-434288095D01*
D10*
D11*
X830179714Y-484288095D02*
X830179714Y-485216666D01*
X830117809Y-485402380D01*
X829994000Y-485526190D01*
X829808285Y-485588095D01*
X829684476Y-485588095D01*
D10*
D11*
X829653523Y-535588095D02*
X829653523Y-534288095D01*
X830396380Y-535588095D02*
X829839238Y-534845238D01*
X830396380Y-534288095D02*
X829653523Y-535030952D01*
D10*
D11*
X744426142Y-577782971D02*
X744426142Y-576282971D01*
X744783285Y-576282971D01*
X744997571Y-576354400D01*
X745140428Y-576497257D01*
X745211857Y-576640114D01*
X745283285Y-576925828D01*
X745283285Y-577140114D01*
X745211857Y-577425828D01*
X745140428Y-577568685D01*
X744997571Y-577711542D01*
X744783285Y-577782971D01*
X744426142Y-577782971D01*
X746569000Y-577782971D02*
X746569000Y-576997257D01*
X746497571Y-576854400D01*
X746354714Y-576782971D01*
X746069000Y-576782971D01*
X745926142Y-576854400D01*
X746569000Y-577711542D02*
X746426142Y-577782971D01*
X746069000Y-577782971D01*
X745926142Y-577711542D01*
X745854714Y-577568685D01*
X745854714Y-577425828D01*
X745926142Y-577282971D01*
X746069000Y-577211542D01*
X746426142Y-577211542D01*
X746569000Y-577140114D01*
X747069000Y-576782971D02*
X747640428Y-576782971D01*
X747283285Y-576282971D02*
X747283285Y-577568685D01*
X747354714Y-577711542D01*
X747497571Y-577782971D01*
X747640428Y-577782971D01*
X748711857Y-577711542D02*
X748569000Y-577782971D01*
X748283285Y-577782971D01*
X748140428Y-577711542D01*
X748069000Y-577568685D01*
X748069000Y-576997257D01*
X748140428Y-576854400D01*
X748283285Y-576782971D01*
X748569000Y-576782971D01*
X748711857Y-576854400D01*
X748783285Y-576997257D01*
X748783285Y-577140114D01*
X748069000Y-577282971D01*
X749426142Y-577640114D02*
X749497571Y-577711542D01*
X749426142Y-577782971D01*
X749354714Y-577711542D01*
X749426142Y-577640114D01*
X749426142Y-577782971D01*
X749426142Y-576854400D02*
X749497571Y-576925828D01*
X749426142Y-576997257D01*
X749354714Y-576925828D01*
X749426142Y-576854400D01*
X749426142Y-576997257D01*
D10*
D11*
X720994000Y-578504400D02*
X828994000Y-578504400D01*
D10*
D11*
X722426142Y-580582971D02*
X722426142Y-579082971D01*
X723283285Y-580582971D02*
X722640428Y-579725828D01*
X723283285Y-579082971D02*
X722426142Y-579940114D01*
X723926142Y-580582971D02*
X723926142Y-579582971D01*
X723926142Y-579082971D02*
X723854714Y-579154400D01*
X723926142Y-579225828D01*
X723997571Y-579154400D01*
X723926142Y-579082971D01*
X723926142Y-579225828D01*
X725497571Y-580440114D02*
X725426142Y-580511542D01*
X725211857Y-580582971D01*
X725069000Y-580582971D01*
X724854714Y-580511542D01*
X724711857Y-580368685D01*
X724640428Y-580225828D01*
X724569000Y-579940114D01*
X724569000Y-579725828D01*
X724640428Y-579440114D01*
X724711857Y-579297257D01*
X724854714Y-579154400D01*
X725069000Y-579082971D01*
X725211857Y-579082971D01*
X725426142Y-579154400D01*
X725497571Y-579225828D01*
X726783285Y-580582971D02*
X726783285Y-579797257D01*
X726711857Y-579654400D01*
X726569000Y-579582971D01*
X726283285Y-579582971D01*
X726140428Y-579654400D01*
X726783285Y-580511542D02*
X726640428Y-580582971D01*
X726283285Y-580582971D01*
X726140428Y-580511542D01*
X726069000Y-580368685D01*
X726069000Y-580225828D01*
X726140428Y-580082971D01*
X726283285Y-580011542D01*
X726640428Y-580011542D01*
X726783285Y-579940114D01*
X728140428Y-580582971D02*
X728140428Y-579082971D01*
X728140428Y-580511542D02*
X727997571Y-580582971D01*
X727711857Y-580582971D01*
X727569000Y-580511542D01*
X727497571Y-580440114D01*
X727426142Y-580297257D01*
X727426142Y-579868685D01*
X727497571Y-579725828D01*
X727569000Y-579654400D01*
X727711857Y-579582971D01*
X727997571Y-579582971D01*
X728140428Y-579654400D01*
X729997571Y-579797257D02*
X730497571Y-579797257D01*
X730711857Y-580582971D02*
X729997571Y-580582971D01*
X729997571Y-579082971D01*
X730711857Y-579082971D01*
X731354714Y-580440114D02*
X731426142Y-580511542D01*
X731354714Y-580582971D01*
X731283285Y-580511542D01*
X731354714Y-580440114D01*
X731354714Y-580582971D01*
X732069000Y-580582971D02*
X732069000Y-579082971D01*
X732426142Y-579082971D01*
X732640428Y-579154400D01*
X732783285Y-579297257D01*
X732854714Y-579440114D01*
X732926142Y-579725828D01*
X732926142Y-579940114D01*
X732854714Y-580225828D01*
X732783285Y-580368685D01*
X732640428Y-580511542D01*
X732426142Y-580582971D01*
X732069000Y-580582971D01*
X733569000Y-580440114D02*
X733640428Y-580511542D01*
X733569000Y-580582971D01*
X733497571Y-580511542D01*
X733569000Y-580440114D01*
X733569000Y-580582971D01*
X734211857Y-580154400D02*
X734926142Y-580154400D01*
X734069000Y-580582971D02*
X734569000Y-579082971D01*
X735069000Y-580582971D01*
X735569000Y-580440114D02*
X735640428Y-580511542D01*
X735569000Y-580582971D01*
X735497571Y-580511542D01*
X735569000Y-580440114D01*
X735569000Y-580582971D01*
X738569000Y-580582971D02*
X738569000Y-579082971D01*
X738711857Y-580011542D02*
X739140428Y-580582971D01*
X739140428Y-579582971D02*
X738569000Y-580154400D01*
X739783285Y-580582971D02*
X739783285Y-579582971D01*
X739783285Y-579082971D02*
X739711857Y-579154400D01*
X739783285Y-579225828D01*
X739854714Y-579154400D01*
X739783285Y-579082971D01*
X739783285Y-579225828D01*
X741140428Y-580511542D02*
X740997571Y-580582971D01*
X740711857Y-580582971D01*
X740569000Y-580511542D01*
X740497571Y-580440114D01*
X740426142Y-580297257D01*
X740426142Y-579868685D01*
X740497571Y-579725828D01*
X740569000Y-579654400D01*
X740711857Y-579582971D01*
X740997571Y-579582971D01*
X741140428Y-579654400D01*
X742426142Y-580582971D02*
X742426142Y-579797257D01*
X742354714Y-579654400D01*
X742211857Y-579582971D01*
X741926142Y-579582971D01*
X741783285Y-579654400D01*
X742426142Y-580511542D02*
X742283285Y-580582971D01*
X741926142Y-580582971D01*
X741783285Y-580511542D01*
X741711857Y-580368685D01*
X741711857Y-580225828D01*
X741783285Y-580082971D01*
X741926142Y-580011542D01*
X742283285Y-580011542D01*
X742426142Y-579940114D01*
X743783285Y-580582971D02*
X743783285Y-579082971D01*
X743783285Y-580511542D02*
X743640428Y-580582971D01*
X743354714Y-580582971D01*
X743211857Y-580511542D01*
X743140428Y-580440114D01*
X743069000Y-580297257D01*
X743069000Y-579868685D01*
X743140428Y-579725828D01*
X743211857Y-579654400D01*
X743354714Y-579582971D01*
X743640428Y-579582971D01*
X743783285Y-579654400D01*
X746069000Y-581154400D02*
X745997571Y-581082971D01*
X745854714Y-580868685D01*
X745783285Y-580725828D01*
X745711857Y-580511542D01*
X745640428Y-580154400D01*
X745640428Y-579868685D01*
X745711857Y-579511542D01*
X745783285Y-579297257D01*
X745854714Y-579154400D01*
X745997571Y-578940114D01*
X746069000Y-578868685D01*
X747354714Y-579082971D02*
X746640428Y-579082971D01*
X746569000Y-579797257D01*
X746640428Y-579725828D01*
X746783285Y-579654400D01*
X747140428Y-579654400D01*
X747283285Y-579725828D01*
X747354714Y-579797257D01*
X747426142Y-579940114D01*
X747426142Y-580297257D01*
X747354714Y-580440114D01*
X747283285Y-580511542D01*
X747140428Y-580582971D01*
X746783285Y-580582971D01*
X746640428Y-580511542D01*
X746569000Y-580440114D01*
X748069000Y-580440114D02*
X748140428Y-580511542D01*
X748069000Y-580582971D01*
X747997571Y-580511542D01*
X748069000Y-580440114D01*
X748069000Y-580582971D01*
X749569000Y-580582971D02*
X748711857Y-580582971D01*
X749140428Y-580582971D02*
X749140428Y-579082971D01*
X748997571Y-579297257D01*
X748854714Y-579440114D01*
X748711857Y-579511542D01*
X750211857Y-580440114D02*
X750283285Y-580511542D01*
X750211857Y-580582971D01*
X750140428Y-580511542D01*
X750211857Y-580440114D01*
X750211857Y-580582971D01*
X751640428Y-579082971D02*
X750926142Y-579082971D01*
X750854714Y-579797257D01*
X750926142Y-579725828D01*
X751069000Y-579654400D01*
X751426142Y-579654400D01*
X751569000Y-579725828D01*
X751640428Y-579797257D01*
X751711857Y-579940114D01*
X751711857Y-580297257D01*
X751640428Y-580440114D01*
X751569000Y-580511542D01*
X751426142Y-580582971D01*
X751069000Y-580582971D01*
X750926142Y-580511542D01*
X750854714Y-580440114D01*
X752211857Y-581154400D02*
X752283285Y-581082971D01*
X752426142Y-580868685D01*
X752497571Y-580725828D01*
X752569000Y-580511542D01*
X752640428Y-580154400D01*
X752640428Y-579868685D01*
X752569000Y-579511542D01*
X752497571Y-579297257D01*
X752426142Y-579154400D01*
X752283285Y-578940114D01*
X752211857Y-578868685D01*
X753354714Y-580011542D02*
X754497571Y-580011542D01*
X755069000Y-579082971D02*
X755997571Y-579082971D01*
X755497571Y-579654400D01*
X755711857Y-579654400D01*
X755854714Y-579725828D01*
X755926142Y-579797257D01*
X755997571Y-579940114D01*
X755997571Y-580297257D01*
X755926142Y-580440114D01*
X755854714Y-580511542D01*
X755711857Y-580582971D01*
X755283285Y-580582971D01*
X755140428Y-580511542D01*
X755069000Y-580440114D01*
D10*
D11*
X720994000Y-575504400D02*
X828994000Y-575504400D01*
D10*
D12*
X808403285Y-577782971D02*
X807903285Y-577068685D01*
X807546142Y-577782971D02*
X807546142Y-576282971D01*
X808117571Y-576282971D01*
X808260428Y-576354400D01*
X808331857Y-576425828D01*
X808403285Y-576568685D01*
X808403285Y-576782971D01*
X808331857Y-576925828D01*
X808260428Y-576997257D01*
X808117571Y-577068685D01*
X807546142Y-577068685D01*
X809617571Y-577711542D02*
X809474714Y-577782971D01*
X809189000Y-577782971D01*
X809046142Y-577711542D01*
X808974714Y-577568685D01*
X808974714Y-576997257D01*
X809046142Y-576854400D01*
X809189000Y-576782971D01*
X809474714Y-576782971D01*
X809617571Y-576854400D01*
X809689000Y-576997257D01*
X809689000Y-577140114D01*
X808974714Y-577282971D01*
X810189000Y-576782971D02*
X810546142Y-577782971D01*
X810903285Y-576782971D01*
X811474714Y-577640114D02*
X811546142Y-577711542D01*
X811474714Y-577782971D01*
X811403285Y-577711542D01*
X811474714Y-577640114D01*
X811474714Y-577782971D01*
X811474714Y-576854400D02*
X811546142Y-576925828D01*
X811474714Y-576997257D01*
X811403285Y-576925828D01*
X811474714Y-576854400D01*
X811474714Y-576997257D01*
D10*
D11*
X722354714Y-577711542D02*
X722569000Y-577782971D01*
X722926142Y-577782971D01*
X723069000Y-577711542D01*
X723140428Y-577640114D01*
X723211857Y-577497257D01*
X723211857Y-577354400D01*
X723140428Y-577211542D01*
X723069000Y-577140114D01*
X722926142Y-577068685D01*
X722640428Y-576997257D01*
X722497571Y-576925828D01*
X722426142Y-576854400D01*
X722354714Y-576711542D01*
X722354714Y-576568685D01*
X722426142Y-576425828D01*
X722497571Y-576354400D01*
X722640428Y-576282971D01*
X722997571Y-576282971D01*
X723211857Y-576354400D01*
X723854714Y-577782971D02*
X723854714Y-576782971D01*
X723854714Y-576282971D02*
X723783285Y-576354400D01*
X723854714Y-576425828D01*
X723926142Y-576354400D01*
X723854714Y-576282971D01*
X723854714Y-576425828D01*
X724426142Y-576782971D02*
X725211857Y-576782971D01*
X724426142Y-577782971D01*
X725211857Y-577782971D01*
X726354714Y-577711542D02*
X726211857Y-577782971D01*
X725926142Y-577782971D01*
X725783285Y-577711542D01*
X725711857Y-577568685D01*
X725711857Y-576997257D01*
X725783285Y-576854400D01*
X725926142Y-576782971D01*
X726211857Y-576782971D01*
X726354714Y-576854400D01*
X726426142Y-576997257D01*
X726426142Y-577140114D01*
X725711857Y-577282971D01*
X727069000Y-577640114D02*
X727140428Y-577711542D01*
X727069000Y-577782971D01*
X726997571Y-577711542D01*
X727069000Y-577640114D01*
X727069000Y-577782971D01*
X727069000Y-576854400D02*
X727140428Y-576925828D01*
X727069000Y-576997257D01*
X726997571Y-576925828D01*
X727069000Y-576854400D01*
X727069000Y-576997257D01*
X728854714Y-577354400D02*
X729569000Y-577354400D01*
X728711857Y-577782971D02*
X729211857Y-576282971D01*
X729711857Y-577782971D01*
X730997571Y-577782971D02*
X730140428Y-577782971D01*
X730569000Y-577782971D02*
X730569000Y-576282971D01*
X730426142Y-576497257D01*
X730283285Y-576640114D01*
X730140428Y-576711542D01*
D10*
D11*
X807426142Y-580582971D02*
X807426142Y-579082971D01*
X808783285Y-580582971D02*
X808783285Y-579082971D01*
X808783285Y-580511542D02*
X808640428Y-580582971D01*
X808354714Y-580582971D01*
X808211857Y-580511542D01*
X808140428Y-580440114D01*
X808069000Y-580297257D01*
X808069000Y-579868685D01*
X808140428Y-579725828D01*
X808211857Y-579654400D01*
X808354714Y-579582971D01*
X808640428Y-579582971D01*
X808783285Y-579654400D01*
X809497571Y-580440114D02*
X809569000Y-580511542D01*
X809497571Y-580582971D01*
X809426142Y-580511542D01*
X809497571Y-580440114D01*
X809497571Y-580582971D01*
X809497571Y-579654400D02*
X809569000Y-579725828D01*
X809497571Y-579797257D01*
X809426142Y-579725828D01*
X809497571Y-579654400D01*
X809497571Y-579797257D01*
X812140428Y-580582971D02*
X811283285Y-580582971D01*
X811711857Y-580582971D02*
X811711857Y-579082971D01*
X811569000Y-579297257D01*
X811426142Y-579440114D01*
X811283285Y-579511542D01*
X813854714Y-579011542D02*
X812569000Y-580940114D01*
X815140428Y-580582971D02*
X814283285Y-580582971D01*
X814711857Y-580582971D02*
X814711857Y-579082971D01*
X814569000Y-579297257D01*
X814426142Y-579440114D01*
X814283285Y-579511542D01*
D10*
D11*
X720994000Y-571504400D02*
X828994000Y-571504400D01*
D10*
D13*
X722706380Y-572209161D02*
X723849238Y-572209161D01*
X723027809Y-574209161D02*
X723277809Y-572209161D01*
X724265904Y-574209161D02*
X724432571Y-572875828D01*
X724515904Y-572209161D02*
X724408761Y-572304400D01*
X724492095Y-572399638D01*
X724599238Y-572304400D01*
X724515904Y-572209161D01*
X724492095Y-572399638D01*
X725099238Y-572875828D02*
X725861142Y-572875828D01*
X725468285Y-572209161D02*
X725254000Y-573923447D01*
X725325428Y-574113923D01*
X725504000Y-574209161D01*
X725694476Y-574209161D01*
X726646857Y-574209161D02*
X726468285Y-574113923D01*
X726396857Y-573923447D01*
X726611142Y-572209161D01*
X728182571Y-574113923D02*
X727980190Y-574209161D01*
X727599238Y-574209161D01*
X727420666Y-574113923D01*
X727349238Y-573923447D01*
X727444476Y-573161542D01*
X727563523Y-572971066D01*
X727765904Y-572875828D01*
X728146857Y-572875828D01*
X728325428Y-572971066D01*
X728396857Y-573161542D01*
X728373047Y-573352019D01*
X727396857Y-573542495D01*
X729146857Y-574018685D02*
X729230190Y-574113923D01*
X729123047Y-574209161D01*
X729039714Y-574113923D01*
X729146857Y-574018685D01*
X729123047Y-574209161D01*
X729277809Y-572971066D02*
X729361142Y-573066304D01*
X729254000Y-573161542D01*
X729170666Y-573066304D01*
X729277809Y-572971066D01*
X729254000Y-573161542D01*
D10*
D11*
X722926142Y-569597257D02*
X722426142Y-569597257D01*
X722426142Y-570382971D02*
X722426142Y-568882971D01*
X723140428Y-568882971D01*
X723711857Y-570382971D02*
X723711857Y-569382971D01*
X723711857Y-568882971D02*
X723640428Y-568954400D01*
X723711857Y-569025828D01*
X723783285Y-568954400D01*
X723711857Y-568882971D01*
X723711857Y-569025828D01*
X724640428Y-570382971D02*
X724497571Y-570311542D01*
X724426142Y-570168685D01*
X724426142Y-568882971D01*
X725783285Y-570311542D02*
X725640428Y-570382971D01*
X725354714Y-570382971D01*
X725211857Y-570311542D01*
X725140428Y-570168685D01*
X725140428Y-569597257D01*
X725211857Y-569454400D01*
X725354714Y-569382971D01*
X725640428Y-569382971D01*
X725783285Y-569454400D01*
X725854714Y-569597257D01*
X725854714Y-569740114D01*
X725140428Y-569882971D01*
X726497571Y-570240114D02*
X726569000Y-570311542D01*
X726497571Y-570382971D01*
X726426142Y-570311542D01*
X726497571Y-570240114D01*
X726497571Y-570382971D01*
X726497571Y-569454400D02*
X726569000Y-569525828D01*
X726497571Y-569597257D01*
X726426142Y-569525828D01*
X726497571Y-569454400D01*
X726497571Y-569597257D01*
X729069000Y-570382971D02*
X728354714Y-570382971D01*
X728354714Y-568882971D01*
X730211857Y-570382971D02*
X730211857Y-569597257D01*
X730140428Y-569454400D01*
X729997571Y-569382971D01*
X729711857Y-569382971D01*
X729569000Y-569454400D01*
X730211857Y-570311542D02*
X730069000Y-570382971D01*
X729711857Y-570382971D01*
X729569000Y-570311542D01*
X729497571Y-570168685D01*
X729497571Y-570025828D01*
X729569000Y-569882971D01*
X729711857Y-569811542D01*
X730069000Y-569811542D01*
X730211857Y-569740114D01*
X730926142Y-570382971D02*
X730926142Y-569382971D01*
X730926142Y-569668685D02*
X730997571Y-569525828D01*
X731069000Y-569454400D01*
X731211857Y-569382971D01*
X731354714Y-569382971D01*
X731783285Y-570311542D02*
X731926142Y-570382971D01*
X732211857Y-570382971D01*
X732354714Y-570311542D01*
X732426142Y-570168685D01*
X732426142Y-570097257D01*
X732354714Y-569954400D01*
X732211857Y-569882971D01*
X731997571Y-569882971D01*
X731854714Y-569811542D01*
X731783285Y-569668685D01*
X731783285Y-569597257D01*
X731854714Y-569454400D01*
X731997571Y-569382971D01*
X732211857Y-569382971D01*
X732354714Y-569454400D01*
X733283285Y-570382971D02*
X733140428Y-570311542D01*
X733069000Y-570240114D01*
X732997571Y-570097257D01*
X732997571Y-569668685D01*
X733069000Y-569525828D01*
X733140428Y-569454400D01*
X733283285Y-569382971D01*
X733497571Y-569382971D01*
X733640428Y-569454400D01*
X733711857Y-569525828D01*
X733783285Y-569668685D01*
X733783285Y-570097257D01*
X733711857Y-570240114D01*
X733640428Y-570311542D01*
X733497571Y-570382971D01*
X733283285Y-570382971D01*
X734426142Y-569382971D02*
X734426142Y-570382971D01*
X734426142Y-569525828D02*
X734497571Y-569454400D01*
X734640428Y-569382971D01*
X734854714Y-569382971D01*
X734997571Y-569454400D01*
X735069000Y-569597257D01*
X735069000Y-570382971D01*
X736854714Y-570311542D02*
X737069000Y-570382971D01*
X737426142Y-570382971D01*
X737569000Y-570311542D01*
X737640428Y-570240114D01*
X737711857Y-570097257D01*
X737711857Y-569954400D01*
X737640428Y-569811542D01*
X737569000Y-569740114D01*
X737426142Y-569668685D01*
X737140428Y-569597257D01*
X736997571Y-569525828D01*
X736926142Y-569454400D01*
X736854714Y-569311542D01*
X736854714Y-569168685D01*
X736926142Y-569025828D01*
X736997571Y-568954400D01*
X737140428Y-568882971D01*
X737497571Y-568882971D01*
X737711857Y-568954400D01*
X739211857Y-570240114D02*
X739140428Y-570311542D01*
X738926142Y-570382971D01*
X738783285Y-570382971D01*
X738569000Y-570311542D01*
X738426142Y-570168685D01*
X738354714Y-570025828D01*
X738283285Y-569740114D01*
X738283285Y-569525828D01*
X738354714Y-569240114D01*
X738426142Y-569097257D01*
X738569000Y-568954400D01*
X738783285Y-568882971D01*
X738926142Y-568882971D01*
X739140428Y-568954400D01*
X739211857Y-569025828D01*
X740497571Y-568882971D02*
X740211857Y-568882971D01*
X740069000Y-568954400D01*
X739997571Y-569025828D01*
X739854714Y-569240114D01*
X739783285Y-569525828D01*
X739783285Y-570097257D01*
X739854714Y-570240114D01*
X739926142Y-570311542D01*
X740069000Y-570382971D01*
X740354714Y-570382971D01*
X740497571Y-570311542D01*
X740569000Y-570240114D01*
X740640428Y-570097257D01*
X740640428Y-569740114D01*
X740569000Y-569597257D01*
X740497571Y-569525828D01*
X740354714Y-569454400D01*
X740069000Y-569454400D01*
X739926142Y-569525828D01*
X739854714Y-569597257D01*
X739783285Y-569740114D01*
X741926142Y-569382971D02*
X741926142Y-570382971D01*
X741569000Y-568811542D02*
X741211857Y-569882971D01*
X742140428Y-569882971D01*
X743354714Y-570382971D02*
X743354714Y-569597257D01*
X743283285Y-569454400D01*
X743140428Y-569382971D01*
X742854714Y-569382971D01*
X742711857Y-569454400D01*
X743354714Y-570311542D02*
X743211857Y-570382971D01*
X742854714Y-570382971D01*
X742711857Y-570311542D01*
X742640428Y-570168685D01*
X742640428Y-570025828D01*
X742711857Y-569882971D01*
X742854714Y-569811542D01*
X743211857Y-569811542D01*
X743354714Y-569740114D01*
X744069000Y-569382971D02*
X744069000Y-570382971D01*
X744069000Y-569525828D02*
X744140428Y-569454400D01*
X744283285Y-569382971D01*
X744497571Y-569382971D01*
X744640428Y-569454400D01*
X744711857Y-569597257D01*
X744711857Y-570382971D01*
X745426142Y-569382971D02*
X745426142Y-570382971D01*
X745426142Y-569525828D02*
X745497571Y-569454400D01*
X745640428Y-569382971D01*
X745854714Y-569382971D01*
X745997571Y-569454400D01*
X746069000Y-569597257D01*
X746069000Y-570382971D01*
X747354714Y-570311542D02*
X747211857Y-570382971D01*
X746926142Y-570382971D01*
X746783285Y-570311542D01*
X746711857Y-570168685D01*
X746711857Y-569597257D01*
X746783285Y-569454400D01*
X746926142Y-569382971D01*
X747211857Y-569382971D01*
X747354714Y-569454400D01*
X747426142Y-569597257D01*
X747426142Y-569740114D01*
X746711857Y-569882971D01*
X748069000Y-570382971D02*
X748069000Y-569382971D01*
X748069000Y-569668685D02*
X748140428Y-569525828D01*
X748211857Y-569454400D01*
X748354714Y-569382971D01*
X748497571Y-569382971D01*
X748997571Y-570240114D02*
X749069000Y-570311542D01*
X748997571Y-570382971D01*
X748926142Y-570311542D01*
X748997571Y-570240114D01*
X748997571Y-570382971D01*
X749711857Y-570382971D02*
X749711857Y-568882971D01*
X749854714Y-569811542D02*
X750283285Y-570382971D01*
X750283285Y-569382971D02*
X749711857Y-569954400D01*
X750926142Y-570382971D02*
X750926142Y-569382971D01*
X750926142Y-568882971D02*
X750854714Y-568954400D01*
X750926142Y-569025828D01*
X750997571Y-568954400D01*
X750926142Y-568882971D01*
X750926142Y-569025828D01*
X752283285Y-570311542D02*
X752140428Y-570382971D01*
X751854714Y-570382971D01*
X751711857Y-570311542D01*
X751640428Y-570240114D01*
X751569000Y-570097257D01*
X751569000Y-569668685D01*
X751640428Y-569525828D01*
X751711857Y-569454400D01*
X751854714Y-569382971D01*
X752140428Y-569382971D01*
X752283285Y-569454400D01*
X753569000Y-570382971D02*
X753569000Y-569597257D01*
X753497571Y-569454400D01*
X753354714Y-569382971D01*
X753069000Y-569382971D01*
X752926142Y-569454400D01*
X753569000Y-570311542D02*
X753426142Y-570382971D01*
X753069000Y-570382971D01*
X752926142Y-570311542D01*
X752854714Y-570168685D01*
X752854714Y-570025828D01*
X752926142Y-569882971D01*
X753069000Y-569811542D01*
X753426142Y-569811542D01*
X753569000Y-569740114D01*
X754926142Y-570382971D02*
X754926142Y-568882971D01*
X754926142Y-570311542D02*
X754783285Y-570382971D01*
X754497571Y-570382971D01*
X754354714Y-570311542D01*
X754283285Y-570240114D01*
X754211857Y-570097257D01*
X754211857Y-569668685D01*
X754283285Y-569525828D01*
X754354714Y-569454400D01*
X754497571Y-569382971D01*
X754783285Y-569382971D01*
X754926142Y-569454400D01*
X755283285Y-570525828D02*
X756426142Y-570525828D01*
X756783285Y-569382971D02*
X756783285Y-570882971D01*
X756783285Y-569454400D02*
X756926142Y-569382971D01*
X757211857Y-569382971D01*
X757354714Y-569454400D01*
X757426142Y-569525828D01*
X757497571Y-569668685D01*
X757497571Y-570097257D01*
X757426142Y-570240114D01*
X757354714Y-570311542D01*
X757211857Y-570382971D01*
X756926142Y-570382971D01*
X756783285Y-570311542D01*
X758783285Y-570311542D02*
X758640428Y-570382971D01*
X758354714Y-570382971D01*
X758211857Y-570311542D01*
X758140428Y-570240114D01*
X758069000Y-570097257D01*
X758069000Y-569668685D01*
X758140428Y-569525828D01*
X758211857Y-569454400D01*
X758354714Y-569382971D01*
X758640428Y-569382971D01*
X758783285Y-569454400D01*
X759426142Y-570382971D02*
X759426142Y-568882971D01*
X759426142Y-569454400D02*
X759569000Y-569382971D01*
X759854714Y-569382971D01*
X759997571Y-569454400D01*
X760069000Y-569525828D01*
X760140428Y-569668685D01*
X760140428Y-570097257D01*
X760069000Y-570240114D01*
X759997571Y-570311542D01*
X759854714Y-570382971D01*
X759569000Y-570382971D01*
X759426142Y-570311542D01*
D10*
D11*
X720994000Y-565504400D02*
X828994000Y-565504400D01*
D10*
D11*
X722354714Y-567611542D02*
X722569000Y-567682971D01*
X722926142Y-567682971D01*
X723069000Y-567611542D01*
X723140428Y-567540114D01*
X723211857Y-567397257D01*
X723211857Y-567254400D01*
X723140428Y-567111542D01*
X723069000Y-567040114D01*
X722926142Y-566968685D01*
X722640428Y-566897257D01*
X722497571Y-566825828D01*
X722426142Y-566754400D01*
X722354714Y-566611542D01*
X722354714Y-566468685D01*
X722426142Y-566325828D01*
X722497571Y-566254400D01*
X722640428Y-566182971D01*
X722997571Y-566182971D01*
X723211857Y-566254400D01*
X723854714Y-567682971D02*
X723854714Y-566182971D01*
X724497571Y-567682971D02*
X724497571Y-566897257D01*
X724426142Y-566754400D01*
X724283285Y-566682971D01*
X724069000Y-566682971D01*
X723926142Y-566754400D01*
X723854714Y-566825828D01*
X725783285Y-567611542D02*
X725640428Y-567682971D01*
X725354714Y-567682971D01*
X725211857Y-567611542D01*
X725140428Y-567468685D01*
X725140428Y-566897257D01*
X725211857Y-566754400D01*
X725354714Y-566682971D01*
X725640428Y-566682971D01*
X725783285Y-566754400D01*
X725854714Y-566897257D01*
X725854714Y-567040114D01*
X725140428Y-567182971D01*
X727069000Y-567611542D02*
X726926142Y-567682971D01*
X726640428Y-567682971D01*
X726497571Y-567611542D01*
X726426142Y-567468685D01*
X726426142Y-566897257D01*
X726497571Y-566754400D01*
X726640428Y-566682971D01*
X726926142Y-566682971D01*
X727069000Y-566754400D01*
X727140428Y-566897257D01*
X727140428Y-567040114D01*
X726426142Y-567182971D01*
X727569000Y-566682971D02*
X728140428Y-566682971D01*
X727783285Y-566182971D02*
X727783285Y-567468685D01*
X727854714Y-567611542D01*
X727997571Y-567682971D01*
X728140428Y-567682971D01*
X728640428Y-567540114D02*
X728711857Y-567611542D01*
X728640428Y-567682971D01*
X728569000Y-567611542D01*
X728640428Y-567540114D01*
X728640428Y-567682971D01*
X728640428Y-566754400D02*
X728711857Y-566825828D01*
X728640428Y-566897257D01*
X728569000Y-566825828D01*
X728640428Y-566754400D01*
X728640428Y-566897257D01*
D10*
D11*
X740994000Y-575504400D02*
X740994000Y-578504400D01*
D10*
D11*
X804994000Y-575504400D02*
X804994000Y-582004400D01*
D14*
X43571428Y-37978571D02*
X42857142Y-37978571D01*
X42857142Y-36478571D01*
X44000000Y-37907142D02*
X44214285Y-37978571D01*
X44571428Y-37978571D01*
X44714285Y-37907142D01*
X44785714Y-37835714D01*
X44857142Y-37692857D01*
X44857142Y-37550000D01*
X44785714Y-37407142D01*
X44714285Y-37335714D01*
X44571428Y-37264285D01*
X44285714Y-37192857D01*
X44142857Y-37121428D01*
X44071428Y-37050000D01*
X44000000Y-36907142D01*
X44000000Y-36764285D01*
X44071428Y-36621428D01*
X44142857Y-36550000D01*
X44285714Y-36478571D01*
X44642857Y-36478571D01*
X44857142Y-36550000D01*
X46357142Y-37835714D02*
X46285714Y-37907142D01*
X46071428Y-37978571D01*
X45928571Y-37978571D01*
X45714285Y-37907142D01*
X45571428Y-37764285D01*
X45500000Y-37621428D01*
X45428571Y-37335714D01*
X45428571Y-37121428D01*
X45500000Y-36835714D01*
X45571428Y-36692857D01*
X45714285Y-36550000D01*
X45928571Y-36478571D01*
X46071428Y-36478571D01*
X46285714Y-36550000D01*
X46357142Y-36621428D01*
X47642857Y-36478571D02*
X47357142Y-36478571D01*
X47214285Y-36550000D01*
X47142857Y-36621428D01*
X47000000Y-36835714D01*
X46928571Y-37121428D01*
X46928571Y-37692857D01*
X47000000Y-37835714D01*
X47071428Y-37907142D01*
X47214285Y-37978571D01*
X47500000Y-37978571D01*
X47642857Y-37907142D01*
X47714285Y-37835714D01*
X47785714Y-37692857D01*
X47785714Y-37335714D01*
X47714285Y-37192857D01*
X47642857Y-37121428D01*
X47500000Y-37050000D01*
X47214285Y-37050000D01*
X47071428Y-37121428D01*
X47000000Y-37192857D01*
X46928571Y-37335714D01*
X49071428Y-36978571D02*
X49071428Y-37978571D01*
X48714285Y-36407142D02*
X48357142Y-37478571D01*
X49285714Y-37478571D01*
D15*
X419000000Y-40000000D02*
X29000000Y-40000000D01*
X419000000Y-20000000D02*
X419000000Y-40000000D01*
X29000000Y-20000000D02*
X419000000Y-20000000D01*
X29000000Y-40000000D02*
X29000000Y-20000000D01*
D16*
%TO.P,U5,8*%
%TO.N,N/C*%
X239860000Y-28770000D03*
%TO.P,U5,4*%
%TO.N,Net-(C11-Pad2)*%
X232240000Y-36390000D03*
%TO.P,U5,7*%
%TO.N,Net-(C11-Pad1)*%
X239860000Y-31310000D03*
%TO.P,U5,3*%
%TO.N,Net-(J36-Pad1)*%
X232240000Y-33850000D03*
%TO.P,U5,6*%
%TO.N,Net-(J35-Pad1)*%
X239860000Y-33850000D03*
%TO.P,U5,2*%
%TO.N,Net-(C11-Pad2)*%
X232240000Y-31310000D03*
%TO.P,U5,5*%
%TO.N,Net-(C10-Pad1)*%
X239860000Y-36390000D03*
D17*
%TO.P,U5,1*%
%TO.N,Net-(R32-Pad1)*%
X232240000Y-28770000D03*
%TD*%
D18*
%TO.P,J26,1*%
%TO.N,Net-(C11-Pad2)*%
X272860000Y-23440000D03*
D19*
%TO.P,J26,2*%
X275400000Y-23440000D03*
%TO.P,J26,3*%
X272860000Y-25980000D03*
%TO.P,J26,4*%
X275400000Y-25980000D03*
%TO.P,J26,5*%
X272860000Y-28520000D03*
%TO.P,J26,6*%
X275400000Y-28520000D03*
%TO.P,J26,7*%
X272860000Y-31060000D03*
%TO.P,J26,8*%
X275400000Y-31060000D03*
%TO.P,J26,9*%
X272860000Y-33600000D03*
%TO.P,J26,10*%
X275400000Y-33600000D03*
%TD*%
D20*
%TO.P,U3,1*%
%TO.N,Net-(U2-Pad3)*%
X104840000Y-26480000D03*
%TO.P,U3,4*%
%TO.N,Net-(J25-Pad1)*%
X99760000Y-34100000D03*
%TO.P,U3,2*%
%TO.N,Net-(C3-Pad2)*%
X102300000Y-26480000D03*
%TO.P,U3,5*%
%TO.N,Net-(J24-Pad1)*%
X102300000Y-34100000D03*
%TO.P,U3,3*%
%TO.N,Net-(U3-Pad3)*%
X99760000Y-26480000D03*
%TO.P,U3,6*%
X104840000Y-34100000D03*
%TD*%
D18*
%TO.P,J25,1*%
%TO.N,Net-(J25-Pad1)*%
X101490000Y-22930000D03*
%TD*%
D19*
%TO.P,J10,6*%
%TO.N,Net-(J10-Pad6)*%
X229000000Y-32760000D03*
%TO.P,J10,5*%
%TO.N,Net-(J10-Pad1)*%
X229000000Y-35300000D03*
%TO.P,J10,4*%
%TO.N,Net-(J10-Pad4)*%
X226460000Y-32760000D03*
%TO.P,J10,3*%
%TO.N,Net-(J10-Pad1)*%
X226460000Y-35300000D03*
%TO.P,J10,2*%
%TO.N,Net-(J10-Pad2)*%
X223920000Y-32760000D03*
D18*
%TO.P,J10,1*%
%TO.N,Net-(J10-Pad1)*%
X223920000Y-35300000D03*
%TD*%
D17*
%TO.P,C1,2*%
%TO.N,Net-(C1-Pad2)*%
X84500000Y-32000000D03*
D21*
%TO.P,C1,1*%
%TO.N,Net-(C1-Pad1)*%
X82000000Y-32000000D03*
%TD*%
D16*
%TO.P,U1,8*%
%TO.N,Net-(J21-Pad1)*%
X407380000Y-26680000D03*
D17*
%TO.P,U1,4*%
%TO.N,Net-(C11-Pad2)*%
X415000000Y-34300000D03*
D16*
%TO.P,U1,7*%
%TO.N,Net-(R23-Pad1)*%
X409920000Y-26680000D03*
%TO.P,U1,3*%
%TO.N,Net-(R25-Pad1)*%
X412460000Y-34300000D03*
%TO.P,U1,6*%
%TO.N,Net-(R22-Pad2)*%
X412460000Y-26680000D03*
%TO.P,U1,2*%
%TO.N,Net-(R24-Pad1)*%
X409920000Y-34300000D03*
%TO.P,U1,5*%
%TO.N,Net-(R21-Pad2)*%
X415000000Y-26680000D03*
D21*
%TO.P,U1,1*%
%TO.N,N/C*%
X407380000Y-34300000D03*
%TD*%
D22*
%TO.P,LED1,4*%
%TO.N,Net-(J1-Pad6)*%
X400159000Y-27300000D03*
%TO.P,LED1,1*%
%TO.N,Net-(LED1-Pad1)*%
X395206000Y-27300000D03*
%TO.P,LED1,3*%
%TO.N,Net-(J1-Pad4)*%
X398508000Y-27300000D03*
D23*
%TO.P,LED1,2*%
%TO.N,Net-(J11-Pad1)*%
X396857000Y-27300000D03*
%TD*%
D19*
%TO.P,J1,6*%
%TO.N,Net-(J1-Pad6)*%
X400080000Y-32760000D03*
%TO.P,J1,5*%
%TO.N,Net-(J1-Pad1)*%
X400080000Y-35300000D03*
%TO.P,J1,4*%
%TO.N,Net-(J1-Pad4)*%
X397540000Y-32760000D03*
%TO.P,J1,3*%
%TO.N,Net-(J1-Pad1)*%
X397540000Y-35300000D03*
%TO.P,J1,2*%
%TO.N,Net-(J1-Pad2)*%
X395000000Y-32760000D03*
D18*
%TO.P,J1,1*%
%TO.N,Net-(J1-Pad1)*%
X395000000Y-35300000D03*
%TD*%
D19*
%TO.P,J2,6*%
%TO.N,Net-(J2-Pad6)*%
X381080000Y-32760000D03*
%TO.P,J2,5*%
%TO.N,Net-(J11-Pad1)*%
X381080000Y-35300000D03*
%TO.P,J2,4*%
%TO.N,Net-(J2-Pad4)*%
X378540000Y-32760000D03*
%TO.P,J2,3*%
%TO.N,Net-(J11-Pad1)*%
X378540000Y-35300000D03*
%TO.P,J2,2*%
%TO.N,Net-(J2-Pad2)*%
X376000000Y-32760000D03*
D18*
%TO.P,J2,1*%
%TO.N,Net-(J11-Pad1)*%
X376000000Y-35300000D03*
%TD*%
D19*
%TO.P,J3,6*%
%TO.N,Net-(J3-Pad6)*%
X362080000Y-32760000D03*
%TO.P,J3,5*%
%TO.N,Net-(J1-Pad1)*%
X362080000Y-35300000D03*
%TO.P,J3,4*%
%TO.N,Net-(J3-Pad4)*%
X359540000Y-32760000D03*
%TO.P,J3,3*%
%TO.N,Net-(J1-Pad1)*%
X359540000Y-35300000D03*
%TO.P,J3,2*%
%TO.N,Net-(J3-Pad2)*%
X357000000Y-32760000D03*
D18*
%TO.P,J3,1*%
%TO.N,Net-(J1-Pad1)*%
X357000000Y-35300000D03*
%TD*%
D19*
%TO.P,J4,6*%
%TO.N,Net-(J4-Pad6)*%
X343000000Y-32760000D03*
%TO.P,J4,5*%
%TO.N,Net-(J10-Pad1)*%
X343000000Y-35300000D03*
%TO.P,J4,4*%
%TO.N,Net-(J4-Pad4)*%
X340460000Y-32760000D03*
%TO.P,J4,3*%
%TO.N,Net-(J10-Pad1)*%
X340460000Y-35300000D03*
%TO.P,J4,2*%
%TO.N,Net-(J4-Pad2)*%
X337920000Y-32760000D03*
D18*
%TO.P,J4,1*%
%TO.N,Net-(J10-Pad1)*%
X337920000Y-35300000D03*
%TD*%
D19*
%TO.P,J5,6*%
%TO.N,Net-(J5-Pad6)*%
X324080000Y-32760000D03*
%TO.P,J5,5*%
%TO.N,Net-(J1-Pad1)*%
X324080000Y-35300000D03*
%TO.P,J5,4*%
%TO.N,Net-(J5-Pad4)*%
X321540000Y-32760000D03*
%TO.P,J5,3*%
%TO.N,Net-(J1-Pad1)*%
X321540000Y-35300000D03*
%TO.P,J5,2*%
%TO.N,Net-(J5-Pad2)*%
X319000000Y-32760000D03*
D18*
%TO.P,J5,1*%
%TO.N,Net-(J1-Pad1)*%
X319000000Y-35300000D03*
%TD*%
D19*
%TO.P,J6,6*%
%TO.N,Net-(J6-Pad6)*%
X305080000Y-32760000D03*
%TO.P,J6,5*%
%TO.N,Net-(J12-Pad1)*%
X305080000Y-35300000D03*
%TO.P,J6,4*%
%TO.N,Net-(J6-Pad4)*%
X302540000Y-32760000D03*
%TO.P,J6,3*%
%TO.N,Net-(J12-Pad1)*%
X302540000Y-35300000D03*
%TO.P,J6,2*%
%TO.N,Net-(J6-Pad2)*%
X300000000Y-32760000D03*
D18*
%TO.P,J6,1*%
%TO.N,Net-(J12-Pad1)*%
X300000000Y-35300000D03*
%TD*%
D19*
%TO.P,J7,6*%
%TO.N,Net-(J7-Pad6)*%
X286080000Y-32760000D03*
%TO.P,J7,5*%
%TO.N,Net-(J1-Pad1)*%
X286080000Y-35300000D03*
%TO.P,J7,4*%
%TO.N,Net-(J7-Pad4)*%
X283540000Y-32760000D03*
%TO.P,J7,3*%
%TO.N,Net-(J1-Pad1)*%
X283540000Y-35300000D03*
%TO.P,J7,2*%
%TO.N,Net-(J7-Pad2)*%
X281000000Y-32760000D03*
D18*
%TO.P,J7,1*%
%TO.N,Net-(J1-Pad1)*%
X281000000Y-35300000D03*
%TD*%
D19*
%TO.P,J8,6*%
%TO.N,Net-(J8-Pad6)*%
X267000000Y-32760000D03*
%TO.P,J8,5*%
%TO.N,Net-(J14-Pad1)*%
X267000000Y-35300000D03*
%TO.P,J8,4*%
%TO.N,Net-(J8-Pad4)*%
X264460000Y-32760000D03*
%TO.P,J8,3*%
%TO.N,Net-(J14-Pad1)*%
X264460000Y-35300000D03*
%TO.P,J8,2*%
%TO.N,Net-(J8-Pad2)*%
X261920000Y-32760000D03*
D18*
%TO.P,J8,1*%
%TO.N,Net-(J14-Pad1)*%
X261920000Y-35300000D03*
%TD*%
D19*
%TO.P,J9,6*%
%TO.N,Net-(J9-Pad6)*%
X248080000Y-32760000D03*
%TO.P,J9,5*%
%TO.N,Net-(J11-Pad1)*%
X248080000Y-35300000D03*
%TO.P,J9,4*%
%TO.N,Net-(J9-Pad4)*%
X245540000Y-32760000D03*
%TO.P,J9,3*%
%TO.N,Net-(J11-Pad1)*%
X245540000Y-35300000D03*
%TO.P,J9,2*%
%TO.N,Net-(J9-Pad2)*%
X243000000Y-32760000D03*
D18*
%TO.P,J9,1*%
%TO.N,Net-(J11-Pad1)*%
X243000000Y-35300000D03*
%TD*%
D19*
%TO.P,J11,6*%
%TO.N,Net-(J11-Pad6)*%
X210000000Y-32760000D03*
%TO.P,J11,5*%
%TO.N,Net-(J11-Pad1)*%
X210000000Y-35300000D03*
%TO.P,J11,4*%
%TO.N,Net-(J11-Pad4)*%
X207460000Y-32760000D03*
%TO.P,J11,3*%
%TO.N,Net-(J11-Pad1)*%
X207460000Y-35300000D03*
%TO.P,J11,2*%
%TO.N,Net-(J11-Pad2)*%
X204920000Y-32760000D03*
D18*
%TO.P,J11,1*%
%TO.N,Net-(J11-Pad1)*%
X204920000Y-35300000D03*
%TD*%
D19*
%TO.P,J12,6*%
%TO.N,Net-(J12-Pad6)*%
X191000000Y-32760000D03*
%TO.P,J12,5*%
%TO.N,Net-(J12-Pad1)*%
X191000000Y-35300000D03*
%TO.P,J12,4*%
%TO.N,Net-(J12-Pad4)*%
X188460000Y-32760000D03*
%TO.P,J12,3*%
%TO.N,Net-(J12-Pad1)*%
X188460000Y-35300000D03*
%TO.P,J12,2*%
%TO.N,Net-(J12-Pad2)*%
X185920000Y-32760000D03*
D18*
%TO.P,J12,1*%
%TO.N,Net-(J12-Pad1)*%
X185920000Y-35300000D03*
%TD*%
D19*
%TO.P,J13,6*%
%TO.N,Net-(J13-Pad6)*%
X172000000Y-32760000D03*
%TO.P,J13,5*%
%TO.N,Net-(J11-Pad1)*%
X172000000Y-35300000D03*
%TO.P,J13,4*%
%TO.N,Net-(J13-Pad4)*%
X169460000Y-32760000D03*
%TO.P,J13,3*%
%TO.N,Net-(J11-Pad1)*%
X169460000Y-35300000D03*
%TO.P,J13,2*%
%TO.N,Net-(J13-Pad2)*%
X166920000Y-32760000D03*
D18*
%TO.P,J13,1*%
%TO.N,Net-(J11-Pad1)*%
X166920000Y-35300000D03*
%TD*%
D19*
%TO.P,J14,6*%
%TO.N,Net-(J14-Pad6)*%
X153000000Y-32760000D03*
%TO.P,J14,5*%
%TO.N,Net-(J14-Pad1)*%
X153000000Y-35300000D03*
%TO.P,J14,4*%
%TO.N,Net-(J14-Pad4)*%
X150460000Y-32760000D03*
%TO.P,J14,3*%
%TO.N,Net-(J14-Pad1)*%
X150460000Y-35300000D03*
%TO.P,J14,2*%
%TO.N,Net-(J14-Pad2)*%
X147920000Y-32760000D03*
D18*
%TO.P,J14,1*%
%TO.N,Net-(J14-Pad1)*%
X147920000Y-35300000D03*
%TD*%
D19*
%TO.P,J15,6*%
%TO.N,Net-(J15-Pad6)*%
X134000000Y-32760000D03*
%TO.P,J15,5*%
%TO.N,Net-(J10-Pad1)*%
X134000000Y-35300000D03*
%TO.P,J15,4*%
%TO.N,Net-(J15-Pad4)*%
X131460000Y-32760000D03*
%TO.P,J15,3*%
%TO.N,Net-(J10-Pad1)*%
X131460000Y-35300000D03*
%TO.P,J15,2*%
%TO.N,Net-(J15-Pad2)*%
X128920000Y-32760000D03*
D18*
%TO.P,J15,1*%
%TO.N,Net-(J10-Pad1)*%
X128920000Y-35300000D03*
%TD*%
D19*
%TO.P,J16,6*%
%TO.N,Net-(J16-Pad6)*%
X115000000Y-32760000D03*
%TO.P,J16,5*%
%TO.N,Net-(J12-Pad1)*%
X115000000Y-35300000D03*
%TO.P,J16,4*%
%TO.N,Net-(J16-Pad4)*%
X112460000Y-32760000D03*
%TO.P,J16,3*%
%TO.N,Net-(J12-Pad1)*%
X112460000Y-35300000D03*
%TO.P,J16,2*%
%TO.N,Net-(J16-Pad2)*%
X109920000Y-32760000D03*
D18*
%TO.P,J16,1*%
%TO.N,Net-(J12-Pad1)*%
X109920000Y-35300000D03*
%TD*%
D19*
%TO.P,J17,6*%
%TO.N,Net-(J17-Pad6)*%
X96000000Y-32760000D03*
%TO.P,J17,5*%
%TO.N,Net-(J10-Pad1)*%
X96000000Y-35300000D03*
%TO.P,J17,4*%
%TO.N,Net-(J17-Pad4)*%
X93460000Y-32760000D03*
%TO.P,J17,3*%
%TO.N,Net-(J10-Pad1)*%
X93460000Y-35300000D03*
%TO.P,J17,2*%
%TO.N,Net-(J17-Pad2)*%
X90920000Y-32760000D03*
D18*
%TO.P,J17,1*%
%TO.N,Net-(J10-Pad1)*%
X90920000Y-35300000D03*
%TD*%
D19*
%TO.P,J18,6*%
%TO.N,Net-(J18-Pad6)*%
X77000000Y-32760000D03*
%TO.P,J18,5*%
%TO.N,Net-(J14-Pad1)*%
X77000000Y-35300000D03*
%TO.P,J18,4*%
%TO.N,Net-(J18-Pad4)*%
X74460000Y-32760000D03*
%TO.P,J18,3*%
%TO.N,Net-(J14-Pad1)*%
X74460000Y-35300000D03*
%TO.P,J18,2*%
%TO.N,Net-(J18-Pad2)*%
X71920000Y-32760000D03*
D18*
%TO.P,J18,1*%
%TO.N,Net-(J14-Pad1)*%
X71920000Y-35300000D03*
%TD*%
D19*
%TO.P,J19,6*%
%TO.N,Net-(J19-Pad6)*%
X58000000Y-32760000D03*
%TO.P,J19,5*%
%TO.N,Net-(J12-Pad1)*%
X58000000Y-35300000D03*
%TO.P,J19,4*%
%TO.N,Net-(J19-Pad4)*%
X55460000Y-32760000D03*
%TO.P,J19,3*%
%TO.N,Net-(J12-Pad1)*%
X55460000Y-35300000D03*
%TO.P,J19,2*%
%TO.N,Net-(J19-Pad2)*%
X52920000Y-32760000D03*
D18*
%TO.P,J19,1*%
%TO.N,Net-(J12-Pad1)*%
X52920000Y-35300000D03*
%TD*%
D19*
%TO.P,J20,6*%
%TO.N,Net-(J20-Pad6)*%
X39000000Y-32760000D03*
%TO.P,J20,5*%
%TO.N,Net-(J14-Pad1)*%
X39000000Y-35300000D03*
%TO.P,J20,4*%
%TO.N,Net-(J20-Pad4)*%
X36460000Y-32760000D03*
%TO.P,J20,3*%
%TO.N,Net-(J14-Pad1)*%
X36460000Y-35300000D03*
%TO.P,J20,2*%
%TO.N,Net-(J20-Pad2)*%
X33920000Y-32760000D03*
D18*
%TO.P,J20,1*%
%TO.N,Net-(J14-Pad1)*%
X33920000Y-35300000D03*
%TD*%
D22*
%TO.P,LED2,4*%
%TO.N,Net-(J2-Pad6)*%
X381159000Y-27300000D03*
%TO.P,LED2,1*%
%TO.N,Net-(LED2-Pad1)*%
X376206000Y-27300000D03*
%TO.P,LED2,3*%
%TO.N,Net-(J2-Pad4)*%
X379508000Y-27300000D03*
D23*
%TO.P,LED2,2*%
%TO.N,Net-(J1-Pad1)*%
X377857000Y-27300000D03*
%TD*%
D22*
%TO.P,LED3,4*%
%TO.N,Net-(J3-Pad6)*%
X362159000Y-27300000D03*
%TO.P,LED3,1*%
%TO.N,Net-(LED3-Pad1)*%
X357206000Y-27300000D03*
%TO.P,LED3,3*%
%TO.N,Net-(J3-Pad4)*%
X360508000Y-27300000D03*
D23*
%TO.P,LED3,2*%
%TO.N,Net-(J10-Pad1)*%
X358857000Y-27300000D03*
%TD*%
D22*
%TO.P,LED4,4*%
%TO.N,Net-(J4-Pad6)*%
X343159000Y-27300000D03*
%TO.P,LED4,1*%
%TO.N,Net-(LED4-Pad1)*%
X338206000Y-27300000D03*
%TO.P,LED4,3*%
%TO.N,Net-(J4-Pad4)*%
X341508000Y-27300000D03*
D23*
%TO.P,LED4,2*%
%TO.N,Net-(J1-Pad1)*%
X339857000Y-27300000D03*
%TD*%
D22*
%TO.P,LED5,4*%
%TO.N,Net-(J5-Pad6)*%
X324159000Y-27300000D03*
%TO.P,LED5,1*%
%TO.N,Net-(LED5-Pad1)*%
X319206000Y-27300000D03*
%TO.P,LED5,3*%
%TO.N,Net-(J5-Pad4)*%
X322508000Y-27300000D03*
D23*
%TO.P,LED5,2*%
%TO.N,Net-(J12-Pad1)*%
X320857000Y-27300000D03*
%TD*%
D22*
%TO.P,LED6,4*%
%TO.N,Net-(J6-Pad6)*%
X305159000Y-27300000D03*
%TO.P,LED6,1*%
%TO.N,Net-(LED6-Pad1)*%
X300206000Y-27300000D03*
%TO.P,LED6,3*%
%TO.N,Net-(J6-Pad4)*%
X303508000Y-27300000D03*
D23*
%TO.P,LED6,2*%
%TO.N,Net-(J1-Pad1)*%
X301857000Y-27300000D03*
%TD*%
D22*
%TO.P,LED7,4*%
%TO.N,Net-(J7-Pad6)*%
X286159000Y-27300000D03*
%TO.P,LED7,1*%
%TO.N,Net-(LED7-Pad1)*%
X281206000Y-27300000D03*
%TO.P,LED7,3*%
%TO.N,Net-(J7-Pad4)*%
X284508000Y-27300000D03*
D23*
%TO.P,LED7,2*%
%TO.N,Net-(J14-Pad1)*%
X282857000Y-27300000D03*
%TD*%
D22*
%TO.P,LED8,4*%
%TO.N,Net-(J8-Pad6)*%
X267159000Y-27300000D03*
%TO.P,LED8,1*%
%TO.N,Net-(LED8-Pad1)*%
X262206000Y-27300000D03*
%TO.P,LED8,3*%
%TO.N,Net-(J8-Pad4)*%
X265508000Y-27300000D03*
D23*
%TO.P,LED8,2*%
%TO.N,Net-(J1-Pad1)*%
X263857000Y-27300000D03*
%TD*%
D22*
%TO.P,LED9,4*%
%TO.N,Net-(J9-Pad6)*%
X248159000Y-27300000D03*
%TO.P,LED9,1*%
%TO.N,Net-(LED9-Pad1)*%
X243206000Y-27300000D03*
%TO.P,LED9,3*%
%TO.N,Net-(J9-Pad4)*%
X246508000Y-27300000D03*
D23*
%TO.P,LED9,2*%
%TO.N,Net-(J10-Pad1)*%
X244857000Y-27300000D03*
%TD*%
D22*
%TO.P,LED10,4*%
%TO.N,Net-(J10-Pad6)*%
X229159000Y-27300000D03*
%TO.P,LED10,1*%
%TO.N,Net-(LED10-Pad1)*%
X224206000Y-27300000D03*
%TO.P,LED10,3*%
%TO.N,Net-(J10-Pad4)*%
X227508000Y-27300000D03*
D23*
%TO.P,LED10,2*%
%TO.N,Net-(J11-Pad1)*%
X225857000Y-27300000D03*
%TD*%
D22*
%TO.P,LED11,4*%
%TO.N,Net-(J11-Pad6)*%
X210159000Y-27300000D03*
%TO.P,LED11,1*%
%TO.N,Net-(LED11-Pad1)*%
X205206000Y-27300000D03*
%TO.P,LED11,3*%
%TO.N,Net-(J11-Pad4)*%
X208508000Y-27300000D03*
D23*
%TO.P,LED11,2*%
%TO.N,Net-(J12-Pad1)*%
X206857000Y-27300000D03*
%TD*%
D22*
%TO.P,LED12,4*%
%TO.N,Net-(J12-Pad6)*%
X191159000Y-27300000D03*
%TO.P,LED12,1*%
%TO.N,Net-(LED12-Pad1)*%
X186206000Y-27300000D03*
%TO.P,LED12,3*%
%TO.N,Net-(J12-Pad4)*%
X189508000Y-27300000D03*
D23*
%TO.P,LED12,2*%
%TO.N,Net-(J11-Pad1)*%
X187857000Y-27300000D03*
%TD*%
D22*
%TO.P,LED13,4*%
%TO.N,Net-(J13-Pad6)*%
X172159000Y-27300000D03*
%TO.P,LED13,1*%
%TO.N,Net-(LED13-Pad1)*%
X167206000Y-27300000D03*
%TO.P,LED13,3*%
%TO.N,Net-(J13-Pad4)*%
X170508000Y-27300000D03*
D23*
%TO.P,LED13,2*%
%TO.N,Net-(J14-Pad1)*%
X168857000Y-27300000D03*
%TD*%
D22*
%TO.P,LED14,4*%
%TO.N,Net-(J14-Pad6)*%
X153159000Y-27300000D03*
%TO.P,LED14,1*%
%TO.N,Net-(LED14-Pad1)*%
X148206000Y-27300000D03*
%TO.P,LED14,3*%
%TO.N,Net-(J14-Pad4)*%
X151508000Y-27300000D03*
D23*
%TO.P,LED14,2*%
%TO.N,Net-(J11-Pad1)*%
X149857000Y-27300000D03*
%TD*%
D22*
%TO.P,LED15,4*%
%TO.N,Net-(J15-Pad6)*%
X134159000Y-27300000D03*
%TO.P,LED15,1*%
%TO.N,Net-(LED15-Pad1)*%
X129206000Y-27300000D03*
%TO.P,LED15,3*%
%TO.N,Net-(J15-Pad4)*%
X132508000Y-27300000D03*
D23*
%TO.P,LED15,2*%
%TO.N,Net-(J12-Pad1)*%
X130857000Y-27300000D03*
%TD*%
D22*
%TO.P,LED16,4*%
%TO.N,Net-(J16-Pad6)*%
X115159000Y-27300000D03*
%TO.P,LED16,1*%
%TO.N,Net-(LED16-Pad1)*%
X110206000Y-27300000D03*
%TO.P,LED16,3*%
%TO.N,Net-(J16-Pad4)*%
X113508000Y-27300000D03*
D23*
%TO.P,LED16,2*%
%TO.N,Net-(J10-Pad1)*%
X111857000Y-27300000D03*
%TD*%
D22*
%TO.P,LED17,4*%
%TO.N,Net-(J17-Pad6)*%
X96159000Y-27300000D03*
%TO.P,LED17,1*%
%TO.N,Net-(LED17-Pad1)*%
X91206000Y-27300000D03*
%TO.P,LED17,3*%
%TO.N,Net-(J17-Pad4)*%
X94508000Y-27300000D03*
D23*
%TO.P,LED17,2*%
%TO.N,Net-(J14-Pad1)*%
X92857000Y-27300000D03*
%TD*%
D22*
%TO.P,LED18,4*%
%TO.N,Net-(J18-Pad6)*%
X77159000Y-27300000D03*
%TO.P,LED18,1*%
%TO.N,Net-(LED18-Pad1)*%
X72206000Y-27300000D03*
%TO.P,LED18,3*%
%TO.N,Net-(J18-Pad4)*%
X75508000Y-27300000D03*
D23*
%TO.P,LED18,2*%
%TO.N,Net-(J10-Pad1)*%
X73857000Y-27300000D03*
%TD*%
D22*
%TO.P,LED19,4*%
%TO.N,Net-(J19-Pad6)*%
X58159000Y-27300000D03*
%TO.P,LED19,1*%
%TO.N,Net-(LED19-Pad1)*%
X53206000Y-27300000D03*
%TO.P,LED19,3*%
%TO.N,Net-(J19-Pad4)*%
X56508000Y-27300000D03*
D23*
%TO.P,LED19,2*%
%TO.N,Net-(J14-Pad1)*%
X54857000Y-27300000D03*
%TD*%
D22*
%TO.P,LED20,4*%
%TO.N,Net-(J20-Pad6)*%
X39159000Y-27300000D03*
%TO.P,LED20,1*%
%TO.N,Net-(LED20-Pad1)*%
X34206000Y-27300000D03*
%TO.P,LED20,3*%
%TO.N,Net-(J20-Pad4)*%
X37508000Y-27300000D03*
D23*
%TO.P,LED20,2*%
%TO.N,Net-(J12-Pad1)*%
X35857000Y-27300000D03*
%TD*%
D21*
%TO.P,C2,1*%
%TO.N,Net-(C2-Pad1)*%
X44000000Y-32000000D03*
D17*
%TO.P,C2,2*%
%TO.N,Net-(C2-Pad2)*%
X46500000Y-32000000D03*
%TD*%
%TO.P,D1,1*%
%TO.N,Net-(C1-Pad2)*%
X62100000Y-34620000D03*
D16*
%TO.P,D1,2*%
%TO.N,Net-(C2-Pad2)*%
X62100000Y-27000000D03*
%TD*%
D18*
%TO.P,J23,1*%
%TO.N,Net-(C1-Pad2)*%
X66000000Y-34610000D03*
%TD*%
D21*
%TO.P,C3,1*%
%TO.N,Net-(C11-Pad2)*%
X140000000Y-33550000D03*
D17*
%TO.P,C3,2*%
%TO.N,Net-(C3-Pad2)*%
X142500000Y-33550000D03*
%TD*%
D24*
%TO.P,C4,1*%
%TO.N,Net-(C4-Pad1)*%
X119600000Y-36250000D03*
%TO.P,C4,2*%
%TO.N,Net-(C3-Pad2)*%
X124600000Y-36250000D03*
%TD*%
D18*
%TO.P,R29,1*%
%TO.N,Net-(J24-Pad1)*%
X124640000Y-33300000D03*
D19*
%TO.P,R29,2*%
%TO.N,Net-(R28-Pad1)*%
X122100000Y-33300000D03*
%TO.P,R29,3*%
X119560000Y-33300000D03*
%TD*%
D17*
%TO.P,U2,1*%
%TO.N,Net-(C3-Pad2)*%
X125840000Y-23100000D03*
D16*
%TO.P,U2,5*%
%TO.N,Net-(C4-Pad1)*%
X118220000Y-30720000D03*
%TO.P,U2,2*%
%TO.N,Net-(C11-Pad2)*%
X123300000Y-23100000D03*
%TO.P,U2,6*%
X120760000Y-30720000D03*
%TO.P,U2,3*%
%TO.N,Net-(U2-Pad3)*%
X120760000Y-23100000D03*
%TO.P,U2,7*%
%TO.N,Net-(R28-Pad1)*%
X123300000Y-30720000D03*
%TO.P,U2,4*%
%TO.N,Net-(J24-Pad1)*%
X118220000Y-23100000D03*
%TO.P,U2,8*%
X125840000Y-30720000D03*
%TD*%
D17*
%TO.P,C5,1*%
%TO.N,Net-(C5-Pad1)*%
X160572000Y-24506000D03*
D21*
%TO.P,C5,2*%
%TO.N,Net-(C5-Pad2)*%
X160572000Y-27006000D03*
%TD*%
D17*
%TO.P,C6,1*%
%TO.N,Net-(C6-Pad1)*%
X161130000Y-30375000D03*
D21*
%TO.P,C6,2*%
%TO.N,Net-(C5-Pad2)*%
X161130000Y-32875000D03*
%TD*%
D24*
%TO.P,C7,1*%
%TO.N,Net-(C5-Pad2)*%
X161825000Y-36050000D03*
%TO.P,C7,2*%
%TO.N,Net-(C7-Pad2)*%
X156825000Y-36050000D03*
%TD*%
D21*
%TO.P,C8,2*%
%TO.N,Net-(C11-Pad2)*%
X177700000Y-24500000D03*
D17*
%TO.P,C8,1*%
%TO.N,Net-(C8-Pad1)*%
X180200000Y-24500000D03*
%TD*%
D21*
%TO.P,C9,2*%
%TO.N,Net-(C10-Pad2)*%
X254400000Y-25900000D03*
D17*
%TO.P,C9,1*%
%TO.N,Net-(C9-Pad1)*%
X254400000Y-23400000D03*
%TD*%
D21*
%TO.P,C10,2*%
%TO.N,Net-(C10-Pad2)*%
X254300000Y-29000000D03*
D17*
%TO.P,C10,1*%
%TO.N,Net-(C10-Pad1)*%
X254300000Y-31500000D03*
%TD*%
%TO.P,C11,1*%
%TO.N,Net-(C11-Pad1)*%
X237000000Y-24400000D03*
D21*
%TO.P,C11,2*%
%TO.N,Net-(C11-Pad2)*%
X234500000Y-24400000D03*
%TD*%
D24*
%TO.P,C12,2*%
%TO.N,Net-(C12-Pad2)*%
X257400000Y-34600000D03*
%TO.P,C12,1*%
%TO.N,Net-(C10-Pad2)*%
X252400000Y-34600000D03*
%TD*%
D18*
%TO.P,J29,1*%
%TO.N,Net-(J29-Pad1)*%
X197180000Y-30400000D03*
%TD*%
%TO.P,J31,1*%
%TO.N,Net-(J31-Pad1)*%
X197180000Y-25950000D03*
%TD*%
%TO.P,J32,1*%
%TO.N,Net-(C5-Pad2)*%
X197180000Y-34830000D03*
%TD*%
%TO.P,J35,1*%
%TO.N,Net-(J35-Pad1)*%
X217650000Y-30400000D03*
%TD*%
%TO.P,J36,1*%
%TO.N,Net-(J36-Pad1)*%
X217600000Y-34850000D03*
%TD*%
%TO.P,J38,1*%
%TO.N,Net-(C10-Pad2)*%
X217650000Y-25950000D03*
%TD*%
%TO.P,J24,1*%
%TO.N,Net-(J24-Pad1)*%
X105550000Y-22900000D03*
%TD*%
%TO.P,J21,1*%
%TO.N,Net-(J21-Pad1)*%
X412450000Y-23300000D03*
D19*
%TO.P,J21,2*%
X414990000Y-23300000D03*
%TD*%
D17*
%TO.P,U4,1*%
%TO.N,Net-(R30-Pad1)*%
X175180000Y-28880000D03*
D16*
%TO.P,U4,5*%
%TO.N,Net-(C6-Pad1)*%
X182800000Y-36500000D03*
%TO.P,U4,2*%
%TO.N,Net-(C11-Pad2)*%
X175180000Y-31420000D03*
%TO.P,U4,6*%
%TO.N,Net-(J31-Pad1)*%
X182800000Y-33960000D03*
%TO.P,U4,3*%
%TO.N,Net-(J29-Pad1)*%
X175180000Y-33960000D03*
%TO.P,U4,7*%
%TO.N,Net-(C8-Pad1)*%
X182800000Y-31420000D03*
%TO.P,U4,4*%
%TO.N,Net-(C11-Pad2)*%
X175180000Y-36500000D03*
%TO.P,U4,8*%
%TO.N,N/C*%
X182800000Y-28880000D03*
%TD*%
D21*
%TO.P,R1,1*%
%TO.N,Net-(LED1-Pad1)*%
X393000000Y-26760000D03*
D16*
%TO.P,R1,2*%
%TO.N,Net-(J1-Pad2)*%
X393000000Y-29300000D03*
%TD*%
D21*
%TO.P,R2,1*%
%TO.N,Net-(LED2-Pad1)*%
X374000000Y-26760000D03*
D16*
%TO.P,R2,2*%
%TO.N,Net-(J2-Pad2)*%
X374000000Y-29300000D03*
%TD*%
%TO.P,R3,2*%
%TO.N,Net-(J3-Pad2)*%
X355000000Y-29300000D03*
D21*
%TO.P,R3,1*%
%TO.N,Net-(LED3-Pad1)*%
X355000000Y-26760000D03*
%TD*%
%TO.P,R4,1*%
%TO.N,Net-(LED4-Pad1)*%
X336000000Y-26760000D03*
D16*
%TO.P,R4,2*%
%TO.N,Net-(J4-Pad2)*%
X336000000Y-29300000D03*
%TD*%
%TO.P,R5,2*%
%TO.N,Net-(J5-Pad2)*%
X317000000Y-29300000D03*
D21*
%TO.P,R5,1*%
%TO.N,Net-(LED5-Pad1)*%
X317000000Y-26760000D03*
%TD*%
D16*
%TO.P,R6,2*%
%TO.N,Net-(J6-Pad2)*%
X298000000Y-29300000D03*
D21*
%TO.P,R6,1*%
%TO.N,Net-(LED6-Pad1)*%
X298000000Y-26760000D03*
%TD*%
D16*
%TO.P,R7,2*%
%TO.N,Net-(J7-Pad2)*%
X279000000Y-29300000D03*
D21*
%TO.P,R7,1*%
%TO.N,Net-(LED7-Pad1)*%
X279000000Y-26760000D03*
%TD*%
D16*
%TO.P,R8,2*%
%TO.N,Net-(J8-Pad2)*%
X269800000Y-29800000D03*
D21*
%TO.P,R8,1*%
%TO.N,Net-(LED8-Pad1)*%
X269800000Y-27260000D03*
%TD*%
D16*
%TO.P,R9,2*%
%TO.N,Net-(J9-Pad2)*%
X250100000Y-28400000D03*
D21*
%TO.P,R9,1*%
%TO.N,Net-(LED9-Pad1)*%
X250100000Y-25860000D03*
%TD*%
D16*
%TO.P,R10,2*%
%TO.N,Net-(J10-Pad2)*%
X221930000Y-29480000D03*
D21*
%TO.P,R10,1*%
%TO.N,Net-(LED10-Pad1)*%
X221930000Y-26940000D03*
%TD*%
D16*
%TO.P,R11,2*%
%TO.N,Net-(J11-Pad2)*%
X202810000Y-29430000D03*
D21*
%TO.P,R11,1*%
%TO.N,Net-(LED11-Pad1)*%
X202810000Y-26890000D03*
%TD*%
%TO.P,R12,1*%
%TO.N,Net-(LED12-Pad1)*%
X193800000Y-27300000D03*
D16*
%TO.P,R12,2*%
%TO.N,Net-(J12-Pad2)*%
X193800000Y-29840000D03*
%TD*%
D21*
%TO.P,R13,1*%
%TO.N,Net-(LED13-Pad1)*%
X165500000Y-25850000D03*
D16*
%TO.P,R13,2*%
%TO.N,Net-(J13-Pad2)*%
X165500000Y-28390000D03*
%TD*%
D21*
%TO.P,R14,1*%
%TO.N,Net-(LED14-Pad1)*%
X146000000Y-26760000D03*
D16*
%TO.P,R14,2*%
%TO.N,Net-(J14-Pad2)*%
X146000000Y-29300000D03*
%TD*%
D21*
%TO.P,R15,1*%
%TO.N,Net-(LED15-Pad1)*%
X136750000Y-27000000D03*
D16*
%TO.P,R15,2*%
%TO.N,Net-(J15-Pad2)*%
X136750000Y-29540000D03*
%TD*%
D21*
%TO.P,R16,1*%
%TO.N,Net-(LED16-Pad1)*%
X108000000Y-26760000D03*
D16*
%TO.P,R16,2*%
%TO.N,Net-(J16-Pad2)*%
X108000000Y-29300000D03*
%TD*%
D21*
%TO.P,R17,1*%
%TO.N,Net-(LED17-Pad1)*%
X89000000Y-26760000D03*
D16*
%TO.P,R17,2*%
%TO.N,Net-(J17-Pad2)*%
X89000000Y-29300000D03*
%TD*%
D21*
%TO.P,R18,1*%
%TO.N,Net-(LED18-Pad1)*%
X70000000Y-26760000D03*
D16*
%TO.P,R18,2*%
%TO.N,Net-(J18-Pad2)*%
X70000000Y-29300000D03*
%TD*%
%TO.P,R19,2*%
%TO.N,Net-(J19-Pad2)*%
X51000000Y-29300000D03*
D21*
%TO.P,R19,1*%
%TO.N,Net-(LED19-Pad1)*%
X51000000Y-26760000D03*
%TD*%
%TO.P,R20,1*%
%TO.N,Net-(LED20-Pad1)*%
X32000000Y-26760000D03*
D16*
%TO.P,R20,2*%
%TO.N,Net-(J20-Pad2)*%
X32000000Y-29300000D03*
%TD*%
D21*
%TO.P,R21,1*%
%TO.N,Net-(J1-Pad1)*%
X413000000Y-37300000D03*
D16*
%TO.P,R21,2*%
%TO.N,Net-(R21-Pad2)*%
X415540000Y-37300000D03*
%TD*%
D21*
%TO.P,R22,1*%
%TO.N,Net-(J11-Pad1)*%
X405460000Y-23300000D03*
D16*
%TO.P,R22,2*%
%TO.N,Net-(R22-Pad2)*%
X408000000Y-23300000D03*
%TD*%
%TO.P,R23,2*%
%TO.N,Net-(J10-Pad1)*%
X367460000Y-23300000D03*
D21*
%TO.P,R23,1*%
%TO.N,Net-(R23-Pad1)*%
X370000000Y-23300000D03*
%TD*%
%TO.P,R24,1*%
%TO.N,Net-(R24-Pad1)*%
X332000000Y-23300000D03*
D16*
%TO.P,R24,2*%
%TO.N,Net-(J12-Pad1)*%
X329460000Y-23300000D03*
%TD*%
%TO.P,R25,2*%
%TO.N,Net-(J14-Pad1)*%
X291460000Y-23300000D03*
D21*
%TO.P,R25,1*%
%TO.N,Net-(R25-Pad1)*%
X294000000Y-23300000D03*
%TD*%
%TO.P,R26,1*%
%TO.N,Net-(C1-Pad2)*%
X84540000Y-27000000D03*
D16*
%TO.P,R26,2*%
%TO.N,Net-(C1-Pad1)*%
X82000000Y-27000000D03*
%TD*%
%TO.P,R27,2*%
%TO.N,Net-(C2-Pad1)*%
X44000000Y-27000000D03*
D21*
%TO.P,R27,1*%
%TO.N,Net-(C2-Pad2)*%
X46540000Y-27000000D03*
%TD*%
%TO.P,R28,1*%
%TO.N,Net-(R28-Pad1)*%
X141200000Y-26410000D03*
D16*
%TO.P,R28,2*%
%TO.N,Net-(C11-Pad2)*%
X141200000Y-28950000D03*
%TD*%
%TO.P,R30,2*%
%TO.N,Net-(C5-Pad1)*%
X156254000Y-24860000D03*
D21*
%TO.P,R30,1*%
%TO.N,Net-(R30-Pad1)*%
X156254000Y-27400000D03*
%TD*%
D16*
%TO.P,R31,2*%
%TO.N,Net-(C7-Pad2)*%
X156830000Y-33360000D03*
D21*
%TO.P,R31,1*%
%TO.N,Net-(C11-Pad2)*%
X156830000Y-30820000D03*
%TD*%
D16*
%TO.P,R32,2*%
%TO.N,Net-(C9-Pad1)*%
X258700000Y-22500000D03*
D21*
%TO.P,R32,1*%
%TO.N,Net-(R32-Pad1)*%
X258700000Y-25040000D03*
%TD*%
D16*
%TO.P,R33,2*%
%TO.N,Net-(C12-Pad2)*%
X258700000Y-31800000D03*
D21*
%TO.P,R33,1*%
%TO.N,Net-(C11-Pad2)*%
X258700000Y-29260000D03*
%TD*%
D18*
%TO.P,J22,1*%
%TO.N,Net-(C1-Pad1)*%
X66000000Y-25500000D03*
%TD*%
%TO.P,J27,1*%
%TO.N,Net-(C2-Pad1)*%
X66000000Y-30000000D03*
%TD*%
D25*
%TO.N,Net-(J11-Pad1)*%
X187857000Y-30757000D03*
X225857000Y-30757000D03*
X331000000Y-27000000D03*
X335750000Y-23250000D03*
%TO.N,Net-(J10-Pad1)*%
X80600000Y-36300000D03*
X248996500Y-29703500D03*
X332000000Y-37300000D03*
%TO.N,Net-(J12-Pad1)*%
X131475000Y-37675000D03*
X206857000Y-30657000D03*
%TO.N,Net-(R24-Pad1)*%
X392000000Y-31300000D03*
%TO.N,Net-(J24-Pad1)*%
X102300000Y-31700000D03*
X105700000Y-30400000D03*
%TO.N,Net-(U2-Pad3)*%
X104900000Y-28700000D03*
%TO.N,Net-(C6-Pad1)*%
X167730000Y-23460000D03*
X169840000Y-23460000D03*
%TO.N,Net-(C11-Pad2)*%
X146550000Y-22550000D03*
X167730000Y-22360000D03*
X235700000Y-29150000D03*
%TO.N,Net-(C10-Pad2)*%
X232100000Y-25400000D03*
%TO.N,Net-(C10-Pad1)*%
X242050000Y-24850000D03*
%TD*%
D26*
%TO.N,Net-(J1-Pad6)*%
X400080000Y-27379000D02*
X400159000Y-27300000D01*
X400159000Y-32681000D02*
X400080000Y-32760000D01*
X400159000Y-27300000D02*
X400159000Y-32681000D01*
%TO.N,Net-(J1-Pad4)*%
X398508000Y-31792000D02*
X397540000Y-32760000D01*
X398508000Y-27300000D02*
X398508000Y-31792000D01*
%TO.N,Net-(J1-Pad1)*%
X281000000Y-35300000D02*
X283540000Y-35300000D01*
X283540000Y-35300000D02*
X286080000Y-35300000D01*
X319000000Y-35300000D02*
X321540000Y-35300000D01*
X321540000Y-35300000D02*
X324080000Y-35300000D01*
X357000000Y-35300000D02*
X359540000Y-35300000D01*
X359540000Y-35300000D02*
X362080000Y-35300000D01*
X395000000Y-35300000D02*
X397540000Y-35300000D01*
X397540000Y-35300000D02*
X400080000Y-35300000D01*
X402080000Y-37300000D02*
X400080000Y-35300000D01*
X297080000Y-24300000D02*
X286080000Y-35300000D01*
X300111000Y-24300000D02*
X297080000Y-24300000D01*
X373080000Y-24300000D02*
X362080000Y-35300000D01*
X376111000Y-24300000D02*
X373080000Y-24300000D01*
X413000000Y-37300000D02*
X412000000Y-37300000D01*
X413460000Y-37300000D02*
X412000000Y-37300000D01*
X412000000Y-37300000D02*
X402080000Y-37300000D01*
X377857000Y-26046000D02*
X377857000Y-27300000D01*
X376111000Y-24300000D02*
X377857000Y-26046000D01*
X301857000Y-26046000D02*
X301857000Y-27300000D01*
X300111000Y-24300000D02*
X301857000Y-26046000D01*
%TO.N,Net-(J2-Pad6)*%
X381080000Y-27379000D02*
X381159000Y-27300000D01*
X381080000Y-32760000D02*
X381080000Y-27379000D01*
%TO.N,Net-(J2-Pad4)*%
X379508000Y-31792000D02*
X379508000Y-27300000D01*
X378540000Y-32760000D02*
X379508000Y-31792000D01*
%TO.N,Net-(J11-Pad1)*%
X204920000Y-35300000D02*
X207460000Y-35300000D01*
X207460000Y-35300000D02*
X210000000Y-35300000D01*
X243000000Y-35300000D02*
X245540000Y-35300000D01*
X245540000Y-35300000D02*
X248080000Y-35300000D01*
X169460000Y-35300000D02*
X172000000Y-35300000D01*
X166920000Y-35300000D02*
X169460000Y-35300000D01*
X332000000Y-27000000D02*
X331000000Y-27000000D01*
X376000000Y-35300000D02*
X378540000Y-35300000D01*
X378540000Y-35300000D02*
X381080000Y-35300000D01*
X225857000Y-28150000D02*
X225857000Y-27300000D01*
X211000000Y-36300000D02*
X221900000Y-36300000D01*
X210000000Y-35300000D02*
X211000000Y-36300000D01*
X221900000Y-36300000D02*
X222300000Y-35900000D01*
X222300000Y-35900000D02*
X222300000Y-31707000D01*
X225857000Y-27300000D02*
X225857000Y-30757000D01*
X223257000Y-30757000D02*
X225857000Y-30757000D01*
X222300000Y-31707000D02*
X223253500Y-30753500D01*
X187857000Y-27300000D02*
X187857000Y-30757000D01*
X185453000Y-30757000D02*
X184230000Y-31980000D01*
X175050000Y-38350000D02*
X172000000Y-35300000D01*
X184230000Y-37170000D02*
X183050000Y-38350000D01*
X187857000Y-30757000D02*
X185453000Y-30757000D01*
X184230000Y-31980000D02*
X184230000Y-37170000D01*
X183050000Y-38350000D02*
X175050000Y-38350000D01*
X332000000Y-27000000D02*
X335750000Y-23250000D01*
%TO.N,Net-(J3-Pad6)*%
X362080000Y-27379000D02*
X362159000Y-27300000D01*
X362159000Y-32681000D02*
X362080000Y-32760000D01*
X362159000Y-27300000D02*
X362159000Y-32681000D01*
%TO.N,Net-(J3-Pad4)*%
X360508000Y-31792000D02*
X359540000Y-32760000D01*
X360508000Y-27300000D02*
X360508000Y-31792000D01*
%TO.N,Net-(J4-Pad6)*%
X343000000Y-27459000D02*
X343159000Y-27300000D01*
X343159000Y-32601000D02*
X343000000Y-32760000D01*
X343159000Y-27300000D02*
X343159000Y-32601000D01*
%TO.N,Net-(J4-Pad4)*%
X341508000Y-31712000D02*
X340460000Y-32760000D01*
X341508000Y-27300000D02*
X341508000Y-31712000D01*
%TO.N,Net-(J10-Pad1)*%
X90920000Y-35300000D02*
X93460000Y-35300000D01*
X93460000Y-35300000D02*
X96000000Y-35300000D01*
X223920000Y-35300000D02*
X226460000Y-35300000D01*
X226460000Y-35300000D02*
X229000000Y-35300000D01*
X337920000Y-35300000D02*
X340460000Y-35300000D01*
X340460000Y-35300000D02*
X343000000Y-35300000D01*
X354000000Y-24300000D02*
X343000000Y-35300000D01*
X357111000Y-24300000D02*
X354000000Y-24300000D01*
X358857000Y-26046000D02*
X358857000Y-27300000D01*
X357111000Y-24300000D02*
X358857000Y-26046000D01*
X131460000Y-35300000D02*
X134000000Y-35300000D01*
X128920000Y-35300000D02*
X131460000Y-35300000D01*
X358857000Y-26450000D02*
X358857000Y-27300000D01*
X358857000Y-26143000D02*
X358857000Y-26450000D01*
X361700000Y-23300000D02*
X358857000Y-26143000D01*
X367460000Y-23300000D02*
X361700000Y-23300000D01*
X106000000Y-36175000D02*
X96875000Y-36175000D01*
X107250000Y-34925000D02*
X106000000Y-36175000D01*
X96875000Y-36175000D02*
X96000000Y-35300000D01*
X111857000Y-28150000D02*
X109257000Y-30750000D01*
X111857000Y-27300000D02*
X111857000Y-28150000D01*
X108000000Y-30750000D02*
X107250000Y-31500000D01*
X107250000Y-31500000D02*
X107250000Y-34925000D01*
X109257000Y-30750000D02*
X108000000Y-30750000D01*
X80600000Y-36300000D02*
X88000000Y-36300000D01*
X89000000Y-35300000D02*
X90920000Y-35300000D01*
X88000000Y-36300000D02*
X89000000Y-35300000D01*
X250500000Y-37300000D02*
X249700000Y-36500000D01*
X332000000Y-37300000D02*
X250500000Y-37300000D01*
X185100000Y-37300000D02*
X183450000Y-38950000D01*
X223170000Y-37300000D02*
X185100000Y-37300000D01*
X174450000Y-38950000D02*
X172800000Y-37300000D01*
X183450000Y-38950000D02*
X174450000Y-38950000D01*
X166000000Y-37300000D02*
X164600000Y-38700000D01*
X223920000Y-36550000D02*
X223170000Y-37300000D01*
X154000000Y-37300000D02*
X136000000Y-37300000D01*
X223920000Y-35300000D02*
X223920000Y-36550000D01*
X136000000Y-37300000D02*
X134000000Y-35300000D01*
X164600000Y-38700000D02*
X155400000Y-38700000D01*
X172800000Y-37300000D02*
X166000000Y-37300000D01*
X155400000Y-38700000D02*
X154000000Y-37300000D01*
X230260000Y-39020000D02*
X229000000Y-37760000D01*
X229000000Y-37760000D02*
X229000000Y-35300000D01*
X244857000Y-28343000D02*
X241400000Y-31800000D01*
X241400000Y-38230000D02*
X240610000Y-39020000D01*
X244857000Y-27300000D02*
X244857000Y-28343000D01*
X241400000Y-31800000D02*
X241400000Y-38230000D01*
X240610000Y-39020000D02*
X230260000Y-39020000D01*
X249700000Y-36500000D02*
X249700000Y-32100000D01*
X248996500Y-31396500D02*
X248996500Y-29703500D01*
X249700000Y-32100000D02*
X248996500Y-31396500D01*
%TO.N,Net-(J5-Pad6)*%
X324080000Y-27379000D02*
X324159000Y-27300000D01*
X324159000Y-32681000D02*
X324080000Y-32760000D01*
X324159000Y-27300000D02*
X324159000Y-32681000D01*
%TO.N,Net-(J5-Pad4)*%
X322508000Y-31792000D02*
X321540000Y-32760000D01*
X322508000Y-27300000D02*
X322508000Y-31792000D01*
%TO.N,Net-(J6-Pad6)*%
X305080000Y-27379000D02*
X305159000Y-27300000D01*
X305159000Y-32681000D02*
X305080000Y-32760000D01*
X305159000Y-27300000D02*
X305159000Y-32681000D01*
%TO.N,Net-(J6-Pad4)*%
X303508000Y-31792000D02*
X302540000Y-32760000D01*
X303508000Y-27300000D02*
X303508000Y-31792000D01*
%TO.N,Net-(J12-Pad1)*%
X52920000Y-35300000D02*
X55460000Y-35300000D01*
X55460000Y-35300000D02*
X58000000Y-35300000D01*
X109920000Y-35300000D02*
X112460000Y-35300000D01*
X112460000Y-35300000D02*
X115000000Y-35300000D01*
X300000000Y-35300000D02*
X302540000Y-35300000D01*
X302540000Y-35300000D02*
X305080000Y-35300000D01*
X316080000Y-24300000D02*
X305080000Y-35300000D01*
X319111000Y-24300000D02*
X316080000Y-24300000D01*
X58000000Y-35300000D02*
X60000000Y-37300000D01*
X109920000Y-36550000D02*
X109920000Y-35300000D01*
X109170000Y-37300000D02*
X109920000Y-36550000D01*
X60000000Y-37300000D02*
X109170000Y-37300000D01*
X320857000Y-26300000D02*
X320857000Y-27300000D01*
X320857000Y-26046000D02*
X320857000Y-27300000D01*
X319111000Y-24300000D02*
X320857000Y-26046000D01*
X188460000Y-35300000D02*
X191000000Y-35300000D01*
X185920000Y-35300000D02*
X188460000Y-35300000D01*
X323603000Y-23300000D02*
X320857000Y-26046000D01*
X325300000Y-23300000D02*
X323857000Y-23300000D01*
X325300000Y-23300000D02*
X323603000Y-23300000D01*
X329460000Y-23300000D02*
X325300000Y-23300000D01*
X115000000Y-35300000D02*
X115000000Y-37300000D01*
X116100000Y-38400000D02*
X115000000Y-37300000D01*
X127800000Y-38400000D02*
X116100000Y-38400000D01*
X131475000Y-37675000D02*
X128525000Y-37675000D01*
X128525000Y-37675000D02*
X127800000Y-38400000D01*
X206857000Y-27300000D02*
X206857000Y-30657000D01*
X203943000Y-30657000D02*
X206857000Y-30657000D01*
X191000000Y-35300000D02*
X192100000Y-36400000D01*
X192100000Y-36400000D02*
X202800000Y-36400000D01*
X202800000Y-36400000D02*
X203200000Y-36000000D01*
X203200000Y-36000000D02*
X203200000Y-31400000D01*
X203200000Y-31400000D02*
X203943000Y-30657000D01*
%TO.N,Net-(J7-Pad6)*%
X286080000Y-27379000D02*
X286159000Y-27300000D01*
X286159000Y-32681000D02*
X286080000Y-32760000D01*
X286159000Y-27300000D02*
X286159000Y-32681000D01*
%TO.N,Net-(J7-Pad4)*%
X284508000Y-31792000D02*
X283540000Y-32760000D01*
X284508000Y-27300000D02*
X284508000Y-31792000D01*
%TO.N,Net-(J8-Pad6)*%
X267000000Y-27459000D02*
X267159000Y-27300000D01*
X267159000Y-32601000D02*
X267000000Y-32760000D01*
X267159000Y-27300000D02*
X267159000Y-32601000D01*
%TO.N,Net-(J8-Pad4)*%
X265508000Y-31712000D02*
X264460000Y-32760000D01*
X265508000Y-27300000D02*
X265508000Y-31712000D01*
%TO.N,Net-(J14-Pad1)*%
X33920000Y-35300000D02*
X36460000Y-35300000D01*
X36460000Y-35300000D02*
X39000000Y-35300000D01*
X71920000Y-35300000D02*
X74460000Y-35300000D01*
X74460000Y-35300000D02*
X77000000Y-35300000D01*
X261920000Y-35300000D02*
X264460000Y-35300000D01*
X264460000Y-35300000D02*
X267000000Y-35300000D01*
X282857000Y-26046000D02*
X282857000Y-27300000D01*
X282857000Y-26300000D02*
X282857000Y-27300000D01*
X92857000Y-26300000D02*
X92857000Y-27300000D01*
X92857000Y-26046000D02*
X92857000Y-27300000D01*
X150460000Y-35300000D02*
X153000000Y-35300000D01*
X147920000Y-35300000D02*
X150460000Y-35300000D01*
X285603000Y-23300000D02*
X282857000Y-26046000D01*
X286700000Y-23300000D02*
X285603000Y-23300000D01*
X286700000Y-23300000D02*
X285857000Y-23300000D01*
X291460000Y-23300000D02*
X286700000Y-23300000D01*
X85700000Y-35300000D02*
X77000000Y-35300000D01*
X87700000Y-24300000D02*
X87000000Y-25000000D01*
X92857000Y-26046000D02*
X91111000Y-24300000D01*
X87000000Y-25000000D02*
X87000000Y-34000000D01*
X91111000Y-24300000D02*
X87700000Y-24300000D01*
X87000000Y-34000000D02*
X85700000Y-35300000D01*
X47700000Y-35300000D02*
X39000000Y-35300000D01*
X49000000Y-34000000D02*
X47700000Y-35300000D01*
X54857000Y-26046000D02*
X53111000Y-24300000D01*
X54857000Y-27300000D02*
X54857000Y-26046000D01*
X53111000Y-24300000D02*
X49700000Y-24300000D01*
X49700000Y-24300000D02*
X49000000Y-25000000D01*
X49000000Y-25000000D02*
X49000000Y-34000000D01*
X168857000Y-28150000D02*
X168857000Y-27300000D01*
X165007000Y-32000000D02*
X168857000Y-28150000D01*
X164400000Y-38050000D02*
X165000000Y-37450000D01*
X155750000Y-38050000D02*
X164400000Y-38050000D01*
X165000000Y-32000000D02*
X165007000Y-32000000D01*
X153000000Y-35300000D02*
X155750000Y-38050000D01*
X165000000Y-37450000D02*
X165000000Y-32000000D01*
X277400000Y-26100000D02*
X278455500Y-25044500D01*
X279400000Y-31800000D02*
X277400000Y-29800000D01*
X281855500Y-25044500D02*
X282857000Y-26046000D01*
X268700000Y-35300000D02*
X270000000Y-36600000D01*
X270000000Y-36600000D02*
X278600000Y-36600000D01*
X267000000Y-35300000D02*
X268700000Y-35300000D01*
X278600000Y-36600000D02*
X279400000Y-35800000D01*
X278455500Y-25044500D02*
X281855500Y-25044500D01*
X277400000Y-29800000D02*
X277400000Y-26100000D01*
X279400000Y-35800000D02*
X279400000Y-31800000D01*
X240200000Y-24050000D02*
X237900000Y-21750000D01*
X240200000Y-25750000D02*
X240200000Y-24050000D01*
X261920000Y-35300000D02*
X260820000Y-35300000D01*
X251300000Y-36400000D02*
X250600000Y-35700000D01*
X250600000Y-30400000D02*
X251600000Y-29400000D01*
X260820000Y-35300000D02*
X259720000Y-36400000D01*
X250600000Y-35700000D02*
X250600000Y-30400000D01*
X259720000Y-36400000D02*
X251300000Y-36400000D01*
X251600000Y-29400000D02*
X251600000Y-25000000D01*
X241000000Y-26550000D02*
X240200000Y-25750000D01*
X251600000Y-25000000D02*
X250850000Y-24250000D01*
X250850000Y-24250000D02*
X244400000Y-24250000D01*
X244400000Y-24250000D02*
X242100000Y-26550000D01*
X242100000Y-26550000D02*
X241000000Y-26550000D01*
X237900000Y-21750000D02*
X170476998Y-21750000D01*
X168857000Y-26450000D02*
X168857000Y-27300000D01*
X168857000Y-22993000D02*
X168857000Y-26450000D01*
X170100000Y-21750000D02*
X168857000Y-22993000D01*
X170476998Y-21750000D02*
X170100000Y-21750000D01*
%TO.N,Net-(J9-Pad6)*%
X248080000Y-27379000D02*
X248159000Y-27300000D01*
X248159000Y-32681000D02*
X248080000Y-32760000D01*
X248159000Y-27300000D02*
X248159000Y-32681000D01*
%TO.N,Net-(J9-Pad4)*%
X246508000Y-31792000D02*
X245540000Y-32760000D01*
X246508000Y-27300000D02*
X246508000Y-31792000D01*
%TO.N,Net-(J10-Pad6)*%
X229000000Y-27459000D02*
X229159000Y-27300000D01*
X229159000Y-32601000D02*
X229000000Y-32760000D01*
X229159000Y-27300000D02*
X229159000Y-32601000D01*
%TO.N,Net-(J10-Pad4)*%
X227508000Y-31712000D02*
X226460000Y-32760000D01*
X227508000Y-27300000D02*
X227508000Y-31712000D01*
%TO.N,Net-(J11-Pad6)*%
X210000000Y-27459000D02*
X210159000Y-27300000D01*
X210159000Y-32601000D02*
X210000000Y-32760000D01*
X210159000Y-27300000D02*
X210159000Y-32601000D01*
%TO.N,Net-(J11-Pad4)*%
X208508000Y-31712000D02*
X207460000Y-32760000D01*
X208508000Y-27300000D02*
X208508000Y-31712000D01*
%TO.N,Net-(J12-Pad6)*%
X191159000Y-32601000D02*
X191000000Y-32760000D01*
X191159000Y-27300000D02*
X191159000Y-32601000D01*
X191000000Y-27459000D02*
X191159000Y-27300000D01*
%TO.N,Net-(J12-Pad4)*%
X189508000Y-27300000D02*
X189508000Y-31712000D01*
X189508000Y-31712000D02*
X188460000Y-32760000D01*
%TO.N,Net-(J13-Pad6)*%
X172000000Y-27459000D02*
X172159000Y-27300000D01*
X172159000Y-32601000D02*
X172000000Y-32760000D01*
X172159000Y-27300000D02*
X172159000Y-32601000D01*
%TO.N,Net-(J13-Pad4)*%
X170508000Y-27300000D02*
X170508000Y-31712000D01*
X170508000Y-31712000D02*
X169460000Y-32760000D01*
%TO.N,Net-(J14-Pad6)*%
X153000000Y-27459000D02*
X153159000Y-27300000D01*
X153159000Y-27300000D02*
X153159000Y-32601000D01*
X153159000Y-32601000D02*
X153000000Y-32760000D01*
%TO.N,Net-(J14-Pad4)*%
X151508000Y-31712000D02*
X150460000Y-32760000D01*
X151508000Y-27300000D02*
X151508000Y-31712000D01*
%TO.N,Net-(J15-Pad6)*%
X134159000Y-32601000D02*
X134000000Y-32760000D01*
X134159000Y-27300000D02*
X134159000Y-32601000D01*
X134000000Y-27459000D02*
X134159000Y-27300000D01*
%TO.N,Net-(J15-Pad4)*%
X132508000Y-27300000D02*
X132508000Y-31712000D01*
X132508000Y-31712000D02*
X131460000Y-32760000D01*
%TO.N,Net-(J16-Pad6)*%
X115000000Y-27459000D02*
X115159000Y-27300000D01*
X115159000Y-32601000D02*
X115000000Y-32760000D01*
X115159000Y-27300000D02*
X115159000Y-32601000D01*
%TO.N,Net-(J16-Pad4)*%
X113508000Y-31712000D02*
X112460000Y-32760000D01*
X113508000Y-27300000D02*
X113508000Y-31712000D01*
%TO.N,Net-(J17-Pad6)*%
X96000000Y-27459000D02*
X96159000Y-27300000D01*
X96159000Y-32601000D02*
X96000000Y-32760000D01*
X96159000Y-27300000D02*
X96159000Y-32601000D01*
%TO.N,Net-(J17-Pad4)*%
X94508000Y-31712000D02*
X93460000Y-32760000D01*
X94508000Y-27300000D02*
X94508000Y-31712000D01*
%TO.N,Net-(J18-Pad6)*%
X77000000Y-27459000D02*
X77159000Y-27300000D01*
X77159000Y-32601000D02*
X77000000Y-32760000D01*
X77159000Y-27300000D02*
X77159000Y-32601000D01*
%TO.N,Net-(J18-Pad4)*%
X75508000Y-31712000D02*
X74460000Y-32760000D01*
X75508000Y-27300000D02*
X75508000Y-31712000D01*
%TO.N,Net-(J19-Pad6)*%
X58000000Y-27459000D02*
X58159000Y-27300000D01*
X58159000Y-32601000D02*
X58000000Y-32760000D01*
X58159000Y-27300000D02*
X58159000Y-32601000D01*
%TO.N,Net-(J19-Pad4)*%
X56508000Y-31712000D02*
X55460000Y-32760000D01*
X56508000Y-27300000D02*
X56508000Y-31712000D01*
%TO.N,Net-(J20-Pad6)*%
X39000000Y-27459000D02*
X39159000Y-27300000D01*
X39159000Y-32601000D02*
X39000000Y-32760000D01*
X39159000Y-27300000D02*
X39159000Y-32601000D01*
%TO.N,Net-(J20-Pad4)*%
X37508000Y-31712000D02*
X36460000Y-32760000D01*
X37508000Y-27300000D02*
X37508000Y-31712000D01*
%TO.N,Net-(J1-Pad2)*%
X395000000Y-31300000D02*
X393000000Y-29300000D01*
X395000000Y-32760000D02*
X395000000Y-31300000D01*
%TO.N,Net-(J2-Pad2)*%
X376000000Y-31300000D02*
X374000000Y-29300000D01*
X376000000Y-32760000D02*
X376000000Y-31300000D01*
%TO.N,Net-(J3-Pad2)*%
X357000000Y-31300000D02*
X355000000Y-29300000D01*
X357000000Y-32760000D02*
X357000000Y-31300000D01*
%TO.N,Net-(J4-Pad2)*%
X337920000Y-31220000D02*
X336000000Y-29300000D01*
X337920000Y-32760000D02*
X337920000Y-31220000D01*
%TO.N,Net-(J5-Pad2)*%
X319000000Y-31300000D02*
X317000000Y-29300000D01*
X319000000Y-32760000D02*
X319000000Y-31300000D01*
%TO.N,Net-(J6-Pad2)*%
X300000000Y-31300000D02*
X298000000Y-29300000D01*
X300000000Y-32760000D02*
X300000000Y-31300000D01*
%TO.N,Net-(J7-Pad2)*%
X281000000Y-31300000D02*
X279000000Y-29300000D01*
X281000000Y-32760000D02*
X281000000Y-31300000D01*
%TO.N,Net-(J14-Pad2)*%
X147920000Y-31220000D02*
X146000000Y-29300000D01*
X147920000Y-32760000D02*
X147920000Y-31220000D01*
%TO.N,Net-(J17-Pad2)*%
X90920000Y-31220000D02*
X89000000Y-29300000D01*
X90920000Y-32760000D02*
X90920000Y-31220000D01*
%TO.N,Net-(J18-Pad2)*%
X71920000Y-31220000D02*
X70000000Y-29300000D01*
X71920000Y-32760000D02*
X71920000Y-31220000D01*
%TO.N,Net-(J19-Pad2)*%
X52920000Y-31220000D02*
X51000000Y-29300000D01*
X52920000Y-32760000D02*
X52920000Y-31220000D01*
%TO.N,Net-(J20-Pad2)*%
X33920000Y-31220000D02*
X32000000Y-29300000D01*
X33920000Y-32760000D02*
X33920000Y-31220000D01*
%TO.N,Net-(LED1-Pad1)*%
X394666000Y-26760000D02*
X395206000Y-27300000D01*
X393000000Y-26760000D02*
X394666000Y-26760000D01*
%TO.N,Net-(R22-Pad2)*%
X412460000Y-26628630D02*
X412460000Y-26680000D01*
X409131370Y-23300000D02*
X412460000Y-26628630D01*
X408000000Y-23300000D02*
X409131370Y-23300000D01*
%TO.N,Net-(R23-Pad1)*%
X409920000Y-28380000D02*
X409000000Y-29300000D01*
X409920000Y-26680000D02*
X409920000Y-28380000D01*
X409000000Y-29300000D02*
X406000000Y-29300000D01*
X371000000Y-22300000D02*
X370000000Y-23300000D01*
X406000000Y-29300000D02*
X399000000Y-22300000D01*
X399000000Y-22300000D02*
X371000000Y-22300000D01*
%TO.N,Net-(R24-Pad1)*%
X388000000Y-34300000D02*
X388000000Y-34300000D01*
X392000000Y-31300000D02*
X391000000Y-31300000D01*
X385000000Y-37300000D02*
X334300000Y-37300000D01*
X329000000Y-26300000D02*
X332000000Y-23300000D01*
X334300000Y-37300000D02*
X329000000Y-32000000D01*
X391000000Y-31300000D02*
X385000000Y-37300000D01*
X329000000Y-32000000D02*
X329000000Y-26300000D01*
%TO.N,Net-(LED2-Pad1)*%
X375666000Y-26760000D02*
X376206000Y-27300000D01*
X374000000Y-26760000D02*
X375666000Y-26760000D01*
%TO.N,Net-(LED3-Pad1)*%
X356666000Y-26760000D02*
X357206000Y-27300000D01*
X355000000Y-26760000D02*
X356666000Y-26760000D01*
%TO.N,Net-(LED4-Pad1)*%
X337666000Y-26760000D02*
X338206000Y-27300000D01*
X336000000Y-26760000D02*
X337666000Y-26760000D01*
%TO.N,Net-(LED5-Pad1)*%
X318666000Y-26760000D02*
X319206000Y-27300000D01*
X317000000Y-26760000D02*
X318666000Y-26760000D01*
%TO.N,Net-(LED6-Pad1)*%
X299666000Y-26760000D02*
X300206000Y-27300000D01*
X298000000Y-26760000D02*
X299666000Y-26760000D01*
%TO.N,Net-(LED7-Pad1)*%
X280666000Y-26760000D02*
X281206000Y-27300000D01*
X279000000Y-26760000D02*
X280666000Y-26760000D01*
%TO.N,Net-(LED8-Pad1)*%
X269800000Y-27260000D02*
X268140000Y-25600000D01*
X268140000Y-25600000D02*
X262500000Y-25600000D01*
X262206000Y-25894000D02*
X262206000Y-27300000D01*
X262500000Y-25600000D02*
X262206000Y-25894000D01*
%TO.N,Net-(LED11-Pad1)*%
X204796000Y-26890000D02*
X205206000Y-27300000D01*
X202810000Y-26890000D02*
X204796000Y-26890000D01*
%TO.N,Net-(LED12-Pad1)*%
X192500000Y-26000000D02*
X193800000Y-27300000D01*
X186657472Y-26000000D02*
X192500000Y-26000000D01*
X186206000Y-26451472D02*
X186657472Y-26000000D01*
X186206000Y-27300000D02*
X186206000Y-26451472D01*
%TO.N,Net-(LED13-Pad1)*%
X165756000Y-25850000D02*
X167206000Y-27300000D01*
X165500000Y-25850000D02*
X165756000Y-25850000D01*
%TO.N,Net-(LED14-Pad1)*%
X146000000Y-26760000D02*
X147666000Y-26760000D01*
X147666000Y-26760000D02*
X148206000Y-27300000D01*
%TO.N,Net-(LED16-Pad1)*%
X109666000Y-26760000D02*
X110206000Y-27300000D01*
X108000000Y-26760000D02*
X109666000Y-26760000D01*
%TO.N,Net-(LED17-Pad1)*%
X90666000Y-26760000D02*
X91206000Y-27300000D01*
X89000000Y-26760000D02*
X90666000Y-26760000D01*
%TO.N,Net-(LED18-Pad1)*%
X71666000Y-26760000D02*
X72206000Y-27300000D01*
X70000000Y-26760000D02*
X71666000Y-26760000D01*
%TO.N,Net-(LED19-Pad1)*%
X52666000Y-26760000D02*
X53206000Y-27300000D01*
X51000000Y-26760000D02*
X52666000Y-26760000D01*
%TO.N,Net-(LED20-Pad1)*%
X33666000Y-26760000D02*
X34206000Y-27300000D01*
X32000000Y-26760000D02*
X33666000Y-26760000D01*
%TO.N,Net-(C1-Pad2)*%
X64000000Y-33710000D02*
X64900000Y-34610000D01*
X64000000Y-25000000D02*
X64000000Y-33710000D01*
X64900000Y-34610000D02*
X66000000Y-34610000D01*
X64000000Y-25000000D02*
X67000000Y-22000000D01*
X67000000Y-22000000D02*
X81500000Y-22000000D01*
X84540000Y-25040000D02*
X84540000Y-27000000D01*
X81500000Y-22000000D02*
X84540000Y-25040000D01*
%TO.N,Net-(C2-Pad2)*%
X46540000Y-27000000D02*
X46540000Y-24460000D01*
X46540000Y-24460000D02*
X49000000Y-22000000D01*
X49000000Y-22000000D02*
X60000000Y-22000000D01*
X62100000Y-24100000D02*
X62100000Y-27000000D01*
X60000000Y-22000000D02*
X62100000Y-24100000D01*
%TO.N,Net-(C3-Pad2)*%
X124600000Y-36250000D02*
X126850000Y-34000000D01*
X135825000Y-34000000D02*
X126850000Y-34000000D01*
X136137500Y-34312500D02*
X135825000Y-34000000D01*
X135975000Y-34150000D02*
X136137500Y-34312500D01*
X136137500Y-34312500D02*
X136462500Y-34637500D01*
X138000000Y-23100000D02*
X125840000Y-23100000D01*
X143175000Y-30250000D02*
X143175000Y-25675000D01*
X139650000Y-24750000D02*
X138000000Y-23100000D01*
X142250000Y-24750000D02*
X139650000Y-24750000D01*
X143175000Y-25675000D02*
X142250000Y-24750000D01*
X125840000Y-22050000D02*
X125390000Y-21600000D01*
X125840000Y-23100000D02*
X125840000Y-22050000D01*
X125390000Y-21600000D02*
X111300000Y-21600000D01*
X111300000Y-21600000D02*
X111200000Y-21600000D01*
X107900000Y-21600000D02*
X107500000Y-21200000D01*
X111300000Y-21600000D02*
X107900000Y-21600000D01*
X107500000Y-21200000D02*
X104200000Y-21200000D01*
X104200000Y-21200000D02*
X103500000Y-21900000D01*
X103500000Y-23900000D02*
X102300000Y-25100000D01*
X103500000Y-21900000D02*
X103500000Y-23900000D01*
X102300000Y-25100000D02*
X102300000Y-26480000D01*
X142500000Y-30925000D02*
X142500000Y-33550000D01*
X143175000Y-30250000D02*
X142500000Y-30925000D01*
X142500000Y-34600000D02*
X141850000Y-35250000D01*
X142500000Y-33550000D02*
X142500000Y-34600000D01*
X137075000Y-35250000D02*
X136462500Y-34637500D01*
X141850000Y-35250000D02*
X137075000Y-35250000D01*
%TO.N,Net-(C4-Pad1)*%
X117420001Y-31519999D02*
X117420001Y-31529999D01*
X118220000Y-30720000D02*
X117420001Y-31519999D01*
X117780000Y-36250000D02*
X119600000Y-36250000D01*
X117420001Y-31519999D02*
X117420000Y-35890000D01*
X117420000Y-35890000D02*
X117780000Y-36250000D01*
%TO.N,Net-(J24-Pad1)*%
X118220000Y-23100000D02*
X125840000Y-30720000D01*
X105550000Y-24030000D02*
X106600000Y-25080000D01*
X106600000Y-25080000D02*
X106600000Y-29500000D01*
X106600000Y-29500000D02*
X105700000Y-30400000D01*
X102300000Y-31700000D02*
X102300000Y-34100000D01*
X105550000Y-22930000D02*
X105550000Y-24030000D01*
%TO.N,Net-(U2-Pad3)*%
X104900000Y-28700000D02*
X104900000Y-26540000D01*
X104900000Y-26540000D02*
X104840000Y-26480000D01*
%TO.N,Net-(U3-Pad3)*%
X104840000Y-32850000D02*
X99760000Y-27770000D01*
X99760000Y-27770000D02*
X99760000Y-26480000D01*
X104840000Y-34100000D02*
X104840000Y-32850000D01*
%TO.N,Net-(J25-Pad1)*%
X97900000Y-25420000D02*
X97900000Y-30200000D01*
X100390000Y-22930000D02*
X97900000Y-25420000D01*
X97900000Y-30200000D02*
X99760000Y-32060000D01*
X99760000Y-32060000D02*
X99760000Y-34100000D01*
X101490000Y-22930000D02*
X100390000Y-22930000D01*
%TO.N,Net-(C5-Pad2)*%
X161825000Y-33570000D02*
X161130000Y-32875000D01*
X161825000Y-36050000D02*
X161825000Y-33570000D01*
%TO.N,Net-(C5-Pad1)*%
X160218000Y-24860000D02*
X160572000Y-24506000D01*
X156254000Y-24860000D02*
X160218000Y-24860000D01*
%TO.N,Net-(C6-Pad1)*%
X163300000Y-23450000D02*
X167730000Y-23460000D01*
X162800000Y-23950000D02*
X163300000Y-23450000D01*
X162800000Y-29755000D02*
X162800000Y-23950000D01*
X162180000Y-30375000D02*
X162800000Y-29755000D01*
X161130000Y-30375000D02*
X162180000Y-30375000D01*
X173700000Y-26754315D02*
X173700000Y-34580000D01*
X174340000Y-35220000D02*
X177780000Y-35220000D01*
X179060000Y-36500000D02*
X182800000Y-36500000D01*
X173700000Y-34580000D02*
X174340000Y-35220000D01*
X177780000Y-35220000D02*
X179060000Y-36500000D01*
X170405685Y-23460000D02*
X173700000Y-26754315D01*
X169840000Y-23460000D02*
X170405685Y-23460000D01*
%TO.N,Net-(C7-Pad2)*%
X156825000Y-33365000D02*
X156830000Y-33360000D01*
X156825000Y-36050000D02*
X156825000Y-33365000D01*
%TO.N,Net-(C11-Pad2)*%
X141200000Y-28950000D02*
X140068630Y-28950000D01*
X123300000Y-24231370D02*
X123300000Y-23100000D01*
X124093630Y-25025000D02*
X123300000Y-24231370D01*
X138900000Y-25900000D02*
X138025000Y-25025000D01*
X138025000Y-25025000D02*
X124093630Y-25025000D01*
X140068630Y-28950000D02*
X140068630Y-28938630D01*
X140068630Y-28938630D02*
X138900000Y-27770000D01*
X138900000Y-27770000D02*
X138900000Y-25900000D01*
X156830000Y-30820000D02*
X156830000Y-29530000D01*
X156830000Y-29530000D02*
X157680000Y-28680000D01*
X157680000Y-28680000D02*
X161290000Y-28680000D01*
X161290000Y-28680000D02*
X162270000Y-27700000D01*
X258700000Y-29260000D02*
X259499999Y-28460001D01*
X259499999Y-28460001D02*
X259499999Y-28450001D01*
X259499999Y-28450001D02*
X260750000Y-27200000D01*
X260750000Y-27200000D02*
X260750000Y-25200000D01*
X162270000Y-27700000D02*
X162270000Y-22960000D01*
X162270000Y-22960000D02*
X162870000Y-22360000D01*
X162870000Y-22360000D02*
X167730000Y-22360000D01*
X147154264Y-22360000D02*
X162870000Y-22360000D01*
X146954264Y-22560000D02*
X147154264Y-22360000D01*
X146530000Y-22560000D02*
X146954264Y-22560000D01*
X260750000Y-25200000D02*
X260750000Y-25050000D01*
X260750000Y-25050000D02*
X261600000Y-24200000D01*
X178568630Y-22500000D02*
X177700000Y-23368630D01*
X177700000Y-23368630D02*
X177700000Y-24500000D01*
X232600000Y-22500000D02*
X178568630Y-22500000D01*
X234500000Y-24400000D02*
X232600000Y-22500000D01*
X262360000Y-23440000D02*
X272860000Y-23440000D01*
X261600000Y-24200000D02*
X262360000Y-23440000D01*
X277140000Y-21700000D02*
X275400000Y-23440000D01*
X415000000Y-34300000D02*
X416050000Y-34300000D01*
X416700000Y-22250000D02*
X416150000Y-21700000D01*
X416050000Y-34300000D02*
X416700000Y-33650000D01*
X416700000Y-33650000D02*
X416700000Y-22250000D01*
X416150000Y-21700000D02*
X277140000Y-21700000D01*
D27*
X272860000Y-33600000D02*
X272860000Y-31060000D01*
X272860000Y-31060000D02*
X272860000Y-28520000D01*
X272860000Y-28520000D02*
X272860000Y-25980000D01*
X272860000Y-25980000D02*
X272860000Y-23440000D01*
X275400000Y-33600000D02*
X275400000Y-31060000D01*
X275400000Y-31060000D02*
X275400000Y-28520000D01*
X275400000Y-28520000D02*
X275400000Y-25980000D01*
X275400000Y-25980000D02*
X275400000Y-23440000D01*
X272860000Y-23440000D02*
X275400000Y-23440000D01*
X275400000Y-33600000D02*
X272860000Y-33600000D01*
X272860000Y-31060000D02*
X275400000Y-31060000D01*
X275400000Y-28520000D02*
X272860000Y-28520000D01*
X272860000Y-25980000D02*
X275400000Y-25980000D01*
D26*
X138900000Y-28750000D02*
X138900000Y-29150000D01*
X138900000Y-28750000D02*
X138900000Y-27770000D01*
X138900000Y-32450000D02*
X140000000Y-33550000D01*
X138900000Y-28750000D02*
X138900000Y-32450000D01*
X235700000Y-27100000D02*
X234500000Y-25900000D01*
X235700000Y-29150000D02*
X235700000Y-27100000D01*
X234500000Y-25900000D02*
X234500000Y-24400000D01*
%TO.N,Net-(C10-Pad2)*%
X252400000Y-29768630D02*
X252400000Y-34600000D01*
X254300000Y-29000000D02*
X253168630Y-29000000D01*
X253168630Y-29000000D02*
X252400000Y-29768630D01*
X217650000Y-24850000D02*
X218800000Y-23700000D01*
X217650000Y-25950000D02*
X217650000Y-24850000D01*
X218800000Y-23700000D02*
X230400000Y-23700000D01*
X230400000Y-23700000D02*
X232100000Y-25400000D01*
%TO.N,Net-(C9-Pad1)*%
X258700000Y-22500000D02*
X257300000Y-22500000D01*
X256400000Y-23400000D02*
X254400000Y-23400000D01*
X257300000Y-22500000D02*
X256400000Y-23400000D01*
%TO.N,Net-(C10-Pad1)*%
X252600000Y-26800000D02*
X252600000Y-24450000D01*
X243900000Y-23000000D02*
X242050000Y-24850000D01*
X253250000Y-27450000D02*
X252600000Y-26800000D01*
X252600000Y-24450000D02*
X251150000Y-23000000D01*
X255800000Y-31500000D02*
X256600000Y-30700000D01*
X254300000Y-31500000D02*
X255800000Y-31500000D01*
X256600000Y-30700000D02*
X256600000Y-28100000D01*
X251150000Y-23000000D02*
X243900000Y-23000000D01*
X256600000Y-28100000D02*
X255950000Y-27450000D01*
X255950000Y-27450000D02*
X253250000Y-27450000D01*
%TO.N,Net-(C11-Pad1)*%
X237000000Y-29581370D02*
X237000000Y-25450000D01*
X237000000Y-25450000D02*
X237000000Y-24400000D01*
X238728630Y-31310000D02*
X237000000Y-29581370D01*
X239860000Y-31310000D02*
X238728630Y-31310000D01*
%TO.N,Net-(J29-Pad1)*%
X198280000Y-30400000D02*
X197180000Y-30400000D01*
X199170000Y-24630000D02*
X199170000Y-29510000D01*
X199170000Y-29510000D02*
X198280000Y-30400000D01*
X175180000Y-33960000D02*
X178070000Y-33960000D01*
X178070000Y-33960000D02*
X178870000Y-33160000D01*
X178870000Y-33160000D02*
X178870000Y-29590000D01*
X198550000Y-24010000D02*
X199170000Y-24630000D01*
X178870000Y-29590000D02*
X184450000Y-24010000D01*
X184450000Y-24010000D02*
X198550000Y-24010000D01*
%TO.N,Net-(J35-Pad1)*%
X219400000Y-26000000D02*
X221000000Y-24400000D01*
X217650000Y-30400000D02*
X217650000Y-29300000D01*
X221000000Y-24400000D02*
X229350000Y-24400000D01*
X219400000Y-27550000D02*
X219400000Y-26000000D01*
X217650000Y-29300000D02*
X219400000Y-27550000D01*
X229350000Y-24400000D02*
X232025000Y-27075000D01*
X232025000Y-27075000D02*
X232875000Y-27075000D01*
X232875000Y-27075000D02*
X234400000Y-28600000D01*
X238728630Y-33850000D02*
X239860000Y-33850000D01*
X234400000Y-29521370D02*
X238728630Y-33850000D01*
X234400000Y-28600000D02*
X234400000Y-29521370D01*
%TO.N,Net-(J36-Pad1)*%
X230700000Y-32310000D02*
X232240000Y-33850000D01*
X230700000Y-27050000D02*
X230700000Y-32310000D01*
X228750000Y-25100000D02*
X230700000Y-27050000D01*
X218700000Y-34850000D02*
X220050000Y-33500000D01*
X217600000Y-34850000D02*
X218700000Y-34850000D01*
X220050000Y-33500000D02*
X220050000Y-26300000D01*
X220050000Y-26300000D02*
X221250000Y-25100000D01*
X221250000Y-25100000D02*
X228750000Y-25100000D01*
%TO.N,Net-(J21-Pad1)*%
X413787919Y-23300000D02*
X412450000Y-23300000D01*
X414990000Y-23300000D02*
X413787919Y-23300000D01*
%TD*%
M02*
